<svg width="100" height="100" viewBox="0 0 100 100" fill="none" xmlns="http://www.w3.org/2000/svg">
<path d="M91.435 17.607C85.7514 11.8387 78.1637 8.6457 70.0695 8.61543C70.0311 8.61523 69.9932 8.61523 69.9545 8.61523C62.5279 8.61523 55.514 11.2813 50 16.1652C44.4855 11.2811 37.4726 8.61523 30.0454 8.61523C30.0073 8.61523 29.9687 8.61523 29.9304 8.61543C21.8358 8.64551 14.2481 11.8387 8.56492 17.607C-3.01382 29.3586 -2.82944 48.5241 8.97624 60.3298L33.0044 84.358C37.6902 89.0435 43.8453 91.3865 50.0004 91.3865C56.1554 91.3865 62.3103 89.0435 66.9963 84.358L91.0245 60.3298C102.829 48.5241 103.014 29.3588 91.435 17.607ZM88.3041 57.6104L64.2762 81.6382C60.4627 85.4517 55.3927 87.5517 49.9998 87.5517C44.6068 87.5517 39.5369 85.4515 35.7234 81.6382L11.6952 57.6104C1.37799 47.2932 1.2024 30.5584 11.304 20.3063C16.2628 15.2735 22.8827 12.4873 29.9445 12.4613C29.978 12.4611 30.0112 12.4611 30.0446 12.4611C37.0695 12.4611 43.6701 15.1949 48.64 20.1647C49.0007 20.5252 49.4896 20.728 49.9996 20.728C50.5095 20.728 50.9984 20.5252 51.3591 20.1647C56.3293 15.1943 62.9293 12.4611 69.9545 12.4611C69.9877 12.4611 70.0217 12.4611 70.0547 12.4613C77.1166 12.4875 83.7364 15.2735 88.6952 20.3063C98.7971 30.5584 98.6215 47.2932 88.3041 57.6104Z" fill="white"/>
<path d="M30.6531 42.8919C28.8412 42.8919 27.3672 41.4186 27.3672 39.6077V26.466C27.3672 24.655 28.8407 23.1816 30.6516 23.1816C32.4639 23.1816 33.9375 24.6551 33.9375 26.466V39.6078C33.9376 41.4187 32.464 42.8919 30.6531 42.8919ZM30.6531 24.9983C29.8431 24.9983 29.1838 25.6568 29.1838 26.466V39.6078C29.1838 40.4168 29.8424 41.0753 30.6516 41.0753C31.4616 41.0753 32.1209 40.4168 32.1209 39.6078V26.466C32.121 25.6567 31.4624 24.9983 30.6531 24.9983Z" fill="white"/>
<path d="M30.6525 58.8771C30.1508 58.8771 29.7441 58.4705 29.7441 57.9688V41.9826C29.7441 41.4808 30.1507 41.0742 30.6525 41.0742C31.1542 41.0742 31.5608 41.4808 31.5608 41.9826V57.9688C31.5608 58.4705 31.1542 58.8771 30.6525 58.8771Z" fill="white"/>
<path d="M40.4617 41.892C38.6496 41.892 37.1758 40.4189 37.1758 38.6076V25.466C37.1758 23.6551 38.6493 22.1816 40.4602 22.1816C42.2725 22.1816 43.7461 23.6551 43.7461 25.466V38.6075C43.7461 40.4189 42.2726 41.892 40.4617 41.892ZM40.4617 23.9983C39.6517 23.9983 38.9924 24.6568 38.9924 25.466V38.6075C38.9924 39.4168 39.651 40.0753 40.4602 40.0753C41.2702 40.0753 41.9295 39.4167 41.9295 38.6075V25.466C41.9295 24.6568 41.271 23.9983 40.4617 23.9983Z" fill="white"/>
<path d="M40.4631 57.879C39.9613 57.879 39.5547 57.4725 39.5547 56.9707V40.9844C39.5547 40.4828 39.9613 40.0762 40.4631 40.0762C40.9647 40.0762 41.3713 40.4828 41.3713 40.9844V56.9707C41.3713 57.4725 40.9647 57.879 40.4631 57.879Z" fill="white"/>
<path d="M49.8344 43.6186C48.0227 43.6186 46.5488 42.1454 46.5488 40.3344V27.1926C46.5488 25.3817 48.0224 23.9082 49.8333 23.9082C51.6454 23.9082 53.1188 25.3818 53.1188 27.1926V40.3344C53.1188 42.1454 51.6453 43.6186 49.8344 43.6186ZM49.8344 25.7248C49.0244 25.7248 48.3654 26.3834 48.3654 27.1926V40.3344C48.3654 41.1434 49.024 41.802 49.8333 41.802C50.6434 41.802 51.3022 41.1434 51.3022 40.3344V27.1926C51.3022 26.3833 50.6436 25.7248 49.8344 25.7248Z" fill="white"/>
<path d="M49.8341 59.3311C49.3325 59.3311 48.9258 58.9245 48.9258 58.4227V42.709C48.9258 42.2074 49.3324 41.8008 49.8341 41.8008C50.3359 41.8008 50.7424 42.2074 50.7424 42.709V58.4229C50.7424 58.9245 50.3358 59.3311 49.8341 59.3311Z" fill="white"/>
<path d="M59.2644 45.7981C57.4524 45.7981 55.9785 44.325 55.9785 42.514V29.3724C55.9785 27.5614 57.4521 26.0879 59.2629 26.0879C61.0753 26.0879 62.5488 27.5615 62.5488 29.3724V42.5141C62.5488 44.3251 61.0754 45.7981 59.2644 45.7981ZM59.2644 27.9045C58.4544 27.9045 57.7951 28.5631 57.7951 29.3724V42.5141C57.7951 43.3231 58.4537 43.9816 59.2629 43.9816C60.0731 43.9816 60.7322 43.3231 60.7322 42.5141V29.3724C60.7322 28.563 60.0738 27.9045 59.2644 27.9045Z" fill="white"/>
<path d="M59.2637 61.6926C58.7619 61.6926 58.3555 61.286 58.3555 60.7842V44.8888C58.3555 44.3871 58.7619 43.9805 59.2637 43.9805C59.7655 43.9805 60.1721 44.3871 60.1721 44.8888V60.7842C60.1721 61.286 59.7655 61.6926 59.2637 61.6926Z" fill="white"/>
<path d="M68.7117 47.5426C66.8996 47.5426 65.4258 46.0688 65.4258 44.2578V31.1164C65.4258 29.3054 66.8994 27.832 68.7102 27.832C70.5226 27.832 71.9961 29.3055 71.9961 31.1164V44.2578C71.9961 46.0688 70.5226 47.5426 68.7117 47.5426ZM68.7117 29.6486C67.9017 29.6486 67.2424 30.3072 67.2424 31.1164V44.2578C67.2424 45.0674 67.901 45.726 68.7102 45.726C69.5202 45.726 70.1795 45.0674 70.1795 44.2578V31.1164C70.1795 30.3071 69.5209 29.6486 68.7117 29.6486Z" fill="white"/>
<path d="M68.7111 63.4183C68.2093 63.4183 67.8027 63.0117 67.8027 62.5099V46.633C67.8027 46.1313 68.2093 45.7246 68.7111 45.7246C69.2129 45.7246 69.6193 46.1312 69.6193 46.633V62.5099C69.6193 63.0116 69.2128 63.4183 68.7111 63.4183Z" fill="white"/>
<path d="M75.3417 66.6894H70.2552C68.3953 66.6334 62.8198 66.4645 47.1372 62.3913C33.7635 58.9149 25.2657 64.7386 25.1817 64.7975C24.7715 65.0842 24.2055 64.987 23.9164 64.5783C23.6276 64.169 23.7242 63.6041 24.1329 63.3138C24.5029 63.052 33.3618 56.9373 47.5943 60.6329C58.0136 63.3393 65.4351 64.7267 70.2829 64.8736L75.3418 64.8729C75.8436 64.8729 76.2501 65.2795 76.2501 65.7812C76.25 66.2827 75.8435 66.6894 75.3417 66.6894Z" fill="white"/>
<path d="M62.9339 70.4846C62.8842 70.4846 62.8338 70.4803 62.783 70.4717C58.5967 69.7721 53.3332 68.6012 47.1382 66.9925C43.5364 66.0579 39.9689 65.706 36.5376 65.9536C36.0437 65.9819 35.6026 65.6122 35.5668 65.112C35.531 64.6117 35.9075 64.1773 36.4077 64.1413C40.0367 63.8816 43.802 64.2491 47.5948 65.234C53.7379 66.83 58.9487 67.9894 63.0826 68.6807C63.5775 68.7629 63.9114 69.2313 63.8287 69.7259C63.7546 70.1703 63.3696 70.4846 62.9339 70.4846Z" fill="white"/>
</svg>
