<svg width="100" height="100" viewBox="0 0 100 100" fill="none" xmlns="http://www.w3.org/2000/svg">
<rect width="100" height="100" fill="#259BF1"/>
<g clip-path="url(#clip0_659_349)">
<path d="M83.148 24.0841C78.6011 19.4694 72.5309 16.915 66.0556 16.8908C66.0248 16.8906 65.9945 16.8906 65.9636 16.8906C60.0223 16.8906 54.4112 19.0234 50 22.9306C45.5884 19.0233 39.9781 16.8906 34.0363 16.8906C34.0059 16.8906 33.9749 16.8906 33.9443 16.8908C27.4687 16.9148 21.3985 19.4694 16.8519 24.0841C7.58895 33.4853 7.73645 48.8177 17.181 58.2623L36.4035 77.4848C40.1521 81.2332 45.0762 83.1076 50.0003 83.1076C54.9244 83.1076 59.8483 81.2332 63.597 77.4848L82.8196 58.2623C92.2633 48.8177 92.4108 33.4855 83.148 24.0841ZM80.6433 56.0868L61.4209 75.309C58.3701 78.3598 54.3142 80.0398 49.9998 80.0398C45.6854 80.0398 41.6295 78.3596 38.5787 75.309L19.3562 56.0868C11.1024 47.833 10.9619 34.4452 19.0432 26.2435C23.0102 22.2172 28.3062 19.9883 33.9556 19.9675C33.9824 19.9673 34.009 19.9673 34.0357 19.9673C39.6556 19.9673 44.936 22.1544 48.912 26.1302C49.2006 26.4186 49.5917 26.5808 49.9997 26.5808C50.4076 26.5808 50.7987 26.4186 51.0873 26.1302C55.0634 22.1539 60.3434 19.9673 65.9636 19.9673C65.9902 19.9673 66.0173 19.9673 66.0437 19.9675C71.6933 19.9884 76.9891 22.2172 80.9561 26.2435C89.0377 34.4452 88.8972 47.833 80.6433 56.0868Z" fill="white"/>
<path d="M34.5213 44.3112C33.0718 44.3112 31.8926 43.1326 31.8926 41.6838V31.1705C31.8926 29.7217 33.0714 28.543 34.5201 28.543C35.9699 28.543 37.1488 29.7218 37.1488 31.1705V41.6839C37.1489 43.1326 35.97 44.3112 34.5213 44.3112ZM34.5213 29.9963C33.8733 29.9963 33.3459 30.5231 33.3459 31.1705V41.6839C33.3459 42.3311 33.8727 42.8579 34.5201 42.8579C35.1681 42.8579 35.6955 42.3311 35.6955 41.6839V31.1705C35.6956 30.523 35.1688 29.9963 34.5213 29.9963Z" fill="white"/>
<path d="M34.5216 57.1017C34.1203 57.1017 33.7949 56.7764 33.7949 56.3751V43.5861C33.7949 43.1846 34.1202 42.8594 34.5216 42.8594C34.9229 42.8594 35.2482 43.1846 35.2482 43.5861V56.3751C35.2482 56.7764 34.9229 57.1017 34.5216 57.1017Z" fill="white"/>
<path d="M42.3709 43.5124C40.9213 43.5124 39.7422 42.3339 39.7422 40.8849V30.3717C39.7422 28.9229 40.921 27.7441 42.3697 27.7441C43.8195 27.7441 44.9984 28.9229 44.9984 30.3717V40.8848C44.9984 42.3339 43.8196 43.5124 42.3709 43.5124ZM42.3709 29.1974C41.7229 29.1974 41.1955 29.7243 41.1955 30.3717V40.8848C41.1955 41.5323 41.7223 42.059 42.3697 42.059C43.0177 42.059 43.5451 41.5322 43.5451 40.8848V30.3717C43.5451 29.7243 43.0184 29.1974 42.3709 29.1974Z" fill="white"/>
<path d="M42.3693 56.3009C41.9678 56.3009 41.6426 55.9756 41.6426 55.5742V42.7852C41.6426 42.3839 41.9678 42.0586 42.3693 42.0586C42.7706 42.0586 43.0959 42.3839 43.0959 42.7852V55.5742C43.0959 55.9756 42.7706 56.3009 42.3693 56.3009Z" fill="white"/>
<path d="M49.8667 44.8933C48.4174 44.8933 47.2383 43.7148 47.2383 42.266V31.7525C47.2383 30.3038 48.4172 29.125 49.8659 29.125C51.3155 29.125 52.4943 30.3039 52.4943 31.7525V42.266C52.4943 43.7148 51.3155 44.8933 49.8667 44.8933ZM49.8667 30.5783C49.2187 30.5783 48.6916 31.1052 48.6916 31.7525V42.266C48.6916 42.9131 49.2184 43.44 49.8659 43.44C50.5139 43.44 51.041 42.9131 51.041 42.266V31.7525C51.041 31.1051 50.5141 30.5783 49.8667 30.5783Z" fill="white"/>
<path d="M49.8673 57.4637C49.466 57.4637 49.1406 57.1385 49.1406 56.737V44.1661C49.1406 43.7647 49.4659 43.4395 49.8673 43.4395C50.2687 43.4395 50.5939 43.7647 50.5939 44.1661V56.7371C50.5939 57.1385 50.2687 57.4637 49.8673 57.4637Z" fill="white"/>
<path d="M57.4119 46.6373C55.9623 46.6373 54.7832 45.4588 54.7832 44.01V33.4968C54.7832 32.0479 55.9621 30.8691 57.4107 30.8691C58.8607 30.8691 60.0395 32.048 60.0395 33.4968V44.0101C60.0395 45.4589 58.8608 46.6373 57.4119 46.6373ZM57.4119 32.3224C56.7639 32.3224 56.2365 32.8493 56.2365 33.4968V44.0101C56.2365 44.6573 56.7634 45.1841 57.4107 45.1841C58.0588 45.1841 58.5862 44.6573 58.5862 44.0101V33.4968C58.5862 32.8492 58.0594 32.3224 57.4119 32.3224Z" fill="white"/>
<path d="M57.4121 59.3533C57.0107 59.3533 56.6855 59.028 56.6855 58.6266V45.9103C56.6855 45.5089 57.0107 45.1836 57.4121 45.1836C57.8136 45.1836 58.1388 45.5089 58.1388 45.9103V58.6266C58.1388 59.028 57.8136 59.3533 57.4121 59.3533Z" fill="white"/>
<path d="M64.9686 48.0322C63.5189 48.0322 62.3398 46.8531 62.3398 45.4043V34.8912C62.3398 33.4424 63.5187 32.2637 64.9674 32.2637C66.4173 32.2637 67.5961 33.4425 67.5961 34.8912V45.4043C67.5961 46.8531 66.4173 48.0322 64.9686 48.0322ZM64.9686 33.717C64.3206 33.717 63.7931 34.2438 63.7931 34.8912V45.4043C63.7931 46.052 64.32 46.5789 64.9674 46.5789C65.6154 46.5789 66.1428 46.052 66.1428 45.4043V34.8912C66.1428 34.2437 65.6159 33.717 64.9686 33.717Z" fill="white"/>
<path d="M64.9689 60.7331C64.5675 60.7331 64.2422 60.4078 64.2422 60.0064V47.3048C64.2422 46.9035 64.5675 46.5781 64.9689 46.5781C65.3703 46.5781 65.6955 46.9034 65.6955 47.3048V60.0064C65.6955 60.4077 65.3702 60.7331 64.9689 60.7331Z" fill="white"/>
<path d="M70.2734 63.3508H66.2041C64.7162 63.306 60.2558 63.1708 47.7098 59.9123C37.0108 57.1311 30.2126 61.7901 30.1454 61.8373C29.8172 62.0666 29.3644 61.9888 29.1332 61.6619C28.9021 61.3344 28.9793 60.8825 29.3063 60.6502C29.6023 60.4408 36.6894 55.549 48.0754 58.5055C56.4108 60.6707 62.3481 61.7806 66.2263 61.8981L70.2735 61.8976C70.6749 61.8976 71.0001 62.2228 71.0001 62.6242C71 63.0254 70.6748 63.3508 70.2734 63.3508Z" fill="white"/>
<path d="M60.3467 66.3873C60.307 66.3873 60.2666 66.3838 60.226 66.377C56.877 65.8173 52.6661 64.8806 47.7101 63.5936C44.8288 62.8459 41.9747 62.5644 39.2297 62.7625C38.8346 62.7852 38.4817 62.4894 38.4531 62.0892C38.4244 61.689 38.7256 61.3415 39.1258 61.3126C42.0289 61.1049 45.0412 61.3989 48.0754 62.1868C52.9899 63.4636 57.1586 64.3911 60.4657 64.9441C60.8616 65.0099 61.1288 65.3847 61.0626 65.7803C61.0033 66.1358 60.6953 66.3873 60.3467 66.3873Z" fill="white"/>
</g>
<defs>
<clipPath id="clip0_659_349">
<rect width="80" height="80" fill="white" transform="translate(10 10)"/>
</clipPath>
</defs>
</svg>
