<svg width="100" height="100" viewBox="0 0 100 100" fill="none" xmlns="http://www.w3.org/2000/svg">
<rect width="100" height="100" fill="#259BF1"/>
<g clip-path="url(#clip0_659_351)">
<path d="M83.148 24.0841C78.6011 19.4694 72.5309 16.915 66.0556 16.8908C66.0248 16.8906 65.9945 16.8906 65.9636 16.8906C60.0223 16.8906 54.4112 19.0234 50 22.9306C45.5884 19.0233 39.9781 16.8906 34.0363 16.8906C34.0059 16.8906 33.9749 16.8906 33.9443 16.8908C27.4687 16.9148 21.3985 19.4694 16.8519 24.0841C7.58895 33.4853 7.73645 48.8177 17.181 58.2623L36.4035 77.4848C40.1521 81.2332 45.0762 83.1076 50.0003 83.1076C54.9244 83.1076 59.8483 81.2332 63.597 77.4848L82.8196 58.2623C92.2633 48.8177 92.4108 33.4855 83.148 24.0841ZM80.6433 56.0868L61.4209 75.309C58.3701 78.3598 54.3142 80.0398 49.9998 80.0398C45.6854 80.0398 41.6295 78.3596 38.5787 75.309L19.3562 56.0868C11.1024 47.833 10.9619 34.4452 19.0432 26.2435C23.0102 22.2172 28.3062 19.9883 33.9556 19.9675C33.9824 19.9673 34.009 19.9673 34.0357 19.9673C39.6556 19.9673 44.936 22.1544 48.912 26.1302C49.2006 26.4186 49.5917 26.5808 49.9997 26.5808C50.4076 26.5808 50.7987 26.4186 51.0873 26.1302C55.0634 22.1539 60.3434 19.9673 65.9636 19.9673C65.9902 19.9673 66.0173 19.9673 66.0437 19.9675C71.6933 19.9884 76.9891 22.2172 80.9561 26.2435C89.0377 34.4452 88.8972 47.833 80.6433 56.0868Z" fill="white"/>
<g clip-path="url(#clip1_659_351)">
<mask id="path-3-inside-1_659_351" fill="white">
<path d="M40.544 50.2425C37.3215 47.0823 35.2738 44.2553 34.2842 41.6001C31.8945 36.1876 34.8586 29.4163 40.4668 27.5137C43.9868 26.2317 46.5066 27.3143 48.0007 28.4481C48.956 29.1731 49.6146 30.0003 49.998 30.5643C50.3811 30.0004 51.0391 29.1737 51.9939 28.4494C53.4874 27.3166 56.0066 26.2357 59.5273 27.5197C65.1343 29.4243 68.105 36.1958 65.7184 41.6093C64.9176 43.7613 63.4514 45.9881 61.2358 48.4168L60.5636 47.8026C62.7017 45.4587 64.1097 43.3264 64.8682 41.2837C67.0673 36.3282 64.3543 30.1208 59.2156 28.3757C56.7106 27.462 54.475 27.7243 52.5706 29.1553C51.1244 30.242 50.4115 31.631 50.4045 31.6448C50.2514 31.9736 49.7438 31.9734 49.5915 31.6444C49.5847 31.6312 48.871 30.2416 47.4239 29.1539C45.5184 27.7216 43.2825 27.4579 40.7782 28.3699C35.6381 30.1133 32.9329 36.3199 35.1342 41.274C36.075 43.8034 38.053 46.5241 41.1812 49.5918L40.544 50.2425Z"/>
</mask>
<path d="M40.544 50.2425C37.3215 47.0823 35.2738 44.2553 34.2842 41.6001C31.8945 36.1876 34.8586 29.4163 40.4668 27.5137C43.9868 26.2317 46.5066 27.3143 48.0007 28.4481C48.956 29.1731 49.6146 30.0003 49.998 30.5643C50.3811 30.0004 51.0391 29.1737 51.9939 28.4494C53.4874 27.3166 56.0066 26.2357 59.5273 27.5197C65.1343 29.4243 68.105 36.1958 65.7184 41.6093C64.9176 43.7613 63.4514 45.9881 61.2358 48.4168L60.5636 47.8026C62.7017 45.4587 64.1097 43.3264 64.8682 41.2837C67.0673 36.3282 64.3543 30.1208 59.2156 28.3757C56.7106 27.462 54.475 27.7243 52.5706 29.1553C51.1244 30.242 50.4115 31.631 50.4045 31.6448C50.2514 31.9736 49.7438 31.9734 49.5915 31.6444C49.5847 31.6312 48.871 30.2416 47.4239 29.1539C45.5184 27.7216 43.2825 27.4579 40.7782 28.3699C35.6381 30.1133 32.9329 36.3199 35.1342 41.274C36.075 43.8034 38.053 46.5241 41.1812 49.5918L40.544 50.2425Z" fill="white"/>
<path d="M40.544 50.2425L34.2426 56.6683L40.6729 62.9743L46.9743 56.5394L40.544 50.2425ZM34.2842 41.6001L42.7174 38.4569L42.6247 38.208L42.5174 37.9651L34.2842 41.6001ZM40.4668 27.5137L43.3582 36.0366L43.4529 36.0045L43.5468 35.9703L40.4668 27.5137ZM48.0007 28.4481L42.5599 35.6174L42.5601 35.6176L48.0007 28.4481ZM49.998 30.5643L42.5544 35.6233L49.9994 46.5775L57.4425 35.622L49.998 30.5643ZM51.9939 28.4494L46.5547 21.279L46.5545 21.2792L51.9939 28.4494ZM59.5273 27.5197L56.4437 35.9749L56.5378 36.0092L56.6326 36.0415L59.5273 27.5197ZM65.7184 41.6093L57.4831 37.9788L57.376 38.2218L57.2834 38.4707L65.7184 41.6093ZM61.2358 48.4168L55.1649 55.0608L61.8144 61.1367L67.8849 54.4823L61.2358 48.4168ZM60.5636 47.8026L53.9145 41.7372L47.8542 48.3808L54.4927 54.4466L60.5636 47.8026ZM64.8682 41.2837L56.6419 37.6331L56.5285 37.8886L56.4311 38.1507L64.8682 41.2837ZM59.2156 28.3757L56.1317 36.8308L56.2262 36.8653L56.3215 36.8976L59.2156 28.3757ZM52.5706 29.1553L57.9769 36.3506L57.977 36.3505L52.5706 29.1553ZM50.4045 31.6448L42.3759 27.5777L42.3085 27.7108L42.2456 27.8459L50.4045 31.6448ZM49.5915 31.6444L57.7585 27.863L57.6862 27.7067L57.6079 27.5533L49.5915 31.6444ZM47.4239 29.1539L52.8318 21.9597L52.8315 21.9595L47.4239 29.1539ZM40.7782 28.3699L43.669 36.893L43.7638 36.8608L43.8579 36.8266L40.7782 28.3699ZM35.1342 41.274L43.5696 38.1366L43.4723 37.8748L43.3588 37.6195L35.1342 41.274ZM41.1812 49.5918L47.6115 55.8888L53.904 49.463L47.4827 43.166L41.1812 49.5918ZM46.8455 43.8167C44.0682 41.0931 43.0524 39.3556 42.7174 38.4569L25.8509 44.7434C27.4952 49.155 30.5748 53.0716 34.2426 56.6683L46.8455 43.8167ZM42.5174 37.9651C42.4549 37.8234 42.3704 37.4211 42.6186 36.8552C42.8662 36.2904 43.2159 36.0849 43.3582 36.0366L37.5754 18.9908C26.9503 22.5954 21.5315 34.999 26.0509 45.2352L42.5174 37.9651ZM43.5468 35.9703C43.7123 35.91 43.7395 35.9225 43.645 35.9301C43.5483 35.9379 43.3998 35.9346 43.2232 35.8992C42.8686 35.828 42.6441 35.6812 42.5599 35.6174L53.4415 21.2789C50.0564 18.7099 44.3708 16.5136 37.3869 19.0572L43.5468 35.9703ZM42.5601 35.6176C42.5397 35.602 42.5288 35.592 42.5262 35.5897C42.5247 35.5883 42.5247 35.5882 42.5259 35.5894C42.5271 35.5907 42.5292 35.5928 42.532 35.5959C42.5347 35.5989 42.5377 35.6024 42.5409 35.6062C42.544 35.61 42.5469 35.6136 42.5495 35.6169C42.5549 35.6238 42.5568 35.6268 42.5544 35.6233L57.4415 25.5053C56.6948 24.4066 55.3995 22.7648 53.4412 21.2787L42.5601 35.6176ZM57.4425 35.622C57.44 35.6256 57.4418 35.6228 57.447 35.6161C57.4494 35.6129 57.4522 35.6094 57.4553 35.6058C57.4583 35.6021 57.4612 35.5988 57.4638 35.5959C57.4664 35.593 57.4684 35.591 57.4694 35.5899C57.4705 35.5888 57.4703 35.5891 57.4686 35.5907C57.4657 35.5934 57.4543 35.6037 57.4334 35.6196L46.5545 21.2792C44.5954 22.7654 43.3001 24.4078 42.5535 25.5067L57.4425 35.622ZM57.4331 35.6198C57.3474 35.6849 57.1212 35.8323 56.7655 35.9034C56.5884 35.9388 56.4399 35.942 56.3435 35.9342C56.2494 35.9265 56.2772 35.9142 56.4437 35.9749L62.611 19.0644C55.6291 16.5181 49.943 18.7087 46.5547 21.279L57.4331 35.6198ZM56.6326 36.0415C56.7775 36.0907 57.1305 36.2992 57.3801 36.8676C57.63 37.4366 57.5447 37.8392 57.4831 37.9788L73.9536 45.2399C78.4691 34.9972 73.0345 22.6027 62.422 18.9979L56.6326 36.0415ZM57.2834 38.4707C57.0186 39.1822 56.3337 40.4363 54.5868 42.3513L67.8849 54.4823C70.569 51.5399 72.8166 48.3403 74.1534 44.748L57.2834 38.4707ZM67.3068 41.7727L66.6346 41.1585L54.4927 54.4466L55.1649 55.0608L67.3068 41.7727ZM67.2128 53.868C69.8049 51.0263 72.0054 47.9174 73.3053 44.4166L56.4311 38.1507C56.214 38.7354 55.5985 39.8911 53.9145 41.7372L67.2128 53.868ZM73.0946 44.9343C77.4372 35.1485 72.2643 23.3022 62.1098 19.8537L56.3215 36.8976C56.2837 36.8848 56.2932 36.8764 56.3436 36.9248C56.4015 36.9804 56.483 37.0843 56.5486 37.2341C56.6141 37.3839 56.6355 37.5151 56.6371 37.5966C56.6385 37.6678 56.6255 37.6699 56.6419 37.6331L73.0946 44.9343ZM62.2996 19.9205C57.3359 18.1101 51.8269 18.4565 47.1641 21.9602L57.977 36.3505C57.7383 36.5298 57.2865 36.7581 56.7167 36.8249C56.1904 36.8867 55.9526 36.7655 56.1317 36.8308L62.2996 19.9205ZM47.1643 21.9601C44.1078 24.2566 42.6351 27.0661 42.3759 27.5777L58.4331 35.712C58.3762 35.8242 58.3342 35.9015 58.31 35.9451C58.2806 35.998 58.257 36.0383 58.2389 36.0683C58.2039 36.1259 58.1837 36.1542 58.1746 36.1665C58.1662 36.1779 58.1546 36.1927 58.1339 36.2143C58.1137 36.2354 58.064 36.2851 57.9769 36.3506L47.1643 21.9601ZM42.2456 27.8459C43.9122 24.2664 47.3416 22.89 50.0021 22.8913C52.6632 22.8926 56.0967 24.2738 57.7585 27.863L41.4244 35.4258C43.2386 39.344 47.0021 40.8898 49.9934 40.8913C52.984 40.8927 56.7437 39.352 58.5634 35.4438L42.2456 27.8459ZM57.6079 27.5533C57.3604 27.0684 55.889 24.2578 52.8318 21.9597L42.0161 36.348C41.9299 36.2832 41.8809 36.2342 41.8614 36.2137C41.8413 36.1927 41.8302 36.1785 41.8221 36.1677C41.8134 36.1559 41.7935 36.128 41.7588 36.0708C41.7254 36.0158 41.6648 35.9113 41.5751 35.7355L57.6079 27.5533ZM52.8315 21.9595C48.1718 18.4571 42.6648 18.1046 37.6984 19.9132L43.8579 36.8266C44.0353 36.762 43.7971 36.8828 43.2713 36.8208C42.7025 36.7537 42.2527 36.5258 42.0164 36.3482L52.8315 21.9595ZM37.8873 19.8468C27.7181 23.296 22.5653 35.1517 26.9096 44.9286L43.3588 37.6195C43.3746 37.655 43.3617 37.652 43.363 37.5808C43.3645 37.4994 43.3857 37.3692 43.4504 37.221C43.5151 37.073 43.5953 36.971 43.6513 36.9172C43.6998 36.8707 43.7076 36.8799 43.669 36.893L37.8873 19.8468ZM26.6988 44.4115C28.3007 48.7183 31.3274 52.534 34.8797 56.0177L47.4827 43.166C44.7786 40.5142 43.8493 38.8885 43.5696 38.1366L26.6988 44.4115ZM34.7509 43.2949L34.1137 43.9456L46.9743 56.5394L47.6115 55.8888L34.7509 43.2949Z" fill="white" mask="url(#path-3-inside-1_659_351)"/>
<mask id="path-5-inside-2_659_351" fill="white">
<path d="M59.8925 49.8246L59.248 49.1812C59.4841 48.9443 59.7155 48.7073 59.9358 48.4766L60.5939 49.106C60.3691 49.3414 60.1331 49.5832 59.8925 49.8246Z"/>
</mask>
<path d="M59.8925 49.8246L59.248 49.1812C59.4841 48.9443 59.7155 48.7073 59.9358 48.4766L60.5939 49.106C60.3691 49.3414 60.1331 49.5832 59.8925 49.8246Z" fill="white"/>
<path d="M59.8925 49.8246L53.534 56.1939L59.9088 62.5579L66.2673 56.1777L59.8925 49.8246ZM59.248 49.1812L52.8731 42.8283L46.5258 49.1976L52.8895 55.5506L59.248 49.1812ZM59.9358 48.4766L66.1567 41.9727L59.6476 35.7468L53.427 42.2609L59.9358 48.4766ZM60.5939 49.106L67.1024 55.3221L73.3138 48.8184L66.8148 42.6021L60.5939 49.106ZM66.2511 43.4552L65.6066 42.8118L52.8895 55.5506L53.534 56.1939L66.2511 43.4552ZM65.623 55.5341C65.9017 55.2544 66.1779 54.9717 66.4447 54.6923L53.427 42.2609C53.2531 42.443 53.0664 42.6342 52.8731 42.8283L65.623 55.5341ZM53.7149 54.9804L54.373 55.6098L66.8148 42.6021L66.1567 41.9727L53.7149 54.9804ZM54.0854 42.8899C53.9062 43.0775 53.7149 43.2736 53.5177 43.4715L66.2673 56.1777C66.5513 55.8927 66.8319 55.6052 67.1024 55.3221L54.0854 42.8899Z" fill="white" mask="url(#path-5-inside-2_659_351)"/>
<mask id="path-7-inside-3_659_351" fill="white">
<path d="M52.5095 45.1551H52.3561V44.1014C53.0702 43.667 53.6549 43.0409 54.0411 42.2957C54.2659 42.3979 54.511 42.4535 54.7653 42.4535C55.7322 42.4535 56.5188 41.6662 56.5188 40.6985V38.0046C56.5188 35.2418 54.2731 32.9941 51.5127 32.9941H48.486C45.7256 32.9941 43.4798 35.2418 43.4798 38.0046V40.6985C43.4798 41.6662 44.2664 42.4535 45.2333 42.4535C45.4875 42.4535 45.7327 42.3979 45.9574 42.2957C46.3436 43.041 46.9284 43.6671 47.6425 44.1015V45.1551C44.4796 45.071 41.8427 47.6317 41.8477 50.8014V56.5617C41.8477 57.6549 42.7363 58.5444 43.8286 58.5444C44.2241 58.5444 44.5926 58.4276 44.902 58.2268V66.4231C44.4776 66.906 44.2193 67.5397 44.2193 68.2347C44.2193 68.9882 44.8318 69.6012 45.5846 69.6012H48.3152C49.0681 69.6012 49.6806 68.9882 49.6806 68.2267C49.6806 67.5285 49.4173 66.891 48.9853 66.4073V62.2644C48.9853 61.705 49.4401 61.2498 49.9991 61.2498C50.5581 61.2498 51.0129 61.705 51.0129 62.2644V66.4086C50.5809 66.8933 50.3176 67.5328 50.3176 68.2348C50.3176 68.9883 50.9301 69.6013 51.683 69.6013H54.4135C55.1664 69.6013 55.7789 68.9883 55.7789 68.2268C55.7789 67.5355 55.5206 66.9038 55.0962 66.422V58.2261C55.4058 58.4269 55.774 58.5445 56.1696 58.5445C57.2619 58.5445 58.1505 57.6551 58.1505 56.5619V50.8015C58.1508 47.688 55.6202 45.1551 52.5095 45.1551ZM54.7653 41.5425C54.6279 41.5425 54.4956 41.5094 54.3771 41.4477C54.489 41.0527 54.5503 40.6366 54.5503 40.2062V39.8835C54.6204 39.8648 54.6925 39.8544 54.7653 39.8544C55.2303 39.8544 55.6086 40.2331 55.6086 40.6985C55.6086 41.1639 55.2302 41.5425 54.7653 41.5425ZM45.2333 41.5425C44.7683 41.5425 44.39 41.1639 44.39 40.6985C44.39 40.2331 44.7683 39.8544 45.2333 39.8544C45.306 39.8544 45.3781 39.8648 45.4482 39.8835V40.2062C45.4482 40.6366 45.5094 41.0528 45.6214 41.4477C45.503 41.5094 45.3708 41.5425 45.2333 41.5425ZM45.4483 38.4861V38.9575C45.0836 38.9087 44.6969 38.9888 44.3901 39.1607V38.0046C44.3901 35.7442 46.2275 33.9052 48.486 33.9052H51.5127C53.7712 33.9052 55.6086 35.7442 55.6086 38.0046V39.1607C55.3018 38.9888 54.915 38.9087 54.5503 38.9575V38.4861C54.5503 37.2303 53.5295 36.2086 52.2747 36.2086H47.7237C46.4691 36.2086 45.4483 37.2303 45.4483 38.4861ZM46.3585 40.2062V38.4861C46.3585 37.7326 46.9709 37.1196 47.7238 37.1196H52.2748C53.0277 37.1196 53.6402 37.7326 53.6402 38.4861V40.2062C53.6402 42.2154 52.0069 43.8501 49.9994 43.8501C47.9918 43.8501 46.3585 42.2154 46.3585 40.2062ZM51.4458 44.5238V46.4669C51.4458 47.2651 50.7969 47.9146 49.9993 47.9146C49.2016 47.9146 48.5528 47.2651 48.5528 46.4669V44.5238C49.0075 44.6769 49.4937 44.761 49.9993 44.761C50.505 44.7611 50.991 44.6769 51.4458 44.5238ZM44.8994 56.5616C44.8994 57.1525 44.4191 57.6333 43.8287 57.6333C43.2382 57.6333 42.7579 57.1526 42.7579 56.5616V52.4296H44.8993V56.5616H44.8994ZM48.3154 68.6902H45.5848C45.3339 68.6902 45.1297 68.4859 45.1297 68.2266C45.1297 67.222 45.9464 66.4046 46.9502 66.4046C47.9539 66.4046 48.7706 67.2219 48.7706 68.2347C48.7705 68.4858 48.5663 68.6902 48.3154 68.6902ZM49.9993 60.3386C48.9384 60.3386 48.0753 61.2025 48.0753 62.2643V65.7374C47.7319 65.5814 47.3511 65.4937 46.9501 65.4937C46.5441 65.4937 46.1589 65.5835 45.8123 65.7433V56.8141H54.1862V65.7431C53.8395 65.5834 53.4544 65.4936 53.0484 65.4936C52.6473 65.4936 52.2666 65.5813 51.9232 65.7375V62.2642C51.9233 61.2025 51.0602 60.3386 49.9993 60.3386ZM54.4138 68.6902H51.6832C51.4323 68.6902 51.228 68.4859 51.228 68.2266C51.228 67.222 52.0447 66.4046 53.0485 66.4046C54.0522 66.4046 54.8689 67.2219 54.8689 68.2347C54.8688 68.4858 54.6647 68.6902 54.4138 68.6902ZM57.2406 56.5616C57.2406 57.1525 56.7602 57.6333 56.1698 57.6333C55.5794 57.6333 55.099 57.1526 55.099 56.5616V52.4296H57.2405V56.5616H57.2406ZM57.2406 51.5187H54.6439C54.3926 51.5187 54.1888 51.7226 54.1888 51.9742V55.9031H45.8096V51.9742C45.8096 51.7226 45.6058 51.5187 45.3544 51.5187H42.7579V50.8014C42.753 48.1335 44.9816 45.983 47.6425 46.0662V46.4671C47.6425 47.7677 48.6997 48.8258 49.9992 48.8258C51.2987 48.8258 52.356 47.7677 52.356 46.4671V46.0662C55.0169 45.983 57.2455 48.1335 57.2406 50.8014V51.5187Z"/>
</mask>
<path d="M52.5095 45.1551H52.3561V44.1014C53.0702 43.667 53.6549 43.0409 54.0411 42.2957C54.2659 42.3979 54.511 42.4535 54.7653 42.4535C55.7322 42.4535 56.5188 41.6662 56.5188 40.6985V38.0046C56.5188 35.2418 54.2731 32.9941 51.5127 32.9941H48.486C45.7256 32.9941 43.4798 35.2418 43.4798 38.0046V40.6985C43.4798 41.6662 44.2664 42.4535 45.2333 42.4535C45.4875 42.4535 45.7327 42.3979 45.9574 42.2957C46.3436 43.041 46.9284 43.6671 47.6425 44.1015V45.1551C44.4796 45.071 41.8427 47.6317 41.8477 50.8014V56.5617C41.8477 57.6549 42.7363 58.5444 43.8286 58.5444C44.2241 58.5444 44.5926 58.4276 44.902 58.2268V66.4231C44.4776 66.906 44.2193 67.5397 44.2193 68.2347C44.2193 68.9882 44.8318 69.6012 45.5846 69.6012H48.3152C49.0681 69.6012 49.6806 68.9882 49.6806 68.2267C49.6806 67.5285 49.4173 66.891 48.9853 66.4073V62.2644C48.9853 61.705 49.4401 61.2498 49.9991 61.2498C50.5581 61.2498 51.0129 61.705 51.0129 62.2644V66.4086C50.5809 66.8933 50.3176 67.5328 50.3176 68.2348C50.3176 68.9883 50.9301 69.6013 51.683 69.6013H54.4135C55.1664 69.6013 55.7789 68.9883 55.7789 68.2268C55.7789 67.5355 55.5206 66.9038 55.0962 66.422V58.2261C55.4058 58.4269 55.774 58.5445 56.1696 58.5445C57.2619 58.5445 58.1505 57.6551 58.1505 56.5619V50.8015C58.1508 47.688 55.6202 45.1551 52.5095 45.1551ZM54.7653 41.5425C54.6279 41.5425 54.4956 41.5094 54.3771 41.4477C54.489 41.0527 54.5503 40.6366 54.5503 40.2062V39.8835C54.6204 39.8648 54.6925 39.8544 54.7653 39.8544C55.2303 39.8544 55.6086 40.2331 55.6086 40.6985C55.6086 41.1639 55.2302 41.5425 54.7653 41.5425ZM45.2333 41.5425C44.7683 41.5425 44.39 41.1639 44.39 40.6985C44.39 40.2331 44.7683 39.8544 45.2333 39.8544C45.306 39.8544 45.3781 39.8648 45.4482 39.8835V40.2062C45.4482 40.6366 45.5094 41.0528 45.6214 41.4477C45.503 41.5094 45.3708 41.5425 45.2333 41.5425ZM45.4483 38.4861V38.9575C45.0836 38.9087 44.6969 38.9888 44.3901 39.1607V38.0046C44.3901 35.7442 46.2275 33.9052 48.486 33.9052H51.5127C53.7712 33.9052 55.6086 35.7442 55.6086 38.0046V39.1607C55.3018 38.9888 54.915 38.9087 54.5503 38.9575V38.4861C54.5503 37.2303 53.5295 36.2086 52.2747 36.2086H47.7237C46.4691 36.2086 45.4483 37.2303 45.4483 38.4861ZM46.3585 40.2062V38.4861C46.3585 37.7326 46.9709 37.1196 47.7238 37.1196H52.2748C53.0277 37.1196 53.6402 37.7326 53.6402 38.4861V40.2062C53.6402 42.2154 52.0069 43.8501 49.9994 43.8501C47.9918 43.8501 46.3585 42.2154 46.3585 40.2062ZM51.4458 44.5238V46.4669C51.4458 47.2651 50.7969 47.9146 49.9993 47.9146C49.2016 47.9146 48.5528 47.2651 48.5528 46.4669V44.5238C49.0075 44.6769 49.4937 44.761 49.9993 44.761C50.505 44.7611 50.991 44.6769 51.4458 44.5238ZM44.8994 56.5616C44.8994 57.1525 44.4191 57.6333 43.8287 57.6333C43.2382 57.6333 42.7579 57.1526 42.7579 56.5616V52.4296H44.8993V56.5616H44.8994ZM48.3154 68.6902H45.5848C45.3339 68.6902 45.1297 68.4859 45.1297 68.2266C45.1297 67.222 45.9464 66.4046 46.9502 66.4046C47.9539 66.4046 48.7706 67.2219 48.7706 68.2347C48.7705 68.4858 48.5663 68.6902 48.3154 68.6902ZM49.9993 60.3386C48.9384 60.3386 48.0753 61.2025 48.0753 62.2643V65.7374C47.7319 65.5814 47.3511 65.4937 46.9501 65.4937C46.5441 65.4937 46.1589 65.5835 45.8123 65.7433V56.8141H54.1862V65.7431C53.8395 65.5834 53.4544 65.4936 53.0484 65.4936C52.6473 65.4936 52.2666 65.5813 51.9232 65.7375V62.2642C51.9233 61.2025 51.0602 60.3386 49.9993 60.3386ZM54.4138 68.6902H51.6832C51.4323 68.6902 51.228 68.4859 51.228 68.2266C51.228 67.222 52.0447 66.4046 53.0485 66.4046C54.0522 66.4046 54.8689 67.2219 54.8689 68.2347C54.8688 68.4858 54.6647 68.6902 54.4138 68.6902ZM57.2406 56.5616C57.2406 57.1525 56.7602 57.6333 56.1698 57.6333C55.5794 57.6333 55.099 57.1526 55.099 56.5616V52.4296H57.2405V56.5616H57.2406ZM57.2406 51.5187H54.6439C54.3926 51.5187 54.1888 51.7226 54.1888 51.9742V55.9031H45.8096V51.9742C45.8096 51.7226 45.6058 51.5187 45.3544 51.5187H42.7579V50.8014C42.753 48.1335 44.9816 45.983 47.6425 46.0662V46.4671C47.6425 47.7677 48.6997 48.8258 49.9992 48.8258C51.2987 48.8258 52.356 47.7677 52.356 46.4671V46.0662C55.0169 45.983 57.2455 48.1335 57.2406 50.8014V51.5187Z" fill="white" stroke="white" stroke-width="18" mask="url(#path-7-inside-3_659_351)"/>
<mask id="path-8-inside-4_659_351" fill="white">
<path d="M33.3166 67.5662C31.7655 66.2081 29.6487 64.663 28.9216 62.7629C28.1863 61.0819 29.102 58.9746 30.8407 58.3809C32.129 57.9092 33.0748 58.4284 33.6151 59.0103C34.1552 58.4287 35.1005 57.91 36.3892 58.3826C38.1273 58.9769 39.0448 61.0841 38.3105 62.7653C37.586 64.6676 35.4668 66.2055 33.9184 67.5662C33.8324 67.6421 33.5684 67.7754 33.3166 67.5662ZM31.1534 59.2364C29.8816 59.6706 29.2239 61.2149 29.7721 62.4384C30.3525 63.9836 32.2382 65.4373 33.6175 66.6215C34.9957 65.4385 36.881 63.9854 37.4598 62.4413C38.0076 61.2174 37.3476 59.6726 36.076 59.238C34.7145 58.7384 34.0881 59.8665 34.0211 59.9967C33.8665 60.3235 33.3973 60.3028 33.2081 59.9944C32.457 58.7703 31.3972 59.1471 31.1534 59.2364Z"/>
</mask>
<path d="M33.3166 67.5662C31.7655 66.2081 29.6487 64.663 28.9216 62.7629C28.1863 61.0819 29.102 58.9746 30.8407 58.3809C32.129 57.9092 33.0748 58.4284 33.6151 59.0103C34.1552 58.4287 35.1005 57.91 36.3892 58.3826C38.1273 58.9769 39.0448 61.0841 38.3105 62.7653C37.586 64.6676 35.4668 66.2055 33.9184 67.5662C33.8324 67.6421 33.5684 67.7754 33.3166 67.5662ZM31.1534 59.2364C29.8816 59.6706 29.2239 61.2149 29.7721 62.4384C30.3525 63.9836 32.2382 65.4373 33.6175 66.6215C34.9957 65.4385 36.881 63.9854 37.4598 62.4413C38.0076 61.2174 37.3476 59.6726 36.076 59.238C34.7145 58.7384 34.0881 59.8665 34.0211 59.9967C33.8665 60.3235 33.3973 60.3028 33.2081 59.9944C32.457 58.7703 31.3972 59.1471 31.1534 59.2364Z" fill="white"/>
<path d="M33.3166 67.5662L27.3879 74.3375L27.4748 74.4135L27.5636 74.4874L33.3166 67.5662ZM28.9216 62.7629L37.3272 59.5464L37.2519 59.3495L37.1674 59.1563L28.9216 62.7629ZM30.8407 58.3809L33.749 66.8981L33.8424 66.8662L33.9351 66.8322L30.8407 58.3809ZM33.6151 59.0103L27.02 65.1344L33.6153 72.2371L40.2104 65.1342L33.6151 59.0103ZM36.3892 58.3826L33.2908 66.8324L33.3837 66.8665L33.4773 66.8985L36.3892 58.3826ZM38.3105 62.7653L30.063 59.1626L29.9766 59.3604L29.8998 59.562L38.3105 62.7653ZM33.9184 67.5662L27.9776 60.8055L27.9708 60.8115L27.964 60.8175L33.9184 67.5662ZM31.1534 59.2364L34.0609 67.7539L34.156 67.7214L34.2504 67.6868L31.1534 59.2364ZM29.7721 62.4384L38.1974 59.2738L38.0994 59.0128L37.9854 58.7583L29.7721 62.4384ZM33.6175 66.6215L27.7548 73.4501L33.6169 78.4829L39.4795 73.4507L33.6175 66.6215ZM37.4598 62.4413L29.2452 58.7642L29.1308 59.0199L29.0324 59.2822L37.4598 62.4413ZM36.076 59.238L32.9756 67.6871L33.0701 67.7218L33.1652 67.7543L36.076 59.238ZM34.0211 59.9967L26.0189 55.8779L25.95 56.0118L25.8856 56.1479L34.0211 59.9967ZM33.2081 59.9944L25.5368 64.701L25.5372 64.7017L33.2081 59.9944ZM39.2454 60.7949C38.9933 60.5742 38.744 60.3622 38.5286 60.1798C38.2957 59.9825 38.118 59.833 37.9231 59.6665C37.5435 59.3423 37.2872 59.113 37.0927 58.9234C36.8974 58.7331 36.858 58.6721 36.8971 58.7242C36.9361 58.7762 37.1384 59.0531 37.3272 59.5464L20.516 65.9794C21.5779 68.7544 23.399 70.7119 24.5275 71.8121C25.5475 72.8064 27.1006 74.0859 27.3879 74.3375L39.2454 60.7949ZM37.1674 59.1563C37.917 60.8701 37.7327 62.5494 37.2008 63.767C36.6677 64.9875 35.5477 66.2839 33.749 66.8981L27.9324 49.8638C21.1626 52.1754 17.8507 59.9104 20.6759 66.3695L37.1674 59.1563ZM33.9351 66.8322C32.7906 67.2513 31.3296 67.3558 29.8533 66.9C28.5078 66.4846 27.585 65.7429 27.02 65.1344L40.2103 52.8863C37.8581 50.3531 33.2591 47.9111 27.7463 49.9296L33.9351 66.8322ZM40.2104 65.1342C39.6446 65.7437 38.7201 66.4865 37.3725 66.9018C35.8941 67.3575 34.4331 67.2513 33.2908 66.8324L39.4876 49.9327C33.9765 47.9119 29.3755 50.3495 27.0198 52.8864L40.2104 65.1342ZM33.4773 66.8985C31.6814 66.2844 30.5638 64.9905 30.0313 63.7731C29.4999 62.5583 29.3133 60.8789 30.063 59.1626L46.5579 66.368C49.3818 59.9033 46.059 52.1774 39.3011 49.8666L33.4773 66.8985ZM29.8998 59.562C30.0898 59.0632 30.295 58.7818 30.3366 58.7263C30.3779 58.6712 30.3406 58.7301 30.1454 58.9201C29.9507 59.1096 29.6943 59.3386 29.3117 59.6653C29.1123 59.8356 28.9396 59.9808 28.7014 60.1828C28.4839 60.3672 28.2325 60.5815 27.9776 60.8055L39.8591 74.3269C40.1121 74.1046 41.7019 72.7907 42.7014 71.8176C43.8296 70.7193 45.6591 68.7572 46.7211 65.9686L29.8998 59.562ZM27.964 60.8175C29.0564 59.8536 30.5213 59.0535 32.3092 58.7781C34.4851 58.4428 37.017 58.9388 39.0697 60.645L27.5636 74.4874C29.868 76.4028 32.6578 76.9367 35.0501 76.5682C37.0544 76.2594 38.6943 75.3546 39.8727 74.3149L27.964 60.8175ZM28.2459 50.719C21.8838 52.8908 18.8774 60.1339 21.5589 66.1184L37.9854 58.7583C38.8526 60.6939 38.6744 62.6392 38.0495 64.0939C37.4225 65.5534 36.1135 67.0532 34.0609 67.7539L28.2459 50.719ZM21.3468 65.6029C22.347 68.2657 24.1283 70.1415 25.0842 71.0818C26.09 72.071 27.3497 73.1022 27.7548 73.4501L39.4802 59.793C39.2754 59.6172 39.0651 59.4396 38.8896 59.2913C38.7036 59.1341 38.5432 58.9984 38.388 58.8648C38.073 58.5936 37.8597 58.3998 37.7062 58.2489C37.5472 58.0924 37.5429 58.0697 37.6156 58.1664C37.6795 58.2513 37.9541 58.626 38.1974 59.2738L21.3468 65.6029ZM39.4795 73.4507C39.884 73.1034 41.1436 72.0725 42.1494 71.0833C43.1048 70.1437 44.8878 68.2663 45.8871 65.6003L29.0324 59.2822C29.2762 58.632 29.5518 58.2556 29.6163 58.1698C29.6897 58.0722 29.686 58.0943 29.5274 58.2503C29.3744 58.4008 29.1615 58.5943 28.8468 58.8651C28.6918 58.9986 28.5315 59.1341 28.3457 59.2912C28.1704 59.4393 27.9601 59.6167 27.7555 59.7924L39.4795 73.4507ZM45.6743 66.1184C48.3579 60.1233 45.3333 52.8909 38.9868 50.7217L33.1652 67.7543C31.1159 67.0539 29.8099 65.5573 29.1835 64.102C28.5589 62.6509 28.3768 60.7043 29.2452 58.7642L45.6743 66.1184ZM39.1764 50.7889C35.5046 49.4415 31.9354 50.2253 29.3838 52.0208C27.3213 53.4722 26.3314 55.2707 26.0189 55.8779L42.0233 64.1155C41.7778 64.5925 41.1346 65.7619 39.7425 66.7415C38.9549 67.2957 37.8676 67.8273 36.52 68.0287C35.147 68.2338 33.9191 68.0333 32.9756 67.6871L39.1764 50.7889ZM25.8856 56.1479C27.5399 52.651 30.9529 51.1844 33.7888 51.2352C36.4806 51.2835 39.2552 52.6413 40.8789 55.2872L25.5372 64.7017C27.3502 67.656 30.454 69.1784 33.4663 69.2323C36.6228 69.2889 40.3477 67.6692 42.1566 63.8455L25.8856 56.1479ZM40.8793 55.2878C39.0995 52.3869 36.2515 50.5772 33.0838 50.1895C30.458 49.8682 28.4284 50.6498 28.0564 50.7861L34.2504 67.6868C34.251 67.6866 34.2383 67.6912 34.2204 67.6977C34.2018 67.7044 34.1765 67.7133 34.1463 67.7238C34.0853 67.7448 34.0071 67.7709 33.9154 67.7989C33.7331 67.8547 33.4976 67.9187 33.2184 67.9739C32.6769 68.0811 31.8709 68.1754 30.8972 68.0562C29.8788 67.9316 28.7602 67.581 27.7069 66.8978C26.6592 66.2182 25.9633 65.3961 25.5368 64.701L40.8793 55.2878Z" fill="white" mask="url(#path-8-inside-4_659_351)"/>
<mask id="path-10-inside-5_659_351" fill="white">
<path d="M66.0841 67.5662C64.533 66.2081 62.4162 64.663 61.6892 62.7629C60.9539 61.0819 61.8696 58.9746 63.6083 58.3809C64.8966 57.9092 65.8424 58.4284 66.3827 59.0103C66.9228 58.4287 67.8681 57.91 69.1568 58.3826C70.8949 58.9769 71.8124 61.0841 71.078 62.7653C70.3535 64.6676 68.2344 66.2055 66.6859 67.5662C66.6 67.6421 66.3359 67.7754 66.0841 67.5662ZM63.921 59.2364C62.6492 59.6706 61.9915 61.2149 62.5397 62.4384C63.1201 63.9836 65.0058 65.4373 66.3851 66.6215C67.7633 65.4385 69.6485 63.9854 70.2274 62.4413C70.7752 61.2174 70.1151 59.6726 68.8436 59.238C67.4821 58.7384 66.8557 59.8665 66.7887 59.9967C66.6341 60.3235 66.1649 60.3028 65.9756 59.9944C65.2245 58.7703 64.1648 59.1471 63.921 59.2364Z"/>
</mask>
<path d="M66.0841 67.5662C64.533 66.2081 62.4162 64.663 61.6892 62.7629C60.9539 61.0819 61.8696 58.9746 63.6083 58.3809C64.8966 57.9092 65.8424 58.4284 66.3827 59.0103C66.9228 58.4287 67.8681 57.91 69.1568 58.3826C70.8949 58.9769 71.8124 61.0841 71.078 62.7653C70.3535 64.6676 68.2344 66.2055 66.6859 67.5662C66.6 67.6421 66.3359 67.7754 66.0841 67.5662ZM63.921 59.2364C62.6492 59.6706 61.9915 61.2149 62.5397 62.4384C63.1201 63.9836 65.0058 65.4373 66.3851 66.6215C67.7633 65.4385 69.6485 63.9854 70.2274 62.4413C70.7752 61.2174 70.1151 59.6726 68.8436 59.238C67.4821 58.7384 66.8557 59.8665 66.7887 59.9967C66.6341 60.3235 66.1649 60.3028 65.9756 59.9944C65.2245 58.7703 64.1648 59.1471 63.921 59.2364Z" fill="white"/>
<path d="M66.0841 67.5662L60.1554 74.3375L60.2429 74.4141L60.3323 74.4884L66.0841 67.5662ZM61.6892 62.7629L70.0949 59.5468L70.0195 59.3497L69.9349 59.1563L61.6892 62.7629ZM63.6083 58.3809L66.5166 66.8981L66.61 66.8662L66.7027 66.8322L63.6083 58.3809ZM66.3827 59.0103L59.7875 65.1344L66.3828 72.2371L72.978 65.1342L66.3827 59.0103ZM69.1568 58.3826L66.0584 66.8324L66.1513 66.8665L66.2449 66.8985L69.1568 58.3826ZM71.078 62.7653L62.8306 59.1626L62.7442 59.3604L62.6674 59.562L71.078 62.7653ZM66.6859 67.5662L60.7452 60.8055L60.7384 60.8115L60.7316 60.8175L66.6859 67.5662ZM63.921 59.2364L66.8285 67.7539L66.9236 67.7214L67.018 67.6868L63.921 59.2364ZM62.5397 62.4384L70.965 59.2738L70.867 59.0128L70.7529 58.7583L62.5397 62.4384ZM66.3851 66.6215L60.5224 73.4501L66.3845 78.4829L72.247 73.4507L66.3851 66.6215ZM70.2274 62.4413L62.0128 58.7642L61.8983 59.0199L61.8 59.2822L70.2274 62.4413ZM68.8436 59.238L65.7432 67.6871L65.8376 67.7218L65.9328 67.7543L68.8436 59.238ZM66.7887 59.9967L58.7865 55.8779L58.7175 56.0118L58.6531 56.1479L66.7887 59.9967ZM65.9756 59.9944L58.3047 64.7014L58.3048 64.7017L65.9756 59.9944ZM72.0129 60.7949C71.7608 60.5742 71.5115 60.3622 71.2961 60.1798C71.0632 59.9825 70.8855 59.833 70.6906 59.6665C70.311 59.3423 70.0547 59.1131 69.8602 58.9235C69.665 58.7331 69.6256 58.6722 69.6647 58.7243C69.7038 58.7764 69.9061 59.0534 70.0949 59.5468L53.2835 65.979C54.3453 68.7543 56.1665 70.7119 57.295 71.8121C58.315 72.8064 59.868 74.0859 60.1554 74.3375L72.0129 60.7949ZM69.9349 59.1563C70.6845 60.8701 70.5003 62.5494 69.9684 63.767C69.4352 64.9875 68.3152 66.2839 66.5166 66.8981L60.7 49.8638C53.9302 52.1754 50.6183 59.9104 53.4434 66.3695L69.9349 59.1563ZM66.7027 66.8322C65.5582 67.2513 64.0972 67.3558 62.6209 66.9C61.2754 66.4846 60.3526 65.7429 59.7875 65.1344L72.9779 52.8863C70.6256 50.3531 66.0267 47.9111 60.5139 49.9296L66.7027 66.8322ZM72.978 65.1342C72.4121 65.7437 71.4877 66.4865 70.14 66.9018C68.6617 67.3575 67.2007 67.2513 66.0584 66.8324L72.2552 49.9327C66.7441 47.9119 62.143 50.3495 59.7874 52.8864L72.978 65.1342ZM66.2449 66.8985C64.449 66.2844 63.3314 64.9905 62.7989 63.7731C62.2675 62.5583 62.0809 60.8789 62.8306 59.1626L79.3255 66.368C82.1494 59.9034 78.8266 52.1774 72.0687 49.8666L66.2449 66.8985ZM62.6674 59.562C62.8574 59.0632 63.0625 58.7818 63.1041 58.7263C63.1455 58.6712 63.1082 58.7301 62.913 58.9201C62.7183 59.1096 62.4619 59.3386 62.0793 59.6653C61.8798 59.8356 61.7072 59.9808 61.469 60.1828C61.2515 60.3672 61.0001 60.5815 60.7452 60.8055L72.6267 74.3269C72.8797 74.1046 74.4694 72.7907 75.469 71.8176C76.5971 70.7193 78.4266 68.7572 79.4887 65.9686L62.6674 59.562ZM60.7316 60.8175C61.8241 59.8535 63.289 59.0535 65.0769 58.778C67.2526 58.4429 69.7838 58.9388 71.8359 60.644L60.3323 74.4884C62.6363 76.4028 65.4254 76.9367 67.8175 76.5682C69.8219 76.2594 71.4618 75.3547 72.6403 74.3149L60.7316 60.8175ZM61.0135 50.719C54.6513 52.8908 51.645 60.1339 54.3265 66.1184L70.7529 58.7583C71.6202 60.6939 71.442 62.6392 70.8171 64.0939C70.19 65.5534 68.8811 67.0532 66.8285 67.7539L61.0135 50.719ZM54.1144 65.6029C55.1145 68.2657 56.8958 70.1416 57.8518 71.0818C58.8576 72.071 60.1173 73.1022 60.5224 73.4501L72.2477 59.793C72.043 59.6172 71.8326 59.4396 71.6572 59.2913C71.4712 59.1341 71.3108 58.9984 71.1556 58.8648C70.8406 58.5936 70.6273 58.3998 70.4738 58.2489C70.3148 58.0924 70.3104 58.0697 70.3832 58.1664C70.4471 58.2513 70.7217 58.626 70.965 59.2738L54.1144 65.6029ZM72.247 73.4507C72.6516 73.1034 73.9112 72.0725 74.917 71.0833C75.8723 70.1437 77.6554 68.2663 78.6547 65.6003L61.8 59.2822C62.0438 58.632 62.3194 58.2556 62.3839 58.1698C62.4573 58.0722 62.4536 58.0943 62.295 58.2503C62.142 58.4008 61.9291 58.5943 61.6144 58.8651C61.4593 58.9986 61.2991 59.1342 61.1133 59.2912C60.938 59.4393 60.7277 59.6167 60.5231 59.7924L72.247 73.4507ZM78.4419 66.1184C81.1255 60.1233 78.1009 52.8909 71.7544 50.7217L65.9328 67.7543C63.8835 67.0539 62.5775 65.5573 61.9511 64.102C61.3264 62.6509 61.1443 60.7043 62.0128 58.7642L78.4419 66.1184ZM71.944 50.7889C68.2721 49.4415 64.703 50.2253 62.1514 52.0208C60.0889 53.4722 59.099 55.2707 58.7865 55.8779L74.7909 64.1155C74.5454 64.5925 73.9022 65.7619 72.51 66.7415C71.7225 67.2957 70.6352 67.8273 69.2875 68.0287C67.9145 68.2338 66.6867 68.0333 65.7432 67.6871L71.944 50.7889ZM58.6531 56.1479C60.3075 52.651 63.7205 51.1844 66.5564 51.2352C69.2482 51.2835 72.0228 52.6413 73.6465 55.2872L58.3048 64.7017C60.1178 67.656 63.2216 69.1784 66.2339 69.2323C69.3903 69.2889 73.1153 67.6692 74.9242 63.8455L58.6531 56.1479ZM73.6466 55.2874C71.8669 52.3869 69.019 50.5772 65.8514 50.1895C63.2255 49.8682 61.1958 50.6498 60.824 50.7861L67.018 67.6868C67.0186 67.6866 67.0059 67.6912 66.9881 67.6977C66.9695 67.7043 66.9442 67.7133 66.9139 67.7238C66.853 67.7448 66.7748 67.7708 66.683 67.7989C66.5008 67.8547 66.2653 67.9187 65.9861 67.9739C65.4445 68.0811 64.6385 68.1754 63.6647 68.0562C62.6463 67.9316 61.5278 67.5809 60.4745 66.8978C59.427 66.2184 58.7311 65.3964 58.3047 64.7014L73.6466 55.2874Z" fill="white" mask="url(#path-10-inside-5_659_351)"/>
<mask id="path-12-inside-6_659_351" fill="white">
<path d="M30.3184 53.209H35.5175V54.1199H30.3184V53.209Z"/>
</mask>
<path d="M30.3184 53.209H35.5175V54.1199H30.3184V53.209Z" fill="white"/>
<path d="M30.3184 53.209V44.209H21.3184V53.209H30.3184ZM35.5175 53.209H44.5175V44.209H35.5175V53.209ZM35.5175 54.1199V63.1199H44.5175V54.1199H35.5175ZM30.3184 54.1199H21.3184V63.1199H30.3184V54.1199ZM30.3184 62.209H35.5175V44.209H30.3184V62.209ZM26.5175 53.209V54.1199H44.5175V53.209H26.5175ZM35.5175 45.1199H30.3184V63.1199H35.5175V45.1199ZM39.3184 54.1199V53.209H21.3184V54.1199H39.3184Z" fill="white" mask="url(#path-12-inside-6_659_351)"/>
<mask id="path-14-inside-7_659_351" fill="white">
<path d="M37.2852 53.209H38.7349V54.1199H37.2852V53.209Z"/>
</mask>
<path d="M37.2852 53.209H38.7349V54.1199H37.2852V53.209Z" fill="white"/>
<path d="M37.2852 53.209V44.209H28.2852V53.209H37.2852ZM38.7349 53.209H47.7349V44.209H38.7349V53.209ZM38.7349 54.1199V63.1199H47.7349V54.1199H38.7349ZM37.2852 54.1199H28.2852V63.1199H37.2852V54.1199ZM37.2852 62.209H38.7349V44.209H37.2852V62.209ZM29.7349 53.209V54.1199H47.7349V53.209H29.7349ZM38.7349 45.1199H37.2852V63.1199H38.7349V45.1199ZM46.2852 54.1199V53.209H28.2852V54.1199H46.2852Z" fill="white" mask="url(#path-14-inside-7_659_351)"/>
<mask id="path-16-inside-8_659_351" fill="white">
<path d="M64.4824 53.209H69.6816V54.1199H64.4824V53.209Z"/>
</mask>
<path d="M64.4824 53.209H69.6816V54.1199H64.4824V53.209Z" fill="white"/>
<path d="M64.4824 53.209V44.209H55.4824V53.209H64.4824ZM69.6816 53.209H78.6816V44.209H69.6816V53.209ZM69.6816 54.1199V63.1199H78.6816V54.1199H69.6816ZM64.4824 54.1199H55.4824V63.1199H64.4824V54.1199ZM64.4824 62.209H69.6816V44.209H64.4824V62.209ZM60.6816 53.209V54.1199H78.6816V53.209H60.6816ZM69.6816 45.1199H64.4824V63.1199H69.6816V45.1199ZM73.4824 54.1199V53.209H55.4824V54.1199H73.4824Z" fill="white" mask="url(#path-16-inside-8_659_351)"/>
<mask id="path-18-inside-9_659_351" fill="white">
<path d="M61.2656 53.209H62.7154V54.1199H61.2656V53.209Z"/>
</mask>
<path d="M61.2656 53.209H62.7154V54.1199H61.2656V53.209Z" fill="white"/>
<path d="M61.2656 53.209V44.209H52.2656V53.209H61.2656ZM62.7154 53.209H71.7154V44.209H62.7154V53.209ZM62.7154 54.1199V63.1199H71.7154V54.1199H62.7154ZM61.2656 54.1199H52.2656V63.1199H61.2656V54.1199ZM61.2656 62.209H62.7154V44.209H61.2656V62.209ZM53.7154 53.209V54.1199H71.7154V53.209H53.7154ZM62.7154 45.1199H61.2656V63.1199H62.7154V45.1199ZM70.2656 54.1199V53.209H52.2656V54.1199H70.2656Z" fill="white" mask="url(#path-18-inside-9_659_351)"/>
<mask id="path-20-inside-10_659_351" fill="white">
<path d="M32.1387 48.6543H35.5174V49.5652H32.1387V48.6543Z"/>
</mask>
<path d="M32.1387 48.6543H35.5174V49.5652H32.1387V48.6543Z" fill="white"/>
<path d="M32.1387 48.6543V39.6543H23.1387V48.6543H32.1387ZM35.5174 48.6543H44.5174V39.6543H35.5174V48.6543ZM35.5174 49.5652V58.5652H44.5174V49.5652H35.5174ZM32.1387 49.5652H23.1387V58.5652H32.1387V49.5652ZM32.1387 57.6543H35.5174V39.6543H32.1387V57.6543ZM26.5174 48.6543V49.5652H44.5174V48.6543H26.5174ZM35.5174 40.5652H32.1387V58.5652H35.5174V40.5652ZM41.1387 49.5652V48.6543H23.1387V49.5652H41.1387Z" fill="white" mask="url(#path-20-inside-10_659_351)"/>
<mask id="path-22-inside-11_659_351" fill="white">
<path d="M64.4824 48.6543H67.8611V49.5652H64.4824V48.6543Z"/>
</mask>
<path d="M64.4824 48.6543H67.8611V49.5652H64.4824V48.6543Z" fill="white"/>
<path d="M64.4824 48.6543V39.6543H55.4824V48.6543H64.4824ZM67.8611 48.6543H76.8611V39.6543H67.8611V48.6543ZM67.8611 49.5652V58.5652H76.8611V49.5652H67.8611ZM64.4824 49.5652H55.4824V58.5652H64.4824V49.5652ZM64.4824 57.6543H67.8611V39.6543H64.4824V57.6543ZM58.8611 48.6543V49.5652H76.8611V48.6543H58.8611ZM67.8611 40.5652H64.4824V58.5652H67.8611V40.5652ZM73.4824 49.5652V48.6543H55.4824V49.5652H73.4824Z" fill="white" mask="url(#path-22-inside-11_659_351)"/>
</g>
</g>
<defs>
<clipPath id="clip0_659_351">
<rect width="80" height="80" fill="white" transform="translate(10 10)"/>
</clipPath>
<clipPath id="clip1_659_351">
<rect width="42.6667" height="42.6667" fill="white" transform="translate(28.666 26.9336)"/>
</clipPath>
</defs>
</svg>
