<svg width="100" height="100" viewBox="0 0 100 100" fill="none" xmlns="http://www.w3.org/2000/svg">
<path d="M91.435 17.607C85.7514 11.8387 78.1637 8.6457 70.0695 8.61543C70.0311 8.61523 69.9932 8.61523 69.9545 8.61523C62.5279 8.61523 55.514 11.2813 50 16.1652C44.4855 11.2811 37.4726 8.61523 30.0454 8.61523C30.0073 8.61523 29.9687 8.61523 29.9304 8.61543C21.8358 8.64551 14.2481 11.8387 8.56492 17.607C-3.01382 29.3586 -2.82944 48.5241 8.97624 60.3298L33.0044 84.358C37.6902 89.0435 43.8453 91.3865 50.0004 91.3865C56.1554 91.3865 62.3103 89.0435 66.9963 84.358L91.0245 60.3298C102.829 48.5241 103.014 29.3588 91.435 17.607ZM88.3041 57.6104L64.2762 81.6382C60.4627 85.4517 55.3927 87.5517 49.9998 87.5517C44.6068 87.5517 39.5369 85.4515 35.7234 81.6382L11.6952 57.6104C1.37799 47.2932 1.2024 30.5584 11.304 20.3063C16.2628 15.2735 22.8827 12.4873 29.9445 12.4613C29.978 12.4611 30.0112 12.4611 30.0446 12.4611C37.0695 12.4611 43.6701 15.1949 48.64 20.1647C49.0007 20.5252 49.4896 20.728 49.9996 20.728C50.5095 20.728 50.9984 20.5252 51.3591 20.1647C56.3293 15.1943 62.9293 12.4611 69.9545 12.4611C69.9877 12.4611 70.0217 12.4611 70.0547 12.4613C77.1166 12.4875 83.7364 15.2735 88.6952 20.3063C98.7971 30.5584 98.6215 47.2932 88.3041 57.6104Z" fill="white"/>
<g clip-path="url(#clip0_677_960)">
<mask id="path-2-inside-1_677_960" fill="white">
<path d="M38.1805 50.3022C34.1524 46.3519 31.5927 42.8182 30.3557 39.4992C27.3686 32.7335 31.0738 24.2694 38.084 21.8912C42.484 20.2887 45.6338 21.6419 47.5013 23.0592C48.6955 23.9654 49.5188 24.9994 49.998 25.7044C50.4768 24.9996 51.2994 23.9662 52.4929 23.0608C54.3597 21.6447 57.5087 20.2936 61.9097 21.8986C68.9184 24.2794 72.6317 32.7437 69.6485 39.5107C68.6475 42.2006 66.8147 44.9841 64.0453 48.02L63.205 47.2522C65.8776 44.3224 67.6376 41.657 68.5858 39.1036C71.3346 32.9093 67.9434 25.15 61.52 22.9686C58.3887 21.8265 55.5942 22.1545 53.2137 23.9432C51.406 25.3015 50.5149 27.0378 50.5061 27.0551C50.3148 27.466 49.6803 27.4658 49.4898 27.0545C49.4814 27.038 48.5892 25.301 46.7804 23.9414C44.3985 22.151 41.6037 21.8214 38.4732 22.9614C32.0481 25.1407 28.6666 32.8988 31.4183 39.0916C32.5942 42.2533 35.0667 45.6542 38.977 49.4888L38.1805 50.3022Z"/>
</mask>
<path d="M38.1805 50.3022C34.1524 46.3519 31.5927 42.8182 30.3557 39.4992C27.3686 32.7335 31.0738 24.2694 38.084 21.8912C42.484 20.2887 45.6338 21.6419 47.5013 23.0592C48.6955 23.9654 49.5188 24.9994 49.998 25.7044C50.4768 24.9996 51.2994 23.9662 52.4929 23.0608C54.3597 21.6447 57.5087 20.2936 61.9097 21.8986C68.9184 24.2794 72.6317 32.7437 69.6485 39.5107C68.6475 42.2006 66.8147 44.9841 64.0453 48.02L63.205 47.2522C65.8776 44.3224 67.6376 41.657 68.5858 39.1036C71.3346 32.9093 67.9434 25.15 61.52 22.9686C58.3887 21.8265 55.5942 22.1545 53.2137 23.9432C51.406 25.3015 50.5149 27.0378 50.5061 27.0551C50.3148 27.466 49.6803 27.4658 49.4898 27.0545C49.4814 27.038 48.5892 25.301 46.7804 23.9414C44.3985 22.151 41.6037 21.8214 38.4732 22.9614C32.0481 25.1407 28.6666 32.8988 31.4183 39.0916C32.5942 42.2533 35.0667 45.6542 38.977 49.4888L38.1805 50.3022Z" fill="white"/>
<path d="M38.1805 50.3022L31.8791 56.728L38.3094 63.0339L44.6108 56.5991L38.1805 50.3022ZM30.3557 39.4992L38.789 36.356L38.6962 36.1071L38.5889 35.8641L30.3557 39.4992ZM38.084 21.8912L40.9754 30.4141L41.07 30.382L41.164 30.3478L38.084 21.8912ZM47.5013 23.0592L42.0605 30.2284L42.0608 30.2286L47.5013 23.0592ZM49.998 25.7044L42.5544 30.7634L49.9994 41.7176L57.4424 30.7621L49.998 25.7044ZM52.4929 23.0608L47.0537 15.8904L47.0534 15.8905L52.4929 23.0608ZM61.9097 21.8986L58.826 30.3539L58.9201 30.3882L59.015 30.4204L61.9097 21.8986ZM69.6485 39.5107L61.4132 35.8801L61.3061 36.1232L61.2135 36.3721L69.6485 39.5107ZM64.0453 48.02L57.9743 54.6641L64.6238 60.74L70.6943 54.0855L64.0453 48.02ZM63.205 47.2522L56.5559 41.1868L50.4956 47.8304L57.1341 53.8963L63.205 47.2522ZM68.5858 39.1036L60.3594 35.453L60.246 35.7086L60.1487 35.9707L68.5858 39.1036ZM61.52 22.9686L58.4361 31.4237L58.5306 31.4582L58.6259 31.4906L61.52 22.9686ZM53.2137 23.9432L58.62 31.1384L58.6201 31.1383L53.2137 23.9432ZM50.5061 27.0551L42.4775 22.988L42.4101 23.121L42.3472 23.2562L50.5061 27.0551ZM49.4898 27.0545L57.6569 23.2731L57.5845 23.1168L57.5062 22.9634L49.4898 27.0545ZM46.7804 23.9414L52.1883 16.7472L52.188 16.747L46.7804 23.9414ZM38.4732 22.9614L41.364 31.4845L41.4589 31.4523L41.5529 31.4181L38.4732 22.9614ZM31.4183 39.0916L39.8537 35.9541L39.7563 35.6923L39.6429 35.437L31.4183 39.0916ZM38.977 49.4888L45.4073 55.7858L51.6998 49.36L45.2785 43.063L38.977 49.4888ZM44.482 43.8763C40.8991 40.3627 39.3713 37.9185 38.789 36.356L21.9224 42.6424C23.8141 47.7179 27.4057 52.3412 31.8791 56.728L44.482 43.8763ZM38.5889 35.8641C37.7315 33.922 38.982 31.0904 40.9754 30.4141L35.1926 13.3683C23.1655 17.4485 17.0057 31.5449 22.1224 43.1342L38.5889 35.8641ZM41.164 30.3478C41.5495 30.2074 41.7811 30.1766 41.8752 30.169C41.9671 30.1616 41.9916 30.1709 41.9721 30.1669C41.9317 30.1588 41.958 30.1506 42.0605 30.2284L52.9421 15.89C49.1835 13.0375 42.868 10.5705 35.0041 13.4346L41.164 30.3478ZM42.0608 30.2286C42.1427 30.2907 42.2376 30.3776 42.3359 30.4865C42.4336 30.5948 42.5086 30.696 42.5544 30.7634L57.4415 20.6454C56.5989 19.4057 55.139 17.5571 52.9419 15.8898L42.0608 30.2286ZM57.4424 30.7621C57.4881 30.6949 57.5626 30.5943 57.6597 30.4867C57.7574 30.3784 57.8515 30.2924 57.9324 30.231L47.0534 15.8905C44.8557 17.5578 43.3958 19.4069 42.5535 20.6468L57.4424 30.7621ZM57.9321 30.2312C58.033 30.1547 58.0577 30.1637 58.0161 30.172C57.9961 30.176 58.0205 30.1667 58.1128 30.1742C58.2073 30.1819 58.4395 30.2129 58.826 30.3539L64.9933 13.4434C57.1313 10.5761 50.8154 13.0369 47.0537 15.8904L57.9321 30.2312ZM59.015 30.4204C61.0183 31.1009 62.2675 33.9423 61.4132 35.8801L77.8837 43.1412C82.9959 31.5452 76.8185 17.4578 64.8043 13.3768L59.015 30.4204ZM61.2135 36.3721C60.7485 37.6215 59.6971 39.4323 57.3962 41.9545L70.6943 54.0855C73.9324 50.5359 76.5465 46.7797 78.0834 42.6493L61.2135 36.3721ZM70.1162 41.3759L69.276 40.6082L57.1341 53.8963L57.9743 54.6641L70.1162 41.3759ZM69.8542 53.3176C72.9809 49.89 75.5333 46.248 77.0229 42.2366L60.1487 35.9707C59.7419 37.066 58.7744 38.7548 56.5559 41.1868L69.8542 53.3176ZM76.8121 42.7542C81.7045 31.7296 75.8533 18.3314 64.4142 14.4466L58.6259 31.4906C59.1752 31.6771 59.8352 32.1976 60.2475 33.1396C60.6601 34.0824 60.5947 34.9228 60.3594 35.453L76.8121 42.7542ZM64.604 14.5135C59.014 12.4746 52.9461 12.8867 47.8073 16.748L58.6201 31.1383C58.6405 31.1231 58.5957 31.1595 58.4865 31.2042C58.3746 31.2501 58.2501 31.2819 58.1342 31.2955C58.0216 31.3087 57.972 31.2984 58.0072 31.3032C58.0471 31.3087 58.1869 31.3328 58.4361 31.4237L64.604 14.5135ZM47.8074 16.7479C44.3893 19.3161 42.7385 22.4728 42.4775 22.988L58.5347 31.1222C58.5298 31.1319 58.5259 31.1396 58.5236 31.144C58.5211 31.149 58.5188 31.1534 58.517 31.1571C58.5132 31.1644 58.5098 31.1709 58.5069 31.1766C58.5011 31.188 58.4956 31.1984 58.4907 31.2079C58.4808 31.227 58.4716 31.2443 58.4633 31.2599C58.4466 31.2913 58.4324 31.3174 58.4205 31.3388C58.3969 31.3813 58.3818 31.4067 58.375 31.418C58.3627 31.4383 58.3762 31.4144 58.412 31.3661C58.4293 31.3429 58.4495 31.3169 58.4722 31.2898C58.4949 31.2626 58.5178 31.2369 58.5401 31.2136C58.5625 31.1901 58.5816 31.1718 58.5966 31.1583C58.604 31.1517 58.6097 31.1468 58.6139 31.1434C58.618 31.14 58.6201 31.1384 58.62 31.1384L47.8074 16.7479ZM42.3472 23.2562C43.9947 19.7178 47.3828 18.3619 50.002 18.3631C52.6218 18.3644 56.0141 19.7251 57.6569 23.2731L41.3228 30.8359C43.1559 34.7952 46.9607 36.3617 49.9933 36.3631C53.0252 36.3646 56.8262 34.8033 58.6651 30.854L42.3472 23.2562ZM57.5062 22.9634C57.2571 22.4752 55.6072 19.3173 52.1883 16.7472L41.3726 31.1355C41.3733 31.136 41.3819 31.1425 41.3973 31.1564C41.4127 31.1703 41.4322 31.189 41.4549 31.2127C41.4775 31.2365 41.5007 31.2625 41.5237 31.29C41.5466 31.3174 41.5671 31.3437 41.5846 31.3672C41.6208 31.416 41.6347 31.4404 41.6226 31.4205C41.6159 31.4094 41.6009 31.3843 41.5775 31.342C41.5657 31.3208 41.5516 31.295 41.5351 31.2641C41.5269 31.2486 41.518 31.2318 41.5084 31.2134C41.5036 31.2043 41.4986 31.1946 41.4933 31.1843C41.4888 31.1756 41.4819 31.1623 41.4734 31.1456L57.5062 22.9634ZM52.188 16.747C47.0519 12.8866 40.9859 12.4681 35.3934 14.5047L41.5529 31.4181C41.8013 31.3276 41.9406 31.3037 41.9801 31.2983C42.0149 31.2935 41.9654 31.3038 41.8532 31.2905C41.7377 31.2769 41.614 31.2452 41.5031 31.1997C41.3951 31.1554 41.3514 31.1195 41.3729 31.1357L52.188 16.747ZM35.5823 14.4383C24.1281 18.3234 18.299 31.7307 23.1936 42.7461L39.6429 35.437C39.406 34.904 39.3415 34.0636 39.7517 33.1246C40.1613 32.1869 40.8171 31.67 41.364 31.4845L35.5823 14.4383ZM22.9828 42.229C24.8199 47.1682 28.3411 51.6641 32.6755 55.9146L45.2785 43.063C41.7923 39.6442 40.3685 37.3383 39.8537 35.9541L22.9828 42.229ZM32.5467 43.1919L31.7502 44.0052L44.6108 56.5991L45.4073 55.7858L32.5467 43.1919Z" fill="white" mask="url(#path-2-inside-1_677_960)"/>
<mask id="path-4-inside-2_677_960" fill="white">
<path d="M62.3642 49.7788L61.5586 48.9745C61.8536 48.6785 62.1429 48.3822 62.4183 48.0938L63.2409 48.8805C62.9599 49.1748 62.6649 49.477 62.3642 49.7788Z"/>
</mask>
<path d="M62.3642 49.7788L61.5586 48.9745C61.8536 48.6785 62.1429 48.3822 62.4183 48.0938L63.2409 48.8805C62.9599 49.1748 62.6649 49.477 62.3642 49.7788Z" fill="white"/>
<path d="M62.3642 49.7788L56.0056 56.1481L62.3804 62.5121L68.739 56.1319L62.3642 49.7788ZM61.5586 48.9745L55.1836 42.6216L48.8363 48.991L55.2 55.3439L61.5586 48.9745ZM62.4183 48.0938L68.6392 41.5899L62.1301 35.364L55.9095 41.8781L62.4183 48.0938ZM63.2409 48.8805L69.7494 55.0966L75.9608 48.593L69.4618 42.3767L63.2409 48.8805ZM68.7227 43.4094L67.9171 42.6052L55.2 55.3439L56.0056 56.1481L68.7227 43.4094ZM67.9336 55.3275C68.2713 54.9886 68.6053 54.6465 68.9272 54.3094L55.9095 41.8781C55.6805 42.1178 55.436 42.3684 55.1836 42.6216L67.9336 55.3275ZM56.1974 54.5976L57.02 55.3844L69.4618 42.3767L68.6392 41.5899L56.1974 54.5976ZM56.7324 42.6645C56.497 42.9109 56.2467 43.1675 55.9894 43.4256L68.739 56.1319C69.0831 55.7865 69.4227 55.4386 69.7494 55.0966L56.7324 42.6645Z" fill="white" mask="url(#path-4-inside-2_677_960)"/>
<mask id="path-6-inside-3_677_960" fill="white">
<path d="M53.1378 43.9414H52.9461V42.6243C53.8387 42.0813 54.5696 41.2986 55.0524 40.3672C55.3333 40.495 55.6397 40.5644 55.9576 40.5644C57.1662 40.5644 58.1495 39.5803 58.1495 38.3707V35.0033C58.1495 31.5498 55.3423 28.7402 51.8918 28.7402H48.1084C44.658 28.7402 41.8508 31.5498 41.8508 35.0033V38.3707C41.8508 39.5803 42.834 40.5644 44.0426 40.5644C44.3604 40.5644 44.6669 40.495 44.9478 40.3672C45.4305 41.2988 46.1614 42.0814 47.0541 42.6245V43.9415C43.1005 43.8363 39.8044 47.0372 39.8106 50.9993V58.1997C39.8106 59.5662 40.9213 60.678 42.2867 60.678C42.781 60.678 43.2417 60.532 43.6284 60.2811V70.5264C43.098 71.1301 42.7751 71.9222 42.7751 72.7909C42.7751 73.7328 43.5407 74.4991 44.4818 74.4991H47.895C48.8361 74.4991 49.6017 73.7328 49.6017 72.7809C49.6017 71.9082 49.2726 71.1113 48.7326 70.5067V65.328C48.7326 64.6288 49.301 64.0598 49.9998 64.0598C50.6986 64.0598 51.2671 64.6288 51.2671 65.328V70.5083C50.7271 71.1141 50.398 71.9136 50.398 72.7911C50.398 73.7329 51.1636 74.4992 52.1047 74.4992H55.5179C56.459 74.4992 57.2246 73.7329 57.2246 72.781C57.2246 71.917 56.9017 71.1274 56.3712 70.5251V60.2802C56.7583 60.5312 57.2184 60.6782 57.713 60.6782C59.0784 60.6782 60.1891 59.5664 60.1891 58.2V50.9995C60.1895 47.1075 57.0262 43.9414 53.1378 43.9414ZM55.9576 39.4257C55.7858 39.4257 55.6205 39.3843 55.4723 39.3072C55.6123 38.8134 55.6888 38.2933 55.6888 37.7553V37.352C55.7765 37.3285 55.8666 37.3156 55.9576 37.3156C56.5389 37.3156 57.0117 37.7889 57.0117 38.3707C57.0117 38.9524 56.5388 39.4257 55.9576 39.4257ZM44.0426 39.4257C43.4614 39.4257 42.9884 38.9524 42.9884 38.3707C42.9884 37.7889 43.4614 37.3156 44.0426 37.3156C44.1335 37.3156 44.2237 37.3285 44.3112 37.352V37.7553C44.3112 38.2933 44.3878 38.8135 44.5277 39.3072C44.3797 39.3843 44.2144 39.4257 44.0426 39.4257ZM44.3113 35.6052V36.1945C43.8555 36.1334 43.3722 36.2336 42.9886 36.4484V35.0034C42.9886 32.1778 45.2853 29.879 48.1084 29.879H51.8918C54.7149 29.879 57.0117 32.1778 57.0117 35.0034V36.4484C56.6282 36.2336 56.1447 36.1334 55.6888 36.1945V35.6052C55.6888 34.0354 54.4128 32.7584 52.8444 32.7584H47.1556C45.5873 32.7584 44.3113 34.0354 44.3113 35.6052ZM45.4491 37.7553V35.6052C45.4491 34.6633 46.2147 33.897 47.1557 33.897H52.8445C53.7856 33.897 54.5512 34.6633 54.5512 35.6052V37.7553C54.5512 40.2668 52.5096 42.3102 50.0002 42.3102C47.4908 42.3102 45.4491 40.2668 45.4491 37.7553ZM51.8083 43.1523V45.5811C51.8083 46.579 50.9971 47.3908 50.0001 47.3908C49.003 47.3908 48.192 46.579 48.192 45.5811V43.1523C48.7604 43.3437 49.368 43.4488 50.0001 43.4488C50.6322 43.449 51.2397 43.3437 51.8083 43.1523ZM43.6253 58.1996C43.6253 58.9382 43.0248 59.5392 42.2868 59.5392C41.5488 59.5392 40.9483 58.9383 40.9483 58.1996V53.0346H43.6251V58.1996H43.6253ZM47.8952 73.3603H44.482C44.1684 73.3603 43.9131 73.1049 43.9131 72.7808C43.9131 71.5251 44.934 70.5033 46.1887 70.5033C47.4434 70.5033 48.4642 71.525 48.4642 72.7909C48.4641 73.1048 48.2088 73.3603 47.8952 73.3603ZM50.0001 62.9209C48.6739 62.9209 47.5951 64.0006 47.5951 65.3279V69.6694C47.1659 69.4743 46.6899 69.3646 46.1886 69.3646C45.6811 69.3646 45.1996 69.4769 44.7663 69.6766V58.5152H55.2337V69.6764C54.8004 69.4768 54.3189 69.3645 53.8115 69.3645C53.3102 69.3645 52.8343 69.4741 52.405 69.6695V65.3278C52.4051 64.0006 51.3262 62.9209 50.0001 62.9209ZM55.5182 73.3603H52.1049C51.7913 73.3603 51.536 73.1049 51.536 72.7808C51.536 71.5251 52.5569 70.5033 53.8116 70.5033C55.0663 70.5033 56.0871 71.525 56.0871 72.7909C56.087 73.1048 55.8319 73.3603 55.5182 73.3603ZM59.0517 58.1996C59.0517 58.9382 58.4512 59.5392 57.7132 59.5392C56.9752 59.5392 56.3748 58.9383 56.3748 58.1996V53.0346H59.0516V58.1996H59.0517ZM59.0517 51.8959H55.8059C55.4917 51.8959 55.237 52.1508 55.237 52.4652V57.3765H44.7629V52.4652C44.7629 52.1508 44.5082 51.8959 44.194 51.8959H40.9483V50.9993C40.9422 47.6645 43.7279 44.9764 47.0541 45.0803V45.5814C47.0541 47.2071 48.3756 48.5298 50 48.5298C51.6243 48.5298 52.9459 47.2071 52.9459 45.5814V45.0803C56.2721 44.9764 59.0579 47.6645 59.0517 50.9993V51.8959Z"/>
</mask>
<path d="M53.1378 43.9414H52.9461V42.6243C53.8387 42.0813 54.5696 41.2986 55.0524 40.3672C55.3333 40.495 55.6397 40.5644 55.9576 40.5644C57.1662 40.5644 58.1495 39.5803 58.1495 38.3707V35.0033C58.1495 31.5498 55.3423 28.7402 51.8918 28.7402H48.1084C44.658 28.7402 41.8508 31.5498 41.8508 35.0033V38.3707C41.8508 39.5803 42.834 40.5644 44.0426 40.5644C44.3604 40.5644 44.6669 40.495 44.9478 40.3672C45.4305 41.2988 46.1614 42.0814 47.0541 42.6245V43.9415C43.1005 43.8363 39.8044 47.0372 39.8106 50.9993V58.1997C39.8106 59.5662 40.9213 60.678 42.2867 60.678C42.781 60.678 43.2417 60.532 43.6284 60.2811V70.5264C43.098 71.1301 42.7751 71.9222 42.7751 72.7909C42.7751 73.7328 43.5407 74.4991 44.4818 74.4991H47.895C48.8361 74.4991 49.6017 73.7328 49.6017 72.7809C49.6017 71.9082 49.2726 71.1113 48.7326 70.5067V65.328C48.7326 64.6288 49.301 64.0598 49.9998 64.0598C50.6986 64.0598 51.2671 64.6288 51.2671 65.328V70.5083C50.7271 71.1141 50.398 71.9136 50.398 72.7911C50.398 73.7329 51.1636 74.4992 52.1047 74.4992H55.5179C56.459 74.4992 57.2246 73.7329 57.2246 72.781C57.2246 71.917 56.9017 71.1274 56.3712 70.5251V60.2802C56.7583 60.5312 57.2184 60.6782 57.713 60.6782C59.0784 60.6782 60.1891 59.5664 60.1891 58.2V50.9995C60.1895 47.1075 57.0262 43.9414 53.1378 43.9414ZM55.9576 39.4257C55.7858 39.4257 55.6205 39.3843 55.4723 39.3072C55.6123 38.8134 55.6888 38.2933 55.6888 37.7553V37.352C55.7765 37.3285 55.8666 37.3156 55.9576 37.3156C56.5389 37.3156 57.0117 37.7889 57.0117 38.3707C57.0117 38.9524 56.5388 39.4257 55.9576 39.4257ZM44.0426 39.4257C43.4614 39.4257 42.9884 38.9524 42.9884 38.3707C42.9884 37.7889 43.4614 37.3156 44.0426 37.3156C44.1335 37.3156 44.2237 37.3285 44.3112 37.352V37.7553C44.3112 38.2933 44.3878 38.8135 44.5277 39.3072C44.3797 39.3843 44.2144 39.4257 44.0426 39.4257ZM44.3113 35.6052V36.1945C43.8555 36.1334 43.3722 36.2336 42.9886 36.4484V35.0034C42.9886 32.1778 45.2853 29.879 48.1084 29.879H51.8918C54.7149 29.879 57.0117 32.1778 57.0117 35.0034V36.4484C56.6282 36.2336 56.1447 36.1334 55.6888 36.1945V35.6052C55.6888 34.0354 54.4128 32.7584 52.8444 32.7584H47.1556C45.5873 32.7584 44.3113 34.0354 44.3113 35.6052ZM45.4491 37.7553V35.6052C45.4491 34.6633 46.2147 33.897 47.1557 33.897H52.8445C53.7856 33.897 54.5512 34.6633 54.5512 35.6052V37.7553C54.5512 40.2668 52.5096 42.3102 50.0002 42.3102C47.4908 42.3102 45.4491 40.2668 45.4491 37.7553ZM51.8083 43.1523V45.5811C51.8083 46.579 50.9971 47.3908 50.0001 47.3908C49.003 47.3908 48.192 46.579 48.192 45.5811V43.1523C48.7604 43.3437 49.368 43.4488 50.0001 43.4488C50.6322 43.449 51.2397 43.3437 51.8083 43.1523ZM43.6253 58.1996C43.6253 58.9382 43.0248 59.5392 42.2868 59.5392C41.5488 59.5392 40.9483 58.9383 40.9483 58.1996V53.0346H43.6251V58.1996H43.6253ZM47.8952 73.3603H44.482C44.1684 73.3603 43.9131 73.1049 43.9131 72.7808C43.9131 71.5251 44.934 70.5033 46.1887 70.5033C47.4434 70.5033 48.4642 71.525 48.4642 72.7909C48.4641 73.1048 48.2088 73.3603 47.8952 73.3603ZM50.0001 62.9209C48.6739 62.9209 47.5951 64.0006 47.5951 65.3279V69.6694C47.1659 69.4743 46.6899 69.3646 46.1886 69.3646C45.6811 69.3646 45.1996 69.4769 44.7663 69.6766V58.5152H55.2337V69.6764C54.8004 69.4768 54.3189 69.3645 53.8115 69.3645C53.3102 69.3645 52.8343 69.4741 52.405 69.6695V65.3278C52.4051 64.0006 51.3262 62.9209 50.0001 62.9209ZM55.5182 73.3603H52.1049C51.7913 73.3603 51.536 73.1049 51.536 72.7808C51.536 71.5251 52.5569 70.5033 53.8116 70.5033C55.0663 70.5033 56.0871 71.525 56.0871 72.7909C56.087 73.1048 55.8319 73.3603 55.5182 73.3603ZM59.0517 58.1996C59.0517 58.9382 58.4512 59.5392 57.7132 59.5392C56.9752 59.5392 56.3748 58.9383 56.3748 58.1996V53.0346H59.0516V58.1996H59.0517ZM59.0517 51.8959H55.8059C55.4917 51.8959 55.237 52.1508 55.237 52.4652V57.3765H44.7629V52.4652C44.7629 52.1508 44.5082 51.8959 44.194 51.8959H40.9483V50.9993C40.9422 47.6645 43.7279 44.9764 47.0541 45.0803V45.5814C47.0541 47.2071 48.3756 48.5298 50 48.5298C51.6243 48.5298 52.9459 47.2071 52.9459 45.5814V45.0803C56.2721 44.9764 59.0579 47.6645 59.0517 50.9993V51.8959Z" fill="white" stroke="white" stroke-width="18" mask="url(#path-6-inside-3_677_960)"/>
<mask id="path-7-inside-4_677_960" fill="white">
<path d="M29.1473 71.9573C27.2084 70.2596 24.5623 68.3282 23.6535 65.9532C22.7344 63.8518 23.879 61.2178 26.0523 60.4757C27.6627 59.886 28.8449 60.535 29.5204 61.2624C30.1955 60.5354 31.3771 59.8871 32.988 60.4777C35.1606 61.2206 36.3075 63.8547 35.3896 65.9561C34.4839 68.334 31.835 70.2564 29.8994 71.9573C29.7919 72.0521 29.4619 72.2188 29.1473 71.9573ZM26.4432 61.5451C24.8535 62.0877 24.0314 64.0181 24.7166 65.5475C25.4421 67.479 27.7992 69.2962 29.5233 70.7764C31.2461 69.2977 33.6027 67.4812 34.3262 65.5511C35.011 64.0213 34.1859 62.0903 32.5965 61.547C30.8946 60.9225 30.1116 62.3326 30.0278 62.4954C29.8346 62.9039 29.2481 62.8781 29.0115 62.4925C28.0727 60.9624 26.748 61.4334 26.4432 61.5451Z"/>
</mask>
<path d="M29.1473 71.9573C27.2084 70.2596 24.5623 68.3282 23.6535 65.9532C22.7344 63.8518 23.879 61.2178 26.0523 60.4757C27.6627 59.886 28.8449 60.535 29.5204 61.2624C30.1955 60.5354 31.3771 59.8871 32.988 60.4777C35.1606 61.2206 36.3075 63.8547 35.3896 65.9561C34.4839 68.334 31.835 70.2564 29.8994 71.9573C29.7919 72.0521 29.4619 72.2188 29.1473 71.9573ZM26.4432 61.5451C24.8535 62.0877 24.0314 64.0181 24.7166 65.5475C25.4421 67.479 27.7992 69.2962 29.5233 70.7764C31.2461 69.2977 33.6027 67.4812 34.3262 65.5511C35.011 64.0213 34.1859 62.0903 32.5965 61.547C30.8946 60.9225 30.1116 62.3326 30.0278 62.4954C29.8346 62.9039 29.2481 62.8781 29.0115 62.4925C28.0727 60.9624 26.748 61.4334 26.4432 61.5451Z" fill="white"/>
<path d="M29.1473 71.9573L23.2185 78.7285L23.3054 78.8046L23.3942 78.8784L29.1473 71.9573ZM23.6535 65.9532L32.0591 62.7367L31.9837 62.5397L31.8992 62.3466L23.6535 65.9532ZM26.0523 60.4757L28.9606 68.9928L29.054 68.9609L29.1468 68.927L26.0523 60.4757ZM29.5204 61.2624L22.9252 67.3865L29.5205 74.4892L36.1157 67.3863L29.5204 61.2624ZM32.988 60.4777L29.8896 68.9276L29.9825 68.9616L30.0761 68.9936L32.988 60.4777ZM35.3896 65.9561L27.1421 62.3534L27.0557 62.5512L26.9789 62.7529L35.3896 65.9561ZM29.8994 71.9573L23.9587 65.1965L23.9518 65.2025L23.9451 65.2085L29.8994 71.9573ZM26.4432 61.5451L29.3508 70.0625L29.4459 70.03L29.5402 69.9954L26.4432 61.5451ZM24.7166 65.5475L33.1419 62.3829L33.0439 62.1219L32.9299 61.8674L24.7166 65.5475ZM29.5233 70.7764L23.6607 77.605L29.5227 82.6378L35.3853 77.6056L29.5233 70.7764ZM34.3262 65.5511L26.1116 61.874L25.9972 62.1297L25.8988 62.392L34.3262 65.5511ZM32.5965 61.547L29.4961 69.9961L29.5905 70.0308L29.6857 70.0633L32.5965 61.547ZM30.0278 62.4954L22.0256 58.3766L21.9567 58.5105L21.8923 58.6466L30.0278 62.4954ZM29.0115 62.4925L21.3403 67.1991L21.3407 67.1998L29.0115 62.4925ZM35.076 65.186C34.5492 64.7247 33.8326 64.1254 33.444 63.7935C32.9574 63.3779 32.5929 63.0537 32.2967 62.7649C31.9996 62.4753 31.865 62.311 31.8228 62.2547C31.7806 62.1984 31.9158 62.3621 32.0591 62.7367L15.2479 69.1696C16.4007 72.1822 18.3995 74.355 19.7315 75.6536C20.955 76.8463 22.7373 78.3072 23.2185 78.7285L35.076 65.186ZM31.8992 62.3466C32.5569 63.8502 32.384 65.2927 31.9407 66.3075C31.4961 67.3253 30.542 68.4528 28.9606 68.9928L23.1441 51.9585C15.9396 54.4186 12.3988 62.6804 15.4077 69.5598L31.8992 62.3466ZM29.1468 68.927C28.1633 69.2871 26.8419 69.3945 25.4819 68.9746C24.2527 68.5951 23.4227 67.9222 22.9252 67.3865L36.1156 55.1384C33.6282 52.4597 28.7928 49.8879 22.9579 52.0244L29.1468 68.927ZM36.1157 67.3863C35.6173 67.9231 34.7857 68.5971 33.5543 68.9766C32.1922 69.3965 30.8708 69.2874 29.8896 68.9276L36.0863 52.0279C30.2531 49.889 25.4157 52.4562 22.9251 55.1385L36.1157 67.3863ZM30.0761 68.9936C28.4974 68.4538 27.5458 67.3288 27.102 66.3142C26.6594 65.3022 26.4842 63.8596 27.1421 62.3534L43.637 69.5588C46.6445 62.6739 43.0923 54.4212 35.8999 51.9618L30.0761 68.9936ZM26.9789 62.7529C27.1236 62.3729 27.2617 62.2047 27.2221 62.2575C27.1823 62.3106 27.0496 62.4728 26.7527 62.7618C26.4563 63.0504 26.0917 63.3742 25.6022 63.7922C25.2032 64.1328 24.4988 64.7219 23.9587 65.1965L35.8402 78.718C36.2868 78.3256 38.1057 76.8305 39.3087 75.6593C40.6404 74.363 42.6476 72.1858 43.8002 69.1594L26.9789 62.7529ZM23.9451 65.2085C25.0267 64.2542 26.4698 63.4671 28.2306 63.1958C30.3794 62.8648 32.8791 63.356 34.9003 65.0361L23.3942 78.8784C25.7301 80.82 28.5521 81.3587 30.9715 80.9859C33.0029 80.673 34.6646 79.7552 35.8538 78.706L23.9451 65.2085ZM23.5357 53.0277C16.8556 55.308 13.6849 62.9371 16.5034 69.2275L32.9299 61.8674C33.7286 63.65 33.5572 65.4224 32.996 66.7287C32.4327 68.04 31.2443 69.4161 29.3508 70.0625L23.5357 53.0277ZM16.2913 68.712C17.364 71.5679 19.2994 73.6312 20.4345 74.7476C21.6193 75.913 23.0831 77.1091 23.6607 77.605L35.386 63.9478C35.1382 63.7351 34.8827 63.5195 34.6611 63.3321C34.4289 63.1359 34.2213 62.9602 34.0186 62.7857C33.6086 62.4328 33.2995 62.1537 33.0565 61.9147C32.8079 61.6702 32.7203 61.5565 32.723 61.5602C32.7298 61.5692 32.7803 61.6368 32.8526 61.7618C32.9247 61.8866 33.0337 62.0948 33.1419 62.3829L16.2913 68.712ZM35.3853 77.6056C35.9621 77.1105 37.4257 75.9148 38.6105 74.7495C39.7448 73.6338 41.6818 71.5691 42.7535 68.7102L25.8988 62.392C26.0073 62.1026 26.1167 61.8934 26.1893 61.7678C26.262 61.6419 26.3129 61.5737 26.32 61.5642C26.3235 61.5595 26.2366 61.6725 25.9885 61.9165C25.746 62.155 25.4373 62.4337 25.0277 62.7862C24.8252 62.9605 24.6178 63.1361 24.3858 63.3321C24.1644 63.5192 23.909 63.7347 23.6614 63.9472L35.3853 77.6056ZM42.5408 69.2282C45.3613 62.9271 42.1716 55.3085 35.5073 53.0307L29.6857 70.0633C27.7954 69.4172 26.61 68.0444 26.0475 66.7375C25.4867 65.4347 25.3117 63.6612 26.1116 61.874L42.5408 69.2282ZM35.6969 53.0979C31.8549 51.6881 28.1614 52.5112 25.526 54.3656C23.3798 55.8759 22.3465 57.7531 22.0256 58.3766L38.0301 66.6142C37.7929 67.0749 37.1931 68.1656 35.8847 69.0863C35.139 69.611 34.1038 70.1181 32.8189 70.31C31.5087 70.5058 30.3545 70.3111 29.4961 69.9961L35.6969 53.0979ZM21.8923 58.6466C23.5273 55.1906 26.9014 53.7431 29.6972 53.7932C32.3489 53.8407 35.0824 55.1779 36.6824 57.7853L21.3407 67.1998C23.1773 70.1927 26.3223 71.7356 29.3747 71.7903C32.5712 71.8476 36.3351 70.2088 38.1634 66.3442L21.8923 58.6466ZM36.6828 57.7859C34.8091 54.7321 31.8479 52.8694 28.5829 52.4698C25.8598 52.1365 23.7486 52.9472 23.3462 53.0947L29.5402 69.9954C29.5436 69.9942 29.5039 70.0088 29.4498 70.0275C29.3942 70.0467 29.322 70.0707 29.237 70.0967C29.0682 70.1484 28.8488 70.208 28.5878 70.2597C28.0826 70.3596 27.3214 70.4497 26.3963 70.3365C25.4266 70.2178 24.3606 69.8834 23.3595 69.234C22.364 68.5883 21.7199 67.8178 21.3403 67.1991L36.6828 57.7859Z" fill="white" mask="url(#path-7-inside-4_677_960)"/>
<mask id="path-9-inside-5_677_960" fill="white">
<path d="M70.1061 71.9573C68.1672 70.2596 65.5212 68.3282 64.6125 65.9532C63.6934 63.8518 64.838 61.2178 67.0113 60.4757C68.6217 59.886 69.8039 60.535 70.4794 61.2624C71.1545 60.5354 72.3361 59.8871 73.9469 60.4777C76.1196 61.2206 77.2665 63.8547 76.3485 65.9561C75.4429 68.334 72.794 70.2564 70.8584 71.9573C70.7509 72.0521 70.4209 72.2188 70.1061 71.9573ZM67.4022 61.5451C65.8125 62.0877 64.9904 64.0181 65.6756 65.5475C66.4011 67.479 68.7582 69.2962 70.4823 70.7764C72.2051 69.2977 74.5616 67.4812 75.2852 65.5511C75.97 64.0213 75.1449 62.0903 73.5555 61.547C71.8536 60.9225 71.0706 62.3326 70.9868 62.4954C70.7936 62.9039 70.2071 62.8781 69.9705 62.4925C69.0316 60.9624 67.7069 61.4334 67.4022 61.5451Z"/>
</mask>
<path d="M70.1061 71.9573C68.1672 70.2596 65.5212 68.3282 64.6125 65.9532C63.6934 63.8518 64.838 61.2178 67.0113 60.4757C68.6217 59.886 69.8039 60.535 70.4794 61.2624C71.1545 60.5354 72.3361 59.8871 73.9469 60.4777C76.1196 61.2206 77.2665 63.8547 76.3485 65.9561C75.4429 68.334 72.794 70.2564 70.8584 71.9573C70.7509 72.0521 70.4209 72.2188 70.1061 71.9573ZM67.4022 61.5451C65.8125 62.0877 64.9904 64.0181 65.6756 65.5475C66.4011 67.479 68.7582 69.2962 70.4823 70.7764C72.2051 69.2977 74.5616 67.4812 75.2852 65.5511C75.97 64.0213 75.1449 62.0903 73.5555 61.547C71.8536 60.9225 71.0706 62.3326 70.9868 62.4954C70.7936 62.9039 70.2071 62.8781 69.9705 62.4925C69.0316 60.9624 67.7069 61.4334 67.4022 61.5451Z" fill="white"/>
<path d="M70.1061 71.9573L64.1774 78.7285L64.2649 78.8051L64.3544 78.8795L70.1061 71.9573ZM64.6125 65.9532L73.0182 62.737L72.9428 62.5399L72.8582 62.3466L64.6125 65.9532ZM67.0113 60.4757L69.9196 68.9928L70.013 68.9609L70.1057 68.927L67.0113 60.4757ZM70.4794 61.2624L63.8842 67.3865L70.4795 74.4892L77.0747 67.3863L70.4794 61.2624ZM73.9469 60.4777L70.8486 68.9276L70.9414 68.9616L71.035 68.9936L73.9469 60.4777ZM76.3485 65.9561L68.1011 62.3534L68.0147 62.5512L67.9379 62.7529L76.3485 65.9561ZM70.8584 71.9573L64.9176 65.1965L64.9108 65.2025L64.904 65.2085L70.8584 71.9573ZM67.4022 61.5451L70.3097 70.0625L70.4048 70.03L70.4992 69.9954L67.4022 61.5451ZM65.6756 65.5475L74.1009 62.3829L74.0029 62.1219L73.8888 61.8674L65.6756 65.5475ZM70.4823 70.7764L64.6197 77.605L70.4817 82.6378L76.3443 77.6056L70.4823 70.7764ZM75.2852 65.5511L67.0706 61.874L66.9562 62.1297L66.8578 62.392L75.2852 65.5511ZM73.5555 61.547L70.4551 69.9961L70.5495 70.0308L70.6447 70.0633L73.5555 61.547ZM70.9868 62.4954L62.9846 58.3766L62.9157 58.5105L62.8513 58.6466L70.9868 62.4954ZM69.9705 62.4925L62.2996 67.1996L62.2997 67.1998L69.9705 62.4925ZM76.0349 65.186C75.508 64.7247 74.7914 64.1254 74.4029 63.7935C73.9163 63.3779 73.5518 63.0537 73.2556 62.7649C72.9586 62.4754 72.824 62.3111 72.7818 62.2549C72.7396 62.1986 72.8749 62.3623 73.0182 62.737L56.2067 69.1693C57.3594 72.182 59.3584 74.3549 60.6904 75.6535C61.9138 76.8463 63.6962 78.3072 64.1774 78.7285L76.0349 65.186ZM72.8582 62.3466C73.5159 63.8502 73.343 65.2927 72.8996 66.3075C72.4551 67.3253 71.501 68.4528 69.9196 68.9928L64.1031 51.9585C56.8985 54.4186 53.3578 62.6804 56.3667 69.5598L72.8582 62.3466ZM70.1057 68.927C69.1223 69.2871 67.8009 69.3945 66.4408 68.9746C65.2116 68.5951 64.3817 67.9222 63.8842 67.3865L77.0745 55.1384C74.5872 52.4597 69.7518 49.8879 63.9169 52.0244L70.1057 68.927ZM77.0747 67.3863C76.5763 67.9231 75.7447 68.5971 74.5133 68.9766C73.1512 69.3965 71.8298 69.2874 70.8486 68.9276L77.0453 52.0279C71.2121 49.889 66.3747 52.4562 63.8841 55.1385L77.0747 67.3863ZM71.035 68.9936C69.4564 68.4538 68.5048 67.3288 68.061 66.3142C67.6184 65.3022 67.4431 63.8596 68.1011 62.3534L84.596 69.5588C87.6035 62.6739 84.0513 54.4212 76.8588 51.9618L71.035 68.9936ZM67.9379 62.7529C68.0826 62.3729 68.2207 62.2047 68.1811 62.2575C68.1412 62.3106 68.0086 62.4728 67.7117 62.7618C67.4153 63.0504 67.0507 63.3742 66.5612 63.7922C66.1622 64.1328 65.4578 64.7219 64.9176 65.1965L76.7992 78.718C77.2457 78.3256 79.0647 76.8305 80.2677 75.6593C81.5993 74.363 83.6066 72.1858 84.7592 69.1594L67.9379 62.7529ZM64.904 65.2085C65.9858 64.2541 67.4289 63.4671 69.1897 63.1958C71.3383 62.8648 73.8373 63.3561 75.8579 65.0351L64.3544 78.8795C66.6898 80.82 69.5111 81.3586 71.9303 80.986C73.9617 80.673 75.6235 79.7553 76.8128 78.706L64.904 65.2085ZM64.4947 53.0277C57.8146 55.308 54.6439 62.9371 57.4624 69.2275L73.8888 61.8674C74.6876 63.65 74.5162 65.4224 73.955 66.7287C73.3917 68.04 72.2033 69.4161 70.3097 70.0625L64.4947 53.0277ZM57.2503 68.712C58.323 71.5679 60.2584 73.6312 61.3935 74.7476C62.5783 75.913 64.0421 77.1091 64.6197 77.605L76.345 63.9478C76.0972 63.7351 75.8417 63.5195 75.62 63.3321C75.3879 63.1359 75.1803 62.9602 74.9776 62.7857C74.5676 62.4328 74.2585 62.1537 74.0155 61.9147C73.7669 61.6702 73.6792 61.5565 73.682 61.5602C73.6888 61.5692 73.7393 61.6368 73.8115 61.7618C73.8837 61.8866 73.9927 62.0948 74.1009 62.3829L57.2503 68.712ZM76.3443 77.6056C76.9211 77.1105 78.3847 75.9148 79.5694 74.7495C80.7038 73.6338 82.6408 71.5691 83.7125 68.7102L66.8578 62.392C66.9663 62.1026 67.0757 61.8934 67.1483 61.7678C67.221 61.6419 67.2719 61.5737 67.279 61.5642C67.2825 61.5595 67.1956 61.6725 66.9475 61.9165C66.705 62.155 66.3963 62.4337 65.9867 62.7862C65.7842 62.9605 65.5768 63.1361 65.3448 63.3321C65.1234 63.5192 64.868 63.7347 64.6204 63.9472L76.3443 77.6056ZM83.4997 69.2282C86.3203 62.9272 83.1306 55.3085 76.4663 53.0307L70.6447 70.0633C68.7543 69.4172 67.569 68.0444 67.0065 66.7374C66.4457 65.4347 66.2706 63.6611 67.0706 61.874L83.4997 69.2282ZM76.6559 53.0979C72.8138 51.6881 69.1204 52.5112 66.485 54.3656C64.3388 55.8759 63.3055 57.7531 62.9846 58.3766L78.9891 66.6142C78.7519 67.0749 78.1521 68.1656 76.8437 69.0863C76.098 69.611 75.0628 70.1181 73.7779 70.31C72.4677 70.5058 71.3135 70.3111 70.4551 69.9961L76.6559 53.0979ZM62.8513 58.6466C64.4863 55.1906 67.8603 53.7431 70.6561 53.7932C73.3079 53.8407 76.0413 55.1779 77.6414 57.7853L62.2997 67.1998C64.1363 70.1927 67.2813 71.7356 70.3337 71.7903C73.5302 71.8476 77.2941 70.2088 79.1224 66.3442L62.8513 58.6466ZM77.6415 57.7855C75.7679 54.732 72.8069 52.8694 69.5419 52.4698C66.8187 52.1365 64.7075 52.9473 64.3052 53.0947L70.4992 69.9954C70.5026 69.9942 70.4629 70.0088 70.4089 70.0275C70.3533 70.0467 70.2811 70.0707 70.1961 70.0967C70.0273 70.1484 69.8079 70.208 69.5469 70.2597C69.0416 70.3596 68.2803 70.4497 67.3552 70.3365C66.3854 70.2178 65.3196 69.8833 64.3185 69.2341C63.3231 68.5885 62.679 67.818 62.2996 67.1996L77.6415 57.7855Z" fill="white" mask="url(#path-9-inside-5_677_960)"/>
<mask id="path-11-inside-6_677_960" fill="white">
<path d="M25.3984 54.0117H31.8974V55.1504H25.3984V54.0117Z"/>
</mask>
<path d="M25.3984 54.0117H31.8974V55.1504H25.3984V54.0117Z" fill="white"/>
<path d="M25.3984 54.0117V45.0117H16.3984V54.0117H25.3984ZM31.8974 54.0117H40.8974V45.0117H31.8974V54.0117ZM31.8974 55.1504V64.1504H40.8974V55.1504H31.8974ZM25.3984 55.1504H16.3984V64.1504H25.3984V55.1504ZM25.3984 63.0117H31.8974V45.0117H25.3984V63.0117ZM22.8974 54.0117V55.1504H40.8974V54.0117H22.8974ZM31.8974 46.1504H25.3984V64.1504H31.8974V46.1504ZM34.3984 55.1504V54.0117H16.3984V55.1504H34.3984Z" fill="white" mask="url(#path-11-inside-6_677_960)"/>
<mask id="path-13-inside-7_677_960" fill="white">
<path d="M34.1074 54.0117H35.9196V55.1504H34.1074V54.0117Z"/>
</mask>
<path d="M34.1074 54.0117H35.9196V55.1504H34.1074V54.0117Z" fill="white"/>
<path d="M34.1074 54.0117V45.0117H25.1074V54.0117H34.1074ZM35.9196 54.0117H44.9196V45.0117H35.9196V54.0117ZM35.9196 55.1504V64.1504H44.9196V55.1504H35.9196ZM34.1074 55.1504H25.1074V64.1504H34.1074V55.1504ZM34.1074 63.0117H35.9196V45.0117H34.1074V63.0117ZM26.9196 54.0117V55.1504H44.9196V54.0117H26.9196ZM35.9196 46.1504H34.1074V64.1504H35.9196V46.1504ZM43.1074 55.1504V54.0117H25.1074V55.1504H43.1074Z" fill="white" mask="url(#path-13-inside-7_677_960)"/>
<mask id="path-15-inside-8_677_960" fill="white">
<path d="M68.1035 54.0117H74.6024V55.1504H68.1035V54.0117Z"/>
</mask>
<path d="M68.1035 54.0117H74.6024V55.1504H68.1035V54.0117Z" fill="white"/>
<path d="M68.1035 54.0117V45.0117H59.1035V54.0117H68.1035ZM74.6024 54.0117H83.6024V45.0117H74.6024V54.0117ZM74.6024 55.1504V64.1504H83.6024V55.1504H74.6024ZM68.1035 55.1504H59.1035V64.1504H68.1035V55.1504ZM68.1035 63.0117H74.6024V45.0117H68.1035V63.0117ZM65.6024 54.0117V55.1504H83.6024V54.0117H65.6024ZM74.6024 46.1504H68.1035V64.1504H74.6024V46.1504ZM77.1035 55.1504V54.0117H59.1035V55.1504H77.1035Z" fill="white" mask="url(#path-15-inside-8_677_960)"/>
<mask id="path-17-inside-9_677_960" fill="white">
<path d="M64.082 54.0117H65.8942V55.1504H64.082V54.0117Z"/>
</mask>
<path d="M64.082 54.0117H65.8942V55.1504H64.082V54.0117Z" fill="white"/>
<path d="M64.082 54.0117V45.0117H55.082V54.0117H64.082ZM65.8942 54.0117H74.8942V45.0117H65.8942V54.0117ZM65.8942 55.1504V64.1504H74.8942V55.1504H65.8942ZM64.082 55.1504H55.082V64.1504H64.082V55.1504ZM64.082 63.0117H65.8942V45.0117H64.082V63.0117ZM56.8942 54.0117V55.1504H74.8942V54.0117H56.8942ZM65.8942 46.1504H64.082V64.1504H65.8942V46.1504ZM73.082 55.1504V54.0117H55.082V55.1504H73.082Z" fill="white" mask="url(#path-17-inside-9_677_960)"/>
<mask id="path-19-inside-10_677_960" fill="white">
<path d="M27.6738 48.3184H31.8972V49.457H27.6738V48.3184Z"/>
</mask>
<path d="M27.6738 48.3184H31.8972V49.457H27.6738V48.3184Z" fill="white"/>
<path d="M27.6738 48.3184V39.3184H18.6738V48.3184H27.6738ZM31.8972 48.3184H40.8972V39.3184H31.8972V48.3184ZM31.8972 49.457V58.457H40.8972V49.457H31.8972ZM27.6738 49.457H18.6738V58.457H27.6738V49.457ZM27.6738 57.3184H31.8972V39.3184H27.6738V57.3184ZM22.8972 48.3184V49.457H40.8972V48.3184H22.8972ZM31.8972 40.457H27.6738V58.457H31.8972V40.457ZM36.6738 49.457V48.3184H18.6738V49.457H36.6738Z" fill="white" mask="url(#path-19-inside-10_677_960)"/>
<mask id="path-21-inside-11_677_960" fill="white">
<path d="M68.1035 48.3184H72.3269V49.457H68.1035V48.3184Z"/>
</mask>
<path d="M68.1035 48.3184H72.3269V49.457H68.1035V48.3184Z" fill="white"/>
<path d="M68.1035 48.3184V39.3184H59.1035V48.3184H68.1035ZM72.3269 48.3184H81.3269V39.3184H72.3269V48.3184ZM72.3269 49.457V58.457H81.3269V49.457H72.3269ZM68.1035 49.457H59.1035V58.457H68.1035V49.457ZM68.1035 57.3184H72.3269V39.3184H68.1035V57.3184ZM63.3269 48.3184V49.457H81.3269V48.3184H63.3269ZM72.3269 40.457H68.1035V58.457H72.3269V40.457ZM77.1035 49.457V48.3184H59.1035V49.457H77.1035Z" fill="white" mask="url(#path-21-inside-11_677_960)"/>
</g>
<defs>
<clipPath id="clip0_677_960">
<rect width="53.3333" height="53.3333" fill="white" transform="translate(23.334 21.166)"/>
</clipPath>
</defs>
</svg>
