<svg width="100" height="100" viewBox="0 0 100 100" fill="none" xmlns="http://www.w3.org/2000/svg">
<rect width="100" height="100" fill="#259BF1"/>
<g clip-path="url(#clip0_659_350)">
<path d="M83.148 24.0841C78.6011 19.4694 72.5309 16.915 66.0556 16.8908C66.0248 16.8906 65.9945 16.8906 65.9636 16.8906C60.0223 16.8906 54.4112 19.0234 50 22.9306C45.5884 19.0233 39.9781 16.8906 34.0363 16.8906C34.0059 16.8906 33.9749 16.8906 33.9443 16.8908C27.4687 16.9148 21.3985 19.4694 16.8519 24.0841C7.58895 33.4853 7.73645 48.8177 17.181 58.2623L36.4035 77.4848C40.1521 81.2332 45.0762 83.1076 50.0003 83.1076C54.9244 83.1076 59.8483 81.2332 63.597 77.4848L82.8196 58.2623C92.2633 48.8177 92.4108 33.4855 83.148 24.0841ZM80.6433 56.0868L61.4209 75.309C58.3701 78.3598 54.3142 80.0398 49.9998 80.0398C45.6854 80.0398 41.6295 78.3596 38.5787 75.309L19.3562 56.0868C11.1024 47.833 10.9619 34.4452 19.0432 26.2435C23.0102 22.2172 28.3062 19.9883 33.9556 19.9675C33.9824 19.9673 34.009 19.9673 34.0357 19.9673C39.6556 19.9673 44.936 22.1544 48.912 26.1302C49.2006 26.4186 49.5917 26.5808 49.9997 26.5808C50.4076 26.5808 50.7987 26.4186 51.0873 26.1302C55.0634 22.1539 60.3434 19.9673 65.9636 19.9673C65.9902 19.9673 66.0173 19.9673 66.0437 19.9675C71.6933 19.9884 76.9891 22.2172 80.9561 26.2435C89.0377 34.4452 88.8972 47.833 80.6433 56.0868Z" fill="white"/>
<g clip-path="url(#clip1_659_350)">
<path d="M57.5 41.9989C57.5014 41.5924 57.3888 41.1936 57.1751 40.8478C56.9614 40.5019 56.655 40.2229 56.2908 40.0423C56.2771 40.0355 56.2631 40.0291 56.2488 40.0233L53.0024 38.689L52.3861 36.8401L52.688 36.659C53.0112 36.4638 53.2786 36.1887 53.4647 35.8602C53.6507 35.5316 53.7489 35.1607 53.75 34.7832V31.502C53.7491 30.7149 53.4361 29.9603 52.8795 29.4037C52.3229 28.8472 51.5684 28.5341 50.7813 28.5332H49.2188C48.4317 28.5341 47.6771 28.8472 47.1205 29.4037C46.564 29.9603 46.2509 30.7149 46.25 31.502V34.7832C46.2511 35.1607 46.3494 35.5316 46.5354 35.8602C46.7214 36.1887 46.9889 36.4638 47.312 36.659L47.6139 36.8401L46.9976 38.689L43.7512 40.0233C43.737 40.0291 43.7229 40.0355 43.7092 40.0423C43.345 40.2229 43.0386 40.5019 42.8249 40.8478C42.6112 41.1936 42.4986 41.5924 42.5 41.9989V44.1582H43.75V41.9989C43.7494 41.8281 43.7957 41.6605 43.8839 41.5142C43.9721 41.368 44.0987 41.2488 44.25 41.1696L47.3523 39.8945L49.5578 42.1002C49.6159 42.1582 49.6848 42.2042 49.7606 42.2356C49.8364 42.2671 49.9177 42.2832 49.9998 42.2832C50.0819 42.2832 50.1631 42.2671 50.239 42.2356C50.3148 42.2042 50.3837 42.1582 50.4417 42.1002L52.6473 39.8945L55.75 41.1696C55.9013 41.2488 56.028 41.368 56.1161 41.5142C56.2043 41.6605 56.2506 41.8281 56.25 41.9989V54.3145C56.2495 54.7701 56.0682 55.207 55.746 55.5292C55.4238 55.8514 54.9869 56.0327 54.5313 56.0332H54.375V48.5332H53.125V62.2832H54.375V57.2832H54.5313C55.3184 57.2823 56.0729 56.9692 56.6295 56.4127C57.1861 55.8561 57.4991 55.1015 57.5 54.3145V41.9989ZM47.5 31.502C47.5005 31.0463 47.6818 30.6094 48.004 30.2872C48.3262 29.965 48.7631 29.7837 49.2188 29.7832H50.7813C51.2369 29.7837 51.6738 29.965 51.996 30.2872C52.3182 30.6094 52.4995 31.0463 52.5 31.502V34.7832C52.4996 34.945 52.4575 35.104 52.3777 35.2448C52.298 35.3856 52.1834 35.5035 52.0449 35.5871L50.4824 36.5246C50.3367 36.6122 50.17 36.6585 50 36.6585C49.8301 36.6585 49.6633 36.6122 49.5177 36.5246L47.9552 35.5871C47.8167 35.5035 47.702 35.3856 47.6223 35.2448C47.5426 35.104 47.5005 34.945 47.5 34.7832V31.502ZM50 40.7744L48.2151 38.9894L48.712 37.4989L48.8745 37.5965C49.2144 37.8008 49.6035 37.9088 50 37.9088C50.3966 37.9088 50.7856 37.8008 51.1255 37.5965L51.2881 37.4989L51.7849 38.9894L50 40.7744Z" fill="white"/>
<path d="M45.625 56.0332H45.4688C45.0131 56.0327 44.5762 55.8514 44.254 55.5292C43.9318 55.207 43.7505 54.7701 43.75 54.3145V45.4082H42.5V54.3145C42.5009 55.1015 42.814 55.8561 43.3705 56.4127C43.9271 56.9692 44.6817 57.2823 45.4688 57.2832H45.625V68.5332H46.875V48.5332H45.625V56.0332Z" fill="white"/>
<path d="M54.375 63.5332H53.125V68.5332H54.375V63.5332Z" fill="white"/>
<path d="M50.625 54.7832H49.375V68.5332H50.625V54.7832Z" fill="white"/>
<path d="M33.7497 52.2832C34.6356 52.2821 35.4926 51.9678 36.1693 51.396C36.8459 50.8242 37.2987 50.0315 37.4476 49.1582H41.2497V47.9082H37.4476C37.3284 47.2033 37.0102 46.5471 36.5305 46.017C36.0507 45.4869 35.4295 45.1049 34.7399 44.9162C34.0503 44.7275 33.3211 44.7398 32.6383 44.9518C31.9555 45.1637 31.3475 45.5664 30.886 46.1125C30.4245 46.6585 30.1287 47.3251 30.0334 48.0336C29.9382 48.7422 30.0475 49.4633 30.3484 50.1118C30.6494 50.7603 31.1295 51.3093 31.7321 51.694C32.3347 52.0787 33.0347 52.2831 33.7497 52.2832ZM33.7497 46.0332C34.2441 46.0332 34.7275 46.1798 35.1386 46.4545C35.5497 46.7292 35.8701 47.1197 36.0594 47.5765C36.2486 48.0333 36.2981 48.536 36.2016 49.0209C36.1052 49.5059 35.8671 49.9513 35.5174 50.301C35.1678 50.6506 34.7223 50.8887 34.2374 50.9852C33.7524 51.0816 33.2498 51.0321 32.793 50.8429C32.3361 50.6537 31.9457 50.3333 31.671 49.9221C31.3963 49.511 31.2497 49.0277 31.2497 48.5332C31.2504 47.8704 31.514 47.2349 31.9827 46.7663C32.4514 46.2976 33.0868 46.0339 33.7497 46.0332Z" fill="white"/>
<path d="M66.25 44.7832C65.3641 44.7843 64.5071 45.0986 63.8304 45.6704C63.1537 46.2423 62.701 47.0349 62.5521 47.9082H58.75V49.1582H62.5521C62.6713 49.8631 62.9895 50.5193 63.4692 51.0494C63.9489 51.5796 64.5702 51.9615 65.2598 52.1502C65.9494 52.3389 66.6785 52.3266 67.3613 52.1146C68.0441 51.9027 68.6521 51.5 69.1137 50.9539C69.5752 50.4079 69.871 49.7413 69.9662 49.0328C70.0615 48.3242 69.9522 47.6032 69.6512 46.9546C69.3503 46.3061 68.8702 45.7572 68.2676 45.3724C67.665 44.9877 66.9649 44.7833 66.25 44.7832ZM66.25 51.0332C65.7555 51.0332 65.2722 50.8866 64.8611 50.6119C64.45 50.3372 64.1295 49.9467 63.9403 49.4899C63.7511 49.0331 63.7016 48.5304 63.798 48.0455C63.8945 47.5605 64.1326 47.1151 64.4822 46.7654C64.8319 46.4158 65.2773 46.1777 65.7623 46.0812C66.2472 45.9848 66.7499 46.0343 67.2067 46.2235C67.6635 46.4127 68.054 46.7332 68.3287 47.1443C68.6034 47.5554 68.75 48.0387 68.75 48.5332C68.7493 49.196 68.4856 49.8315 68.0169 50.3001C67.5483 50.7688 66.9128 51.0325 66.25 51.0332Z" fill="white"/>
<path d="M36.25 41.033C37.3852 41.0344 38.4991 40.7247 39.4707 40.1376L40.8081 41.4749L41.692 40.591L40.4806 39.3796C41.5514 38.3926 42.2439 37.0626 42.4381 35.6192C42.6323 34.1759 42.3162 32.7101 41.5444 31.4751C40.7725 30.2402 39.5934 29.3137 38.211 28.8558C36.8285 28.398 35.3295 28.4375 33.973 28.9676C32.6166 29.4977 31.488 30.4851 30.7824 31.759C30.0767 33.033 29.8383 34.5134 30.1084 35.9445C30.3784 37.3756 31.14 38.6673 32.2614 39.5964C33.3829 40.5256 34.7937 41.0337 36.25 41.033ZM36.25 29.783C37.2389 29.783 38.2056 30.0762 39.0279 30.6256C39.8501 31.175 40.491 31.9559 40.8694 32.8696C41.2478 33.7832 41.3469 34.7885 41.1539 35.7584C40.961 36.7283 40.4848 37.6192 39.7855 38.3185C39.0863 39.0178 38.1954 39.494 37.2255 39.6869C36.2556 39.8798 35.2502 39.7808 34.3366 39.4024C33.423 39.0239 32.6421 38.3831 32.0927 37.5608C31.5433 36.7386 31.25 35.7719 31.25 34.783C31.2515 33.4573 31.7788 32.1864 32.7161 31.2491C33.6535 30.3117 34.9244 29.7845 36.25 29.783Z" fill="white"/>
<path d="M35.7969 38.3383C35.8553 38.3999 35.9256 38.4489 36.0036 38.4824C36.0815 38.5159 36.1655 38.5332 36.2504 38.5332C36.3352 38.5332 36.4192 38.5159 36.4972 38.4824C36.5752 38.4489 36.6455 38.3999 36.7039 38.3383L39.3712 35.5258C39.7734 35.092 39.9968 34.5223 39.9968 33.9307C39.9968 33.3392 39.7734 32.7695 39.3712 32.3357C39.1718 32.1219 38.9306 31.9515 38.6625 31.8349C38.3944 31.7183 38.1052 31.6582 37.8129 31.6582C37.5205 31.6582 37.2313 31.7183 36.9632 31.8349C36.6952 31.9515 36.4539 32.1219 36.2545 32.3357L36.2504 32.3401L36.2462 32.3357C36.0468 32.1219 35.8056 31.9515 35.5375 31.8349C35.2694 31.7184 34.9802 31.6582 34.6879 31.6582C34.3955 31.6582 34.1063 31.7184 33.8383 31.8349C33.5702 31.9515 33.3289 32.1219 33.1295 32.3357C32.7274 32.7695 32.5039 33.3392 32.5039 33.9308C32.5039 34.5223 32.7274 35.092 33.1295 35.5258L35.7969 38.3383ZM34.0365 33.1958C34.1191 33.1052 34.2197 33.0328 34.3318 32.9833C34.444 32.9338 34.5653 32.9082 34.6879 32.9082C34.8105 32.9082 34.9318 32.9338 35.0439 32.9833C35.1561 33.0328 35.2567 33.1052 35.3393 33.1958L35.7969 33.6783C35.8553 33.7399 35.9256 33.789 36.0036 33.8225C36.0815 33.856 36.1655 33.8733 36.2504 33.8733C36.3352 33.8733 36.4192 33.856 36.4972 33.8225C36.5752 33.789 36.6455 33.7399 36.7039 33.6783L37.1615 33.1958C37.2441 33.1052 37.3447 33.0328 37.4568 32.9833C37.569 32.9338 37.6903 32.9082 37.8129 32.9082C37.9355 32.9082 38.0568 32.9338 38.1689 32.9833C38.2811 33.0328 38.3817 33.1052 38.4643 33.1958C38.6495 33.3957 38.7525 33.6582 38.7525 33.9307C38.7525 34.2033 38.6495 34.4657 38.4643 34.6656L36.2504 37L34.0365 34.666C33.8511 34.4661 33.7481 34.2036 33.7481 33.9309C33.7481 33.6583 33.8511 33.3957 34.0365 33.1958Z" fill="white"/>
<path d="M63.7498 56.0338C62.6146 56.0323 61.5007 56.342 60.5291 56.9291L59.1917 55.5918L58.3078 56.4757L59.5192 57.6871C58.4483 58.6741 57.7559 60.0042 57.5617 61.4475C57.3674 62.8908 57.6836 64.3566 58.4554 65.5916C59.2273 66.8265 60.4063 67.753 61.7888 68.2109C63.1713 68.6688 64.6703 68.6292 66.0267 68.0991C67.3832 67.569 68.5117 66.5816 69.2174 65.3077C69.9231 64.0338 70.1615 62.5533 69.8914 61.1222C69.6214 59.6912 68.8598 58.3994 67.7383 57.4703C66.6169 56.5412 65.2061 56.033 63.7498 56.0338ZM63.7498 67.2838C62.7609 67.2838 61.7942 66.9905 60.9719 66.4411C60.1497 65.8917 59.5088 65.1108 59.1304 64.1972C58.7519 63.2835 58.6529 62.2782 58.8458 61.3083C59.0388 60.3384 59.515 59.4475 60.2142 58.7482C60.9135 58.049 61.8044 57.5728 62.7743 57.3798C63.7442 57.1869 64.7496 57.2859 65.6632 57.6644C66.5768 58.0428 67.3577 58.6837 67.9071 59.5059C68.4565 60.3281 68.7498 61.2948 68.7498 62.2838C68.7483 63.6094 68.221 64.8803 67.2837 65.8176C66.3463 66.755 65.0754 67.2823 63.7498 67.2838Z" fill="white"/>
<path d="M64.875 59.4082C64.8041 59.3137 64.7079 59.2412 64.5975 59.1992C64.4871 59.1571 64.3671 59.1472 64.2513 59.1706C64.1355 59.194 64.0287 59.2497 63.9433 59.3313C63.8579 59.4129 63.7973 59.517 63.7687 59.6316L63.125 62.2062L63.1063 62.1316C63.0725 61.9964 62.9945 61.8764 62.8846 61.7906C62.7748 61.7048 62.6394 61.6582 62.5 61.6582H60V62.9082H62.012L62.5187 64.9347C62.5525 65.07 62.6305 65.19 62.7404 65.2758C62.8502 65.3615 62.9856 65.4081 63.125 65.4081C63.2644 65.4081 63.3998 65.3615 63.5096 65.2758C63.6195 65.19 63.6975 65.07 63.7313 64.9347L64.6629 61.2087L65.75 62.6582C65.8082 62.7358 65.8837 62.7988 65.9705 62.8422C66.0573 62.8856 66.153 62.9082 66.25 62.9082H67.5V61.6582H66.5625L64.875 59.4082Z" fill="white"/>
<path d="M40.4805 57.6871L41.6919 56.4757L40.808 55.5918L39.4707 56.9291C38.0942 56.0986 36.4512 55.8288 34.8814 56.1754C33.3116 56.5219 31.935 57.4585 31.0361 58.7913C30.1373 60.1241 29.7849 61.7514 30.0519 63.3367C30.3189 64.922 31.1848 66.3441 32.4706 67.309C33.7565 68.2739 35.3639 68.7079 36.9606 68.5212C38.5574 68.3345 40.0213 67.5414 41.0498 66.3058C42.0784 65.0703 42.5928 63.4868 42.4869 61.8827C42.3809 60.2786 41.6626 58.7765 40.4805 57.687V57.6871ZM36.25 67.2838C35.2611 67.2838 34.2944 66.9905 33.4721 66.4411C32.6499 65.8917 32.009 65.1108 31.6306 64.1972C31.2521 63.2835 31.1531 62.2782 31.346 61.3083C31.539 60.3384 32.0152 59.4475 32.7144 58.7482C33.4137 58.049 34.3046 57.5728 35.2745 57.3798C36.2444 57.1869 37.2498 57.2859 38.1634 57.6644C39.077 58.0428 39.8579 58.6837 40.4073 59.5059C40.9567 60.3281 41.25 61.2948 41.25 62.2838C41.2485 63.6094 40.7212 64.8803 39.7839 65.8176C38.8465 66.755 37.5756 67.2823 36.25 67.2838Z" fill="white"/>
<path d="M36.6797 58.7046C36.5636 58.5945 36.4097 58.5332 36.2498 58.5332C36.0898 58.5332 35.9359 58.5945 35.8198 58.7046C35.37 59.1311 33.125 61.3379 33.125 62.9082C33.125 63.737 33.4542 64.5319 34.0403 65.1179C34.6263 65.704 35.4212 66.0332 36.25 66.0332C37.0788 66.0332 37.8737 65.704 38.4597 65.1179C39.0458 64.5319 39.375 63.737 39.375 62.9082C39.375 61.3379 37.13 59.1311 36.6797 58.7046ZM36.25 64.7832C35.7529 64.7827 35.2763 64.585 34.9248 64.2334C34.5733 63.8819 34.3756 63.4053 34.375 62.9082C34.375 62.2527 35.3646 60.9671 36.25 60.041C37.1354 60.9671 38.125 62.2526 38.125 62.9082C38.1244 63.4053 37.9267 63.8819 37.5752 64.2334C37.2237 64.585 36.7471 64.7827 36.25 64.7832Z" fill="white"/>
<path d="M59.52 39.3804L58.3086 40.5918L59.1925 41.4757L60.5298 40.1384C61.9063 40.9689 63.5493 41.2387 65.1191 40.8922C66.6889 40.5456 68.0655 39.6091 68.9644 38.2762C69.8632 36.9434 70.2156 35.3161 69.9486 33.7308C69.6816 32.1455 68.8157 30.7234 67.5299 29.7585C66.244 28.7936 64.6366 28.3596 63.0399 28.5463C61.4431 28.733 59.9792 29.5261 58.9507 30.7617C57.9221 31.9972 57.4077 33.5807 57.5136 35.1849C57.6196 36.789 58.3379 38.291 59.52 39.3806V39.3804ZM63.7505 29.7838C64.7394 29.7838 65.7061 30.077 66.5284 30.6264C67.3506 31.1758 67.9915 31.9567 68.3699 32.8704C68.7484 33.784 68.8474 34.7893 68.6545 35.7592C68.4615 36.7291 67.9853 37.62 67.2861 38.3193C66.5868 39.0186 65.6959 39.4948 64.726 39.6877C63.7561 39.8806 62.7507 39.7816 61.8371 39.4032C60.9235 39.0247 60.1426 38.3839 59.5932 37.5616C59.0438 36.7394 58.7505 35.7727 58.7505 34.7838C58.752 33.4581 59.2793 32.1872 60.2166 31.2499C61.154 30.3125 62.4249 29.7853 63.7505 29.7838Z" fill="white"/>
<path d="M60.8145 37.1995L61.9668 36.5341C62.2847 36.8585 62.6849 37.0901 63.1245 37.2041V38.5332H64.3745V37.2041C64.8141 37.0901 65.2144 36.8585 65.5323 36.5341L66.6846 37.1995L67.3096 36.117L66.1585 35.4523C66.2799 35.0145 66.2799 34.5519 66.1585 34.1141L67.3096 33.4495L66.6846 32.367L65.5323 33.0323C65.2144 32.7079 64.8141 32.4763 64.3745 32.3623V31.0332H63.1245V32.3623C62.6849 32.4763 62.2847 32.7079 61.9668 33.0323L60.8145 32.367L60.1895 33.4495L61.3405 34.1141C61.2192 34.5519 61.2192 35.0145 61.3405 35.4523L60.1895 36.117L60.8145 37.1995ZM63.7495 33.5332C63.9968 33.5332 64.2384 33.6065 64.444 33.7439C64.6496 33.8812 64.8098 34.0764 64.9044 34.3048C64.999 34.5333 65.0237 34.7846 64.9755 35.0271C64.9273 35.2695 64.8082 35.4923 64.6334 35.6671C64.4586 35.8419 64.2359 35.961 63.9934 36.0092C63.7509 36.0574 63.4996 36.0327 63.2712 35.9381C63.0428 35.8434 62.8475 35.6832 62.7102 35.4777C62.5728 35.2721 62.4995 35.0304 62.4995 34.7832C62.4999 34.4518 62.6317 34.1341 62.8661 33.8998C63.1004 33.6654 63.4181 33.5336 63.7495 33.5332Z" fill="white"/>
</g>
</g>
<defs>
<clipPath id="clip0_659_350">
<rect width="80" height="80" fill="white" transform="translate(10 10)"/>
</clipPath>
<clipPath id="clip1_659_350">
<rect width="40" height="40" fill="white" transform="translate(30 28.5332)"/>
</clipPath>
</defs>
</svg>
