<svg width="100" height="100" viewBox="0 0 100 100" fill="none" xmlns="http://www.w3.org/2000/svg">
<path d="M91.435 17.607C85.7514 11.8387 78.1637 8.6457 70.0695 8.61543C70.0311 8.61523 69.9932 8.61523 69.9545 8.61523C62.5279 8.61523 55.514 11.2813 50 16.1652C44.4855 11.2811 37.4726 8.61523 30.0454 8.61523C30.0073 8.61523 29.9687 8.61523 29.9304 8.61543C21.8358 8.64551 14.2481 11.8387 8.56492 17.607C-3.01382 29.3586 -2.82944 48.5241 8.97624 60.3298L33.0044 84.358C37.6902 89.0435 43.8453 91.3865 50.0004 91.3865C56.1554 91.3865 62.3103 89.0435 66.9963 84.358L91.0245 60.3298C102.829 48.5241 103.014 29.3588 91.435 17.607ZM88.3041 57.6104L64.2762 81.6382C60.4627 85.4517 55.3927 87.5517 49.9998 87.5517C44.6068 87.5517 39.5369 85.4515 35.7234 81.6382L11.6952 57.6104C1.37799 47.2932 1.2024 30.5584 11.304 20.3063C16.2628 15.2735 22.8827 12.4873 29.9445 12.4613C29.978 12.4611 30.0112 12.4611 30.0446 12.4611C37.0695 12.4611 43.6701 15.1949 48.64 20.1647C49.0007 20.5252 49.4896 20.728 49.9996 20.728C50.5095 20.728 50.9984 20.5252 51.3591 20.1647C56.3293 15.1943 62.9293 12.4611 69.9545 12.4611C69.9877 12.4611 70.0217 12.4611 70.0547 12.4613C77.1166 12.4875 83.7364 15.2735 88.6952 20.3063C98.7971 30.5584 98.6215 47.2932 88.3041 57.6104Z" fill="white"/>
<g clip-path="url(#clip0_677_1026)">
<path d="M59.375 39.9981C59.3767 39.49 59.236 38.9915 58.9689 38.5592C58.7017 38.1269 58.3188 37.7782 57.8635 37.5524C57.8464 37.5438 57.8288 37.5358 57.811 37.5286L53.753 35.8607L52.9826 33.5496L53.36 33.3232C53.764 33.0793 54.0983 32.7354 54.3308 32.3247C54.5633 31.9141 54.6862 31.4504 54.6875 30.9785V26.877C54.6864 25.8931 54.2951 24.9498 53.5994 24.2542C52.9037 23.5585 51.9604 23.1671 50.9766 23.166H49.0235C48.0396 23.1671 47.0963 23.5585 46.4007 24.2542C45.705 24.9498 45.3136 25.8931 45.3125 26.877V30.9785C45.3138 31.4504 45.4367 31.9141 45.6692 32.3247C45.9017 32.7354 46.2361 33.0793 46.6401 33.3232L47.0174 33.5496L46.247 35.8607L42.189 37.5286C42.1712 37.5358 42.1536 37.5438 42.1365 37.5524C41.6812 37.7782 41.2983 38.1269 41.0311 38.5592C40.764 38.9915 40.6233 39.49 40.625 39.9981V42.6973H42.1875V39.9981C42.1868 39.7847 42.2446 39.5751 42.3549 39.3923C42.4651 39.2095 42.6234 39.0605 42.8125 38.9615L46.6903 37.3677L49.4473 40.1247C49.5198 40.1973 49.606 40.2548 49.7007 40.2941C49.7955 40.3333 49.8971 40.3535 49.9997 40.3535C50.1023 40.3535 50.2039 40.3333 50.2987 40.2941C50.3935 40.2548 50.4796 40.1973 50.5522 40.1247L53.3091 37.3677L57.1875 38.9615C57.3766 39.0605 57.5349 39.2095 57.6452 39.3923C57.7554 39.5751 57.8133 39.7847 57.8125 39.9981V55.3926C57.8119 55.9622 57.5853 56.5083 57.1825 56.911C56.7798 57.3138 56.2337 57.5404 55.6641 57.541H55.4688V48.166H53.9063V65.3535H55.4688V59.1035H55.6641C56.6479 59.1024 57.5912 58.7111 58.2869 58.0154C58.9826 57.3197 59.3739 56.3764 59.375 55.3926V39.9981ZM46.875 26.877C46.8757 26.3074 47.1022 25.7613 47.505 25.3585C47.9078 24.9557 48.4538 24.7292 49.0235 24.7285H50.9766C51.5462 24.7292 52.0923 24.9557 52.495 25.3585C52.8978 25.7613 53.1244 26.3074 53.125 26.877V30.9785C53.1245 31.1808 53.0718 31.3795 52.9722 31.5555C52.8725 31.7315 52.7292 31.8789 52.5561 31.9834L50.6029 33.1553C50.4209 33.2648 50.2125 33.3226 50 33.3226C49.7876 33.3226 49.5791 33.2648 49.3971 33.1553L47.444 31.9834C47.2708 31.8789 47.1275 31.7315 47.0279 31.5555C46.9282 31.3795 46.8756 31.1808 46.875 30.9785V26.877ZM50 38.4675L47.7689 36.2362L48.39 34.3731L48.5932 34.4951C49.018 34.7506 49.5043 34.8855 50 34.8855C50.4957 34.8855 50.982 34.7506 51.4069 34.4951L51.6101 34.3731L52.2312 36.2362L50 38.4675Z" fill="white"/>
<path d="M44.5312 57.541H44.3359C43.7663 57.5404 43.2202 57.3138 42.8175 56.911C42.4147 56.5083 42.1881 55.9622 42.1875 55.3926V44.2598H40.625V55.3926C40.6261 56.3764 41.0174 57.3197 41.7131 58.0154C42.4088 58.7111 43.3521 59.1024 44.3359 59.1035H44.5312V73.166H46.0938V48.166H44.5312V57.541Z" fill="white"/>
<path d="M55.4688 66.916H53.9062V73.166H55.4688V66.916Z" fill="white"/>
<path d="M50.7812 55.9785H49.2188V73.166H50.7812V55.9785Z" fill="white"/>
<path d="M29.689 52.8535C30.7964 52.8521 31.8677 52.4593 32.7135 51.7445C33.5594 51.0297 34.1253 50.0389 34.3114 48.9473H39.064V47.3848H34.3114C34.1624 46.5036 33.7647 45.6833 33.165 45.0207C32.5654 44.3581 31.7888 43.8807 30.9268 43.6448C30.0648 43.4089 29.1534 43.4243 28.2999 43.6892C27.4463 43.9542 26.6864 44.4575 26.1095 45.1401C25.5326 45.8226 25.1628 46.6558 25.0437 47.5416C24.9247 48.4273 25.0613 49.3286 25.4375 50.1392C25.8137 50.9499 26.4138 51.6361 27.167 52.117C27.9203 52.5979 28.7953 52.8534 29.689 52.8535ZM29.689 45.041C30.3071 45.041 30.9113 45.2243 31.4252 45.5677C31.9391 45.9111 32.3396 46.3991 32.5762 46.9701C32.8127 47.5411 32.8746 48.1695 32.754 48.7757C32.6334 49.3819 32.3358 49.9387 31.8987 50.3757C31.4617 50.8128 30.9049 51.1104 30.2987 51.231C29.6925 51.3515 29.0642 51.2897 28.4931 51.0531C27.9221 50.8166 27.4341 50.4161 27.0907 49.9022C26.7473 49.3883 26.564 48.7841 26.564 48.166C26.565 47.3375 26.8945 46.5432 27.4803 45.9573C28.0662 45.3715 28.8605 45.0419 29.689 45.041Z" fill="white"/>
<path d="M70.3125 43.4785C69.2051 43.4799 68.1338 43.8727 67.288 44.5875C66.4422 45.3023 65.8762 46.2931 65.6901 47.3848H60.9375V48.9473H65.6901C65.8391 49.8284 66.2368 50.6487 66.8365 51.3113C67.4361 51.9739 68.2127 52.4513 69.0747 52.6873C69.9367 52.9232 70.8482 52.9077 71.7017 52.6428C72.5552 52.3779 73.3152 51.8745 73.8921 51.1919C74.469 50.5094 74.8387 49.6762 74.9578 48.7905C75.0768 47.9047 74.9402 47.0035 74.564 46.1928C74.1878 45.3822 73.5877 44.696 72.8345 44.2151C72.0812 43.7341 71.2062 43.4786 70.3125 43.4785ZM70.3125 51.291C69.6944 51.291 69.0902 51.1077 68.5763 50.7644C68.0624 50.421 67.6619 49.9329 67.4254 49.3619C67.1889 48.7909 67.127 48.1625 67.2475 47.5564C67.3681 46.9502 67.6658 46.3933 68.1028 45.9563C68.5398 45.5193 69.0967 45.2216 69.7028 45.1011C70.309 44.9805 70.9374 45.0424 71.5084 45.2789C72.0794 45.5154 72.5675 45.916 72.9108 46.4299C73.2542 46.9438 73.4375 47.5479 73.4375 48.166C73.4366 48.9945 73.107 49.7888 72.5212 50.3747C71.9353 50.9605 71.141 51.2901 70.3125 51.291Z" fill="white"/>
<path d="M32.8125 38.7912C34.2315 38.793 35.6239 38.4059 36.8384 37.672L38.5101 39.3437L39.615 38.2388L38.1007 36.7245C39.4393 35.4908 40.3048 33.8282 40.5476 32.024C40.7904 30.2199 40.3953 28.3876 39.4305 26.8439C38.4656 25.3002 36.9918 24.1421 35.2637 23.5698C33.5356 22.9975 31.6618 23.0469 29.9663 23.7095C28.2708 24.3722 26.8601 25.6064 25.978 27.1988C25.0959 28.7912 24.7979 30.6418 25.1355 32.4306C25.473 34.2194 26.425 35.8341 27.8268 36.9955C29.2286 38.1569 30.9921 38.7921 32.8125 38.7912ZM32.8125 24.7287C34.0486 24.7287 35.257 25.0953 36.2848 25.782C37.3126 26.4688 38.1137 27.4449 38.5868 28.5869C39.0598 29.729 39.1836 30.9856 38.9424 32.198C38.7013 33.4104 38.106 34.5241 37.2319 35.3981C36.3579 36.2722 35.2442 36.8675 34.0318 37.1086C32.8194 37.3498 31.5628 37.226 30.4207 36.753C29.2787 36.2799 28.3026 35.4788 27.6158 34.451C26.9291 33.4232 26.5625 32.2148 26.5625 30.9787C26.5644 29.3217 27.2235 27.733 28.3952 26.5613C29.5669 25.3896 31.1555 24.7306 32.8125 24.7287Z" fill="white"/>
<path d="M32.247 35.4223C32.32 35.4993 32.408 35.5606 32.5054 35.6025C32.6029 35.6444 32.7079 35.666 32.8139 35.666C32.92 35.666 33.025 35.6444 33.1225 35.6025C33.2199 35.5606 33.3078 35.4993 33.3808 35.4223L36.715 31.9067C37.2177 31.3645 37.497 30.6523 37.497 29.9129C37.497 29.1735 37.2177 28.4614 36.715 27.9191C36.4658 27.6519 36.1642 27.4388 35.8291 27.2931C35.494 27.1474 35.1325 27.0723 34.7671 27.0723C34.4017 27.0723 34.0401 27.1474 33.705 27.2931C33.3699 27.4388 33.0684 27.6519 32.8191 27.9191L32.8139 27.9246L32.8088 27.9191C32.5595 27.6519 32.258 27.4389 31.9228 27.2932C31.5877 27.1475 31.2262 27.0723 30.8608 27.0723C30.4954 27.0723 30.1339 27.1475 29.7988 27.2932C29.4637 27.4389 29.1621 27.6519 28.9129 27.9191C28.4102 28.4614 28.1309 29.1735 28.1309 29.913C28.1309 30.6524 28.4102 31.3645 28.9129 31.9068L32.247 35.4223ZM30.0466 28.9943C30.1498 28.881 30.2756 28.7906 30.4158 28.7286C30.556 28.6667 30.7075 28.6348 30.8608 28.6348C31.0141 28.6348 31.1657 28.6667 31.3059 28.7286C31.4461 28.7906 31.5718 28.881 31.6751 28.9943L32.247 29.5974C32.32 29.6744 32.408 29.7357 32.5054 29.7776C32.6029 29.8195 32.7079 29.8411 32.8139 29.8411C32.92 29.8411 33.025 29.8195 33.1225 29.7776C33.2199 29.7357 33.3078 29.6744 33.3808 29.5974L33.9528 28.9943C34.0561 28.881 34.1818 28.7906 34.322 28.7286C34.4622 28.6667 34.6138 28.6348 34.7671 28.6348C34.9203 28.6348 35.0719 28.6667 35.2121 28.7286C35.3523 28.7906 35.4781 28.881 35.5813 28.9943C35.8129 29.2442 35.9416 29.5723 35.9416 29.9129C35.9416 30.2536 35.8129 30.5817 35.5813 30.8315L32.8139 33.7495L30.0466 30.832C29.8148 30.5821 29.6861 30.2539 29.6861 29.9132C29.6861 29.5724 29.8148 29.2442 30.0466 28.9943Z" fill="white"/>
<path d="M67.1877 57.5407C65.7687 57.539 64.3763 57.9261 63.1618 58.66L61.4902 56.9883L60.3853 58.0932L61.8995 59.6074C60.5609 60.8411 59.6954 62.5037 59.4526 64.3079C59.2098 66.112 59.6049 67.9443 60.5698 69.488C61.5346 71.0317 63.0084 72.1898 64.7365 72.7622C66.4646 73.3345 68.3384 73.285 70.0339 72.6224C71.7294 71.9598 73.1402 70.7256 74.0223 69.1332C74.9043 67.5407 75.2024 65.6902 74.8648 63.9013C74.5272 62.1125 73.5752 60.4978 72.1734 59.3364C70.7716 58.175 69.0081 57.5398 67.1877 57.5407ZM67.1877 71.6032C65.9516 71.6032 64.7432 71.2367 63.7154 70.5499C62.6876 69.8631 61.8865 68.887 61.4135 67.745C60.9404 66.603 60.8166 65.3463 61.0578 64.1339C61.299 62.9215 61.8942 61.8079 62.7683 60.9338C63.6424 60.0597 64.756 59.4645 65.9684 59.2233C67.1808 58.9822 68.4374 59.1059 69.5795 59.579C70.7215 60.052 71.6976 60.8531 72.3844 61.8809C73.0712 62.9087 73.4377 64.1171 73.4377 65.3532C73.4358 67.0103 72.7768 68.5989 71.6051 69.7706C70.4334 70.9423 68.8447 71.6014 67.1877 71.6032Z" fill="white"/>
<path d="M68.5937 61.7597C68.5051 61.6416 68.3849 61.551 68.2469 61.4985C68.1089 61.4459 67.9588 61.4335 67.8141 61.4627C67.6694 61.492 67.5359 61.5616 67.4291 61.6636C67.3223 61.7656 67.2467 61.8958 67.2108 62.039L66.4062 65.2573L66.3829 65.164C66.3407 64.995 66.2431 64.845 66.1058 64.7377C65.9685 64.6305 65.7992 64.5722 65.625 64.5722H62.5V66.1347H65.015L65.6483 68.6679C65.6906 68.837 65.7882 68.987 65.9255 69.0942C66.0628 69.2014 66.232 69.2597 66.4062 69.2597C66.5805 69.2597 66.7497 69.2014 66.887 69.0942C67.0243 68.987 67.1219 68.837 67.1642 68.6679L68.3286 64.0103L69.6875 65.8222C69.7603 65.9193 69.8546 65.998 69.9631 66.0523C70.0716 66.1065 70.1912 66.1347 70.3125 66.1347H71.875V64.5722H70.7031L68.5937 61.7597Z" fill="white"/>
<path d="M38.1016 59.6074L39.6159 58.0932L38.511 56.9883L36.8393 58.66C35.1187 57.6218 33.065 57.2845 31.1028 57.7177C29.1405 58.151 27.4197 59.3216 26.2961 60.9877C25.1726 62.6537 24.7321 64.6878 25.0659 66.6694C25.3996 68.651 26.482 70.4286 28.0893 71.6348C29.6965 72.8409 31.7058 73.3834 33.7018 73.15C35.6977 72.9166 37.5276 71.9253 38.8133 70.3808C40.0989 68.8364 40.742 66.857 40.6096 64.8519C40.4771 62.8467 39.5793 60.9691 38.1016 59.6072V59.6074ZM32.8134 71.6032C31.5773 71.6032 30.3689 71.2367 29.3411 70.5499C28.3133 69.8632 27.5122 68.887 27.0392 67.745C26.5662 66.603 26.4424 65.3463 26.6835 64.1339C26.9247 62.9215 27.52 61.8079 28.394 60.9338C29.2681 60.0597 30.3818 59.4645 31.5941 59.2233C32.8065 58.9822 34.0632 59.1059 35.2052 59.579C36.3473 60.052 37.3234 60.8531 38.0101 61.8809C38.6969 62.9087 39.0634 64.1171 39.0634 65.3532C39.0616 67.0103 38.4025 68.5989 37.2308 69.7706C36.0591 70.9423 34.4705 71.6014 32.8134 71.6032Z" fill="white"/>
<path d="M33.3496 60.8802C33.2045 60.7427 33.0122 60.666 32.8122 60.666C32.6123 60.666 32.4199 60.7427 32.2748 60.8802C31.7125 61.4134 28.9062 64.1719 28.9062 66.1348C28.9062 67.1708 29.3178 68.1644 30.0504 68.8969C30.7829 69.6295 31.7765 70.0411 32.8125 70.0411C33.8485 70.0411 34.8421 69.6295 35.5746 68.8969C36.3072 68.1644 36.7188 67.1708 36.7188 66.1348C36.7188 64.1719 33.9125 61.4134 33.3496 60.8802ZM32.8125 68.4786C32.1911 68.4779 31.5954 68.2307 31.156 67.7913C30.7166 67.3519 30.4694 66.7562 30.4688 66.1348C30.4688 65.3154 31.7058 63.7084 32.8125 62.5508C33.9192 63.7083 35.1562 65.3153 35.1562 66.1348C35.1556 66.7562 34.9084 67.3519 34.469 67.7913C34.0296 68.2307 33.4339 68.4779 32.8125 68.4786Z" fill="white"/>
<path d="M61.9 36.7245L60.3857 38.2388L61.4906 39.3437L63.1623 37.672C64.8829 38.7101 66.9366 39.0475 68.8988 38.6142C70.8611 38.181 72.5819 37.0104 73.7055 35.3443C74.829 33.6782 75.2695 31.6442 74.9357 29.6625C74.602 27.6809 73.5196 25.9033 71.9123 24.6972C70.3051 23.491 68.2958 22.9486 66.2999 23.1819C64.3039 23.4153 62.474 24.4067 61.1883 25.9511C59.9027 27.4956 59.2596 29.4749 59.392 31.4801C59.5245 33.4852 60.4223 35.3628 61.9 36.7247V36.7245ZM67.1882 24.7287C68.4243 24.7287 69.6327 25.0953 70.6605 25.782C71.6883 26.4688 72.4894 27.4449 72.9624 28.587C73.4355 29.729 73.5592 30.9857 73.3181 32.198C73.0769 33.4104 72.4817 34.5241 71.6076 35.3982C70.7335 36.2722 69.6199 36.8675 68.4075 37.1086C67.1951 37.3498 65.9384 37.226 64.7964 36.753C63.6543 36.2799 62.6782 35.4789 61.9915 34.451C61.3047 33.4232 60.9382 32.2149 60.9382 30.9787C60.94 29.3217 61.5991 27.7331 62.7708 26.5614C63.9425 25.3897 65.5311 24.7306 67.1882 24.7287Z" fill="white"/>
<path d="M63.5195 33.9988L64.96 33.1672C65.3573 33.5726 65.8576 33.8621 66.4071 34.0047V35.666H67.9696V34.0047C68.5191 33.8621 69.0194 33.5726 69.4168 33.1672L70.8572 33.9988L71.6385 32.6457L70.1996 31.8149C70.3513 31.2676 70.3513 30.6894 70.1996 30.1421L71.6385 29.3113L70.8572 27.9582L69.4168 28.7898C69.0194 28.3844 68.5191 28.0949 67.9696 27.9523V26.291H66.4071V27.9523C65.8576 28.0949 65.3573 28.3844 64.96 28.7898L63.5195 27.9582L62.7383 29.3113L64.1771 30.1421C64.0255 30.6894 64.0255 31.2676 64.1771 31.8149L62.7383 32.6457L63.5195 33.9988ZM67.1884 29.416C67.4974 29.416 67.7995 29.5077 68.0565 29.6793C68.3134 29.851 68.5137 30.0951 68.6319 30.3806C68.7502 30.6661 68.7811 30.9802 68.7209 31.2833C68.6606 31.5864 68.5118 31.8649 68.2932 32.0834C68.0747 32.3019 67.7963 32.4507 67.4932 32.511C67.1901 32.5713 66.8759 32.5403 66.5904 32.4221C66.3049 32.3038 66.0609 32.1035 65.8892 31.8466C65.7175 31.5896 65.6259 31.2875 65.6259 30.9785C65.6264 30.5643 65.7911 30.1671 66.0841 29.8742C66.377 29.5813 66.7741 29.4165 67.1884 29.416Z" fill="white"/>
</g>
<defs>
<clipPath id="clip0_677_1026">
<rect width="50" height="50" fill="white" transform="translate(25 23.166)"/>
</clipPath>
</defs>
</svg>
