<svg width="100" height="100" viewBox="0 0 100 100" fill="none" xmlns="http://www.w3.org/2000/svg">
<path d="M91.435 17.607C85.7514 11.8387 78.1637 8.6457 70.0695 8.61543C70.0311 8.61523 69.9932 8.61523 69.9545 8.61523C62.5279 8.61523 55.514 11.2813 50 16.1652C44.4855 11.2811 37.4726 8.61523 30.0454 8.61523C30.0073 8.61523 29.9687 8.61523 29.9304 8.61543C21.8358 8.64551 14.2481 11.8387 8.56492 17.607C-3.01382 29.3586 -2.82944 48.5241 8.97624 60.3298L33.0044 84.358C37.6902 89.0435 43.8453 91.3865 50.0004 91.3865C56.1554 91.3865 62.3103 89.0435 66.9963 84.358L91.0245 60.3298C102.829 48.5241 103.014 29.3588 91.435 17.607ZM88.3041 57.6104L64.2762 81.6382C60.4627 85.4517 55.3927 87.5517 49.9998 87.5517C44.6068 87.5517 39.5369 85.4515 35.7234 81.6382L11.6952 57.6104C1.37799 47.2932 1.2024 30.5584 11.304 20.3063C16.2628 15.2735 22.8827 12.4873 29.9445 12.4613C29.978 12.4611 30.0112 12.4611 30.0446 12.4611C37.0695 12.4611 43.6701 15.1949 48.64 20.1647C49.0007 20.5252 49.4896 20.728 49.9996 20.728C50.5095 20.728 50.9984 20.5252 51.3591 20.1647C56.3293 15.1943 62.9293 12.4611 69.9545 12.4611C69.9877 12.4611 70.0217 12.4611 70.0547 12.4613C77.1166 12.4875 83.7364 15.2735 88.6952 20.3063C98.7971 30.5584 98.6215 47.2932 88.3041 57.6104Z" fill="white"/>
<g clip-path="url(#clip0_677_839)">
<path d="M23.1313 40.8871C22.7409 39.2136 22.543 37.4926 22.543 35.7719C22.543 33.6199 23.1557 31.567 24.3185 29.7883C25.0181 30.5069 25.5672 31.3896 26.1944 32.6673C26.3381 32.9599 26.6355 33.1453 26.9614 33.1453C27.2872 33.1453 27.5848 32.9599 27.7284 32.6673C29.0205 30.0353 29.9788 29.077 32.6108 27.7849C32.9033 27.6412 33.0887 27.3437 33.0887 27.0179C33.0887 26.6921 32.9033 26.3945 32.6107 26.2509C31.8507 25.8778 31.2308 25.5323 30.7015 25.1666C31.6143 24.925 32.5557 24.8 33.515 24.8C35.4358 24.8 37.3307 25.3071 38.995 26.2664L48.4022 31.6899C48.5367 31.7674 48.6834 31.8042 48.8282 31.8042C49.1237 31.8042 49.4111 31.6507 49.5693 31.3764C49.8049 30.9675 49.6646 30.445 49.2558 30.2094L45.4329 28.0055L48.4487 26.2664C48.7392 26.0987 49.0434 25.9414 49.3531 25.7988C49.7818 25.6015 49.9692 25.0939 49.7719 24.6653C49.5747 24.2366 49.0671 24.0491 48.6384 24.2465C48.2813 24.4108 47.9302 24.5924 47.5947 24.786L43.7223 27.019L39.8487 24.7859C37.9252 23.6772 35.7352 23.091 33.5151 23.091C32.0423 23.091 30.6038 23.3412 29.2325 23.8335C28.7004 23.1913 28.2405 22.4116 27.7285 21.3686C27.5848 21.076 27.2873 20.8906 26.9615 20.8906C26.6356 20.8906 26.3381 21.076 26.1945 21.3686C24.9023 24.0004 23.944 24.9587 21.3119 26.2508C21.0194 26.3945 20.834 26.6919 20.834 27.0178C20.834 27.3436 21.0194 27.6412 21.3118 27.7848C21.9609 28.1035 22.5078 28.4018 22.9833 28.7099C21.5763 30.7995 20.834 33.2261 20.834 35.7719C20.834 37.6231 21.0469 39.4747 21.4671 41.2753C21.8832 43.0598 22.502 44.7954 23.306 46.4341C23.4545 46.7367 23.7581 46.9124 24.0738 46.9124C24.2 46.9124 24.3284 46.8843 24.4495 46.8248C24.8732 46.6169 25.0481 46.105 24.8403 45.6813C24.093 44.1588 23.5182 42.5457 23.1313 40.8871ZM26.9614 23.5475C27.8898 25.0972 28.8822 26.0895 30.4316 27.0178C28.882 27.9462 27.8897 28.9385 26.9614 30.4882C26.0331 28.9385 25.0407 27.9462 23.4911 27.0178C25.0407 26.0895 26.0331 25.0972 26.9614 23.5475Z" fill="white"/>
<path d="M47.4685 61.6633C47.3867 61.3891 47.3089 61.1024 47.2311 60.7885L46.6303 58.3469C46.4704 57.7008 46.0938 57.1183 45.5687 56.7057C45.0435 56.2948 44.3875 56.0684 43.7217 56.0684C42.34 56.0684 41.1439 57.0057 40.8126 58.3481L40.2123 60.7882C39.8627 62.2064 39.3563 63.5847 38.7073 64.8849C38.0568 66.1891 37.2602 67.4229 36.3398 68.5521C35.7871 69.2298 35.0783 69.7859 34.2893 70.1603C33.4999 70.5356 32.6205 70.7338 31.7463 70.7338C31.338 70.7338 31.0058 70.4016 31.0058 69.9933V62.8748C31.0058 59.8061 30.2882 56.729 28.9306 53.9759L26.6132 49.2774C26.4044 48.8541 25.8924 48.6805 25.4689 48.889C25.0456 49.0977 24.8718 49.6101 25.0805 50.0333L27.3979 54.7317C28.6401 57.2511 29.2968 60.0669 29.2968 62.8749V69.9934C29.2968 71.344 30.3957 72.4429 31.7463 72.4429C32.8728 72.4429 34.0057 72.1874 35.0226 71.7042C36.0389 71.2219 36.9524 70.5054 37.6644 69.6321C38.6645 68.4051 39.53 67.0646 40.2366 65.6479C40.9417 64.2353 41.492 62.7378 41.872 61.1969L42.4722 58.757C42.6145 58.1803 43.1284 57.7774 43.7219 57.7774C44.0121 57.7774 44.2866 57.8722 44.5145 58.0504C44.7436 58.2305 44.9016 58.4752 44.9714 58.7563L45.5723 61.1984C45.6569 61.5398 45.7416 61.8517 45.831 62.1516C45.9659 62.6037 46.4413 62.8611 46.8941 62.7263C47.3461 62.5915 47.6034 62.1155 47.4685 61.6633Z" fill="white"/>
<path d="M66.1303 46.3693C65.4364 46.3693 64.7552 46.4243 64.0904 46.5293C65.7379 43.2049 66.6089 39.4845 66.6088 35.7725C66.6088 32.385 65.2899 29.2004 62.8949 26.8056C60.5 24.4107 57.3155 23.0918 53.9281 23.0918C53.547 23.0918 53.1634 23.109 52.7879 23.1431C52.3179 23.1858 51.9715 23.6013 52.0141 24.0713C52.0567 24.5412 52.4707 24.8866 52.9423 24.8451C53.2668 24.8156 53.5984 24.8007 53.928 24.8007C56.8589 24.8007 59.6143 25.9419 61.6865 28.014C63.7586 30.0861 64.8997 32.8413 64.8997 35.7723C64.9317 39.72 63.7824 43.6085 61.9197 47.067C56.7908 48.8218 53.0929 53.6897 53.0929 59.4052C53.0929 62.7496 54.3591 65.8034 56.4368 68.1137V69.9931C56.4368 70.4014 56.1052 70.7336 55.6962 70.7336C54.8103 70.7336 53.955 70.5407 53.154 70.16C52.3641 69.785 51.655 69.229 51.103 68.552C50.2594 67.517 49.5186 66.3922 48.9013 65.2091C48.683 64.7907 48.1667 64.6283 47.7486 64.8467C47.3301 65.065 47.1678 65.5811 47.3861 65.9995C48.0569 67.285 48.8617 68.507 49.7783 69.6318C50.4897 70.5043 51.4036 71.2208 52.4207 71.7037C53.438 72.187 54.5706 72.4426 55.6974 72.4426C57.0475 72.4426 58.1458 71.3437 58.1458 69.9931V69.7042C60.3533 71.4196 63.1244 72.4426 66.1302 72.4426C68.279 72.4426 70.4081 71.9081 72.29 70.8963C72.5734 70.7572 72.7683 70.4658 72.7683 70.1286C72.7683 69.6566 72.3853 69.2741 71.9133 69.2741C71.7713 69.2741 71.6315 69.3096 71.5066 69.377C69.8665 70.2645 68.0072 70.7336 66.1302 70.7336C59.8837 70.7336 54.8019 65.6518 54.8019 59.4052C54.8019 53.1594 59.8837 48.0781 66.1302 48.0781C72.3759 48.0781 77.4573 53.1594 77.4573 59.4052C77.4573 62.2708 76.3851 65.0049 74.4383 67.1036C74.1174 67.4496 74.1376 67.9902 74.4836 68.3112C74.8294 68.6321 75.3701 68.6119 75.6911 68.266C77.9323 65.8504 79.1664 62.7036 79.1664 59.4054C79.1664 52.2172 73.3185 46.3693 66.1303 46.3693Z" fill="white"/>
<path d="M72.6882 56.324H69.2128V52.8486C69.2128 52.3766 68.8304 51.9941 68.3583 51.9941H63.9031C63.4311 51.9941 63.0486 52.3766 63.0486 52.8486V56.324H59.5732C59.1012 56.324 58.7188 56.7065 58.7188 57.1785V61.6337C58.7188 62.1057 59.1012 62.4882 59.5732 62.4882H63.0486V65.9636C63.0486 66.4356 63.4311 66.8181 63.9031 66.8181H68.3583C68.8304 66.8181 69.2128 66.4356 69.2128 65.9636V62.4882H72.6882C73.1602 62.4882 73.5427 62.1057 73.5427 61.6337V57.1785C73.5427 56.7066 73.1601 56.324 72.6882 56.324ZM71.8337 60.7793H68.3583C67.8863 60.7793 67.5038 61.1618 67.5038 61.6338V65.1092H64.7576V61.6338C64.7576 61.1618 64.3751 60.7793 63.9031 60.7793H60.4277V58.033H63.9031C64.3751 58.033 64.7576 57.6505 64.7576 57.1785V53.7031H67.5038V57.1785C67.5038 57.6505 67.8863 58.033 68.3583 58.033H71.8337V60.7793Z" fill="white"/>
<path d="M56.3165 42.5014C56.4601 42.7938 56.7576 42.9792 57.0835 42.9792C57.4093 42.9792 57.7069 42.7938 57.8505 42.5014C58.9016 40.3605 59.6809 39.5811 61.8218 38.53C62.1143 38.3864 62.2996 38.0889 62.2996 37.763C62.2996 37.4372 62.1143 37.1396 61.8218 36.996C59.6809 35.9449 58.9015 35.1656 57.8505 33.0247C57.7068 32.7322 57.4093 32.5469 57.0835 32.5469C56.7576 32.5469 56.46 32.7322 56.3165 33.0247C55.2653 35.1656 54.486 35.9451 52.3451 36.996C52.0526 37.1397 51.8672 37.4372 51.8672 37.763C51.8672 38.0889 52.0526 38.3865 52.3451 38.53C54.4859 39.5809 55.2653 40.3605 56.3165 42.5014ZM57.0835 35.1756C57.7867 36.2963 58.5501 37.0597 59.6707 37.7629C58.5501 38.4661 57.7867 39.2296 57.0835 40.3502C56.3803 39.2296 55.6168 38.4661 54.4961 37.7629C55.6168 37.0597 56.3803 36.2963 57.0835 35.1756Z" fill="white"/>
<path d="M49.3093 45.3923C47.7225 44.6134 47.1448 44.0356 46.3656 42.4485C46.222 42.1561 45.9245 41.9707 45.5986 41.9707C45.2728 41.9707 44.9752 42.1561 44.8317 42.4486C44.0526 44.0356 43.475 44.6132 41.8881 45.3923C41.5955 45.536 41.4102 45.8335 41.4102 46.1593C41.4102 46.4852 41.5955 46.7827 41.8881 46.9263C43.475 47.7054 44.0526 48.283 44.8317 49.87C44.9753 50.1625 45.2728 50.3479 45.5986 50.3479C45.9245 50.3479 46.2221 50.1625 46.3656 49.8701C47.1448 48.283 47.7225 47.7053 49.3093 46.9263C49.6019 46.7826 49.7873 46.4852 49.7873 46.1593C49.7873 45.8335 49.6019 45.536 49.3093 45.3923ZM45.5985 47.7676C45.1476 47.1065 44.6514 46.6103 43.9904 46.1593C44.6514 45.7084 45.1476 45.2121 45.5985 44.551C46.0496 45.2123 46.5457 45.7084 47.2067 46.1593C46.5458 46.6103 46.0496 47.1064 45.5985 47.7676Z" fill="white"/>
</g>
<defs>
<clipPath id="clip0_677_839">
<rect width="58.3333" height="58.3333" fill="white" transform="translate(20.834 17.5)"/>
</clipPath>
</defs>
</svg>
