<svg width="100" height="100" viewBox="0 0 100 100" fill="none" xmlns="http://www.w3.org/2000/svg">
<rect width="100" height="100" fill="#259BF1"/>
<g clip-path="url(#clip0_659_347)">
<path d="M83.148 24.0841C78.6011 19.4694 72.5309 16.915 66.0556 16.8908C66.0248 16.8906 65.9945 16.8906 65.9636 16.8906C60.0223 16.8906 54.4112 19.0234 50 22.9306C45.5884 19.0233 39.9781 16.8906 34.0363 16.8906C34.0059 16.8906 33.9749 16.8906 33.9443 16.8908C27.4687 16.9148 21.3985 19.4694 16.8519 24.0841C7.58895 33.4853 7.73645 48.8177 17.181 58.2623L36.4035 77.4848C40.1521 81.2332 45.0762 83.1076 50.0003 83.1076C54.9244 83.1076 59.8483 81.2332 63.597 77.4848L82.8196 58.2623C92.2633 48.8177 92.4108 33.4855 83.148 24.0841ZM80.6433 56.0868L61.4209 75.309C58.3701 78.3598 54.3142 80.0398 49.9998 80.0398C45.6854 80.0398 41.6295 78.3596 38.5787 75.309L19.3562 56.0868C11.1024 47.833 10.9619 34.4452 19.0432 26.2435C23.0102 22.2172 28.3062 19.9883 33.9556 19.9675C33.9824 19.9673 34.009 19.9673 34.0357 19.9673C39.6556 19.9673 44.936 22.1544 48.912 26.1302C49.2006 26.4186 49.5917 26.5808 49.9997 26.5808C50.4076 26.5808 50.7987 26.4186 51.0873 26.1302C55.0634 22.1539 60.3434 19.9673 65.9636 19.9673C65.9902 19.9673 66.0173 19.9673 66.0437 19.9675C71.6933 19.9884 76.9891 22.2172 80.9561 26.2435C89.0377 34.4452 88.8972 47.833 80.6433 56.0868Z" fill="white"/>
<g clip-path="url(#clip1_659_347)">
<path d="M28.5039 42.7101C28.1915 41.3712 28.0332 39.9945 28.0332 38.6179C28.0332 36.8963 28.5234 35.254 29.4536 33.831C30.0133 34.4059 30.4526 35.1121 30.9543 36.1343C31.0693 36.3683 31.3073 36.5166 31.5679 36.5166C31.8286 36.5166 32.0667 36.3683 32.1815 36.1343C33.2152 34.0286 33.9818 33.262 36.0875 32.2283C36.3215 32.1134 36.4698 31.8754 36.4698 31.6147C36.4698 31.354 36.3215 31.116 36.0874 31.0011C35.4794 30.7026 34.9834 30.4263 34.5601 30.1337C35.2902 29.9404 36.0434 29.8404 36.8108 29.8404C38.3474 29.8404 39.8634 30.2461 41.1948 31.0135L48.7206 35.3523C48.8282 35.4143 48.9455 35.4437 49.0614 35.4437C49.2978 35.4437 49.5277 35.321 49.6543 35.1015C49.8428 34.7744 49.7305 34.3564 49.4034 34.1679L46.3451 32.4048L48.7578 31.0135C48.9902 30.8793 49.2335 30.7535 49.4813 30.6395C49.8243 30.4816 49.9742 30.0755 49.8163 29.7326C49.6586 29.3897 49.2525 29.2396 48.9095 29.3976C48.6239 29.529 48.343 29.6743 48.0746 29.8292L44.9767 31.6156L41.8778 29.8291C40.339 28.9421 38.587 28.4732 36.8109 28.4732C35.6327 28.4732 34.4819 28.6733 33.3848 29.0672C32.9592 28.5534 32.5912 27.9297 32.1816 27.0952C32.0667 26.8612 31.8287 26.7129 31.568 26.7129C31.3073 26.7129 31.0693 26.8612 30.9544 27.0952C29.9207 29.2007 29.154 29.9673 27.0484 31.001C26.8143 31.116 26.666 31.3539 26.666 31.6146C26.666 31.8753 26.8143 32.1134 27.0483 32.2282C27.5675 32.4832 28.005 32.7219 28.3855 32.9683C27.2598 34.64 26.666 36.5813 26.666 38.6179C26.666 40.0988 26.8364 41.5801 27.1725 43.0206C27.5054 44.4482 28.0004 45.8367 28.6436 47.1477C28.7625 47.3898 29.0053 47.5303 29.2578 47.5303C29.3588 47.5303 29.4615 47.5078 29.5584 47.4602C29.8974 47.2939 30.0373 46.8844 29.8711 46.5454C29.2732 45.3274 28.8134 44.037 28.5039 42.7101ZM31.5679 28.8384C32.3107 30.0782 33.1046 30.872 34.3441 31.6146C33.1045 32.3574 32.3106 33.1512 31.5679 34.3909C30.8253 33.1512 30.0314 32.3574 28.7917 31.6146C30.0314 30.872 30.8253 30.0782 31.5679 28.8384Z" fill="white"/>
<path d="M47.9733 59.331C47.9078 59.1117 47.8456 58.8823 47.7833 58.6312L47.3027 56.6779C47.1747 56.161 46.8735 55.6951 46.4534 55.3649C46.0332 55.0363 45.5084 54.8551 44.9758 54.8551C43.8704 54.8551 42.9136 55.6049 42.6485 56.6789L42.1683 58.631C41.8886 59.7655 41.4835 60.8681 40.9643 61.9083C40.4439 62.9516 39.8066 63.9387 39.0702 64.8421C38.6281 65.3842 38.0611 65.8291 37.4299 66.1286C36.7983 66.4288 36.0949 66.5874 35.3955 66.5874C35.0688 66.5874 34.8031 66.3217 34.8031 65.995V60.3002C34.8031 57.8453 34.229 55.3836 33.1429 53.1811L31.289 49.4223C31.122 49.0837 30.7123 48.9448 30.3736 49.1116C30.035 49.2786 29.8959 49.6885 30.0628 50.0271L31.9168 53.7857C32.9105 55.8012 33.4359 58.0539 33.4359 60.3003V65.9951C33.4359 67.0756 34.315 67.9547 35.3955 67.9547C36.2967 67.9547 37.203 67.7503 38.0165 67.3637C38.8295 66.9779 39.5603 66.4047 40.13 65.7061C40.9301 64.7245 41.6224 63.6521 42.1877 62.5187C42.7518 61.3887 43.192 60.1906 43.496 58.9579L43.9762 57.006C44.09 56.5446 44.5012 56.2223 44.9759 56.2223C45.2081 56.2223 45.4278 56.2982 45.61 56.4407C45.7933 56.5848 45.9198 56.7805 45.9755 57.0055L46.4562 58.9591C46.524 59.2322 46.5917 59.4817 46.6632 59.7217C46.7712 60.0834 47.1515 60.2893 47.5137 60.1814C47.8753 60.0736 48.0812 59.6928 47.9733 59.331Z" fill="white"/>
<path d="M62.9031 47.0947C62.348 47.0947 61.803 47.1387 61.2712 47.2226C62.5891 44.5632 63.286 41.5868 63.2859 38.6172C63.2859 35.9072 62.2308 33.3595 60.3148 31.4437C58.3988 29.5278 55.8512 28.4727 53.1413 28.4727C52.8365 28.4727 52.5296 28.4864 52.2291 28.5137C51.8532 28.5479 51.576 28.8803 51.6101 29.2562C51.6442 29.6322 51.9754 29.9085 52.3527 29.8753C52.6122 29.8517 52.8776 29.8398 53.1412 29.8398C55.486 29.8398 57.6902 30.7528 59.348 32.4104C61.0057 34.0681 61.9186 36.2723 61.9186 38.6171C61.9442 41.7752 61.0247 44.886 59.5346 47.6528C55.4315 49.0567 52.4731 52.951 52.4731 57.5234C52.4731 60.1989 53.4861 62.642 55.1483 64.4902V65.9937C55.1483 66.3203 54.8829 66.5861 54.5558 66.5861C53.8471 66.5861 53.1628 66.4318 52.522 66.1272C51.8901 65.8272 51.3228 65.3824 50.8812 64.8408C50.2064 64.0128 49.6137 63.113 49.1199 62.1665C48.9453 61.8318 48.5322 61.7019 48.1977 61.8766C47.8629 62.0512 47.7331 62.4641 47.9077 62.7988C48.4443 63.8272 49.0882 64.8048 49.8214 65.7046C50.3906 66.4026 51.1217 66.9758 51.9354 67.3622C52.7492 67.7489 53.6553 67.9533 54.5567 67.9533C55.6368 67.9533 56.5155 67.0742 56.5155 65.9937V65.7626C58.2815 67.1349 60.4984 67.9533 62.903 67.9533C64.6221 67.9533 66.3253 67.5257 67.8309 66.7163C68.0575 66.605 68.2135 66.3718 68.2135 66.1021C68.2135 65.7245 67.9071 65.4185 67.5294 65.4185C67.4159 65.4185 67.304 65.4469 67.2041 65.5008C65.892 66.2109 64.4046 66.5861 62.903 66.5861C57.9058 66.5861 53.8403 62.5206 53.8403 57.5234C53.8403 52.5268 57.9058 48.4617 62.903 48.4617C67.8996 48.4617 71.9647 52.5268 71.9647 57.5234C71.9647 59.8159 71.1069 62.0031 69.5495 63.6821C69.2927 63.9589 69.3089 64.3914 69.5857 64.6482C69.8623 64.9049 70.2949 64.8887 70.5517 64.612C72.3447 62.6795 73.332 60.1621 73.332 57.5236C73.332 51.773 68.6536 47.0947 62.9031 47.0947Z" fill="white"/>
<path d="M68.1502 55.0596H65.3699V52.2793C65.3699 51.9017 65.0639 51.5957 64.6863 51.5957H61.1221C60.7445 51.5957 60.4385 51.9017 60.4385 52.2793V55.0596H57.6582C57.2806 55.0596 56.9746 55.3656 56.9746 55.7432V59.3074C56.9746 59.685 57.2806 59.991 57.6582 59.991H60.4385V62.7713C60.4385 63.1489 60.7445 63.4549 61.1221 63.4549H64.6863C65.0639 63.4549 65.3699 63.1489 65.3699 62.7713V59.991H68.1502C68.5278 59.991 68.8338 59.685 68.8338 59.3074V55.7432C68.8338 55.3657 68.5277 55.0596 68.1502 55.0596ZM67.4666 58.6239H64.6863C64.3087 58.6239 64.0027 58.9298 64.0027 59.3075V62.0878H61.8057V59.3075C61.8057 58.9298 61.4997 58.6239 61.1221 58.6239H58.3418V56.4268H61.1221C61.4997 56.4268 61.8057 56.1208 61.8057 55.7432V52.9629H64.0027V55.7432C64.0027 56.1208 64.3087 56.4268 64.6863 56.4268H67.4666V58.6239Z" fill="white"/>
<path d="M55.0516 44.0007C55.1665 44.2347 55.4045 44.383 55.6652 44.383C55.9259 44.383 56.164 44.2347 56.2788 44.0007C57.1197 42.288 57.7431 41.6645 59.4559 40.8236C59.6898 40.7087 59.8381 40.4707 59.8381 40.21C59.8381 39.9494 59.6898 39.7113 59.4559 39.5964C57.7431 38.7555 57.1196 38.1321 56.2788 36.4194C56.1639 36.1854 55.9259 36.0371 55.6652 36.0371C55.4045 36.0371 55.1665 36.1854 55.0516 36.4194C54.2107 38.1321 53.5873 38.7557 51.8745 39.5964C51.6405 39.7114 51.4922 39.9494 51.4922 40.21C51.4922 40.4707 51.6405 40.7088 51.8745 40.8236C53.5872 41.6644 54.2107 42.288 55.0516 44.0007ZM55.6652 38.1401C56.2278 39.0366 56.8385 39.6474 57.735 40.2099C56.8385 40.7725 56.2278 41.3833 55.6652 42.2798C55.1027 41.3833 54.4919 40.7725 53.5953 40.2099C54.4919 39.6474 55.1027 39.0366 55.6652 38.1401Z" fill="white"/>
<path d="M49.4463 46.3135C48.1768 45.6903 47.7147 45.2281 47.0913 43.9584C46.9764 43.7245 46.7384 43.5762 46.4777 43.5762C46.2171 43.5762 45.979 43.7245 45.8642 43.9585C45.2409 45.2281 44.7788 45.6902 43.5093 46.3135C43.2752 46.4284 43.127 46.6664 43.127 46.9271C43.127 47.1877 43.2752 47.4258 43.5093 47.5406C44.7788 48.1639 45.2409 48.626 45.8642 49.8956C45.9791 50.1296 46.2171 50.2779 46.4777 50.2779C46.7384 50.2779 46.9765 50.1296 47.0913 49.8957C47.7147 48.626 48.1768 48.1638 49.4463 47.5406C49.6803 47.4257 49.8286 47.1877 49.8286 46.9271C49.8286 46.6664 49.6803 46.4284 49.4463 46.3135ZM46.4777 48.2137C46.1169 47.6848 45.72 47.2878 45.1911 46.9271C45.72 46.5663 46.1169 46.1693 46.4777 45.6404C46.8385 46.1695 47.2354 46.5663 47.7642 46.9271C47.2354 47.2878 46.8385 47.6848 46.4777 48.2137Z" fill="white"/>
</g>
</g>
<defs>
<clipPath id="clip0_659_347">
<rect width="80" height="80" fill="white" transform="translate(10 10)"/>
</clipPath>
<clipPath id="clip1_659_347">
<rect width="46.6667" height="46.6667" fill="white" transform="translate(26.666 24)"/>
</clipPath>
</defs>
</svg>
