<svg width="100" height="100" viewBox="0 0 100 100" fill="none" xmlns="http://www.w3.org/2000/svg">
<path d="M91.435 17.607C85.7514 11.8387 78.1637 8.6457 70.0695 8.61543C70.0311 8.61523 69.9932 8.61523 69.9545 8.61523C62.5279 8.61523 55.514 11.2813 50 16.1652C44.4855 11.2811 37.4726 8.61523 30.0454 8.61523C30.0073 8.61523 29.9687 8.61523 29.9304 8.61543C21.8358 8.64551 14.2481 11.8387 8.56492 17.607C-3.01382 29.3586 -2.82944 48.5241 8.97624 60.3298L33.0044 84.358C37.6902 89.0435 43.8453 91.3865 50.0004 91.3865C56.1554 91.3865 62.3103 89.0435 66.9963 84.358L91.0245 60.3298C102.829 48.5241 103.014 29.3588 91.435 17.607ZM88.3041 57.6104L64.2762 81.6382C60.4627 85.4517 55.3927 87.5517 49.9998 87.5517C44.6068 87.5517 39.5369 85.4515 35.7234 81.6382L11.6952 57.6104C1.37799 47.2932 1.2024 30.5584 11.304 20.3063C16.2628 15.2735 22.8827 12.4873 29.9445 12.4613C29.978 12.4611 30.0112 12.4611 30.0446 12.4611C37.0695 12.4611 43.6701 15.1949 48.64 20.1647C49.0007 20.5252 49.4896 20.728 49.9996 20.728C50.5095 20.728 50.9984 20.5252 51.3591 20.1647C56.3293 15.1943 62.9293 12.4611 69.9545 12.4611C69.9877 12.4611 70.0217 12.4611 70.0547 12.4613C77.1166 12.4875 83.7364 15.2735 88.6952 20.3063C98.7971 30.5584 98.6215 47.2932 88.3041 57.6104Z" fill="white"/>
<g clip-path="url(#clip0_677_926)">
<path d="M33.3192 58.9106C34.2069 60.0488 34.6909 61.4499 34.6951 62.8933V69.2499C34.6951 69.8909 34.9497 70.5056 35.4029 70.9588C35.8561 71.412 36.4708 71.6666 37.1118 71.6666H53.2229C53.8638 71.6666 54.4785 71.412 54.9317 70.9588C55.3849 70.5056 55.6395 69.8909 55.6395 69.2499V67.4455C58.2727 67.0691 60.7789 66.0727 62.9516 64.5382L69.4363 71.031C69.8499 71.4377 70.4071 71.6652 70.9872 71.6643C71.5673 71.6634 72.1237 71.4342 72.5361 71.0262L73.5277 70.0354C73.9359 69.6218 74.1648 69.0641 74.1648 68.483C74.1648 67.902 73.9359 67.3443 73.5277 66.9307L67.0398 60.4509C68.5482 58.3201 69.5414 55.8684 69.9411 53.2885C70.3409 50.7087 70.1364 48.0713 69.3436 45.584C68.5508 43.0967 67.1915 40.8274 65.3726 38.9547C63.5537 37.082 61.3249 35.6572 58.8618 34.7923V30.7194C58.8716 29.7023 58.5061 28.7172 57.8353 27.9526C57.1644 27.188 56.2353 26.6974 55.2255 26.5748C54.6682 26.5202 54.1056 26.5824 53.5737 26.7575C53.0417 26.9325 52.5522 27.2165 52.1362 27.5914C51.9149 26.9728 51.5443 26.4183 51.0574 25.9771C50.5705 25.536 49.9823 25.2218 49.3448 25.0624C48.7074 24.9031 48.0405 24.9035 47.4033 25.0636C46.766 25.2237 46.1781 25.5386 45.6917 25.9803C45.4702 25.3607 45.099 24.8055 44.611 24.364C44.1231 23.9225 43.5336 23.6085 42.895 23.4498C42.2564 23.2912 41.5885 23.2928 40.9507 23.4546C40.3129 23.6164 39.725 23.9334 39.2392 24.3773C38.9148 24.6711 38.6408 25.0162 38.428 25.3987C38.3572 25.3246 38.2838 25.2521 38.2065 25.1828C37.7901 24.806 37.2996 24.5202 36.7664 24.3437C36.2332 24.1673 35.669 24.1041 35.11 24.1582C34.1 24.2806 33.1707 24.771 32.4997 25.5357C31.8287 26.3003 31.4631 27.2855 31.4729 28.3027V31.4388C29.9163 31.637 28.4852 32.3955 27.4473 33.5724C26.4094 34.7494 25.8359 36.2641 25.834 37.8333V46.6058C25.8391 48.4092 26.4438 50.1597 27.553 51.5817L33.3192 58.9106ZM72.3887 68.8995L71.3978 69.8895C71.2875 69.9977 71.1391 70.0583 70.9846 70.0583C70.8301 70.0583 70.6817 69.9977 70.5713 69.8895L66.4227 65.7361L68.2352 63.9236L72.3838 68.0674C72.4927 68.1776 72.554 68.3261 72.5548 68.481C72.5555 68.6359 72.4956 68.785 72.3878 68.8963L72.3887 68.8995ZM67.0945 62.7829L65.2837 64.5938L64.2316 63.5402C64.879 62.983 65.4837 62.3782 66.0409 61.7309L67.0945 62.7829ZM68.5284 50.7222C68.5284 53.7493 67.6308 56.7085 65.949 59.2255C64.2672 61.7425 61.8768 63.7042 59.0801 64.8626C56.2833 66.0211 53.2059 66.3242 50.2369 65.7336C47.2679 65.1431 44.5407 63.6853 42.4002 61.5448C40.2597 59.4043 38.802 56.6771 38.2114 53.7081C37.6208 50.7391 37.9239 47.6617 39.0824 44.865C40.2408 42.0683 42.2026 39.6779 44.7196 37.9961C47.2366 36.3143 50.1957 35.4166 53.2229 35.4166C57.2808 35.4211 61.1712 37.0351 64.0406 39.9044C66.91 42.7738 68.524 46.6642 68.5284 50.7222ZM27.4451 37.8333C27.4472 36.6922 27.8526 35.5885 28.5896 34.7174C29.3267 33.8462 30.3479 33.2636 31.4729 33.0724V44.2777C31.4729 44.4914 31.5577 44.6963 31.7088 44.8473C31.8599 44.9984 32.0648 45.0833 32.2784 45.0833C32.4921 45.0833 32.697 44.9984 32.848 44.8473C32.9991 44.6963 33.084 44.4914 33.084 44.2777V32.1944V28.3027C33.0715 27.6852 33.287 27.0847 33.6892 26.616C34.0915 26.1474 34.6523 25.8433 35.2646 25.762C35.6003 25.7275 35.9396 25.7643 36.2601 25.8699C36.5806 25.9756 36.8752 26.1477 37.1247 26.375C37.3741 26.6021 37.5734 26.8788 37.7099 27.1872C37.8464 27.4957 37.917 27.8293 37.9173 28.1666C37.9173 28.3803 38.0022 28.5851 38.1533 28.7362C38.3043 28.8873 38.5092 28.9722 38.7229 28.9722C38.9365 28.9722 39.1414 28.8873 39.2925 28.7362C39.4436 28.5851 39.5284 28.3803 39.5284 28.1666V27.361C39.5286 27.0238 39.5994 26.6904 39.7361 26.3821C39.8729 26.0739 40.0727 25.7977 40.3226 25.5713C40.5725 25.3449 40.8671 25.1733 41.1873 25.0675C41.5075 24.9618 41.8463 24.9242 42.1819 24.9573C42.7939 25.0387 43.3545 25.3427 43.7566 25.8112C44.1586 26.2797 44.3741 26.8799 44.3618 27.4972V28.9722C44.3618 29.1858 44.4466 29.3907 44.5977 29.5418C44.7488 29.6928 44.9537 29.7777 45.1673 29.7777C45.381 29.7777 45.5859 29.6928 45.7369 29.5418C45.888 29.3907 45.9729 29.1858 45.9729 28.9722C45.9733 28.635 46.044 28.3016 46.1804 27.9932C46.3169 27.6849 46.5162 27.4084 46.7655 27.1814C47.015 26.9538 47.3097 26.7816 47.6304 26.6759C47.9511 26.5703 48.2905 26.5336 48.6264 26.5684C49.2384 26.6498 49.7989 26.9538 50.201 27.4223C50.6031 27.8908 50.8185 28.491 50.8062 29.1083V30.5833C50.8062 30.7969 50.8911 31.0018 51.0422 31.1529C51.1932 31.304 51.3981 31.3888 51.6118 31.3888C51.8254 31.3888 52.0303 31.304 52.1814 31.1529C52.3325 31.0018 52.4173 30.7969 52.4173 30.5833C52.4177 30.2461 52.4884 29.9127 52.6249 29.6043C52.7614 29.296 52.9606 29.0195 53.21 28.7925C53.4596 28.5652 53.7544 28.3932 54.075 28.2875C54.3957 28.1819 54.735 28.1451 55.0708 28.1795C55.6828 28.2609 56.2434 28.565 56.6455 29.0335C57.0475 29.502 57.263 30.1021 57.2507 30.7194V34.3106C54.9274 33.7394 52.5093 33.6677 50.1563 34.1003C47.8032 34.533 45.5688 35.46 43.6006 36.8202C41.6324 38.1804 39.9753 39.9428 38.7387 41.991C37.5022 44.0391 36.7143 46.3263 36.4273 48.7015C36.1402 51.0767 36.3605 53.4858 37.0736 55.7696C37.7866 58.0533 38.9762 60.1597 40.5637 61.9497C42.1511 63.7396 44.1004 65.1722 46.2826 66.153C48.4649 67.1337 50.8304 67.6401 53.2229 67.6388C53.4952 67.6388 53.7594 67.6106 54.0284 67.5977V69.2499C54.0284 69.4636 53.9436 69.6685 53.7925 69.8195C53.6414 69.9706 53.4365 70.0555 53.2229 70.0555H37.1118C36.8981 70.0555 36.6932 69.9706 36.5421 69.8195C36.3911 69.6685 36.3062 69.4636 36.3062 69.2499V62.8933C36.3011 61.0899 35.6964 59.3394 34.5872 57.9174L28.821 50.5868C27.9336 49.4491 27.4496 48.0486 27.4451 46.6058V37.8333Z" fill="white"/>
<path d="M39.5293 50.7237C39.5296 53.285 40.2481 55.7949 41.6033 57.9682C42.9585 60.1416 44.8961 61.8913 47.1958 63.0187C49.4956 64.1461 52.0655 64.606 54.6135 64.346C57.1616 64.0861 59.5857 63.1168 61.6104 61.5482C63.6352 59.9797 65.1795 57.8747 66.0679 55.4725C66.9564 53.0703 67.1533 50.467 66.6364 47.9585C66.1195 45.4499 64.9094 43.1366 63.1437 41.2813C61.3779 39.426 59.1273 38.103 56.6474 37.4627C56.4423 37.4145 56.2266 37.4485 56.0464 37.5574C55.8661 37.6663 55.7357 37.8415 55.683 38.0454C55.6304 38.2493 55.6596 38.4658 55.7646 38.6483C55.8696 38.8309 56.0419 38.9651 56.2446 39.0222C56.5867 39.1109 56.9223 39.2137 57.2515 39.3308V48.5487C57.2534 49.3382 57.0887 50.1191 56.7682 50.8405L54.66 55.5885C54.2448 56.5163 54.0299 57.5212 54.0293 58.5376V62.766C53.7619 62.7837 53.496 62.8071 53.2237 62.8071C50.019 62.8071 46.9456 61.534 44.6795 59.268C42.4135 57.0019 41.1404 53.9284 41.1404 50.7237C41.1404 47.519 42.4135 44.4456 44.6795 42.1795C46.9456 39.9135 50.019 38.6404 53.2237 38.6404C53.4374 38.6404 53.6423 38.5555 53.7934 38.4045C53.9444 38.2534 54.0293 38.0485 54.0293 37.8349C54.0293 37.6212 53.9444 37.4163 53.7934 37.2652C53.6423 37.1142 53.4374 37.0293 53.2237 37.0293C49.593 37.0333 46.1121 38.4775 43.5448 41.0448C40.9775 43.6121 39.5333 47.093 39.5293 50.7237ZM55.6404 58.5376C55.6386 57.7482 55.8033 56.9673 56.1237 56.2458L58.2319 51.4979C58.6471 50.5701 58.8621 49.5652 58.8626 48.5487V40.0421C61.065 41.2052 62.8542 43.0204 63.9853 45.2394C65.1165 47.4584 65.5342 49.9727 65.1815 52.4382C64.8288 54.9038 63.7228 57.2001 62.0149 59.0129C60.307 60.8257 58.0806 62.0665 55.6404 62.5654V58.5376Z" fill="white"/>
<path d="M51.6122 57.168C51.3985 57.168 51.1937 57.2528 51.0426 57.4039C50.8915 57.555 50.8066 57.7599 50.8066 57.9735V58.7791C50.8066 58.9927 50.8915 59.1976 51.0426 59.3487C51.1937 59.4998 51.3985 59.5846 51.6122 59.5846C51.8258 59.5846 52.0307 59.4998 52.1818 59.3487C52.3329 59.1976 52.4178 58.9927 52.4178 58.7791V57.9735C52.4178 57.7599 52.3329 57.555 52.1818 57.4039C52.0307 57.2528 51.8258 57.168 51.6122 57.168Z" fill="white"/>
<path d="M52.4178 53.9442C52.4178 53.7306 52.3329 53.5257 52.1818 53.3746C52.0307 53.2235 51.8258 53.1387 51.6122 53.1387C51.3985 53.1387 51.1937 53.2235 51.0426 53.3746C50.8915 53.5257 50.8066 53.7306 50.8066 53.9442V54.7498C50.8066 54.9634 50.8915 55.1683 51.0426 55.3194C51.1937 55.4705 51.3985 55.5553 51.6122 55.5553C51.8258 55.5553 52.0307 55.4705 52.1818 55.3194C52.3329 55.1683 52.4178 54.9634 52.4178 54.7498V53.9442Z" fill="white"/>
<path d="M52.4178 49.9169C52.4178 49.7032 52.3329 49.4983 52.1818 49.3473C52.0307 49.1962 51.8258 49.1113 51.6122 49.1113C51.3985 49.1113 51.1937 49.1962 51.0426 49.3473C50.8915 49.4983 50.8066 49.7032 50.8066 49.9169V50.7224C50.8066 50.9361 50.8915 51.141 51.0426 51.2921C51.1937 51.4431 51.3985 51.528 51.6122 51.528C51.8258 51.528 52.0307 51.4431 52.1818 51.2921C52.3329 51.141 52.4178 50.9361 52.4178 50.7224V49.9169Z" fill="white"/>
<path d="M52.4178 45.8895C52.4178 45.6759 52.3329 45.471 52.1818 45.3199C52.0307 45.1689 51.8258 45.084 51.6122 45.084C51.3985 45.084 51.1937 45.1689 51.0426 45.3199C50.8915 45.471 50.8066 45.6759 50.8066 45.8895V46.6951C50.8066 46.9087 50.8915 47.1136 51.0426 47.2647C51.1937 47.4158 51.3985 47.5007 51.6122 47.5007C51.8258 47.5007 52.0307 47.4158 52.1818 47.2647C52.3329 47.1136 52.4178 46.9087 52.4178 46.6951V45.8895Z" fill="white"/>
<path d="M52.4178 41.8622C52.4178 41.6485 52.3329 41.4437 52.1818 41.2926C52.0307 41.1415 51.8258 41.0566 51.6122 41.0566C51.3985 41.0566 51.1937 41.1415 51.0426 41.2926C50.8915 41.4437 50.8066 41.6485 50.8066 41.8622V42.6678C50.8066 42.8814 50.8915 43.0863 51.0426 43.2374C51.1937 43.3884 51.3985 43.4733 51.6122 43.4733C51.8258 43.4733 52.0307 43.3884 52.1818 43.2374C52.3329 43.0863 52.4178 42.8814 52.4178 42.6678V41.8622Z" fill="white"/>
<path d="M54.8349 48.3066C54.6212 48.3066 54.4163 48.3915 54.2652 48.5426C54.1142 48.6937 54.0293 48.8985 54.0293 49.1122V49.9178C54.0293 50.1314 54.1142 50.3363 54.2652 50.4874C54.4163 50.6384 54.6212 50.7233 54.8349 50.7233C55.0485 50.7233 55.2534 50.6384 55.4045 50.4874C55.5555 50.3363 55.6404 50.1314 55.6404 49.9178V49.1122C55.6404 48.8985 55.5555 48.6937 55.4045 48.5426C55.2534 48.3915 55.0485 48.3066 54.8349 48.3066Z" fill="white"/>
<path d="M55.6404 45.0849C55.6404 44.8712 55.5555 44.6663 55.4045 44.5152C55.2534 44.3642 55.0485 44.2793 54.8349 44.2793C54.6212 44.2793 54.4163 44.3642 54.2652 44.5152C54.1142 44.6663 54.0293 44.8712 54.0293 45.0849V45.8904C54.0293 46.1041 54.1142 46.309 54.2652 46.46C54.4163 46.6111 54.6212 46.696 54.8349 46.696C55.0485 46.696 55.2534 46.6111 55.4045 46.46C55.5555 46.309 55.6404 46.1041 55.6404 45.8904V45.0849Z" fill="white"/>
<path d="M54.0293 41.8611C54.0293 42.0748 54.1142 42.2797 54.2652 42.4307C54.4163 42.5818 54.6212 42.6667 54.8349 42.6667C55.0485 42.6667 55.2534 42.5818 55.4045 42.4307C55.5555 42.2797 55.6404 42.0748 55.6404 41.8611V41.0556C55.6404 40.8419 55.5555 40.637 55.4045 40.4859C55.2534 40.3349 55.0485 40.25 54.8349 40.25C54.6212 40.25 54.4163 40.3349 54.2652 40.4859C54.1142 40.637 54.0293 40.8419 54.0293 41.0556V41.8611Z" fill="white"/>
<path d="M49.1951 51.5282C49.1951 51.3146 49.1102 51.1097 48.9592 50.9586C48.8081 50.8075 48.6032 50.7227 48.3895 50.7227C48.1759 50.7227 47.971 50.8075 47.8199 50.9586C47.6689 51.1097 47.584 51.3146 47.584 51.5282V52.3338C47.584 52.5474 47.6689 52.7523 47.8199 52.9034C47.971 53.0545 48.1759 53.1393 48.3895 53.1393C48.6032 53.1393 48.8081 53.0545 48.9592 52.9034C49.1102 52.7523 49.1951 52.5474 49.1951 52.3338V51.5282Z" fill="white"/>
<path d="M48.3895 54.75C48.1759 54.75 47.971 54.8349 47.8199 54.9859C47.6689 55.137 47.584 55.3419 47.584 55.5556V56.3611C47.584 56.5748 47.6689 56.7797 47.8199 56.9307C47.971 57.0818 48.1759 57.1667 48.3895 57.1667C48.6032 57.1667 48.8081 57.0818 48.9592 56.9307C49.1102 56.7797 49.1951 56.5748 49.1951 56.3611V55.5556C49.1951 55.3419 49.1102 55.137 48.9592 54.9859C48.8081 54.8349 48.6032 54.75 48.3895 54.75Z" fill="white"/>
<path d="M49.1951 47.5009C49.1951 47.2872 49.1102 47.0823 48.9592 46.9313C48.8081 46.7802 48.6032 46.6953 48.3895 46.6953C48.1759 46.6953 47.971 46.7802 47.8199 46.9313C47.6689 47.0823 47.584 47.2872 47.584 47.5009V48.3064C47.584 48.5201 47.6689 48.725 47.8199 48.876C47.971 49.0271 48.1759 49.112 48.3895 49.112C48.6032 49.112 48.8081 49.0271 48.9592 48.876C49.1102 48.725 49.1951 48.5201 49.1951 48.3064V47.5009Z" fill="white"/>
<path d="M45.9724 50.7235C45.9724 50.5099 45.8876 50.305 45.7365 50.1539C45.5854 50.0028 45.3805 49.918 45.1669 49.918C44.9532 49.918 44.7483 50.0028 44.5973 50.1539C44.4462 50.305 44.3613 50.5099 44.3613 50.7235V51.5291C44.3613 51.7427 44.4462 51.9476 44.5973 52.0987C44.7483 52.2498 44.9532 52.3346 45.1669 52.3346C45.3805 52.3346 45.5854 52.2498 45.7365 52.0987C45.8876 51.9476 45.9724 51.7427 45.9724 51.5291V50.7235Z" fill="white"/>
<path d="M45.1669 53.9453C44.9532 53.9453 44.7483 54.0302 44.5973 54.1813C44.4462 54.3323 44.3613 54.5372 44.3613 54.7509V55.5564C44.3613 55.7701 44.4462 55.975 44.5973 56.126C44.7483 56.2771 44.9532 56.362 45.1669 56.362C45.3805 56.362 45.5854 56.2771 45.7365 56.126C45.8876 55.975 45.9724 55.7701 45.9724 55.5564V54.7509C45.9724 54.5372 45.8876 54.3323 45.7365 54.1813C45.5854 54.0302 45.3805 53.9453 45.1669 53.9453Z" fill="white"/>
<path d="M45.9724 46.6942C45.9724 46.4806 45.8876 46.2757 45.7365 46.1246C45.5854 45.9735 45.3805 45.8887 45.1669 45.8887C44.9532 45.8887 44.7483 45.9735 44.5973 46.1246C44.4462 46.2757 44.3613 46.4806 44.3613 46.6942V47.4998C44.3613 47.7134 44.4462 47.9183 44.5973 48.0694C44.7483 48.2205 44.9532 48.3053 45.1669 48.3053C45.3805 48.3053 45.5854 48.2205 45.7365 48.0694C45.8876 47.9183 45.9724 47.7134 45.9724 47.4998V46.6942Z" fill="white"/>
<path d="M49.1951 43.4735C49.1951 43.2599 49.1102 43.055 48.9592 42.9039C48.8081 42.7528 48.6032 42.668 48.3895 42.668C48.1759 42.668 47.971 42.7528 47.8199 42.9039C47.6689 43.055 47.584 43.2599 47.584 43.4735V44.2791C47.584 44.4927 47.6689 44.6976 47.8199 44.8487C47.971 44.9998 48.1759 45.0846 48.3895 45.0846C48.6032 45.0846 48.8081 44.9998 48.9592 44.8487C49.1102 44.6976 49.1951 44.4927 49.1951 44.2791V43.4735Z" fill="white"/>
</g>
<defs>
<clipPath id="clip0_677_926">
<rect width="48.3333" height="48.3333" fill="white" transform="translate(25.834 23.334)"/>
</clipPath>
</defs>
</svg>
