<svg width="100" height="100" viewBox="0 0 100 100" fill="none" xmlns="http://www.w3.org/2000/svg">
<rect width="100" height="100" fill="#259BF1"/>
<g clip-path="url(#clip0_659_341)">
<path d="M83.148 24.0841C78.6011 19.4694 72.5309 16.915 66.0556 16.8908C66.0248 16.8906 65.9945 16.8906 65.9636 16.8906C60.0223 16.8906 54.4112 19.0234 50 22.9306C45.5884 19.0233 39.9781 16.8906 34.0363 16.8906C34.0059 16.8906 33.9749 16.8906 33.9443 16.8908C27.4687 16.9148 21.3985 19.4694 16.8519 24.0841C7.58895 33.4853 7.73645 48.8177 17.181 58.2623L36.4035 77.4848C40.1521 81.2332 45.0762 83.1076 50.0003 83.1076C54.9244 83.1076 59.8483 81.2332 63.597 77.4848L82.8196 58.2623C92.2633 48.8177 92.4108 33.4855 83.148 24.0841ZM80.6433 56.0868L61.4209 75.309C58.3701 78.3598 54.3142 80.0398 49.9998 80.0398C45.6854 80.0398 41.6295 78.3596 38.5787 75.309L19.3562 56.0868C11.1024 47.833 10.9619 34.4452 19.0432 26.2435C23.0102 22.2172 28.3062 19.9883 33.9556 19.9675C33.9824 19.9673 34.009 19.9673 34.0357 19.9673C39.6556 19.9673 44.936 22.1544 48.912 26.1302C49.2006 26.4186 49.5917 26.5808 49.9997 26.5808C50.4076 26.5808 50.7987 26.4186 51.0873 26.1302C55.0634 22.1539 60.3434 19.9673 65.9636 19.9673C65.9902 19.9673 66.0173 19.9673 66.0437 19.9675C71.6933 19.9884 76.9891 22.2172 80.9561 26.2435C89.0377 34.4452 88.8972 47.833 80.6433 56.0868Z" fill="white"/>
<g clip-path="url(#clip1_659_341)">
<path d="M36.6542 57.1289C37.3644 58.0394 37.7516 59.1603 37.7549 60.315V65.4003C37.7549 65.9131 37.9586 66.4048 38.3212 66.7674C38.6837 67.13 39.1755 67.3337 39.6882 67.3337H52.5771C53.0899 67.3337 53.5816 67.13 53.9442 66.7674C54.3068 66.4048 54.5105 65.9131 54.5105 65.4003V63.9568C56.617 63.6557 58.6219 62.8586 60.3601 61.631L65.5479 66.8252C65.8788 67.1506 66.3245 67.3326 66.7886 67.3318C67.2526 67.3311 67.6978 67.1477 68.0277 66.8213L68.821 66.0287C69.1476 65.6978 69.3307 65.2517 69.3307 64.7868C69.3307 64.322 69.1476 63.8758 68.821 63.545L63.6306 58.3611C64.8374 56.6565 65.6319 54.6951 65.9517 52.6312C66.2716 50.5674 66.1079 48.4575 65.4737 46.4676C64.8395 44.4778 63.752 42.6623 62.2969 41.1642C60.8418 39.666 59.0588 38.5261 57.0882 37.8342V34.5759C57.0961 33.7622 56.8037 32.9742 56.267 32.3625C55.7304 31.7508 54.987 31.3583 54.1792 31.2603C53.7334 31.2166 53.2833 31.2663 52.8578 31.4064C52.4322 31.5464 52.0406 31.7736 51.7078 32.0735C51.5307 31.5786 51.2343 31.135 50.8448 30.7821C50.4552 30.4292 49.9846 30.1778 49.4747 30.0503C48.9647 29.9228 48.4312 29.9232 47.9214 30.0513C47.4116 30.1794 46.9413 30.4313 46.5522 30.7847C46.375 30.289 46.078 29.8448 45.6877 29.4916C45.2973 29.1384 44.8257 28.8872 44.3149 28.7602C43.804 28.6333 43.2696 28.6346 42.7594 28.7641C42.2491 28.8935 41.7788 29.1471 41.3902 29.5022C41.1307 29.7373 40.9115 30.0133 40.7413 30.3194C40.6845 30.2601 40.6259 30.2021 40.564 30.1467C40.2309 29.8452 39.8385 29.6165 39.4119 29.4754C38.9854 29.3342 38.534 29.2837 38.0868 29.3269C37.2789 29.4249 36.5354 29.8172 35.9986 30.4289C35.4618 31.0406 35.1693 31.8288 35.1771 32.6426V35.1514C33.9318 35.31 32.787 35.9168 31.9567 36.8583C31.1264 37.7999 30.6676 39.0117 30.666 40.267V47.285C30.6701 48.7277 31.1539 50.1282 32.0413 51.2657L36.6542 57.1289ZM67.9098 65.12L67.1171 65.912C67.0288 65.9985 66.9101 66.047 66.7865 66.047C66.6629 66.047 66.5442 65.9985 66.4559 65.912L63.137 62.5893L64.587 61.1393L67.9059 64.4543C67.993 64.5425 68.042 64.6613 68.0426 64.7852C68.0432 64.9091 67.9953 65.0284 67.9091 65.1174L67.9098 65.12ZM63.6745 60.2267L62.2258 61.6755L61.3841 60.8325C61.902 60.3868 62.3858 59.903 62.8315 59.3851L63.6745 60.2267ZM64.8216 50.5781C64.8216 52.9998 64.1035 55.3672 62.758 57.3808C61.4126 59.3944 59.5003 60.9638 57.2629 61.8905C55.0255 62.8173 52.5635 63.0597 50.1884 62.5873C47.8132 62.1148 45.6314 60.9487 43.919 59.2362C42.2066 57.5238 41.0404 55.3421 40.568 52.9669C40.0955 50.5917 40.338 48.1298 41.2647 45.8924C42.1915 43.655 43.7609 41.7427 45.7745 40.3972C47.7881 39.0518 50.1554 38.3337 52.5771 38.3337C55.8235 38.3373 58.9358 39.6284 61.2313 41.9239C63.5268 44.2194 64.818 47.3318 64.8216 50.5781ZM31.9549 40.267C31.9566 39.3541 32.2809 38.4712 32.8705 37.7743C33.4602 37.0773 34.2771 36.6112 35.1771 36.4583V45.4226C35.1771 45.5935 35.245 45.7574 35.3659 45.8783C35.4867 45.9991 35.6507 46.067 35.8216 46.067C35.9925 46.067 36.1564 45.9991 36.2773 45.8783C36.3981 45.7574 36.466 45.5935 36.466 45.4226V35.7559V32.6426C36.456 32.1486 36.6284 31.6682 36.9502 31.2932C37.272 30.9183 37.7207 30.675 38.2105 30.61C38.4791 30.5824 38.7505 30.6118 39.0069 30.6963C39.2633 30.7809 39.499 30.9186 39.6986 31.1004C39.8981 31.2821 40.0576 31.5034 40.1668 31.7502C40.2759 31.997 40.3325 32.2638 40.3327 32.5337C40.3327 32.7046 40.4006 32.8685 40.5214 32.9894C40.6423 33.1102 40.8062 33.1781 40.9771 33.1781C41.148 33.1781 41.312 33.1102 41.4328 32.9894C41.5537 32.8685 41.6216 32.7046 41.6216 32.5337V31.8892C41.6217 31.6194 41.6783 31.3527 41.7877 31.1061C41.8972 30.8595 42.057 30.6385 42.2569 30.4574C42.4569 30.2763 42.6925 30.139 42.9487 30.0544C43.2048 29.9698 43.4759 29.9398 43.7444 29.9662C44.234 30.0314 44.6824 30.2746 45.0041 30.6494C45.3257 31.0242 45.4981 31.5043 45.4882 31.9981V33.1781C45.4882 33.349 45.5561 33.513 45.677 33.6338C45.7978 33.7547 45.9618 33.8226 46.1327 33.8226C46.3036 33.8226 46.4675 33.7547 46.5884 33.6338C46.7092 33.513 46.7771 33.349 46.7771 33.1781C46.7774 32.9084 46.834 32.6416 46.9432 32.395C47.0524 32.1483 47.2118 31.9271 47.4113 31.7455C47.6108 31.5635 47.8466 31.4256 48.1032 31.3411C48.3597 31.2566 48.6312 31.2273 48.8999 31.2551C49.3895 31.3203 49.838 31.5635 50.1596 31.9383C50.4813 32.3131 50.6537 32.7932 50.6438 33.287V34.467C50.6438 34.6379 50.7117 34.8018 50.8325 34.9227C50.9534 35.0436 51.1173 35.1115 51.2882 35.1115C51.4592 35.1115 51.6231 35.0436 51.7439 34.9227C51.8648 34.8018 51.9327 34.6379 51.9327 34.467C51.933 34.1973 51.9896 33.9305 52.0987 33.6839C52.2079 33.4372 52.3673 33.216 52.5668 33.0344C52.7665 32.8526 53.0023 32.7149 53.2588 32.6304C53.5154 32.5459 53.7868 32.5165 54.0555 32.544C54.5451 32.6091 54.9935 32.8524 55.3152 33.2272C55.6369 33.602 55.8092 34.0821 55.7994 34.5759V37.4489C53.9407 36.9919 52.0063 36.9346 50.1238 37.2807C48.2414 37.6268 46.4539 38.3684 44.8793 39.4566C43.3048 40.5447 41.9791 41.9547 40.9898 43.5932C40.0006 45.2317 39.3703 47.0615 39.1407 48.9616C38.911 50.8618 39.0872 52.789 39.6577 54.616C40.2281 56.443 41.1798 58.1282 42.4498 59.5601C43.7197 60.9921 45.2792 62.1382 47.0249 62.9228C48.7707 63.7073 50.6631 64.1125 52.5771 64.1115C52.795 64.1115 53.0063 64.0889 53.2216 64.0786V65.4003C53.2216 65.5713 53.1537 65.7352 53.0328 65.856C52.912 65.9769 52.748 66.0448 52.5771 66.0448H39.6882C39.5173 66.0448 39.3534 65.9769 39.2325 65.856C39.1117 65.7352 39.0438 65.5713 39.0438 65.4003V60.315C39.0397 58.8723 38.5559 57.4719 37.6685 56.3343L33.0556 50.4699C32.3457 49.5597 31.9585 48.4393 31.9549 47.285V40.267Z" fill="white"/>
<path d="M41.6211 50.5766C41.6213 52.6257 42.1962 54.6335 43.2803 56.3722C44.3645 58.1109 45.9145 59.5107 47.7543 60.4126C49.5942 61.3145 51.6501 61.6824 53.6885 61.4745C55.7269 61.2665 57.6662 60.4911 59.286 59.2362C60.9058 57.9814 62.1413 56.2974 62.852 54.3757C63.5627 52.4539 63.7203 50.3713 63.3068 48.3644C62.8932 46.3576 61.9252 44.5069 60.5126 43.0227C59.1 41.5384 57.2995 40.4801 55.3155 39.9678C55.1515 39.9292 54.9789 39.9564 54.8347 40.0436C54.6905 40.1307 54.5862 40.2709 54.5441 40.434C54.5019 40.5971 54.5254 40.7703 54.6093 40.9163C54.6933 41.0624 54.8311 41.1698 54.9933 41.2154C55.267 41.2863 55.5355 41.3686 55.7989 41.4623V48.8366C55.8003 49.4682 55.6686 50.0929 55.4122 50.6701L53.7257 54.4685C53.3935 55.2107 53.2216 56.0146 53.2211 56.8278V60.2105C53.0071 60.2246 52.7945 60.2433 52.5767 60.2433C50.0129 60.2433 47.5541 59.2249 45.7413 57.412C43.9284 55.5992 42.91 53.1404 42.91 50.5766C42.91 48.0129 43.9284 45.5541 45.7413 43.7413C47.5541 41.9284 50.0129 40.91 52.5767 40.91C52.7476 40.91 52.9115 40.8421 53.0323 40.7212C53.1532 40.6004 53.2211 40.4365 53.2211 40.2655C53.2211 40.0946 53.1532 39.9307 53.0323 39.8098C52.9115 39.689 52.7476 39.6211 52.5767 39.6211C49.6721 39.6243 46.8873 40.7796 44.8335 42.8335C42.7796 44.8873 41.6243 47.6721 41.6211 50.5766ZM54.51 56.8278C54.5085 56.1962 54.6403 55.5715 54.8966 54.9943L56.5832 51.196C56.9154 50.4537 57.0873 49.6498 57.0878 48.8366V42.0313C58.8497 42.9618 60.281 44.414 61.1859 46.1892C62.0908 47.9643 62.425 49.9758 62.1429 51.9482C61.8607 53.9207 60.9759 55.7577 59.6096 57.208C58.2432 58.6582 56.4621 59.6509 54.51 60.05V56.8278Z" fill="white"/>
<path d="M51.289 55.7324C51.1181 55.7324 50.9541 55.8003 50.8333 55.9212C50.7124 56.042 50.6445 56.2059 50.6445 56.3769V57.0213C50.6445 57.1922 50.7124 57.3561 50.8333 57.477C50.9541 57.5979 51.1181 57.6658 51.289 57.6658C51.4599 57.6658 51.6238 57.5979 51.7447 57.477C51.8655 57.3561 51.9334 57.1922 51.9334 57.0213V56.3769C51.9334 56.2059 51.8655 56.042 51.7447 55.9212C51.6238 55.8003 51.4599 55.7324 51.289 55.7324Z" fill="white"/>
<path d="M51.9334 53.1542C51.9334 52.9833 51.8655 52.8194 51.7447 52.6985C51.6238 52.5777 51.4599 52.5098 51.289 52.5098C51.1181 52.5098 50.9541 52.5777 50.8333 52.6985C50.7124 52.8194 50.6445 52.9833 50.6445 53.1542V53.7987C50.6445 53.9696 50.7124 54.1335 50.8333 54.2543C50.9541 54.3752 51.1181 54.4431 51.289 54.4431C51.4599 54.4431 51.6238 54.3752 51.7447 54.2543C51.8655 54.1335 51.9334 53.9696 51.9334 53.7987V53.1542Z" fill="white"/>
<path d="M51.9334 49.9335C51.9334 49.7626 51.8655 49.5987 51.7447 49.4778C51.6238 49.357 51.4599 49.2891 51.289 49.2891C51.1181 49.2891 50.9541 49.357 50.8333 49.4778C50.7124 49.5987 50.6445 49.7626 50.6445 49.9335V50.578C50.6445 50.7489 50.7124 50.9128 50.8333 51.0336C50.9541 51.1545 51.1181 51.2224 51.289 51.2224C51.4599 51.2224 51.6238 51.1545 51.7447 51.0336C51.8655 50.9128 51.9334 50.7489 51.9334 50.578V49.9335Z" fill="white"/>
<path d="M51.9334 46.7109C51.9334 46.5399 51.8655 46.376 51.7447 46.2552C51.6238 46.1343 51.4599 46.0664 51.289 46.0664C51.1181 46.0664 50.9541 46.1343 50.8333 46.2552C50.7124 46.376 50.6445 46.5399 50.6445 46.7109V47.3553C50.6445 47.5262 50.7124 47.6901 50.8333 47.811C50.9541 47.9318 51.1181 47.9997 51.289 47.9997C51.4599 47.9997 51.6238 47.9318 51.7447 47.811C51.8655 47.6901 51.9334 47.5262 51.9334 47.3553V46.7109Z" fill="white"/>
<path d="M51.9334 43.4882C51.9334 43.3173 51.8655 43.1534 51.7447 43.0325C51.6238 42.9116 51.4599 42.8438 51.289 42.8438C51.1181 42.8438 50.9541 42.9116 50.8333 43.0325C50.7124 43.1534 50.6445 43.3173 50.6445 43.4882V44.1326C50.6445 44.3036 50.7124 44.4675 50.8333 44.5883C50.9541 44.7092 51.1181 44.7771 51.289 44.7771C51.4599 44.7771 51.6238 44.7092 51.7447 44.5883C51.8655 44.4675 51.9334 44.3036 51.9334 44.1326V43.4882Z" fill="white"/>
<path d="M53.8651 48.6445C53.6942 48.6445 53.5303 48.7124 53.4095 48.8333C53.2886 48.9541 53.2207 49.1181 53.2207 49.289V49.9334C53.2207 50.1043 53.2886 50.2683 53.4095 50.3891C53.5303 50.51 53.6942 50.5779 53.8651 50.5779C54.0361 50.5779 54.2 50.51 54.3208 50.3891C54.4417 50.2683 54.5096 50.1043 54.5096 49.9334V49.289C54.5096 49.1181 54.4417 48.9541 54.3208 48.8333C54.2 48.7124 54.0361 48.6445 53.8651 48.6445Z" fill="white"/>
<path d="M54.5096 46.0663C54.5096 45.8954 54.4417 45.7315 54.3208 45.6106C54.2 45.4898 54.0361 45.4219 53.8651 45.4219C53.6942 45.4219 53.5303 45.4898 53.4095 45.6106C53.2886 45.7315 53.2207 45.8954 53.2207 46.0663V46.7108C53.2207 46.8817 53.2886 47.0456 53.4095 47.1665C53.5303 47.2873 53.6942 47.3552 53.8651 47.3552C54.0361 47.3552 54.2 47.2873 54.3208 47.1665C54.4417 47.0456 54.5096 46.8817 54.5096 46.7108V46.0663Z" fill="white"/>
<path d="M53.2207 43.4881C53.2207 43.659 53.2886 43.8229 53.4095 43.9438C53.5303 44.0647 53.6942 44.1326 53.8651 44.1326C54.0361 44.1326 54.2 44.0647 54.3208 43.9438C54.4417 43.8229 54.5096 43.659 54.5096 43.4881V42.8437C54.5096 42.6727 54.4417 42.5088 54.3208 42.388C54.2 42.2671 54.0361 42.1992 53.8651 42.1992C53.6942 42.1992 53.5303 42.2671 53.4095 42.388C53.2886 42.5088 53.2207 42.6727 53.2207 42.8437V43.4881Z" fill="white"/>
<path d="M49.3553 51.2206C49.3553 51.0497 49.2874 50.8858 49.1665 50.7649C49.0457 50.6441 48.8818 50.5762 48.7109 50.5762C48.5399 50.5762 48.376 50.6441 48.2552 50.7649C48.1343 50.8858 48.0664 51.0497 48.0664 51.2206V51.8651C48.0664 52.036 48.1343 52.1999 48.2552 52.3208C48.376 52.4416 48.5399 52.5095 48.7109 52.5095C48.8818 52.5095 49.0457 52.4416 49.1665 52.3208C49.2874 52.1999 49.3553 52.036 49.3553 51.8651V51.2206Z" fill="white"/>
<path d="M48.7109 53.7988C48.5399 53.7988 48.376 53.8667 48.2552 53.9876C48.1343 54.1084 48.0664 54.2724 48.0664 54.4433V55.0877C48.0664 55.2586 48.1343 55.4226 48.2552 55.5434C48.376 55.6643 48.5399 55.7322 48.7109 55.7322C48.8818 55.7322 49.0457 55.6643 49.1665 55.5434C49.2874 55.4226 49.3553 55.2586 49.3553 55.0877V54.4433C49.3553 54.2724 49.2874 54.1084 49.1665 53.9876C49.0457 53.8667 48.8818 53.7988 48.7109 53.7988Z" fill="white"/>
<path d="M49.3553 47.9999C49.3553 47.829 49.2874 47.6651 49.1665 47.5442C49.0457 47.4234 48.8818 47.3555 48.7109 47.3555C48.5399 47.3555 48.376 47.4234 48.2552 47.5442C48.1343 47.6651 48.0664 47.829 48.0664 47.9999V48.6444C48.0664 48.8153 48.1343 48.9792 48.2552 49.1C48.376 49.2209 48.5399 49.2888 48.7109 49.2888C48.8818 49.2888 49.0457 49.2209 49.1665 49.1C49.2874 48.9792 49.3553 48.8153 49.3553 48.6444V47.9999Z" fill="white"/>
<path d="M46.7772 50.578C46.7772 50.4071 46.7093 50.2432 46.5884 50.1223C46.4676 50.0015 46.3036 49.9336 46.1327 49.9336C45.9618 49.9336 45.7979 50.0015 45.677 50.1223C45.5562 50.2432 45.4883 50.4071 45.4883 50.578V51.2225C45.4883 51.3934 45.5562 51.5573 45.677 51.6782C45.7979 51.799 45.9618 51.8669 46.1327 51.8669C46.3036 51.8669 46.4676 51.799 46.5884 51.6782C46.7093 51.5573 46.7772 51.3934 46.7772 51.2225V50.578Z" fill="white"/>
<path d="M46.1327 53.1543C45.9618 53.1543 45.7979 53.2222 45.677 53.343C45.5562 53.4639 45.4883 53.6278 45.4883 53.7987V54.4432C45.4883 54.6141 45.5562 54.778 45.677 54.8989C45.7979 55.0197 45.9618 55.0876 46.1327 55.0876C46.3036 55.0876 46.4676 55.0197 46.5884 54.8989C46.7093 54.778 46.7772 54.6141 46.7772 54.4432V53.7987C46.7772 53.6278 46.7093 53.4639 46.5884 53.343C46.4676 53.2222 46.3036 53.1543 46.1327 53.1543Z" fill="white"/>
<path d="M46.7772 47.3554C46.7772 47.1845 46.7093 47.0205 46.5884 46.8997C46.4676 46.7788 46.3036 46.7109 46.1327 46.7109C45.9618 46.7109 45.7979 46.7788 45.677 46.8997C45.5562 47.0205 45.4883 47.1845 45.4883 47.3554V47.9998C45.4883 48.1707 45.5562 48.3347 45.677 48.4555C45.7979 48.5764 45.9618 48.6443 46.1327 48.6443C46.3036 48.6443 46.4676 48.5764 46.5884 48.4555C46.7093 48.3347 46.7772 48.1707 46.7772 47.9998V47.3554Z" fill="white"/>
<path d="M49.3553 44.7773C49.3553 44.6063 49.2874 44.4424 49.1665 44.3216C49.0457 44.2007 48.8818 44.1328 48.7109 44.1328C48.5399 44.1328 48.376 44.2007 48.2552 44.3216C48.1343 44.4424 48.0664 44.6063 48.0664 44.7773V45.4217C48.0664 45.5926 48.1343 45.7565 48.2552 45.8774C48.376 45.9982 48.5399 46.0661 48.7109 46.0661C48.8818 46.0661 49.0457 45.9982 49.1665 45.8774C49.2874 45.7565 49.3553 45.5926 49.3553 45.4217V44.7773Z" fill="white"/>
</g>
</g>
<defs>
<clipPath id="clip0_659_341">
<rect width="80" height="80" fill="white" transform="translate(10 10)"/>
</clipPath>
<clipPath id="clip1_659_341">
<rect width="38.6667" height="38.6667" fill="white" transform="translate(30.666 28.666)"/>
</clipPath>
</defs>
</svg>
