<svg width="100" height="100" viewBox="0 0 100 100" fill="none" xmlns="http://www.w3.org/2000/svg">
<path d="M91.435 17.607C85.7514 11.8387 78.1637 8.6457 70.0695 8.61543C70.0311 8.61523 69.9932 8.61523 69.9545 8.61523C62.5279 8.61523 55.514 11.2813 50 16.1652C44.4855 11.2811 37.4726 8.61523 30.0454 8.61523C30.0073 8.61523 29.9687 8.61523 29.9304 8.61543C21.8358 8.64551 14.2481 11.8387 8.56492 17.607C-3.01382 29.3586 -2.82944 48.5241 8.97624 60.3298L33.0044 84.358C37.6902 89.0435 43.8453 91.3865 50.0004 91.3865C56.1554 91.3865 62.3103 89.0435 66.9963 84.358L91.0245 60.3298C102.829 48.5241 103.014 29.3588 91.435 17.607ZM88.3041 57.6104L64.2762 81.6382C60.4627 85.4517 55.3927 87.5517 49.9998 87.5517C44.6068 87.5517 39.5369 85.4515 35.7234 81.6382L11.6952 57.6104C1.37799 47.2932 1.2024 30.5584 11.304 20.3063C16.2628 15.2734 22.8827 12.4873 29.9444 12.4613C29.978 12.4611 30.0112 12.4611 30.0446 12.4611C37.0695 12.4611 43.6701 15.1949 48.64 20.1647C49.0007 20.5252 49.4896 20.728 49.9996 20.728C50.5095 20.728 50.9984 20.5252 51.3591 20.1647C56.3293 15.1943 62.9293 12.4611 69.9545 12.4611C69.9877 12.4611 70.0217 12.4611 70.0547 12.4613C77.1166 12.4875 83.7364 15.2734 88.6952 20.3063C98.7971 30.5584 98.6215 47.2932 88.3041 57.6104Z" fill="white"/>
<g clip-path="url(#clip0_677_1128)">
<path d="M69.1578 60.1877C68.7389 60.1877 68.3992 60.5273 68.3992 60.9462V67.7965C68.3992 69.8007 66.7687 71.4313 64.7645 71.4313H33.3179C31.3137 71.4313 29.6831 69.8007 29.6831 67.7965V32.6714C29.6831 30.6672 31.3137 29.0366 33.3179 29.0366H37.7032C38.1221 29.0366 38.4617 28.697 38.4617 28.2781C38.4617 27.8592 38.1221 27.5195 37.7032 27.5195H33.3179C30.4772 27.5195 28.166 29.8307 28.166 32.6714V67.7964C28.166 70.6372 30.4772 72.9483 33.3179 72.9483H64.7644C67.6051 72.9483 69.9162 70.6372 69.9162 67.7964V60.9462C69.9163 60.5273 69.5767 60.1877 69.1578 60.1877Z" fill="white"/>
<path d="M60.3796 29.0366H64.765C66.7692 29.0366 68.3997 30.6672 68.3997 32.6714V37.4081C68.3997 37.827 68.7394 38.1666 69.1583 38.1666C69.5772 38.1666 69.9168 37.827 69.9168 37.4081V32.6714C69.9168 29.8307 67.6057 27.5195 64.765 27.5195H60.3796C59.9607 27.5195 59.6211 27.8592 59.6211 28.2781C59.6211 28.697 59.9607 29.0366 60.3796 29.0366Z" fill="white"/>
<path d="M31.9597 39.7969C31.5408 39.7969 31.2012 40.1365 31.2012 40.5554V67.7955C31.2012 68.9632 32.1512 69.9132 33.3188 69.9132H64.7653C65.933 69.9132 66.883 68.9632 66.883 67.7955V60.9749C66.883 60.556 66.5434 60.2164 66.1244 60.2164C65.7055 60.2164 65.3659 60.556 65.3659 60.9749V67.7955C65.3659 68.1266 65.0965 68.3961 64.7653 68.3961H33.3188C32.9877 68.3961 32.7183 68.1266 32.7183 67.7955V40.5554C32.7183 40.1365 32.3786 39.7969 31.9597 39.7969Z" fill="white"/>
<path d="M37.8974 30.5527H33.3188C32.1512 30.5527 31.2012 31.5027 31.2012 32.6704V37.3227C31.2012 37.7417 31.5408 38.0813 31.9597 38.0813C32.3786 38.0813 32.7183 37.7417 32.7183 37.3227V32.6704C32.7183 32.3393 32.9877 32.0698 33.3188 32.0698H37.8973C38.3163 32.0698 38.6559 31.7302 38.6559 31.3113C38.6559 30.8924 38.3164 30.5527 37.8974 30.5527Z" fill="white"/>
<path d="M60.1863 32.0698H64.7648C65.0959 32.0698 65.3653 32.3393 65.3653 32.6704V37.4352C65.3653 37.8541 65.705 38.1937 66.1239 38.1937C66.5428 38.1937 66.8824 37.8541 66.8824 37.4352V32.6704C66.8824 31.5027 65.9324 30.5527 64.7648 30.5527H60.1863C59.7674 30.5527 59.4277 30.8924 59.4277 31.3113C59.4277 31.7302 59.7674 32.0698 60.1863 32.0698Z" fill="white"/>
<path d="M42.8627 32.801H46.3896C46.8085 32.801 47.1481 32.4614 47.1481 32.0424C47.1481 31.6235 46.8085 31.2839 46.3896 31.2839H42.8627C42.1089 31.2839 41.4956 30.6706 41.4956 29.9168V27.5268C41.4956 26.773 42.1089 26.1596 42.8627 26.1596H44.0763C44.6347 26.1596 45.089 25.7053 45.089 25.1469V24.3984C45.089 24.1257 45.3109 23.9038 45.5836 23.9038H52.498C52.7707 23.9038 52.9926 24.1257 52.9926 24.3984V25.1469C52.9926 25.7053 53.4469 26.1596 54.0053 26.1596H55.2189C55.9727 26.1596 56.586 26.773 56.586 27.5268V29.9168C56.586 30.6706 55.9727 31.2839 55.2189 31.2839H49.6222C49.2033 31.2839 48.8636 31.6235 48.8636 32.0424C48.8636 32.4614 49.2033 32.801 49.6222 32.801H55.2189C56.8093 32.801 58.1031 31.5072 58.1031 29.9168V27.5268C58.1031 25.9364 56.8093 24.6425 55.2189 24.6425H54.5097V24.3984C54.5097 23.2892 53.6072 22.3867 52.498 22.3867H45.5836C44.4744 22.3867 43.5719 23.2892 43.5719 24.3984V24.6425H42.8627C41.2723 24.6425 39.9785 25.9364 39.9785 27.5268V29.9168C39.9785 31.5072 41.2724 32.801 42.8627 32.801Z" fill="white"/>
<path d="M52.2049 28.0144C52.2049 27.5955 51.8652 27.2559 51.4463 27.2559H46.6355C46.2166 27.2559 45.877 27.5955 45.877 28.0144C45.877 28.4333 46.2166 28.773 46.6355 28.773H51.4463C51.8652 28.773 52.2049 28.4333 52.2049 28.0144Z" fill="white"/>
<path d="M78.6723 42.4463C76.7006 39.375 72.7196 38.2228 69.4125 39.7662L67.6853 40.5722C67.6344 40.596 67.5761 40.5958 67.5253 40.5722L65.7981 39.7662C62.4908 38.2228 58.5101 39.375 56.5382 42.4463C55.5459 43.9921 55.1717 45.8403 55.4847 47.6505C55.7977 49.4606 56.7707 51.0759 58.2246 52.1988L66.5377 58.6192C66.852 58.8619 67.2285 58.9832 67.6052 58.9832C67.9818 58.9832 68.3584 58.8619 68.6727 58.6191L71.8433 56.1704C72.1749 55.9143 72.2361 55.438 71.9801 55.1063C71.724 54.7748 71.2476 54.7137 70.916 54.9696L67.7455 57.4183C67.6629 57.482 67.5476 57.4821 67.4652 57.4183L59.1521 50.9979C58.8259 50.746 58.5316 50.462 58.2697 50.1529H61.451C61.7921 50.1529 62.0912 49.9253 62.1822 49.5965L63.0363 46.508L65.4109 53.093C65.519 53.3926 65.8027 53.5928 66.121 53.5943H66.1246C66.4416 53.5943 66.7254 53.3971 66.8357 53.0996L69.0894 47.0249L69.7706 49.2527C69.8681 49.5716 70.1625 49.7894 70.4959 49.7894H77.2254C76.8999 50.2422 76.5088 50.6502 76.0585 50.998L73.4955 52.9774C73.1639 53.2335 73.1027 53.7099 73.3587 54.0415C73.6149 54.3731 74.0911 54.4343 74.4228 54.1783L76.9859 52.1988C78.4398 51.0759 79.4128 49.4606 79.7258 47.6505C80.0388 45.8403 79.6647 43.9922 78.6723 42.4463ZM71.0573 48.2723L69.8841 44.4356C69.7889 44.1245 69.506 43.9086 69.1808 43.8991C68.8542 43.8872 68.5605 44.0885 68.4475 44.3935L66.1346 50.6278L63.6543 43.75C63.5424 43.4392 63.2417 43.2384 62.9119 43.2494C62.5818 43.262 62.2978 43.4868 62.2098 43.8053L60.8738 48.636H57.3418C57.1768 48.2393 57.0543 47.8228 56.9797 47.392C56.7315 45.9569 57.0282 44.4915 57.815 43.2659C59.3783 40.8307 62.5345 39.9174 65.1566 41.141L66.8836 41.947C67.3422 42.1609 67.8683 42.161 68.3268 41.947L70.0541 41.141C72.676 39.9174 75.8323 40.8308 77.3956 43.2659C78.1824 44.4915 78.479 45.9568 78.2309 47.392C78.1788 47.6932 78.1024 47.987 78.0056 48.2724L71.0573 48.2723Z" fill="white"/>
<path d="M37.3388 43.3719H40.9032C41.7685 43.3719 42.4726 42.6679 42.4726 41.8025V37.8721C42.4726 37.0068 41.7685 36.3027 40.9032 36.3027H37.3388C36.4735 36.3027 35.7695 37.0068 35.7695 37.8721V41.8025C35.7695 42.6679 36.4735 43.3719 37.3388 43.3719ZM37.2866 37.8721C37.2866 37.8433 37.31 37.8198 37.3388 37.8198H40.9032C40.932 37.8198 40.9555 37.8433 40.9555 37.8721V41.8025C40.9555 41.8313 40.932 41.8548 40.9032 41.8548H37.3388C37.31 41.8548 37.2866 41.8313 37.2866 41.8025V37.8721Z" fill="white"/>
<path d="M35.7695 51.7868C35.7695 52.6521 36.4735 53.3562 37.3388 53.3562H40.9032C41.7685 53.3562 42.4726 52.6521 42.4726 51.7868V47.8564C42.4726 46.991 41.7685 46.2871 40.9032 46.2871H37.3388C36.4735 46.2871 35.7695 46.991 35.7695 47.8564V51.7868ZM37.2866 47.8564C37.2866 47.8276 37.31 47.8042 37.3388 47.8042H40.9032C40.932 47.8042 40.9555 47.8276 40.9555 47.8564V51.7868C40.9555 51.8156 40.932 51.8391 40.9032 51.8391H37.3388C37.31 51.8391 37.2866 51.8156 37.2866 51.7868V47.8564Z" fill="white"/>
<path d="M35.7695 61.7731C35.7695 62.6385 36.4735 63.3425 37.3388 63.3425H40.9032C41.7685 63.3425 42.4726 62.6385 42.4726 61.7731V57.8427C42.4726 56.9774 41.7685 56.2734 40.9032 56.2734H37.3388C36.4735 56.2734 35.7695 56.9774 35.7695 57.8427V61.7731ZM37.2866 57.8427C37.2866 57.8139 37.31 57.7905 37.3388 57.7905H40.9032C40.932 57.7905 40.9555 57.8139 40.9555 57.8427V61.7731C40.9555 61.8019 40.932 61.8254 40.9032 61.8254H37.3388C37.31 61.8254 37.2866 61.8019 37.2866 61.7731V57.8427Z" fill="white"/>
<path d="M44.7234 38.1948H53.5477C53.9667 38.1948 54.3063 37.8552 54.3063 37.4363C54.3063 37.0174 53.9667 36.6777 53.5477 36.6777H44.7234C44.3045 36.6777 43.9648 37.0174 43.9648 37.4363C43.9648 37.8552 44.3045 38.1948 44.7234 38.1948Z" fill="white"/>
<path d="M44.7234 43.0503H53.5477C53.9667 43.0503 54.3063 42.7107 54.3063 42.2918C54.3063 41.8728 53.9667 41.5332 53.5477 41.5332H44.7234C44.3045 41.5332 43.9648 41.8728 43.9648 42.2918C43.9648 42.7107 44.3045 43.0503 44.7234 43.0503Z" fill="white"/>
<path d="M44.7234 48.1519H53.5477C53.9667 48.1519 54.3063 47.8122 54.3063 47.3933C54.3063 46.9744 53.9667 46.6348 53.5477 46.6348H44.7234C44.3045 46.6348 43.9648 46.9744 43.9648 47.3933C43.9648 47.8123 44.3045 48.1519 44.7234 48.1519Z" fill="white"/>
<path d="M54.7614 51.4922H44.7234C44.3045 51.4922 43.9648 51.8318 43.9648 52.2507C43.9648 52.6697 44.3045 53.0093 44.7234 53.0093H54.7614C55.1803 53.0093 55.52 52.6697 55.52 52.2507C55.52 51.8318 55.1803 51.4922 54.7614 51.4922Z" fill="white"/>
<path d="M58.6886 56.5938H44.7234C44.3045 56.5938 43.9648 56.9334 43.9648 57.3523C43.9648 57.7712 44.3045 58.1108 44.7234 58.1108H58.6886C59.1075 58.1108 59.4471 57.7712 59.4471 57.3523C59.4471 56.9334 59.1075 56.5938 58.6886 56.5938Z" fill="white"/>
<path d="M61.8867 61.4492H44.7234C44.3045 61.4492 43.9648 61.7888 43.9648 62.2078C43.9648 62.6267 44.3045 62.9663 44.7234 62.9663H61.8867C62.3056 62.9663 62.6453 62.6267 62.6453 62.2078C62.6453 61.7888 62.3056 61.4492 61.8867 61.4492Z" fill="white"/>
</g>
<defs>
<clipPath id="clip0_677_1128">
<rect width="51.6667" height="51.6667" fill="white" transform="translate(28.166 21.834)"/>
</clipPath>
</defs>
</svg>
