<svg width="100" height="100" viewBox="0 0 100 100" fill="none" xmlns="http://www.w3.org/2000/svg">
<rect width="100" height="100" fill="#259BF1"/>
<path d="M83.148 24.0841C78.6011 19.4694 72.5309 16.915 66.0556 16.8908C66.0248 16.8906 65.9945 16.8906 65.9636 16.8906C60.0223 16.8906 54.4112 19.0234 50 22.9306C45.5884 19.0233 39.9781 16.8906 34.0363 16.8906C34.0059 16.8906 33.9749 16.8906 33.9443 16.8908C27.4687 16.9148 21.3985 19.4694 16.8519 24.0841C7.58895 33.4853 7.73645 48.8177 17.181 58.2623L36.4035 77.4848C40.1521 81.2332 45.0762 83.1076 50.0003 83.1076C54.9244 83.1076 59.8483 81.2332 63.597 77.4848L82.8196 58.2623C92.2633 48.8177 92.4108 33.4855 83.148 24.0841ZM80.6433 56.0868L61.4209 75.309C58.3701 78.3598 54.3142 80.0398 49.9998 80.0398C45.6854 80.0398 41.6295 78.3596 38.5787 75.309L19.3562 56.0868C11.1024 47.833 10.9619 34.4452 19.0432 26.2435C23.0102 22.2172 28.3062 19.9883 33.9556 19.9675C33.9824 19.9673 34.009 19.9673 34.0357 19.9673C39.6556 19.9673 44.9361 22.1544 48.912 26.1302C49.2006 26.4186 49.5917 26.5808 49.9997 26.5808C50.4076 26.5808 50.7987 26.4186 51.0873 26.1302C55.0634 22.1539 60.3434 19.9673 65.9636 19.9673C65.9902 19.9673 66.0173 19.9673 66.0437 19.9675C71.6933 19.9884 76.9891 22.2172 80.9561 26.2435C89.0377 34.4452 88.8972 47.833 80.6433 56.0868Z" fill="white"/>
<g clip-path="url(#clip0_659_339)">
<path d="M65.3266 58.1482C64.9915 58.1482 64.7198 58.4199 64.7198 58.755V64.2353C64.7198 65.8386 63.4153 67.1431 61.812 67.1431H36.6547C35.0513 67.1431 33.7469 65.8386 33.7469 64.2353V36.1352C33.7469 34.5318 35.0513 33.2273 36.6547 33.2273H40.1629C40.4981 33.2273 40.7698 32.9556 40.7698 32.6205C40.7698 32.2854 40.4981 32.0137 40.1629 32.0137H36.6547C34.3821 32.0137 32.5332 33.8626 32.5332 36.1352V64.2352C32.5332 66.5078 34.3821 68.3567 36.6547 68.3567H61.8119C64.0845 68.3567 65.9334 66.5078 65.9334 64.2352V58.755C65.9335 58.4199 65.6618 58.1482 65.3266 58.1482Z" fill="white"/>
<path d="M58.3041 33.2273H61.8124C63.4157 33.2273 64.7202 34.5318 64.7202 36.1352V39.9245C64.7202 40.2596 64.9919 40.5313 65.327 40.5313C65.6621 40.5313 65.9338 40.2596 65.9338 39.9245V36.1352C65.9338 33.8626 64.0849 32.0137 61.8124 32.0137H58.3041C57.969 32.0137 57.6973 32.2854 57.6973 32.6205C57.6973 32.9556 57.969 33.2273 58.3041 33.2273Z" fill="white"/>
<path d="M35.5678 41.8359C35.2326 41.8359 34.9609 42.1076 34.9609 42.4428V64.2348C34.9609 65.169 35.7209 65.929 36.6551 65.929H61.8123C62.7464 65.929 63.5064 65.169 63.5064 64.2348V58.7784C63.5064 58.4433 63.2347 58.1716 62.8996 58.1716C62.5644 58.1716 62.2927 58.4433 62.2927 58.7784V64.2348C62.2927 64.4998 62.0772 64.7153 61.8123 64.7153H36.6551C36.3902 64.7153 36.1746 64.4998 36.1746 64.2348V42.4428C36.1746 42.1076 35.9029 41.8359 35.5678 41.8359Z" fill="white"/>
<path d="M40.3179 34.4414H36.6551C35.7209 34.4414 34.9609 35.2014 34.9609 36.1355V39.8574C34.9609 40.1925 35.2326 40.4642 35.5678 40.4642C35.9029 40.4642 36.1746 40.1925 36.1746 39.8574V36.1355C36.1746 35.8706 36.3902 35.6551 36.6551 35.6551H40.3179C40.653 35.6551 40.9247 35.3834 40.9247 35.0482C40.9247 34.7131 40.6531 34.4414 40.3179 34.4414Z" fill="white"/>
<path d="M58.1498 35.6551H61.8126C62.0775 35.6551 62.2931 35.8706 62.2931 36.1355V39.9474C62.2931 40.2825 62.5648 40.5542 62.8999 40.5542C63.235 40.5542 63.5067 40.2825 63.5067 39.9474V36.1355C63.5067 35.2014 62.7467 34.4414 61.8126 34.4414H58.1498C57.8147 34.4414 57.543 34.7131 57.543 35.0482C57.543 35.3834 57.8147 35.6551 58.1498 35.6551Z" fill="white"/>
<path d="M44.2917 36.2396H47.1132C47.4484 36.2396 47.7201 35.9679 47.7201 35.6328C47.7201 35.2976 47.4484 35.0259 47.1132 35.0259H44.2917C43.6887 35.0259 43.1981 34.5353 43.1981 33.9323V32.0203C43.1981 31.4172 43.6887 30.9265 44.2917 30.9265H45.2626C45.7093 30.9265 46.0728 30.5631 46.0728 30.1164V29.5175C46.0728 29.2994 46.2503 29.1219 46.4684 29.1219H52C52.2181 29.1219 52.3956 29.2994 52.3956 29.5175V30.1164C52.3956 30.5631 52.7591 30.9265 53.2058 30.9265H54.1767C54.7797 30.9265 55.2703 31.4172 55.2703 32.0203V33.9323C55.2703 34.5353 54.7797 35.0259 54.1767 35.0259H49.6993C49.3642 35.0259 49.0925 35.2976 49.0925 35.6328C49.0925 35.9679 49.3642 36.2396 49.6993 36.2396H54.1767C55.449 36.2396 56.484 35.2046 56.484 33.9323V32.0203C56.484 30.748 55.449 29.7129 54.1767 29.7129H53.6093V29.5175C53.6093 28.6302 52.8873 27.9082 52 27.9082H46.4684C45.5811 27.9082 44.8591 28.6302 44.8591 29.5175V29.7129H44.2917C43.0194 29.7129 41.9844 30.748 41.9844 32.0203V33.9323C41.9844 35.2046 43.0195 36.2396 44.2917 36.2396Z" fill="white"/>
<path d="M51.7655 32.4096C51.7655 32.0744 51.4938 31.8027 51.1586 31.8027H47.31C46.9748 31.8027 46.7031 32.0744 46.7031 32.4096C46.7031 32.7447 46.9748 33.0164 47.31 33.0164H51.1586C51.4938 33.0164 51.7655 32.7447 51.7655 32.4096Z" fill="white"/>
<path d="M72.9371 43.9574C71.3597 41.5004 68.1749 40.5786 65.5293 41.8134L64.1474 42.4582C64.1067 42.4772 64.0601 42.477 64.0194 42.4582L62.6377 41.8134C59.9919 40.5786 56.8073 41.5004 55.2298 43.9574C54.4359 45.194 54.1366 46.6726 54.387 48.1208C54.6374 49.5689 55.4158 50.8611 56.5789 51.7594L63.2294 56.8958C63.4808 57.0899 63.782 57.187 64.0834 57.187C64.3847 57.187 64.6859 57.0899 64.9374 56.8957L67.4739 54.9367C67.7391 54.7319 67.7881 54.3508 67.5833 54.0855C67.3784 53.8202 66.9973 53.7714 66.732 53.9761L64.1956 55.935C64.1296 55.986 64.0373 55.9861 63.9714 55.935L57.3209 50.7987C57.06 50.5972 56.8245 50.37 56.6149 50.1227H59.16C59.4329 50.1227 59.6722 49.9407 59.7449 49.6776L60.4282 47.2068L62.328 52.4748C62.4144 52.7145 62.6413 52.8746 62.8961 52.8758H62.8989C63.1525 52.8758 63.3795 52.718 63.4678 52.4801L65.2707 47.6203L65.8157 49.4025C65.8937 49.6576 66.1292 49.8319 66.396 49.8319H71.7795C71.5192 50.1942 71.2063 50.5206 70.8461 50.7988L68.7956 52.3823C68.5304 52.5872 68.4814 52.9683 68.6862 53.2336C68.8911 53.4988 69.2721 53.5478 69.5375 53.343L71.5879 51.7594C72.751 50.8611 73.5295 49.5689 73.7798 48.1208C74.0303 46.6726 73.731 45.1941 72.9371 43.9574ZM66.845 48.6182L65.9065 45.5488C65.8303 45.3 65.604 45.1273 65.3439 45.1197C65.0826 45.1101 64.8476 45.2712 64.7572 45.5152L62.9069 50.5026L60.9227 45.0004C60.8331 44.7518 60.5926 44.5911 60.3287 44.5999C60.0646 44.61 59.8374 44.7898 59.767 45.0446L58.6983 48.9092H55.8727C55.7407 48.5919 55.6426 48.2587 55.583 47.914C55.3844 46.7659 55.6218 45.5936 56.2513 44.6131C57.5018 42.665 60.0268 41.9343 62.1245 42.9132L63.5061 43.558C63.873 43.7291 64.2939 43.7292 64.6607 43.558L66.0425 42.9132C68.14 41.9343 70.6651 42.6651 71.9157 44.6131C72.5451 45.5936 72.7824 46.7658 72.584 47.914C72.5423 48.1549 72.4811 48.39 72.4037 48.6183L66.845 48.6182Z" fill="white"/>
<path d="M39.8707 44.6964H42.7222C43.4144 44.6964 43.9777 44.1331 43.9777 43.4408V40.2965C43.9777 39.6042 43.4144 39.041 42.7222 39.041H39.8707C39.1784 39.041 38.6152 39.6042 38.6152 40.2965V43.4408C38.6152 44.1331 39.1784 44.6964 39.8707 44.6964ZM39.8289 40.2965C39.8289 40.2735 39.8476 40.2547 39.8707 40.2547H42.7222C42.7452 40.2547 42.764 40.2735 42.764 40.2965V43.4408C42.764 43.4639 42.7452 43.4827 42.7222 43.4827H39.8707C39.8476 43.4827 39.8289 43.4639 39.8289 43.4408V40.2965Z" fill="white"/>
<path d="M38.6152 51.429C38.6152 52.1213 39.1784 52.6845 39.8707 52.6845H42.7222C43.4144 52.6845 43.9777 52.1213 43.9777 51.429V48.2847C43.9777 47.5924 43.4144 47.0293 42.7222 47.0293H39.8707C39.1784 47.0293 38.6152 47.5924 38.6152 48.2847V51.429ZM39.8289 48.2847C39.8289 48.2617 39.8476 48.243 39.8707 48.243H42.7222C42.7452 48.243 42.764 48.2617 42.764 48.2847V51.429C42.764 51.4521 42.7452 51.4709 42.7222 51.4709H39.8707C39.8476 51.4709 39.8289 51.4521 39.8289 51.429V48.2847Z" fill="white"/>
<path d="M38.6152 59.4173C38.6152 60.1096 39.1784 60.6728 39.8707 60.6728H42.7222C43.4144 60.6728 43.9777 60.1096 43.9777 59.4173V56.273C43.9777 55.5807 43.4144 55.0176 42.7222 55.0176H39.8707C39.1784 55.0176 38.6152 55.5807 38.6152 56.273V59.4173ZM39.8289 56.273C39.8289 56.2499 39.8476 56.2313 39.8707 56.2313H42.7222C42.7452 56.2313 42.764 56.2499 42.764 56.273V59.4173C42.764 59.4404 42.7452 59.4592 42.7222 59.4592H39.8707C39.8476 59.4592 39.8289 59.4404 39.8289 59.4173V56.273Z" fill="white"/>
<path d="M45.7807 40.5535H52.8401C53.1753 40.5535 53.447 40.2818 53.447 39.9467C53.447 39.6115 53.1753 39.3398 52.8401 39.3398H45.7807C45.4455 39.3398 45.1738 39.6115 45.1738 39.9467C45.1738 40.2818 45.4455 40.5535 45.7807 40.5535Z" fill="white"/>
<path d="M45.7807 44.4383H52.8401C53.1753 44.4383 53.447 44.1666 53.447 43.8314C53.447 43.4963 53.1753 43.2246 52.8401 43.2246H45.7807C45.4455 43.2246 45.1738 43.4963 45.1738 43.8314C45.1738 44.1666 45.4455 44.4383 45.7807 44.4383Z" fill="white"/>
<path d="M45.7807 48.5203H52.8401C53.1753 48.5203 53.447 48.2486 53.447 47.9135C53.447 47.5783 53.1753 47.3066 52.8401 47.3066H45.7807C45.4455 47.3066 45.1738 47.5783 45.1738 47.9135C45.1738 48.2487 45.4455 48.5203 45.7807 48.5203Z" fill="white"/>
<path d="M53.8111 51.1914H45.7807C45.4455 51.1914 45.1738 51.4631 45.1738 51.7982C45.1738 52.1334 45.4455 52.4051 45.7807 52.4051H53.8111C54.1462 52.4051 54.4179 52.1334 54.4179 51.7982C54.4179 51.4631 54.1462 51.1914 53.8111 51.1914Z" fill="white"/>
<path d="M56.9528 55.2734H45.7807C45.4455 55.2734 45.1738 55.5451 45.1738 55.8803C45.1738 56.2154 45.4455 56.4871 45.7807 56.4871H56.9528C57.288 56.4871 57.5597 56.2154 57.5597 55.8803C57.5597 55.5451 57.288 55.2734 56.9528 55.2734Z" fill="white"/>
<path d="M59.5113 59.1582H45.7807C45.4455 59.1582 45.1738 59.4299 45.1738 59.765C45.1738 60.1002 45.4455 60.3719 45.7807 60.3719H59.5113C59.8465 60.3719 60.1182 60.1002 60.1182 59.765C60.1182 59.4299 59.8465 59.1582 59.5113 59.1582Z" fill="white"/>
</g>
<defs>
<clipPath id="clip0_659_339">
<rect width="41.3333" height="41.3333" fill="white" transform="translate(32.5332 27.4668)"/>
</clipPath>
</defs>
</svg>
