<svg width="100" height="100" viewBox="0 0 100 100" fill="none" xmlns="http://www.w3.org/2000/svg">
<path d="M91.435 17.607C85.7514 11.8387 78.1637 8.6457 70.0695 8.61543C70.0311 8.61523 69.9932 8.61523 69.9545 8.61523C62.5279 8.61523 55.514 11.2813 50 16.1652C44.4855 11.2811 37.4726 8.61523 30.0454 8.61523C30.0073 8.61523 29.9687 8.61523 29.9304 8.61543C21.8358 8.64551 14.2481 11.8387 8.56492 17.607C-3.01382 29.3586 -2.82944 48.5241 8.97624 60.3298L33.0044 84.358C37.6902 89.0435 43.8453 91.3865 50.0004 91.3865C56.1554 91.3865 62.3103 89.0435 66.9963 84.358L91.0245 60.3298C102.829 48.5241 103.014 29.3588 91.435 17.607ZM88.3041 57.6104L64.2762 81.6382C60.4627 85.4517 55.3927 87.5517 49.9998 87.5517C44.6068 87.5517 39.5369 85.4515 35.7234 81.6382L11.6952 57.6104C1.37799 47.2932 1.2024 30.5584 11.304 20.3063C16.2628 15.2735 22.8827 12.4873 29.9445 12.4613C29.978 12.4611 30.0112 12.4611 30.0446 12.4611C37.0695 12.4611 43.6701 15.1949 48.64 20.1647C49.0007 20.5252 49.4896 20.728 49.9996 20.728C50.5095 20.728 50.9984 20.5252 51.3591 20.1647C56.3293 15.1943 62.9293 12.4611 69.9545 12.4611C69.9877 12.4611 70.0217 12.4611 70.0547 12.4613C77.1166 12.4875 83.7364 15.2735 88.6952 20.3063C98.7971 30.5584 98.6215 47.2932 88.3041 57.6104Z" fill="white"/>
<g clip-path="url(#clip0_677_1048)">
<path d="M63.5006 69.596L75 70.4219L74.1531 58.9438L71.3913 61.7057L66.9666 57.281L61.8412 62.4068L66.2655 66.8311L63.5006 69.596ZM63.9187 62.4068L66.9662 59.3589L71.3909 63.7835L72.9237 62.2512L73.4093 68.8342L66.8137 68.3608L68.3434 66.8311L63.9187 62.4068Z" fill="white"/>
<path d="M33.7335 66.8311L38.1582 62.4068L33.0328 57.281L28.6081 61.7057L25.8463 58.9438L24.9994 70.4219L36.4984 69.596L33.7335 66.8311ZM26.5898 68.8342L27.0754 62.2512L28.6081 63.7835L33.0328 59.3589L36.0803 62.4068L31.6557 66.8311L33.1854 68.3608L26.5898 68.8342Z" fill="white"/>
<path d="M66.2655 24.1882L61.8408 28.6129L66.9666 33.7383L71.3913 29.3136L74.1528 32.0755L75 20.5974L63.5006 21.4233L66.2655 24.1882ZM73.4093 22.1851L72.9237 28.7685L71.3909 27.2357L66.9662 31.6604L63.9187 28.6129L68.3434 24.1882L66.8137 22.6585L73.4093 22.1851Z" fill="white"/>
<path d="M36.4984 21.4233L24.999 20.5978L25.8463 32.0758L28.6081 29.3136L33.0328 33.7383L38.1582 28.6129L33.7335 24.1882L36.4984 21.4233ZM36.0803 28.6129L33.0328 31.6604L28.6081 27.2357L27.0754 28.7685L26.5898 22.1851L33.1854 22.6585L31.6557 24.1882L36.0803 28.6129Z" fill="white"/>
<path d="M28.3306 47.8043C28.2806 47.3351 28.2452 46.8578 28.2257 46.3867L26.7578 46.4474C26.7784 46.9501 26.8162 47.459 26.8696 47.9599L28.3306 47.8043Z" fill="white"/>
<path d="M28.5865 36.3789C28.3893 36.8428 28.205 37.3192 28.0391 37.7942L29.4265 38.2786C29.5817 37.8335 29.7542 37.3875 29.9388 36.953L28.5865 36.3789Z" fill="white"/>
<path d="M26.7559 44.5262L28.2241 44.5865C28.2432 44.115 28.2783 43.6378 28.3283 43.1689L26.8669 43.0137C26.8138 43.5142 26.7765 44.0234 26.7559 44.5262Z" fill="white"/>
<path d="M29.9377 54.011C29.7542 53.5795 29.5829 53.1362 29.428 52.6934L28.041 53.1782C28.2066 53.6512 28.3897 54.1246 28.5854 54.5854L29.9377 54.011Z" fill="white"/>
<path d="M28.9055 50.9726C28.7873 50.516 28.6824 50.0494 28.5939 49.5859L27.1504 49.8614C27.245 50.3557 27.3568 50.8539 27.483 51.3411L28.9055 50.9726Z" fill="white"/>
<path d="M28.9028 40.0013L27.4807 39.6328C27.3544 40.1199 27.2427 40.6178 27.1484 41.1133L28.5919 41.388C28.68 40.9237 28.7849 40.4572 28.9028 40.0013Z" fill="white"/>
<path d="M71.0938 39.9935C71.212 40.4501 71.3169 40.9167 71.4054 41.3801L72.8485 41.1051C72.7543 40.6103 72.6425 40.1125 72.5163 39.625L71.0938 39.9935Z" fill="white"/>
<path d="M73.2443 46.4388L71.776 46.3789C71.7569 46.85 71.7218 47.3272 71.6719 47.7964L73.1333 47.9517C73.1863 47.4508 73.2237 46.942 73.2443 46.4388Z" fill="white"/>
<path d="M73.2427 44.5184C73.2221 44.016 73.1844 43.5071 73.131 43.0059L71.6699 43.1615C71.7199 43.6311 71.755 44.1079 71.7744 44.579L73.2427 44.5184Z" fill="white"/>
<path d="M70.0625 36.9534C70.2456 37.3848 70.4173 37.8281 70.5721 38.271L71.9592 37.7858C71.7936 37.3131 71.6105 36.8397 71.4148 36.3789L70.0625 36.9534Z" fill="white"/>
<path d="M72.852 49.8528L71.4086 49.5781C71.3204 50.0424 71.2155 50.5089 71.0977 50.9648L72.5198 51.3333C72.646 50.8465 72.7578 50.3483 72.852 49.8528Z" fill="white"/>
<path d="M71.4148 54.5853C71.612 54.1214 71.7959 53.6453 71.9618 53.17L70.5748 52.6855C70.4192 53.1307 70.2471 53.5767 70.0625 54.0112L71.4148 54.5853Z" fill="white"/>
<path d="M42.7886 24.9105L42.3033 23.5234C41.8307 23.689 41.3573 23.8721 40.8965 24.0678L41.471 25.4201C41.9024 25.237 42.3453 25.0653 42.7886 24.9105Z" fill="white"/>
<path d="M52.4689 22.3512C51.9684 22.2982 51.4595 22.2608 50.9564 22.2402L50.8965 23.7085C51.3676 23.7276 51.8448 23.7627 52.314 23.8127L52.4689 22.3512Z" fill="white"/>
<path d="M45.8977 24.0759L45.6227 22.6328C45.1279 22.727 44.6301 22.8388 44.1426 22.9651L44.5111 24.3876C44.9677 24.2693 45.4342 24.1644 45.8977 24.0759Z" fill="white"/>
<path d="M59.1028 24.0685C58.639 23.8713 58.1629 23.6874 57.6876 23.5215L57.2031 24.9085C57.6483 25.0641 58.0942 25.2362 58.5287 25.4208L59.1028 24.0685Z" fill="white"/>
<path d="M55.8489 22.9631C55.3618 22.8369 54.8639 22.7251 54.3684 22.6309L54.0938 24.0743C54.558 24.1625 55.0245 24.2674 55.4804 24.3852L55.8489 22.9631Z" fill="white"/>
<path d="M49.0947 23.7085L49.034 22.2402C48.5312 22.2612 48.0224 22.2986 47.5215 22.352L47.6771 23.813C48.1467 23.7631 48.6236 23.728 49.0947 23.7085Z" fill="white"/>
<path d="M57.2109 66.0546L57.6962 67.4416C58.1688 67.276 58.6422 67.0929 59.103 66.8972L58.5285 65.5449C58.0971 65.7284 57.6538 65.8997 57.2109 66.0546Z" fill="white"/>
<path d="M54.1035 66.8898L54.3786 68.3333C54.8733 68.2387 55.3711 68.1269 55.8587 68.0006L55.4902 66.5781C55.0335 66.6968 54.567 66.8013 54.1035 66.8898Z" fill="white"/>
<path d="M50.9043 67.2572L50.965 68.7251C51.4673 68.7045 51.9762 68.6668 52.4775 68.6134L52.3218 67.1523C51.8522 67.2023 51.3754 67.2378 50.9043 67.2572Z" fill="white"/>
<path d="M44.1504 68.0026C44.6375 68.1285 45.1353 68.2402 45.6309 68.3345L45.9055 66.891C45.4413 66.8029 44.9747 66.698 44.5189 66.5801L44.1504 68.0026Z" fill="white"/>
<path d="M40.8965 66.8972C41.3604 67.0945 41.8364 67.2787 42.3117 67.4446L42.7962 66.0572C42.351 65.902 41.9051 65.7296 41.4706 65.5449L40.8965 66.8972Z" fill="white"/>
<path d="M47.5312 68.6153C48.0317 68.6684 48.5406 68.7057 49.0438 68.7263L49.1037 67.2584C48.6326 67.239 48.1553 67.2039 47.6861 67.1543L47.5312 68.6153Z" fill="white"/>
<g clip-path="url(#clip1_677_1048)">
<path d="M46.1009 35.0898V38.7611H45.3009V35.9074H41.4714V38.7611H40.5534L35 44.6274V53.5174H38.145C38.2436 54.2023 38.5679 54.815 39.0399 55.2779H36.2458V56.162H47.4271V55.2779H43.359C43.831 54.815 44.1553 54.2023 44.254 53.5174H54.235C54.3337 54.2023 54.6579 54.815 55.1299 55.2779H53.9174V56.162H63.2512V55.2779H59.4491C59.9211 54.815 60.2453 54.2023 60.344 53.5174H65V49.8191V46.8815V35.0898H46.1009ZM42.3555 36.7916H44.4167V38.7612H42.3555V36.7916ZM39.2742 41.3985H42.6329V44.3614H36.4692L39.2742 41.3985ZM35.8841 45.2455H43.5171V40.5143H40.1112L40.9339 39.6452H46.1009V46.8814H37.9168V46.3525H35.8841V45.2455ZM35.8841 49.4639V47.2367H37.0327V49.4639H35.8841ZM37.9168 47.7656H46.1009V48.9349H37.9168V47.7656ZM41.1995 55.2778C39.985 55.2778 38.997 54.2898 38.997 53.0753C38.997 51.8608 39.985 50.8728 41.1995 50.8728C42.4139 50.8728 43.4019 51.8608 43.4019 53.0753C43.4019 54.2897 42.4139 55.2778 41.1995 55.2778ZM44.2539 52.6332C44.0388 51.14 42.7512 49.9887 41.1994 49.9887C39.6476 49.9887 38.36 51.14 38.1449 52.6332H35.8841V50.348H37.9168V49.8191H46.1009V52.6333H44.2539V52.6332ZM57.2895 55.2778C56.0751 55.2778 55.087 54.2898 55.087 53.0753C55.087 51.8608 56.0751 50.8728 57.2895 50.8728C58.5039 50.8728 59.492 51.8608 59.492 53.0753C59.492 54.2897 58.504 55.2778 57.2895 55.2778ZM64.1159 52.6332H60.344C60.1289 51.14 58.8413 49.9887 57.2895 49.9887C55.7376 49.9887 54.4501 51.14 54.235 52.6332H46.985V49.819H64.1159V52.6332ZM64.1159 47.7656V48.9349H46.985V47.7656H50.3773V46.8815H46.985V35.974H64.1159V46.8815H51.298V47.7656H64.1159Z" fill="white"/>
<path d="M56.8379 52.6348H57.7416V53.5189H56.8379V52.6348Z" fill="white"/>
<path d="M40.8457 52.6348H41.7495V53.5189H40.8457V52.6348Z" fill="white"/>
<path d="M54.2934 45.6823H57.5239V43.1352H59.9287V39.7659H57.5239V37.2188H54.2934V39.7659H51.8887V43.1352H54.2934V45.6823ZM52.7728 42.251V40.6499H55.1776V38.1028H56.6397V40.6499H59.0446V42.251H56.6397V44.7981H55.1776V42.251H52.7728Z" fill="white"/>
<path d="M48.3105 55.2793H49.1947V56.1634H48.3105V55.2793Z" fill="white"/>
<path d="M50.0801 55.2793H50.9642V56.1634H50.0801V55.2793Z" fill="white"/>
<path d="M44.4219 33.9805L46.3092 32.8908L46.7513 33.6564L44.8639 34.7461L44.4219 33.9805Z" fill="white"/>
<path d="M42.9082 31.4375H43.7923V33.6169H42.9082V31.4375Z" fill="white"/>
<path d="M39.9492 33.6562L40.3913 32.8906L42.2786 33.9803L41.8366 34.7459L39.9492 33.6562Z" fill="white"/>
<path d="M52.1863 37.6595H51.3021V36.7754H52.1863V37.6595ZM50.418 37.6595H49.5339V36.7754H50.418V37.6595ZM48.6498 37.6595H47.7656V36.7754H48.6498V37.6595Z" fill="white"/>
</g>
</g>
<defs>
<clipPath id="clip0_677_1048">
<rect width="50" height="50" fill="white" transform="translate(25 20.5)"/>
</clipPath>
<clipPath id="clip1_677_1048">
<rect width="30" height="30" fill="white" transform="translate(35 28.8008)"/>
</clipPath>
</defs>
</svg>
