<svg width="100" height="100" viewBox="0 0 100 100" fill="none" xmlns="http://www.w3.org/2000/svg">
<rect width="100" height="100" fill="#259BF1"/>
<g clip-path="url(#clip0_659_354)">
<path d="M83.148 24.0841C78.6011 19.4694 72.5309 16.915 66.0556 16.8908C66.0248 16.8906 65.9945 16.8906 65.9636 16.8906C60.0223 16.8906 54.4112 19.0234 50 22.9306C45.5884 19.0233 39.9781 16.8906 34.0363 16.8906C34.0059 16.8906 33.9749 16.8906 33.9443 16.8908C27.4687 16.9148 21.3985 19.4694 16.8519 24.0841C7.58895 33.4853 7.73645 48.8177 17.181 58.2623L36.4035 77.4848C40.1521 81.2332 45.0762 83.1076 50.0003 83.1076C54.9244 83.1076 59.8483 81.2332 63.597 77.4848L82.8196 58.2623C92.2633 48.8177 92.4108 33.4855 83.148 24.0841ZM80.6433 56.0868L61.4209 75.309C58.3701 78.3598 54.3142 80.0398 49.9998 80.0398C45.6854 80.0398 41.6295 78.3596 38.5787 75.309L19.3562 56.0868C11.1024 47.833 10.9619 34.4452 19.0432 26.2435C23.0102 22.2172 28.3062 19.9883 33.9556 19.9675C33.9824 19.9673 34.009 19.9673 34.0357 19.9673C39.6556 19.9673 44.936 22.1544 48.912 26.1302C49.2006 26.4186 49.5917 26.5808 49.9997 26.5808C50.4076 26.5808 50.7987 26.4186 51.0873 26.1302C55.0634 22.1539 60.3434 19.9673 65.9636 19.9673C65.9902 19.9673 66.0173 19.9673 66.0437 19.9675C71.6933 19.9884 76.9891 22.2172 80.9561 26.2435C89.0377 34.4452 88.8972 47.833 80.6433 56.0868Z" fill="white"/>
<g clip-path="url(#clip1_659_354)">
<path d="M60.8005 65.6772L70 66.3379L69.3225 57.1555L67.113 59.3649L63.5733 55.8252L59.473 59.9258L63.0124 63.4653L60.8005 65.6772ZM61.1349 59.9258L63.573 57.4875L67.1127 61.0272L68.3389 59.8013L68.7274 65.0677L63.4509 64.689L64.6747 63.4653L61.1349 59.9258Z" fill="white"/>
<path d="M36.9876 63.4653L40.5273 59.9258L36.427 55.8252L32.8873 59.3649L30.6778 57.1555L30.0003 66.3379L39.1995 65.6772L36.9876 63.4653ZM31.2726 65.0677L31.6611 59.8013L32.8873 61.0272L36.427 57.4875L38.8651 59.9258L35.3253 63.4653L36.5491 64.689L31.2726 65.0677Z" fill="white"/>
<path d="M63.0124 29.3521L59.4727 32.8918L63.5733 36.9922L67.113 33.4525L69.3222 35.6619L70 26.4795L60.8005 27.1402L63.0124 29.3521ZM68.7274 27.7496L68.3389 33.0164L67.1127 31.7902L63.573 35.3299L61.1349 32.8918L64.6747 29.3521L63.4509 28.1284L68.7274 27.7496Z" fill="white"/>
<path d="M39.1995 27.1382L30 26.4778L30.6778 35.6603L32.8873 33.4505L36.427 36.9902L40.5273 32.8899L36.9876 29.3502L39.1995 27.1382ZM38.8651 32.8899L36.427 35.3279L32.8873 31.7882L31.6611 33.0144L31.2726 27.7477L36.5491 28.1264L35.3253 29.3502L38.8651 32.8899Z" fill="white"/>
<path d="M32.6645 48.2434C32.6245 47.868 32.5961 47.4863 32.5806 47.1094L31.4062 47.1579C31.4227 47.5601 31.4529 47.9672 31.4957 48.3679L32.6645 48.2434Z" fill="white"/>
<path d="M32.8696 39.1035C32.7118 39.4746 32.5644 39.8558 32.4316 40.2357L33.5416 40.6233C33.6658 40.2672 33.8037 39.9104 33.9514 39.5628L32.8696 39.1035Z" fill="white"/>
<path d="M31.4062 45.6221L32.5809 45.6703C32.5961 45.2932 32.6242 44.9114 32.6642 44.5363L31.4951 44.4121C31.4526 44.8125 31.4227 45.2199 31.4062 45.6221Z" fill="white"/>
<path d="M33.9509 53.2103C33.8041 52.8652 33.6671 52.5106 33.5432 52.1562L32.4336 52.5441C32.566 52.9225 32.7125 53.3013 32.8691 53.6699L33.9509 53.2103Z" fill="white"/>
<path d="M33.1248 50.7773C33.0302 50.412 32.9463 50.0388 32.8755 49.668L31.7207 49.8883C31.7964 50.2838 31.8858 50.6824 31.9868 51.0721L33.1248 50.7773Z" fill="white"/>
<path d="M33.1223 42.0018L31.9846 41.707C31.8835 42.0967 31.7941 42.495 31.7188 42.8914L32.8735 43.1111C32.944 42.7397 33.028 42.3665 33.1223 42.0018Z" fill="white"/>
<path d="M66.875 41.996C66.9696 42.3613 67.0535 42.7345 67.1243 43.1053L68.2788 42.8853C68.2034 42.4894 68.114 42.0912 68.013 41.7012L66.875 41.996Z" fill="white"/>
<path d="M68.5939 47.1514L67.4193 47.1035C67.404 47.4804 67.3759 47.8622 67.3359 48.2375L68.5051 48.3618C68.5475 47.9611 68.5774 47.554 68.5939 47.1514Z" fill="white"/>
<path d="M68.5942 45.6143C68.5777 45.2124 68.5475 44.8053 68.5048 44.4043L67.3359 44.5288C67.3759 44.9045 67.404 45.2859 67.4196 45.6628L68.5942 45.6143Z" fill="white"/>
<path d="M66.0488 39.5631C66.1953 39.9083 66.3326 40.2629 66.4565 40.6172L67.5662 40.229C67.4337 39.8509 67.2872 39.4722 67.1307 39.1035L66.0488 39.5631Z" fill="white"/>
<path d="M68.2805 49.8818L67.1257 49.6621C67.0552 50.0335 66.9713 50.4067 66.877 50.7714L68.0146 51.0662C68.1157 50.6768 68.2051 50.2783 68.2805 49.8818Z" fill="white"/>
<path d="M67.1307 53.6682C67.2885 53.2971 67.4355 52.9163 67.5683 52.536L66.4587 52.1484C66.3342 52.5046 66.1965 52.8613 66.0488 53.2089L67.1307 53.6682Z" fill="white"/>
<path d="M44.2305 29.9299L43.8423 28.8203C43.4642 28.9528 43.0854 29.0992 42.7168 29.2558L43.1764 30.3376C43.5215 30.1912 43.8759 30.0538 44.2305 29.9299Z" fill="white"/>
<path d="M51.9747 27.8798C51.5743 27.8374 51.1672 27.8075 50.7647 27.791L50.7168 28.9656C51.0937 28.9809 51.4755 29.009 51.8508 29.049L51.9747 27.8798Z" fill="white"/>
<path d="M46.7186 29.2619L46.4985 28.1074C46.1027 28.1828 45.7045 28.2722 45.3145 28.3732L45.6093 29.5112C45.9745 29.4166 46.3478 29.3327 46.7186 29.2619Z" fill="white"/>
<path d="M57.2815 29.256C56.9104 29.0982 56.5295 28.9511 56.1493 28.8184L55.7617 29.928C56.1179 30.0525 56.4746 30.1901 56.8222 30.3378L57.2815 29.256Z" fill="white"/>
<path d="M54.6795 28.3713C54.2898 28.2703 53.8915 28.1808 53.4951 28.1055L53.2754 29.2603C53.6468 29.3307 54.02 29.4147 54.3847 29.509L54.6795 28.3713Z" fill="white"/>
<path d="M49.2761 28.9676L49.2276 27.793C48.8254 27.8098 48.4183 27.8397 48.0176 27.8824L48.1421 29.0512C48.5178 29.0112 48.8992 28.9832 49.2761 28.9676Z" fill="white"/>
<path d="M55.7695 62.8433L56.1577 63.9529C56.5358 63.8204 56.9146 63.674 57.2832 63.5174L56.8236 62.4355C56.4785 62.5823 56.1238 62.7194 55.7695 62.8433Z" fill="white"/>
<path d="M53.2812 63.511L53.5013 64.6658C53.8971 64.5901 54.2953 64.5007 54.6854 64.3997L54.3906 63.2617C54.0253 63.3566 53.652 63.4402 53.2812 63.511Z" fill="white"/>
<path d="M50.7227 63.8066L50.7712 64.9809C51.1731 64.9644 51.5802 64.9342 51.9812 64.8915L51.8567 63.7227C51.481 63.7626 51.0995 63.791 50.7227 63.8066Z" fill="white"/>
<path d="M45.3203 64.4017C45.71 64.5024 46.1083 64.5918 46.5047 64.6672L46.7244 63.5124C46.353 63.4419 45.9798 63.358 45.6151 63.2637L45.3203 64.4017Z" fill="white"/>
<path d="M42.7168 63.5174C43.0879 63.6752 43.4687 63.8226 43.849 63.9553L44.2366 62.8454C43.8804 62.7212 43.5237 62.5833 43.1761 62.4355L42.7168 63.5174Z" fill="white"/>
<path d="M48.0254 64.8934C48.4258 64.9359 48.8329 64.9658 49.2354 64.9822L49.2833 63.8079C48.9064 63.7924 48.5247 63.7643 48.1493 63.7246L48.0254 64.8934Z" fill="white"/>
<g clip-path="url(#clip2_659_354)">
<path d="M46.8807 38.0723V41.0093H46.2407V38.7263H43.1771V41.0093H42.4427L38 45.7023V52.8143H40.516C40.5949 53.3622 40.8543 53.8524 41.2319 54.2227H38.9966V54.93H47.9417V54.2227H44.6872C45.0648 53.8524 45.3242 53.3622 45.4032 52.8143H53.388C53.4669 53.3622 53.7263 53.8524 54.1039 54.2227H53.1339V54.93H60.601V54.2227H57.5593C57.9369 53.8524 58.1963 53.3622 58.2752 52.8143H62V49.8557V47.5056V38.0723H46.8807ZM43.8844 39.4336H45.5334V41.0093H43.8844V39.4336ZM41.4193 43.1192H44.1063V45.4895H39.1754L41.4193 43.1192ZM38.7073 46.1968H44.8136V42.4118H42.0889L42.7471 41.7165H46.8807V47.5055H40.3334V47.0824H38.7073V46.1968ZM38.7073 49.5715V47.7898H39.6261V49.5715H38.7073ZM40.3334 48.2129H46.8807V49.1483H40.3334V48.2129ZM42.9596 54.2227C41.988 54.2227 41.1976 53.4322 41.1976 52.4606C41.1976 51.489 41.988 50.6986 42.9596 50.6986C43.9311 50.6986 44.7216 51.4891 44.7216 52.4606C44.7216 53.4322 43.9311 54.2227 42.9596 54.2227ZM45.4031 52.107C45.231 50.9124 44.201 49.9913 42.9595 49.9913C41.7181 49.9913 40.688 50.9124 40.5159 52.107H38.7073V50.2788H40.3334V49.8557H46.8807V52.107H45.4031V52.107ZM55.8316 54.2227C54.86 54.2227 54.0696 53.4322 54.0696 52.4606C54.0696 51.489 54.86 50.6986 55.8316 50.6986C56.8032 50.6986 57.5936 51.4891 57.5936 52.4606C57.5936 53.4322 56.8032 54.2227 55.8316 54.2227ZM61.2927 52.107H58.2752C58.1031 50.9124 57.0731 49.9913 55.8316 49.9913C54.5901 49.9913 53.5601 50.9124 53.388 52.107H47.588V49.8556H61.2927V52.107ZM61.2927 48.2129V49.1483H47.588V48.2129H50.3018V47.5056H47.588V38.7796H61.2927V47.5056H51.0384V48.2129H61.2927Z" fill="white"/>
<path d="M55.4707 52.1074H56.1937V52.8147H55.4707V52.1074Z" fill="white"/>
<path d="M42.6758 52.1074H43.3988V52.8147H42.6758V52.1074Z" fill="white"/>
<path d="M53.4355 46.5462H56.0199V44.5085H57.9438V41.8131H56.0199V39.7754H53.4355V41.8131H51.5117V44.5085H53.4355V46.5462ZM52.219 43.8012V42.5203H54.1428V40.4826H55.3126V42.5203H57.2364V43.8012H55.3126V45.8389H54.1428V43.8012H52.219Z" fill="white"/>
<path d="M48.6484 54.2227H49.3557V54.93H48.6484V54.2227Z" fill="white"/>
<path d="M50.0645 54.2227H50.7718V54.93H50.0645V54.2227Z" fill="white"/>
<path d="M45.5371 37.1836L47.047 36.3118L47.4006 36.9244L45.8908 37.7961L45.5371 37.1836Z" fill="white"/>
<path d="M44.3262 35.1504H45.0335V36.8939H44.3262V35.1504Z" fill="white"/>
<path d="M41.9609 36.9258L42.3146 36.3133L43.8245 37.185L43.4708 37.7975L41.9609 36.9258Z" fill="white"/>
<path d="M51.7494 40.1292H51.0421V39.4219H51.7494V40.1292ZM50.3348 40.1292H49.6275V39.4219H50.3348V40.1292ZM48.9202 40.1292H48.2129V39.4219H48.9202V40.1292Z" fill="white"/>
</g>
</g>
</g>
<defs>
<clipPath id="clip0_659_354">
<rect width="80" height="80" fill="white" transform="translate(10 10)"/>
</clipPath>
<clipPath id="clip1_659_354">
<rect width="40" height="40" fill="white" transform="translate(30 26.4004)"/>
</clipPath>
<clipPath id="clip2_659_354">
<rect width="24" height="24" fill="white" transform="translate(38 33.041)"/>
</clipPath>
</defs>
</svg>
