<svg width="100" height="100" viewBox="0 0 100 100" fill="none" xmlns="http://www.w3.org/2000/svg">
<rect width="100" height="100" fill="#259BF1"/>
<g clip-path="url(#clip0_659_356)">
<path d="M83.148 24.0841C78.6011 19.4694 72.5309 16.915 66.0556 16.8908C66.0248 16.8906 65.9945 16.8906 65.9636 16.8906C60.0223 16.8906 54.4112 19.0234 50 22.9306C45.5884 19.0233 39.9781 16.8906 34.0363 16.8906C34.0059 16.8906 33.9749 16.8906 33.9443 16.8908C27.4687 16.9148 21.3985 19.4694 16.8519 24.0841C7.58895 33.4853 7.73645 48.8177 17.181 58.2623L36.4035 77.4848C40.1521 81.2332 45.0762 83.1076 50.0003 83.1076C54.9244 83.1076 59.8483 81.2332 63.597 77.4848L82.8196 58.2623C92.2633 48.8177 92.4108 33.4855 83.148 24.0841ZM80.6433 56.0868L61.4209 75.309C58.3701 78.3598 54.3142 80.0398 49.9998 80.0398C45.6854 80.0398 41.6295 78.3596 38.5787 75.309L19.3562 56.0868C11.1024 47.833 10.9619 34.4452 19.0432 26.2435C23.0102 22.2172 28.3062 19.9883 33.9556 19.9675C33.9824 19.9673 34.009 19.9673 34.0357 19.9673C39.6556 19.9673 44.936 22.1544 48.912 26.1302C49.2006 26.4186 49.5917 26.5808 49.9997 26.5808C50.4076 26.5808 50.7987 26.4186 51.0873 26.1302C55.0634 22.1539 60.3434 19.9673 65.9636 19.9673C65.9902 19.9673 66.0173 19.9673 66.0437 19.9675C71.6933 19.9884 76.9891 22.2172 80.9561 26.2435C89.0377 34.4452 88.8972 47.833 80.6433 56.0868Z" fill="white"/>
<g clip-path="url(#clip1_659_356)">
<path d="M65.5547 62.3496H66.8438V63.6387H65.5547V62.3496Z" fill="white"/>
<path d="M69.7008 48.8871V35.9384C69.7008 31.3183 65.9421 27.5595 61.3221 27.5595C56.702 27.5595 52.9432 31.3182 52.9432 35.9384V44.3686C52.0825 43.8508 51.0755 43.5521 49.9999 43.5521C47.9837 43.5521 46.2088 44.6003 45.1881 46.1794L43.2548 45.6401L43.0768 43.8614C44.5213 42.9399 45.5324 41.3979 45.7307 39.6132H46.412C47.4782 39.6132 48.3456 38.7458 48.3456 37.6796V37.0351C48.3456 36.1948 47.8067 35.4784 47.0564 35.2124V31.0195C47.0564 30.1539 46.4847 29.4194 45.6991 29.1736C45.2914 27.5576 43.0905 26.5078 39.9667 26.5078C36.8429 26.5078 34.6421 27.5575 34.2343 29.1736C33.4487 29.4194 32.877 30.1539 32.877 31.0195V35.2125C32.1269 35.4785 31.588 36.1949 31.588 37.0351V37.6796C31.588 38.7458 32.4553 39.6132 33.5215 39.6132H34.2027C34.4009 41.3979 35.4122 42.9399 36.8567 43.8614L36.6786 45.6401L33.7847 46.4473L34.131 47.689L36.823 46.938C37.2778 47.846 38.4969 48.4805 39.9667 48.4805C41.4366 48.4805 42.6556 47.8461 43.1105 46.938L44.6064 47.3553C44.3912 47.9568 44.273 48.6043 44.273 49.2789V50.1641C43.4035 50.216 42.7115 50.9377 42.7115 51.8201V53.1092C42.7115 54.0251 43.4566 54.7702 44.3725 54.7702H45.5105C45.8396 55.8043 46.5167 56.6842 47.4036 57.2725L47.2797 58.5102L44.7285 59.2862C43.2791 59.7271 41.5816 60.6102 41.2421 62.3496H29.2891V50.7793C29.2891 49.3416 30.7138 48.6423 31.9089 48.3089L32.8891 48.0355L32.5427 46.7938L31.5626 47.0673C29.2653 47.7082 28 49.0265 28 50.7793V63.6387H41.1802V66.133H58.8196V63.6387H64.2654V62.3496H58.7578C58.4183 60.6102 56.7208 59.7272 55.2714 59.2863L52.7202 58.5102L52.5963 57.2725C53.4832 56.6842 54.1603 55.8043 54.4893 54.7702H55.6273C56.5432 54.7702 57.2883 54.0251 57.2883 53.1092V51.8201C57.2883 50.9378 56.5962 50.216 55.7268 50.1641V49.2789C55.7268 49.2438 55.7248 49.2092 55.7241 49.1742L58.2025 48.2732C58.675 49.1564 59.8772 49.7696 61.322 49.7696C62.7668 49.7696 63.9689 49.1564 64.4415 48.2732L68.0437 49.5828C69.9379 50.2715 70.7106 50.9916 70.7106 52.0683V62.3496H68.1325V63.6386H71.9997V52.0684C71.9997 50.4503 70.9294 49.508 69.7008 48.8871ZM47.0565 37.6797C47.0565 38.0351 46.7674 38.3242 46.412 38.3242H45.7674V36.3907H46.412C46.7674 36.3907 47.0565 36.6797 47.0565 37.0352V37.6797ZM34.8105 30.375H35.455V29.7305C35.455 28.7931 37.0363 27.7969 39.9667 27.7969C42.8971 27.7969 44.4783 28.793 44.4783 29.7305V30.375H45.1229C45.4783 30.375 45.7674 30.6641 45.7674 31.0195V35.1015H45.1229H39.9667C38.9005 35.1015 38.0331 34.2342 38.0331 33.1679H36.7441C36.7441 34.2342 35.8766 35.1015 34.8105 35.1015H34.166V31.0195C34.1661 30.6642 34.4552 30.375 34.8105 30.375ZM32.8769 37.6797V37.0352C32.8769 36.6798 33.1661 36.3907 33.5215 36.3907H34.166V38.3242H33.5215C33.1661 38.3242 32.8769 38.0351 32.8769 37.6797ZM35.455 38.9688V36.3246C36.2406 36.1644 36.9236 35.7187 37.3886 35.0995C37.977 35.8829 38.9137 36.3906 39.9667 36.3906H44.4783V38.9687C44.4783 41.4565 42.4544 43.4804 39.9667 43.4804C37.479 43.4804 35.455 41.4566 35.455 38.9688ZM39.9667 47.1916C38.8121 47.1916 37.9458 46.6533 37.9217 46.1635L38.0925 44.457C38.6809 44.6586 39.3109 44.7695 39.9667 44.7695C40.6225 44.7695 41.2525 44.6586 41.8409 44.457L42.0118 46.1635C41.9876 46.6533 41.1214 47.1916 39.9667 47.1916ZM49.9999 44.8412C52.4469 44.8412 54.4377 46.832 54.4377 49.2791V50.1592H45.562V49.2791C45.562 46.832 47.5528 44.8412 49.9999 44.8412ZM44.3724 53.4812C44.1708 53.4812 44.0004 53.3109 44.0004 53.1093V51.8202C44.0004 51.6186 44.1707 51.4483 44.3724 51.4483H45.2894V53.345C45.2894 53.3907 45.2916 53.4358 45.2928 53.4812H44.3724ZM57.5305 62.9943V64.8441H42.4692V62.9943C42.4692 61.8682 43.3309 61.0589 45.1035 60.5196L47.4081 59.8185C47.8009 60.7062 48.8144 61.3399 50 61.3399C51.1855 61.3399 52.1989 60.7061 52.5917 59.8185L54.8963 60.5196C56.6688 61.0588 57.5305 61.8682 57.5305 62.9943ZM51.4757 59.0205C51.461 59.5809 50.7917 60.0509 49.9999 60.0509C49.208 60.0509 48.5387 59.5809 48.524 59.0205L48.6407 57.8547C49.0713 57.9847 49.5274 58.0555 49.9999 58.0555C50.4724 58.0555 50.9284 57.9847 51.359 57.8547L51.4757 59.0205ZM49.9999 56.7663C48.1133 56.7663 46.5785 55.2315 46.5785 53.3449V51.4482H53.4212V53.3449C53.4213 55.2316 51.8864 56.7663 49.9999 56.7663ZM55.9992 51.8202V53.1093C55.9992 53.3109 55.8289 53.4812 55.6273 53.4812H54.7068C54.7081 53.4358 54.7102 53.3906 54.7102 53.345V51.4483H55.6272C55.8289 51.4483 55.9992 51.6186 55.9992 51.8202ZM61.322 44.7694C58.8343 44.7694 56.8104 42.7455 56.8104 40.2577V37.615C57.4235 37.4903 57.988 37.188 58.4424 36.7335C58.5516 36.6243 58.652 36.5087 58.7434 36.3877C59.3318 37.1716 60.2687 37.6796 61.3221 37.6796H65.8338V40.2577C65.8338 42.7455 63.8098 44.7694 61.322 44.7694ZM61.322 48.4806C60.1719 48.4806 59.308 47.9465 59.2773 47.4583L59.4832 45.758C60.0615 45.9519 60.6793 46.0585 61.322 46.0585C61.9646 46.0585 62.5825 45.9518 63.1608 45.758L63.3667 47.4583C63.3361 47.9465 62.4721 48.4806 61.322 48.4806ZM64.605 46.9611L64.389 45.1781C66.029 44.1522 67.1227 42.3308 67.1227 40.2578V36.3907H61.322C60.2559 36.3907 59.3884 35.5233 59.3884 34.4571H58.0993C58.0993 34.9707 57.8974 35.4555 57.5308 35.8221C57.1642 36.1887 56.6794 36.3906 56.1658 36.3906H55.5212V40.2578C55.5212 42.3308 56.615 44.1521 58.2549 45.1781L58.0389 46.9612L55.5499 47.8661C55.3147 46.9429 54.855 46.1087 54.2322 45.4252V35.9384C54.2322 32.0291 57.4126 28.8486 61.322 28.8486C65.2313 28.8486 68.4117 32.029 68.4117 35.9384V48.3451L64.605 46.9611Z" fill="white"/>
<path d="M61.9668 30.7812H63.2559V32.0703H61.9668V30.7812Z" fill="white"/>
<path d="M64.5449 32.0703H65.834V33.3594H64.5449V32.0703Z" fill="white"/>
</g>
</g>
<defs>
<clipPath id="clip0_659_356">
<rect width="80" height="80" fill="white" transform="translate(10 10)"/>
</clipPath>
<clipPath id="clip1_659_356">
<rect width="44" height="44" fill="white" transform="translate(28 22.1328)"/>
</clipPath>
</defs>
</svg>
