<svg width="100" height="100" viewBox="0 0 100 100" fill="none" xmlns="http://www.w3.org/2000/svg">
<path d="M91.435 17.607C85.7514 11.8387 78.1637 8.6457 70.0695 8.61543C70.0311 8.61523 69.9932 8.61523 69.9545 8.61523C62.5279 8.61523 55.514 11.2813 50 16.1652C44.4855 11.2811 37.4726 8.61523 30.0454 8.61523C30.0073 8.61523 29.9687 8.61523 29.9304 8.61543C21.8358 8.64551 14.2481 11.8387 8.56492 17.607C-3.01382 29.3586 -2.82944 48.5241 8.97624 60.3298L33.0044 84.358C37.6902 89.0435 43.8453 91.3865 50.0004 91.3865C56.1554 91.3865 62.3103 89.0435 66.9963 84.358L91.0245 60.3298C102.829 48.5241 103.014 29.3588 91.435 17.607ZM88.3041 57.6104L64.2762 81.6382C60.4627 85.4517 55.3927 87.5517 49.9998 87.5517C44.6068 87.5517 39.5369 85.4515 35.7234 81.6382L11.6952 57.6104C1.37799 47.2932 1.2024 30.5584 11.304 20.3063C16.2628 15.2735 22.8827 12.4873 29.9445 12.4613C29.978 12.4611 30.0112 12.4611 30.0446 12.4611C37.0695 12.4611 43.6701 15.1949 48.64 20.1647C49.0007 20.5252 49.4896 20.728 49.9996 20.728C50.5095 20.728 50.9984 20.5252 51.3591 20.1647C56.3293 15.1943 62.9293 12.4611 69.9545 12.4611C69.9877 12.4611 70.0217 12.4611 70.0547 12.4613C77.1166 12.4875 83.7364 15.2735 88.6952 20.3063C98.7971 30.5584 98.6215 47.2932 88.3041 57.6104Z" fill="white"/>
<g clip-path="url(#clip0_677_853)">
<path d="M69.4434 65.4375H71.0547V67.0488H69.4434V65.4375Z" fill="white"/>
<path d="M74.6261 48.6089V32.423C74.6261 26.6479 69.9277 21.9494 64.1526 21.9494C58.3775 21.9494 53.679 26.6478 53.679 32.423V42.9608C52.6031 42.3134 51.3443 41.9402 49.9998 41.9402C47.4796 41.9402 45.2611 43.2504 43.9851 45.2242L41.5686 44.5501L41.346 42.3268C43.1516 41.1749 44.4155 39.2474 44.6634 37.0165H45.515C46.8478 37.0165 47.932 35.9323 47.932 34.5995V33.7939C47.932 32.7435 47.2583 31.848 46.3206 31.5155V26.2744C46.3206 25.1924 45.6059 24.2742 44.6238 23.967C44.1142 21.947 41.3631 20.6348 37.4584 20.6348C33.5536 20.6348 30.8026 21.9469 30.2929 23.967C29.3108 24.2742 28.5963 25.1924 28.5963 26.2744V31.5156C27.6586 31.8481 26.9849 32.7436 26.9849 33.7939V34.5995C26.9849 35.9323 28.0691 37.0165 29.4019 37.0165H30.2533C30.5012 39.2474 31.7652 41.1749 33.5708 42.3268L33.3483 44.5501L29.7308 45.5592L30.1638 47.1112L33.5287 46.1725C34.0972 47.3075 35.6211 48.1007 37.4584 48.1007C39.2957 48.1007 40.8195 47.3076 41.3881 46.1725L43.258 46.6941C42.989 47.446 42.8413 48.2553 42.8413 49.0986V50.2052C41.7544 50.27 40.8893 51.1722 40.8893 52.2752V53.8865C40.8893 55.0314 41.8208 55.9627 42.9657 55.9627H44.3882C44.7995 57.2553 45.6458 58.3553 46.7545 59.0906L46.5996 60.6377L43.4106 61.6078C41.5989 62.1589 39.477 63.2627 39.0526 65.437H24.1113V50.9742C24.1113 49.177 25.8923 48.3029 27.3862 47.8861L28.6114 47.5443L28.1784 45.9923L26.9533 46.3341C24.0816 47.1353 22.5 48.7831 22.5 50.9742V67.0484H38.9752V70.1663H61.0245V67.0484H67.8318V65.4371H60.9472C60.5229 63.2627 58.401 62.159 56.5893 61.6079L53.4003 60.6378L53.2454 59.0906C54.3541 58.3553 55.2003 57.2553 55.6116 55.9627H57.0341C58.179 55.9627 59.1103 55.0314 59.1103 53.8865V52.2752C59.1103 51.1723 58.2453 50.27 57.1585 50.2052V49.0986C57.1585 49.0548 57.156 49.0115 57.1552 48.9678L60.2531 47.8415C60.8438 48.9455 62.3465 49.712 64.1525 49.712C65.9584 49.712 67.4612 48.9455 68.0519 47.8415L72.5546 49.4786C74.9224 50.3393 75.8883 51.2395 75.8883 52.5854V65.437H72.6656V67.0483H77.4996V52.5855C77.4997 50.5629 76.1617 49.385 74.6261 48.6089ZM46.3207 34.5996C46.3207 35.0438 45.9592 35.4053 45.515 35.4053H44.7092V32.9883H45.515C45.9592 32.9883 46.3207 33.3497 46.3207 33.794V34.5996ZM31.0131 25.4687H31.8188V24.6631C31.8188 23.4914 33.7953 22.2461 37.4584 22.2461C41.1214 22.2461 43.0979 23.4913 43.0979 24.6631V25.4687H43.9036C44.3479 25.4687 44.7092 25.8301 44.7092 26.2744V31.3769H43.9036H37.4584C36.1256 31.3769 35.0414 30.2927 35.0414 28.9599H33.4301C33.4301 30.2927 32.3458 31.3769 31.0131 31.3769H30.2075V26.2744C30.2076 25.8302 30.5689 25.4687 31.0131 25.4687ZM28.5962 34.5996V33.794C28.5962 33.3498 28.9576 32.9883 29.4018 32.9883H30.2075V35.4053H29.4018C28.9576 35.4053 28.5962 35.0438 28.5962 34.5996ZM31.8188 36.211V32.9057C32.8007 32.7055 33.6545 32.1484 34.2358 31.3744C34.9713 32.3537 36.1422 32.9882 37.4584 32.9882H43.0979V36.2108C43.0979 39.3206 40.568 41.8505 37.4584 41.8505C34.3488 41.8505 31.8188 39.3207 31.8188 36.211ZM37.4584 46.4895C36.0151 46.4895 34.9323 45.8166 34.9021 45.2044L35.1157 43.0713C35.8512 43.3232 36.6387 43.4619 37.4584 43.4619C38.2781 43.4619 39.0656 43.3232 39.8012 43.0713L40.0147 45.2044C39.9845 45.8166 38.9017 46.4895 37.4584 46.4895ZM49.9998 43.5515C53.0587 43.5515 55.5472 46.04 55.5472 49.0988V50.199H44.4525V49.0988C44.4525 46.04 46.941 43.5515 49.9998 43.5515ZM42.9655 54.3515C42.7135 54.3515 42.5004 54.1386 42.5004 53.8866V52.2753C42.5004 52.0233 42.7134 51.8103 42.9655 51.8103H44.1118V54.1812C44.1118 54.2384 44.1144 54.2948 44.1161 54.3515H42.9655ZM59.4132 66.2428V68.5551H40.5865V66.2428C40.5865 64.8353 41.6636 63.8236 43.8794 63.1495L46.7601 62.2732C47.2511 63.3827 48.518 64.1749 49.9999 64.1749C51.4819 64.1749 52.7486 63.3826 53.2397 62.2732L56.1204 63.1495C58.336 63.8235 59.4132 64.8353 59.4132 66.2428ZM51.8446 61.2757C51.8262 61.9762 50.9896 62.5636 49.9998 62.5636C49.01 62.5636 48.1734 61.9762 48.155 61.2757L48.3009 59.8184C48.8392 59.9809 49.4092 60.0693 49.9998 60.0693C50.5904 60.0693 51.1605 59.9809 51.6987 59.8184L51.8446 61.2757ZM49.9998 58.4579C47.6416 58.4579 45.7231 56.5394 45.7231 54.1811V51.8102H54.2765V54.1811C54.2766 56.5395 52.3581 58.4579 49.9998 58.4579ZM57.499 52.2753V53.8866C57.499 54.1386 57.2861 54.3515 57.0341 54.3515H55.8835C55.8851 54.2948 55.8878 54.2383 55.8878 54.1812V51.8103H57.034C57.2861 51.8103 57.499 52.0233 57.499 52.2753ZM64.1525 43.4618C61.0429 43.4618 58.513 40.9319 58.513 37.8222V34.5188C59.2793 34.3629 59.985 33.985 60.553 33.4169C60.6895 33.2804 60.815 33.1359 60.9292 32.9847C61.6647 33.9645 62.8359 34.5995 64.1526 34.5995H69.7922V37.8222C69.7922 40.9319 67.2622 43.4618 64.1525 43.4618ZM64.1525 48.1008C62.7149 48.1008 61.635 47.4331 61.5966 46.8229L61.854 44.6976C62.5768 44.9399 63.3491 45.0731 64.1525 45.0731C64.9558 45.0731 65.7281 44.9398 66.451 44.6976L66.7084 46.8229C66.6701 47.4331 65.5901 48.1008 64.1525 48.1008ZM68.2562 46.2013L67.9862 43.9727C70.0363 42.6903 71.4034 40.4135 71.4034 37.8223V32.9883H64.1525C62.8198 32.9883 61.7355 31.9041 61.7355 30.5713H60.1242C60.1242 31.2134 59.8717 31.8194 59.4135 32.2776C58.9552 32.7359 58.3493 32.9882 57.7072 32.9882H56.9015V37.8223C56.9015 40.4135 58.2687 42.6902 60.3186 43.9727L60.0487 46.2015L56.9373 47.3326C56.6434 46.1787 56.0687 45.1358 55.2902 44.2815V32.423C55.2902 27.5364 59.2658 23.5607 64.1525 23.5607C69.0392 23.5607 73.0146 27.5363 73.0146 32.423V47.9314L68.2562 46.2013Z" fill="white"/>
<path d="M64.959 25.9785H66.5703V27.5898H64.959V25.9785Z" fill="white"/>
<path d="M68.1816 27.5898H69.793V29.2012H68.1816V27.5898Z" fill="white"/>
</g>
<defs>
<clipPath id="clip0_677_853">
<rect width="55" height="55" fill="white" transform="translate(22.5 15.166)"/>
</clipPath>
</defs>
</svg>
