<svg width="100" height="100" viewBox="0 0 100 100" fill="none" xmlns="http://www.w3.org/2000/svg">
<rect width="100" height="100" fill="#259BF1"/>
<g clip-path="url(#clip0_659_344)">
<path d="M83.148 24.0841C78.6011 19.4694 72.5309 16.915 66.0556 16.8908C66.0248 16.8906 65.9945 16.8906 65.9636 16.8906C60.0223 16.8906 54.4112 19.0234 50 22.9306C45.5884 19.0233 39.9781 16.8906 34.0363 16.8906C34.0059 16.8906 33.9749 16.8906 33.9443 16.8908C27.4687 16.9148 21.3985 19.4694 16.8519 24.0841C7.58895 33.4853 7.73645 48.8177 17.181 58.2623L36.4035 77.4848C40.1521 81.2332 45.0762 83.1076 50.0003 83.1076C54.9244 83.1076 59.8483 81.2332 63.597 77.4848L82.8196 58.2623C92.2633 48.8177 92.4108 33.4855 83.148 24.0841ZM80.6433 56.0868L61.4209 75.309C58.3701 78.3598 54.3142 80.0398 49.9998 80.0398C45.6854 80.0398 41.6295 78.3596 38.5787 75.309L19.3562 56.0868C11.1024 47.833 10.9619 34.4452 19.0432 26.2435C23.0102 22.2172 28.3062 19.9883 33.9556 19.9675C33.9824 19.9673 34.009 19.9673 34.0357 19.9673C39.6556 19.9673 44.936 22.1544 48.912 26.1302C49.2006 26.4186 49.5917 26.5808 49.9997 26.5808C50.4076 26.5808 50.7987 26.4186 51.0873 26.1302C55.0634 22.1539 60.3434 19.9673 65.9636 19.9673C65.9902 19.9673 66.0173 19.9673 66.0437 19.9675C71.6933 19.9884 76.9891 22.2172 80.9561 26.2435C89.0377 34.4452 88.8972 47.833 80.6433 56.0868Z" fill="white"/>
<g clip-path="url(#clip1_659_344)">
<path d="M60.231 53.7016C58.2572 53.7016 56.4344 54.3596 54.9696 55.4671C54.9065 54.6462 54.7254 53.8337 54.4308 53.0661C54.1484 52.3301 54.0053 51.5573 54.0053 50.7691C54.0053 49.5793 54.3592 48.4305 55.029 47.4472C55.597 46.6132 56.0323 45.7098 56.3286 44.7633C57.3728 45.3185 58.5215 45.6366 59.7 45.6946C60.2035 46.2759 60.851 46.7732 61.6179 47.1265C62.3845 47.4796 63.2009 47.6578 63.9982 47.6578C64.6185 47.6578 65.2271 47.5499 65.7912 47.3324C66.1234 47.2045 66.2889 46.8314 66.1608 46.4993C66.0329 46.1672 65.6599 46.0017 65.3277 46.1297C64.3614 46.5021 63.2057 46.4387 62.1571 45.9558C60.27 45.0862 59.3124 43.1244 60.0226 41.5828C60.7335 40.0416 62.847 39.4953 64.7337 40.365C66.4371 41.1497 67.4166 42.8597 67.0121 44.3426C66.9185 44.686 67.1209 45.0404 67.4643 45.134C67.8077 45.2277 68.1621 45.0253 68.2557 44.6818C68.4536 43.9567 68.4266 43.1982 68.2124 42.4732C70.3956 40.0528 71.0535 36.5934 69.691 33.6024C68.2394 30.3565 64.8923 28.456 61.3617 28.8736C59.7392 29.0645 58.2225 29.7255 56.9752 30.7854C56.6324 31.0771 56.2726 31.3525 55.9002 31.6106C53.9515 30.0526 51.2607 29.1648 48.4493 29.1648C45.612 29.1648 42.9057 30.0656 40.9531 31.6471C40.5618 31.3786 40.1845 31.0906 39.8256 30.7852C39.2059 30.2583 38.5157 29.8272 37.7739 29.5037C37.0338 29.1813 36.2484 28.9693 35.4396 28.8736C33.8754 28.6884 32.3088 28.956 30.9081 29.6472C30.5889 29.8048 30.4579 30.1912 30.6154 30.5104C30.7729 30.8296 31.1591 30.9607 31.4786 30.8032C32.6553 30.2226 33.9727 29.9981 35.2882 30.1537C35.9716 30.2344 36.6348 30.4134 37.259 30.6854C37.8846 30.9582 38.4673 31.3222 38.9905 31.767C39.6415 32.3211 40.3472 32.8237 41.0877 33.2611C41.7997 33.6816 42.5519 34.0457 43.3237 34.3431C43.3999 34.3725 43.4783 34.3864 43.5553 34.3864C43.8141 34.3864 44.0582 34.2294 44.1568 33.9735C44.2849 33.6413 44.1193 33.2683 43.7872 33.1403C43.2194 32.9214 42.6635 32.6625 42.1286 32.3695C43.8211 31.1449 46.0778 30.4538 48.4494 30.4538C50.7976 30.4538 53.0395 31.134 54.7275 32.3391C54.1491 32.6592 53.5478 32.9386 52.9347 33.1708C52.21 33.4454 51.4569 33.6549 50.6963 33.7934C49.334 34.0415 47.9325 34.0676 46.5583 33.8671C46.2069 33.8159 45.8789 34.0595 45.8274 34.4118C45.776 34.764 46.0199 35.0912 46.3722 35.1426C47.0439 35.2406 47.7264 35.2903 48.4005 35.2903C49.2438 35.2903 50.0941 35.2133 50.9273 35.0615C51.7646 34.9091 52.5937 34.6785 53.3914 34.3763C54.1905 34.0737 54.9716 33.6985 55.7133 33.2611C56.4539 32.8237 57.1596 32.321 57.8103 31.7673C58.863 30.8728 60.1432 30.3148 61.5129 30.1537C64.4803 29.8029 67.2942 31.4001 68.5145 34.1288C69.5627 36.469 69.2111 39.1749 67.6012 41.1715C67.228 40.6072 66.7327 40.0991 66.1391 39.6888C67.5751 38.551 68.1662 36.5645 67.4559 34.8173C66.5159 32.4947 64.149 31.0915 61.6592 31.3898C60.5334 31.5224 59.4814 31.9807 58.617 32.7154C58.617 32.7154 58.025 33.2188 57.4613 33.6974C56.6785 34.3934 55.7059 34.8718 54.7757 35.3467C53.736 35.8946 53.0903 36.9647 53.0903 38.1392V41.3326C53.0903 42.7467 52.595 44.1261 51.6958 45.2168L51.2874 45.7119C50.1512 47.0905 49.4966 48.7615 49.3943 50.5441C49.3739 50.8995 49.6454 51.2041 50.0009 51.2245C50.0134 51.2252 50.026 51.2256 50.0384 51.2256C50.3774 51.2256 50.6616 50.9608 50.6812 50.618C50.7678 49.1106 51.3215 47.6976 52.2821 46.5319L52.6904 46.0368C53.7796 44.7158 54.3793 43.0451 54.3793 41.3325V38.1391C54.3752 37.3918 54.8269 36.7278 55.5022 36.4211V41.7294C55.5022 43.5175 54.9702 45.2438 53.9638 46.7218C53.1478 47.9199 52.7164 49.3196 52.7164 50.7692C52.7164 51.7159 52.8883 52.644 53.2275 53.5281C53.3997 53.9766 53.5261 54.4433 53.6057 54.9178C53.337 54.7745 53.0395 54.6983 52.7336 54.6983C52.0358 54.6942 51.4161 55.0851 51.0863 55.6932C51.0452 55.7606 50.9734 55.8008 50.8945 55.8008C50.8173 55.8008 50.7644 55.7645 50.7362 55.7365C50.7058 55.7059 50.6694 55.653 50.6694 55.5757V53.5888C50.6694 53.2329 50.381 52.9443 50.0249 52.9443C49.6689 52.9443 49.3804 53.2329 49.3804 53.5888V55.5757C49.3804 55.9791 49.5373 56.359 49.8248 56.648C50.1113 56.933 50.4912 57.09 50.8945 57.09C51.418 57.09 51.9117 56.8505 52.1866 56.3649C52.3672 56.0459 52.7496 55.8734 53.0646 56.094C53.3234 56.2753 53.4913 56.5067 53.5696 56.7902C52.6314 57.8943 51.9619 59.2334 51.6638 60.7058C49.2143 61.4985 46.5761 61.3765 44.2046 60.3552C43.9641 60.2517 43.7869 60.0372 43.7304 59.7816C43.6662 59.447 43.2073 57.5244 43.1898 57.2265C43.1503 56.7766 43.3599 56.3427 43.7368 56.094C44.0441 55.8645 44.4719 56.0283 44.6151 56.3657C44.8882 56.8127 45.3832 57.0903 45.907 57.0903C46.742 57.0903 47.4214 56.411 47.4214 55.5759V51.0235C47.4214 49.0899 46.7439 47.2035 45.5139 45.7118L45.1057 45.2167C44.2063 44.1258 43.7111 42.7464 43.7111 41.3327V38.1389C43.7111 36.9638 43.065 35.894 42.0251 35.3469C41.0949 34.8703 40.1241 34.395 39.3405 33.6979L38.1848 32.7154C37.3207 31.9811 36.2688 31.5226 35.1423 31.3896C32.7187 31.1039 30.4192 32.4087 29.4223 34.6366C28.5877 36.4372 29.1763 38.5614 30.7045 39.7245C30.1167 40.1375 29.6214 40.6497 29.2487 41.2326C27.601 39.2335 27.2258 36.4927 28.2866 34.1284C28.5515 33.536 28.8957 32.9877 29.3098 32.4987C29.5399 32.2271 29.5061 31.8203 29.2345 31.5904C28.9629 31.3602 28.5561 31.394 28.3261 31.6656C27.8335 32.2473 27.4243 32.8989 27.11 33.6021C25.8708 36.3709 26.2747 39.5658 28.1642 41.94L28.656 42.558C28.403 43.4871 28.469 44.4302 28.8595 45.2773C29.3564 46.3558 30.3117 47.1375 31.5493 47.4784C31.9876 47.5991 32.443 47.6589 32.9036 47.6589C33.7014 47.6589 34.5145 47.4794 35.2808 47.1263C36.037 46.7777 36.6942 46.2846 37.2095 45.6886C38.3498 45.6167 39.461 45.3012 40.4724 44.7635C40.7687 45.71 41.204 46.6132 41.7719 47.4473C42.4417 48.4306 42.7957 49.5793 42.7957 50.7691C42.7957 51.5574 42.6525 52.3302 42.3701 53.0661C41.8249 54.4868 41.6727 56.0124 41.9211 57.5061C42.569 60.623 43.8926 66.431 44.5654 69.5398C44.6268 69.8177 44.8 70.0643 45.0406 70.2162C46.0615 70.861 47.2218 71.1852 48.3841 71.1852C49.5372 71.1923 50.7022 70.8491 51.717 70.2313C51.9827 70.0815 52.1727 69.8249 52.2381 69.5273L52.7907 67.0256C54.3321 69.5188 57.0905 71.1838 60.2309 71.1838C65.0506 71.1838 68.9718 67.2626 68.9718 62.4428C68.9718 57.623 65.0507 53.7016 60.231 53.7016ZM56.642 43.4601C56.6956 43.1484 56.7361 42.8338 56.7605 42.5165C57.3087 42.8921 57.9206 43.1765 58.5625 43.3513C58.6171 43.6712 58.7082 43.9878 58.834 44.2958C58.0647 44.1484 57.3237 43.8664 56.642 43.4601ZM58.2956 34.6798C58.8594 34.201 59.4516 33.6974 59.4516 33.6974C60.1217 33.128 60.9371 32.7727 61.8098 32.6699C63.7198 32.4408 65.5363 33.5164 66.2608 35.3009C66.831 36.7036 66.1856 38.3306 64.8198 39.0083C62.4064 38.1308 59.8009 38.986 58.8518 41.0432C58.709 41.3531 58.6129 41.6741 58.5578 41.9999C57.8918 41.7614 57.281 41.3707 56.791 40.8655V35.7428C57.3232 35.4327 57.8273 35.0777 58.2956 34.6798ZM48.3983 62.5116C49.4383 62.5116 50.4797 62.3739 51.4974 62.0988C51.4658 62.8457 51.5367 63.6077 51.693 64.317C49.5353 65.1938 47.0857 65.1712 44.9435 64.2487C44.7868 64.1812 44.6712 64.0415 44.6343 63.8749L44.1598 61.7269C45.5257 62.2488 46.9605 62.5116 48.3983 62.5116ZM30.5402 35.301C31.2615 33.5177 33.0808 32.441 34.991 32.6696C35.8642 32.7728 36.6797 33.1282 37.3496 33.6974L38.5052 34.6799C38.9737 35.0781 39.4778 35.4331 40.0098 35.7429V40.866C39.5422 41.348 38.9664 41.7249 38.3366 41.9655C38.279 41.6495 38.1833 41.3403 38.0463 41.0432C37.5493 39.9647 36.594 39.1831 35.3565 38.8421C34.289 38.5481 33.1207 38.6164 32.0236 39.0287C30.6238 38.3642 29.9595 36.729 30.5402 35.301ZM34.7412 45.9556C33.8086 46.3855 32.7965 46.485 31.8917 46.2356C31.0267 45.9973 30.3655 45.4655 30.0303 44.7378C29.6949 44.0103 29.7199 43.1621 30.1006 42.3496C30.499 41.4997 31.2319 40.7949 32.1647 40.365C32.7608 40.0903 33.3893 39.9505 34.0016 39.9505C34.3471 39.9505 34.6876 39.9951 35.0141 40.085C35.8792 40.3233 36.5403 40.8552 36.8756 41.5828C37.2109 42.3104 37.1859 43.1585 36.8052 43.971C36.4068 44.8209 35.6738 45.5257 34.7412 45.9556ZM38.0782 44.2739C38.2052 43.9588 38.2939 43.6398 38.3458 43.3212C38.9495 43.1444 39.5233 42.8713 40.0405 42.5167C40.0649 42.834 40.1054 43.1485 40.1589 43.4601C39.5106 43.8464 38.8078 44.1211 38.0782 44.2739ZM41.2989 41.7294V36.4214C41.9744 36.7285 42.426 37.3914 42.4217 38.1387V41.3325C42.4217 43.0447 43.0215 44.7153 44.1108 46.0366L44.519 46.5317C45.5592 47.7931 46.1321 49.3883 46.1321 51.0233V55.5758C46.1321 55.7 46.0309 55.8011 45.9067 55.8011C45.8278 55.8011 45.756 55.7609 45.7149 55.6935C45.449 55.2075 45.003 54.8529 44.4573 54.7396C44.0226 54.6464 43.5815 54.7098 43.1947 54.9169C43.2743 54.4454 43.3999 53.9803 43.5736 53.5278C43.9128 52.6439 44.0847 51.7156 44.0847 50.769C44.0847 49.3193 43.6533 47.9196 42.8373 46.7214C41.8309 45.2437 41.2989 43.5174 41.2989 41.7294ZM51.0002 69.1555C49.4063 70.1297 47.3983 70.1461 45.8045 69.1729L45.0298 65.666C46.1163 66.0528 47.2581 66.247 48.4005 66.247C49.5425 66.247 50.6847 66.0527 51.7711 65.666L51.0002 69.1555ZM60.231 69.8946C56.122 69.8946 52.779 66.5517 52.779 62.4427C52.779 58.3337 56.1219 54.9908 60.231 54.9908C64.34 54.9908 67.6829 58.3337 67.6829 62.4427C67.6829 66.5517 64.3399 69.8946 60.231 69.8946Z" fill="white"/>
<path d="M64.5896 60.3172H62.3564V58.084C62.3564 57.728 62.0679 57.4395 61.7119 57.4395H58.7507C58.3947 57.4395 58.1062 57.728 58.1062 58.084V60.3172H55.873C55.517 60.3172 55.2285 60.6058 55.2285 60.9618V63.9229C55.2285 64.2789 55.517 64.5675 55.873 64.5675H58.1062V66.8006C58.1062 67.1566 58.3947 67.4452 58.7507 67.4452H61.7119C62.0679 67.4452 62.3564 67.1566 62.3564 66.8006V64.5675H64.5896C64.9456 64.5675 65.2341 64.2789 65.2341 63.9229V60.9618C65.2341 60.6058 64.9456 60.3172 64.5896 60.3172ZM63.9451 63.2784H61.7119C61.3559 63.2784 61.0674 63.567 61.0674 63.9229V66.1561H59.3953V63.9229C59.3953 63.567 59.1068 63.2784 58.7507 63.2784H56.5176V61.6063H58.7507C59.1068 61.6063 59.3953 61.3177 59.3953 60.9618V58.7285H61.0674V60.9618C61.0674 61.3177 61.3559 61.6063 61.7119 61.6063H63.9451V63.2784Z" fill="white"/>
</g>
</g>
<defs>
<clipPath id="clip0_659_344">
<rect width="80" height="80" fill="white" transform="translate(10 10)"/>
</clipPath>
<clipPath id="clip1_659_344">
<rect width="44" height="44" fill="white" transform="translate(26.4004 28)"/>
</clipPath>
</defs>
</svg>
