<svg width="100" height="100" viewBox="0 0 100 100" fill="none" xmlns="http://www.w3.org/2000/svg">
<path d="M91.435 17.607C85.7514 11.8387 78.1637 8.6457 70.0695 8.61543C70.0311 8.61523 69.9932 8.61523 69.9545 8.61523C62.5279 8.61523 55.514 11.2813 50 16.1652C44.4855 11.2811 37.4726 8.61523 30.0454 8.61523C30.0073 8.61523 29.9687 8.61523 29.9304 8.61543C21.8358 8.64551 14.2481 11.8387 8.56492 17.607C-3.01382 29.3586 -2.82944 48.5241 8.97624 60.3298L33.0044 84.358C37.6902 89.0435 43.8453 91.3865 50.0004 91.3865C56.1554 91.3865 62.3103 89.0435 66.9963 84.358L91.0245 60.3298C102.829 48.5241 103.014 29.3588 91.435 17.607ZM88.3041 57.6104L64.2762 81.6382C60.4627 85.4517 55.3927 87.5517 49.9998 87.5517C44.6068 87.5517 39.5369 85.4515 35.7234 81.6382L11.6952 57.6104C1.37799 47.2932 1.2024 30.5584 11.304 20.3063C16.2628 15.2735 22.8827 12.4873 29.9445 12.4613C29.978 12.4611 30.0112 12.4611 30.0446 12.4611C37.0695 12.4611 43.6701 15.1949 48.64 20.1647C49.0007 20.5252 49.4896 20.728 49.9996 20.728C50.5095 20.728 50.9984 20.5252 51.3591 20.1647C56.3293 15.1943 62.9293 12.4611 69.9545 12.4611C69.9877 12.4611 70.0217 12.4611 70.0547 12.4613C77.1166 12.4875 83.7364 15.2735 88.6952 20.3063C98.7971 30.5584 98.6215 47.2932 88.3041 57.6104Z" fill="white"/>
<g clip-path="url(#clip0_677_950)">
<path d="M62.7882 54.6261C60.3211 54.6261 58.0426 55.4485 56.2116 56.8329C56.1326 55.8067 55.9063 54.7912 55.538 53.8316C55.185 52.9116 55.0061 51.9456 55.0061 50.9603C55.0061 49.4731 55.4485 48.0372 56.2858 46.808C56.9957 45.7655 57.5399 44.6363 57.9102 43.4531C59.2155 44.1472 60.6514 44.5447 62.1246 44.6172C62.7538 45.3439 63.5632 45.9655 64.5219 46.4072C65.4802 46.8485 66.5007 47.0713 67.4972 47.0713C68.2726 47.0713 69.0334 46.9364 69.7386 46.6646C70.1537 46.5046 70.3606 46.0383 70.2006 45.6231C70.0406 45.2081 69.5744 45.0012 69.1591 45.1611C67.9513 45.6267 66.5067 45.5474 65.1959 44.9438C62.837 43.8568 61.64 41.4045 62.5277 39.4775C63.4164 37.551 66.0583 36.8681 68.4166 37.9553C70.5458 38.9362 71.7702 41.0736 71.2647 42.9273C71.1476 43.3565 71.4007 43.7995 71.8299 43.9165C72.2592 44.0336 72.7021 43.7806 72.8192 43.3513C73.0665 42.4449 73.0327 41.4968 72.765 40.5906C75.494 37.565 76.3164 33.2408 74.6133 29.502C72.7988 25.4446 68.6149 23.069 64.2016 23.591C62.1735 23.8297 60.2777 24.6559 58.7184 25.9808C58.2901 26.3453 57.8403 26.6896 57.3747 27.0123C54.9389 25.0648 51.5754 23.955 48.0611 23.955C44.5145 23.955 41.1317 25.081 38.6909 27.0579C38.2018 26.7223 37.7301 26.3623 37.2815 25.9805C36.5069 25.3219 35.6442 24.783 34.7169 24.3787C33.7917 23.9756 32.81 23.7106 31.7991 23.591C29.8438 23.3596 27.8855 23.694 26.1346 24.5581C25.7357 24.755 25.5719 25.2381 25.7688 25.637C25.9657 26.0361 26.4484 26.1999 26.8478 26.003C28.3186 25.2773 29.9654 24.9967 31.6098 25.1911C32.464 25.2921 33.293 25.5157 34.0733 25.8557C34.8553 26.1968 35.5836 26.6518 36.2376 27.2078C37.0514 27.9004 37.9336 28.5287 38.8592 29.0753C39.7491 29.6011 40.6894 30.0561 41.6541 30.4279C41.7494 30.4646 41.8473 30.482 41.9436 30.482C42.2671 30.482 42.5723 30.2858 42.6955 29.9659C42.8556 29.5507 42.6487 29.0844 42.2335 28.9244C41.5238 28.6508 40.8289 28.3272 40.1603 27.961C42.2758 26.4301 45.0968 25.5662 48.0612 25.5662C50.9965 25.5662 53.7989 26.4166 55.9089 27.9229C55.1859 28.323 54.4343 28.6723 53.6679 28.9626C52.762 29.3058 51.8206 29.5677 50.8699 29.7408C49.167 30.0508 47.4152 30.0835 45.6974 29.8329C45.2582 29.7689 44.8481 30.0734 44.7838 30.5137C44.7196 30.954 45.0244 31.363 45.4647 31.4272C46.3043 31.5498 47.1575 31.6119 48.0002 31.6119C49.0543 31.6119 50.1171 31.5156 51.1587 31.3259C52.2053 31.1354 53.2417 30.8471 54.2388 30.4693C55.2377 30.0911 56.214 29.6221 57.1411 29.0753C58.0668 28.5287 58.949 27.9003 59.7624 27.2082C61.0783 26.09 62.6785 25.3925 64.3906 25.1911C68.0998 24.7526 71.6172 26.7491 73.1426 30.16C74.4528 33.0853 74.0134 36.4676 72.0009 38.9633C71.5345 38.258 70.9154 37.6229 70.1734 37.11C71.9684 35.6878 72.7072 33.2046 71.8194 31.0206C70.6443 28.1174 67.6857 26.3634 64.5735 26.7363C63.1662 26.902 61.8513 27.4749 60.7707 28.3932C60.7707 28.3932 60.0307 29.0225 59.3261 29.6208C58.3476 30.4907 57.1319 31.0887 55.9691 31.6823C54.6695 32.3673 53.8624 33.7049 53.8624 35.173V39.1648C53.8624 40.9324 53.2433 42.6567 52.1193 44.02L51.6088 44.6389C50.1886 46.3622 49.3702 48.4509 49.2424 50.6791C49.2169 51.1234 49.5563 51.5041 50.0006 51.5297C50.0163 51.5305 50.032 51.531 50.0475 51.531C50.4713 51.531 50.8265 51.2 50.851 50.7715C50.9593 48.8872 51.6513 47.121 52.8522 45.6638L53.3625 45.045C54.724 43.3937 55.4737 41.3054 55.4737 39.1647V35.1729C55.4685 34.2388 56.0331 33.4088 56.8773 33.0254V39.6608C56.8773 41.8959 56.2123 44.0538 54.9542 45.9012C53.9342 47.3989 53.395 49.1485 53.395 50.9606C53.395 52.1439 53.6099 53.3041 54.0339 54.4091C54.2491 54.9698 54.4071 55.5531 54.5067 56.1463C54.1708 55.9671 53.7989 55.8718 53.4165 55.8718C52.5443 55.8668 51.7696 56.3555 51.3574 57.1155C51.306 57.1998 51.2163 57.2501 51.1177 57.2501C51.0211 57.2501 50.955 57.2046 50.9198 57.1696C50.8818 57.1314 50.8363 57.0653 50.8363 56.9686V54.485C50.8363 54.0401 50.4757 53.6794 50.0307 53.6794C49.5856 53.6794 49.225 54.0401 49.225 54.485V56.9686C49.225 57.4729 49.4212 57.9478 49.7805 58.309C50.1386 58.6652 50.6135 58.8615 51.1177 58.8615C51.772 58.8615 52.3891 58.5621 52.7327 57.9552C52.9585 57.5564 53.4366 57.3408 53.8303 57.6166C54.1538 57.8431 54.3636 58.1324 54.4616 58.4868C53.2887 59.8669 52.4518 61.5408 52.0793 63.3813C49.0174 64.3722 45.7196 64.2196 42.7553 62.9431C42.4547 62.8136 42.2332 62.5455 42.1625 62.226C42.0823 61.8078 41.5086 59.4045 41.4867 59.0322C41.4374 58.4698 41.6994 57.9273 42.1706 57.6165C42.5547 57.3297 43.0893 57.5344 43.2684 57.9561C43.6098 58.5148 44.2285 58.8619 44.8833 58.8619C45.9271 58.8619 46.7762 58.0127 46.7762 56.9689V51.2784C46.7762 48.8614 45.9294 46.5034 44.3919 44.6387L43.8817 44.0199C42.7574 42.6563 42.1383 40.9321 42.1383 39.1649V35.1727C42.1383 33.7038 41.3307 32.3665 40.0308 31.6827C38.8681 31.0869 37.6546 30.4928 36.6751 29.6214L35.2305 28.3933C34.1504 27.4754 32.8355 26.9023 31.4274 26.736C28.3979 26.3789 25.5235 28.0099 24.2774 30.7947C23.2342 33.0455 23.9699 35.7008 25.8802 37.1546C25.1454 37.6709 24.5262 38.3112 24.0603 39.0398C22.0008 36.5409 21.5318 33.1149 22.8578 30.1595C23.1888 29.419 23.6192 28.7336 24.1368 28.1224C24.4244 27.7829 24.3822 27.2744 24.0426 26.987C23.7032 26.6993 23.1946 26.7415 22.9072 27.0811C22.2914 27.8082 21.7799 28.6227 21.387 29.5016C19.838 32.9627 20.3429 36.9563 22.7048 39.924L23.3196 40.6966C23.0032 41.8579 23.0858 43.0368 23.5738 44.0957C24.195 45.4437 25.3891 46.4208 26.9361 46.847C27.4841 46.9979 28.0533 47.0727 28.629 47.0727C29.6263 47.0727 30.6427 46.8483 31.6005 46.4069C32.5457 45.9712 33.3673 45.3548 34.0114 44.6098C35.4368 44.5199 36.8257 44.1255 38.0901 43.4534C38.4603 44.6366 39.0045 45.7656 39.7144 46.8081C40.5516 48.0373 40.9941 49.4732 40.9941 50.9605C40.9941 51.9457 40.8151 52.9118 40.4621 53.8317C39.7807 55.6075 39.5904 57.5145 39.9009 59.3816C40.7107 63.2778 42.3653 70.5378 43.2062 74.4238C43.283 74.7712 43.4995 75.0794 43.8002 75.2693C45.0764 76.0753 46.5268 76.4805 47.9797 76.4805C49.4211 76.4894 50.8773 76.0603 52.1458 75.2881C52.4778 75.1009 52.7153 74.7801 52.7972 74.4082L53.4879 71.2811C55.4146 74.3976 58.8626 76.4787 62.7881 76.4787C68.8128 76.4787 73.7143 71.5772 73.7143 65.5525C73.7143 59.5278 68.8129 54.6261 62.7882 54.6261ZM58.302 41.8242C58.369 41.4346 58.4196 41.0413 58.4501 40.6447C59.1353 41.1141 59.9003 41.4696 60.7026 41.6882C60.7709 42.088 60.8848 42.4837 61.0421 42.8687C60.0804 42.6845 59.1541 42.3321 58.302 41.8242ZM60.369 30.8488C61.0738 30.2503 61.814 29.6208 61.814 29.6208C62.6517 28.9091 63.6709 28.4649 64.7617 28.3364C67.1493 28.05 69.4198 29.3945 70.3255 31.6252C71.0382 33.3785 70.2315 35.4122 68.5243 36.2593C65.5076 35.1626 62.2507 36.2315 61.0643 38.803C60.8858 39.1904 60.7657 39.5917 60.6967 39.9989C59.8643 39.7008 59.1008 39.2125 58.4882 38.5809V32.1776C59.1535 31.7899 59.7836 31.3461 60.369 30.8488ZM47.9974 65.6386C49.2974 65.6386 50.5991 65.4664 51.8712 65.1225C51.8318 66.0561 51.9204 67.0086 52.1157 67.8953C49.4187 68.9913 46.3567 68.963 43.6789 67.8099C43.483 67.7255 43.3385 67.5509 43.2924 67.3427L42.6993 64.6577C44.4066 65.31 46.2001 65.6386 47.9974 65.6386ZM25.6748 31.6253C26.5764 29.3961 28.8506 28.0503 31.2382 28.3361C32.3297 28.465 33.3491 28.9093 34.1865 29.6208L35.631 30.8489C36.2166 31.3467 36.8468 31.7904 37.5118 32.1777V38.5815C36.9272 39.184 36.2075 39.6551 35.4202 39.9559C35.3482 39.5609 35.2286 39.1744 35.0574 38.803C34.4361 37.4549 33.242 36.4778 31.6951 36.0517C30.3608 35.6841 28.9004 35.7695 27.5291 36.2849C25.7793 35.4542 24.9489 33.4103 25.6748 31.6253ZM30.926 44.9435C29.7602 45.4809 28.4951 45.6053 27.3642 45.2936C26.2829 44.9957 25.4564 44.3309 25.0373 43.4213C24.6182 42.5119 24.6494 41.4516 25.1253 40.436C25.6232 39.3736 26.5394 38.4926 27.7053 37.9553C28.4505 37.6119 29.2361 37.4371 30.0015 37.4371C30.4334 37.4371 30.859 37.4929 31.2671 37.6052C32.3485 37.9031 33.1749 38.568 33.594 39.4775C34.0131 40.387 33.9819 41.4471 33.506 42.4628C33.008 43.5251 32.0918 44.4062 30.926 44.9435ZM35.0972 42.8414C35.256 42.4475 35.3668 42.0488 35.4317 41.6505C36.1863 41.4295 36.9036 41.0881 37.5502 40.6449C37.5807 41.0415 37.6313 41.4347 37.6982 41.8242C36.8878 42.307 36.0093 42.6504 35.0972 42.8414ZM39.1231 39.6607V33.0258C39.9675 33.4097 40.532 34.2382 40.5266 35.1725V39.1647C40.5266 41.3049 41.2764 43.3932 42.6381 45.0448L43.1483 45.6636C44.4485 47.2405 45.1646 49.2344 45.1646 51.2782V56.9687C45.1646 57.1241 45.0382 57.2504 44.8829 57.2504C44.7842 57.2504 44.6945 57.2001 44.6432 57.1159C44.3107 56.5084 43.7533 56.0651 43.0712 55.9235C42.5277 55.807 41.9763 55.8862 41.4929 56.1451C41.5924 55.5558 41.7494 54.9743 41.9665 54.4088C42.3905 53.3038 42.6054 52.1436 42.6054 50.9602C42.6054 49.1481 42.0661 47.3986 41.0462 45.9008C39.7882 44.0536 39.1231 41.8958 39.1231 39.6607ZM51.2498 73.9434C49.2573 75.1611 46.7473 75.1816 44.7551 73.9652L43.7868 69.5816C45.1449 70.0651 46.5721 70.3077 48.0001 70.3077C49.4276 70.3077 50.8553 70.065 52.2134 69.5816L51.2498 73.9434ZM62.7882 74.8673C57.652 74.8673 53.4733 70.6886 53.4733 65.5524C53.4733 60.4162 57.6519 56.2375 62.7882 56.2375C67.9245 56.2375 72.1031 60.4162 72.1031 65.5524C72.1031 70.6886 67.9244 74.8673 62.7882 74.8673Z" fill="white"/>
<path d="M68.2365 62.8961H65.445V60.1045C65.445 59.6596 65.0844 59.2988 64.6394 59.2988H60.9379C60.4929 59.2988 60.1323 59.6596 60.1323 60.1045V62.8961H57.3408C56.8958 62.8961 56.5352 63.2568 56.5352 63.7017V67.4032C56.5352 67.8481 56.8958 68.2088 57.3408 68.2088H60.1323V71.0003C60.1323 71.4452 60.4929 71.806 60.9379 71.806H64.6394C65.0844 71.806 65.445 71.4452 65.445 71.0003V68.2088H68.2365C68.6816 68.2088 69.0422 67.8481 69.0422 67.4032V63.7017C69.0422 63.2568 68.6815 62.8961 68.2365 62.8961ZM67.4308 66.5975H64.6394C64.1943 66.5975 63.8337 66.9582 63.8337 67.4032V70.1946H61.7436V67.4032C61.7436 66.9582 61.383 66.5975 60.9379 66.5975H58.1465V64.5074H60.9379C61.383 64.5074 61.7436 64.1467 61.7436 63.7017V60.9102H63.8337V63.7017C63.8337 64.1467 64.1943 64.5074 64.6394 64.5074H67.4308V66.5975Z" fill="white"/>
</g>
<defs>
<clipPath id="clip0_677_950">
<rect width="55" height="55" fill="white" transform="translate(20.5 22.5)"/>
</clipPath>
</defs>
</svg>
