<svg width="100" height="100" viewBox="0 0 100 100" fill="none" xmlns="http://www.w3.org/2000/svg">
<path d="M91.435 17.607C85.7514 11.8387 78.1637 8.6457 70.0695 8.61543C70.0311 8.61523 69.9932 8.61523 69.9545 8.61523C62.5279 8.61523 55.514 11.2813 50 16.1652C44.4855 11.2811 37.4726 8.61523 30.0454 8.61523C30.0073 8.61523 29.9687 8.61523 29.9304 8.61543C21.8358 8.64551 14.2481 11.8387 8.56492 17.607C-3.01382 29.3586 -2.82944 48.5241 8.97624 60.3298L33.0044 84.358C37.6902 89.0435 43.8453 91.3865 50.0004 91.3865C56.1554 91.3865 62.3103 89.0435 66.9963 84.358L91.0245 60.3298C102.829 48.5241 103.014 29.3588 91.435 17.607ZM88.3041 57.6104L64.2762 81.6382C60.4627 85.4517 55.3927 87.5517 49.9998 87.5517C44.6068 87.5517 39.5369 85.4515 35.7234 81.6382L11.6952 57.6104C1.37799 47.2932 1.2024 30.5584 11.304 20.3063C16.2628 15.2735 22.8827 12.4873 29.9445 12.4613C29.978 12.4611 30.0112 12.4611 30.0446 12.4611C37.0695 12.4611 43.6701 15.1949 48.64 20.1647C49.0007 20.5252 49.4896 20.728 49.9996 20.728C50.5095 20.728 50.9984 20.5252 51.3591 20.1647C56.3293 15.1943 62.9293 12.4611 69.9545 12.4611C69.9877 12.4611 70.0217 12.4611 70.0547 12.4613C77.1166 12.4875 83.7364 15.2735 88.6952 20.3063C98.7971 30.5584 98.6215 47.2932 88.3041 57.6104Z" fill="white"/>
<g clip-path="url(#clip0_677_1117)">
<path d="M27.5 70.4994H72.5C73.8807 70.4994 75 69.3801 75 67.9994V67.166C74.9956 66.1104 74.3286 65.1712 73.3333 64.8194V47.0127C74.3286 46.6608 74.9956 45.7217 75 44.666V43.8327C75 42.452 73.8807 41.3327 72.5 41.3327H66.6667V39.5127C67.8138 39.1086 68.5022 37.9362 68.2962 36.7375C68.0901 35.5389 67.0495 34.6637 65.8333 34.666H59.1667C57.9505 34.6637 56.9099 35.5389 56.7038 36.7375C56.4978 37.9362 57.1862 39.1086 58.3333 39.5127V41.3327H54.1667V39.5127C55.3138 39.1086 56.0022 37.9362 55.7962 36.7375C55.5901 35.5389 54.5495 34.6637 53.3333 34.666H46.6667C45.4505 34.6637 44.4099 35.5389 44.2038 36.7375C43.9978 37.9362 44.6862 39.1086 45.8333 39.5127V41.3327H41.6667V39.5127C42.8138 39.1086 43.5022 37.9362 43.2962 36.7375C43.0901 35.5389 42.0495 34.6637 40.8333 34.666H34.1667C32.9505 34.6637 31.9099 35.5389 31.7038 36.7375C31.4978 37.9362 32.1862 39.1086 33.3333 39.5127V41.3327H27.5C26.1193 41.3327 25 42.452 25 43.8327V44.666C25.0044 45.7217 25.6714 46.6608 26.6667 47.0127V64.8194C25.6714 65.1712 25.0044 66.1104 25 67.166V67.9994C25 68.6624 25.2634 69.2983 25.7322 69.7671C26.2011 70.236 26.837 70.4994 27.5 70.4994ZM59.1667 36.3327H65.8333C66.2936 36.3327 66.6667 36.7058 66.6667 37.166C66.6667 37.6263 66.2936 37.9994 65.8333 37.9994H59.1667C58.7064 37.9994 58.3333 37.6263 58.3333 37.166C58.3333 36.7058 58.7064 36.3327 59.1667 36.3327ZM65 39.666V41.3327H60V39.666H65ZM46.6667 36.3327H53.3333C53.7936 36.3327 54.1667 36.7058 54.1667 37.166C54.1667 37.6263 53.7936 37.9994 53.3333 37.9994H46.6667C46.2064 37.9994 45.8333 37.6263 45.8333 37.166C45.8333 36.7058 46.2064 36.3327 46.6667 36.3327ZM52.5 39.666V41.3327H47.5V39.666H52.5ZM34.1667 36.3327H40.8333C41.2936 36.3327 41.6667 36.7058 41.6667 37.166C41.6667 37.6263 41.2936 37.9994 40.8333 37.9994H34.1667C33.7064 37.9994 33.3333 37.6263 33.3333 37.166C33.3333 36.7058 33.7064 36.3327 34.1667 36.3327ZM40 39.666V41.3327H35V39.666H40ZM26.6667 43.8327C26.6667 43.3725 27.0398 42.9994 27.5 42.9994H72.5C72.9602 42.9994 73.3333 43.3725 73.3333 43.8327V44.666C73.3333 45.1263 72.9602 45.4994 72.5 45.4994H27.5C27.0398 45.4994 26.6667 45.1263 26.6667 44.666V43.8327ZM71.6667 47.166V64.666H70V47.166H71.6667ZM37.5 62.9994C39.8 62.9966 41.6639 61.1327 41.6667 58.8327V47.166H45.8333V58.8327C45.8333 61.1339 47.6988 62.9994 50 62.9994C52.3012 62.9994 54.1667 61.1339 54.1667 58.8327V47.166H58.3333V58.8327C58.3333 61.1339 60.1988 62.9994 62.5 62.9994C64.8012 62.9994 66.6667 61.1339 66.6667 58.8327V47.166H68.3333V64.666H31.6667V47.166H33.3333V58.8327C33.3361 61.1327 35.2 62.9966 37.5 62.9994ZM40 57.166V58.8327C40 60.2134 38.8807 61.3327 37.5 61.3327C36.1193 61.3327 35 60.2134 35 58.8327V57.166H40ZM35 55.4994V47.166H40V55.4994H35ZM52.5 57.166V58.8327C52.5 60.2134 51.3807 61.3327 50 61.3327C48.6193 61.3327 47.5 60.2134 47.5 58.8327V57.166H52.5ZM47.5 55.4994V47.166H52.5V55.4994H47.5ZM65 57.166V58.8327C65 60.2134 63.8807 61.3327 62.5 61.3327C61.1193 61.3327 60 60.2134 60 58.8327V57.166H65ZM60 55.4994V47.166H65V55.4994H60ZM30 47.166V64.666H28.3333V47.166H30ZM26.6667 67.166C26.6667 66.7058 27.0398 66.3327 27.5 66.3327H72.5C72.9602 66.3327 73.3333 66.7058 73.3333 67.166V67.9994C73.3333 68.4596 72.9602 68.8327 72.5 68.8327H27.5C27.0398 68.8327 26.6667 68.4596 26.6667 67.9994V67.166Z" fill="white"/>
<path d="M60.021 27.1667C60.8014 28.2121 62.0281 28.8295 63.3327 28.8333H67.4994C69.8005 28.8333 71.666 26.9679 71.666 24.6667C71.666 22.3655 69.8005 20.5 67.4994 20.5H63.3327C62.0281 20.5038 60.8014 21.1212 60.021 22.1667H40.756C40.0978 22.1661 39.4542 22.361 38.9068 22.7267C38.1882 23.1379 37.5051 23.6081 36.8643 24.1325L36.8543 24.14C36.5827 24.4767 34.166 27.5 34.166 29.6667C34.166 31.5076 35.6584 33 37.4993 33C39.3403 33 40.8327 31.5076 40.8327 29.6667C40.7737 28.7597 40.5135 27.8772 40.071 27.0833C40.2958 27.135 40.5254 27.1629 40.756 27.1667H60.021ZM63.3327 22.1667H67.4994C68.8801 22.1667 69.9994 23.286 69.9994 24.6667C69.9994 26.0474 68.8801 27.1667 67.4994 27.1667H63.3327C61.952 27.1667 60.8327 26.0474 60.8327 24.6667C60.8327 23.286 61.952 22.1667 63.3327 22.1667ZM37.4993 31.3333C36.5789 31.3333 35.8327 30.5871 35.8327 29.6667C35.8327 28.7383 36.6952 27.2042 37.4993 26.0542C38.3035 27.2042 39.166 28.7383 39.166 29.6667C39.166 30.5871 38.4198 31.3333 37.4993 31.3333ZM39.8327 25.22L38.9993 24.6667L39.8327 24.1133C40.106 23.9307 40.4273 23.8333 40.756 23.8333H59.2494C59.1371 24.3832 59.1371 24.9501 59.2494 25.5H40.756C40.4273 25.5 40.106 25.4026 39.8327 25.22Z" fill="white"/>
</g>
<defs>
<clipPath id="clip0_677_1117">
<rect width="50" height="50" fill="white" transform="translate(25 20.5)"/>
</clipPath>
</defs>
</svg>
