<svg width="100" height="100" viewBox="0 0 100 100" fill="none" xmlns="http://www.w3.org/2000/svg">
<rect width="100" height="100" fill="#259BF1"/>
<g clip-path="url(#clip0_659_348)">
<path d="M83.148 24.0841C78.6011 19.4694 72.5309 16.915 66.0556 16.8908C66.0248 16.8906 65.9945 16.8906 65.9636 16.8906C60.0223 16.8906 54.4112 19.0234 50 22.9306C45.5884 19.0233 39.9781 16.8906 34.0363 16.8906C34.0059 16.8906 33.9749 16.8906 33.9443 16.8908C27.4687 16.9148 21.3985 19.4694 16.8519 24.0841C7.58895 33.4853 7.73645 48.8177 17.181 58.2623L36.4035 77.4848C40.1521 81.2332 45.0762 83.1076 50.0003 83.1076C54.9244 83.1076 59.8483 81.2332 63.597 77.4848L82.8196 58.2623C92.2633 48.8177 92.4108 33.4855 83.148 24.0841ZM80.6433 56.0868L61.4209 75.309C58.3701 78.3598 54.3142 80.0398 49.9998 80.0398C45.6854 80.0398 41.6295 78.3596 38.5787 75.309L19.3562 56.0868C11.1024 47.833 10.9619 34.4452 19.0432 26.2435C23.0102 22.2172 28.3062 19.9883 33.9556 19.9675C33.9824 19.9673 34.009 19.9673 34.0357 19.9673C39.6556 19.9673 44.936 22.1544 48.912 26.1302C49.2006 26.4186 49.5917 26.5808 49.9997 26.5808C50.4076 26.5808 50.7987 26.4186 51.0873 26.1302C55.0634 22.1539 60.3434 19.9673 65.9636 19.9673C65.9902 19.9673 66.0173 19.9673 66.0437 19.9675C71.6933 19.9884 76.9891 22.2172 80.9561 26.2435C89.0377 34.4452 88.8972 47.833 80.6433 56.0868Z" fill="white"/>
<g clip-path="url(#clip1_659_348)">
<path d="M32 66.401H68C69.1046 66.401 70 65.5056 70 64.401V63.7344C69.9965 62.8899 69.4629 62.1385 68.6667 61.857V47.6117C69.4629 47.3302 69.9965 46.5789 70 45.7344V45.0677C70 43.9631 69.1046 43.0677 68 43.0677H63.3333V41.6117C64.251 41.2885 64.8018 40.3505 64.6369 39.3916C64.4721 38.4327 63.6396 37.7325 62.6667 37.7344H57.3333C56.3604 37.7325 55.5279 38.4327 55.3631 39.3916C55.1982 40.3505 55.749 41.2885 56.6667 41.6117V43.0677H53.3333V41.6117C54.251 41.2885 54.8018 40.3505 54.6369 39.3916C54.4721 38.4327 53.6396 37.7325 52.6667 37.7344H47.3333C46.3604 37.7325 45.5279 38.4327 45.3631 39.3916C45.1982 40.3505 45.749 41.2885 46.6667 41.6117V43.0677H43.3333V41.6117C44.251 41.2885 44.8018 40.3505 44.6369 39.3916C44.4721 38.4327 43.6396 37.7325 42.6667 37.7344H37.3333C36.3604 37.7325 35.5279 38.4327 35.3631 39.3916C35.1982 40.3505 35.749 41.2885 36.6667 41.6117V43.0677H32C30.8954 43.0677 30 43.9631 30 45.0677V45.7344C30.0035 46.5789 30.5371 47.3302 31.3333 47.6117V61.857C30.5371 62.1385 30.0035 62.8899 30 63.7344V64.401C30 64.9315 30.2107 65.4402 30.5858 65.8153C30.9609 66.1903 31.4696 66.401 32 66.401ZM57.3333 39.0677H62.6667C63.0349 39.0677 63.3333 39.3662 63.3333 39.7344C63.3333 40.1026 63.0349 40.401 62.6667 40.401H57.3333C56.9651 40.401 56.6667 40.1026 56.6667 39.7344C56.6667 39.3662 56.9651 39.0677 57.3333 39.0677ZM62 41.7344V43.0677H58V41.7344H62ZM47.3333 39.0677H52.6667C53.0349 39.0677 53.3333 39.3662 53.3333 39.7344C53.3333 40.1026 53.0349 40.401 52.6667 40.401H47.3333C46.9651 40.401 46.6667 40.1026 46.6667 39.7344C46.6667 39.3662 46.9651 39.0677 47.3333 39.0677ZM52 41.7344V43.0677H48V41.7344H52ZM37.3333 39.0677H42.6667C43.0349 39.0677 43.3333 39.3662 43.3333 39.7344C43.3333 40.1026 43.0349 40.401 42.6667 40.401H37.3333C36.9651 40.401 36.6667 40.1026 36.6667 39.7344C36.6667 39.3662 36.9651 39.0677 37.3333 39.0677ZM42 41.7344V43.0677H38V41.7344H42ZM31.3333 45.0677C31.3333 44.6995 31.6318 44.401 32 44.401H68C68.3682 44.401 68.6667 44.6995 68.6667 45.0677V45.7344C68.6667 46.1026 68.3682 46.401 68 46.401H32C31.6318 46.401 31.3333 46.1026 31.3333 45.7344V45.0677ZM67.3333 47.7344V61.7344H66V47.7344H67.3333ZM40 60.401C41.84 60.3988 43.3311 58.9078 43.3333 57.0677V47.7344H46.6667V57.0677C46.6667 58.9087 48.1591 60.401 50 60.401C51.8409 60.401 53.3333 58.9087 53.3333 57.0677V47.7344H56.6667V57.0677C56.6667 58.9087 58.1591 60.401 60 60.401C61.841 60.401 63.3333 58.9087 63.3333 57.0677V47.7344H64.6667V61.7344H35.3333V47.7344H36.6667V57.0677C36.6689 58.9078 38.16 60.3988 40 60.401ZM42 55.7344V57.0677C42 58.1723 41.1046 59.0677 40 59.0677C38.8954 59.0677 38 58.1723 38 57.0677V55.7344H42ZM38 54.401V47.7344H42V54.401H38ZM52 55.7344V57.0677C52 58.1723 51.1046 59.0677 50 59.0677C48.8954 59.0677 48 58.1723 48 57.0677V55.7344H52ZM48 54.401V47.7344H52V54.401H48ZM62 55.7344V57.0677C62 58.1723 61.1046 59.0677 60 59.0677C58.8954 59.0677 58 58.1723 58 57.0677V55.7344H62ZM58 54.401V47.7344H62V54.401H58ZM34 47.7344V61.7344H32.6667V47.7344H34ZM31.3333 63.7344C31.3333 63.3662 31.6318 63.0677 32 63.0677H68C68.3682 63.0677 68.6667 63.3662 68.6667 63.7344V64.401C68.6667 64.7692 68.3682 65.0677 68 65.0677H32C31.6318 65.0677 31.3333 64.7692 31.3333 64.401V63.7344Z" fill="white"/>
<path d="M58.018 31.7337C58.6423 32.5701 59.6237 33.064 60.6673 33.0671H64.0007C65.8416 33.0671 67.334 31.5747 67.334 29.7337C67.334 27.8928 65.8416 26.4004 64.0007 26.4004H60.6673C59.6237 26.4034 58.6423 26.8973 58.018 27.7337H42.606C42.0794 27.7333 41.5645 27.8892 41.1267 28.1817C40.5518 28.5107 40.0052 28.8869 39.4927 29.3064L39.4847 29.3124C39.2673 29.5817 37.334 32.0004 37.334 33.7337C37.334 35.2065 38.5279 36.4004 40.0007 36.4004C41.4734 36.4004 42.6673 35.2065 42.6673 33.7337C42.6201 33.0082 42.412 32.3022 42.058 31.6671C42.2378 31.7084 42.4215 31.7307 42.606 31.7337H58.018ZM60.6673 27.7337H64.0007C65.1052 27.7337 66.0007 28.6292 66.0007 29.7337C66.0007 30.8383 65.1052 31.7337 64.0007 31.7337H60.6673C59.5628 31.7337 58.6673 30.8383 58.6673 29.7337C58.6673 28.6292 59.5628 27.7337 60.6673 27.7337ZM40.0007 35.0671C39.2643 35.0671 38.6673 34.4701 38.6673 33.7337C38.6673 32.9911 39.3573 31.7637 40.0007 30.8437C40.644 31.7637 41.334 32.9911 41.334 33.7337C41.334 34.4701 40.737 35.0671 40.0007 35.0671ZM41.8673 30.1764L41.2007 29.7337L41.8673 29.2911C42.086 29.145 42.343 29.067 42.606 29.0671H57.4007C57.3109 29.507 57.3109 29.9605 57.4007 30.4004H42.606C42.343 30.4004 42.086 30.3225 41.8673 30.1764Z" fill="white"/>
</g>
</g>
<defs>
<clipPath id="clip0_659_348">
<rect width="80" height="80" fill="white" transform="translate(10 10)"/>
</clipPath>
<clipPath id="clip1_659_348">
<rect width="40" height="40" fill="white" transform="translate(30 26.4004)"/>
</clipPath>
</defs>
</svg>
