<svg width="100" height="100" viewBox="0 0 100 100" fill="none" xmlns="http://www.w3.org/2000/svg">
<path d="M91.435 17.607C85.7514 11.8387 78.1637 8.6457 70.0695 8.61543C70.0311 8.61523 69.9932 8.61523 69.9545 8.61523C62.5279 8.61523 55.514 11.2813 50 16.1652C44.4855 11.2811 37.4726 8.61523 30.0454 8.61523C30.0073 8.61523 29.9687 8.61523 29.9304 8.61543C21.8358 8.64551 14.2481 11.8387 8.56492 17.607C-3.01382 29.3586 -2.82944 48.5241 8.97624 60.3298L33.0044 84.358C37.6902 89.0435 43.8453 91.3865 50.0004 91.3865C56.1554 91.3865 62.3103 89.0435 66.9963 84.358L91.0245 60.3298C102.829 48.5241 103.014 29.3588 91.435 17.607ZM88.3041 57.6104L64.2762 81.6382C60.4627 85.4517 55.3927 87.5517 49.9998 87.5517C44.6068 87.5517 39.5369 85.4515 35.7234 81.6382L11.6952 57.6104C1.37799 47.2932 1.2024 30.5584 11.304 20.3063C16.2628 15.2735 22.8827 12.4873 29.9445 12.4613C29.978 12.4611 30.0112 12.4611 30.0446 12.4611C37.0695 12.4611 43.6701 15.1949 48.64 20.1647C49.0007 20.5252 49.4896 20.728 49.9996 20.728C50.5095 20.728 50.9984 20.5252 51.3591 20.1647C56.3293 15.1943 62.9293 12.4611 69.9545 12.4611C69.9877 12.4611 70.0217 12.4611 70.0547 12.4613C77.1166 12.4875 83.7364 15.2735 88.6952 20.3063C98.7971 30.5584 98.6215 47.2932 88.3041 57.6104Z" fill="white"/>
<g clip-path="url(#clip0_677_885)">
<path d="M79.0888 49.3378C78.5081 47.3308 76.9453 42.1703 74.9802 37.6069C74.7934 37.1736 74.2909 36.9734 73.8574 37.16C73.424 37.3467 73.2239 37.8494 73.4105 38.2828C75.3375 42.7574 76.8755 47.8367 77.4474 49.8127C77.4818 49.9315 77.4349 50.0609 77.3308 50.1348C73.2136 53.061 68.7266 53.9016 65.7295 54.0977C66.8471 52.4134 67.4477 50.4385 67.4477 48.371C67.4477 47.531 67.3471 46.7066 67.1546 45.9103C68.082 45.7171 68.9105 45.8089 69.623 46.187C69.6294 46.1905 69.6361 46.1927 69.6425 46.1959C69.659 46.2041 69.6752 46.2127 69.6924 46.2199C69.6988 46.2225 70.3402 46.5268 70.6898 47.4424C70.8199 47.7829 71.1442 47.9922 71.4883 47.9922C71.5896 47.9922 71.6926 47.9741 71.793 47.9358C72.2338 47.7674 72.4548 47.2736 72.2865 46.8326C71.8768 45.7597 71.2044 45.1663 70.7676 44.8752L68.5673 35.8366C68.4772 35.466 68.1524 35.2001 67.7715 35.1847C67.3888 35.1706 67.0455 35.4084 66.9258 35.7704C66.8793 35.9112 66.8041 36.0389 66.7022 36.15C66.4773 36.3957 66.1275 36.4861 65.8099 36.3805L63.8253 35.7197C63.0516 35.4615 62.6061 34.6406 62.811 33.8512L63.3547 31.7595C63.5501 31.0064 64.2795 30.5111 65.052 30.6053L68.6398 31.0474C68.7486 31.0608 68.8483 31.095 68.9284 31.1465C69.5159 31.5237 70.495 32.4906 71.8219 34.9541C72.0456 35.3695 72.564 35.5252 72.9794 35.3012C73.3948 35.0774 73.5503 34.5591 73.3264 34.1437C72.1051 31.8764 70.9685 30.4255 69.852 29.7087C69.5578 29.5195 69.2108 29.3959 68.8487 29.3513L65.261 28.9092C63.6411 28.7098 62.1104 29.75 61.7004 31.3297L61.1567 33.4215C60.727 35.0779 61.6616 36.7993 63.2849 37.3409L65.27 38.002C65.9506 38.2287 66.6824 38.155 67.2928 37.8261L68.8347 44.1609C68.2055 44.0685 67.4629 44.0788 66.6121 44.2803C66.0979 43.0802 65.3562 41.9764 64.4052 41.0254C60.4491 37.0694 54.0699 36.9774 50.0009 40.7495C45.932 36.9774 39.5527 37.0694 35.5966 41.0255C34.6326 41.9895 33.9009 43.0983 33.3957 44.2815C32.5425 44.0785 31.7981 44.0681 31.1669 44.1609L32.709 37.8259C33.3195 38.155 34.0512 38.2284 34.7318 38.002L36.7173 37.3407C38.3403 36.7993 39.2749 35.0778 38.8449 33.4212L38.3012 31.3302C37.8911 29.7504 36.3602 28.7099 34.7406 28.9094L31.1528 29.3515C30.7908 29.396 30.4439 29.5196 30.1499 29.7087C28.3326 30.8755 26.4183 34.0309 24.2973 39.3556C22.6596 43.4675 21.3845 47.7062 20.9124 49.3378C20.6763 50.1535 20.9851 51.0338 21.6806 51.528C23.078 52.5212 24.6185 53.3605 26.2592 54.0227C26.364 54.065 26.4722 54.085 26.5787 54.085C26.9169 54.085 27.237 53.883 27.3715 53.5502C27.5481 53.1125 27.3365 52.6146 26.8989 52.4379C25.382 51.8256 23.9594 51.0507 22.6707 50.1349C22.5666 50.061 22.5198 49.9316 22.5542 49.8129C24.7178 42.3363 28.2471 32.9616 31.0736 31.1465C31.1534 31.0952 31.2531 31.0611 31.3619 31.0476L34.9499 30.6055C35.7219 30.5114 36.4517 31.0065 36.6472 31.7599L37.1907 33.851C37.3957 34.6409 36.9502 35.4618 36.1768 35.7197L34.1918 36.3807C33.8745 36.4865 33.5243 36.3957 33.2993 36.15C33.1977 36.0391 33.1226 35.9114 33.0759 35.7703C32.956 35.4083 32.6126 35.1714 32.2301 35.185C31.8492 35.2005 31.5246 35.4664 31.4345 35.8368L29.2343 44.8755C28.7975 45.1667 28.125 45.76 27.7155 46.8331C27.5472 47.274 27.7681 47.7678 28.209 47.9362C28.3093 47.9744 28.4123 47.9925 28.5136 47.9925C28.8576 47.9925 29.182 47.7831 29.312 47.4426C29.6603 46.5303 30.2958 46.2268 30.3228 46.2144L30.3094 46.2203L30.3086 46.2183C30.3322 46.2084 30.356 46.1995 30.3788 46.1874C31.0929 45.8085 31.923 45.7165 32.8524 45.9112C32.1844 48.6706 32.6578 51.6521 34.2726 54.0962C33.1644 54.0221 31.8194 53.8577 30.3487 53.519C29.8891 53.4127 29.4301 53.7001 29.3242 54.1599C29.2182 54.6198 29.5052 55.0784 29.9651 55.1844C32.3256 55.728 34.387 55.8528 35.7381 55.8585L48.5593 68.6797C48.9566 69.077 49.4786 69.2757 50.0006 69.2757C50.5225 69.2757 51.0444 69.077 51.4418 68.6797L58.1828 61.9388C58.5165 61.6049 58.5165 61.064 58.1828 60.7303C57.849 60.3967 57.308 60.3967 56.9743 60.7303L50.2333 67.4713C50.1051 67.5995 49.8962 67.5997 49.7678 67.4713L36.8047 54.5084C33.4208 51.1243 33.4208 45.6182 36.8047 42.2343C40.1886 38.8503 45.6947 38.8502 49.0786 42.2341L49.3963 42.5518C49.5566 42.7121 49.7738 42.8021 50.0006 42.8021C50.2273 42.8021 50.4446 42.712 50.6049 42.5518L50.9223 42.2343C52.5615 40.5949 54.7411 39.6922 57.0593 39.6922C59.3776 39.6922 61.557 40.595 63.1962 42.2343C64.8356 43.8735 65.7383 46.053 65.7383 48.3712C65.7383 50.6893 64.8354 52.8689 63.1962 54.508L59.6191 58.0853C59.2854 58.419 59.2854 58.96 59.6192 59.2937C59.9528 59.6273 60.4939 59.6272 60.8276 59.2936L64.2628 55.8584C67.2973 55.8462 73.073 55.2572 78.3205 51.5278C79.0163 51.0335 79.3249 50.1534 79.0888 49.3378Z" fill="white"/>
<path d="M45.5778 32.877H46.654V33.9534C46.654 35.0527 47.5485 35.9472 48.6479 35.9472H51.3519C52.4513 35.9472 53.3458 35.0527 53.3458 33.9534V32.877H54.422C55.5213 32.877 56.4158 31.9825 56.4158 30.8832V28.1791C56.4158 27.0798 55.5213 26.1853 54.422 26.1853H53.3458V25.1091C53.3458 24.0097 52.4513 23.1152 51.3519 23.1152H48.6479C47.5485 23.1152 46.654 24.0097 46.654 25.1091V26.1853H45.5778C44.4785 26.1853 43.584 27.0798 43.584 28.1791V30.8832C43.584 31.9827 44.4784 32.877 45.5778 32.877ZM45.293 28.1791C45.293 28.022 45.4208 27.8943 45.5778 27.8943H47.5085C47.9804 27.8943 48.363 27.5118 48.363 27.0398V25.1091C48.363 24.952 48.4909 24.8242 48.6479 24.8242H51.3519C51.5091 24.8242 51.6368 24.952 51.6368 25.1091V27.0398C51.6368 27.5118 52.0193 27.8943 52.4913 27.8943H54.422C54.5791 27.8943 54.7068 28.022 54.7068 28.1791V30.8832C54.7068 31.0403 54.5791 31.168 54.422 31.168H52.4913C52.0193 31.168 51.6368 31.5505 51.6368 32.0225V33.9534C51.6368 34.1105 51.5091 34.2382 51.3519 34.2382H48.6479C48.4909 34.2382 48.363 34.1105 48.363 33.9534V32.0225C48.363 31.5505 47.9804 31.168 47.5085 31.168H45.5778C45.4208 31.168 45.293 31.0403 45.293 30.8832V28.1791Z" fill="white"/>
<path d="M50.0014 57.654C51.6863 57.654 53.2313 56.8023 54.1338 55.376C54.3862 54.9771 54.2675 54.4493 53.8687 54.1969C53.47 53.9448 52.9421 54.0633 52.6896 54.462C52.1021 55.3906 51.0971 55.945 50.0013 55.945C48.9054 55.945 47.9006 55.3907 47.313 54.4621C47.0608 54.0634 46.533 53.9447 46.134 54.1969C45.7353 54.4493 45.6165 54.9771 45.8688 55.3759C46.7715 56.8024 48.3164 57.654 50.0014 57.654Z" fill="white"/>
<path d="M46.6504 51.088V50.5029C46.6504 50.0309 46.2678 49.6484 45.7959 49.6484C45.324 49.6484 44.9414 50.0309 44.9414 50.5029V51.088C44.9414 51.56 45.324 51.9425 45.7959 51.9425C46.2678 51.9425 46.6504 51.56 46.6504 51.088Z" fill="white"/>
<path d="M55.0606 51.088V50.5029C55.0606 50.0309 54.6781 49.6484 54.2061 49.6484C53.734 49.6484 53.3516 50.0309 53.3516 50.5029V51.088C53.3516 51.56 53.734 51.9425 54.2061 51.9425C54.6781 51.9425 55.0606 51.56 55.0606 51.088Z" fill="white"/>
<path d="M35.9652 61.4569H34.8889V60.3805C34.8889 59.2812 33.9944 58.3867 32.895 58.3867H30.1909C29.0916 58.3867 28.1971 59.2812 28.1971 60.3805V61.4569H27.1208C26.0214 61.4569 25.127 62.3514 25.127 63.4507V66.1548C25.127 67.2541 26.0214 68.1486 27.1208 68.1486H28.1971V69.2248C28.1971 70.3242 29.0916 71.2187 30.1909 71.2187H32.895C33.9944 71.2187 34.8889 70.3242 34.8889 69.2248V68.1486H35.9652C37.0645 68.1486 37.959 67.2541 37.959 66.1548V63.4507C37.959 62.3513 37.0646 61.4569 35.9652 61.4569ZM36.25 66.1548C36.25 66.3119 36.1222 66.4396 35.9652 66.4396H34.0344C33.5625 66.4396 33.1799 66.8221 33.1799 67.2941V69.2248C33.1799 69.382 33.052 69.5097 32.895 69.5097H30.1909C30.0339 69.5097 29.9061 69.382 29.9061 69.2248V67.2941C29.9061 66.8221 29.5235 66.4396 29.0516 66.4396H27.1209C26.9639 66.4396 26.8361 66.3119 26.8361 66.1548V63.4507C26.8361 63.2936 26.9639 63.1659 27.1209 63.1659H29.0517C29.5236 63.1659 29.9062 62.7834 29.9062 62.3114V60.3805C29.9062 60.2234 30.0341 60.0957 30.1911 60.0957H32.8951C33.0521 60.0957 33.18 60.2234 33.18 60.3805V62.3114C33.18 62.7834 33.5626 63.1659 34.0345 63.1659H35.9653C36.1223 63.1659 36.2501 63.2936 36.2501 63.4507L36.25 66.1548Z" fill="white"/>
<path d="M72.881 61.4569H71.8048V60.3805C71.8048 59.2812 70.9103 58.3867 69.8109 58.3867H67.1068C66.0075 58.3867 65.113 59.2812 65.113 60.3805V61.4569H64.0368C62.9375 61.4569 62.043 62.3514 62.043 63.4507V66.1548C62.043 67.2541 62.9375 68.1486 64.0368 68.1486H65.113V69.2248C65.113 70.3242 66.0075 71.2187 67.1068 71.2187H69.8109C70.9103 71.2187 71.8048 70.3242 71.8048 69.2248V68.1486H72.881C73.9803 68.1486 74.8748 67.2541 74.8748 66.1548V63.4507C74.8748 62.3513 73.9804 61.4569 72.881 61.4569ZM73.1658 66.1548C73.1658 66.3119 73.0381 66.4396 72.881 66.4396H70.9503C70.4782 66.4396 70.0958 66.8221 70.0958 67.2941V69.2248C70.0958 69.382 69.968 69.5097 69.8109 69.5097H67.1068C66.9497 69.5097 66.822 69.382 66.822 69.2248V67.2941C66.822 66.8221 66.4395 66.4396 65.9675 66.4396H64.0368C63.8797 66.4396 63.752 66.3119 63.752 66.1548V63.4507C63.752 63.2936 63.8797 63.1659 64.0368 63.1659H65.9675C66.4395 63.1659 66.822 62.7834 66.822 62.3114V60.3805C66.822 60.2234 66.9497 60.0957 67.1068 60.0957H69.8109C69.968 60.0957 70.0958 60.2234 70.0958 60.3805V62.3114C70.0958 62.7834 70.4782 63.1659 70.9503 63.1659H72.881C73.0381 63.1659 73.1658 63.2936 73.1658 63.4507V66.1548Z" fill="white"/>
</g>
<defs>
<clipPath id="clip0_677_885">
<rect width="58.3333" height="58.3333" fill="white" transform="translate(20.834 18)"/>
</clipPath>
</defs>
</svg>
