<svg width="100" height="100" viewBox="0 0 100 100" fill="none" xmlns="http://www.w3.org/2000/svg">
<rect width="100" height="100" fill="#259BF1"/>
<g clip-path="url(#clip0_659_343)">
<path d="M83.148 24.0841C78.6011 19.4694 72.5309 16.915 66.0556 16.8908C66.0248 16.8906 65.9945 16.8906 65.9636 16.8906C60.0223 16.8906 54.4112 19.0234 50 22.9306C45.5884 19.0233 39.9781 16.8906 34.0363 16.8906C34.0059 16.8906 33.9749 16.8906 33.9443 16.8908C27.4687 16.9148 21.3985 19.4694 16.8519 24.0841C7.58895 33.4853 7.73645 48.8177 17.181 58.2623L36.4035 77.4848C40.1521 81.2332 45.0762 83.1076 50.0003 83.1076C54.9244 83.1076 59.8483 81.2332 63.597 77.4848L82.8196 58.2623C92.2633 48.8177 92.4108 33.4855 83.148 24.0841ZM80.6433 56.0868L61.4209 75.309C58.3701 78.3598 54.3142 80.0398 49.9998 80.0398C45.6854 80.0398 41.6295 78.3596 38.5787 75.309L19.3562 56.0868C11.1024 47.833 10.9619 34.4452 19.0432 26.2435C23.0102 22.2172 28.3062 19.9883 33.9556 19.9675C33.9824 19.9673 34.009 19.9673 34.0357 19.9673C39.6556 19.9673 44.936 22.1544 48.912 26.1302C49.2006 26.4186 49.5917 26.5808 49.9997 26.5808C50.4076 26.5808 50.7987 26.4186 51.0873 26.1302C55.0634 22.1539 60.3434 19.9673 65.9636 19.9673C65.9902 19.9673 66.0173 19.9673 66.0437 19.9675C71.6933 19.9884 76.9891 22.2172 80.9561 26.2435C89.0377 34.4452 88.8972 47.833 80.6433 56.0868Z" fill="white"/>
<g clip-path="url(#clip1_659_343)">
<path d="M73.2699 49.4698C72.8053 47.8643 71.5551 43.7359 69.983 40.0851C69.8336 39.7385 69.4315 39.5783 69.0847 39.7276C68.738 39.877 68.5779 40.2791 68.7272 40.6259C70.2688 44.2056 71.4992 48.269 71.9567 49.8498C71.9843 49.9448 71.9467 50.0483 71.8635 50.1075C68.5697 52.4484 64.9801 53.1209 62.5824 53.2777C63.4765 51.9303 63.957 50.3504 63.957 48.6964C63.957 48.0244 63.8765 47.3649 63.7225 46.7279C64.4644 46.5733 65.1272 46.6467 65.6973 46.9492C65.7024 46.952 65.7077 46.9538 65.7128 46.9564C65.7261 46.9629 65.739 46.9698 65.7528 46.9755C65.7579 46.9776 66.271 47.221 66.5507 47.9535C66.6547 48.2259 66.9142 48.3934 67.1895 48.3934C67.2705 48.3934 67.3529 48.3789 67.4332 48.3483C67.7859 48.2135 67.9627 47.8185 67.828 47.4657C67.5002 46.6074 66.9624 46.1327 66.6129 45.8998L64.8527 38.6689C64.7806 38.3724 64.5207 38.1597 64.216 38.1474C63.9099 38.1361 63.6352 38.3263 63.5395 38.6159C63.5023 38.7286 63.4421 38.8307 63.3606 38.9196C63.1807 39.1162 62.9008 39.1885 62.6468 39.104L61.0591 38.5753C60.4401 38.3688 60.0837 37.7121 60.2476 37.0805L60.6826 35.4072C60.8389 34.8047 61.4224 34.4085 62.0405 34.4839L64.9107 34.8375C64.9977 34.8483 65.0775 34.8756 65.1415 34.9168C65.6116 35.2186 66.3948 35.9921 67.4564 37.9629C67.6353 38.2952 68.05 38.4198 68.3823 38.2406C68.7147 38.0615 68.8391 37.6469 68.66 37.3146C67.6829 35.5007 66.7736 34.34 65.8805 33.7665C65.645 33.6152 65.3675 33.5163 65.0778 33.4806L62.2076 33.127C60.9117 32.9675 59.6871 33.7996 59.3591 35.0634L58.9242 36.7368C58.5804 38.0619 59.3281 39.439 60.6268 39.8724L62.2148 40.4012C62.7593 40.5826 63.3448 40.5236 63.833 40.2605L65.0666 45.3283C64.5632 45.2544 63.9691 45.2627 63.2885 45.4238C62.8772 44.4638 62.2838 43.5807 61.523 42.8199C58.3581 39.6552 53.2548 39.5815 49.9995 42.5992C46.7444 39.5815 41.6409 39.6552 38.4761 42.82C37.7049 43.5912 37.1195 44.4783 36.7154 45.4248C36.0328 45.2624 35.4373 45.2541 34.9324 45.3283L36.166 40.2604C36.6544 40.5236 37.2398 40.5823 37.7843 40.4012L39.3727 39.8722C40.6711 39.439 41.4187 38.0618 41.0747 36.7366L40.6398 35.0637C40.3117 33.7999 39.087 32.9676 37.7913 33.1271L34.9211 33.4808C34.6315 33.5164 34.354 33.6153 34.1187 33.7665C32.6649 34.7 31.1335 37.2244 29.4367 41.4841C28.1265 44.7736 27.1064 48.1646 26.7287 49.4698C26.5399 50.1224 26.7869 50.8266 27.3433 51.222C28.4613 52.0165 29.6936 52.688 31.0062 53.2178C31.09 53.2516 31.1766 53.2676 31.2618 53.2676C31.5323 53.2676 31.7885 53.106 31.896 52.8398C32.0373 52.4896 31.868 52.0913 31.5179 51.9499C30.3044 51.4601 29.1664 50.8402 28.1354 50.1076C28.0521 50.0484 28.0146 49.9449 28.0422 49.8499C29.773 43.8687 32.5965 36.3689 34.8577 34.9168C34.9215 34.8758 35.0013 34.8485 35.0883 34.8377L37.9587 34.484C38.5763 34.4088 39.1602 34.8048 39.3166 35.4075L39.7514 37.0804C39.9154 37.7124 39.559 38.3691 38.9403 38.5753L37.3522 39.1042C37.0984 39.1888 36.8183 39.1162 36.6383 38.9196C36.557 38.8309 36.4969 38.7287 36.4595 38.6158C36.3637 38.3262 36.0889 38.1367 35.7829 38.1476C35.4782 38.16 35.2185 38.3727 35.1464 38.669L33.3863 45.9C33.0368 46.1329 32.4989 46.6076 32.1712 47.466C32.0366 47.8188 32.2133 48.2138 32.566 48.3485C32.6462 48.3792 32.7286 48.3936 32.8097 48.3936C33.0849 48.3936 33.3444 48.2261 33.4484 47.9537C33.7271 47.2239 34.2355 46.9811 34.2571 46.9711L34.2463 46.9759L34.2457 46.9742C34.2646 46.9663 34.2836 46.9592 34.3018 46.9495C34.8731 46.6464 35.5372 46.5728 36.2807 46.7286C35.7463 48.9361 36.125 51.3213 37.4169 53.2766C36.5304 53.2173 35.4544 53.0858 34.2778 52.8148C33.9101 52.7298 33.5429 52.9597 33.4582 53.3275C33.3734 53.6955 33.603 54.0623 33.9709 54.1471C35.8593 54.582 37.5085 54.6818 38.5893 54.6864L48.8463 64.9434C49.1641 65.2612 49.5817 65.4202 49.9993 65.4202C50.4168 65.4202 50.8344 65.2612 51.1523 64.9434L56.545 59.5506C56.812 59.2836 56.812 58.8508 56.545 58.5838C56.278 58.317 55.8452 58.317 55.5783 58.5838L50.1855 63.9766C50.0829 64.0792 49.9158 64.0793 49.8131 63.9766L39.4426 53.6063C36.7354 50.8991 36.7354 46.4942 39.4426 43.787C42.1497 41.0799 46.5546 41.0798 49.2617 43.7869L49.5158 44.041C49.6441 44.1693 49.8179 44.2413 49.9993 44.2413C50.1807 44.2413 50.3545 44.1692 50.4827 44.041L50.7366 43.787C52.0481 42.4755 53.7917 41.7533 55.6463 41.7533C57.5009 41.7533 59.2444 42.4756 60.5558 43.787C61.8673 45.0984 62.5894 46.842 62.5894 48.6965C62.5894 50.5511 61.8672 52.2947 60.5558 53.606L57.6941 56.4679C57.4272 56.7348 57.4272 57.1676 57.6942 57.4346C57.9611 57.7014 58.394 57.7013 58.6609 57.4345L61.4091 54.6863C63.8367 54.6766 68.4573 54.2053 72.6552 51.2218C73.2118 50.8264 73.4587 50.1223 73.2699 49.4698Z" fill="white"/>
<path d="M46.4623 36.3016H47.3232V37.1627C47.3232 38.0422 48.0388 38.7577 48.9183 38.7577H51.0816C51.961 38.7577 52.6766 38.0422 52.6766 37.1627V36.3016H53.5376C54.4171 36.3016 55.1327 35.586 55.1327 34.7066V32.5433C55.1327 31.6638 54.4171 30.9482 53.5376 30.9482H52.6766V30.0873C52.6766 29.2078 51.961 28.4922 51.0816 28.4922H48.9183C48.0388 28.4922 47.3232 29.2078 47.3232 30.0873V30.9482H46.4623C45.5828 30.9482 44.8672 31.6638 44.8672 32.5433V34.7066C44.8672 35.5861 45.5827 36.3016 46.4623 36.3016ZM46.2344 32.5433C46.2344 32.4176 46.3367 32.3154 46.4623 32.3154H48.0068C48.3844 32.3154 48.6904 32.0094 48.6904 31.6318V30.0873C48.6904 29.9616 48.7927 29.8594 48.9183 29.8594H51.0816C51.2072 29.8594 51.3094 29.9616 51.3094 30.0873V31.6318C51.3094 32.0094 51.6154 32.3154 51.993 32.3154H53.5376C53.6633 32.3154 53.7655 32.4176 53.7655 32.5433V34.7066C53.7655 34.8322 53.6633 34.9344 53.5376 34.9344H51.993C51.6154 34.9344 51.3094 35.2404 51.3094 35.618V37.1627C51.3094 37.2884 51.2072 37.3906 51.0816 37.3906H48.9183C48.7927 37.3906 48.6904 37.2884 48.6904 37.1627V35.618C48.6904 35.2404 48.3844 34.9344 48.0068 34.9344H46.4623C46.3367 34.9344 46.2344 34.8322 46.2344 34.7066V32.5433Z" fill="white"/>
<path d="M49.9999 56.1236C51.3479 56.1236 52.5838 55.4423 53.3059 54.3012C53.5078 53.9821 53.4128 53.5598 53.0938 53.3579C52.7748 53.1562 52.3525 53.251 52.1505 53.57C51.6805 54.3129 50.8765 54.7564 49.9998 54.7564C49.1232 54.7564 48.3193 54.313 47.8492 53.5701C47.6474 53.2511 47.2252 53.1561 46.906 53.3579C46.587 53.5598 46.4921 53.9821 46.6939 54.3011C47.416 55.4423 48.652 56.1236 49.9999 56.1236Z" fill="white"/>
<path d="M47.3184 50.8704V50.4023C47.3184 50.0247 47.0123 49.7188 46.6348 49.7188C46.2572 49.7188 45.9512 50.0247 45.9512 50.4023V50.8704C45.9512 51.248 46.2572 51.554 46.6348 51.554C47.0123 51.554 47.3184 51.248 47.3184 50.8704Z" fill="white"/>
<path d="M54.0469 50.8704V50.4023C54.0469 50.0247 53.7409 49.7188 53.3633 49.7188C52.9857 49.7188 52.6797 50.0247 52.6797 50.4023V50.8704C52.6797 51.248 52.9857 51.554 53.3633 51.554C53.7409 51.554 54.0469 51.248 54.0469 50.8704Z" fill="white"/>
<path d="M38.7702 59.1651H37.9091V58.304C37.9091 57.4246 37.1935 56.709 36.3141 56.709H34.1508C33.2713 56.709 32.5557 57.4246 32.5557 58.304V59.1651H31.6947C30.8152 59.1651 30.0996 59.8807 30.0996 60.7602V62.9234C30.0996 63.8029 30.8152 64.5185 31.6947 64.5185H32.5557V65.3795C32.5557 66.259 33.2713 66.9745 34.1508 66.9745H36.3141C37.1935 66.9745 37.9091 66.259 37.9091 65.3795V64.5185H38.7702C39.6497 64.5185 40.3653 63.8029 40.3653 62.9234V60.7602C40.3653 59.8806 39.6498 59.1651 38.7702 59.1651ZM38.9981 62.9234C38.9981 63.0491 38.8958 63.1513 38.7702 63.1513H37.2255C36.848 63.1513 36.5419 63.4573 36.5419 63.8349V65.3795C36.5419 65.5052 36.4397 65.6073 36.3141 65.6073H34.1508C34.0252 65.6073 33.9229 65.5052 33.9229 65.3795V63.8349C33.9229 63.4573 33.6169 63.1513 33.2393 63.1513H31.6948C31.5692 63.1513 31.4669 63.0491 31.4669 62.9234V60.7602C31.4669 60.6345 31.5692 60.5323 31.6948 60.5323H33.2394C33.617 60.5323 33.923 60.2263 33.923 59.8487V58.304C33.923 58.1784 34.0253 58.0762 34.1509 58.0762H36.3142C36.4398 58.0762 36.542 58.1784 36.542 58.304V59.8487C36.542 60.2263 36.8481 60.5323 37.2256 60.5323H38.7703C38.8959 60.5323 38.9982 60.6345 38.9982 60.7602L38.9981 62.9234Z" fill="white"/>
<path d="M68.3032 59.1651H67.4422V58.304C67.4422 57.4246 66.7267 56.709 65.8472 56.709H63.6839C62.8044 56.709 62.0888 57.4246 62.0888 58.304V59.1651H61.2279C60.3484 59.1651 59.6328 59.8807 59.6328 60.7602V62.9234C59.6328 63.8029 60.3484 64.5185 61.2279 64.5185H62.0888V65.3795C62.0888 66.259 62.8044 66.9745 63.6839 66.9745H65.8472C66.7267 66.9745 67.4422 66.259 67.4422 65.3795V64.5185H68.3032C69.1827 64.5185 69.8983 63.8029 69.8983 62.9234V60.7602C69.8983 59.8806 69.1828 59.1651 68.3032 59.1651ZM68.5311 62.9234C68.5311 63.0491 68.4289 63.1513 68.3032 63.1513H66.7586C66.381 63.1513 66.075 63.4573 66.075 63.8349V65.3795C66.075 65.5052 65.9729 65.6073 65.8472 65.6073H63.6839C63.5582 65.6073 63.456 65.5052 63.456 65.3795V63.8349C63.456 63.4573 63.1501 63.1513 62.7724 63.1513H61.2279C61.1022 63.1513 61 63.0491 61 62.9234V60.7602C61 60.6345 61.1022 60.5323 61.2279 60.5323H62.7724C63.1501 60.5323 63.456 60.2263 63.456 59.8487V58.304C63.456 58.1784 63.5582 58.0762 63.6839 58.0762H65.8472C65.9729 58.0762 66.075 58.1784 66.075 58.304V59.8487C66.075 60.2263 66.381 60.5323 66.7586 60.5323H68.3032C68.4289 60.5323 68.5311 60.6345 68.5311 60.7602V62.9234Z" fill="white"/>
</g>
</g>
<defs>
<clipPath id="clip0_659_343">
<rect width="80" height="80" fill="white" transform="translate(10 10)"/>
</clipPath>
<clipPath id="clip1_659_343">
<rect width="46.6667" height="46.6667" fill="white" transform="translate(26.666 24.4004)"/>
</clipPath>
</defs>
</svg>
