<svg width="100" height="100" viewBox="0 0 100 100" fill="none" xmlns="http://www.w3.org/2000/svg">
<rect width="100" height="100" fill="#259BF1"/>
<g clip-path="url(#clip0_659_342)">
<path d="M83.148 24.0841C78.6011 19.4694 72.5309 16.915 66.0556 16.8908C66.0248 16.8906 65.9945 16.8906 65.9636 16.8906C60.0223 16.8906 54.4112 19.0234 50 22.9306C45.5884 19.0233 39.9781 16.8906 34.0363 16.8906C34.0059 16.8906 33.9749 16.8906 33.9443 16.8908C27.4687 16.9148 21.3985 19.4694 16.8519 24.0841C7.58895 33.4853 7.73645 48.8177 17.181 58.2623L36.4035 77.4848C40.1521 81.2332 45.0762 83.1076 50.0003 83.1076C54.9244 83.1076 59.8483 81.2332 63.597 77.4848L82.8196 58.2623C92.2633 48.8177 92.4108 33.4855 83.148 24.0841ZM80.6433 56.0868L61.4209 75.309C58.3701 78.3598 54.3142 80.0398 49.9998 80.0398C45.6854 80.0398 41.6295 78.3596 38.5787 75.309L19.3562 56.0868C11.1024 47.833 10.9619 34.4452 19.0432 26.2435C23.0102 22.2172 28.3062 19.9883 33.9556 19.9675C33.9824 19.9673 34.009 19.9673 34.0357 19.9673C39.6556 19.9673 44.936 22.1544 48.912 26.1302C49.2006 26.4186 49.5917 26.5808 49.9997 26.5808C50.4076 26.5808 50.7987 26.4186 51.0873 26.1302C55.0634 22.1539 60.3434 19.9673 65.9636 19.9673C65.9902 19.9673 66.0173 19.9673 66.0437 19.9675C71.6933 19.9884 76.9891 22.2172 80.9561 26.2435C89.0377 34.4452 88.8972 47.833 80.6433 56.0868Z" fill="white"/>
<path d="M22.3937 46.5961V46.0703H20.9545V46.5961C20.9545 48.5553 19.3612 50.1492 17.4026 50.1492H16.877V51.5889H17.4026C19.3612 51.5889 20.9545 53.1828 20.9545 55.142V55.668H22.3937V55.1422C22.3937 53.1829 23.987 51.589 25.9456 51.589H26.4713V50.1493H25.9456C23.987 50.1493 22.3937 48.5554 22.3937 46.5961ZM21.6741 52.5617C21.2551 51.8702 20.6733 51.2883 19.9821 50.8691C20.6733 50.4499 21.2551 49.868 21.6741 49.1765C22.0931 49.868 22.6749 50.4499 23.3662 50.8691C22.6749 51.2883 22.0931 51.8703 21.6741 52.5617Z" fill="white"/>
<path d="M78.8577 27.9735C76.8991 27.9735 75.3058 26.3796 75.3058 24.4203V23.8945H73.8666V24.4203C73.8666 26.3796 72.2733 27.9735 70.3147 27.9735H69.7891V29.4131H70.3147C72.2733 29.4131 73.8666 31.007 73.8666 32.9662V33.4921H75.3058V32.9663C75.3058 31.0071 76.8991 29.4132 78.8577 29.4132H79.3834V27.9735H78.8577ZM74.5862 30.3858C74.1672 29.6943 73.5854 29.1124 72.8942 28.6932C73.5854 28.274 74.1672 27.6921 74.5862 27.0006C75.0052 27.6921 75.587 28.274 76.2783 28.6932C75.587 29.1124 75.0052 29.6944 74.5862 30.3858Z" fill="white"/>
<g clip-path="url(#clip1_659_342)">
<path d="M37.6542 40.4799V37.7388H40.3944V33.6357H37.6542V30.8945H33.5526V33.6357H30.8125V37.7388H33.5526V40.4799H37.6542ZM32.1797 36.3711V35.0035H34.9198V32.2623H36.287V35.0035H39.0272V36.3711H36.287V39.1122H34.9198V36.3711H32.1797Z" fill="white"/>
<path d="M55.5542 57.1204L56.7553 56.467C55.713 54.5497 56.1015 52.1702 57.7001 50.6803C58.3156 50.1066 59.0717 49.7044 59.8864 49.5174L59.5806 48.1845C58.5318 48.4252 57.5593 48.9422 56.7682 49.6797C56.4771 49.951 56.2185 50.2458 55.9906 50.5581C55.2344 49.9145 54.7832 48.9635 54.7832 47.9517C54.7832 47.1089 55.0924 46.2992 55.6537 45.672L54.6351 44.7598C53.849 45.638 53.416 46.7716 53.416 47.9517C53.416 49.4551 54.1262 50.8633 55.3044 51.7618C54.5808 53.4526 54.6334 55.4267 55.5542 57.1204Z" fill="white"/>
<path d="M62.5127 47.2398C62.8234 47.8845 62.9868 48.5961 62.9868 49.3183C62.9868 51.504 61.5112 53.4104 59.3984 53.9544L59.7391 55.2789C62.4563 54.5793 64.3539 52.1283 64.3539 49.3183C64.3539 48.5752 64.2196 47.8404 63.9608 47.1512C64.8741 46.9308 65.6853 46.4018 66.2678 45.6262L65.1748 44.8047C64.6524 45.5003 63.855 45.8992 62.9868 45.8992C62.1185 45.8992 61.3212 45.5002 60.7987 44.8047L59.7057 45.6262C60.3927 46.5408 61.3974 47.113 62.5127 47.2398Z" fill="white"/>
<path d="M36.998 49.318C36.998 48.4762 37.2192 47.6488 37.6378 46.9251L36.4544 46.2402C35.9156 47.1718 35.6309 48.2361 35.6309 49.318C35.6309 52.128 37.5285 54.579 40.2457 55.2786L40.5864 53.9541C38.4736 53.41 36.998 51.5037 36.998 49.318Z" fill="white"/>
<path d="M46.5701 47.9517C46.5701 46.7717 46.1371 45.6381 45.3511 44.7598L44.3324 45.672C44.8937 46.2992 45.2029 47.1088 45.2029 47.9517C45.2029 48.9635 44.7517 49.9144 43.9955 50.5581C43.1387 49.3721 41.8309 48.5067 40.4054 48.1845L40.0996 49.5174C43.1132 50.1449 44.7679 53.7912 43.2307 56.467L44.4319 57.1204C45.3527 55.4267 45.4053 53.4527 44.6819 51.7617C45.8599 50.8633 46.5701 49.4551 46.5701 47.9517Z" fill="white"/>
<path d="M68.4275 59.9948C69.6727 58.8718 70.4571 57.2466 70.4571 55.4414C70.4571 54.5135 70.2476 53.6015 69.8473 52.7733C71.1212 51.4965 71.8418 49.7684 71.8418 47.9512C71.8418 45.8676 70.9006 43.9231 69.2949 42.6314C71.0076 39.4033 68.2115 35.2918 64.5711 35.7242C63.4467 32.4305 60.3402 30.1803 56.8115 30.1803C54.0541 30.1803 51.4931 31.5826 49.9872 33.8377C48.4047 31.4557 45.6047 30.0225 42.7049 30.1933C41.0732 28.0513 38.4972 26.666 35.6035 26.666C30.6829 26.666 26.6797 30.6706 26.6797 35.593C26.6797 38.5822 28.1562 41.2329 30.4178 42.8539C28.9724 44.1409 28.1325 45.9838 28.1325 47.9512C28.1325 49.7685 28.8531 51.4965 30.1271 52.7733C29.7267 53.6016 29.5171 54.5136 29.5171 55.4414C29.5171 57.3542 30.3978 59.0647 31.7743 60.19C32.6703 63.4598 35.6225 65.7235 39.0366 65.7235C40.5624 65.7235 42.0108 65.2651 43.2241 64.4539L44.4981 65.0982C45.7828 65.7479 46.5808 67.0459 46.5808 68.4858V73.3327H47.948V68.4859C47.948 66.5272 46.8625 64.7614 45.115 63.8777L44.3769 63.5044C44.9542 62.924 45.4412 62.2447 45.8108 61.4845C47.6214 61.0986 49.1481 59.9122 49.9871 58.305C50.856 59.9696 52.4628 61.1829 54.3584 61.5227C54.7166 62.2491 55.1818 62.9012 55.7312 63.4625L54.9104 63.8776C53.1629 64.7613 52.0774 66.5271 52.0774 68.4858V73.3327H53.4446V68.4859C53.4446 67.046 54.2426 65.7479 55.5273 65.0983L56.8732 64.4176C58.0973 65.2511 59.5655 65.7236 61.1137 65.7236C64.5956 65.7236 67.5975 63.3696 68.4275 59.9948ZM61.1137 64.3558C59.018 64.3558 57.1004 63.3004 55.972 61.5945C57.4747 61.4642 58.8794 60.7842 59.9135 59.6918C61.061 60.8819 62.6567 61.5725 64.3281 61.5725C65.0991 61.5725 65.8367 61.4279 66.5169 61.1668C65.4562 63.1016 63.4132 64.3558 61.1137 64.3558ZM28.0469 35.593C28.0469 31.4248 31.4368 28.0337 35.6035 28.0337C39.7703 28.0337 43.1602 31.4248 43.1602 35.593C43.1602 39.7613 39.7703 43.1524 35.6035 43.1524C31.4369 43.1524 28.0469 39.7612 28.0469 35.593ZM33.678 61.2465C34.2963 61.4567 34.9578 61.5726 35.6462 61.5726C37.3176 61.5726 38.9133 60.882 40.0609 59.6918C41.1332 60.8247 42.6044 61.5152 44.17 61.6076C43.0405 63.3059 41.127 64.3558 39.0367 64.3558C36.769 64.3558 34.7507 63.1358 33.678 61.2465ZM50.6707 55.7782V52.0542H49.3035V55.7782C49.0604 60.219 43.1501 61.8841 40.6234 58.227C40.6234 58.2271 40.0704 57.4461 40.0704 57.4461C39.0774 59.0533 37.6034 60.2215 35.6462 60.2049C31.6711 60.2028 29.5171 55.6359 31.8657 52.4876C28.8542 50.3644 28.6801 45.819 31.661 43.6001C32.8506 44.1886 34.1889 44.5201 35.6035 44.5201C40.5241 44.5201 44.5274 40.5154 44.5274 35.593C44.5274 34.143 44.1798 32.7728 43.5638 31.5609C46.0115 31.7062 48.2208 33.1715 49.3034 35.3885V50.7098H50.6706V43.9006C50.6706 41.2547 52.8224 39.1022 55.4675 39.1022V37.7346C53.5312 37.7346 51.8015 38.6331 50.6706 40.0344V35.3885C51.8122 33.0509 54.2061 31.548 56.8113 31.548C59.7047 31.548 62.2564 33.3638 63.2299 36.0361C62.2133 36.4564 61.3643 37.2235 60.8425 38.1917C60.2605 37.8742 59.5937 37.6937 58.8854 37.6937V39.0613C60.3932 39.0613 61.6198 40.2884 61.6198 41.7967H62.987C62.987 40.7457 62.5895 39.7861 61.9375 39.0593C62.4613 37.8583 63.7037 37.046 65.0144 37.0709C66.8992 37.0709 68.4324 38.6047 68.4324 40.49C68.4641 41.4301 67.984 42.2787 67.4323 43.0042C71.1551 45.0158 71.5368 49.9835 68.1085 52.4874C68.6934 53.3628 69.1093 54.3707 69.0898 55.4413C69.0898 58.0679 66.9537 60.2048 64.328 60.2048C62.3695 60.2209 60.8972 59.0532 59.9039 57.446L59.3509 58.2269C56.8243 61.8851 50.9125 60.2173 50.6707 55.7782Z" fill="white"/>
<path d="M53.416 34.2637H54.7832V35.6313H53.416V34.2637Z" fill="white"/>
<path d="M56.1797 34.2637H57.5469V35.6313H56.1797V34.2637Z" fill="white"/>
</g>
</g>
<defs>
<clipPath id="clip0_659_342">
<rect width="80" height="80" fill="white" transform="translate(10 10)"/>
</clipPath>
<clipPath id="clip1_659_342">
<rect width="46.6667" height="46.6667" fill="white" transform="translate(26.666 26.666)"/>
</clipPath>
</defs>
</svg>
