<svg width="100" height="100" viewBox="0 0 100 100" fill="none" xmlns="http://www.w3.org/2000/svg">
<path d="M91.435 17.607C85.7514 11.8387 78.1637 8.6457 70.0695 8.61543C70.0311 8.61523 69.9932 8.61523 69.9545 8.61523C62.5279 8.61523 55.514 11.2813 50 16.1652C44.4855 11.2811 37.4726 8.61523 30.0454 8.61523C30.0073 8.61523 29.9687 8.61523 29.9304 8.61543C21.8358 8.64551 14.2481 11.8387 8.56492 17.607C-3.01382 29.3586 -2.82944 48.5241 8.97624 60.3298L33.0044 84.358C37.6902 89.0435 43.8453 91.3865 50.0004 91.3865C56.1554 91.3865 62.3103 89.0435 66.9963 84.358L91.0245 60.3298C102.829 48.5241 103.014 29.3588 91.435 17.607ZM88.3041 57.6104L64.2762 81.6382C60.4627 85.4517 55.3927 87.5517 49.9998 87.5517C44.6068 87.5517 39.5369 85.4515 35.7234 81.6382L11.6952 57.6104C1.37799 47.2932 1.2024 30.5584 11.304 20.3063C16.2628 15.2735 22.8827 12.4873 29.9445 12.4613C29.978 12.4611 30.0112 12.4611 30.0446 12.4611C37.0695 12.4611 43.6701 15.1949 48.64 20.1647C49.0007 20.5252 49.4896 20.728 49.9996 20.728C50.5095 20.728 50.9984 20.5252 51.3591 20.1647C56.3293 15.1943 62.9293 12.4611 69.9545 12.4611C69.9877 12.4611 70.0217 12.4611 70.0547 12.4613C77.1166 12.4875 83.7364 15.2735 88.6952 20.3063C98.7971 30.5584 98.6215 47.2932 88.3041 57.6104Z" fill="white"/>
<path d="M15.4916 45.7451V45.0879H13.6927V45.7451C13.6927 48.1942 11.701 50.1865 9.25279 50.1865H8.5957V51.9861H9.25279C11.701 51.9861 13.6927 53.9784 13.6927 56.4275V57.085H15.4916V56.4278C15.4916 53.9787 17.4833 51.9863 19.9315 51.9863H20.5886V50.1867H19.9315C17.4833 50.1867 15.4916 48.1943 15.4916 45.7451ZM14.5921 53.2021C14.0684 52.3377 13.3412 51.6103 12.4771 51.0864C13.3412 50.5624 14.0684 49.835 14.5921 48.9706C15.1159 49.835 15.8431 50.5624 16.7072 51.0864C15.8431 51.6103 15.1159 52.3378 14.5921 53.2021Z" fill="white"/>
<path d="M86.0721 22.4678C83.6239 22.4678 81.6322 20.4754 81.6322 18.0264V17.3691H79.8333V18.0264C79.8333 20.4754 77.8416 22.4678 75.3934 22.4678H74.7363V24.2673H75.3934C77.8416 24.2673 79.8333 26.2597 79.8333 28.7088V29.3661H81.6322V28.7089C81.6322 26.2598 83.6239 24.2674 86.0721 24.2674H86.7292V22.4678H86.0721ZM80.7328 25.4833C80.209 24.6188 79.4818 23.8915 78.6177 23.3675C79.4818 22.8435 80.209 22.1162 80.7328 21.2517C81.2565 22.1162 81.9837 22.8435 82.8478 23.3675C81.9837 23.8915 81.2565 24.619 80.7328 25.4833Z" fill="white"/>
<g clip-path="url(#clip0_677_821)">
<path d="M34.5697 38.1008V34.6744H37.9949V29.5457H34.5697V26.1191H29.4427V29.5457H26.0176V34.6744H29.4427V38.1008H34.5697ZM27.7266 32.9649V31.2553H31.1517V27.8288H32.8607V31.2553H36.286V32.9649H32.8607V36.3913H31.1517V32.9649H27.7266Z" fill="white"/>
<path d="M56.9462 58.902L58.4476 58.0852C57.1446 55.6886 57.6303 52.7142 59.6285 50.8519C60.398 50.1347 61.343 49.632 62.3614 49.3982L61.9791 47.7321C60.6682 48.033 59.4526 48.6792 58.4636 49.6011C58.0999 49.9402 57.7765 50.3088 57.4917 50.6991C56.5464 49.8946 55.9824 48.7058 55.9824 47.4411C55.9824 46.3875 56.3689 45.3755 57.0706 44.5915L55.7973 43.4512C54.8146 44.549 54.2734 45.966 54.2734 47.4411C54.2734 49.3203 55.1612 51.0806 56.6339 52.2037C55.7294 54.3172 55.7952 56.7849 56.9462 58.902Z" fill="white"/>
<path d="M65.6428 46.5517C66.0312 47.3576 66.2354 48.2471 66.2354 49.1499C66.2354 51.8819 64.391 54.265 61.75 54.9449L62.1759 56.6006C65.5723 55.726 67.9444 52.6623 67.9444 49.1499C67.9444 48.221 67.7764 47.3024 67.453 46.441C68.5946 46.1655 69.6086 45.5042 70.3367 44.5347L68.9705 43.5078C68.3175 44.3773 67.3207 44.8759 66.2354 44.8759C65.1501 44.8759 64.1534 44.3772 63.5003 43.5078L62.1341 44.5347C62.9928 45.678 64.2486 46.3933 65.6428 46.5517Z" fill="white"/>
<path d="M33.7499 49.1499C33.7499 48.0977 34.0264 47.0634 34.5497 46.1588L33.0704 45.3027C32.3969 46.4672 32.041 47.7976 32.041 49.15C32.041 52.6624 34.4131 55.7262 37.8095 56.6007L38.2354 54.9451C35.5945 54.265 33.7499 51.8821 33.7499 49.1499Z" fill="white"/>
<path d="M45.7131 47.4411C45.7131 45.9661 45.1719 44.5491 44.1893 43.4512L42.916 44.5915C43.6176 45.3755 44.0041 46.3874 44.0041 47.4411C44.0041 48.7058 43.4401 49.8945 42.4948 50.6991C41.4238 49.2166 39.7891 48.1348 38.0072 47.7321L37.625 49.3982C41.3919 50.1826 43.4604 54.7405 41.5389 58.0852L43.0403 58.902C44.1914 56.7849 44.2571 54.3173 43.3528 52.2036C44.8254 51.0806 45.7131 49.3203 45.7131 47.4411Z" fill="white"/>
<path d="M73.0363 62.4949C74.5929 61.0912 75.5734 59.0597 75.5734 56.8032C75.5734 55.6434 75.3114 54.5034 74.811 53.4681C76.4035 51.8721 77.3042 49.7119 77.3042 47.4405C77.3042 44.836 76.1277 42.4054 74.1206 40.7907C76.2615 36.7556 72.7663 31.6162 68.2158 32.1567C66.8104 28.0396 62.9272 25.2269 58.5163 25.2269C55.0695 25.2269 51.8684 26.9797 49.986 29.7986C48.0078 26.8211 44.5078 25.0295 40.883 25.2431C38.8434 22.5655 35.6235 20.834 32.0063 20.834C25.8556 20.834 20.8516 25.8397 20.8516 31.9927C20.8516 35.7293 22.6972 39.0425 25.5242 41.0688C23.7174 42.6775 22.6675 44.9813 22.6675 47.4405C22.6675 49.7121 23.5683 51.8721 25.1608 53.4681C24.6603 54.5035 24.3984 55.6435 24.3984 56.8032C24.3984 59.1942 25.4992 61.3324 27.2198 62.739C28.3399 66.8262 32.03 69.6558 36.2977 69.6558C38.2049 69.6558 40.0154 69.0828 41.5321 68.0688L43.1246 68.8742C44.7304 69.6863 45.728 71.3088 45.728 73.1087V79.1673H47.437V73.1089C47.437 70.6604 46.08 68.4532 43.8957 67.3486L42.9731 66.882C43.6948 66.1565 44.3035 65.3073 44.7655 64.357C47.0286 63.8748 48.9371 62.3917 49.9859 60.3827C51.072 62.4635 53.0805 63.98 55.4499 64.4049C55.8977 65.3128 56.4792 66.128 57.166 66.8296L56.1399 67.3484C53.9556 68.4531 52.5987 70.6603 52.5987 73.1087V79.1673H54.3077V73.1089C54.3077 71.309 55.3053 69.6863 56.911 68.8743L58.5935 68.0235C60.1236 69.0654 61.9588 69.6559 63.894 69.6559C68.2465 69.6559 71.9988 66.7135 73.0363 62.4949ZM63.894 67.9462C61.2745 67.9462 58.8775 66.627 57.4669 64.4945C59.3453 64.3317 61.1012 63.4817 62.3938 62.1162C63.8282 63.6038 65.8228 64.4671 67.9121 64.4671C68.8758 64.4671 69.7978 64.2864 70.6481 63.96C69.3222 66.3784 66.7684 67.9462 63.894 67.9462ZM22.5605 31.9927C22.5605 26.7825 26.7979 22.5437 32.0063 22.5437C37.2149 22.5437 41.4522 26.7825 41.4522 31.9927C41.4522 37.2031 37.2149 41.4419 32.0063 41.4419C26.798 41.4419 22.5605 37.203 22.5605 31.9927ZM29.5995 64.0596C30.3723 64.3224 31.1992 64.4672 32.0598 64.4672C34.1489 64.4672 36.1436 63.6039 37.5781 62.1162C38.9185 63.5324 40.7575 64.3954 42.7145 64.511C41.3025 66.6339 38.9107 67.9462 36.2978 67.9462C33.4632 67.9462 30.9404 66.4213 29.5995 64.0596ZM50.8404 57.2242V52.5693H49.1314V57.2242C48.8274 62.7752 41.4396 64.8566 38.2812 60.2852C38.2812 60.2853 37.5899 59.3091 37.5899 59.3091C36.3487 61.3181 34.5062 62.7784 32.0598 62.7576C27.0908 62.7549 24.3983 57.0463 27.3341 53.111C23.5698 50.4569 23.352 44.7753 27.0782 42.0016C28.5652 42.7372 30.2381 43.1516 32.0063 43.1516C38.1571 43.1516 43.1612 38.1458 43.1612 31.9927C43.1612 30.1802 42.7267 28.4674 41.9567 26.9526C45.0164 27.1342 47.778 28.9658 49.1313 31.7371V50.8888H50.8403V42.3772C50.8403 39.0699 53.53 36.3792 56.8363 36.3792V34.6697C54.4159 34.6697 52.2538 35.7928 50.8403 37.5444V31.7371C52.2673 28.8151 55.2596 26.9364 58.5161 26.9364C62.1329 26.9364 65.3224 29.2062 66.5393 32.5466C65.2686 33.0719 64.2074 34.0309 63.5551 35.2411C62.8276 34.8442 61.9941 34.6185 61.1087 34.6185V36.3281C62.9934 36.3281 64.5267 37.862 64.5267 39.7473H66.2357C66.2357 38.4336 65.7388 37.2341 64.9239 36.3256C65.5785 34.8243 67.1315 33.8089 68.77 33.84C71.1259 33.84 73.0425 35.7573 73.0425 38.114C73.0821 39.2891 72.4819 40.3498 71.7923 41.2567C76.4458 43.7712 76.923 49.9808 72.6375 53.1108C73.3686 54.205 73.8886 55.4648 73.8643 56.8031C73.8643 60.0864 71.194 62.7574 67.912 62.7574C65.4638 62.7776 63.6235 61.318 62.3818 59.3089L61.6906 60.2851C58.5323 64.8579 51.1426 62.773 50.8404 57.2242Z" fill="white"/>
<path d="M54.2734 30.3301H55.9824V32.0396H54.2734V30.3301Z" fill="white"/>
<path d="M57.7266 30.3301H59.4355V32.0396H57.7266V30.3301Z" fill="white"/>
</g>
<defs>
<clipPath id="clip0_677_821">
<rect width="58.3333" height="58.3333" fill="white" transform="translate(20.834 20.834)"/>
</clipPath>
</defs>
</svg>
