<svg width="100" height="100" viewBox="0 0 100 100" fill="none" xmlns="http://www.w3.org/2000/svg">
<rect width="100" height="100" fill="#259BF1"/>
<g clip-path="url(#clip0_659_353)">
<path d="M83.148 24.0841C78.6011 19.4694 72.5309 16.915 66.0556 16.8908C66.0248 16.8906 65.9945 16.8906 65.9636 16.8906C60.0223 16.8906 54.4112 19.0234 50 22.9306C45.5884 19.0233 39.9781 16.8906 34.0363 16.8906C34.0059 16.8906 33.9749 16.8906 33.9443 16.8908C27.4687 16.9148 21.3985 19.4694 16.8519 24.0841C7.58895 33.4853 7.73645 48.8177 17.181 58.2623L36.4035 77.4848C40.1521 81.2332 45.0762 83.1076 50.0003 83.1076C54.9244 83.1076 59.8483 81.2332 63.597 77.4848L82.8196 58.2623C92.2633 48.8177 92.4108 33.4855 83.148 24.0841ZM80.6433 56.0868L61.4209 75.309C58.3701 78.3598 54.3142 80.0398 49.9998 80.0398C45.6854 80.0398 41.6295 78.3596 38.5787 75.309L19.3562 56.0868C11.1024 47.833 10.9619 34.4452 19.0432 26.2435C23.0102 22.2172 28.3062 19.9883 33.9556 19.9675C33.9824 19.9673 34.009 19.9673 34.0357 19.9673C39.6556 19.9673 44.936 22.1544 48.912 26.1302C49.2006 26.4186 49.5917 26.5808 49.9997 26.5808C50.4076 26.5808 50.7987 26.4186 51.0873 26.1302C55.0634 22.1539 60.3434 19.9673 65.9636 19.9673C65.9902 19.9673 66.0173 19.9673 66.0437 19.9675C71.6933 19.9884 76.9891 22.2172 80.9561 26.2435C89.0377 34.4452 88.8972 47.833 80.6433 56.0868Z" fill="white"/>
<g clip-path="url(#clip1_659_353)">
<path d="M30.6602 49.7406C30.7342 49.7406 30.8095 49.7285 30.8833 49.703C31.2398 49.5798 31.429 49.191 31.3058 48.8345C30.6749 47.0077 30.5629 45.0437 30.9818 43.1547C31.4025 41.2582 32.3411 39.5197 33.696 38.1272C36.9647 34.7678 42.1173 33.9965 46.2263 36.2515L48.7469 37.6347C49.0776 37.816 49.4927 37.6952 49.6743 37.3645C49.8558 37.0338 49.7349 36.6186 49.4041 36.4371L48.7669 36.0874V32.8075C48.7669 32.6113 48.7317 32.4187 48.6621 32.235L48.2518 31.1524C48.1664 30.9267 48.1959 30.6836 48.3331 30.485C48.4701 30.2864 48.6872 30.1725 48.9285 30.1725H51.2043C51.4455 30.1725 51.6626 30.2864 51.7997 30.485C51.9367 30.6836 51.9663 30.9268 51.8809 31.1523L51.4705 32.2352C51.4011 32.4188 51.3658 32.6113 51.3658 32.8075V36.4531C51.3658 36.8304 51.6716 37.1361 52.0488 37.1361H56.932C60.8851 37.1361 64.1012 33.92 64.1012 29.9669V29.7615C64.1012 28.9366 63.4301 28.2656 62.6053 28.2656H58.5351C58.5003 28.2656 58.4659 28.2667 58.4314 28.2678L58.3898 28.2691C58.0126 28.2766 57.7131 28.5886 57.7207 28.9658C57.7283 29.3429 58.0401 29.6401 58.4174 29.6347L58.4773 29.633C58.4964 29.6324 58.5156 29.6316 58.535 29.6316H62.6052C62.6769 29.6316 62.7351 29.6898 62.7351 29.7614V29.9668C62.7351 33.1667 60.1318 35.77 56.9319 35.77H52.7317V35.4348C52.7317 33.2666 53.9276 31.2949 55.8526 30.2891C56.187 30.1144 56.3164 29.7018 56.1417 29.3674C55.967 29.0331 55.5543 28.9036 55.22 29.0783C54.4745 29.4678 53.8177 29.9747 53.2671 30.5696C53.219 30.2648 53.1041 29.9701 52.9237 29.7087C52.5336 29.1437 51.8908 28.8064 51.2042 28.8064H48.9284C48.2417 28.8064 47.599 29.1437 47.2088 29.7087C46.8188 30.2737 46.7311 30.9943 46.9744 31.6363L47.3846 32.7188C47.3953 32.7473 47.4008 32.777 47.4008 32.8074V35.3377L46.8835 35.0537C42.2382 32.5045 36.4126 33.3765 32.717 37.1744C31.1851 38.7489 30.1239 40.7145 29.6483 42.8588C29.1747 44.9943 29.3013 47.2149 30.0148 49.2804C30.1124 49.5631 30.377 49.7406 30.6602 49.7406Z" fill="white"/>
<path d="M63.5915 35.3148C63.4107 35.6458 63.5325 36.0607 63.8636 36.2416C64.7791 36.7416 65.614 37.3762 66.3451 38.1275C67.9297 39.7561 68.9235 41.8101 69.2187 44.0676C69.2637 44.4115 69.5572 44.6621 69.8951 44.6621C69.9246 44.6621 69.9545 44.6602 69.9845 44.6562C70.3585 44.6073 70.6221 44.2645 70.5732 43.8904C70.2394 41.3386 69.116 39.0164 67.3241 37.1749C66.4978 36.3257 65.5539 35.6084 64.5184 35.0428C64.1873 34.8618 63.7724 34.9836 63.5915 35.3148Z" fill="white"/>
<path d="M62.2351 66.0449C61.8877 65.8982 61.487 66.061 61.3402 66.4084C60.5964 68.17 59.1218 69.504 57.2947 70.0682C55.4676 70.6328 53.4977 70.3623 51.89 69.3269L51.4904 69.0695C50.5967 68.494 49.4417 68.494 48.548 69.0695L48.1484 69.3269C46.5408 70.3622 44.5709 70.6325 42.7437 70.0682C40.9166 69.504 39.442 68.1699 38.6982 66.4083L36.8827 62.1089C36.736 61.7614 36.3352 61.5986 35.9878 61.7455C35.6403 61.8922 35.4776 62.2929 35.6243 62.6404L37.4397 66.9397C38.3408 69.0739 40.1271 70.69 42.3405 71.3735C44.5539 72.0572 46.9405 71.7298 48.888 70.4755L49.2876 70.2181C49.732 69.9319 50.3062 69.9319 50.7506 70.2181L51.1502 70.4755C52.4299 71.2997 53.8988 71.7236 55.3838 71.7236C56.1589 71.7236 56.9385 71.6079 57.6977 71.3735C59.9111 70.69 61.6974 69.0739 62.5985 66.9397C62.7454 66.5923 62.5827 66.1916 62.2351 66.0449Z" fill="white"/>
<path d="M66.1067 56.8782C65.7591 56.7314 65.3586 56.8942 65.2118 57.2418L62.6692 63.2633C62.5225 63.6107 62.6852 64.0114 63.0327 64.1581C63.1195 64.1947 63.2095 64.2121 63.2981 64.2121C63.5644 64.2121 63.8176 64.0554 63.9277 63.7946L66.4703 57.7731C66.617 57.4255 66.4543 57.0249 66.1067 56.8782Z" fill="white"/>
<path d="M72.5196 47.0515L71.8763 46.8098C62.5076 43.2894 52.2388 43.4178 42.9612 47.1714L37.6048 49.3384C34.3664 50.6486 30.953 51.3129 27.4597 51.3129C27.022 51.3129 26.666 51.669 26.666 52.1067V60.8305C26.666 61.2682 27.0221 61.6242 27.4597 61.6242C31.1296 61.6242 34.7153 60.9263 38.1172 59.55L40.3349 58.6527C40.6846 58.5113 40.8534 58.1132 40.712 57.7635C40.5704 57.4137 40.1723 57.2449 39.8226 57.3864L37.6048 58.2837C34.5436 59.5222 31.3259 60.1835 28.0319 60.2522V52.6732C29.2637 52.6488 30.4852 52.5439 31.6931 52.3623V55.8464C31.6931 56.2237 31.9989 56.5294 32.3761 56.5294C32.7533 56.5294 33.0591 56.2237 33.0591 55.8464V52.1231C34.4126 51.851 35.7464 51.4789 37.0551 51.0086V53.9806C37.0551 54.3579 37.3609 54.6636 37.7381 54.6636C38.1153 54.6636 38.4212 54.3579 38.4212 53.9806V50.4816L42.4171 48.8649V50.8902C42.4171 51.2675 42.7229 51.5732 43.1001 51.5732C43.4773 51.5732 43.7831 51.2675 43.7831 50.8902V48.3165C45.0972 47.798 46.4308 47.3525 47.7791 46.9838V50.6007C47.7791 50.978 48.0849 51.2837 48.4621 51.2837C48.8393 51.2837 49.1451 50.978 49.1451 50.6007V46.6392C50.4673 46.3293 51.8009 46.0898 53.1412 45.9224V47.9704C53.1412 48.3477 53.447 48.6534 53.8242 48.6534C54.2014 48.6534 54.5072 48.3477 54.5072 47.9704V45.7952C54.5072 45.7891 54.5065 45.7833 54.5063 45.7773C55.8358 45.6595 57.1697 45.6114 58.5032 45.6331V50.2467C58.5032 50.624 58.809 50.9297 59.1862 50.9297C59.5634 50.9297 59.8692 50.624 59.8692 50.2467V45.6797C61.2053 45.7493 62.5389 45.8896 63.8652 46.0996V47.9703C63.8652 48.3476 64.171 48.6533 64.5482 48.6533C64.9254 48.6533 65.2312 48.3476 65.2312 47.9703V46.3404C66.4319 46.5753 67.6252 46.8675 68.8069 47.2186V49.7582C68.8069 50.1355 69.1127 50.4412 69.4899 50.4412C69.8671 50.4412 70.1729 50.1355 70.1729 49.7582V47.6548C70.582 47.7931 70.99 47.936 71.3958 48.0884L71.9665 48.3029V55.7887L71.8762 55.7549C62.5075 52.2345 52.2386 52.3629 42.9612 56.1164L42.5237 56.2934C42.174 56.4349 42.0052 56.833 42.1467 57.1827C42.2881 57.5325 42.6862 57.701 43.0359 57.5598L43.4735 57.3828C52.4327 53.7584 62.349 53.6344 71.3958 57.0336L71.6374 57.1244C72.0224 57.2691 72.4541 57.2158 72.7925 56.9816C73.1306 56.7474 73.3326 56.362 73.3326 55.9507V48.2255C73.3326 47.7059 73.0059 47.2343 72.5196 47.0515Z" fill="white"/>
<path d="M52.2787 68.0899H53.5086V69.32C53.5086 70.5764 54.5309 71.5987 55.7873 71.5987H58.8777C60.1341 71.5987 61.1563 70.5764 61.1563 69.32V68.0899H62.3863C63.6427 68.0899 64.665 67.0677 64.665 65.8113V62.7209C64.665 61.4645 63.6427 60.4422 62.3863 60.4422H61.1563V59.2123C61.1563 57.9559 60.1341 56.9336 58.8777 56.9336H55.7873C54.5309 56.9336 53.5086 57.9559 53.5086 59.2123V60.4422H52.2787C51.0223 60.4422 50 61.4645 50 62.7209V65.8113C50 67.0678 51.0221 68.0899 52.2787 68.0899ZM51.9531 62.7209C51.9531 62.5413 52.0992 62.3954 52.2787 62.3954H54.4852C55.0245 62.3954 55.4618 61.9582 55.4618 61.4188V59.2123C55.4618 59.0327 55.6079 58.8867 55.7873 58.8867H58.8777C59.0572 58.8867 59.2032 59.0327 59.2032 59.2123V61.4188C59.2032 61.9582 59.6403 62.3954 60.1798 62.3954H62.3863C62.5659 62.3954 62.7118 62.5413 62.7118 62.7209V65.8113C62.7118 65.9908 62.5659 66.1368 62.3863 66.1368H60.1798C59.6403 66.1368 59.2032 66.5739 59.2032 67.1134V69.32C59.2032 69.4996 59.0572 69.6455 58.8777 69.6455H55.7873C55.6079 69.6455 55.4618 69.4996 55.4618 69.32V67.1134C55.4618 66.5739 55.0245 66.1368 54.4852 66.1368H52.2787C52.0992 66.1368 51.9531 65.9908 51.9531 65.8113V62.7209Z" fill="white"/>
</g>
</g>
<defs>
<clipPath id="clip0_659_353">
<rect width="80" height="80" fill="white" transform="translate(10 10)"/>
</clipPath>
<clipPath id="clip1_659_353">
<rect width="46.6667" height="46.6667" fill="white" transform="translate(26.666 26.666)"/>
</clipPath>
</defs>
</svg>
