<svg width="100" height="100" viewBox="0 0 100 100" fill="none" xmlns="http://www.w3.org/2000/svg">
<path d="M91.435 17.607C85.7514 11.8387 78.1637 8.6457 70.0695 8.61543C70.0311 8.61523 69.9932 8.61523 69.9545 8.61523C62.5279 8.61523 55.514 11.2813 50 16.1652C44.4855 11.2811 37.4726 8.61523 30.0454 8.61523C30.0073 8.61523 29.9687 8.61523 29.9304 8.61543C21.8358 8.64551 14.2481 11.8387 8.56492 17.607C-3.01382 29.3586 -2.82944 48.5241 8.97624 60.3298L33.0044 84.358C37.6902 89.0435 43.8453 91.3865 50.0004 91.3865C56.1554 91.3865 62.3103 89.0435 66.9963 84.358L91.0245 60.3298C102.829 48.5241 103.014 29.3588 91.435 17.607ZM88.3041 57.6104L64.2762 81.6382C60.4627 85.4517 55.3927 87.5517 49.9998 87.5517C44.6068 87.5517 39.5369 85.4515 35.7234 81.6382L11.6952 57.6104C1.37799 47.2932 1.2024 30.5584 11.304 20.3063C16.2628 15.2735 22.8827 12.4873 29.9445 12.4613C29.978 12.4611 30.0112 12.4611 30.0446 12.4611C37.0695 12.4611 43.6701 15.1949 48.64 20.1647C49.0007 20.5252 49.4896 20.728 49.9996 20.728C50.5095 20.728 50.9984 20.5252 51.3591 20.1647C56.3293 15.1943 62.9293 12.4611 69.9545 12.4611C69.9877 12.4611 70.0217 12.4611 70.0547 12.4613C77.1166 12.4875 83.7364 15.2735 88.6952 20.3063C98.7971 30.5584 98.6215 47.2932 88.3041 57.6104Z" fill="white"/>
<g clip-path="url(#clip0_677_807)">
<path d="M25.8253 49.6777C25.9177 49.6777 26.0119 49.6626 26.1041 49.6307C26.5498 49.4767 26.7863 48.9907 26.6323 48.5451C25.8436 46.2616 25.7036 43.8066 26.2273 41.4453C26.7532 39.0747 27.9264 36.9016 29.62 35.1609C33.7059 30.9617 40.1467 29.9976 45.2829 32.8163L48.4336 34.5453C48.8471 34.772 49.3659 34.6209 49.5929 34.2076C49.8198 33.7942 49.6686 33.2753 49.2552 33.0483L48.4587 32.6112V28.5113C48.4587 28.2661 48.4146 28.0253 48.3276 27.7957L47.8148 26.4424C47.708 26.1604 47.7449 25.8564 47.9163 25.6081C48.0877 25.36 48.359 25.2176 48.6606 25.2176H51.5053C51.8069 25.2176 52.0783 25.36 52.2496 25.6081C52.4209 25.8564 52.4579 26.1605 52.3511 26.4423L51.8382 27.7959C51.7513 28.0254 51.7073 28.2661 51.7073 28.5113V33.0683C51.7073 33.5399 52.0895 33.9221 52.561 33.9221H58.665C63.6063 33.9221 67.6265 29.902 67.6265 24.9605V24.7038C67.6265 23.6727 66.7877 22.834 65.7567 22.834H60.6689C60.6254 22.834 60.5824 22.8354 60.5393 22.8367L60.4872 22.8383C60.0157 22.8478 59.6413 23.2378 59.6509 23.7091C59.6603 24.1805 60.0501 24.5521 60.5217 24.5454L60.5966 24.5432C60.6205 24.5424 60.6446 24.5414 60.6688 24.5414H65.7565C65.8461 24.5414 65.9189 24.6142 65.9189 24.7037V24.9604C65.9189 28.9604 62.6648 32.2144 58.6649 32.2144H53.4147V31.7954C53.4147 29.0852 54.9094 26.6206 57.3158 25.3633C57.7337 25.1449 57.8954 24.6292 57.6771 24.2112C57.4588 23.7934 56.9429 23.6315 56.525 23.8498C55.5931 24.3367 54.7722 24.9703 54.0839 25.7139C54.0237 25.333 53.8801 24.9645 53.6546 24.6378C53.167 23.9316 52.3635 23.5099 51.5052 23.5099H48.6605C47.8022 23.5099 46.9987 23.9316 46.511 24.6378C46.0235 25.344 45.9139 26.2448 46.218 27.0474L46.7307 28.4005C46.7442 28.436 46.751 28.4733 46.751 28.5112V31.6741L46.1043 31.3191C40.2977 28.1325 33.0157 29.2226 28.3963 33.97C26.4813 35.9381 25.1549 38.3951 24.5604 41.0755C23.9683 43.7449 24.1267 46.5205 25.0184 49.1024C25.1405 49.4559 25.4713 49.6777 25.8253 49.6777Z" fill="white"/>
<path d="M66.9914 31.6459C66.7653 32.0597 66.9176 32.5783 67.3314 32.8044C68.4758 33.4295 69.5194 34.2227 70.4333 35.1618C72.4141 37.1976 73.6563 39.7651 74.0254 42.5869C74.0816 43.0169 74.4485 43.33 74.8708 43.33C74.9077 43.33 74.945 43.3276 74.9826 43.3227C75.4501 43.2616 75.7795 42.833 75.7184 42.3655C75.3012 39.1757 73.8969 36.2729 71.6571 33.9711C70.6242 32.9096 69.4443 32.0129 68.15 31.306C67.7361 31.0797 67.2175 31.232 66.9914 31.6459Z" fill="white"/>
<path d="M65.2959 70.059C64.8616 69.8756 64.3607 70.0792 64.1772 70.5134C63.2474 72.7155 61.4042 74.3829 59.1203 75.0882C56.8365 75.7939 54.3741 75.4558 52.3645 74.1615L51.865 73.8398C50.7479 73.1204 49.3041 73.1204 48.1869 73.8398L47.6874 74.1615C45.6779 75.4557 43.2155 75.7936 40.9316 75.0882C38.6477 74.3829 36.8045 72.7153 35.8747 70.5133L33.6054 65.1391C33.422 64.7047 32.921 64.5011 32.4867 64.6848C32.0523 64.8681 31.8489 65.369 32.0323 65.8034L34.3016 71.1776C35.428 73.8453 37.6609 75.8654 40.4276 76.7198C43.1944 77.5744 46.1775 77.1652 48.6119 75.5973L49.1114 75.2756C49.6669 74.9178 50.3848 74.9178 50.9402 75.2756L51.4397 75.5973C53.0393 76.6275 54.8754 77.1574 56.7317 77.1574C57.7006 77.1574 58.6751 77.0128 59.6241 76.7198C62.3908 75.8654 64.6237 73.8453 65.7501 71.1776C65.9337 70.7433 65.7303 70.2424 65.2959 70.059Z" fill="white"/>
<path d="M70.1339 58.6007C69.6994 58.4172 69.1988 58.6206 69.0153 59.0551L65.837 66.582C65.6536 67.0163 65.857 67.5172 66.2914 67.7006C66.3999 67.7463 66.5124 67.7681 66.6231 67.7681C66.956 67.7681 67.2724 67.5722 67.4101 67.2461L70.5883 59.7193C70.7717 59.2849 70.5683 58.7841 70.1339 58.6007Z" fill="white"/>
<path d="M78.151 46.3159L77.3469 46.0137C65.636 41.6132 52.8 41.7737 41.2029 46.4658L34.5075 49.1745C30.4594 50.8122 26.1928 51.6426 21.8261 51.6426C21.279 51.6426 20.834 52.0877 20.834 52.6348V63.5396C20.834 64.0867 21.2791 64.5317 21.8261 64.5317C26.4135 64.5317 30.8956 63.6594 35.1479 61.939L37.9201 60.8174C38.3573 60.6406 38.5682 60.1429 38.3914 59.7058C38.2145 59.2686 37.7168 59.0576 37.2797 59.2345L34.5075 60.3561C30.6809 61.9042 26.6588 62.7308 22.5414 62.8167V53.343C24.0811 53.3125 25.608 53.1813 27.1178 52.9544V57.3095C27.1178 57.7811 27.5 58.1632 27.9715 58.1632C28.4431 58.1632 28.8253 57.7811 28.8253 57.3095V52.6553C30.5172 52.3152 32.1845 51.85 33.8204 51.2622V54.9772C33.8204 55.4488 34.2026 55.831 34.6741 55.831C35.1456 55.831 35.5279 55.4488 35.5279 54.9772V50.6034L40.5229 48.5826V51.1142C40.5229 51.5858 40.9051 51.968 41.3766 51.968C41.8481 51.968 42.2304 51.5858 42.2304 51.1142V47.8971C43.8729 47.249 45.5399 46.6921 47.2254 46.2313V50.7523C47.2254 51.224 47.6076 51.6061 48.0791 51.6061C48.5506 51.6061 48.9329 51.224 48.9329 50.7523V45.8004C50.5855 45.4131 52.2525 45.1138 53.928 44.9045V47.4644C53.928 47.9361 54.3102 48.3182 54.7817 48.3182C55.2532 48.3182 55.6355 47.9361 55.6355 47.4644V44.7455C55.6355 44.7379 55.6346 44.7306 55.6343 44.7231C57.2962 44.5759 58.9636 44.5157 60.6304 44.5429V50.3099C60.6304 50.7815 61.0127 51.1636 61.4842 51.1636C61.9557 51.1636 62.338 50.7815 62.338 50.3099V44.601C64.008 44.6881 65.675 44.8634 67.3329 45.1259V47.4643C67.3329 47.9359 67.7152 48.3181 68.1867 48.3181C68.6582 48.3181 69.0404 47.9359 69.0404 47.4643V45.4269C70.5414 45.7206 72.0329 46.0858 73.5101 46.5247V49.6993C73.5101 50.1709 73.8923 50.553 74.3638 50.553C74.8353 50.553 75.2176 50.1709 75.2176 49.6993V47.07C75.7289 47.2428 76.239 47.4214 76.7462 47.612L77.4596 47.8801V57.2374L77.3468 57.1951C65.6359 52.7945 52.7997 52.955 41.2029 57.647L40.6561 57.8682C40.2189 58.0451 40.008 58.5427 40.1848 58.9799C40.3616 59.4171 40.8593 59.6277 41.2964 59.4513L41.8434 59.23C53.0423 54.6995 65.4377 54.5444 76.7462 58.7935L77.0482 58.907C77.5295 59.0879 78.0691 59.0212 78.492 58.7285C78.9147 58.4357 79.1672 57.954 79.1672 57.4398V47.7833C79.1672 47.1339 78.7589 46.5443 78.151 46.3159Z" fill="white"/>
<path d="M52.8483 72.6134H54.3858V74.151C54.3858 75.7215 55.6636 76.9993 57.2341 76.9993H61.0971C62.6676 76.9993 63.9454 75.7215 63.9454 74.151V72.6134H65.4829C67.0534 72.6134 68.3312 71.3355 68.3312 69.7651V65.9021C68.3312 64.3316 67.0534 63.0537 65.4829 63.0537H63.9454V61.5163C63.9454 59.9458 62.6676 58.668 61.0971 58.668H57.2341C55.6636 58.668 54.3858 59.9458 54.3858 61.5163V63.0537H52.8483C51.2778 63.0537 50 64.3316 50 65.9021V69.7651C50 71.3357 51.2777 72.6134 52.8483 72.6134ZM52.4414 65.9021C52.4414 65.6776 52.624 65.4952 52.8483 65.4952H55.6065C56.2806 65.4952 56.8272 64.9488 56.8272 64.2745V61.5163C56.8272 61.2918 57.0098 61.1094 57.2341 61.1094H61.0971C61.3215 61.1094 61.504 61.2918 61.504 61.5163V64.2745C61.504 64.9488 62.0504 65.4952 62.7247 65.4952H65.4829C65.7073 65.4952 65.8898 65.6776 65.8898 65.9021V69.7651C65.8898 69.9895 65.7073 70.172 65.4829 70.172H62.7247C62.0504 70.172 61.504 70.7184 61.504 71.3927V74.151C61.504 74.3754 61.3215 74.5579 61.0971 74.5579H57.2341C57.0098 74.5579 56.8272 74.3754 56.8272 74.151V71.3927C56.8272 70.7184 56.2806 70.172 55.6065 70.172H52.8483C52.624 70.172 52.4414 69.9895 52.4414 69.7651V65.9021Z" fill="white"/>
</g>
<defs>
<clipPath id="clip0_677_807">
<rect width="58.3333" height="58.3333" fill="white" transform="translate(20.834 20.834)"/>
</clipPath>
</defs>
</svg>
