<svg width="100" height="100" viewBox="0 0 100 100" fill="none" xmlns="http://www.w3.org/2000/svg">
<rect width="100" height="100" fill="#259BF1"/>
<g clip-path="url(#clip0_659_352)">
<path d="M83.148 24.0841C78.6011 19.4694 72.5309 16.915 66.0556 16.8908C66.0248 16.8906 65.9945 16.8906 65.9636 16.8906C60.0223 16.8906 54.4112 19.0234 50 22.9306C45.5884 19.0233 39.9781 16.8906 34.0363 16.8906C34.0059 16.8906 33.9749 16.8906 33.9443 16.8908C27.4687 16.9148 21.3985 19.4694 16.8519 24.0841C7.58895 33.4853 7.73645 48.8177 17.181 58.2623L36.4035 77.4848C40.1521 81.2332 45.0762 83.1076 50.0003 83.1076C54.9244 83.1076 59.8483 81.2332 63.597 77.4848L82.8196 58.2623C92.2633 48.8177 92.4108 33.4855 83.148 24.0841ZM80.6433 56.0868L61.4209 75.309C58.3701 78.3598 54.3142 80.0398 49.9998 80.0398C45.6854 80.0398 41.6295 78.3596 38.5787 75.309L19.3562 56.0868C11.1024 47.833 10.9619 34.4452 19.0432 26.2435C23.0102 22.2172 28.3062 19.9883 33.9556 19.9675C33.9824 19.9673 34.009 19.9673 34.0357 19.9673C39.6556 19.9673 44.936 22.1544 48.912 26.1302C49.2006 26.4186 49.5917 26.5808 49.9997 26.5808C50.4076 26.5808 50.7987 26.4186 51.0873 26.1302C55.0634 22.1539 60.3434 19.9673 65.9636 19.9673C65.9902 19.9673 66.0173 19.9673 66.0437 19.9675C71.6933 19.9884 76.9891 22.2172 80.9561 26.2435C89.0377 34.4452 88.8972 47.833 80.6433 56.0868Z" fill="white"/>
<g clip-path="url(#clip1_659_352)">
<path d="M56.6484 62.1359L57.0706 63.4397C57.5169 63.2952 57.9703 63.135 58.4186 62.9636L57.9289 61.6836C57.5029 61.8465 57.0721 61.9987 56.6484 62.1359Z" fill="white"/>
<path d="M66.327 45.7975C70.3545 44.635 73.3086 40.9156 73.3086 36.5188C73.3086 34.2811 72.5255 32.0998 71.1034 30.3767L70.0465 31.249C71.2663 32.7272 71.9381 34.5987 71.9381 36.5188C71.9381 41.0872 68.2215 44.8039 63.6531 44.8039C59.0847 44.8039 55.368 41.0872 55.368 36.5188C55.368 31.9504 59.0846 28.2337 63.653 28.2337C65.6369 28.2337 67.556 28.9458 69.0569 30.2386L69.9514 29.2002C68.2018 27.6933 65.9651 26.8633 63.653 26.8633C58.3289 26.8633 53.9975 31.1947 53.9975 36.5188C53.9975 37.9298 54.3018 39.2711 54.8481 40.4805C53.2114 40.1196 51.5872 39.9364 50.0033 39.9364C43.3689 39.9364 37.4769 43.1482 33.7025 45.8425C29.0646 49.2428 27.4371 51.3257 26.666 52.1754C27.4245 53.0248 29.0708 55.1592 33.6983 58.6036C37.4734 61.3411 43.3664 64.6042 50.0032 64.6042C51.8346 64.6042 53.7193 64.3565 55.6048 63.8678L55.2609 62.541C53.4876 63.0006 51.7186 63.2337 50.0031 63.2337C43.7455 63.2337 38.135 60.1233 34.5304 57.5141C31.5029 55.3227 29.3411 53.106 28.4898 52.1824C29.3434 51.271 31.5032 49.0921 34.5265 46.938C38.1317 44.3691 43.7433 41.3068 50.0031 41.3068C51.8873 41.3068 53.837 41.5834 55.7987 42.1287C57.6649 44.7729 60.9679 46.4317 64.402 46.1455C68.0627 48.5389 70.5984 51.1548 71.5233 52.1742C70.18 53.6302 65.5136 58.364 59.2668 61.1318L59.822 62.3848C68.0655 58.6026 72.559 53.0354 73.3327 52.1847C73.3327 52.1847 70.4433 48.7093 66.327 45.7975Z" fill="white"/>
<path d="M43.0749 45.5842C41.364 47.367 40.4219 49.7099 40.4219 52.1816C40.4219 57.4361 44.6967 61.7108 49.9511 61.7108C55.2055 61.7108 59.4803 57.4361 59.4803 52.1816C59.4803 46.9272 55.2055 42.6523 49.9511 42.6523C47.8549 42.6523 45.8662 43.3199 44.2 44.5829L45.0277 45.6751C46.4538 44.5942 48.1563 44.0228 49.9511 44.0228C54.4499 44.0228 58.1098 47.6829 58.1098 52.1815C58.1098 56.6802 54.4499 60.3403 49.9511 60.3403C45.4523 60.3403 41.7923 56.6802 41.7923 52.1815C41.7923 50.0653 42.599 48.0594 44.0637 46.5332L43.0749 45.5842Z" fill="white"/>
<path d="M49.8598 46.5625C46.8269 46.5625 44.3594 49.0299 44.3594 52.0629C44.3594 55.0958 46.8269 57.5633 49.8598 57.5633C50.3779 57.5633 50.8876 57.4905 51.3801 57.3491C51.7705 57.5611 52.2176 57.6816 52.6922 57.6816C54.2137 57.6816 55.4516 56.4437 55.4516 54.9221C55.4516 54.4569 55.3354 54.0184 55.1313 53.6335C55.2825 53.1256 55.3602 52.599 55.3602 52.0629C55.3601 49.0299 52.8926 46.5625 49.8598 46.5625ZM45.7298 52.0629C45.9511 46.3361 54.3252 46.7615 53.9684 52.4768C51.634 51.2241 49.0043 53.8303 50.2351 56.1757C47.8375 56.4063 45.717 54.4728 45.7298 52.0629ZM52.6921 56.3111C51.9262 56.3111 51.3031 55.688 51.3031 54.9221C51.3031 54.1562 51.9262 53.5332 52.6921 53.5332C53.458 53.5332 54.0811 54.1562 54.0811 54.9221C54.0811 55.688 53.458 56.3111 52.6921 56.3111Z" fill="white"/>
<path d="M65.7108 41.2769V38.5311H68.4566V34.4138H65.7108V31.668H61.5935V34.4138H58.8477V38.5311H61.5935V41.2769H65.7108ZM60.2181 37.1606V35.7844H62.964V33.0385H64.3403V35.7844H67.0861V37.1606H64.3403V39.9065H62.964V37.1606H60.2181Z" fill="white"/>
<path d="M58.8594 31.668H60.2298V33.0384H58.8594V31.668Z" fill="white"/>
<path d="M47.8945 50.1699H49.265V51.5404H47.8945V50.1699Z" fill="white"/>
</g>
</g>
<defs>
<clipPath id="clip0_659_352">
<rect width="80" height="80" fill="white" transform="translate(10 10)"/>
</clipPath>
<clipPath id="clip1_659_352">
<rect width="46.6667" height="46.6667" fill="white" transform="translate(26.666 22.4004)"/>
</clipPath>
</defs>
</svg>
