<svg width="100" height="100" viewBox="0 0 100 100" fill="none" xmlns="http://www.w3.org/2000/svg">
<path d="M91.435 17.607C85.7514 11.8387 78.1637 8.6457 70.0695 8.61543C70.0311 8.61523 69.9932 8.61523 69.9545 8.61523C62.5279 8.61523 55.514 11.2813 50 16.1652C44.4855 11.2811 37.4726 8.61523 30.0454 8.61523C30.0073 8.61523 29.9687 8.61523 29.9304 8.61543C21.8358 8.64551 14.2481 11.8387 8.56492 17.607C-3.01382 29.3586 -2.82944 48.5241 8.97624 60.3298L33.0044 84.358C37.6902 89.0435 43.8453 91.3865 50.0004 91.3865C56.1554 91.3865 62.3103 89.0435 66.9963 84.358L91.0245 60.3298C102.829 48.5241 103.014 29.3588 91.435 17.607ZM88.3041 57.6104L64.2762 81.6382C60.4627 85.4517 55.3927 87.5517 49.9998 87.5517C44.6068 87.5517 39.5369 85.4515 35.7234 81.6382L11.6952 57.6104C1.37799 47.2932 1.2024 30.5584 11.304 20.3063C16.2628 15.2735 22.8827 12.4873 29.9445 12.4613C29.978 12.4611 30.0112 12.4611 30.0446 12.4611C37.0695 12.4611 43.6701 15.1949 48.64 20.1647C49.0007 20.5252 49.4896 20.728 49.9996 20.728C50.5095 20.728 50.9984 20.5252 51.3591 20.1647C56.3293 15.1943 62.9293 12.4611 69.9545 12.4611C69.9877 12.4611 70.0217 12.4611 70.0547 12.4613C77.1166 12.4875 83.7364 15.2735 88.6952 20.3063C98.7971 30.5584 98.6215 47.2932 88.3041 57.6104Z" fill="white"/>
<g clip-path="url(#clip0_677_900)">
<path d="M58.3125 65.1688L58.8402 66.7986C59.398 66.6181 59.9649 66.4178 60.5252 66.2036L59.9131 64.6035C59.3806 64.8071 58.8421 64.9974 58.3125 65.1688Z" fill="white"/>
<path d="M70.4103 44.7459C75.4446 43.2928 79.1372 38.6435 79.1372 33.1475C79.1372 30.3504 78.1583 27.6238 76.3808 25.4699L75.0596 26.5603C76.5844 28.4081 77.4242 30.7474 77.4242 33.1475C77.4242 38.8581 72.7783 43.5039 67.0678 43.5039C61.3573 43.5039 56.7115 38.8581 56.7115 33.1475C56.7115 27.437 61.3572 22.7912 67.0677 22.7912C69.5476 22.7912 71.9465 23.6813 73.8226 25.2973L74.9407 23.9992C72.7537 22.1156 69.9578 21.0781 67.0677 21.0781C60.4126 21.0781 54.9983 26.4924 54.9983 33.1475C54.9983 34.9113 55.3787 36.5878 56.0616 38.0996C54.0157 37.6486 51.9855 37.4195 50.0055 37.4195C41.7125 37.4195 34.3476 41.4343 29.6296 44.8021C23.8322 49.0525 21.7979 51.6562 20.834 52.7183C21.7821 53.78 23.84 56.4481 29.6243 60.7536C34.3432 64.1754 41.7095 68.2543 50.0054 68.2543C52.2947 68.2543 54.6506 67.9446 57.0075 67.3337L56.5776 65.6753C54.361 66.2498 52.1498 66.5411 50.0053 66.5411C42.1833 66.5411 35.1702 62.6532 30.6644 59.3916C26.88 56.6524 24.1778 53.8815 23.1138 52.727C24.1807 51.5878 26.8805 48.8642 30.6596 46.1715C35.1661 42.9604 42.1806 39.1325 50.0053 39.1325C52.3606 39.1325 54.7977 39.4783 57.2498 40.1598C59.5826 43.4651 63.7114 45.5386 68.004 45.181C72.5799 48.1727 75.7495 51.4426 76.9056 52.7168C75.2265 54.5367 69.3935 60.454 61.5849 63.9138L62.2789 65.4801C72.5834 60.7523 78.2003 53.7932 79.1673 52.7299C79.1673 52.7299 75.5555 48.3856 70.4103 44.7459Z" fill="white"/>
<path d="M41.3456 44.4793C39.207 46.7077 38.0293 49.6365 38.0293 52.7261C38.0293 59.2942 43.3728 64.6376 49.9408 64.6376C56.5088 64.6376 61.8523 59.2942 61.8523 52.7261C61.8523 46.158 56.5088 40.8145 49.9408 40.8145C47.3206 40.8145 44.8347 41.6489 42.7519 43.2277L43.7866 44.5929C45.5692 43.2418 47.6974 42.5275 49.9408 42.5275C55.5643 42.5275 60.1392 47.1026 60.1392 52.726C60.1392 58.3493 55.5643 62.9244 49.9408 62.9244C44.3173 62.9244 39.7424 58.3493 39.7424 52.726C39.7424 50.0807 40.7507 47.5733 42.5816 45.6655L41.3456 44.4793Z" fill="white"/>
<path d="M49.8266 45.7031C46.0355 45.7031 42.9512 48.7874 42.9512 52.5786C42.9512 56.3698 46.0355 59.4541 49.8266 59.4541C50.4743 59.4541 51.1115 59.3632 51.727 59.1863C52.2151 59.4513 52.774 59.602 53.3672 59.602C55.2691 59.602 56.8165 58.0546 56.8165 56.1527C56.8165 55.5711 56.6712 55.023 56.416 54.5419C56.605 53.907 56.7022 53.2487 56.7022 52.5786C56.7021 48.7874 53.6177 45.7031 49.8266 45.7031ZM44.6641 52.5786C44.9408 45.4201 55.4084 45.9518 54.9625 53.096C52.0445 51.5301 48.7573 54.7879 50.2958 57.7196C47.2988 58.0079 44.6482 55.591 44.6641 52.5786ZM53.3671 57.8889C52.4097 57.8889 51.6309 57.11 51.6309 56.1527C51.6309 55.1953 52.4097 54.4164 53.3671 54.4164C54.3245 54.4164 55.1033 55.1953 55.1033 56.1527C55.1033 57.11 54.3245 57.8889 53.3671 57.8889Z" fill="white"/>
<path d="M69.6414 39.0952V35.6629H73.0737V30.5163H69.6414V27.084H64.4948V30.5163H61.0625V35.6629H64.4948V39.0952H69.6414ZM62.7756 33.9498V32.2295H66.2079V28.7972H67.9283V32.2295H71.3606V33.9498H67.9283V37.3821H66.2079V33.9498H62.7756Z" fill="white"/>
<path d="M61.0762 27.084H62.7893V28.7971H61.0762V27.084Z" fill="white"/>
<path d="M47.3711 50.2109H49.0842V51.924H47.3711V50.2109Z" fill="white"/>
</g>
<defs>
<clipPath id="clip0_677_900">
<rect width="58.3333" height="58.3333" fill="white" transform="translate(20.834 15.5)"/>
</clipPath>
</defs>
</svg>
