<svg width="100" height="100" viewBox="0 0 100 100" fill="none" xmlns="http://www.w3.org/2000/svg">
<path d="M91.435 17.607C85.7514 11.8387 78.1637 8.6457 70.0695 8.61543C70.0311 8.61523 69.9932 8.61523 69.9545 8.61523C62.5279 8.61523 55.514 11.2813 50 16.1652C44.4855 11.2811 37.4726 8.61523 30.0454 8.61523C30.0073 8.61523 29.9687 8.61523 29.9304 8.61543C21.8358 8.64551 14.2481 11.8387 8.56492 17.607C-3.01382 29.3586 -2.82944 48.5241 8.97624 60.3298L33.0044 84.358C37.6902 89.0435 43.8453 91.3865 50.0004 91.3865C56.1554 91.3865 62.3103 89.0435 66.9963 84.358L91.0245 60.3298C102.829 48.5241 103.014 29.3588 91.435 17.607ZM88.3041 57.6104L64.2762 81.6382C60.4627 85.4517 55.3927 87.5517 49.9998 87.5517C44.6068 87.5517 39.5369 85.4515 35.7234 81.6382L11.6952 57.6104C1.37799 47.2932 1.2024 30.5584 11.304 20.3063C16.2628 15.2735 22.8827 12.4873 29.9445 12.4613C29.978 12.4611 30.0112 12.4611 30.0446 12.4611C37.0695 12.4611 43.6701 15.1949 48.64 20.1647C49.0007 20.5252 49.4896 20.728 49.9996 20.728C50.5095 20.728 50.9984 20.5252 51.3591 20.1647C56.3293 15.1943 62.9293 12.4611 69.9545 12.4611C69.9877 12.4611 70.0217 12.4611 70.0547 12.4613C77.1166 12.4875 83.7364 15.2735 88.6952 20.3063C98.7971 30.5584 98.6215 47.2932 88.3041 57.6104Z" fill="white"/>
<g clip-path="url(#clip0_677_990)">
<path d="M75.2759 50.3579H74.5776C73.2484 47.9086 70.8607 46.2732 68.0961 45.9469C68.0907 45.9462 68.0853 45.9456 68.0801 45.945L66.8267 45.8226V36.3799C66.8267 33.849 65.4408 31.5792 63.3075 30.3948C64.5157 29.3948 65.2867 27.8843 65.2867 26.1973C65.2867 23.1936 62.843 20.75 59.8394 20.75C56.8357 20.75 54.392 23.1936 54.392 26.1973C54.392 27.8844 55.163 29.3949 56.3713 30.3948C55.1562 31.0693 54.1838 32.0959 53.5717 33.3223L48.723 41.62L45.77 43.7654L41.7984 43.3773C40.8421 43.2914 39.9018 43.4211 39.0367 43.7445C38.826 41.1078 36.613 39.0269 33.923 39.0269C31.0942 39.0269 28.7928 41.3283 28.7928 44.1571C28.7928 45.106 29.0476 46.0111 29.5187 46.7951H26.5886C25.1061 46.7951 23.8999 48.0013 23.8999 49.4839C23.8999 49.8223 23.9624 50.1497 24.0793 50.453C23.1663 50.7303 22.5 51.5798 22.5 52.582V59.1356C22.5 60.3619 23.4977 61.3596 24.7241 61.3596H75.2759C76.5023 61.3596 77.5 60.3619 77.5 59.1356V52.582C77.5 51.3557 76.5023 50.3579 75.2759 50.3579ZM72.6782 50.3579H50.8057V45.8766L54.1501 46.2034C54.0127 46.9998 54.2375 47.8493 54.8325 48.4819C55.3335 49.0147 56.0404 49.3204 56.772 49.3204C57.4521 49.3204 58.0994 49.0637 58.595 48.5977L60.4834 46.822L67.9152 47.5481C69.8483 47.7785 71.5546 48.8013 72.6782 50.3579ZM62.0431 45.3553L65.1943 42.3921C65.2014 42.3854 65.2084 42.3786 65.2153 42.3719V45.6651L62.0431 45.3553ZM65.2153 37.9967L64.3761 40.7584C64.3229 40.9336 64.2243 41.0925 64.0906 41.2181L57.4912 47.4238C57.2957 47.6077 57.0402 47.7089 56.772 47.7089C56.4788 47.7089 56.2071 47.5914 56.0064 47.3781C55.6097 46.9561 55.6302 46.2901 56.0521 45.8933L62.291 40.0266C62.3936 39.9303 62.469 39.8087 62.5099 39.674L64.3756 33.5345C64.9104 34.3606 65.2155 35.3415 65.2155 36.38V37.9967H65.2153ZM59.8394 22.3614C61.9546 22.3614 63.6753 24.0822 63.6753 26.1974C63.6753 28.3125 61.9546 30.0333 59.8394 30.0333C57.7243 30.0333 56.0034 28.3125 56.0034 26.1974C56.0034 24.0822 57.7242 22.3614 59.8394 22.3614ZM58.1544 31.378C58.6852 31.5511 59.2515 31.6446 59.8393 31.6446C60.4271 31.6446 60.9934 31.5511 61.5242 31.378C62.1037 31.5559 62.6354 31.829 63.1039 32.1772L61.0305 39L55.0033 44.6677L54.4634 44.615V36.3801C54.4635 34.0726 55.9694 32.0488 58.1544 31.378ZM49.8067 42.8244C49.897 42.759 49.9726 42.6753 50.0288 42.5792L52.852 37.7477V41.9118L51.6462 43.9754C51.5723 44.1018 51.4748 44.2095 51.3567 44.2954L51.3371 44.3097L48.1863 44.0019L49.8067 42.8244ZM30.404 44.1573C30.404 42.217 31.9826 40.6384 33.9229 40.6384C35.8633 40.6384 37.4418 42.217 37.4418 44.1573C37.4418 44.3237 37.4296 44.4914 37.4055 44.6582C37.1657 44.8456 36.9381 45.0518 36.7248 45.2763C35.8077 46.2416 34.4837 46.7953 33.0922 46.7953H31.5948C30.8348 46.1265 30.404 45.1788 30.404 44.1573ZM75.8887 59.1356C75.8887 59.4734 75.6138 59.7482 75.2759 59.7482H24.7241C24.3861 59.7482 24.1113 59.4733 24.1113 59.1356V52.582C24.1113 52.2441 24.3862 51.9693 24.7241 51.9693H29.8478C30.2928 51.9693 30.6534 51.6087 30.6534 51.1636C30.6534 50.7186 30.2928 50.3579 29.8478 50.3579H25.9607C25.68 50.1572 25.5111 49.8352 25.5111 49.4841C25.5111 48.89 25.9944 48.4066 26.5885 48.4066H33.092C34.9231 48.4066 36.6729 47.6702 37.8927 46.3862C38.8625 45.3657 40.2338 44.8543 41.6474 44.9819L49.1942 45.7192V50.3579H33.0704C32.6254 50.3579 32.2648 50.7186 32.2648 51.1636C32.2648 51.6087 32.6254 51.9693 33.0704 51.9693H75.2759C75.6139 51.9693 75.8887 52.2442 75.8887 52.582V59.1356Z" fill="white"/>
<path d="M72.6122 62.9707C72.1671 62.9707 71.8065 63.3313 71.8065 63.7764V68.3212C71.8065 68.6797 71.5149 68.9715 71.1563 68.9715C70.7976 68.9715 70.5059 68.6797 70.5059 68.3212V63.7764C70.5059 63.3313 70.1452 62.9707 69.7002 62.9707C69.2551 62.9707 68.8945 63.3313 68.8945 63.7764V68.3212C68.8945 69.5682 69.9091 70.5828 71.1563 70.5828C72.4033 70.5828 73.4179 69.5683 73.4179 68.3212V63.7764C73.4179 63.3313 73.0572 62.9707 72.6122 62.9707Z" fill="white"/>
<path d="M30.2998 62.9668C29.8547 62.9668 29.4941 63.3274 29.4941 63.7725V68.3217C29.4941 68.6802 29.2024 68.972 28.8437 68.972C28.4851 68.972 28.1934 68.6802 28.1934 68.3217V63.7769C28.1934 63.3318 27.8327 62.9712 27.3877 62.9712C26.9426 62.9712 26.582 63.3318 26.582 63.7769V68.3217C26.582 69.5687 27.5965 70.5833 28.8437 70.5833C30.0909 70.5833 31.1055 69.5688 31.1055 68.3217V63.7725C31.1055 63.3274 30.7448 62.9668 30.2998 62.9668Z" fill="white"/>
</g>
<defs>
<clipPath id="clip0_677_990">
<rect width="55" height="55" fill="white" transform="translate(22.5 18.166)"/>
</clipPath>
</defs>
</svg>
