<svg width="100" height="100" viewBox="0 0 100 100" fill="none" xmlns="http://www.w3.org/2000/svg">
<rect width="100" height="100" fill="#259BF1"/>
<g clip-path="url(#clip0_659_355)">
<path d="M83.148 24.0841C78.6011 19.4694 72.5309 16.915 66.0556 16.8908C66.0248 16.8906 65.9945 16.8906 65.9636 16.8906C60.0223 16.8906 54.4112 19.0234 50 22.9306C45.5884 19.0233 39.9781 16.8906 34.0363 16.8906C34.0059 16.8906 33.9749 16.8906 33.9443 16.8908C27.4687 16.9148 21.3985 19.4694 16.8519 24.0841C7.58895 33.4853 7.73645 48.8177 17.181 58.2623L36.4035 77.4848C40.1521 81.2332 45.0762 83.1076 50.0003 83.1076C54.9244 83.1076 59.8483 81.2332 63.597 77.4848L82.8196 58.2623C92.2633 48.8177 92.4108 33.4855 83.148 24.0841ZM80.6433 56.0868L61.4209 75.309C58.3701 78.3598 54.3142 80.0398 49.9998 80.0398C45.6854 80.0398 41.6295 78.3596 38.5787 75.309L19.3562 56.0868C11.1024 47.833 10.9619 34.4452 19.0432 26.2435C23.0102 22.2172 28.3062 19.9883 33.9556 19.9675C33.9824 19.9673 34.009 19.9673 34.0357 19.9673C39.6556 19.9673 44.936 22.1544 48.912 26.1302C49.2006 26.4186 49.5917 26.5808 49.9997 26.5808C50.4076 26.5808 50.7987 26.4186 51.0873 26.1302C55.0634 22.1539 60.3434 19.9673 65.9636 19.9673C65.9902 19.9673 66.0173 19.9673 66.0437 19.9675C71.6933 19.9884 76.9891 22.2172 80.9561 26.2435C89.0377 34.4452 88.8972 47.833 80.6433 56.0868Z" fill="white"/>
<path d="M70.2207 50.286H69.6621C68.5987 48.3265 66.6885 47.0182 64.4769 46.7571C64.4726 46.7566 64.4683 46.7561 64.4641 46.7556L63.4613 46.6577V39.1035C63.4613 37.0788 62.3527 35.263 60.646 34.3154C61.6126 33.5154 62.2293 32.3071 62.2293 30.9574C62.2293 28.5545 60.2744 26.5996 57.8715 26.5996C55.4685 26.5996 53.5136 28.5545 53.5136 30.9574C53.5136 32.3071 54.1304 33.5155 55.097 34.3154C54.125 34.855 53.347 35.6763 52.8573 36.6575L48.9784 43.2956L46.616 45.0119L43.4388 44.7015C42.6737 44.6327 41.9214 44.7365 41.2294 44.9952C41.0608 42.8859 39.2904 41.2211 37.1384 41.2211C34.8753 41.2211 33.0342 43.0622 33.0342 45.3253C33.0342 46.0844 33.2381 46.8085 33.615 47.4357H31.2709C30.0848 47.4357 29.1199 48.4007 29.1199 49.5867C29.1199 49.8575 29.17 50.1193 29.2635 50.362C28.5331 50.5838 28 51.2634 28 52.0652V57.3081C28 58.2892 28.7982 59.0873 29.7793 59.0873H70.2207C71.2018 59.0873 72 58.2892 72 57.3081V52.0652C72 51.0842 71.2018 50.286 70.2207 50.286ZM68.1425 50.286H50.6445V46.7009L53.3201 46.9623C53.2102 47.5995 53.39 48.2791 53.866 48.7852C54.2668 49.2114 54.8324 49.4559 55.4176 49.4559C55.9617 49.4559 56.4795 49.2506 56.876 48.8778L58.3867 47.4572L64.3321 48.0381C65.8787 48.2224 67.2437 49.0406 68.1425 50.286ZM59.6345 46.2839L62.1554 43.9133C62.1611 43.9079 62.1667 43.9025 62.1723 43.8971V46.5317L59.6345 46.2839ZM62.1723 40.397L61.5008 42.6063C61.4583 42.7465 61.3794 42.8736 61.2725 42.9741L55.9929 47.9387C55.8365 48.0858 55.6322 48.1667 55.4176 48.1667C55.1831 48.1667 54.9656 48.0727 54.8051 47.9021C54.4877 47.5645 54.5042 47.0317 54.8417 46.7142L59.8328 42.0209C59.9149 41.9438 59.9752 41.8466 60.0079 41.7388L61.5005 36.8272C61.9283 37.4881 62.1724 38.2728 62.1724 39.1036V40.397H62.1723ZM57.8715 27.8888C59.5636 27.8888 60.9403 29.2654 60.9403 30.9575C60.9403 32.6496 59.5636 34.0262 57.8715 34.0262C56.1794 34.0262 54.8027 32.6496 54.8027 30.9575C54.8027 29.2654 56.1793 27.8888 57.8715 27.8888ZM56.5235 35.102C56.9481 35.2405 57.4012 35.3153 57.8714 35.3153C58.3417 35.3153 58.7948 35.2405 59.2194 35.102C59.6829 35.2443 60.1083 35.4628 60.4831 35.7414L58.8244 41.1996L54.0026 45.7338L53.5707 45.6916V39.1037C53.5708 37.2577 54.7755 35.6387 56.5235 35.102ZM49.8454 44.2592C49.9176 44.2068 49.9781 44.1399 50.023 44.063L52.2816 40.1978V43.529L51.317 45.1799C51.2579 45.281 51.1798 45.3672 51.0854 45.4359L51.0697 45.4473L48.549 45.2011L49.8454 44.2592ZM34.3232 45.3255C34.3232 43.7732 35.586 42.5103 37.1383 42.5103C38.6906 42.5103 39.9535 43.7732 39.9535 45.3255C39.9535 45.4586 39.9437 45.5927 39.9244 45.7262C39.7325 45.8761 39.5505 46.0411 39.3798 46.2207C38.6462 46.9929 37.5869 47.4358 36.4738 47.4358H35.2758C34.6678 46.9008 34.3232 46.1427 34.3232 45.3255ZM70.7109 57.3081C70.7109 57.5784 70.491 57.7982 70.2207 57.7982H29.7793C29.5089 57.7982 29.2891 57.5783 29.2891 57.3081V52.0652C29.2891 51.7949 29.509 51.575 29.7793 51.575H33.8782C34.2343 51.575 34.5227 51.2865 34.5227 50.9305C34.5227 50.5745 34.2343 50.286 33.8782 50.286H30.7686C30.544 50.1253 30.4089 49.8678 30.4089 49.5869C30.4089 49.1116 30.7955 48.7249 31.2708 48.7249H36.4736C37.9385 48.7249 39.3383 48.1358 40.3142 47.1086C41.09 46.2922 42.1871 45.883 43.3179 45.9851L49.3554 46.575V50.286H36.4563C36.1003 50.286 35.8118 50.5745 35.8118 50.9305C35.8118 51.2865 36.1003 51.575 36.4563 51.575H70.2207C70.4911 51.575 70.7109 51.7949 70.7109 52.0652V57.3081Z" fill="white"/>
<path d="M68.0894 60.377C67.7333 60.377 67.4448 60.6654 67.4448 61.0215V64.6573C67.4448 64.9442 67.2115 65.1776 66.9247 65.1776C66.6377 65.1776 66.4043 64.9442 66.4043 64.6573V61.0215C66.4043 60.6654 66.1158 60.377 65.7598 60.377C65.4037 60.377 65.1152 60.6654 65.1152 61.0215V64.6573C65.1152 65.655 65.9269 66.4667 66.9247 66.4667C67.9222 66.4667 68.7339 65.6551 68.7339 64.6573V61.0215C68.7339 60.6654 68.4454 60.377 68.0894 60.377Z" fill="white"/>
<path d="M34.2398 60.373C33.8838 60.373 33.5953 60.6615 33.5953 61.0176V64.6569C33.5953 64.9438 33.3619 65.1772 33.075 65.1772C32.7881 65.1772 32.5547 64.9438 32.5547 64.6569V61.0211C32.5547 60.6651 32.2662 60.3766 31.9102 60.3766C31.5541 60.3766 31.2656 60.6651 31.2656 61.0211V64.6569C31.2656 65.6546 32.0772 66.4663 33.075 66.4663C34.0727 66.4663 34.8844 65.6547 34.8844 64.6569V61.0176C34.8844 60.6615 34.5959 60.373 34.2398 60.373Z" fill="white"/>
</g>
<defs>
<clipPath id="clip0_659_355">
<rect width="80" height="80" fill="white" transform="translate(10 10)"/>
</clipPath>
</defs>
</svg>
