<svg width="100" height="100" viewBox="0 0 100 100" fill="none" xmlns="http://www.w3.org/2000/svg">
<rect width="100" height="100" fill="#259BF1"/>
<g clip-path="url(#clip0_659_345)">
<path d="M83.148 24.0841C78.6011 19.4694 72.5309 16.915 66.0556 16.8908C66.0248 16.8906 65.9945 16.8906 65.9636 16.8906C60.0223 16.8906 54.4112 19.0234 50 22.9306C45.5884 19.0233 39.9781 16.8906 34.0363 16.8906C34.0059 16.8906 33.9749 16.8906 33.9443 16.8908C27.4687 16.9148 21.3985 19.4694 16.8519 24.0841C7.58895 33.4853 7.73645 48.8177 17.181 58.2623L36.4035 77.4848C40.1521 81.2332 45.0762 83.1076 50.0003 83.1076C54.9244 83.1076 59.8483 81.2332 63.597 77.4848L82.8196 58.2623C92.2633 48.8177 92.4108 33.4855 83.148 24.0841ZM80.6433 56.0868L61.4209 75.309C58.3701 78.3598 54.3142 80.0398 49.9998 80.0398C45.6854 80.0398 41.6295 78.3596 38.5787 75.309L19.3562 56.0868C11.1024 47.833 10.9619 34.4452 19.0432 26.2435C23.0102 22.2172 28.3062 19.9883 33.9556 19.9675C33.9824 19.9673 34.009 19.9673 34.0357 19.9673C39.6556 19.9673 44.936 22.1544 48.912 26.1302C49.2006 26.4186 49.5917 26.5808 49.9997 26.5808C50.4076 26.5808 50.7987 26.4186 51.0873 26.1302C55.0634 22.1539 60.3434 19.9673 65.9636 19.9673C65.9902 19.9673 66.0173 19.9673 66.0437 19.9675C71.6933 19.9884 76.9891 22.2172 80.9561 26.2435C89.0377 34.4452 88.8972 47.833 80.6433 56.0868Z" fill="white"/>
<g clip-path="url(#clip1_659_345)">
<path d="M69.0107 54.014H54.9069C54.5617 54.014 54.2819 54.2937 54.2819 54.639C54.2819 54.9842 54.5617 55.264 54.9069 55.264H69.0107C69.3917 55.264 69.7018 55.574 69.7018 55.955V57.4317H43.1077V55.264H51.9899C52.3352 55.264 52.6149 54.9842 52.6149 54.639C52.6149 54.2937 52.3352 54.014 51.9899 54.014H43.1077V40.8423H47.603V42.2865C47.603 43.3553 48.4726 44.2249 49.5414 44.2249H57.3606C58.4294 44.2249 59.299 43.3553 59.299 42.2865V40.8423H60.206C60.7679 40.8423 61.2802 40.5819 61.6114 40.1278C61.943 39.6734 62.0346 39.1055 61.8627 38.5693L60.2543 33.5668C59.7722 32.0673 58.4593 31.0225 56.9182 30.8699C56.6372 29.4925 55.4163 28.4531 53.9572 28.4531H48.9814C47.5294 28.4531 46.3137 29.4826 46.0248 30.8499H40.466C38.4446 30.8499 36.5452 31.6375 35.1177 33.0675C35.1108 33.0745 35.104 33.0816 35.0973 33.089L30.2404 38.4395C28.9796 39.8286 28.2852 41.6267 28.2852 43.5026V63.303C28.2852 63.6483 28.5649 63.928 28.9102 63.928C29.2554 63.928 29.5352 63.6483 29.5352 63.303V43.5026C29.5352 41.938 30.1143 40.4383 31.166 39.2796L36.0127 33.9403C37.2027 32.7534 38.7837 32.0998 40.4659 32.0998L56.3541 32.1C57.5074 32.0217 58.7057 32.7933 59.0642 33.9494L60.6724 38.9514C60.7208 39.1025 60.695 39.2628 60.6014 39.391C60.5082 39.5189 60.3639 39.5922 60.2058 39.5922L39.5252 39.5918C39.1799 39.5918 38.9002 39.8715 38.9002 40.2168C38.9002 40.562 39.1799 40.8418 39.5252 40.8418H41.8575L41.8572 63.303C41.8572 63.6483 42.1369 63.928 42.4822 63.928C42.5254 63.928 42.5677 63.9236 42.6084 63.9153C42.8932 63.857 43.1075 63.605 43.1075 63.303V58.6815H57.4307L59.668 63.5635C59.7732 63.7929 59.9997 63.9282 60.2366 63.9282C60.3237 63.9282 60.4122 63.9099 60.4966 63.8712C60.8104 63.7274 60.9482 63.3564 60.8043 63.0426L58.8057 58.6815H69.7018V63.303C69.7018 63.6483 69.9816 63.928 70.3268 63.928C70.6721 63.928 70.9518 63.6483 70.9518 63.303V55.9549C70.9518 54.8847 70.0811 54.014 69.0107 54.014ZM48.9813 29.703H53.9572C54.7142 29.703 55.362 30.1803 55.6152 30.8498H47.3232C47.5766 30.1803 48.2242 29.703 48.9813 29.703ZM58.049 42.2865C58.049 42.666 57.7402 42.9749 57.3606 42.9749H49.5414C49.1618 42.9749 48.853 42.666 48.853 42.2865V40.8423H58.049V42.2865Z" fill="white"/>
<path d="M49.2143 48.1088C48.9702 48.3529 48.9702 48.7486 49.2143 48.9927C50.3826 50.1609 51.9167 50.7449 53.4514 50.7449C54.9856 50.7449 56.5204 50.1606 57.6884 48.9927C57.9326 48.7486 57.9326 48.3529 57.6885 48.1089C57.4444 47.8649 57.0486 47.8647 56.8046 48.1088C54.9556 49.9578 51.9472 49.9578 50.0983 48.1088C49.8541 47.8648 49.4584 47.8648 49.2143 48.1088Z" fill="white"/>
<path d="M56.0202 47.3267C56.2643 47.0825 56.2643 46.6868 56.0202 46.4428C55.7761 46.1988 55.3804 46.1988 55.1363 46.4428C54.2067 47.3726 52.6939 47.3726 51.7642 46.4428C51.5201 46.1988 51.1244 46.1988 50.8803 46.4428C50.6362 46.6869 50.6362 47.0826 50.8803 47.3267C51.5889 48.0352 52.5196 48.3894 53.4503 48.3894C54.3811 48.3894 55.3117 48.0352 56.0202 47.3267Z" fill="white"/>
<path d="M37.2333 54.0137H33.7304C32.4435 54.0137 31.3965 55.0606 31.3965 56.3476C31.3965 57.6344 32.4434 58.6814 33.7304 58.6814H37.2333C38.5202 58.6814 39.5672 57.6345 39.5672 56.3476C39.5672 55.0606 38.5202 54.0137 37.2333 54.0137ZM37.2333 57.4314H33.7304C33.1327 57.4314 32.6465 56.9453 32.6465 56.3476C32.6465 55.7499 33.1327 55.2637 33.7304 55.2637H37.2333C37.831 55.2637 38.3172 55.7499 38.3172 56.3476C38.3172 56.9453 37.831 57.4314 37.2333 57.4314Z" fill="white"/>
<path d="M49.6582 36.834C50.0034 36.834 50.2832 36.5542 50.2832 36.209C50.2832 35.8638 50.0034 35.584 49.6582 35.584C49.313 35.584 49.0332 35.8638 49.0332 36.209C49.0332 36.5542 49.313 36.834 49.6582 36.834Z" fill="white"/>
<path d="M52.1875 36.834C52.5327 36.834 52.8125 36.5542 52.8125 36.209C52.8125 35.8638 52.5327 35.584 52.1875 35.584C51.8423 35.584 51.5625 35.8638 51.5625 36.209C51.5625 36.5542 51.8423 36.834 52.1875 36.834Z" fill="white"/>
<path d="M54.7168 36.834C55.062 36.834 55.3418 36.5542 55.3418 36.209C55.3418 35.8638 55.062 35.584 54.7168 35.584C54.3716 35.584 54.0918 35.8638 54.0918 36.209C54.0918 36.5542 54.3716 36.834 54.7168 36.834Z" fill="white"/>
<path d="M57.2461 36.834C57.5913 36.834 57.8711 36.5542 57.8711 36.209C57.8711 35.8638 57.5913 35.584 57.2461 35.584C56.9009 35.584 56.6211 35.8638 56.6211 36.209C56.6211 36.5542 56.9009 36.834 57.2461 36.834Z" fill="white"/>
</g>
</g>
<defs>
<clipPath id="clip0_659_345">
<rect width="80" height="80" fill="white" transform="translate(10 10)"/>
</clipPath>
<clipPath id="clip1_659_345">
<rect width="42.6667" height="42.6667" fill="white" transform="translate(28.2852 24.8574)"/>
</clipPath>
</defs>
</svg>
