<svg width="100" height="100" viewBox="0 0 100 100" fill="none" xmlns="http://www.w3.org/2000/svg">
<path d="M91.435 17.607C85.7514 11.8387 78.1637 8.6457 70.0695 8.61543C70.0311 8.61523 69.9932 8.61523 69.9545 8.61523C62.5279 8.61523 55.514 11.2813 50 16.1652C44.4855 11.2811 37.4726 8.61523 30.0454 8.61523C30.0073 8.61523 29.9687 8.61523 29.9304 8.61543C21.8358 8.64551 14.2481 11.8387 8.56492 17.607C-3.01382 29.3586 -2.82944 48.5241 8.97624 60.3298L33.0044 84.358C37.6902 89.0435 43.8453 91.3865 50.0004 91.3865C56.1554 91.3865 62.3103 89.0435 66.9963 84.358L91.0245 60.3298C102.829 48.5241 103.014 29.3588 91.435 17.607ZM88.3041 57.6104L64.2762 81.6382C60.4627 85.4517 55.3927 87.5517 49.9998 87.5517C44.6068 87.5517 39.5369 85.4515 35.7234 81.6382L11.6952 57.6104C1.37799 47.2932 1.2024 30.5584 11.304 20.3063C16.2628 15.2735 22.8827 12.4873 29.9445 12.4613C29.978 12.4611 30.0112 12.4611 30.0446 12.4611C37.0695 12.4611 43.6701 15.1949 48.64 20.1647C49.0007 20.5252 49.4896 20.728 49.9996 20.728C50.5095 20.728 50.9984 20.5252 51.3591 20.1647C56.3293 15.1943 62.9293 12.4611 69.9545 12.4611C69.9877 12.4611 70.0217 12.4611 70.0547 12.4613C77.1166 12.4875 83.7364 15.2735 88.6952 20.3063C98.7971 30.5584 98.6215 47.2932 88.3041 57.6104Z" fill="white"/>
<g clip-path="url(#clip0_677_1009)">
<path d="M73.7643 55.0175H56.1346C55.703 55.0175 55.3534 55.3671 55.3534 55.7987C55.3534 56.2303 55.703 56.58 56.1346 56.58H73.7643C74.2407 56.58 74.6283 56.9674 74.6283 57.4438V59.2896H41.3855V56.58H52.4884C52.9199 56.58 53.2696 56.2303 53.2696 55.7987C53.2696 55.3671 52.9199 55.0175 52.4884 55.0175H41.3855V38.5529H47.0047V40.3581C47.0047 41.6941 48.0917 42.7811 49.4277 42.7811H59.2017C60.5377 42.7811 61.6247 41.6941 61.6247 40.3581V38.5529H62.7585C63.4609 38.5529 64.1013 38.2273 64.5152 37.6597C64.9297 37.0917 65.0442 36.3818 64.8293 35.7116L62.8189 29.4585C62.2163 27.5841 60.5751 26.2782 58.6488 26.0873C58.2974 24.3657 56.7714 23.0664 54.9475 23.0664H48.7277C46.9127 23.0664 45.393 24.3533 45.032 26.0623H38.0835C35.5567 26.0623 33.1824 27.0468 31.3982 28.8344C31.3895 28.8431 31.381 28.852 31.3726 28.8612L25.3015 35.5494C23.7254 37.2858 22.8574 39.5334 22.8574 41.8783V66.6288C22.8574 67.0604 23.2071 67.4101 23.6387 67.4101C24.0702 67.4101 24.4199 67.0604 24.4199 66.6288V41.8783C24.4199 39.9226 25.1439 38.0479 26.4585 36.5995L32.5168 29.9254C34.0043 28.4417 35.9805 27.6247 38.0834 27.6247L57.9436 27.6249C59.3852 27.5271 60.883 28.4916 61.3313 29.9367L63.3415 36.1892C63.402 36.3782 63.3697 36.5785 63.2527 36.7387C63.1362 36.8986 62.9559 36.9903 62.7583 36.9903L36.9074 36.9897C36.4759 36.9897 36.1262 37.3394 36.1262 37.771C36.1262 38.2026 36.4759 38.5522 36.9074 38.5522H39.8228L39.8224 66.6288C39.8224 67.0604 40.1721 67.4101 40.6037 67.4101C40.6577 67.4101 40.7105 67.4045 40.7615 67.3941C41.1175 67.3213 41.3853 67.0063 41.3853 66.6287V60.8519H59.2893L62.086 66.9543C62.2174 67.2411 62.5005 67.4103 62.7967 67.4103C62.9055 67.4103 63.0162 67.3873 63.1217 67.339C63.514 67.1592 63.6862 66.6955 63.5064 66.3033L61.008 60.8519H74.6283V66.6288C74.6283 67.0604 74.9779 67.4101 75.4095 67.4101C75.8411 67.4101 76.1908 67.0604 76.1908 66.6288V57.4436C76.1908 56.1059 75.1023 55.0175 73.7643 55.0175ZM48.7276 24.6288H54.9474C55.8938 24.6288 56.7035 25.2254 57.02 26.0622H46.6549C46.9717 25.2254 47.7813 24.6288 48.7276 24.6288ZM60.0622 40.3581C60.0622 40.8326 59.6762 41.2186 59.2017 41.2186H49.4277C48.9533 41.2186 48.5672 40.8326 48.5672 40.3581V38.5529H60.0622V40.3581Z" fill="white"/>
<path d="M49.0179 47.637C48.7128 47.9422 48.7128 48.4367 49.0179 48.7418C50.4783 50.2022 52.3959 50.9321 54.3142 50.9321C56.232 50.9321 58.1505 50.2017 59.6105 48.7418C59.9157 48.4367 59.9157 47.9421 59.6106 47.6371C59.3055 47.3321 58.8108 47.3318 58.5058 47.637C56.1946 49.9482 52.434 49.9482 50.1229 47.637C49.8176 47.332 49.323 47.332 49.0179 47.637Z" fill="white"/>
<path d="M57.5268 46.6579C57.8319 46.3527 57.8319 45.8581 57.5268 45.553C57.2216 45.248 56.727 45.248 56.4219 45.553C55.2598 46.7153 53.3689 46.7153 52.2068 45.553C51.9016 45.248 51.407 45.248 51.1019 45.553C50.7968 45.8582 50.7968 46.3528 51.1019 46.6579C51.9876 47.5435 53.1509 47.9863 54.3144 47.9863C55.4778 47.9863 56.641 47.5435 57.5268 46.6579Z" fill="white"/>
<path d="M34.0441 55.0176H29.6654C28.0568 55.0176 26.748 56.3262 26.748 57.935C26.748 59.5435 28.0567 60.8523 29.6654 60.8523H34.0441C35.6526 60.8523 36.9614 59.5436 36.9614 57.935C36.9614 56.3262 35.6526 55.0176 34.0441 55.0176ZM34.0441 59.2898H29.6654C28.9184 59.2898 28.3105 58.6821 28.3105 57.935C28.3105 57.1879 28.9184 56.5801 29.6654 56.5801H34.0441C34.7912 56.5801 35.3989 57.1879 35.3989 57.935C35.3989 58.6821 34.7912 59.2898 34.0441 59.2898Z" fill="white"/>
<path d="M49.5723 33.543C50.0037 33.543 50.3535 33.1932 50.3535 32.7617C50.3535 32.3302 50.0037 31.9805 49.5723 31.9805C49.1408 31.9805 48.791 32.3302 48.791 32.7617C48.791 33.1932 49.1408 33.543 49.5723 33.543Z" fill="white"/>
<path d="M52.7344 33.543C53.1658 33.543 53.5156 33.1932 53.5156 32.7617C53.5156 32.3302 53.1658 31.9805 52.7344 31.9805C52.3029 31.9805 51.9531 32.3302 51.9531 32.7617C51.9531 33.1932 52.3029 33.543 52.7344 33.543Z" fill="white"/>
<path d="M55.8945 33.543C56.326 33.543 56.6758 33.1932 56.6758 32.7617C56.6758 32.3302 56.326 31.9805 55.8945 31.9805C55.4631 31.9805 55.1133 32.3302 55.1133 32.7617C55.1133 33.1932 55.4631 33.543 55.8945 33.543Z" fill="white"/>
<path d="M59.0566 33.543C59.4881 33.543 59.8379 33.1932 59.8379 32.7617C59.8379 32.3302 59.4881 31.9805 59.0566 31.9805C58.6252 31.9805 58.2754 32.3302 58.2754 32.7617C58.2754 33.1932 58.6252 33.543 59.0566 33.543Z" fill="white"/>
</g>
<defs>
<clipPath id="clip0_677_1009">
<rect width="53.3333" height="53.3333" fill="white" transform="translate(22.8574 18.5723)"/>
</clipPath>
</defs>
</svg>
