<svg width="100" height="100" viewBox="0 0 100 100" fill="none" xmlns="http://www.w3.org/2000/svg">
<rect width="100" height="100" fill="#259BF1"/>
<g clip-path="url(#clip0_659_340)">
<path d="M83.148 24.0841C78.6011 19.4694 72.5309 16.915 66.0556 16.8908C66.0248 16.8906 65.9945 16.8906 65.9636 16.8906C60.0223 16.8906 54.4112 19.0234 50 22.9306C45.5884 19.0233 39.9781 16.8906 34.0363 16.8906C34.0059 16.8906 33.9749 16.8906 33.9443 16.8908C27.4687 16.9148 21.3985 19.4694 16.8519 24.0841C7.58895 33.4853 7.73645 48.8177 17.181 58.2623L36.4035 77.4848C40.1521 81.2332 45.0762 83.1076 50.0003 83.1076C54.9244 83.1076 59.8483 81.2332 63.597 77.4848L82.8196 58.2623C92.2633 48.8177 92.4108 33.4855 83.148 24.0841ZM80.6433 56.0868L61.4209 75.309C58.3701 78.3598 54.3142 80.0398 49.9998 80.0398C45.6854 80.0398 41.6295 78.3596 38.5787 75.309L19.3562 56.0868C11.1024 47.833 10.9619 34.4452 19.0432 26.2435C23.0102 22.2172 28.3062 19.9883 33.9556 19.9675C33.9824 19.9673 34.009 19.9673 34.0357 19.9673C39.6556 19.9673 44.936 22.1544 48.912 26.1302C49.2006 26.4186 49.5917 26.5808 49.9997 26.5808C50.4076 26.5808 50.7987 26.4186 51.0873 26.1302C55.0634 22.1539 60.3434 19.9673 65.9636 19.9673C65.9902 19.9673 66.0173 19.9673 66.0437 19.9675C71.6933 19.9884 76.9891 22.2172 80.9561 26.2435C89.0377 34.4452 88.8972 47.833 80.6433 56.0868Z" fill="white"/>
<g clip-path="url(#clip1_659_340)">
<mask id="path-3-inside-1_659_340" fill="white">
<path d="M61.8072 31.3666H54.6884V30.1133C54.6884 30.0097 54.6472 29.9103 54.5739 29.8371C54.5007 29.7638 54.4013 29.7227 54.2977 29.7227H44.5565C44.4529 29.7227 44.3535 29.7638 44.2803 29.8371C44.207 29.9103 44.1659 30.0097 44.1659 30.1133V31.3666H37.047C36.3661 31.3673 35.7133 31.6381 35.2318 32.1195C34.7503 32.601 34.4794 33.2538 34.4785 33.9347V66.5627C34.4793 67.2436 34.7501 67.8965 35.2317 68.378C35.7132 68.8595 36.3661 69.1303 37.047 69.1311H61.8072C62.4882 69.1303 63.141 68.8595 63.6226 68.378C64.1041 67.8965 64.3749 67.2436 64.3757 66.5627V33.9347C64.3749 33.2538 64.104 32.601 63.6224 32.1195C63.1409 31.6381 62.4881 31.3673 61.8072 31.3666ZM44.9471 30.5039H53.9071V33.0105H44.9471V30.5039ZM63.5945 66.5627C63.594 67.0365 63.4055 67.4908 63.0704 67.8259C62.7354 68.1609 62.281 68.3494 61.8072 68.3498H37.047C36.5732 68.3494 36.1189 68.1609 35.7838 67.8259C35.4487 67.4908 35.2603 67.0365 35.2598 66.5627V33.9347C35.2603 33.4609 35.4488 33.0067 35.7839 32.6717C36.119 32.3367 36.5732 32.1483 37.047 32.1478H44.1659V33.4011C44.1659 33.5047 44.207 33.6041 44.2803 33.6773C44.3535 33.7506 44.4529 33.7917 44.5565 33.7917H54.2977C54.4013 33.7917 54.5007 33.7506 54.5739 33.6773C54.6472 33.6041 54.6884 33.5047 54.6884 33.4011V32.1478H61.8072C62.281 32.1483 62.7352 32.3367 63.0703 32.6717C63.4054 33.0067 63.5939 33.4609 63.5945 33.9347V66.5627ZM52.2199 51.0368C51.6837 51.0164 51.1505 51.1251 50.665 51.3537C50.1795 51.5822 49.7561 51.924 49.4302 52.3503C49.4101 52.3772 49.384 52.399 49.354 52.4139C49.324 52.4289 49.2909 52.4365 49.2573 52.4362C49.2238 52.4365 49.1907 52.4288 49.1607 52.4139C49.1307 52.399 49.1046 52.3772 49.0846 52.3503C48.7641 51.9303 48.3487 51.5923 47.8724 51.3638C47.3961 51.1353 46.8724 51.023 46.3443 51.0359C45.8161 51.0488 45.2986 51.1867 44.834 51.4382C44.3694 51.6897 43.9711 52.0476 43.6715 52.4828C43.3719 52.9179 43.1797 53.4178 43.1106 53.9416C43.0415 54.4653 43.0974 54.998 43.2738 55.4959C43.4503 55.9939 43.7422 56.4429 44.1256 56.8063C44.509 57.1698 44.9731 57.4372 45.4798 57.5866C45.642 57.6376 45.7836 57.7393 45.8837 57.8769C45.9838 58.0144 46.037 58.1805 46.0355 58.3505V67.3127C46.0355 67.4163 46.0766 67.5157 46.1499 67.5889C46.2231 67.6622 46.3225 67.7034 46.4261 67.7034H52.0887C52.1923 67.7034 52.2916 67.6622 52.3649 67.5889C52.4381 67.5157 52.4793 67.4163 52.4793 67.3127V58.3505C52.4778 58.1805 52.531 58.0144 52.6311 57.8769C52.7311 57.7393 52.8727 57.6376 53.035 57.5866C53.7954 57.3622 54.4514 56.875 54.8859 56.2118C55.3204 55.5486 55.5052 54.7526 55.4073 53.9658C55.3094 53.179 54.9352 52.4526 54.3514 51.9161C53.7676 51.3797 53.0122 51.068 52.22 51.0368H52.2199ZM52.8142 56.8373C52.4905 56.9364 52.2072 57.1371 52.0062 57.4096C51.8052 57.6821 51.6971 58.0119 51.698 58.3505V66.9221H46.8166V58.3505C46.8174 58.012 46.7094 57.6821 46.5084 57.4096C46.3074 57.1371 46.0241 56.9365 45.7004 56.8373C45.312 56.7227 44.9562 56.5178 44.6623 56.2392C44.3684 55.9607 44.1447 55.6164 44.0094 55.2347C43.8742 54.853 43.8313 54.4447 43.8843 54.0433C43.9373 53.6418 44.0847 53.2586 44.3144 52.9251C44.544 52.5916 44.8494 52.3172 45.2056 52.1245C45.5617 51.9317 45.9585 51.8261 46.3633 51.8163C46.7681 51.8065 47.1695 51.8927 47.5346 52.0679C47.8997 52.2432 48.218 52.5024 48.4636 52.8244C48.5564 52.9469 48.6764 53.0462 48.8141 53.1144C48.9518 53.1826 49.1036 53.2178 49.2573 53.2173C49.411 53.2178 49.5627 53.1826 49.7005 53.1144C49.8382 53.0462 49.9582 52.9469 50.051 52.8244C50.2966 52.5025 50.615 52.2434 50.98 52.0683C51.345 51.8932 51.7463 51.8071 52.1511 51.817C52.5558 51.8268 52.9524 51.9325 53.3085 52.1252C53.6645 52.3179 53.9699 52.5922 54.1995 52.9256C54.4291 53.2591 54.5764 53.6422 54.6294 54.0436C54.6824 54.4449 54.6396 54.8532 54.5045 55.2348C54.3693 55.6164 54.1457 55.9606 53.8519 56.2391C53.558 56.5177 53.2024 56.7226 52.8141 56.8373H52.8142ZM42.5195 44.5034C42.4683 44.5034 42.4175 44.4933 42.3702 44.4736L38.0599 42.6884C37.9642 42.6488 37.8881 42.5727 37.8485 42.477C37.8089 42.3813 37.8089 42.2737 37.8485 42.178C37.8882 42.0822 37.9642 42.0062 38.06 41.9665C38.1557 41.9269 38.2633 41.9269 38.359 41.9666L42.6693 43.7518C42.7529 43.7863 42.8219 43.8488 42.8646 43.9286C42.9072 44.0083 42.9209 44.1004 42.9032 44.1891C42.8856 44.2778 42.8377 44.3576 42.7677 44.415C42.6977 44.4723 42.6101 44.5036 42.5196 44.5034H42.5195ZM48.1628 58.1351V65.8342C48.1628 65.9378 48.1217 66.0372 48.0484 66.1104C47.9751 66.1837 47.8758 66.2248 47.7722 66.2248C47.6686 66.2248 47.5692 66.1837 47.496 66.1104C47.4227 66.0372 47.3816 65.9378 47.3816 65.8342V58.1351C47.3816 58.0315 47.4227 57.9321 47.496 57.8589C47.5692 57.7856 47.6686 57.7445 47.7722 57.7445C47.8758 57.7445 47.9751 57.7856 48.0484 57.8589C48.1217 57.9321 48.1628 58.0315 48.1628 58.1351ZM44.5769 50.203C44.9443 50.3392 45.333 50.4088 45.7248 50.4087C46.3135 50.4108 46.8923 50.2574 47.4026 49.964C47.9129 49.6707 48.3368 49.2477 48.6312 48.738C48.9256 48.2283 49.0802 47.6498 49.0794 47.0612C49.0785 46.4725 48.9222 45.8946 48.6263 45.3857C48.6094 45.3568 48.5995 45.3244 48.5972 45.291C48.5949 45.2576 48.6004 45.2242 48.6132 45.1933C48.626 45.1624 48.6458 45.1348 48.671 45.1128C48.6962 45.0908 48.7261 45.0749 48.7584 45.0664C49.2691 44.931 49.7404 44.6766 50.1338 44.324C50.5271 43.9714 50.8313 43.5305 51.0215 43.0377C51.2117 42.5448 51.2824 42.0139 51.2278 41.4884C51.1733 40.963 50.995 40.4579 50.7076 40.0147C50.4202 39.5714 50.0319 39.2025 49.5745 38.9382C49.1171 38.6739 48.6035 38.5218 48.076 38.4942C47.5484 38.4666 47.0218 38.5644 46.5394 38.7796C46.0569 38.9948 45.6322 39.3212 45.3002 39.7321C45.1911 39.8626 45.0429 39.9545 44.8776 39.9943C44.7122 40.0341 44.5384 40.0197 44.3819 39.9532L36.7427 36.7891C36.6833 36.7645 36.6188 36.755 36.5549 36.7613C36.4909 36.7676 36.4295 36.7895 36.3761 36.8252C36.3227 36.8609 36.2789 36.9092 36.2486 36.9659C36.2183 37.0226 36.2025 37.0858 36.2025 37.1501V43.2792C36.2025 43.3565 36.2254 43.432 36.2683 43.4963C36.3113 43.5605 36.3723 43.6106 36.4437 43.6402L41.9159 45.9068C42.0736 45.9705 42.2067 46.0832 42.2954 46.2283C42.3842 46.3733 42.424 46.5431 42.409 46.7125C42.3301 47.4526 42.5005 48.1978 42.8932 48.8301C43.2859 49.4624 43.8783 49.9455 44.5766 50.203H44.5769ZM42.2147 45.1847L36.9835 43.018V37.7345L44.0827 40.675C44.3951 40.8054 44.7413 40.8319 45.07 40.7504C45.3987 40.669 45.6924 40.484 45.9079 40.2228C46.1624 39.9078 46.4878 39.6576 46.8577 39.4926C47.2275 39.3277 47.6311 39.2527 48.0355 39.2738C48.4399 39.2949 48.8336 39.4116 49.1842 39.6142C49.5348 39.8168 49.8324 40.0996 50.0527 40.4394C50.273 40.7792 50.4096 41.1664 50.4513 41.5692C50.4931 41.9719 50.4388 42.3789 50.293 42.7567C50.1471 43.1344 49.9139 43.4723 49.6123 43.7425C49.3107 44.0127 48.9493 44.2077 48.5579 44.3113C48.4094 44.3507 48.272 44.4237 48.1564 44.5248C48.0407 44.626 47.95 44.7524 47.8912 44.8943C47.8324 45.0362 47.8071 45.1898 47.8174 45.3431C47.8277 45.4963 47.8731 45.6452 47.9503 45.778C48.1537 46.128 48.2713 46.5213 48.2934 46.9256C48.3155 47.3298 48.2415 47.7336 48.0775 48.1037C47.9135 48.4739 47.6641 48.7999 47.3498 49.0551C47.0355 49.3103 46.6652 49.4875 46.2693 49.572C45.8734 49.6565 45.463 49.646 45.0719 49.5414C44.6808 49.4368 44.32 49.241 44.0192 48.9701C43.7183 48.6992 43.4859 48.3608 43.341 47.9828C43.1961 47.6048 43.1428 47.1978 43.1855 46.7952C43.2178 46.4581 43.1409 46.1196 42.9661 45.8296C42.7912 45.5396 42.5278 45.3135 42.2147 45.1847ZM61.7116 37.9223C61.7116 38.0259 61.6704 38.1253 61.5972 38.1986C61.5239 38.2718 61.4245 38.313 61.3209 38.313H52.8073C52.7037 38.313 52.6043 38.2718 52.5311 38.1986C52.4578 38.1253 52.4166 38.0259 52.4166 37.9223C52.4166 37.8187 52.4578 37.7194 52.5311 37.6461C52.6043 37.5729 52.7037 37.5317 52.8073 37.5317H61.3209C61.3722 37.5317 61.423 37.5418 61.4704 37.5615C61.5178 37.5811 61.5609 37.6099 61.5972 37.6462C61.6335 37.6824 61.6622 37.7255 61.6819 37.7729C61.7015 37.8203 61.7116 37.871 61.7116 37.9223ZM61.7116 40.6218C61.7116 40.7254 61.6704 40.8248 61.5972 40.898C61.5239 40.9713 61.4245 41.0124 61.3209 41.0124H52.8073C52.7037 41.0124 52.6043 40.9713 52.5311 40.898C52.4578 40.8248 52.4166 40.7254 52.4166 40.6218C52.4166 40.5182 52.4578 40.4188 52.5311 40.3456C52.6043 40.2723 52.7037 40.2312 52.8073 40.2312H61.3209C61.3723 40.2312 61.4231 40.2413 61.4705 40.2609C61.5179 40.2806 61.561 40.3094 61.5973 40.3457C61.6336 40.382 61.6623 40.4251 61.6819 40.4726C61.7015 40.52 61.7116 40.5709 61.7116 40.6222V40.6218ZM61.7116 43.3213C61.7116 43.4249 61.6704 43.5242 61.5972 43.5975C61.5239 43.6707 61.4245 43.7119 61.3209 43.7119H52.8073C52.7037 43.7119 52.6043 43.6707 52.5311 43.5975C52.4578 43.5242 52.4166 43.4249 52.4166 43.3213C52.4166 43.2177 52.4578 43.1183 52.5311 43.045C52.6043 42.9718 52.7037 42.9306 52.8073 42.9306H61.3209C61.3722 42.9306 61.423 42.9407 61.4704 42.9604C61.5178 42.98 61.5609 43.0088 61.5972 43.0451C61.6335 43.0813 61.6622 43.1244 61.6819 43.1718C61.7015 43.2192 61.7116 43.2699 61.7116 43.3213ZM61.7116 46.0207C61.7116 46.1243 61.6704 46.2237 61.5972 46.2969C61.5239 46.3702 61.4245 46.4113 61.3209 46.4113H52.8073C52.7037 46.4113 52.6043 46.3702 52.5311 46.2969C52.4578 46.2237 52.4166 46.1243 52.4166 46.0207C52.4166 45.9171 52.4578 45.8177 52.5311 45.7445C52.6043 45.6712 52.7037 45.6301 52.8073 45.6301H61.3209C61.4245 45.6301 61.5239 45.6712 61.5971 45.7445C61.6704 45.8177 61.7115 45.917 61.7116 46.0206V46.0207Z"/>
</mask>
<path d="M61.8072 31.3666H54.6884V30.1133C54.6884 30.0097 54.6472 29.9103 54.5739 29.8371C54.5007 29.7638 54.4013 29.7227 54.2977 29.7227H44.5565C44.4529 29.7227 44.3535 29.7638 44.2803 29.8371C44.207 29.9103 44.1659 30.0097 44.1659 30.1133V31.3666H37.047C36.3661 31.3673 35.7133 31.6381 35.2318 32.1195C34.7503 32.601 34.4794 33.2538 34.4785 33.9347V66.5627C34.4793 67.2436 34.7501 67.8965 35.2317 68.378C35.7132 68.8595 36.3661 69.1303 37.047 69.1311H61.8072C62.4882 69.1303 63.141 68.8595 63.6226 68.378C64.1041 67.8965 64.3749 67.2436 64.3757 66.5627V33.9347C64.3749 33.2538 64.104 32.601 63.6224 32.1195C63.1409 31.6381 62.4881 31.3673 61.8072 31.3666ZM44.9471 30.5039H53.9071V33.0105H44.9471V30.5039ZM63.5945 66.5627C63.594 67.0365 63.4055 67.4908 63.0704 67.8259C62.7354 68.1609 62.281 68.3494 61.8072 68.3498H37.047C36.5732 68.3494 36.1189 68.1609 35.7838 67.8259C35.4487 67.4908 35.2603 67.0365 35.2598 66.5627V33.9347C35.2603 33.4609 35.4488 33.0067 35.7839 32.6717C36.119 32.3367 36.5732 32.1483 37.047 32.1478H44.1659V33.4011C44.1659 33.5047 44.207 33.6041 44.2803 33.6773C44.3535 33.7506 44.4529 33.7917 44.5565 33.7917H54.2977C54.4013 33.7917 54.5007 33.7506 54.5739 33.6773C54.6472 33.6041 54.6884 33.5047 54.6884 33.4011V32.1478H61.8072C62.281 32.1483 62.7352 32.3367 63.0703 32.6717C63.4054 33.0067 63.5939 33.4609 63.5945 33.9347V66.5627ZM52.2199 51.0368C51.6837 51.0164 51.1505 51.1251 50.665 51.3537C50.1795 51.5822 49.7561 51.924 49.4302 52.3503C49.4101 52.3772 49.384 52.399 49.354 52.4139C49.324 52.4289 49.2909 52.4365 49.2573 52.4362C49.2238 52.4365 49.1907 52.4288 49.1607 52.4139C49.1307 52.399 49.1046 52.3772 49.0846 52.3503C48.7641 51.9303 48.3487 51.5923 47.8724 51.3638C47.3961 51.1353 46.8724 51.023 46.3443 51.0359C45.8161 51.0488 45.2986 51.1867 44.834 51.4382C44.3694 51.6897 43.9711 52.0476 43.6715 52.4828C43.3719 52.9179 43.1797 53.4178 43.1106 53.9416C43.0415 54.4653 43.0974 54.998 43.2738 55.4959C43.4503 55.9939 43.7422 56.4429 44.1256 56.8063C44.509 57.1698 44.9731 57.4372 45.4798 57.5866C45.642 57.6376 45.7836 57.7393 45.8837 57.8769C45.9838 58.0144 46.037 58.1805 46.0355 58.3505V67.3127C46.0355 67.4163 46.0766 67.5157 46.1499 67.5889C46.2231 67.6622 46.3225 67.7034 46.4261 67.7034H52.0887C52.1923 67.7034 52.2916 67.6622 52.3649 67.5889C52.4381 67.5157 52.4793 67.4163 52.4793 67.3127V58.3505C52.4778 58.1805 52.531 58.0144 52.6311 57.8769C52.7311 57.7393 52.8727 57.6376 53.035 57.5866C53.7954 57.3622 54.4514 56.875 54.8859 56.2118C55.3204 55.5486 55.5052 54.7526 55.4073 53.9658C55.3094 53.179 54.9352 52.4526 54.3514 51.9161C53.7676 51.3797 53.0122 51.068 52.22 51.0368H52.2199ZM52.8142 56.8373C52.4905 56.9364 52.2072 57.1371 52.0062 57.4096C51.8052 57.6821 51.6971 58.0119 51.698 58.3505V66.9221H46.8166V58.3505C46.8174 58.012 46.7094 57.6821 46.5084 57.4096C46.3074 57.1371 46.0241 56.9365 45.7004 56.8373C45.312 56.7227 44.9562 56.5178 44.6623 56.2392C44.3684 55.9607 44.1447 55.6164 44.0094 55.2347C43.8742 54.853 43.8313 54.4447 43.8843 54.0433C43.9373 53.6418 44.0847 53.2586 44.3144 52.9251C44.544 52.5916 44.8494 52.3172 45.2056 52.1245C45.5617 51.9317 45.9585 51.8261 46.3633 51.8163C46.7681 51.8065 47.1695 51.8927 47.5346 52.0679C47.8997 52.2432 48.218 52.5024 48.4636 52.8244C48.5564 52.9469 48.6764 53.0462 48.8141 53.1144C48.9518 53.1826 49.1036 53.2178 49.2573 53.2173C49.411 53.2178 49.5627 53.1826 49.7005 53.1144C49.8382 53.0462 49.9582 52.9469 50.051 52.8244C50.2966 52.5025 50.615 52.2434 50.98 52.0683C51.345 51.8932 51.7463 51.8071 52.1511 51.817C52.5558 51.8268 52.9524 51.9325 53.3085 52.1252C53.6645 52.3179 53.9699 52.5922 54.1995 52.9256C54.4291 53.2591 54.5764 53.6422 54.6294 54.0436C54.6824 54.4449 54.6396 54.8532 54.5045 55.2348C54.3693 55.6164 54.1457 55.9606 53.8519 56.2391C53.558 56.5177 53.2024 56.7226 52.8141 56.8373H52.8142ZM42.5195 44.5034C42.4683 44.5034 42.4175 44.4933 42.3702 44.4736L38.0599 42.6884C37.9642 42.6488 37.8881 42.5727 37.8485 42.477C37.8089 42.3813 37.8089 42.2737 37.8485 42.178C37.8882 42.0822 37.9642 42.0062 38.06 41.9665C38.1557 41.9269 38.2633 41.9269 38.359 41.9666L42.6693 43.7518C42.7529 43.7863 42.8219 43.8488 42.8646 43.9286C42.9072 44.0083 42.9209 44.1004 42.9032 44.1891C42.8856 44.2778 42.8377 44.3576 42.7677 44.415C42.6977 44.4723 42.6101 44.5036 42.5196 44.5034H42.5195ZM48.1628 58.1351V65.8342C48.1628 65.9378 48.1217 66.0372 48.0484 66.1104C47.9751 66.1837 47.8758 66.2248 47.7722 66.2248C47.6686 66.2248 47.5692 66.1837 47.496 66.1104C47.4227 66.0372 47.3816 65.9378 47.3816 65.8342V58.1351C47.3816 58.0315 47.4227 57.9321 47.496 57.8589C47.5692 57.7856 47.6686 57.7445 47.7722 57.7445C47.8758 57.7445 47.9751 57.7856 48.0484 57.8589C48.1217 57.9321 48.1628 58.0315 48.1628 58.1351ZM44.5769 50.203C44.9443 50.3392 45.333 50.4088 45.7248 50.4087C46.3135 50.4108 46.8923 50.2574 47.4026 49.964C47.9129 49.6707 48.3368 49.2477 48.6312 48.738C48.9256 48.2283 49.0802 47.6498 49.0794 47.0612C49.0785 46.4725 48.9222 45.8946 48.6263 45.3857C48.6094 45.3568 48.5995 45.3244 48.5972 45.291C48.5949 45.2576 48.6004 45.2242 48.6132 45.1933C48.626 45.1624 48.6458 45.1348 48.671 45.1128C48.6962 45.0908 48.7261 45.0749 48.7584 45.0664C49.2691 44.931 49.7404 44.6766 50.1338 44.324C50.5271 43.9714 50.8313 43.5305 51.0215 43.0377C51.2117 42.5448 51.2824 42.0139 51.2278 41.4884C51.1733 40.963 50.995 40.4579 50.7076 40.0147C50.4202 39.5714 50.0319 39.2025 49.5745 38.9382C49.1171 38.6739 48.6035 38.5218 48.076 38.4942C47.5484 38.4666 47.0218 38.5644 46.5394 38.7796C46.0569 38.9948 45.6322 39.3212 45.3002 39.7321C45.1911 39.8626 45.0429 39.9545 44.8776 39.9943C44.7122 40.0341 44.5384 40.0197 44.3819 39.9532L36.7427 36.7891C36.6833 36.7645 36.6188 36.755 36.5549 36.7613C36.4909 36.7676 36.4295 36.7895 36.3761 36.8252C36.3227 36.8609 36.2789 36.9092 36.2486 36.9659C36.2183 37.0226 36.2025 37.0858 36.2025 37.1501V43.2792C36.2025 43.3565 36.2254 43.432 36.2683 43.4963C36.3113 43.5605 36.3723 43.6106 36.4437 43.6402L41.9159 45.9068C42.0736 45.9705 42.2067 46.0832 42.2954 46.2283C42.3842 46.3733 42.424 46.5431 42.409 46.7125C42.3301 47.4526 42.5005 48.1978 42.8932 48.8301C43.2859 49.4624 43.8783 49.9455 44.5766 50.203H44.5769ZM42.2147 45.1847L36.9835 43.018V37.7345L44.0827 40.675C44.3951 40.8054 44.7413 40.8319 45.07 40.7504C45.3987 40.669 45.6924 40.484 45.9079 40.2228C46.1624 39.9078 46.4878 39.6576 46.8577 39.4926C47.2275 39.3277 47.6311 39.2527 48.0355 39.2738C48.4399 39.2949 48.8336 39.4116 49.1842 39.6142C49.5348 39.8168 49.8324 40.0996 50.0527 40.4394C50.273 40.7792 50.4096 41.1664 50.4513 41.5692C50.4931 41.9719 50.4388 42.3789 50.293 42.7567C50.1471 43.1344 49.9139 43.4723 49.6123 43.7425C49.3107 44.0127 48.9493 44.2077 48.5579 44.3113C48.4094 44.3507 48.272 44.4237 48.1564 44.5248C48.0407 44.626 47.95 44.7524 47.8912 44.8943C47.8324 45.0362 47.8071 45.1898 47.8174 45.3431C47.8277 45.4963 47.8731 45.6452 47.9503 45.778C48.1537 46.128 48.2713 46.5213 48.2934 46.9256C48.3155 47.3298 48.2415 47.7336 48.0775 48.1037C47.9135 48.4739 47.6641 48.7999 47.3498 49.0551C47.0355 49.3103 46.6652 49.4875 46.2693 49.572C45.8734 49.6565 45.463 49.646 45.0719 49.5414C44.6808 49.4368 44.32 49.241 44.0192 48.9701C43.7183 48.6992 43.4859 48.3608 43.341 47.9828C43.1961 47.6048 43.1428 47.1978 43.1855 46.7952C43.2178 46.4581 43.1409 46.1196 42.9661 45.8296C42.7912 45.5396 42.5278 45.3135 42.2147 45.1847ZM61.7116 37.9223C61.7116 38.0259 61.6704 38.1253 61.5972 38.1986C61.5239 38.2718 61.4245 38.313 61.3209 38.313H52.8073C52.7037 38.313 52.6043 38.2718 52.5311 38.1986C52.4578 38.1253 52.4166 38.0259 52.4166 37.9223C52.4166 37.8187 52.4578 37.7194 52.5311 37.6461C52.6043 37.5729 52.7037 37.5317 52.8073 37.5317H61.3209C61.3722 37.5317 61.423 37.5418 61.4704 37.5615C61.5178 37.5811 61.5609 37.6099 61.5972 37.6462C61.6335 37.6824 61.6622 37.7255 61.6819 37.7729C61.7015 37.8203 61.7116 37.871 61.7116 37.9223ZM61.7116 40.6218C61.7116 40.7254 61.6704 40.8248 61.5972 40.898C61.5239 40.9713 61.4245 41.0124 61.3209 41.0124H52.8073C52.7037 41.0124 52.6043 40.9713 52.5311 40.898C52.4578 40.8248 52.4166 40.7254 52.4166 40.6218C52.4166 40.5182 52.4578 40.4188 52.5311 40.3456C52.6043 40.2723 52.7037 40.2312 52.8073 40.2312H61.3209C61.3723 40.2312 61.4231 40.2413 61.4705 40.2609C61.5179 40.2806 61.561 40.3094 61.5973 40.3457C61.6336 40.382 61.6623 40.4251 61.6819 40.4726C61.7015 40.52 61.7116 40.5709 61.7116 40.6222V40.6218ZM61.7116 43.3213C61.7116 43.4249 61.6704 43.5242 61.5972 43.5975C61.5239 43.6707 61.4245 43.7119 61.3209 43.7119H52.8073C52.7037 43.7119 52.6043 43.6707 52.5311 43.5975C52.4578 43.5242 52.4166 43.4249 52.4166 43.3213C52.4166 43.2177 52.4578 43.1183 52.5311 43.045C52.6043 42.9718 52.7037 42.9306 52.8073 42.9306H61.3209C61.3722 42.9306 61.423 42.9407 61.4704 42.9604C61.5178 42.98 61.5609 43.0088 61.5972 43.0451C61.6335 43.0813 61.6622 43.1244 61.6819 43.1718C61.7015 43.2192 61.7116 43.2699 61.7116 43.3213ZM61.7116 46.0207C61.7116 46.1243 61.6704 46.2237 61.5972 46.2969C61.5239 46.3702 61.4245 46.4113 61.3209 46.4113H52.8073C52.7037 46.4113 52.6043 46.3702 52.5311 46.2969C52.4578 46.2237 52.4166 46.1243 52.4166 46.0207C52.4166 45.9171 52.4578 45.8177 52.5311 45.7445C52.6043 45.6712 52.7037 45.6301 52.8073 45.6301H61.3209C61.4245 45.6301 61.5239 45.6712 61.5971 45.7445C61.6704 45.8177 61.7115 45.917 61.7116 46.0206V46.0207Z" fill="white" stroke="white" stroke-width="150" mask="url(#path-3-inside-1_659_340)"/>
</g>
</g>
<defs>
<clipPath id="clip0_659_340">
<rect width="80" height="80" fill="white" transform="translate(10 10)"/>
</clipPath>
<clipPath id="clip1_659_340">
<rect width="40" height="40" fill="white" transform="translate(29.4277 29.4277)"/>
</clipPath>
</defs>
</svg>
