<svg width="100" height="100" viewBox="0 0 100 100" fill="none" xmlns="http://www.w3.org/2000/svg">
<path d="M91.435 17.607C85.7514 11.8387 78.1637 8.6457 70.0695 8.61543C70.0311 8.61523 69.9932 8.61523 69.9545 8.61523C62.5279 8.61523 55.514 11.2813 50 16.1652C44.4855 11.2811 37.4726 8.61523 30.0454 8.61523C30.0073 8.61523 29.9687 8.61523 29.9304 8.61543C21.8358 8.64551 14.2481 11.8387 8.56492 17.607C-3.01382 29.3586 -2.82944 48.5241 8.97624 60.3298L33.0044 84.358C37.6902 89.0435 43.8453 91.3865 50.0004 91.3865C56.1554 91.3865 62.3103 89.0435 66.9963 84.358L91.0245 60.3298C102.829 48.5241 103.014 29.3588 91.435 17.607ZM88.3041 57.6104L64.2762 81.6382C60.4627 85.4517 55.3927 87.5517 49.9998 87.5517C44.6068 87.5517 39.5369 85.4515 35.7234 81.6382L11.6952 57.6104C1.37799 47.2932 1.2024 30.5584 11.304 20.3063C16.2628 15.2735 22.8827 12.4873 29.9445 12.4613C29.978 12.4611 30.0112 12.4611 30.0446 12.4611C37.0695 12.4611 43.6701 15.1949 48.64 20.1647C49.0007 20.5252 49.4896 20.728 49.9996 20.728C50.5095 20.728 50.9984 20.5252 51.3591 20.1647C56.3293 15.1943 62.9293 12.4611 69.9545 12.4611C69.9877 12.4611 70.0217 12.4611 70.0547 12.4613C77.1166 12.4875 83.7364 15.2735 88.6952 20.3063C98.7971 30.5584 98.6215 47.2932 88.3041 57.6104Z" fill="white"/>
<g clip-path="url(#clip0_677_1001)">
<mask id="path-2-inside-1_677_1001" fill="white">
<path d="M64.7604 26.7092H55.8619V25.1426C55.8619 25.0131 55.8105 24.8889 55.7189 24.7973C55.6273 24.7057 55.5031 24.6543 55.3736 24.6543H43.1971C43.0676 24.6543 42.9434 24.7057 42.8518 24.7973C42.7602 24.8889 42.7088 25.0131 42.7088 25.1426V26.7092H33.8103C32.9591 26.7101 32.1431 27.0486 31.5412 27.6504C30.9393 28.2522 30.6007 29.0682 30.5996 29.9193V70.7043C30.6006 71.5555 30.9391 72.3716 31.541 72.9735C32.143 73.5754 32.959 73.9139 33.8103 73.9148H64.7604C65.6117 73.9139 66.4277 73.5754 67.0297 72.9735C67.6316 72.3716 67.9701 71.5555 67.9711 70.7043V29.9193C67.97 29.0682 67.6314 28.2522 67.0295 27.6504C66.4276 27.0486 65.6116 26.7101 64.7604 26.7092ZM43.6854 25.6309H54.8854V28.7641H43.6854V25.6309ZM66.9945 70.7043C66.9939 71.2966 66.7583 71.8645 66.3395 72.2833C65.9207 72.7021 65.3528 72.9377 64.7604 72.9383H33.8103C33.2179 72.9377 32.6501 72.7021 32.2312 72.2833C31.8124 71.8645 31.5768 71.2966 31.5762 70.7043V29.9193C31.5769 29.3271 31.8125 28.7593 32.2313 28.3406C32.6502 27.9218 33.218 27.6863 33.8103 27.6857H42.7088V29.2523C42.7088 29.3818 42.7602 29.506 42.8518 29.5976C42.9434 29.6892 43.0676 29.7406 43.1971 29.7406H55.3736C55.5031 29.7406 55.6273 29.6892 55.7189 29.5976C55.8105 29.506 55.8619 29.3818 55.8619 29.2523V27.6857H64.7604C65.3527 27.6863 65.9205 27.9218 66.3394 28.3406C66.7582 28.7593 66.9938 29.3271 66.9945 29.9193V70.7043ZM52.7764 51.297C52.1061 51.2715 51.4396 51.4074 50.8327 51.6931C50.2259 51.9788 49.6965 52.406 49.2892 52.9389C49.2641 52.9725 49.2315 52.9997 49.194 53.0184C49.1565 53.037 49.1151 53.0466 49.0731 53.0463C49.0312 53.0466 48.9899 53.037 48.9524 53.0184C48.9148 52.9997 48.8823 52.9725 48.8572 52.9389C48.4566 52.4139 47.9373 51.9913 47.3419 51.7057C46.7465 51.4202 46.092 51.2797 45.4318 51.2958C44.7716 51.312 44.1247 51.4843 43.544 51.7987C42.9633 52.113 42.4653 52.5605 42.0908 53.1044C41.7164 53.6484 41.4761 54.2733 41.3897 54.9279C41.3033 55.5826 41.3732 56.2484 41.5938 56.8709C41.8143 57.4933 42.1792 58.0547 42.6584 58.5089C43.1377 58.9632 43.7178 59.2974 44.3512 59.4843C44.554 59.548 44.731 59.6751 44.8561 59.8471C44.9812 60.019 45.0477 60.2266 45.0458 60.4392V71.6419C45.0458 71.7714 45.0972 71.8956 45.1888 71.9872C45.2804 72.0787 45.4046 72.1302 45.5341 72.1302H52.6123C52.7418 72.1302 52.866 72.0787 52.9576 71.9872C53.0491 71.8956 53.1006 71.7714 53.1006 71.6419V60.4392C53.0987 60.2266 53.1652 60.019 53.2903 59.8471C53.4154 59.6751 53.5924 59.548 53.7952 59.4843C54.7458 59.2038 55.5657 58.5947 56.1089 57.7657C56.652 56.9367 56.883 55.9417 56.7606 54.9583C56.6382 53.9748 56.1705 53.0667 55.4407 52.3962C54.711 51.7256 53.7668 51.336 52.7765 51.297H52.7764ZM53.5192 58.5476C53.1146 58.6715 52.7605 58.9223 52.5092 59.2629C52.258 59.6035 52.1229 60.0159 52.1239 60.4392V71.1536H46.0223V60.4392C46.0233 60.0159 45.8882 59.6036 45.6369 59.263C45.3857 58.9224 45.0316 58.6716 44.627 58.5476C44.1414 58.4044 43.6968 58.1482 43.3294 57.8C42.962 57.4518 42.6823 57.0215 42.5132 56.5444C42.3442 56.0673 42.2906 55.5569 42.3569 55.055C42.4231 54.5532 42.6073 54.0742 42.8944 53.6573C43.1815 53.2404 43.5633 52.8975 44.0084 52.6566C44.4536 52.4156 44.9495 52.2836 45.4556 52.2714C45.9616 52.2591 46.4634 52.3669 46.9197 52.5859C47.376 52.8049 47.774 53.129 48.081 53.5314C48.1969 53.6846 48.3469 53.8087 48.5191 53.894C48.6913 53.9792 48.8809 54.0232 49.073 54.0226C49.2652 54.0232 49.4548 53.9792 49.627 53.894C49.7992 53.8087 49.9492 53.6846 50.0652 53.5314C50.3722 53.1291 50.7702 52.8053 51.2265 52.5864C51.6827 52.3675 52.1844 52.2598 52.6903 52.2722C53.1962 52.2845 53.692 52.4165 54.1371 52.6574C54.5821 52.8983 54.9638 53.2412 55.2508 53.658C55.5378 54.0748 55.722 54.5537 55.7883 55.0554C55.8545 55.5571 55.801 56.0674 55.632 56.5445C55.4631 57.0215 55.1835 57.4517 54.8163 57.7999C54.449 58.1481 54.0045 58.4043 53.5191 58.5476H53.5192ZM40.6509 43.1303C40.5868 43.1302 40.5233 43.1176 40.4642 43.093L35.0764 40.8615C34.9567 40.812 34.8616 40.7169 34.8121 40.5972C34.7625 40.4775 34.7625 40.3431 34.8121 40.2234C34.8617 40.1038 34.9568 40.0087 35.0764 39.9592C35.1961 39.9096 35.3305 39.9096 35.4502 39.9592L40.8381 42.1907C40.9426 42.2339 41.0288 42.312 41.0822 42.4117C41.1355 42.5114 41.1526 42.6265 41.1305 42.7374C41.1084 42.8482 41.0485 42.948 40.9611 43.0197C40.8736 43.0913 40.764 43.1304 40.651 43.1303H40.6509ZM47.705 60.1698V69.7938C47.705 69.9232 47.6535 70.0474 47.562 70.139C47.4704 70.2306 47.3462 70.282 47.2167 70.282C47.0872 70.282 46.963 70.2306 46.8714 70.139C46.7799 70.0474 46.7284 69.9232 46.7284 69.7938V60.1698C46.7284 60.0403 46.7799 59.9161 46.8714 59.8246C46.963 59.733 47.0872 59.6815 47.2167 59.6815C47.3462 59.6815 47.4704 59.733 47.562 59.8246C47.6535 59.9161 47.705 60.0403 47.705 60.1698ZM43.2226 50.2547C43.6818 50.4249 44.1677 50.512 44.6575 50.5118C45.3933 50.5144 46.1168 50.3227 46.7547 49.956C47.3926 49.5893 47.9224 49.0606 48.2904 48.4235C48.6585 47.7863 48.8517 47.0633 48.8507 46.3275C48.8496 45.5917 48.6542 44.8692 48.2843 44.2331C48.2632 44.197 48.2508 44.1565 48.248 44.1148C48.2451 44.073 48.252 44.0312 48.268 43.9926C48.284 43.954 48.3087 43.9195 48.3402 43.892C48.3717 43.8645 48.4091 43.8446 48.4495 43.834C49.0878 43.6648 49.677 43.3467 50.1687 42.906C50.6604 42.4652 51.0406 41.9142 51.2784 41.2981C51.5161 40.682 51.6044 40.0184 51.5362 39.3615C51.468 38.7047 51.2452 38.0734 50.886 37.5193C50.5267 36.9652 50.0414 36.5041 49.4696 36.1737C48.8978 35.8434 48.2559 35.6532 47.5964 35.6187C46.937 35.5843 46.2788 35.7065 45.6757 35.9755C45.0726 36.2444 44.5418 36.6525 44.1268 37.1661C43.9903 37.3292 43.8051 37.4441 43.5984 37.4938C43.3917 37.5436 43.1745 37.5256 42.9788 37.4425L33.4298 33.4874C33.3556 33.4567 33.275 33.4447 33.195 33.4526C33.1151 33.4604 33.0384 33.4879 32.9716 33.5325C32.9048 33.5771 32.8501 33.6375 32.8122 33.7084C32.7744 33.7792 32.7546 33.8583 32.7546 33.9386V41.6C32.7546 41.6966 32.7832 41.791 32.8369 41.8713C32.8905 41.9516 32.9668 42.0142 33.0561 42.0512L39.8964 44.8845C40.0935 44.9641 40.2598 45.105 40.3707 45.2863C40.4817 45.4677 40.5315 45.6798 40.5127 45.8916C40.4141 46.8167 40.6271 47.7483 41.118 48.5386C41.6088 49.329 42.3493 49.9329 43.2223 50.2547H43.2226ZM40.2698 43.9818L33.7309 41.2734V34.669L42.6048 38.3447C42.9954 38.5078 43.4281 38.5408 43.8389 38.439C44.2498 38.3372 44.617 38.106 44.8863 37.7795C45.2044 37.3857 45.6113 37.0729 46.0736 36.8667C46.5358 36.6606 47.0404 36.5668 47.5459 36.5932C48.0514 36.6196 48.5434 36.7655 48.9817 37.0187C49.42 37.272 49.792 37.6254 50.0673 38.0502C50.3427 38.475 50.5134 38.9589 50.5656 39.4624C50.6178 39.9659 50.55 40.4746 50.3677 40.9468C50.1854 41.419 49.8938 41.8413 49.5168 42.1791C49.1398 42.5169 48.6882 42.7606 48.1988 42.8901C48.0132 42.9393 47.8415 43.0306 47.6969 43.157C47.5524 43.2834 47.4389 43.4415 47.3654 43.6189C47.292 43.7963 47.2604 43.9882 47.2732 44.1798C47.286 44.3714 47.3429 44.5574 47.4394 44.7234C47.6936 45.161 47.8405 45.6526 47.8682 46.1579C47.8958 46.6633 47.8033 47.1679 47.5983 47.6306C47.3933 48.0933 47.0816 48.5009 46.6887 48.8199C46.2959 49.1389 45.833 49.3603 45.3381 49.466C44.8432 49.5716 44.3303 49.5585 43.8414 49.4277C43.3525 49.297 42.9015 49.0522 42.5255 48.7136C42.1494 48.3749 41.8589 47.952 41.6777 47.4795C41.4966 47.0069 41.43 46.4982 41.4834 45.9949C41.5237 45.5736 41.4275 45.1505 41.209 44.788C40.9905 44.4255 40.6612 44.1429 40.2698 43.9818ZM64.6409 34.9039C64.6409 35.0334 64.5895 35.1576 64.4979 35.2492C64.4063 35.3407 64.2821 35.3922 64.1526 35.3922H53.5105C53.381 35.3922 53.2569 35.3407 53.1653 35.2492C53.0737 35.1576 53.0223 35.0334 53.0223 34.9039C53.0223 34.7744 53.0737 34.6502 53.1653 34.5586C53.2569 34.4671 53.381 34.4156 53.5105 34.4156H64.1526C64.2168 34.4156 64.2803 34.4283 64.3395 34.4528C64.3988 34.4773 64.4526 34.5133 64.4979 34.5587C64.5433 34.604 64.5792 34.6579 64.6038 34.7171C64.6283 34.7764 64.6409 34.8398 64.6409 34.9039ZM64.6409 38.2782C64.6409 38.4077 64.5895 38.5319 64.4979 38.6235C64.4063 38.7151 64.2821 38.7665 64.1526 38.7665H53.5105C53.381 38.7665 53.2569 38.7151 53.1653 38.6235C53.0737 38.5319 53.0223 38.4077 53.0223 38.2782C53.0223 38.1487 53.0737 38.0245 53.1653 37.933C53.2569 37.8414 53.381 37.7899 53.5105 37.7899H64.1526C64.2168 37.7899 64.2803 37.8026 64.3396 37.8272C64.3989 37.8517 64.4527 37.8877 64.4981 37.9331C64.5434 37.9785 64.5794 38.0324 64.6039 38.0917C64.6284 38.151 64.641 38.2145 64.6409 38.2787V38.2782ZM64.6409 41.6525C64.6409 41.782 64.5895 41.9062 64.4979 41.9978C64.4063 42.0894 64.2821 42.1408 64.1526 42.1408H53.5105C53.381 42.1408 53.2569 42.0894 53.1653 41.9978C53.0737 41.9062 53.0223 41.782 53.0223 41.6525C53.0223 41.523 53.0737 41.3988 53.1653 41.3073C53.2569 41.2157 53.381 41.1643 53.5105 41.1643H64.1526C64.2168 41.1643 64.2803 41.1769 64.3395 41.2014C64.3988 41.226 64.4526 41.262 64.4979 41.3073C64.5433 41.3527 64.5792 41.4065 64.6038 41.4657C64.6283 41.525 64.6409 41.5884 64.6409 41.6525ZM64.6409 45.0269C64.6409 45.1564 64.5895 45.2806 64.4979 45.3721C64.4063 45.4637 64.2821 45.5151 64.1526 45.5151H53.5105C53.381 45.5151 53.2569 45.4637 53.1653 45.3721C53.0737 45.2806 53.0223 45.1564 53.0223 45.0269C53.0223 44.8974 53.0737 44.7732 53.1653 44.6816C53.2569 44.59 53.381 44.5386 53.5105 44.5386H64.1526C64.2821 44.5386 64.4063 44.59 64.4979 44.6816C64.5894 44.7731 64.6409 44.8973 64.6409 45.0268V45.0269Z"/>
</mask>
<path d="M64.7604 26.7092H55.8619V25.1426C55.8619 25.0131 55.8105 24.8889 55.7189 24.7973C55.6273 24.7057 55.5031 24.6543 55.3736 24.6543H43.1971C43.0676 24.6543 42.9434 24.7057 42.8518 24.7973C42.7602 24.8889 42.7088 25.0131 42.7088 25.1426V26.7092H33.8103C32.9591 26.7101 32.1431 27.0486 31.5412 27.6504C30.9393 28.2522 30.6007 29.0682 30.5996 29.9193V70.7043C30.6006 71.5555 30.9391 72.3716 31.541 72.9735C32.143 73.5754 32.959 73.9139 33.8103 73.9148H64.7604C65.6117 73.9139 66.4277 73.5754 67.0297 72.9735C67.6316 72.3716 67.9701 71.5555 67.9711 70.7043V29.9193C67.97 29.0682 67.6314 28.2522 67.0295 27.6504C66.4276 27.0486 65.6116 26.7101 64.7604 26.7092ZM43.6854 25.6309H54.8854V28.7641H43.6854V25.6309ZM66.9945 70.7043C66.9939 71.2966 66.7583 71.8645 66.3395 72.2833C65.9207 72.7021 65.3528 72.9377 64.7604 72.9383H33.8103C33.2179 72.9377 32.6501 72.7021 32.2312 72.2833C31.8124 71.8645 31.5768 71.2966 31.5762 70.7043V29.9193C31.5769 29.3271 31.8125 28.7593 32.2313 28.3406C32.6502 27.9218 33.218 27.6863 33.8103 27.6857H42.7088V29.2523C42.7088 29.3818 42.7602 29.506 42.8518 29.5976C42.9434 29.6892 43.0676 29.7406 43.1971 29.7406H55.3736C55.5031 29.7406 55.6273 29.6892 55.7189 29.5976C55.8105 29.506 55.8619 29.3818 55.8619 29.2523V27.6857H64.7604C65.3527 27.6863 65.9205 27.9218 66.3394 28.3406C66.7582 28.7593 66.9938 29.3271 66.9945 29.9193V70.7043ZM52.7764 51.297C52.1061 51.2715 51.4396 51.4074 50.8327 51.6931C50.2259 51.9788 49.6965 52.406 49.2892 52.9389C49.2641 52.9725 49.2315 52.9997 49.194 53.0184C49.1565 53.037 49.1151 53.0466 49.0731 53.0463C49.0312 53.0466 48.9899 53.037 48.9524 53.0184C48.9148 52.9997 48.8823 52.9725 48.8572 52.9389C48.4566 52.4139 47.9373 51.9913 47.3419 51.7057C46.7465 51.4202 46.092 51.2797 45.4318 51.2958C44.7716 51.312 44.1247 51.4843 43.544 51.7987C42.9633 52.113 42.4653 52.5605 42.0908 53.1044C41.7164 53.6484 41.4761 54.2733 41.3897 54.9279C41.3033 55.5826 41.3732 56.2484 41.5938 56.8709C41.8143 57.4933 42.1792 58.0547 42.6584 58.5089C43.1377 58.9632 43.7178 59.2974 44.3512 59.4843C44.554 59.548 44.731 59.6751 44.8561 59.8471C44.9812 60.019 45.0477 60.2266 45.0458 60.4392V71.6419C45.0458 71.7714 45.0972 71.8956 45.1888 71.9872C45.2804 72.0787 45.4046 72.1302 45.5341 72.1302H52.6123C52.7418 72.1302 52.866 72.0787 52.9576 71.9872C53.0491 71.8956 53.1006 71.7714 53.1006 71.6419V60.4392C53.0987 60.2266 53.1652 60.019 53.2903 59.8471C53.4154 59.6751 53.5924 59.548 53.7952 59.4843C54.7458 59.2038 55.5657 58.5947 56.1089 57.7657C56.652 56.9367 56.883 55.9417 56.7606 54.9583C56.6382 53.9748 56.1705 53.0667 55.4407 52.3962C54.711 51.7256 53.7668 51.336 52.7765 51.297H52.7764ZM53.5192 58.5476C53.1146 58.6715 52.7605 58.9223 52.5092 59.2629C52.258 59.6035 52.1229 60.0159 52.1239 60.4392V71.1536H46.0223V60.4392C46.0233 60.0159 45.8882 59.6036 45.6369 59.263C45.3857 58.9224 45.0316 58.6716 44.627 58.5476C44.1414 58.4044 43.6968 58.1482 43.3294 57.8C42.962 57.4518 42.6823 57.0215 42.5132 56.5444C42.3442 56.0673 42.2906 55.5569 42.3569 55.055C42.4231 54.5532 42.6073 54.0742 42.8944 53.6573C43.1815 53.2404 43.5633 52.8975 44.0084 52.6566C44.4536 52.4156 44.9495 52.2836 45.4556 52.2714C45.9616 52.2591 46.4634 52.3669 46.9197 52.5859C47.376 52.8049 47.774 53.129 48.081 53.5314C48.1969 53.6846 48.3469 53.8087 48.5191 53.894C48.6913 53.9792 48.8809 54.0232 49.073 54.0226C49.2652 54.0232 49.4548 53.9792 49.627 53.894C49.7992 53.8087 49.9492 53.6846 50.0652 53.5314C50.3722 53.1291 50.7702 52.8053 51.2265 52.5864C51.6827 52.3675 52.1844 52.2598 52.6903 52.2722C53.1962 52.2845 53.692 52.4165 54.1371 52.6574C54.5821 52.8983 54.9638 53.2412 55.2508 53.658C55.5378 54.0748 55.722 54.5537 55.7883 55.0554C55.8545 55.5571 55.801 56.0674 55.632 56.5445C55.4631 57.0215 55.1835 57.4517 54.8163 57.7999C54.449 58.1481 54.0045 58.4043 53.5191 58.5476H53.5192ZM40.6509 43.1303C40.5868 43.1302 40.5233 43.1176 40.4642 43.093L35.0764 40.8615C34.9567 40.812 34.8616 40.7169 34.8121 40.5972C34.7625 40.4775 34.7625 40.3431 34.8121 40.2234C34.8617 40.1038 34.9568 40.0087 35.0764 39.9592C35.1961 39.9096 35.3305 39.9096 35.4502 39.9592L40.8381 42.1907C40.9426 42.2339 41.0288 42.312 41.0822 42.4117C41.1355 42.5114 41.1526 42.6265 41.1305 42.7374C41.1084 42.8482 41.0485 42.948 40.9611 43.0197C40.8736 43.0913 40.764 43.1304 40.651 43.1303H40.6509ZM47.705 60.1698V69.7938C47.705 69.9232 47.6535 70.0474 47.562 70.139C47.4704 70.2306 47.3462 70.282 47.2167 70.282C47.0872 70.282 46.963 70.2306 46.8714 70.139C46.7799 70.0474 46.7284 69.9232 46.7284 69.7938V60.1698C46.7284 60.0403 46.7799 59.9161 46.8714 59.8246C46.963 59.733 47.0872 59.6815 47.2167 59.6815C47.3462 59.6815 47.4704 59.733 47.562 59.8246C47.6535 59.9161 47.705 60.0403 47.705 60.1698ZM43.2226 50.2547C43.6818 50.4249 44.1677 50.512 44.6575 50.5118C45.3933 50.5144 46.1168 50.3227 46.7547 49.956C47.3926 49.5893 47.9224 49.0606 48.2904 48.4235C48.6585 47.7863 48.8517 47.0633 48.8507 46.3275C48.8496 45.5917 48.6542 44.8692 48.2843 44.2331C48.2632 44.197 48.2508 44.1565 48.248 44.1148C48.2451 44.073 48.252 44.0312 48.268 43.9926C48.284 43.954 48.3087 43.9195 48.3402 43.892C48.3717 43.8645 48.4091 43.8446 48.4495 43.834C49.0878 43.6648 49.677 43.3467 50.1687 42.906C50.6604 42.4652 51.0406 41.9142 51.2784 41.2981C51.5161 40.682 51.6044 40.0184 51.5362 39.3615C51.468 38.7047 51.2452 38.0734 50.886 37.5193C50.5267 36.9652 50.0414 36.5041 49.4696 36.1737C48.8978 35.8434 48.2559 35.6532 47.5964 35.6187C46.937 35.5843 46.2788 35.7065 45.6757 35.9755C45.0726 36.2444 44.5418 36.6525 44.1268 37.1661C43.9903 37.3292 43.8051 37.4441 43.5984 37.4938C43.3917 37.5436 43.1745 37.5256 42.9788 37.4425L33.4298 33.4874C33.3556 33.4567 33.275 33.4447 33.195 33.4526C33.1151 33.4604 33.0384 33.4879 32.9716 33.5325C32.9048 33.5771 32.8501 33.6375 32.8122 33.7084C32.7744 33.7792 32.7546 33.8583 32.7546 33.9386V41.6C32.7546 41.6966 32.7832 41.791 32.8369 41.8713C32.8905 41.9516 32.9668 42.0142 33.0561 42.0512L39.8964 44.8845C40.0935 44.9641 40.2598 45.105 40.3707 45.2863C40.4817 45.4677 40.5315 45.6798 40.5127 45.8916C40.4141 46.8167 40.6271 47.7483 41.118 48.5386C41.6088 49.329 42.3493 49.9329 43.2223 50.2547H43.2226ZM40.2698 43.9818L33.7309 41.2734V34.669L42.6048 38.3447C42.9954 38.5078 43.4281 38.5408 43.8389 38.439C44.2498 38.3372 44.617 38.106 44.8863 37.7795C45.2044 37.3857 45.6113 37.0729 46.0736 36.8667C46.5358 36.6606 47.0404 36.5668 47.5459 36.5932C48.0514 36.6196 48.5434 36.7655 48.9817 37.0187C49.42 37.272 49.792 37.6254 50.0673 38.0502C50.3427 38.475 50.5134 38.9589 50.5656 39.4624C50.6178 39.9659 50.55 40.4746 50.3677 40.9468C50.1854 41.419 49.8938 41.8413 49.5168 42.1791C49.1398 42.5169 48.6882 42.7606 48.1988 42.8901C48.0132 42.9393 47.8415 43.0306 47.6969 43.157C47.5524 43.2834 47.4389 43.4415 47.3654 43.6189C47.292 43.7963 47.2604 43.9882 47.2732 44.1798C47.286 44.3714 47.3429 44.5574 47.4394 44.7234C47.6936 45.161 47.8405 45.6526 47.8682 46.1579C47.8958 46.6633 47.8033 47.1679 47.5983 47.6306C47.3933 48.0933 47.0816 48.5009 46.6887 48.8199C46.2959 49.1389 45.833 49.3603 45.3381 49.466C44.8432 49.5716 44.3303 49.5585 43.8414 49.4277C43.3525 49.297 42.9015 49.0522 42.5255 48.7136C42.1494 48.3749 41.8589 47.952 41.6777 47.4795C41.4966 47.0069 41.43 46.4982 41.4834 45.9949C41.5237 45.5736 41.4275 45.1505 41.209 44.788C40.9905 44.4255 40.6612 44.1429 40.2698 43.9818ZM64.6409 34.9039C64.6409 35.0334 64.5895 35.1576 64.4979 35.2492C64.4063 35.3407 64.2821 35.3922 64.1526 35.3922H53.5105C53.381 35.3922 53.2569 35.3407 53.1653 35.2492C53.0737 35.1576 53.0223 35.0334 53.0223 34.9039C53.0223 34.7744 53.0737 34.6502 53.1653 34.5586C53.2569 34.4671 53.381 34.4156 53.5105 34.4156H64.1526C64.2168 34.4156 64.2803 34.4283 64.3395 34.4528C64.3988 34.4773 64.4526 34.5133 64.4979 34.5587C64.5433 34.604 64.5792 34.6579 64.6038 34.7171C64.6283 34.7764 64.6409 34.8398 64.6409 34.9039ZM64.6409 38.2782C64.6409 38.4077 64.5895 38.5319 64.4979 38.6235C64.4063 38.7151 64.2821 38.7665 64.1526 38.7665H53.5105C53.381 38.7665 53.2569 38.7151 53.1653 38.6235C53.0737 38.5319 53.0223 38.4077 53.0223 38.2782C53.0223 38.1487 53.0737 38.0245 53.1653 37.933C53.2569 37.8414 53.381 37.7899 53.5105 37.7899H64.1526C64.2168 37.7899 64.2803 37.8026 64.3396 37.8272C64.3989 37.8517 64.4527 37.8877 64.4981 37.9331C64.5434 37.9785 64.5794 38.0324 64.6039 38.0917C64.6284 38.151 64.641 38.2145 64.6409 38.2787V38.2782ZM64.6409 41.6525C64.6409 41.782 64.5895 41.9062 64.4979 41.9978C64.4063 42.0894 64.2821 42.1408 64.1526 42.1408H53.5105C53.381 42.1408 53.2569 42.0894 53.1653 41.9978C53.0737 41.9062 53.0223 41.782 53.0223 41.6525C53.0223 41.523 53.0737 41.3988 53.1653 41.3073C53.2569 41.2157 53.381 41.1643 53.5105 41.1643H64.1526C64.2168 41.1643 64.2803 41.1769 64.3395 41.2014C64.3988 41.226 64.4526 41.262 64.4979 41.3073C64.5433 41.3527 64.5792 41.4065 64.6038 41.4657C64.6283 41.525 64.6409 41.5884 64.6409 41.6525ZM64.6409 45.0269C64.6409 45.1564 64.5895 45.2806 64.4979 45.3721C64.4063 45.4637 64.2821 45.5151 64.1526 45.5151H53.5105C53.381 45.5151 53.2569 45.4637 53.1653 45.3721C53.0737 45.2806 53.0223 45.1564 53.0223 45.0269C53.0223 44.8974 53.0737 44.7732 53.1653 44.6816C53.2569 44.59 53.381 44.5386 53.5105 44.5386H64.1526C64.2821 44.5386 64.4063 44.59 64.4979 44.6816C64.5894 44.7731 64.6409 44.8973 64.6409 45.0268V45.0269Z" fill="white" stroke="white" stroke-width="150" mask="url(#path-2-inside-1_677_1001)"/>
</g>
<defs>
<clipPath id="clip0_677_1001">
<rect width="50" height="50" fill="white" transform="translate(24.2852 24.2852)"/>
</clipPath>
</defs>
</svg>
