<svg width="100" height="100" viewBox="0 0 100 100" fill="none" xmlns="http://www.w3.org/2000/svg">
<path d="M91.435 17.607C85.7514 11.8387 78.1637 8.6457 70.0695 8.61543C70.0311 8.61523 69.9932 8.61523 69.9545 8.61523C62.5279 8.61523 55.514 11.2813 50 16.1652C44.4855 11.2811 37.4726 8.61523 30.0454 8.61523C30.0073 8.61523 29.9687 8.61523 29.9304 8.61543C21.8358 8.64551 14.2481 11.8387 8.56492 17.607C-3.01382 29.3586 -2.82944 48.5241 8.97624 60.3298L33.0044 84.358C37.6902 89.0435 43.8453 91.3865 50.0004 91.3865C56.1554 91.3865 62.3103 89.0435 66.9963 84.358L91.0245 60.3298C102.829 48.5241 103.014 29.3588 91.435 17.607ZM88.3041 57.6104L64.2762 81.6382C60.4627 85.4517 55.3927 87.5517 49.9998 87.5517C44.6068 87.5517 39.5369 85.4515 35.7234 81.6382L11.6952 57.6104C1.37799 47.2932 1.2024 30.5584 11.304 20.3063C16.2628 15.2735 22.8827 12.4873 29.9445 12.4613C29.978 12.4611 30.0112 12.4611 30.0446 12.4611C37.0695 12.4611 43.6701 15.1949 48.64 20.1647C49.0007 20.5252 49.4896 20.728 49.9996 20.728C50.5095 20.728 50.9984 20.5252 51.3591 20.1647C56.3293 15.1943 62.9293 12.4611 69.9545 12.4611C69.9877 12.4611 70.0217 12.4611 70.0547 12.4613C77.1166 12.4875 83.7364 15.2735 88.6952 20.3063C98.7971 30.5584 98.6215 47.2932 88.3041 57.6104Z" fill="white"/>
<g clip-path="url(#clip0_677_1096)">
<path d="M47.543 45.0879C51.8649 45.0921 56.0825 43.76 59.6178 41.2739V40.7995C56.9427 37.0954 55.0093 34.4185 52.0679 30.3457H51.4766C50.2954 31.0872 48.9291 31.4805 47.5345 31.4805C46.1399 31.4805 44.7736 31.0872 43.5924 30.3457H43.0011C40.0597 34.4185 38.1263 37.0954 35.4512 40.7995V41.2739C38.9865 43.76 43.2041 45.0921 47.526 45.0879H47.543Z" stroke="white" stroke-width="1.5"/>
<path d="M59.6172 27.3887H64.1484" stroke="white" stroke-width="1.5"/>
<path d="M59.6172 30.4102H64.1484" stroke="white" stroke-width="1.5"/>
<path d="M67.1693 49.0487V25.3654C67.1693 24.9007 66.9847 24.455 66.6561 24.1265C66.3275 23.7979 65.8819 23.6133 65.4172 23.6133H29.6505C29.1858 23.6133 28.7402 23.7979 28.4116 24.1265C28.083 24.455 27.8984 24.9007 27.8984 25.3654V49.0487C27.8984 49.5134 28.083 49.959 28.4116 50.2876C28.7402 50.6162 29.1858 50.8008 29.6505 50.8008H66.0365C66.5372 50.8008 67.0174 50.9997 67.3715 51.3538C67.7256 51.7078 67.9245 52.1881 67.9245 52.6888C67.9245 53.1895 67.7256 53.6698 67.3715 54.0238C67.0174 54.3779 66.5372 54.5768 66.0365 54.5768H27.8984V63.6393H44.513" stroke="white" stroke-width="1.5"/>
<path d="M31.6738 59.1074H33.1842" stroke="white" stroke-width="1.5"/>
<path d="M34.6953 59.1074H36.2057" stroke="white" stroke-width="1.5"/>
<path d="M45.9323 60.6191H52.844C54.2401 60.6191 55.5985 60.1663 56.7155 59.3286L58.0156 58.3535H62.5469C63.6487 59.8961 64.241 61.7443 64.241 63.64C64.241 65.5356 63.6486 67.3839 62.5468 68.9264H58.0156L56.7154 67.9513C55.5985 67.1136 54.2401 66.6608 52.844 66.6608H45.9323C45.5317 66.6608 45.1475 66.5016 44.8643 66.2184C44.581 65.9351 44.4219 65.5509 44.4219 65.1503V62.1295C44.4219 61.7289 44.581 61.3448 44.8643 61.0615C45.1475 60.7783 45.5317 60.6191 45.9323 60.6191Z" stroke="white" stroke-width="1.5"/>
<path d="M67.5742 66.4261C67.9249 66.0754 68.203 65.6592 68.3928 65.201C68.5825 64.7429 68.6802 64.2519 68.6802 63.756C68.6802 63.2601 68.5825 62.7691 68.3928 62.311C68.203 61.8528 67.9249 61.4366 67.5742 61.0859" stroke="white" stroke-width="1.5"/>
<path d="M69.7109 68.5615C70.3421 67.9303 70.8427 67.181 71.1843 66.3564C71.5259 65.5318 71.7017 64.6479 71.7017 63.7553C71.7017 62.8628 71.5259 61.9789 71.1843 61.1543C70.8427 60.3296 70.3421 59.5804 69.7109 58.9492" stroke="white" stroke-width="1.5"/>
<path d="M71.8457 70.6968C73.6869 68.8557 74.7212 66.3585 74.7212 63.7547C74.7212 61.1509 73.6869 58.6537 71.8457 56.8125" stroke="white" stroke-width="1.5"/>
<path d="M58.0156 58.3535V68.9264" stroke="white" stroke-width="1.5"/>
</g>
<defs>
<clipPath id="clip0_677_1096">
<rect width="48.3333" height="48.3333" fill="white" transform="translate(27.1426 22.8574)"/>
</clipPath>
</defs>
</svg>
