<svg width="100" height="100" viewBox="0 0 100 100" fill="none" xmlns="http://www.w3.org/2000/svg">
<rect width="100" height="100" fill="#259BF1"/>
<g clip-path="url(#clip0_659_346)">
<path d="M83.148 24.0841C78.6011 19.4694 72.5309 16.915 66.0556 16.8908C66.0248 16.8906 65.9945 16.8906 65.9636 16.8906C60.0223 16.8906 54.4112 19.0234 50 22.9306C45.5884 19.0233 39.9781 16.8906 34.0363 16.8906C34.0059 16.8906 33.9749 16.8906 33.9443 16.8908C27.4687 16.9148 21.3985 19.4694 16.8519 24.0841C7.58895 33.4853 7.73645 48.8177 17.181 58.2623L36.4035 77.4848C40.1521 81.2332 45.0762 83.1076 50.0003 83.1076C54.9244 83.1076 59.8483 81.2332 63.597 77.4848L82.8196 58.2623C92.2633 48.8177 92.4108 33.4855 83.148 24.0841ZM80.6433 56.0868L61.4209 75.309C58.3701 78.3598 54.3142 80.0398 49.9998 80.0398C45.6854 80.0398 41.6295 78.3596 38.5787 75.309L19.3562 56.0868C11.1024 47.833 10.9619 34.4452 19.0432 26.2435C23.0102 22.2172 28.3062 19.9883 33.9556 19.9675C33.9824 19.9673 34.009 19.9673 34.0357 19.9673C39.6556 19.9673 44.936 22.1544 48.912 26.1302C49.2006 26.4186 49.5917 26.5808 49.9997 26.5808C50.4076 26.5808 50.7987 26.4186 51.0873 26.1302C55.0634 22.1539 60.3434 19.9673 65.9636 19.9673C65.9902 19.9673 66.0173 19.9673 66.0437 19.9675C71.6933 19.9884 76.9891 22.2172 80.9561 26.2435C89.0377 34.4452 88.8972 47.833 80.6433 56.0868Z" fill="white"/>
<g clip-path="url(#clip1_659_346)">
<path d="M48.0328 46.0691C51.4904 46.0725 54.8644 45.0068 57.6927 43.0179V42.6384C55.5526 39.6752 54.0059 37.5337 51.6528 34.2754H51.1797C50.2348 34.8686 49.1417 35.1832 48.026 35.1832C46.9104 35.1832 45.8173 34.8686 44.8724 34.2754H44.3993C42.0462 37.5337 40.4994 39.6752 38.3594 42.6384V43.0179C41.1877 45.0068 44.5617 46.0725 48.0193 46.0691H48.0328Z" stroke="white" stroke-width="1.5"/>
<path d="M57.6934 31.9102H61.3184" stroke="white" stroke-width="1.5"/>
<path d="M57.6934 34.3262H61.3184" stroke="white" stroke-width="1.5"/>
<path d="M63.735 49.237V30.2903C63.735 29.9186 63.5873 29.5621 63.3245 29.2992C63.0616 29.0363 62.7051 28.8887 62.3334 28.8887H33.72C33.3483 28.8887 32.9918 29.0363 32.7289 29.2992C32.466 29.5621 32.3184 29.9186 32.3184 30.2903V49.237C32.3184 49.6087 32.466 49.9653 32.7289 50.2281C32.9918 50.491 33.3483 50.6387 33.72 50.6387H62.8288C63.2294 50.6387 63.6135 50.7978 63.8968 51.0811C64.1801 51.3643 64.3392 51.7485 64.3392 52.1491C64.3392 52.5497 64.1801 52.9339 63.8968 53.2171C63.6135 53.5004 63.2294 53.6595 62.8288 53.6595H32.3184V60.9095H45.61" stroke="white" stroke-width="1.5"/>
<path d="M35.3398 57.2852H36.5482" stroke="white" stroke-width="1.5"/>
<path d="M37.7559 57.2852H38.9642" stroke="white" stroke-width="1.5"/>
<path d="M46.7454 58.4922H52.2748C53.3917 58.4922 54.4784 58.1299 55.372 57.4598L56.4121 56.6797H60.0371C60.9186 57.9137 61.3924 59.3923 61.3924 60.9088C61.3924 62.4254 60.9185 63.904 60.037 65.138H56.412L55.3719 64.3579C54.4784 63.6877 53.3917 63.3255 52.2748 63.3255H46.7454C46.425 63.3255 46.1176 63.1982 45.891 62.9716C45.6644 62.745 45.5371 62.4376 45.5371 62.1172V59.7005C45.5371 59.38 45.6644 59.0727 45.891 58.8461C46.1176 58.6195 46.425 58.4922 46.7454 58.4922Z" stroke="white" stroke-width="1.5"/>
<path d="M64.0586 63.1393C64.3391 62.8588 64.5616 62.5258 64.7134 62.1593C64.8652 61.7928 64.9434 61.3999 64.9434 61.0032C64.9434 60.6065 64.8652 60.2137 64.7134 59.8472C64.5616 59.4807 64.3391 59.1477 64.0586 58.8672" stroke="white" stroke-width="1.5"/>
<path d="M65.7676 64.848C66.2725 64.3431 66.673 63.7437 66.9463 63.0839C67.2195 62.4242 67.3602 61.7172 67.3602 61.0031C67.3602 60.289 67.2195 59.582 66.9463 58.9223C66.673 58.2625 66.2725 57.6631 65.7676 57.1582" stroke="white" stroke-width="1.5"/>
<path d="M67.4766 66.5567C68.9495 65.0837 69.777 63.086 69.777 61.003C69.777 58.9199 68.9495 56.9222 67.4766 55.4492" stroke="white" stroke-width="1.5"/>
<path d="M56.4121 56.6797V65.138" stroke="white" stroke-width="1.5"/>
</g>
</g>
<defs>
<clipPath id="clip0_659_346">
<rect width="80" height="80" fill="white" transform="translate(10 10)"/>
</clipPath>
<clipPath id="clip1_659_346">
<rect width="38.6667" height="38.6667" fill="white" transform="translate(31.7148 28.2852)"/>
</clipPath>
</defs>
</svg>
