<svg width="100" height="100" viewBox="0 0 100 100" fill="none" xmlns="http://www.w3.org/2000/svg">
<path d="M91.435 17.607C85.7514 11.8387 78.1637 8.6457 70.0695 8.61543C70.0311 8.61523 69.9932 8.61523 69.9545 8.61523C62.5279 8.61523 55.514 11.2813 50 16.1652C44.4855 11.2811 37.4726 8.61523 30.0454 8.61523C30.0073 8.61523 29.9687 8.61523 29.9304 8.61543C21.8358 8.64551 14.2481 11.8387 8.56492 17.607C-3.01382 29.3586 -2.82944 48.5241 8.97624 60.3298L33.0044 84.358C37.6902 89.0435 43.8453 91.3865 50.0004 91.3865C56.1554 91.3865 62.3103 89.0435 66.9963 84.358L91.0245 60.3298C102.829 48.5241 103.014 29.3588 91.435 17.607ZM88.3041 57.6104L64.2762 81.6382C60.4627 85.4517 55.3927 87.5517 49.9998 87.5517C44.6068 87.5517 39.5369 85.4515 35.7234 81.6382L11.6952 57.6104C1.37799 47.2932 1.2024 30.5584 11.304 20.3063C16.2628 15.2735 22.8827 12.4873 29.9445 12.4613C29.978 12.4611 30.0112 12.4611 30.0446 12.4611C37.0695 12.4611 43.6701 15.1949 48.64 20.1647C49.0007 20.5252 49.4896 20.728 49.9996 20.728C50.5095 20.728 50.9984 20.5252 51.3591 20.1647C56.3293 15.1943 62.9293 12.4611 69.9545 12.4611C69.9877 12.4611 70.0217 12.4611 70.0547 12.4613C77.1166 12.4875 83.7364 15.2735 88.6952 20.3063C98.7971 30.5584 98.6215 47.2932 88.3041 57.6104Z" fill="white"/>
<g clip-path="url(#clip0_677_915)">
<path d="M50.0015 52.5555C50.4768 52.5555 50.8622 52.1701 50.8622 51.6948V49.9574H51.9362C52.4115 49.9574 52.7969 49.572 52.7969 49.0966C52.7969 48.6213 52.4115 48.2359 51.9362 48.2359H50.8622V46.6789C53.8049 46.2595 56.0751 43.7242 56.0751 40.6674C56.0751 37.3183 53.3505 34.5938 50.0015 34.5938C46.6524 34.5938 43.9277 37.3183 43.9277 40.6674C43.9277 43.7242 46.1979 46.2595 49.1407 46.6789V48.2359H48.0667C47.5914 48.2359 47.206 48.6213 47.206 49.0966C47.206 49.572 47.5914 49.9574 48.0667 49.9574H49.1407V51.6948C49.1407 52.1701 49.526 52.5555 50.0015 52.5555ZM45.6492 40.6673C45.6492 38.2674 47.6016 36.3151 50.0015 36.3151C52.4013 36.3151 54.3536 38.2675 54.3536 40.6673C54.3536 43.067 52.4012 45.0194 50.0015 45.0194C47.6017 45.0194 45.6492 43.0671 45.6492 40.6673Z" fill="white"/>
<path d="M52.2178 58.5859C80.3509 45.068 65.6432 20.3556 50.0027 29.5052C34.6706 20.5404 20.2128 44.1279 46.2186 57.7972C46.6395 58.0188 47.1598 57.8567 47.381 57.4359C47.6023 57.0151 47.4404 56.4947 47.0196 56.2735C22.9988 43.6472 35.9777 22.7242 49.5452 31.2407C49.825 31.4164 50.1808 31.4164 50.4605 31.2407C64.3194 22.5404 77.5222 44.5171 51.4723 57.0342C51.0438 57.2402 50.8634 57.7544 51.0692 58.1829C51.275 58.6112 51.7889 58.7918 52.2178 58.5859Z" fill="white"/>
<path d="M59.902 60.3758C89.2021 41.2597 70.1349 12.3132 50.0023 24.332C30.5815 12.7398 12.0063 39.3514 37.382 58.4689C34.4856 58.5719 31.6289 59.1214 28.5769 60.1509C27.2268 60.6061 26.5046 62.0725 26.9618 63.4237L27.4272 64.7992L26.8938 67.8393C26.561 69.7357 28.3453 71.3131 30.1849 70.7566C45.7611 66.0423 52.4602 76.3425 71.2117 72.1301C72.645 71.808 73.5207 70.3573 73.1368 68.9365L72.5741 66.8546L73.0795 64.3503C73.4452 62.5379 71.8405 60.9383 70.0299 61.3105C58.5838 63.6633 51.8445 60.3287 44.0585 58.9732C43.5906 58.8925 43.1444 59.2053 43.0629 59.6737C42.9813 60.1421 43.295 60.5878 43.7633 60.6693C51.5095 62.0175 58.474 65.4434 70.3766 62.9967C70.9826 62.8726 71.5139 63.4059 71.392 64.0098C70.8112 66.8888 70.7858 66.8367 70.8593 67.108L71.4751 69.3857C71.6028 69.8592 71.3112 70.3433 70.8344 70.4505C52.5615 74.5555 45.8903 64.205 29.6863 69.1089C29.0725 69.2947 28.4788 68.7679 28.5895 68.1369L29.1609 64.8803C29.211 64.595 29.1737 64.5889 28.5927 62.872C28.4407 62.4227 28.6791 61.9333 29.1272 61.782C32.9402 60.4959 36.4214 60.0006 40.0834 60.2249C40.9591 60.2771 41.3416 59.1353 40.6135 58.6496C13.6796 40.6845 31.2309 14.5743 49.5447 26.0701C49.8246 26.2458 50.1802 26.2458 50.46 26.0701C68.8422 14.5296 86.5692 40.9217 58.9614 58.9339C58.5633 59.1937 58.4511 59.727 58.7108 60.1251C58.9704 60.5233 59.5037 60.6355 59.902 60.3758Z" fill="white"/>
</g>
<defs>
<clipPath id="clip0_677_915">
<rect width="51.6667" height="51.6667" fill="white" transform="translate(24.166 21.5)"/>
</clipPath>
</defs>
</svg>
