<svg width="100" height="100" viewBox="0 0 100 100" fill="none" xmlns="http://www.w3.org/2000/svg">
<rect width="100" height="100" fill="#259BF1"/>
<g clip-path="url(#clip0_659_357)">
<path d="M83.148 24.0841C78.6011 19.4694 72.5309 16.915 66.0556 16.8908C66.0248 16.8906 65.9945 16.8906 65.9636 16.8906C60.0223 16.8906 54.4112 19.0234 50 22.9306C45.5884 19.0233 39.9781 16.8906 34.0363 16.8906C34.0059 16.8906 33.9749 16.8906 33.9443 16.8908C27.4687 16.9148 21.3985 19.4694 16.8519 24.0841C7.58895 33.4853 7.73645 48.8177 17.181 58.2623L36.4035 77.4848C40.1521 81.2332 45.0762 83.1076 50.0003 83.1076C54.9244 83.1076 59.8483 81.2332 63.597 77.4848L82.8196 58.2623C92.2633 48.8177 92.4108 33.4855 83.148 24.0841ZM80.6433 56.0868L61.4209 75.309C58.3701 78.3598 54.3142 80.0398 49.9998 80.0398C45.6854 80.0398 41.6295 78.3596 38.5787 75.309L19.3562 56.0868C11.1024 47.833 10.9619 34.4452 19.0432 26.2435C23.0102 22.2172 28.3062 19.9883 33.9556 19.9675C33.9824 19.9673 34.009 19.9673 34.0357 19.9673C39.6556 19.9673 44.936 22.1544 48.912 26.1302C49.2006 26.4186 49.5917 26.5808 49.9997 26.5808C50.4076 26.5808 50.7987 26.4186 51.0873 26.1302C55.0634 22.1539 60.3434 19.9673 65.9636 19.9673C65.9902 19.9673 66.0173 19.9673 66.0437 19.9675C71.6933 19.9884 76.9891 22.2172 80.9561 26.2435C89.0377 34.4452 88.8972 47.833 80.6433 56.0868Z" fill="white"/>
<g clip-path="url(#clip1_659_357)">
<path d="M50.0035 52.0433C50.3838 52.0433 50.6921 51.7349 50.6921 51.3547V49.9647H51.5513C51.9316 49.9647 52.2399 49.6564 52.2399 49.2761C52.2399 48.8959 51.9316 48.5875 51.5513 48.5875H50.6921V47.342C53.0462 47.0064 54.8624 44.9782 54.8624 42.5327C54.8624 39.8535 52.6828 37.6738 50.0035 37.6738C47.3243 37.6738 45.1445 39.8535 45.1445 42.5327C45.1445 44.9782 46.9607 47.0064 49.3149 47.342V48.5875H48.4557C48.0754 48.5875 47.7671 48.8959 47.7671 49.2761C47.7671 49.6564 48.0754 49.9647 48.4557 49.9647H49.3149V51.3547C49.3149 51.7349 49.6232 52.0433 50.0035 52.0433ZM46.5217 42.5326C46.5217 40.6128 48.0836 39.0509 50.0035 39.0509C51.9234 39.0509 53.4852 40.6128 53.4852 42.5326C53.4852 44.4524 51.9233 46.0143 50.0035 46.0143C48.0837 46.0143 46.5217 44.4525 46.5217 42.5326Z" fill="white"/>
<path d="M51.7754 56.8672C74.2819 46.0528 62.5158 26.2829 50.0033 33.6026C37.7376 26.4308 26.1714 45.3008 46.9761 56.2362C47.3128 56.4135 47.729 56.2838 47.906 55.9471C48.083 55.6105 47.9535 55.1942 47.6169 55.0172C28.4002 44.9162 38.7833 28.1778 49.6373 34.991C49.8612 35.1315 50.1458 35.1315 50.3695 34.991C61.4567 28.0307 72.019 45.6121 51.179 55.6258C50.8362 55.7906 50.6919 56.2019 50.8566 56.5448C51.0212 56.8874 51.4323 57.0319 51.7754 56.8672Z" fill="white"/>
<path d="M57.9239 58.2999C81.364 43.0069 66.1103 19.8498 50.0042 29.4648C34.4675 20.191 19.6074 41.4803 39.9079 56.7744C37.5908 56.8567 35.3055 57.2963 32.8639 58.12C31.7838 58.4841 31.206 59.6573 31.5718 60.7382L31.9441 61.8386L31.5174 64.2707C31.2512 65.7878 32.6786 67.0497 34.1503 66.6045C46.6112 62.8331 51.9705 71.0732 66.9717 67.7033C68.1184 67.4456 68.8189 66.2851 68.5118 65.1485L68.0617 63.4829L68.4659 61.4794C68.7585 60.0295 67.4747 58.7499 66.0263 59.0476C56.8694 60.9299 51.478 58.2622 45.2491 57.1778C44.8749 57.1132 44.5178 57.3635 44.4527 57.7381C44.3874 58.1129 44.6383 58.4694 45.013 58.5347C51.2099 59.6132 56.7815 62.354 66.3036 60.3965C66.7884 60.2973 67.2135 60.724 67.116 61.207C66.6513 63.5103 66.631 63.4685 66.6898 63.6856L67.1824 65.5078C67.2846 65.8865 67.0513 66.2739 66.6698 66.3596C52.0516 69.6436 46.7146 61.3632 33.7514 65.2863C33.2603 65.435 32.7854 65.0136 32.8739 64.5087L33.3311 61.9035C33.3711 61.6752 33.3413 61.6704 32.8765 60.2968C32.7549 59.9373 32.9456 59.5459 33.3041 59.4249C36.3545 58.3959 39.1395 57.9997 42.0691 58.1791C42.7697 58.2209 43.0756 57.3074 42.4932 56.9189C20.946 42.5468 34.9871 21.6587 49.6381 30.8553C49.862 30.9959 50.1465 30.9959 50.3704 30.8553C65.0761 21.6229 79.2577 42.7366 57.1714 57.1464C56.853 57.3542 56.7632 57.7808 56.971 58.0993C57.1787 58.4179 57.6053 58.5076 57.9239 58.2999Z" fill="white"/>
</g>
</g>
<defs>
<clipPath id="clip0_659_357">
<rect width="80" height="80" fill="white" transform="translate(10 10)"/>
</clipPath>
<clipPath id="clip1_659_357">
<rect width="41.3333" height="41.3333" fill="white" transform="translate(29.334 27.1992)"/>
</clipPath>
</defs>
</svg>
