<svg width="1920" height="432" viewBox="0 0 1920 432" fill="none" xmlns="http://www.w3.org/2000/svg">
<rect width="1920" height="432" fill="white"/>
<rect x="30" y="29" width="1860" height="40" fill="#9CD4FE"/>
<g filter="url(#filter0_i_914_15)">
<path d="M40.26 347V221H75.18L139.26 297.68H123.06V221H164.46V347H129.54L65.46 270.32H81.66V347H40.26ZM270.608 267.8H326.768V298.4H270.608V267.8ZM273.488 314.96H336.488V347H231.728V221H334.148V253.04H273.488V314.96ZM429.743 347L389.423 221H433.163L465.743 327.38H443.783L478.343 221H517.403L549.623 327.38H528.563L562.583 221H602.903L562.583 347H517.043L490.763 259.88H503.003L475.283 347H429.743ZM706.117 349.88C695.557 349.88 685.357 348.68 675.517 346.28C665.677 343.88 657.577 340.76 651.217 336.92L664.897 305.96C670.897 309.44 677.557 312.26 684.877 314.42C692.317 316.46 699.517 317.48 706.477 317.48C710.557 317.48 713.737 317.24 716.017 316.76C718.417 316.16 720.157 315.38 721.237 314.42C722.317 313.34 722.857 312.08 722.857 310.64C722.857 308.36 721.597 306.56 719.077 305.24C716.557 303.92 713.197 302.84 708.997 302C704.917 301.04 700.417 300.08 695.497 299.12C690.577 298.04 685.597 296.66 680.557 294.98C675.637 293.3 671.077 291.08 666.877 288.32C662.797 285.56 659.497 281.96 656.977 277.52C654.457 272.96 653.197 267.32 653.197 260.6C653.197 252.8 655.357 245.72 659.677 239.36C664.117 232.88 670.657 227.72 679.297 223.88C688.057 220.04 698.917 218.12 711.877 218.12C720.397 218.12 728.797 219.02 737.077 220.82C745.357 222.62 752.797 225.38 759.397 229.1L746.617 259.88C740.377 256.76 734.317 254.42 728.437 252.86C722.677 251.3 717.037 250.52 711.517 250.52C707.437 250.52 704.197 250.88 701.797 251.6C699.397 252.32 697.657 253.28 696.577 254.48C695.617 255.68 695.137 257 695.137 258.44C695.137 260.6 696.397 262.34 698.917 263.66C701.437 264.86 704.737 265.88 708.817 266.72C713.017 267.56 717.577 268.46 722.497 269.42C727.537 270.38 732.517 271.7 737.437 273.38C742.357 275.06 746.857 277.28 750.937 280.04C755.137 282.8 758.497 286.4 761.017 290.84C763.537 295.28 764.797 300.8 764.797 307.4C764.797 315.08 762.577 322.16 758.137 328.64C753.817 335 747.337 340.16 738.697 344.12C730.057 347.96 719.197 349.88 706.117 349.88ZM971.982 349.88C961.902 349.88 952.902 348.32 944.982 345.2C937.062 341.96 930.822 337.58 926.262 332.06C921.702 326.54 919.422 320.3 919.422 313.34C919.422 306.38 920.922 300.26 923.922 294.98C927.042 289.58 931.782 284.78 938.142 280.58C944.622 276.26 952.782 272.24 962.622 268.52C968.622 266.24 973.302 264.14 976.662 262.22C980.142 260.3 982.602 258.5 984.042 256.82C985.482 255.02 986.202 253.28 986.202 251.6C986.202 249.68 985.542 248.12 984.222 246.92C983.022 245.72 981.162 245.12 978.642 245.12C975.882 245.12 973.722 245.84 972.162 247.28C970.722 248.6 970.002 250.28 970.002 252.32C970.002 253.64 970.302 254.96 970.902 256.28C971.622 257.6 972.942 259.22 974.862 261.14C976.782 262.94 979.482 265.34 982.962 268.34L1049.2 324.68L1027.42 349.34L951.102 283.82C947.022 280.46 943.662 277.1 941.022 273.74C938.382 270.26 936.402 266.78 935.082 263.3C933.762 259.82 933.102 256.34 933.102 252.86C933.102 246.14 934.962 240.26 938.682 235.22C942.522 230.06 947.802 226.04 954.522 223.16C961.362 220.28 969.342 218.84 978.462 218.84C986.862 218.84 994.182 220.16 1000.42 222.8C1006.66 225.32 1011.52 228.98 1015 233.78C1018.48 238.58 1020.22 244.22 1020.22 250.7C1020.22 256.46 1018.72 261.68 1015.72 266.36C1012.84 271.04 1008.34 275.3 1002.22 279.14C996.222 282.98 988.602 286.64 979.362 290.12C974.562 291.92 970.662 293.78 967.662 295.7C964.662 297.62 962.502 299.66 961.182 301.82C959.862 303.86 959.202 306.2 959.202 308.84C959.202 310.76 959.802 312.56 961.002 314.24C962.322 315.92 964.122 317.24 966.402 318.2C968.802 319.16 971.682 319.64 975.042 319.64C981.522 319.64 987.582 317.96 993.222 314.6C998.982 311.12 1003.9 306.14 1007.98 299.66C1012.18 293.18 1015.06 285.44 1016.62 276.44L1049.2 286.16C1046.44 298.52 1041.4 309.5 1034.08 319.1C1026.88 328.7 1017.94 336.26 1007.26 341.78C996.702 347.18 984.942 349.88 971.982 349.88ZM1212.49 347V221H1279.81C1297.21 221 1310.05 224.12 1318.33 230.36C1326.61 236.48 1330.75 244.34 1330.75 253.94C1330.75 260.3 1328.95 266 1325.35 271.04C1321.87 275.96 1316.77 279.86 1310.05 282.74C1303.33 285.62 1295.05 287.06 1285.21 287.06L1288.81 277.34C1298.65 277.34 1307.11 278.72 1314.19 281.48C1321.39 284.24 1326.91 288.26 1330.75 293.54C1334.71 298.7 1336.69 304.94 1336.69 312.26C1336.69 323.18 1332.13 331.7 1323.01 337.82C1314.01 343.94 1300.81 347 1283.41 347H1212.49ZM1254.25 317.3H1279.81C1284.49 317.3 1287.97 316.46 1290.25 314.78C1292.65 313.1 1293.85 310.64 1293.85 307.4C1293.85 304.16 1292.65 301.7 1290.25 300.02C1287.97 298.34 1284.49 297.5 1279.81 297.5H1251.37V269.42H1274.05C1278.85 269.42 1282.33 268.64 1284.49 267.08C1286.77 265.4 1287.91 263.06 1287.91 260.06C1287.91 256.94 1286.77 254.6 1284.49 253.04C1282.33 251.48 1278.85 250.7 1274.05 250.7H1254.25V317.3ZM1398.51 347V221H1440.99V314.06H1497.87V347H1398.51ZM1620.7 349.88C1610.5 349.88 1601.02 348.26 1592.26 345.02C1583.62 341.78 1576.12 337.22 1569.76 331.34C1563.4 325.34 1558.42 318.32 1554.82 310.28C1551.34 302.24 1549.6 293.48 1549.6 284C1549.6 274.4 1551.34 265.64 1554.82 257.72C1558.42 249.68 1563.4 242.72 1569.76 236.84C1576.12 230.84 1583.62 226.22 1592.26 222.98C1601.02 219.74 1610.5 218.12 1620.7 218.12C1631.02 218.12 1640.5 219.74 1649.14 222.98C1657.78 226.22 1665.28 230.84 1671.64 236.84C1678 242.72 1682.92 249.68 1686.4 257.72C1690 265.64 1691.8 274.4 1691.8 284C1691.8 293.48 1690 302.24 1686.4 310.28C1682.92 318.32 1678 325.34 1671.64 331.34C1665.28 337.22 1657.78 341.78 1649.14 345.02C1640.5 348.26 1631.02 349.88 1620.7 349.88ZM1620.7 315.5C1624.66 315.5 1628.32 314.78 1631.68 313.34C1635.16 311.9 1638.16 309.86 1640.68 307.22C1643.32 304.46 1645.36 301.16 1646.8 297.32C1648.24 293.36 1648.96 288.92 1648.96 284C1648.96 279.08 1648.24 274.7 1646.8 270.86C1645.36 266.9 1643.32 263.6 1640.68 260.96C1638.16 258.2 1635.16 256.1 1631.68 254.66C1628.32 253.22 1624.66 252.5 1620.7 252.5C1616.74 252.5 1613.02 253.22 1609.54 254.66C1606.18 256.1 1603.18 258.2 1600.54 260.96C1598.02 263.6 1596.04 266.9 1594.6 270.86C1593.16 274.7 1592.44 279.08 1592.44 284C1592.44 288.92 1593.16 293.36 1594.6 297.32C1596.04 301.16 1598.02 304.46 1600.54 307.22C1603.18 309.86 1606.18 311.9 1609.54 313.34C1613.02 314.78 1616.74 315.5 1620.7 315.5ZM1819.36 349.88C1809.16 349.88 1799.74 348.32 1791.1 345.2C1782.58 341.96 1775.14 337.4 1768.78 331.52C1762.54 325.64 1757.68 318.68 1754.2 310.64C1750.72 302.6 1748.98 293.72 1748.98 284C1748.98 274.28 1750.72 265.4 1754.2 257.36C1757.68 249.32 1762.6 242.36 1768.96 236.48C1775.32 230.6 1782.82 226.1 1791.46 222.98C1800.22 219.74 1809.82 218.12 1820.26 218.12C1832.74 218.12 1843.84 220.22 1853.56 224.42C1863.4 228.62 1871.5 234.62 1877.86 242.42L1850.68 266.36C1846.72 261.8 1842.4 258.38 1837.72 256.1C1833.16 253.7 1828.06 252.5 1822.42 252.5C1817.74 252.5 1813.48 253.22 1809.64 254.66C1805.92 256.1 1802.74 258.2 1800.1 260.96C1797.46 263.72 1795.42 267.02 1793.98 270.86C1792.54 274.7 1791.82 279.08 1791.82 284C1791.82 288.68 1792.54 293 1793.98 296.96C1795.42 300.8 1797.46 304.1 1800.1 306.86C1802.74 309.62 1805.86 311.78 1809.46 313.34C1813.18 314.78 1817.32 315.5 1821.88 315.5C1826.68 315.5 1831.36 314.72 1835.92 313.16C1840.48 311.48 1845.34 308.66 1850.5 304.7L1874.26 333.86C1866.58 339.02 1857.82 342.98 1847.98 345.74C1838.14 348.5 1828.6 349.88 1819.36 349.88ZM1837.36 328.46V280.58H1874.26V333.86L1837.36 328.46Z" fill="#9CD4FE"/>
</g>
<g filter="url(#filter1_d_914_15)">
<path d="M70.9 167.6C65.3 167.6 60.1 166.733 55.3 165C50.5667 163.2 46.4333 160.667 42.9 157.4C39.4333 154.133 36.7333 150.267 34.8 145.8C32.8667 141.333 31.9 136.4 31.9 131C31.9 125.6 32.8667 120.667 34.8 116.2C36.7333 111.733 39.4333 107.867 42.9 104.6C46.4333 101.333 50.5667 98.8333 55.3 97.1C60.1 95.3 65.3 94.4 70.9 94.4C77.7667 94.4 83.8333 95.6 89.1 98C94.4333 100.4 98.8333 103.867 102.3 108.4L87.4 121.7C85.3333 119.1 83.0333 117.1 80.5 115.7C78.0333 114.233 75.2333 113.5 72.1 113.5C69.6333 113.5 67.4 113.9 65.4 114.7C63.4 115.5 61.6667 116.667 60.2 118.2C58.8 119.733 57.7 121.6 56.9 123.8C56.1 125.933 55.7 128.333 55.7 131C55.7 133.667 56.1 136.1 56.9 138.3C57.7 140.433 58.8 142.267 60.2 143.8C61.6667 145.333 63.4 146.5 65.4 147.3C67.4 148.1 69.6333 148.5 72.1 148.5C75.2333 148.5 78.0333 147.8 80.5 146.4C83.0333 144.933 85.3333 142.9 87.4 140.3L102.3 153.6C98.8333 158.067 94.4333 161.533 89.1 164C83.8333 166.4 77.7667 167.6 70.9 167.6ZM309.114 166V96H332.714V147.7H364.314V166H309.114ZM570.833 166V96H594.433V166H570.833ZM805.794 166V96H825.194L860.794 138.6H851.794V96H874.794V166H855.394L819.794 123.4H828.794V166H805.794ZM1086.16 166V96H1109.76V166H1086.16ZM1357.33 167.6C1351.73 167.6 1346.53 166.733 1341.73 165C1336.99 163.2 1332.86 160.667 1329.33 157.4C1325.86 154.133 1323.16 150.267 1321.23 145.8C1319.29 141.333 1318.33 136.4 1318.33 131C1318.33 125.6 1319.29 120.667 1321.23 116.2C1323.16 111.733 1325.86 107.867 1329.33 104.6C1332.86 101.333 1336.99 98.8333 1341.73 97.1C1346.53 95.3 1351.73 94.4 1357.33 94.4C1364.19 94.4 1370.26 95.6 1375.53 98C1380.86 100.4 1385.26 103.867 1388.73 108.4L1373.83 121.7C1371.76 119.1 1369.46 117.1 1366.93 115.7C1364.46 114.233 1361.66 113.5 1358.53 113.5C1356.06 113.5 1353.83 113.9 1351.83 114.7C1349.83 115.5 1348.09 116.667 1346.63 118.2C1345.23 119.733 1344.13 121.6 1343.33 123.8C1342.53 125.933 1342.13 128.333 1342.13 131C1342.13 133.667 1342.53 136.1 1343.33 138.3C1344.13 140.433 1345.23 142.267 1346.63 143.8C1348.09 145.333 1349.83 146.5 1351.83 147.3C1353.83 148.1 1356.06 148.5 1358.53 148.5C1361.66 148.5 1364.46 147.8 1366.93 146.4C1369.46 144.933 1371.76 142.9 1373.83 140.3L1388.73 153.6C1385.26 158.067 1380.86 161.533 1375.53 164C1370.26 166.4 1364.19 167.6 1357.33 167.6ZM1593.83 131.6L1602.23 103.5L1605.53 116.1C1601.66 116.1 1598.49 115 1596.03 112.8C1593.56 110.533 1592.33 107.467 1592.33 103.6C1592.33 99.6667 1593.56 96.5667 1596.03 94.3C1598.56 91.9667 1601.73 90.8 1605.53 90.8C1609.33 90.8 1612.46 91.9667 1614.93 94.3C1617.46 96.5667 1618.73 99.6667 1618.73 103.6C1618.73 104.667 1618.63 105.733 1618.43 106.8C1618.29 107.867 1617.96 109.167 1617.43 110.7C1616.89 112.167 1616.03 114.167 1614.83 116.7L1607.83 131.6H1593.83ZM1853.48 167.6C1847.61 167.6 1841.94 166.933 1836.48 165.6C1831.01 164.267 1826.51 162.533 1822.98 160.4L1830.58 143.2C1833.91 145.133 1837.61 146.7 1841.68 147.9C1845.81 149.033 1849.81 149.6 1853.68 149.6C1855.94 149.6 1857.71 149.467 1858.98 149.2C1860.31 148.867 1861.28 148.433 1861.88 147.9C1862.48 147.3 1862.78 146.6 1862.78 145.8C1862.78 144.533 1862.08 143.533 1860.68 142.8C1859.28 142.067 1857.41 141.467 1855.08 141C1852.81 140.467 1850.31 139.933 1847.58 139.4C1844.84 138.8 1842.08 138.033 1839.28 137.1C1836.54 136.167 1834.01 134.933 1831.68 133.4C1829.41 131.867 1827.58 129.867 1826.18 127.4C1824.78 124.867 1824.08 121.733 1824.08 118C1824.08 113.667 1825.28 109.733 1827.68 106.2C1830.14 102.6 1833.78 99.7333 1838.58 97.6C1843.44 95.4667 1849.48 94.4 1856.68 94.4C1861.41 94.4 1866.08 94.9 1870.68 95.9C1875.28 96.9 1879.41 98.4333 1883.08 100.5L1875.98 117.6C1872.51 115.867 1869.14 114.567 1865.88 113.7C1862.68 112.833 1859.54 112.4 1856.48 112.4C1854.21 112.4 1852.41 112.6 1851.08 113C1849.74 113.4 1848.78 113.933 1848.18 114.6C1847.64 115.267 1847.38 116 1847.38 116.8C1847.38 118 1848.08 118.967 1849.48 119.7C1850.88 120.367 1852.71 120.933 1854.98 121.4C1857.31 121.867 1859.84 122.367 1862.58 122.9C1865.38 123.433 1868.14 124.167 1870.88 125.1C1873.61 126.033 1876.11 127.267 1878.38 128.8C1880.71 130.333 1882.58 132.333 1883.98 134.8C1885.38 137.267 1886.08 140.333 1886.08 144C1886.08 148.267 1884.84 152.2 1882.38 155.8C1879.98 159.333 1876.38 162.2 1871.58 164.4C1866.78 166.533 1860.74 167.6 1853.48 167.6Z" fill="#9CD4FE"/>
</g>
<rect x="29" y="376" width="1860" height="20" fill="#9CD4FE"/>
<rect x="29" y="401" width="1860" height="7" fill="#9CD4FE"/>
<defs>
<filter id="filter0_i_914_15" x="40.2617" y="218.121" width="1841.6" height="135.758" filterUnits="userSpaceOnUse" color-interpolation-filters="sRGB">
<feFlood flood-opacity="0" result="BackgroundImageFix"/>
<feBlend mode="normal" in="SourceGraphic" in2="BackgroundImageFix" result="shape"/>
<feColorMatrix in="SourceAlpha" type="matrix" values="0 0 0 0 0 0 0 0 0 0 0 0 0 0 0 0 0 0 127 0" result="hardAlpha"/>
<feOffset dx="5" dy="7"/>
<feGaussianBlur stdDeviation="2"/>
<feComposite in2="hardAlpha" operator="arithmetic" k2="-1" k3="1"/>
<feColorMatrix type="matrix" values="0 0 0 0 0 0 0 0 0 0 0 0 0 0 0 0 0 0 0.6 0"/>
<feBlend mode="normal" in2="shape" result="effect1_innerShadow_914_15"/>
</filter>
<filter id="filter1_d_914_15" x="31.8984" y="90.8008" width="1863.18" height="89.8008" filterUnits="userSpaceOnUse" color-interpolation-filters="sRGB">
<feFlood flood-opacity="0" result="BackgroundImageFix"/>
<feColorMatrix in="SourceAlpha" type="matrix" values="0 0 0 0 0 0 0 0 0 0 0 0 0 0 0 0 0 0 127 0" result="hardAlpha"/>
<feOffset dx="5" dy="9"/>
<feGaussianBlur stdDeviation="2"/>
<feComposite in2="hardAlpha" operator="out"/>
<feColorMatrix type="matrix" values="0 0 0 0 0 0 0 0 0 0 0 0 0 0 0 0 0 0 0.6 0"/>
<feBlend mode="normal" in2="BackgroundImageFix" result="effect1_dropShadow_914_15"/>
<feBlend mode="normal" in="SourceGraphic" in2="effect1_dropShadow_914_15" result="shape"/>
</filter>
</defs>
</svg>
