<svg width="360" height="221" viewBox="0 0 360 221" fill="none" xmlns="http://www.w3.org/2000/svg">
<rect width="360" height="221" fill="#D6D7D8"/>
<g clip-path="url(#clip0_779_32)">
<path d="M168.705 118.433C180.671 118.433 186.813 114.58 186.813 106.292C186.813 99.1383 181.748 94.3783 170.748 94.3783C157.416 94.3783 152.089 100.484 150.874 111.421C148.928 111.293 146.803 111.251 143.904 111.237C143.904 110.642 143.918 110.047 143.918 109.437C143.918 98.345 139.447 94.3358 127.522 94.3358C121.698 94.3358 116.564 95.2283 113.431 96.5317L113.9 105.386C116.633 103.898 120.705 102.467 124.569 102.467C130.02 102.467 131.677 104.777 131.677 110.316L131.663 111.138C131.29 111.123 130.324 111.123 129.8 111.123C116.219 111.123 109.926 115.345 109.926 123.165C109.926 131.226 113.831 135.972 124.969 135.972C130.835 135.972 136.631 135.122 144.098 135.122C143.546 131.892 143.532 127.245 143.532 124.057C143.532 122.372 143.615 120.36 143.697 118.079C146.886 118.107 149.232 118.192 150.777 118.263C151.937 131.212 158.479 136 172.1 136C177.138 136 182.231 135.122 184.894 133.847L184.425 124.992C181.775 126.565 178.09 127.854 174.046 127.854C167.353 127.854 163.723 124.27 163.723 118.603V118.334C164.924 118.391 167.311 118.433 168.705 118.433ZM127.867 128.237C123.727 128.237 121.96 126.82 121.96 123.264C121.96 119.836 124.21 117.895 129.869 117.895C130.393 117.895 131.028 117.881 131.483 117.923C131.456 121.238 131.387 125.106 131.566 127.797C130.586 128.067 129.137 128.237 127.867 128.237ZM163.668 111.591V111.392C163.668 105.839 165.379 101.759 170.348 101.759C173.163 101.759 174.971 103.275 174.971 106.023C174.971 109.891 172.459 111.69 167.242 111.69C165.987 111.69 164.648 111.676 163.668 111.591ZM211.282 127.132C207.28 127.132 206.107 125.502 206.107 119.538V104.139H214.001V95.5825H206.231C206.231 92.5508 206.466 88.0742 206.714 85H199.399C198.433 92.48 196.322 96.3333 189.67 97.4667C189.642 99.4783 189.752 102.227 189.67 104.139H194.1C194.031 108.389 193.907 116.152 193.907 123.222C193.907 132.246 198.461 135.943 207.018 135.943C211.186 135.943 214.25 135.32 215.271 135.023L214.746 126.225C214.001 126.749 212.524 127.132 211.282 127.132ZM294.559 109.437C294.559 98.345 290.088 94.3358 278.177 94.3358C272.339 94.3358 267.219 95.2283 264.086 96.5317L264.555 105.386C267.288 103.898 271.346 102.467 275.224 102.467C280.675 102.467 282.331 104.777 282.331 110.316V111.138C281.945 111.123 280.993 111.123 280.468 111.123C266.874 111.123 260.594 115.345 260.594 123.165C260.594 131.226 264.5 135.972 275.638 135.972C281.503 135.972 287.3 135.122 294.752 135.122C294.214 131.892 294.2 127.245 294.2 124.057C294.187 120.445 294.559 115.373 294.559 109.437ZM278.522 128.237C274.368 128.237 272.615 126.82 272.615 123.264C272.615 119.836 274.865 117.895 280.523 117.895C281.034 117.895 281.669 117.881 282.124 117.923C282.111 121.238 282.028 125.106 282.221 127.797C281.241 128.067 279.778 128.237 278.522 128.237ZM255.612 116.677C255.612 113.333 255.681 108.885 255.681 108.885C255.681 98.8692 251.403 94.3783 239.299 94.3783C232.509 94.3783 227.664 95.5967 220.088 95.5967C220.515 102.623 220.529 111.308 220.502 116.691C220.529 122.159 220.322 131.963 220.088 135.122H233.088C232.785 131.948 232.536 122.839 232.564 116.691C232.564 113.192 232.605 108.956 232.743 103.275C234.041 102.822 235.683 102.482 237.463 102.482C242.018 102.482 243.481 104.677 243.481 110.698C243.481 110.698 243.55 114.481 243.55 116.705C243.55 122.173 243.37 131.977 243.136 135.136H256.136C255.833 131.934 255.571 122.825 255.612 116.677ZM94.5787 92.5792C93.3642 91.3325 91.777 90.7092 90.2037 90.7092C88.6165 90.7092 87.0156 91.3325 85.8011 92.5933L78.5968 100.002L71.3787 92.5933C70.1504 91.3183 68.5633 90.695 66.9761 90.695C65.389 90.695 63.8018 91.3183 62.5873 92.565L53.8097 101.575C51.3945 104.054 51.3945 108.092 53.8235 110.585L78.583 136L103.342 110.585C105.772 108.106 105.758 104.068 103.342 101.575L94.5787 92.5792ZM304.883 96.645C304.883 95.2992 304.082 94.7325 302.523 94.7325H300.066V101.362H301.129V98.5292H302.122L303.792 101.362H304.993L303.185 98.4442C304.165 98.345 304.883 97.8492 304.883 96.645ZM301.129 97.6083V95.6675H302.412C303.047 95.6675 303.82 95.7667 303.82 96.56C303.82 97.5233 303.116 97.5942 302.329 97.5942H301.129V97.6083ZM302.288 91.9558C299.196 91.9558 296.547 94.35 296.547 97.9483C296.547 101.363 298.934 103.941 302.288 103.941C305.352 103.941 308.002 101.561 308.002 97.9483C308.002 94.3358 305.352 91.9558 302.288 91.9558ZM302.288 102.892C299.514 102.892 297.789 100.668 297.789 97.9483C297.789 95.03 299.749 93.0042 302.288 93.0042C304.786 93.0042 306.746 95.0442 306.746 97.9483C306.746 100.881 304.786 102.892 302.288 102.892Z" fill="#5C5E62"/>
</g>
<defs>
<clipPath id="clip0_779_32">
<rect width="256" height="51" fill="white" transform="translate(52 85)"/>
</clipPath>
</defs>
</svg>
