<svg width="360" height="221" viewBox="0 0 360 221" fill="none" xmlns="http://www.w3.org/2000/svg">
<rect width="360" height="221" fill="#D6D7D8"/>
<g clip-path="url(#clip0_779_33)">
<path fill-rule="evenodd" clip-rule="evenodd" d="M180 48C250.693 48 308 75.9822 308 110.5C308 145.018 250.693 173 180 173C109.307 173 52 145.018 52 110.5C52 75.9822 109.307 48 180 48Z" fill="#5C5E62"/>
<path fill-rule="evenodd" clip-rule="evenodd" d="M180 163.117C231.241 163.117 272.78 142.028 272.78 116.013C272.78 89.9976 231.241 68.9082 180 68.9082C128.758 68.9082 87.2188 89.9976 87.2188 116.013C87.2188 142.028 128.758 163.117 180 163.117Z" fill="#D6D7D8"/>
<path fill-rule="evenodd" clip-rule="evenodd" d="M87.9011 94.161L87.1433 95.3029L85.5555 95.023L84.1622 97.1226L85.1611 98.2896L84.4172 99.4107L80.1094 94.1629L80.8526 93.043L87.9011 94.161ZM84.3715 94.8231L81.7951 94.3607L83.4197 96.2575L84.3715 94.8231ZM86.5709 92.7169L87.2911 91.7001C87.6809 91.8976 88.0288 91.9701 88.3391 91.917C88.6494 91.8641 88.9317 91.6909 89.1871 91.3981C89.457 91.0889 89.5899 90.8021 89.5849 90.5393C89.5791 90.2764 89.4828 90.0734 89.2928 89.9315C89.1703 89.8398 89.0377 89.7959 88.8938 89.797C88.7513 89.7984 88.5759 89.8589 88.3696 89.9767C88.2282 90.0568 87.9304 90.2571 87.4727 90.5768C86.8839 90.9877 86.3976 91.2218 86.0129 91.2781C85.4726 91.3578 84.9981 91.2439 84.588 90.9376C84.3248 90.7408 84.1372 90.4867 84.027 90.1783C83.9178 89.8687 83.9162 89.5405 84.0227 89.1915C84.1286 88.8423 84.3403 88.4858 84.6605 88.1186C85.182 87.5211 85.7182 87.1774 86.2685 87.0906C86.8198 87.0026 87.3401 87.1303 87.8334 87.4731L87.025 88.4681C86.7221 88.3099 86.4542 88.2549 86.2202 88.3025C85.986 88.3499 85.7504 88.5084 85.5155 88.7776C85.2729 89.0559 85.1451 89.3207 85.1334 89.571C85.1261 89.7324 85.1878 89.8636 85.3226 89.9642C85.4452 90.0559 85.5915 90.0861 85.7615 90.0551C85.9792 90.0174 86.3518 89.8088 86.8807 89.4302C87.4084 89.0506 87.8354 88.798 88.1579 88.6696C88.4827 88.541 88.8105 88.4954 89.1434 88.5348C89.4767 88.5741 89.806 88.7155 90.1319 88.9591C90.4276 89.18 90.6393 89.4631 90.7648 89.8088C90.8903 90.1543 90.8952 90.5128 90.7779 90.8844C90.6614 91.2569 90.4211 91.6508 90.0589 92.0658C89.5318 92.6701 88.9768 93.0218 88.3926 93.12C87.8095 93.2192 87.2021 93.0838 86.5709 92.7169ZM90.719 88.1196L91.5785 87.2001C91.9365 87.4437 92.2709 87.5582 92.5861 87.5438C92.9013 87.5293 93.2058 87.3923 93.5008 87.1334C93.8126 86.8599 93.9855 86.5921 94.0182 86.3308C94.0509 86.0697 93.9836 85.8566 93.8157 85.6926C93.7073 85.5867 93.5823 85.5271 93.4396 85.5103C93.2979 85.4946 93.1154 85.5326 92.8942 85.6243C92.7426 85.6862 92.4187 85.8483 91.9193 86.109C91.2768 86.4441 90.7613 86.6164 90.3719 86.6251C89.8251 86.6372 89.3709 86.4667 89.0085 86.1128C88.7756 85.8854 88.6261 85.6106 88.561 85.2914C88.4971 84.9712 88.5426 84.6456 88.6976 84.3127C88.8525 83.9796 89.1134 83.6523 89.4835 83.3275C90.0858 82.7992 90.6665 82.5243 91.2245 82.5058C91.7835 82.4863 92.2808 82.6766 92.7207 83.0769L91.7769 83.964C91.4994 83.77 91.2417 83.6826 91.0029 83.701C90.7642 83.7194 90.508 83.8476 90.2365 84.0857C89.9562 84.3316 89.7917 84.5785 89.7441 84.8251C89.7133 84.9841 89.7558 85.1217 89.8754 85.238C89.9838 85.3438 90.1245 85.3919 90.2973 85.382C90.5185 85.3712 90.9178 85.2102 91.4963 84.8997C92.0737 84.5884 92.5331 84.3903 92.871 84.3025C93.2114 84.215 93.5427 84.21 93.8672 84.2904C94.1917 84.3702 94.4981 84.5508 94.7861 84.8321C95.0477 85.0874 95.2169 85.3941 95.2919 85.752C95.3667 86.1099 95.3203 86.4659 95.1507 86.8198C94.9819 87.1746 94.6871 87.5357 94.269 87.9025C93.6599 88.4368 93.0594 88.7173 92.4663 88.743C91.8741 88.7698 91.2921 88.5608 90.719 88.1196ZM94.7047 83.1131C94.2937 82.6154 94.0294 82.14 93.9105 81.6875C93.8242 81.3546 93.8039 81.0143 93.8481 80.6699C93.8923 80.3254 93.9984 80.0182 94.1654 79.7471C94.3883 79.3859 94.7143 79.0528 95.1441 78.749C95.9225 78.1984 96.7286 77.9828 97.565 78.0985C98.4013 78.2162 99.1479 78.6727 99.8056 79.4692C100.458 80.259 100.736 81.0412 100.641 81.8139C100.547 82.5879 100.111 83.2491 99.3362 83.797C98.5516 84.3519 97.7437 84.5723 96.914 84.4555C96.0851 84.3397 95.3482 83.8925 94.7047 83.1131ZM95.775 82.3038C96.2319 82.8571 96.717 83.1783 97.2297 83.2693C97.7415 83.359 98.2109 83.2538 98.6356 82.9534C99.0616 82.6521 99.293 82.2634 99.3331 81.7869C99.3712 81.3101 99.1565 80.7887 98.6883 80.2217C98.2256 79.6615 97.7478 79.3372 97.2542 79.2506C96.7611 79.1622 96.2952 79.2739 95.8545 79.5856C95.4149 79.8964 95.1755 80.2872 95.1365 80.7557C95.0984 81.2255 95.3106 81.7414 95.775 82.3038ZM104.939 77.2802L106.252 76.9597C106.469 77.6317 106.473 78.2201 106.267 78.7259C106.06 79.2305 105.655 79.6571 105.05 80.005C104.3 80.436 103.526 80.5529 102.725 80.357C101.925 80.1601 101.249 79.6515 100.697 78.8292C100.114 77.9608 99.903 77.1458 100.064 76.3862C100.226 75.6267 100.702 75.0194 101.492 74.5651C102.183 74.1681 102.871 74.0354 103.555 74.1657C103.962 74.2413 104.369 74.4518 104.779 74.7969L103.819 75.6921C103.571 75.4609 103.288 75.3271 102.972 75.292C102.654 75.2576 102.345 75.3278 102.043 75.5013C101.624 75.742 101.377 76.076 101.304 76.5036C101.229 76.9307 101.4 77.4548 101.818 78.0769C102.26 78.7351 102.704 79.1313 103.148 79.2636C103.593 79.3962 104.02 79.3443 104.431 79.108C104.734 78.9337 104.936 78.6949 105.034 78.3909C105.132 78.0871 105.102 77.7173 104.939 77.2802ZM108.286 78.0519L104.944 72.7433L106.106 72.1171L109.448 77.4257L108.286 78.0519ZM115.839 74.2455L114.557 74.8689L113.347 73.8775L110.99 75.0236L111.205 76.4991L109.946 77.1112L109.14 70.5631L110.397 69.9518L115.839 74.2455ZM112.439 73.146L110.48 71.5303L110.829 73.929L112.439 73.146ZM117.255 73.7224L114.929 69.0931L113.147 69.86L112.674 68.9186L117.449 66.8636L117.922 67.805L116.148 68.5685L118.474 73.1977L117.255 73.7224ZM121.033 72.1916L118.401 66.5518L119.635 66.0584L122.267 71.6981L121.033 72.1916ZM122.083 68.4588C121.857 67.8686 121.762 67.3412 121.798 66.8768C121.826 66.5352 121.919 66.2056 122.076 65.8903C122.231 65.5748 122.434 65.3123 122.683 65.1015C123.014 64.8208 123.435 64.596 123.944 64.4283C124.867 64.1245 125.706 64.1476 126.464 64.4945C127.222 64.8434 127.781 65.4893 128.144 66.4338C128.504 67.3703 128.511 68.1938 128.165 68.9027C127.819 69.6129 127.185 70.1189 126.267 70.4213C125.336 70.7274 124.494 70.7085 123.743 70.3623C122.992 70.0175 122.438 69.3831 122.083 68.4588ZM123.37 67.9914C123.622 68.6477 123.978 69.0905 124.436 69.3224C124.893 69.5528 125.375 69.5855 125.879 69.4197C126.384 69.2535 126.733 68.9489 126.928 68.5067C127.122 68.0634 127.09 67.5063 126.832 66.8339C126.577 66.1696 126.229 65.7255 125.788 65.5034C125.347 65.2795 124.867 65.254 124.344 65.426C123.823 65.5975 123.466 65.9017 123.274 66.3367C123.082 66.7731 123.114 67.3244 123.37 67.9914ZM130.247 69.0178L128.231 63.1644L129.47 62.7987L133.425 65.9534L132.073 62.0308L133.257 61.6815L135.273 67.5349L133.994 67.9123L130.105 64.8208L131.431 68.6686L130.247 69.0178ZM138.106 63.7475C137.946 63.1388 137.911 62.6052 137.999 62.1468C138.065 61.8097 138.194 61.4907 138.384 61.1919C138.575 60.893 138.805 60.6513 139.076 60.4652C139.437 60.2177 139.88 60.0341 140.406 59.9158C141.358 59.7018 142.19 59.8046 142.905 60.2219C143.62 60.6412 144.105 61.3371 144.36 62.3111C144.614 63.277 144.529 64.0968 144.106 64.7688C143.683 65.4423 142.997 65.8852 142.049 66.0983C141.09 66.3142 140.254 66.2152 139.545 65.7992C138.837 65.3845 138.357 64.7008 138.106 63.7475ZM139.438 63.4052C139.616 64.082 139.92 64.5566 140.35 64.8308C140.779 65.1036 141.255 65.182 141.775 65.0651C142.296 64.9479 142.676 64.6782 142.92 64.257C143.162 63.8346 143.193 63.2774 143.01 62.5839C142.831 61.8989 142.534 61.424 142.12 61.161C141.707 60.8964 141.232 60.8251 140.693 60.9463C140.155 61.0673 139.766 61.3357 139.527 61.7503C139.288 62.1661 139.257 62.7174 139.438 63.4052ZM146.178 65.1357L144.938 59.1003L149.42 58.3118L149.629 59.3317L146.469 59.8879L146.763 61.3207L149.495 60.8399L149.705 61.8599L146.972 62.3407L147.499 64.9033L146.178 65.1357ZM154.286 63.7768L153.447 57.6824L155.58 57.4311C156.387 57.3361 156.917 57.3038 157.171 57.3359C157.561 57.3837 157.904 57.5451 158.201 57.8216C158.497 58.0979 158.679 58.4788 158.746 58.9639C158.797 59.3385 158.767 59.6606 158.656 59.9331C158.544 60.2059 158.386 60.4278 158.181 60.6004C157.975 60.7716 157.759 60.8952 157.532 60.9696C157.223 61.065 156.769 61.1489 156.168 61.2196L155.303 61.3214L155.619 63.6197L154.286 63.7768ZM154.923 58.5552L155.162 60.2916L155.887 60.2061C156.409 60.1446 156.753 60.071 156.92 59.9863C157.088 59.9017 157.212 59.7862 157.293 59.6369C157.374 59.4889 157.403 59.3255 157.378 59.1439C157.347 58.9211 157.251 58.7464 157.092 58.6183C156.931 58.4901 156.742 58.42 156.521 58.4087C156.359 58.4006 156.04 58.4236 155.562 58.4799L154.923 58.5552ZM160.42 63.0528L159.761 56.9398L162.57 56.6801C163.275 56.6149 163.795 56.6229 164.127 56.7028C164.46 56.7827 164.736 56.9541 164.959 57.2167C165.181 57.4807 165.313 57.7919 165.352 58.1532C165.401 58.6129 165.298 59.0048 165.039 59.3304C164.781 59.6562 164.368 59.8841 163.798 60.0159C164.102 60.1443 164.357 60.2932 164.564 60.4624C164.771 60.6315 165.059 60.9397 165.427 61.3857L166.362 62.5037L164.767 62.6511L163.667 61.4047C163.273 60.9625 163.005 60.6856 162.864 60.5735C162.725 60.4628 162.582 60.3898 162.436 60.3574C162.288 60.325 162.061 60.3229 161.753 60.3506L161.483 60.3757L161.758 62.9286L160.42 63.0528ZM161.377 59.4031L162.365 59.3119C163.004 59.2527 163.4 59.1904 163.554 59.1257C163.707 59.0613 163.824 58.9628 163.9 58.8323C163.977 58.7014 164.005 58.5436 163.986 58.36C163.963 58.1536 163.885 57.9942 163.753 57.8771C163.621 57.7614 163.445 57.6971 163.226 57.6843C163.116 57.6802 162.79 57.7031 162.251 57.7529L161.21 57.8492L161.377 59.4031ZM167.042 62.4963L166.599 56.3663L167.941 56.2833L168.383 62.4134L167.042 62.4963ZM171.354 62.2543L168.677 56.2178L170.128 56.1562L172.038 60.6277L173.429 56.0162L174.855 55.9556L172.8 62.1929L171.354 62.2543ZM181.128 62.0248L179.68 62.0424L179.087 60.651L176.425 60.6836L175.893 62.0889L174.472 62.1063L176.961 55.9317L178.381 55.9143L181.128 62.0248ZM178.636 59.6181L177.682 57.3559L176.818 59.6405L178.636 59.6181ZM182.648 62.0853L182.753 56.9808L180.788 56.9463L180.809 55.9082L186.074 56.0007L186.053 57.0389L184.097 57.0045L183.992 62.1089L182.648 62.0853ZM186.817 62.1938L187.082 56.0551L191.992 56.2369L191.947 57.2742L188.381 57.1422L188.322 58.5054L191.638 58.6281L191.594 59.6656L188.277 59.5428L188.205 61.2061L191.901 61.3429L191.857 62.3803L186.817 62.1938ZM197.044 62.8329L197.56 57.7499L195.603 57.5799L195.707 56.5462L200.951 57.0015L200.846 58.0352L198.898 57.866L198.383 62.9491L197.044 62.8329ZM201.163 60.1818C201.249 59.5604 201.422 59.0503 201.681 58.6513C201.872 58.3582 202.116 58.1029 202.409 57.8867C202.702 57.6703 203.011 57.5207 203.336 57.4365C203.769 57.3245 204.253 57.2995 204.79 57.3627C205.762 57.4772 206.499 57.8481 207.006 58.4743C207.512 59.1019 207.696 59.9123 207.559 60.9066C207.424 61.8927 207.028 62.6303 206.374 63.1182C205.719 63.6076 204.907 63.7945 203.939 63.6806C202.96 63.5651 202.218 63.1966 201.716 62.5738C201.214 61.9524 201.03 61.1551 201.163 60.1818ZM202.539 60.3023C202.444 60.993 202.545 61.5369 202.841 61.9351C203.137 62.3318 203.551 62.5622 204.081 62.6247C204.613 62.6875 205.073 62.5613 205.463 62.2485C205.853 61.9339 206.096 61.4234 206.193 60.7154C206.289 60.016 206.196 59.4746 205.91 59.0919C205.627 58.7083 205.21 58.4849 204.66 58.4199C204.111 58.3552 203.644 58.4776 203.261 58.7856C202.877 59.095 202.636 59.6 202.539 60.3023ZM209.359 58.1075L210.681 58.3309L210.036 61.6059C209.933 62.1264 209.883 62.4655 209.885 62.6243C209.892 62.8813 209.985 63.1035 210.166 63.288C210.347 63.4742 210.62 63.5974 210.985 63.6589C211.354 63.7213 211.647 63.6982 211.864 63.5881C212.081 63.4777 212.227 63.3238 212.306 63.1233C212.385 62.9229 212.472 62.5844 212.566 62.1062L213.226 58.7607L214.549 58.9842L213.922 62.1622C213.779 62.8881 213.642 63.3957 213.512 63.6833C213.381 63.9709 213.201 64.202 212.968 64.3765C212.738 64.5512 212.45 64.6711 212.106 64.7395C211.762 64.8079 211.333 64.7994 210.818 64.7123C210.196 64.6072 209.738 64.4615 209.443 64.2737C209.149 64.0859 208.929 63.87 208.784 63.6245C208.639 63.3792 208.562 63.1363 208.549 62.8913C208.531 62.5306 208.589 62.0114 208.722 61.3347L209.359 58.1075ZM214.744 65.3091L216.167 59.3084L218.924 59.8684C219.617 60.0091 220.108 60.166 220.397 60.3374C220.687 60.509 220.892 60.7512 221.016 61.0647C221.138 61.3796 221.159 61.7131 221.075 62.068C220.968 62.5192 220.738 62.8619 220.383 63.0972C220.028 63.3327 219.559 63.4306 218.973 63.3921C219.219 63.6018 219.412 63.8167 219.551 64.0366C219.692 64.257 219.862 64.6329 220.063 65.1624L220.576 66.4936L219.011 66.1758L218.383 64.6749C218.156 64.1414 217.995 63.8011 217.899 63.6542C217.803 63.5088 217.692 63.3984 217.564 63.3254C217.434 63.2524 217.219 63.1851 216.917 63.1238L216.651 63.07L216.057 65.5759L214.744 65.3091ZM216.878 62.1144L217.847 62.3113C218.475 62.4389 218.872 62.493 219.04 62.476C219.207 62.4589 219.351 62.3988 219.467 62.2963C219.585 62.1942 219.664 62.0523 219.707 61.872C219.755 61.6696 219.735 61.4956 219.648 61.3463C219.561 61.1984 219.416 61.0868 219.212 61.0117C219.108 60.9759 218.791 60.9043 218.262 60.7967L217.24 60.5892L216.878 62.1144ZM221.217 66.7147L222.815 60.7519L224.12 61.0515L222.522 67.0143L221.217 66.7147ZM224.002 65.352L225.295 65.5716C225.249 65.9807 225.312 66.3054 225.485 66.5495C225.659 66.7936 225.941 66.9672 226.331 67.0711C226.744 67.1813 227.081 67.1833 227.341 67.0765C227.601 66.9701 227.765 66.8085 227.833 66.5914C227.877 66.4512 227.869 66.3212 227.812 66.1989C227.755 66.0779 227.627 65.9516 227.429 65.8216C227.295 65.7321 226.98 65.5559 226.484 65.2898C225.846 64.9469 225.424 64.6233 225.219 64.3169C224.929 63.8871 224.858 63.4382 225.004 62.9697C225.098 62.6686 225.278 62.41 225.542 62.1964C225.808 61.9829 226.135 61.8541 226.523 61.809C226.912 61.7638 227.349 61.8063 227.839 61.9366C228.637 62.1491 229.187 62.4729 229.487 62.9088C229.789 63.3447 229.864 63.838 229.714 64.3919L228.409 64.0886C228.449 63.769 228.4 63.5192 228.262 63.338C228.124 63.1568 227.874 63.0173 227.515 62.9216C227.144 62.8226 226.83 62.8164 226.577 62.9036C226.413 62.9597 226.307 63.0636 226.259 63.2177C226.215 63.3578 226.242 63.4944 226.338 63.6274C226.461 63.7983 226.813 64.0351 227.396 64.3392C227.978 64.6419 228.396 64.9079 228.649 65.1331C228.903 65.3602 229.075 65.6221 229.166 65.9213C229.256 66.2206 229.243 66.5565 229.127 66.9289C229.022 67.267 228.822 67.5576 228.527 67.7988C228.231 68.0399 227.876 68.1834 227.46 68.2273C227.044 68.2727 226.559 68.2206 226.005 68.073C225.199 67.858 224.633 67.5213 224.308 67.0611C223.983 66.6023 223.882 66.0328 224.002 65.352ZM229.658 68.9759L231.853 63.1781L233.754 63.7945L233.379 68.113L235.986 64.5186L237.891 65.1365L235.695 70.9341L234.523 70.5539L236.247 65.9882L233.283 70.1518L232.064 69.7565L232.563 64.7934L230.83 69.3563L229.658 68.9759ZM244.501 74.3691L243.17 73.8423L243.237 72.3477L240.789 71.3789L239.688 72.4641L238.381 71.9468L243.361 67.236L244.666 67.7527L244.501 74.3691ZM243.278 71.2346L243.396 68.8082L241.605 70.5727L243.278 71.2346ZM248.969 74.0463L249.485 73.1242L252.046 74.35L250.829 76.5271C250.455 76.6331 249.984 76.6572 249.415 76.602C248.847 76.5462 248.321 76.402 247.835 76.1695C247.219 75.8746 246.749 75.4983 246.424 75.0388C246.101 74.58 245.949 74.0709 245.968 73.5147C245.987 72.9584 246.143 72.4168 246.436 71.8921C246.754 71.323 247.166 70.8792 247.67 70.5588C248.175 70.2403 248.742 70.0797 249.369 70.0807C249.849 70.0803 250.369 70.2149 250.932 70.4842C251.663 70.8344 252.156 71.2505 252.409 71.7321C252.66 72.2143 252.705 72.7336 252.542 73.2931L251.242 72.9314C251.309 72.624 251.271 72.3369 251.129 72.0709C250.988 71.8069 250.746 71.5928 250.402 71.4286C249.884 71.1803 249.385 71.1351 248.908 71.2947C248.431 71.4542 248.024 71.8341 247.688 72.4349C247.325 73.0841 247.209 73.6449 247.338 74.1172C247.468 74.5903 247.784 74.9473 248.287 75.1883C248.536 75.3073 248.811 75.3811 249.112 75.4104C249.413 75.4405 249.689 75.4324 249.941 75.389L250.328 74.6967L248.969 74.0463ZM251.491 77.8468L255.089 72.6843L259.219 75.1496L258.61 76.0221L255.611 74.2313L254.812 75.3778L257.601 77.0429L256.993 77.9154L254.204 76.2501L253.229 77.649L256.337 79.5049L255.729 80.3773L251.491 77.8468ZM256.74 80.884L260.771 76.0028L261.805 76.7339L261.274 81.5404L263.976 78.2693L264.963 78.9674L260.932 83.8486L259.865 83.0941L260.377 78.3735L257.728 81.5822L256.74 80.884ZM266.855 85.5163L267.579 86.5794C266.951 86.9718 266.345 87.1518 265.762 87.1213C265.18 87.0897 264.619 86.8599 264.079 86.43C263.41 85.8974 263.057 85.2485 263.019 84.4825C262.983 83.7173 263.304 82.968 263.987 82.2341C264.707 81.4591 265.484 81.0289 266.316 80.9438C267.147 80.8588 267.916 81.0975 268.621 81.659C269.237 82.1496 269.58 82.7169 269.651 83.3601C269.695 83.7423 269.6 84.1647 269.367 84.6301L268.156 84.0508C268.32 83.7627 268.374 83.4731 268.315 83.183C268.255 82.8921 268.09 82.6399 267.821 82.4253C267.447 82.1278 267.029 82.0098 266.566 82.0733C266.103 82.1349 265.614 82.4437 265.098 82.9986C264.552 83.5861 264.277 84.097 264.273 84.5283C264.271 84.9614 264.452 85.3232 264.818 85.6151C265.089 85.8305 265.396 85.937 265.738 85.9325C266.081 85.9285 266.453 85.7906 266.855 85.5163ZM266.943 88.8232L271.776 84.6123L272.698 85.5183L267.864 89.7293L266.943 88.8232ZM268.773 90.5637L273.887 86.6477L277.02 90.1517L276.155 90.8135L273.88 88.2682L272.744 89.1377L274.86 91.5047L273.995 92.1664L271.88 89.7996L270.494 90.8606L272.852 93.4986L271.987 94.1603L268.773 90.5637ZM274.324 93.7011L275.113 94.6726C274.781 94.9451 274.589 95.2235 274.538 95.5118C274.487 95.7999 274.568 96.1042 274.779 96.4257C275.002 96.7654 275.248 96.9782 275.517 97.0629C275.786 97.1474 276.025 97.1316 276.234 97.0143C276.369 96.9385 276.458 96.838 276.506 96.7124C276.552 96.5876 276.551 96.4145 276.5 96.195C276.467 96.0448 276.364 95.7177 276.194 95.2109C275.975 94.559 275.902 94.0563 275.975 93.7023C276.077 93.2047 276.353 92.8302 276.803 92.5768C277.093 92.4142 277.414 92.3368 277.765 92.3452C278.117 92.3546 278.451 92.4647 278.77 92.6751C279.09 92.8856 279.38 93.1906 279.645 93.5939C280.076 94.2501 280.244 94.8334 280.146 95.342C280.049 95.852 279.743 96.2617 279.227 96.5752L278.489 95.5344C278.753 95.3243 278.899 95.1097 278.93 94.8897C278.961 94.6697 278.88 94.4109 278.686 94.1152C278.485 93.8098 278.259 93.6089 278.009 93.5138C277.847 93.4524 277.693 93.4622 277.545 93.5454C277.41 93.6212 277.33 93.7385 277.304 93.897C277.268 94.0993 277.354 94.4944 277.56 95.0832C277.767 95.6711 277.88 96.1285 277.901 96.4529C277.922 96.7791 277.857 97.0799 277.704 97.3567C277.552 97.6335 277.296 97.8725 276.939 98.0738C276.614 98.2565 276.254 98.345 275.86 98.3374C275.466 98.3293 275.1 98.2126 274.762 97.9844C274.423 97.7569 274.104 97.4142 273.804 96.9585C273.369 96.2949 273.199 95.6924 273.297 95.1504C273.393 94.6091 273.737 94.1266 274.324 93.7011Z" fill="#D6D7D8"/>
<path fill-rule="evenodd" clip-rule="evenodd" d="M87.2188 116.012H272.78L272.75 117.233H87.2494L87.2188 116.012Z" fill="#5C5E62"/>
<path d="M253.74 144.605C230.71 126.88 124.753 126.958 105.973 144.411" stroke="#5C5E62" stroke-width="1.0247"/>
<path d="M209.269 116.012C208.875 123.48 206.581 131.069 202.504 137.643" stroke="#5C5E62" stroke-width="1.0136"/>
<path d="M148.66 116.012C149.248 123.3 152.016 130.673 156.834 137.095" stroke="#5C5E62" stroke-width="1.0135"/>
<path d="M179.672 116.012C179.672 130.671 179.672 130.445 179.672 135.276" stroke="#5C5E62" stroke-width="1.0135"/>
<path d="M242.464 116.012C243.377 124.869 239.974 133.762 232.105 140.96" stroke="#5C5E62" stroke-width="1.0136"/>
<path d="M116.953 116.012C117.469 124.636 120.479 133.401 125.827 140.993" stroke="#5C5E62" stroke-width="1.0131"/>
<path fill-rule="evenodd" clip-rule="evenodd" d="M205.712 110.647L213.897 110.658C214.755 109.421 215.078 107.391 215.392 105.832L224.58 105.842C225.37 107.022 225.761 109.045 226.09 110.67L234.776 110.639L224.763 81.3026L215.952 81.308L205.712 110.647ZM217.246 99.413L223.106 99.4952L220.278 89.2264L217.246 99.413ZM125.223 110.637L133.361 110.648L134.884 105.859L144.425 105.866L145.65 110.637L154.237 110.668L144.311 81.399L135.285 81.291L125.223 110.637ZM136.761 99.4142L142.572 99.4724C142.232 97.7428 141.65 96.049 141.233 94.5009C140.826 92.9866 140.37 90.5478 139.459 89.4253L136.761 99.4142ZM182.082 88.5628L190.508 88.5614L190.496 110.584L198.759 110.671L198.766 88.603L207.214 88.5232L207.212 81.3982L182.172 81.2952L182.082 88.5628ZM156.929 110.663L165.101 110.654L165.261 87.3024C168.398 87.2519 171.169 87.2026 171.529 90.0726C171.931 93.2793 169.346 93.6764 166.311 93.8804L166.328 99.7354C170.829 99.9478 175.109 99.6473 177.285 97.1708C179.357 94.8117 180.305 90.3521 179.031 86.5076C177.831 82.884 175.563 81.5027 170.768 81.3219C167.232 81.1888 160.315 81.0257 156.986 81.4164L156.929 110.663Z" fill="#5C5E62"/>
<path fill-rule="evenodd" clip-rule="evenodd" d="M136.137 144.735C136.23 148.718 137.338 146.875 142.185 147.767C141.635 148.965 136.664 153.701 135.112 155.239C133.142 157.191 131.118 157.564 133.172 160.762C134.034 162.104 134.009 162.038 136.089 162.174C138.738 162.347 141.693 163.151 143.901 163.03C145.76 159.01 141.184 159.639 137.291 159.199C137.972 157.572 146.237 148.372 146.459 149.051C146.459 149.051 147.673 149.059 147.659 150.477C147.605 155.93 147.483 156.021 146.277 159.494C145.788 161.159 145.095 162.136 146.267 163.468C148.311 165.793 147.557 165.407 149.402 164.003C151.114 165.334 151.253 166.026 153.858 164.605C157.117 162.827 158.127 159.042 155.602 156.256C161.909 149.783 154.128 144.579 146.786 146.597C143.924 145.448 137.937 143.866 136.137 144.735ZM151.426 153.983C154.598 153.822 157.263 149.216 151.54 149.725L151.426 153.983ZM149.971 161.565C152.06 162.22 153.945 159.761 153.588 157.877C152.627 156.999 152.48 156.875 150.897 156.951C150.072 158.212 149.445 160.416 149.971 161.565Z" fill="#5C5E62" stroke="#D6D7D8" stroke-width="0.5068" stroke-linejoin="round"/>
<path fill-rule="evenodd" clip-rule="evenodd" d="M232.609 159.86C232.717 158.022 229.762 151.924 228.974 149.729C235.024 153.394 234.755 157.718 240.476 157.92C239.715 155.086 237.988 152.927 237.247 149.681C234.69 145.907 236.115 139.942 231.184 140.682C230.926 142.707 233.312 147.879 234.051 149.953C232.497 149.077 230.11 146.529 228.496 145.187C226.592 143.604 225.598 141.685 222.043 143.139C222.793 144.828 223.712 144.75 224.634 146.869C226.689 151.599 226.856 159.323 232.609 159.86Z" fill="#5C5E62" stroke="#D6D7D8" stroke-width="0.5068" stroke-linejoin="round"/>
<path fill-rule="evenodd" clip-rule="evenodd" d="M212.941 156.71C213.189 158.44 213.305 157.849 214.154 158.875C216.138 161.273 213.512 163.625 219.275 163.269L218.648 157.919L222.219 156.715C223.564 161.615 223.93 162.926 227.764 161.921C228.077 161.199 228.022 162.008 227.829 160.996C227.759 160.628 227.672 160.509 227.541 160.204C227.253 159.534 226.965 159.068 226.629 158.334C225.996 156.947 225.3 155.728 224.895 154.247C221.984 151.038 222.066 144.167 216.174 144.914L216.989 146.719C213.583 147.036 215.439 151.649 214.51 156.001C213.427 156.641 213.947 156.467 212.941 156.71ZM218.294 154.54L220.933 154.307C220.531 152.899 219.717 150.93 218.573 150.067L218.294 154.54Z" fill="#5C5E62" stroke="#D6D7D8" stroke-width="0.5068" stroke-linejoin="round"/>
<path fill-rule="evenodd" clip-rule="evenodd" d="M170.558 159.572C170.433 162.004 169.865 164.022 170.221 166.535C174.117 167.295 173.537 166.046 173.717 163.991C174.148 159.08 173.497 157.468 177.567 164.188C180.49 168.265 180.679 168.495 184.096 167.502C183.695 166.596 179.097 161.583 177.371 158.429C179.458 156.74 179.708 156.577 181.065 154C182.385 151.494 182.529 150.066 180.08 148.988C178.863 149.768 177.325 154.123 174.758 156.01C174.632 150.751 176.525 148.95 171.219 148.855L170.558 159.572Z" fill="#5C5E62" stroke="#D6D7D8" stroke-width="0.5068" stroke-linejoin="round"/>
<path fill-rule="evenodd" clip-rule="evenodd" d="M125.853 159.925C128.041 159.982 129.945 157.835 130.913 156.66C132.8 154.37 138.404 144.045 133.219 142.845C132.003 144.533 130.38 150.874 128.695 153.96C120.595 162.174 128.753 142.593 128.698 141.56L126.308 140.43C124.811 142.055 123.481 144.83 122.549 147.413C121.272 150.949 119.7 159.764 125.853 159.925Z" fill="#5C5E62" stroke="#D6D7D8" stroke-width="0.5068" stroke-linejoin="round"/>
<path fill-rule="evenodd" clip-rule="evenodd" d="M161.091 166.099C163.153 166.957 167.395 166.597 168.929 165.276C169.083 161.796 166.073 163.836 162.856 163.333L163.461 158.597L168.068 158.341C168.351 155.53 166.792 155.827 164.276 155.523C163.978 153.895 164.837 152.599 165.249 151.162L170.229 151.15C169.429 148.06 163.308 146.879 160.397 148.534C159.795 149.278 159.786 148.292 160.059 149.913C160.138 150.381 160.505 150.779 160.717 151.242C161.798 153.607 156.182 164.055 161.091 166.099Z" fill="#5C5E62" stroke="#D6D7D8" stroke-width="0.5068" stroke-linejoin="round"/>
<path fill-rule="evenodd" clip-rule="evenodd" d="M195.702 159.651C199.485 161.746 195.409 165.14 191.59 162.611C190.746 163.818 190.854 163.762 191.059 165.428C197.297 168.713 207.366 161.46 194.592 155.649C190.205 153.012 194.233 150.791 195.879 150.579C194.953 156.981 200.469 152.052 199.128 149.29C197.576 146.469 191.011 147.49 189.44 151.892C187.707 156.746 194.316 158.279 195.702 159.651Z" fill="#5C5E62" stroke="#D6D7D8" stroke-width="0.5068" stroke-linejoin="round"/>
<path fill-rule="evenodd" clip-rule="evenodd" d="M200.777 148.537C201.395 151.872 203.358 150.318 205.339 150.196C206.058 152.177 206.278 156.441 206.569 158.749C207.073 162.739 206.305 164.129 211.032 164.655C211.149 160.056 208.948 154.878 209.266 149.298L212.595 148.284C211.237 143.103 201.627 147.76 200.777 148.537Z" fill="#5C5E62" stroke="#D6D7D8" stroke-width="0.5068" stroke-linejoin="round"/>
<path fill-rule="evenodd" clip-rule="evenodd" d="M189.231 166.839C189.178 162.623 188.763 153.814 188.237 149.968C187.229 149.456 185.946 148.464 184.289 148.258C184.645 158.375 184.889 158.443 185.017 166.255C185.017 166.255 187.487 166.88 189.231 166.839Z" fill="#5C5E62" stroke="#D6D7D8" stroke-width="0.5068" stroke-linejoin="round"/>
</g>
<defs>
<clipPath id="clip0_779_33">
<rect width="256" height="125" fill="white" transform="translate(52 48)"/>
</clipPath>
</defs>
</svg>
