<svg width="360" height="221" viewBox="0 0 360 221" fill="none" xmlns="http://www.w3.org/2000/svg">
<rect width="360" height="221" fill="#D6D7D8"/>
<path d="M94.7388 128.466C80.1254 122.661 60.4368 130.721 50.8672 121.357C53.4726 132.779 63.3282 133.184 70.2668 131.469C77.3319 129.718 85.6026 127.543 92.6225 130.736C96.0611 132.529 99.2012 134.91 101.918 137.785C100.234 132.885 94.7388 128.476 94.7388 128.476" fill="#5C5E62"/>
<path d="M109.096 128.466C123.709 122.661 143.401 130.721 152.968 121.357C150.362 132.779 140.507 133.184 133.568 131.469C126.503 129.718 118.232 127.543 111.212 130.736C107.774 132.528 104.634 134.91 101.918 137.785C103.601 132.885 109.096 128.476 109.096 128.476" fill="#5C5E62"/>
<path d="M107.207 127.812C117.499 117.915 137.192 121.552 145.403 108.862C148.303 104.377 149.581 97.6056 144.522 93.1531C140.82 89.8964 133.987 92.5111 133.987 92.5111L133.491 90.4068C133.642 90.3346 135.191 89.662 135.346 89.5946C147.731 84.2353 159.729 96.4275 154.637 110.461C151.816 118.232 144.519 122.398 136.679 123.454C127.242 124.738 113.5 124.15 108.383 129.474C103.265 134.799 101.926 136.042 101.926 136.042C101.926 136.042 102.585 132.266 107.213 127.816" fill="#5C5E62"/>
<path d="M96.6299 127.812C86.3378 117.915 66.6447 121.552 58.4342 108.862C55.5338 104.377 54.2559 97.6056 59.3147 93.1531C63.0173 89.8964 69.8506 92.5111 69.8506 92.5111L70.3458 90.4068C70.1953 90.3346 68.6465 89.662 68.4915 89.5946C56.1057 84.2353 44.1083 96.4275 49.2002 110.461C52.0208 118.232 59.3177 122.398 67.1564 123.454C76.5936 124.738 90.3354 124.15 95.4529 129.474C100.57 134.799 101.91 136.042 101.91 136.042C101.91 136.042 101.251 132.266 96.6224 127.816" fill="#5C5E62"/>
<path d="M102.811 133.321C109.623 127.52 116.718 122.109 124.066 117.109C134.035 110.596 140.915 103.195 135.895 91.5884C132.522 83.7957 122.421 80.3753 115.165 84.9739C105.814 90.9014 106.785 103.339 114.438 105.667C116.676 104.069 118.712 102.173 120.499 100.025C119.585 99.7826 118.701 99.4231 117.868 98.9541C116.609 98.1308 115.603 96.9318 114.976 95.5054C114.349 94.0789 114.128 92.4878 114.34 90.9287C115.326 83.9241 124.828 83.6047 127.969 89.8052C128.878 91.7299 129.349 93.8553 129.345 96.0101C129.341 98.1648 128.862 100.288 127.947 102.209C126.232 105.986 122.739 109.098 119.518 111.552C113.72 115.963 107.834 119.695 103.088 125.443C101.753 127.059 104.104 128.569 103.261 130.476C103.148 130.72 103.048 130.971 102.96 131.226C102.85 131.915 102.8 132.614 102.809 133.312" fill="#5C5E62"/>
<path d="M100.883 131.227C100.794 130.972 100.694 130.722 100.582 130.478C99.7387 128.569 102.087 127.06 100.755 125.444C96.0105 119.696 90.1224 115.964 84.3261 111.554C81.1021 109.099 77.6072 105.987 75.8974 102.212C74.982 100.291 74.5033 98.1673 74.4999 96.0125C74.4965 93.8577 74.9685 91.7323 75.8778 89.808C79.016 83.606 88.5209 83.9238 89.5053 90.9316C89.7174 92.4904 89.4965 94.0814 88.8697 95.5078C88.2429 96.9341 87.2378 98.1333 85.9788 98.957C85.1448 99.4267 84.2603 99.7862 83.3448 100.028C85.1319 102.177 87.1693 104.074 89.4075 105.673C97.0626 103.344 98.0334 90.9059 88.6805 84.9799C81.4242 80.3782 71.3233 83.7986 67.9518 91.5912C62.9322 103.193 69.8122 110.594 79.7807 117.112C87.1292 122.111 94.2238 127.523 101.035 133.323C101.044 132.624 100.994 131.926 100.884 131.237" fill="#5C5E62"/>
<path d="M104.656 121.367C104.581 120.235 104.464 119.108 104.327 117.996C103.62 113.504 103.326 108.95 103.451 104.398C103.672 100.723 104.315 97.0914 105.367 93.5841C106.503 90.3437 107.806 87.1726 109.27 84.0853C109.994 82.6175 110.372 80.9839 110.372 79.3254C110.372 77.6669 109.994 76.0333 109.27 74.5655C108.316 73.1239 107.045 71.9539 105.568 71.1583C104.091 70.3627 102.454 69.9657 100.8 70.0023C92.4271 70.0023 86.7813 82.0918 96.5195 88.1799C98.2055 85.8667 100.007 83.6522 101.917 81.546C100.91 81.3718 99.9587 80.937 99.146 80.2797C98.5727 79.6942 98.1804 78.9362 98.0214 78.1069C97.8625 77.2775 97.9445 76.4161 98.2565 75.6377C98.8013 74.5051 99.736 73.6413 100.865 73.2272C101.993 72.8131 103.229 72.8809 104.312 73.4163C109.974 75.9331 106.831 82.9425 104.542 86.777C101.844 90.889 99.4976 95.2515 97.5325 99.8119C96.0651 103.033 95.0827 106.481 94.6216 110.028C94.0316 115.58 93.5499 123.44 97.0975 128.108C99.0542 130.676 99.6397 133.023 100.913 135.992C100.744 135.604 103.235 131.785 103.5 131.109C104.596 128 104.991 124.66 104.653 121.358" fill="#5C5E62"/>
<path d="M101.921 137.778L98.0585 133.154L96.9297 130.441L105.179 131.603L108.691 131.324L103.044 136.449L101.921 137.778Z" fill="#5C5E62"/>
<path d="M101.921 137.778L98.0585 133.154L96.9297 130.441L105.179 131.603L108.691 131.324L103.044 136.449L101.921 137.778Z" fill="#5C5E62"/>
<path d="M86.401 135.806C77.301 136.256 77.5494 137.707 67.0285 139.432C76.5816 136.967 81.9052 130.892 96.3665 135.471C94.5499 133.753 92.4008 132.483 90.072 131.75C84.7154 130.596 79.1582 131.154 74.0981 133.356C71.0278 134.638 67.7627 135.309 64.4652 135.335C63.3921 136.535 60.2072 140.163 57.4453 143.978C70.3985 143.689 82.438 138.084 97.3538 140.854C97.6472 139.933 98.2128 139.139 98.9659 138.59C94.9754 136.829 90.7098 135.886 86.392 135.808" fill="#5C5E62"/>
<path d="M99.7692 145.257L98.7954 144.326C96.0771 142.037 88.434 142.58 84.9241 143.042C77.269 144.033 64.1442 146.681 57.3516 147.103L57.3606 147.117L57.5698 149.758C71.2665 148.385 80.8105 146.187 86.4427 145.559C89.9366 145.079 93.487 145.449 96.8281 146.639C97.0892 146.797 97.325 146.998 97.5265 147.235C98.1336 147.826 98.9287 148.151 99.7511 148.142H101.914V145.262L99.7692 145.257Z" fill="#5C5E62"/>
<path d="M139.361 135.334C136.064 135.309 132.799 134.638 129.728 133.355C124.669 131.154 119.112 130.596 113.756 131.75C111.427 132.484 109.278 133.754 107.461 135.472C121.921 130.893 127.245 136.97 136.798 139.435C126.279 137.708 126.527 136.256 117.427 135.809C113.109 135.887 108.842 136.83 104.852 138.591C105.605 139.139 106.172 139.933 106.465 140.854C121.381 138.087 133.42 143.692 146.374 143.981C143.612 140.166 140.427 136.537 139.354 135.336" fill="#5C5E62"/>
<path d="M146.474 147.115L146.482 147.099C139.689 146.675 126.564 144.027 118.908 143.038C115.398 142.582 107.755 142.038 105.038 144.322L104.061 145.253H101.918V148.133H104.079C104.901 148.144 105.697 147.823 106.305 147.234C106.507 146.997 106.743 146.796 107.005 146.64C110.346 145.448 113.897 145.078 117.391 145.56C123.026 146.187 132.57 148.384 146.265 149.757L146.474 147.115Z" fill="#5C5E62"/>
<path d="M191.032 83.58V85.326H185.578V96H183.58V85.326H178.126V83.58H191.032ZM205.39 83.58V96H203.41V90.51H195.238V96H193.258V83.58H195.238V88.764H203.41V83.58H205.39ZM218.498 83.58V85.326H210.974V88.782H217.778V90.474H210.974V94.218H218.678V96H208.994V83.58H218.498ZM239.007 92.58C239.007 94.596 237.387 96 233.607 96H227.757V83.58H233.589C237.009 83.58 238.413 84.786 238.413 86.694C238.413 88.368 237.387 89.25 236.253 89.502V89.538C237.675 89.808 239.007 90.726 239.007 92.58ZM236.433 86.946C236.433 85.83 235.551 85.29 233.373 85.29H229.737V88.818H233.373C235.497 88.818 236.433 88.098 236.433 86.946ZM236.991 92.418C236.991 91.14 235.965 90.42 233.427 90.42H229.737V94.236H233.553C236.001 94.236 236.991 93.606 236.991 92.418ZM253.214 96H250.712L247.436 91.536C247.328 91.536 247.202 91.536 247.076 91.536H243.908V96H241.928V83.58H247.076C250.946 83.58 252.746 84.912 252.746 87.504C252.746 89.376 251.666 90.69 249.578 91.248L253.214 96ZM250.712 87.576C250.712 86.064 249.596 85.326 247.004 85.326H243.908V89.862H246.878C249.506 89.862 250.712 89.034 250.712 87.576ZM258.084 83.58V96H256.086V83.58H258.084ZM273.375 83.58V85.326H267.921V96H265.923V85.326H260.469V83.58H273.375ZM277.761 83.58V96H275.763V83.58H277.761ZM290.654 84.57L289.952 86.19C289.358 85.866 288.062 85.092 286.064 85.092C284.066 85.092 282.932 85.578 282.932 86.568C282.932 87.756 283.886 88.08 286.694 88.764C289.52 89.448 291.14 90.564 291.14 92.562C291.14 94.92 289.196 96.216 285.794 96.216C282.95 96.216 281.456 95.334 280.7 94.848L281.384 93.12C281.96 93.498 283.472 94.434 285.758 94.434C287.918 94.434 289.106 93.984 289.106 92.778C289.106 91.716 288.224 91.122 285.416 90.42C282.608 89.718 280.97 88.872 280.97 86.73C280.97 84.588 282.986 83.364 286.028 83.364C288.62 83.364 289.934 84.156 290.654 84.57ZM306.074 83.58V96H304.094V90.51H295.922V96H293.942V83.58H295.922V88.764H304.094V83.58H306.074ZM188.476 106.57L187.774 108.19C187.18 107.866 185.884 107.092 183.886 107.092C181.888 107.092 180.754 107.578 180.754 108.568C180.754 109.756 181.708 110.08 184.516 110.764C187.342 111.448 188.962 112.564 188.962 114.562C188.962 116.92 187.018 118.216 183.616 118.216C180.772 118.216 179.278 117.334 178.522 116.848L179.206 115.12C179.782 115.498 181.294 116.434 183.58 116.434C185.74 116.434 186.928 115.984 186.928 114.778C186.928 113.716 186.046 113.122 183.238 112.42C180.43 111.718 178.792 110.872 178.792 108.73C178.792 106.588 180.808 105.364 183.85 105.364C186.442 105.364 187.756 106.156 188.476 106.57ZM191.062 111.79C191.062 107.47 194.5 105.364 198.388 105.364C201.232 105.364 202.348 106.174 203.158 106.696L202.402 108.334C201.736 107.884 200.71 107.146 198.424 107.146C195.436 107.146 193.096 108.64 193.096 111.736C193.096 114.94 195.166 116.38 198.172 116.38C200.62 116.38 201.97 115.57 202.456 115.246L203.104 116.866C202.546 117.28 200.926 118.216 198.028 118.216C193.996 118.216 191.062 116.308 191.062 111.79ZM217.979 105.58V118H215.999V112.51H207.827V118H205.847V105.58H207.827V110.764H215.999V105.58H217.979ZM235.047 111.79C235.047 115.768 232.257 118.216 227.955 118.216C223.671 118.216 220.881 115.768 220.881 111.79C220.881 107.812 223.671 105.364 227.973 105.364C232.257 105.364 235.047 107.812 235.047 111.79ZM233.013 111.772C233.013 108.91 230.979 107.146 227.973 107.146C224.949 107.146 222.915 108.91 222.915 111.772C222.915 114.634 224.949 116.38 227.973 116.38C230.979 116.38 233.013 114.634 233.013 111.772ZM251.521 111.79C251.521 115.768 248.731 118.216 244.429 118.216C240.145 118.216 237.355 115.768 237.355 111.79C237.355 107.812 240.145 105.364 244.447 105.364C248.731 105.364 251.521 107.812 251.521 111.79ZM249.487 111.772C249.487 108.91 247.453 107.146 244.447 107.146C241.423 107.146 239.389 108.91 239.389 111.772C239.389 114.634 241.423 116.38 244.447 116.38C247.453 116.38 249.487 114.634 249.487 111.772ZM256.406 105.58V116.218H264.128V118H254.426V105.58H256.406ZM285.757 111.79C285.757 115.768 282.967 118.216 278.665 118.216C274.381 118.216 271.591 115.768 271.591 111.79C271.591 107.812 274.381 105.364 278.683 105.364C282.967 105.364 285.757 107.812 285.757 111.79ZM283.723 111.772C283.723 108.91 281.689 107.146 278.683 107.146C275.659 107.146 273.625 108.91 273.625 111.772C273.625 114.634 275.659 116.38 278.683 116.38C281.689 116.38 283.723 114.634 283.723 111.772ZM298.147 105.58V107.326H290.641V111.61H297.499V113.356H290.641V118H288.661V105.58H298.147ZM191.032 127.58V129.326H185.578V140H183.58V129.326H178.126V127.58H191.032ZM198.229 127.58L203.917 140H201.739L200.101 136.31H194.107L192.505 140H190.381L196.069 127.58H198.229ZM199.453 134.78L197.131 129.434H197.095L194.773 134.78H199.453ZM215.219 128.57L214.517 130.19C213.923 129.866 212.627 129.092 210.629 129.092C208.631 129.092 207.497 129.578 207.497 130.568C207.497 131.756 208.451 132.08 211.259 132.764C214.085 133.448 215.705 134.564 215.705 136.562C215.705 138.92 213.761 140.216 210.359 140.216C207.515 140.216 206.021 139.334 205.265 138.848L205.949 137.12C206.525 137.498 208.037 138.434 210.323 138.434C212.483 138.434 213.671 137.984 213.671 136.778C213.671 135.716 212.789 135.122 209.981 134.42C207.173 133.718 205.535 132.872 205.535 130.73C205.535 128.588 207.551 127.364 210.593 127.364C213.185 127.364 214.499 128.156 215.219 128.57ZM230.639 127.58V140H228.659V134.51H220.487V140H218.507V127.58H220.487V132.764H228.659V127.58H230.639ZM236.223 127.58V132.8H238.113L243.495 127.58H246.195L239.895 133.61L246.609 140H243.747L238.167 134.528H236.223V140H234.243V127.58H236.223ZM258.305 127.58V129.326H250.781V132.782H257.585V134.474H250.781V138.218H258.485V140H248.801V127.58H258.305ZM273.487 127.58V140H271.471L263.389 130.586H263.353V140H261.373V127.58H263.389L271.471 136.994H271.507V127.58H273.487ZM288.615 127.58V129.326H283.161V140H281.163V129.326H275.709V127.58H288.615Z" fill="#5C5E62"/>
</svg>
