<svg width="360" height="221" viewBox="0 0 360 221" fill="none" xmlns="http://www.w3.org/2000/svg">
<rect width="360" height="221" fill="#D6D7D8"/>
<g clip-path="url(#clip0_779_43)">
<path fill-rule="evenodd" clip-rule="evenodd" d="M259.127 134.005C259.133 134.644 259.289 134.734 259.559 134.301C261.11 131.806 266.578 123.132 269.942 119.405C273.893 115.03 277.008 114.237 281.599 117.525C286.192 120.813 289.779 124.78 294.107 126.366C298.436 127.955 308.001 127.329 308.001 127.329L306.467 136.283C306.467 136.283 297.854 136.966 292.101 135.268C286.348 133.565 281.336 129.143 279.17 127.557C277.008 125.97 275.447 125.877 274.094 127.426C272.739 128.978 266.744 138.804 263.721 143.534C260.702 148.266 255.25 150.76 252.765 144.276C250.584 138.582 249.56 73.9862 249.548 73.4172C249.536 72.8473 249.108 72.8551 248.988 73.4017C248.868 73.9457 231.621 153.793 229.159 162.167C226.415 171.505 220.22 174.235 217.362 166.474C214.502 158.709 212.448 146.609 211.401 141.99C210.428 137.709 209.336 137.819 205.602 140.695C201.868 143.569 196.217 147.829 190.018 147.829C183.817 147.829 129.156 147.829 129.156 147.829L130.79 138.293C130.79 138.293 180.609 138.292 188.415 138.292C196.222 138.292 199.821 132.406 204.031 129.405C208.24 126.405 212.868 125.422 216.157 130.415C219.367 135.288 220.484 145.328 222.653 155.928C222.707 156.191 222.914 156.194 222.964 155.931C228.077 128.897 240.07 76.5719 243.698 60.9798C247.326 45.3902 255.804 44.9383 256.75 60.0794C257.696 75.2197 259.032 125.548 259.127 134.005Z" fill="#B0B3B6"/>
<path fill-rule="evenodd" clip-rule="evenodd" d="M303.724 128.317C300.623 128.317 296.39 128.122 293.843 127.188C290.842 126.086 288.224 123.924 285.452 121.634C284.083 120.503 282.666 119.334 281.149 118.247C279.364 116.968 277.886 116.372 276.499 116.372C274.635 116.372 272.792 117.494 270.519 120.011C267.214 123.671 261.807 132.242 260.229 134.782C260.128 134.945 259.824 135.434 259.286 135.434C258.962 135.434 258.559 135.238 258.399 134.684C258.348 134.506 258.322 134.294 258.317 134.017C258.231 126.188 256.908 77.4378 255.943 61.9903C255.731 58.6177 254.861 51.7212 251.404 51.7212C247.949 51.7212 245.331 59.3924 244.479 63.0465C244.172 64.3677 238.485 87.9031 233.35 110.975C228.373 133.335 223.941 155.259 223.755 156.104C223.374 157.818 222.108 157.315 221.864 156.116C221.62 154.915 220.889 151.092 220.447 148.686C219.05 141.062 217.841 134.478 215.496 130.918C214.777 129.823 213.961 129.005 213.075 128.488C212.271 128.018 211.38 127.779 210.427 127.779C208.665 127.779 206.663 128.57 204.476 130.13C203.42 130.882 202.393 131.834 201.304 132.843C198.107 135.806 194.484 139.16 188.414 139.16H131.468L131.086 141.389H188.414C191.26 141.389 193.849 140.684 196.323 139.234C198.462 137.981 200.253 136.323 201.832 134.861C202.901 133.87 203.909 132.934 204.922 132.213C206.975 130.751 208.826 130.009 210.427 130.009C211.244 130.009 212.004 130.213 212.689 130.613C213.466 131.068 214.191 131.795 214.838 132.78C217.084 136.188 220.052 153.327 220.891 156.567C221.729 159.807 224.239 158.883 224.819 156.269C225.399 153.655 235.198 108.085 244.84 67.4614C245.064 66.5197 245.213 65.8956 245.262 65.6796C246.087 62.1314 248.048 55.0102 250.944 55.0102C253.84 55.0102 254.934 61.2242 255.137 64.4745C256.116 80.1131 257.427 126.979 257.511 134.4C257.515 134.761 257.553 135.051 257.628 135.312C257.866 136.14 258.519 136.673 259.286 136.673C259.728 136.673 260.367 136.493 260.9 135.635C262.468 133.11 267.611 125.706 270.868 122.099C272.974 119.766 274.641 118.723 276.267 118.723C277.487 118.723 278.823 119.211 280.472 120.391C281.965 121.461 283.462 122.583 284.821 123.706C287.649 126.043 290.254 127.958 293.381 129.105C296.035 130.077 300.308 130.365 303.47 130.365L306.66 130.321L307.015 128.252C306.228 128.284 305.069 128.317 303.724 128.317Z" fill="#5C5E62"/>
<path d="M305.977 134.316H302.142C299.39 134.316 295.636 133.998 292.5 133.072C287.796 131.68 283.622 128.147 281.103 126.184C280.623 125.811 280.199 125.505 279.857 125.233C277.079 123.019 274.485 123.714 272.744 126.306C271.759 127.776 267.336 134.627 263.059 141.437C258.813 148.193 253.368 146.69 252.692 138.366C253.56 150.741 260.064 147.438 263.059 143.045C266.057 138.645 272.493 127.996 273.504 126.837C274.309 125.913 275.229 125.447 276.241 125.447C277.24 125.447 278.348 125.904 279.626 126.842C279.977 127.099 280.392 127.421 280.872 127.794C283.392 129.758 287.61 133.041 292.317 134.431C295.451 135.358 299.39 135.553 302.142 135.553C303.599 135.553 305.782 135.459 305.782 135.459L305.977 134.316ZM250.299 70.4575C250.28 68.8298 249.226 68.81 248.84 70.479C248.806 70.6254 248.637 71.3794 248.357 72.6361C248.354 72.6465 248.354 72.6559 248.351 72.668C248.808 70.5531 250.291 70.6538 250.333 73.2172C250.332 73.1423 250.33 73.0691 250.33 72.9985C250.313 71.66 250.303 70.7777 250.299 70.4575ZM217.014 160.175C214.09 148.283 212.892 142.493 212.647 141.415C212.344 140.083 211.986 138.908 211.613 138.291C211.133 137.495 210.23 136.269 207.505 137.896C207.545 137.842 207.584 137.788 207.623 137.736C207.634 137.72 207.645 137.707 207.656 137.692C207.685 137.652 207.714 137.614 207.744 137.579C207.754 137.564 207.766 137.55 207.777 137.535C207.81 137.493 207.845 137.452 207.879 137.411C207.883 137.405 207.887 137.399 207.893 137.393C207.934 137.345 207.975 137.298 208.016 137.253C208.019 137.249 208.022 137.245 208.025 137.241C208.062 137.202 208.097 137.162 208.135 137.124L208.156 137.102C208.191 137.066 208.228 137.028 208.263 136.993C208.267 136.99 208.27 136.985 208.274 136.984C208.532 136.732 208.937 136.482 209.209 136.326C207.599 136.288 205.81 137.592 204.787 138.382C201.4 140.989 196.078 145.355 190.019 145.355H130.409L130.133 146.964H190.019C196.078 146.964 201.745 142.598 205.134 139.989C206.956 138.586 208.224 137.774 209.313 137.774C210.091 137.774 210.729 138.178 211.211 138.973C211.583 139.588 211.883 140.458 212.187 141.786C212.43 142.867 212.73 144.35 213.075 146.068C214.216 151.717 215.993 160.577 218.112 166.154C220.241 171.759 225.78 170.778 228.385 161.902V161.899C226.04 169.031 219.741 171.272 217.014 160.175Z" fill="#B0B3B6"/>
<path fill-rule="evenodd" clip-rule="evenodd" d="M213.29 139.763C213.288 139.754 213.286 139.745 213.284 139.734C211.66 132.452 207.173 134.926 204.157 137.313C201.14 139.7 196.027 144.363 190.247 144.363H130.576L130.406 145.354H190.016C196.075 145.354 201.397 140.988 204.783 138.38C205.796 137.6 207.553 136.317 209.15 136.324C210.621 135.544 211.864 136.446 212.335 137.229C212.704 137.839 213.005 138.634 213.29 139.763Z" fill="#B0B3B6"/>
<path fill-rule="evenodd" clip-rule="evenodd" d="M303.468 130.364C300.307 130.364 296.033 130.075 293.38 129.103C290.253 127.956 287.648 126.041 284.819 123.705C283.461 122.582 281.964 121.46 280.471 120.39C278.821 119.209 277.486 118.722 276.266 118.722C274.639 118.722 272.973 119.764 270.867 122.097C267.61 125.705 262.467 133.109 260.899 135.634C260.366 136.492 259.727 136.672 259.285 136.672C258.517 136.672 257.865 136.139 257.627 135.31C257.552 135.05 257.514 134.76 257.51 134.399C257.426 126.977 256.115 80.1117 255.136 64.473C254.933 61.2227 253.838 55.0087 250.943 55.0087C248.047 55.0087 246.086 62.13 245.261 65.6781C245.212 65.8942 245.062 66.5182 244.839 67.4599C235.197 108.083 225.398 153.653 224.818 156.267C224.237 158.882 221.728 159.805 220.89 156.565C220.051 153.325 217.083 136.187 214.836 132.778C214.19 131.794 213.465 131.066 212.688 130.611C212.003 130.211 211.243 130.007 210.426 130.007C208.825 130.007 206.973 130.749 204.921 132.212C203.908 132.933 202.899 133.869 201.83 134.859C200.251 136.322 198.461 137.979 196.322 139.233C193.848 140.683 191.259 141.388 188.412 141.388H131.085L130.793 143.091H188.791C191.75 143.091 194.438 142.35 197.007 140.83C199.202 139.53 201.007 137.841 202.601 136.35C203.641 135.378 204.622 134.458 205.583 133.767C207.484 132.401 208.615 131.956 210.249 131.956C211.881 131.956 213.251 133.027 214.195 135.304C215.137 137.587 217.918 151.159 219.409 158.158C220.899 165.159 224.702 163.531 226.171 157.547C227.64 151.562 236.975 108.752 245.738 71.4798C245.738 71.4798 246.11 69.9054 246.157 69.6919C246.952 66.254 248.518 59.6819 250.487 59.6819C252.457 59.6819 252.962 65.2133 253.156 68.3353C254.13 84.0885 255.642 132.853 255.966 137.124C256.291 141.395 258.692 142.234 261.146 138.588C263.601 134.942 268.564 126.996 271.742 123.442C273.666 121.29 274.905 120.598 276.285 120.598C277.328 120.598 278.397 120.833 279.89 121.913C281.349 122.968 282.728 124.12 284.062 125.232C286.918 127.611 289.727 129.397 292.949 130.591C295.678 131.6 300.288 131.969 303.481 131.969H306.376L306.659 130.32L303.468 130.364Z" fill="#5C5E62"/>
<path fill-rule="evenodd" clip-rule="evenodd" d="M303.484 131.97C300.291 131.97 295.681 131.6 292.951 130.591C289.729 129.397 286.92 127.612 284.065 125.232C282.731 124.121 281.352 122.968 279.893 121.913C278.399 120.833 277.331 120.599 276.287 120.599C274.908 120.599 273.669 121.291 271.745 123.443C268.566 126.997 263.604 134.943 261.149 138.588C258.695 142.234 256.294 141.395 255.969 137.125C255.644 132.853 254.133 84.0889 253.158 68.3358C252.965 65.2137 252.459 59.6823 250.489 59.6823C248.52 59.6823 246.955 66.2544 246.16 69.6923C246.113 69.9058 245.741 71.4802 245.741 71.4802C236.978 108.752 227.643 151.562 226.173 157.548C224.705 163.531 220.902 165.16 219.411 158.159C217.921 151.159 215.14 137.587 214.198 135.304C213.254 133.027 211.884 131.957 210.252 131.957C208.617 131.957 207.487 132.402 205.586 133.768C204.625 134.458 203.644 135.378 202.603 136.35C201.01 137.841 199.205 139.53 197.01 140.83C194.44 142.351 191.753 143.092 188.794 143.092H130.796L130.578 144.363H190.25C196.029 144.363 201.142 139.701 204.159 137.313C207.176 134.927 211.662 132.453 213.287 139.735C213.288 139.745 213.29 139.755 213.292 139.763C213.337 139.943 213.382 140.131 213.428 140.329C213.678 141.426 215.947 151.973 217.942 160.072C219.936 168.174 225.555 168.369 227.796 159.151C230.035 149.932 247.912 71.135 248.758 67.3932C249.606 63.6505 251.088 64.0499 251.279 67.8193C251.468 71.5878 253.692 130.009 254.325 137.485C254.957 144.96 259.301 145.026 262.575 140.045C265.849 135.062 271.038 126.35 273.211 124.017C275.123 121.963 277.689 121.959 280.574 124.094C280.929 124.357 281.839 125.062 281.839 125.062C284.312 126.986 288.22 130.53 292.775 131.877C295.818 132.775 299.674 133.138 302.372 133.138H306.178L306.379 131.97C304.055 131.97 303.896 131.97 303.484 131.97Z" fill="#B0B3B6"/>
<path fill-rule="evenodd" clip-rule="evenodd" d="M207.504 137.896C210.229 136.269 211.132 137.495 211.612 138.292C211.985 138.909 212.343 140.083 212.646 141.415C212.89 142.494 214.089 148.283 217.012 160.175C219.935 172.067 226.959 168.642 228.823 160.297C230.687 151.952 248.453 72.149 248.839 70.4791C249.225 68.8101 250.278 68.8299 250.298 70.4576C250.318 72.087 250.496 88.2943 251.033 105.378C251.622 124.145 252.065 129.69 252.676 138.18C253.284 146.669 258.78 148.244 263.058 141.437C267.335 134.627 271.757 127.776 272.743 126.306C274.484 123.714 277.077 123.019 279.856 125.233C280.197 125.505 280.621 125.811 281.102 126.184C283.621 128.147 287.795 131.68 292.499 133.072C295.635 133.998 299.389 134.316 302.141 134.316C303.598 134.316 305.976 134.316 305.976 134.316L306.177 133.139C306.177 133.139 303.129 133.139 302.371 133.139C299.674 133.139 295.818 132.776 292.775 131.878C288.22 130.531 284.312 126.987 281.839 125.063C281.839 125.063 280.928 124.358 280.574 124.095C277.689 121.96 275.123 121.964 273.21 124.018C271.038 126.351 265.849 135.063 262.574 140.046C259.301 145.027 254.956 144.961 254.325 137.485C253.692 130.01 251.468 71.5887 251.279 67.8202C251.088 64.0508 249.606 63.6514 248.758 67.3941C247.912 71.1359 230.034 149.933 227.796 159.152C225.555 168.37 219.935 168.175 217.941 160.073C215.946 151.974 213.678 141.427 213.427 140.33C213.1 138.891 212.765 137.936 212.337 137.23C211.696 136.168 209.631 134.883 207.504 137.896Z" fill="#B0B3B6"/>
<path d="M72.0692 107.071C71.142 107.317 69.6565 107.452 66.553 107.452C64.2009 107.452 61.1645 107.452 61.1645 107.452L63.8872 90.9405H71.883C82.4318 90.9405 81.4676 104.573 72.0692 107.071ZM67.4468 69.3342H74.6646C83.3287 69.3342 82.6509 81.9937 75.2053 84.6311C74.1912 84.9904 72.8369 85.0923 70.3724 85.0923C68.0175 85.0923 64.8584 85.0923 64.8584 85.0923L67.4468 69.3342ZM80.23 87.4436C83.5401 86.6793 89.4424 83.0206 89.4424 75.5577C89.4424 67.6023 84.6881 63.895 76.3301 63.895C71.188 63.895 63.103 63.8803 60.1545 63.8803L52 113.123C53.0028 113.123 61.8226 113.12 66.8056 113.118C70.1902 113.118 73.4139 112.997 75.2281 112.588C83.5432 110.704 86.9118 104.212 87.5808 99.4525C88.5079 92.8571 84.6343 88.501 80.23 87.4436Z" fill="#5C5E62"/>
<path d="M105.605 113.885C117.066 113.885 121.376 107.457 122.746 99.8107C123.197 97.2956 125.37 84.5391 125.537 83.2514C126.033 79.4528 123.12 77.9688 120.927 77.9688C120.149 77.9688 118.796 77.9688 118.796 77.9688C118.796 77.9688 115.65 97.3047 115.296 99.507C114.537 104.244 112.417 107.484 106.445 107.484C103.047 107.484 99.7363 105.282 100.514 100.344C100.815 98.4345 103.067 84.3825 103.257 83.2514C103.891 79.4519 100.875 77.9688 98.3913 77.9688C98.0376 77.9688 96.5045 77.9688 96.5045 77.9688C96.0437 80.9041 93.9765 93.2674 93.1869 98.1126C92.8688 100.059 92.7514 102.039 92.8885 103.317C93.5945 109.884 98.9605 113.885 105.605 113.885Z" fill="#5C5E62"/>
<path d="M145.866 108.15C133.919 107.438 137.804 82.8375 149.955 83.5614C160.942 84.2165 157.525 108.845 145.866 108.15ZM152.338 77.2485C146.259 77.2485 142.122 80.4222 140.017 83.7233L140.108 83.2507C140.772 79.8592 138.077 77.9681 135.788 77.9681H133.519C133.519 77.9681 127.361 115.839 126.512 120.397C125.514 125.763 129.562 127.006 130.847 127.006C132.05 127.006 131.726 127.006 132.716 127.006L136.042 107.596C137.334 110.369 141.021 113.884 146.893 113.884C157.473 113.884 164.017 105.02 164.674 94.6402C165.372 83.6019 159.338 77.2485 152.338 77.2485Z" fill="#5C5E62"/>
<path d="M183.667 107.457C172.68 106.801 176.099 82.2443 187.755 82.9389C199.705 83.6517 195.818 108.181 183.667 107.457ZM198.479 77.9309L197.528 83.3022C196.236 80.5296 192.601 77.2061 186.73 77.2061C176.361 77.2061 170.214 86.3786 169.186 96.1548C168.008 107.33 174.727 113.861 181.581 113.861C188.021 113.861 191.471 110.802 193.569 107.307L193.45 107.838C192.846 111.113 195.383 113.121 197.775 113.121H199.846L205.603 77.9309H198.479Z" fill="#5C5E62"/>
</g>
<defs>
<clipPath id="clip0_779_43">
<rect width="256" height="122" fill="white" transform="translate(52 49)"/>
</clipPath>
</defs>
</svg>
