<svg width="360" height="221" viewBox="0 0 360 221" fill="none" xmlns="http://www.w3.org/2000/svg">
<rect width="360" height="221" fill="#D6D7D8"/>
<mask id="mask0_779_35" style="mask-type:luminance" maskUnits="userSpaceOnUse" x="187" y="155" width="10" height="16">
<path d="M187.348 155.77H196.829V170.03H187.348V155.77Z" fill="white"/>
</mask>
<g mask="url(#mask0_779_35)">
<mask id="mask1_779_35" style="mask-type:luminance" maskUnits="userSpaceOnUse" x="61" y="47" width="238" height="126">
<path d="M80.7486 47.1523C78.1634 47.1523 75.6782 47.633 73.2893 48.5925C70.9013 49.5521 68.7939 50.9186 66.9661 52.6921C65.1393 54.4647 63.73 56.5105 62.7411 58.8275C61.7523 61.1446 61.2578 63.5569 61.2578 66.0654V153.933C61.2578 156.441 61.7523 158.853 62.7411 161.17C63.73 163.487 65.1393 165.533 66.9661 167.307C68.7939 169.079 70.9013 170.446 73.2893 171.405C75.6782 172.365 78.1634 172.846 80.7486 172.846H279.254C281.839 172.846 284.325 172.365 286.712 171.405C289.101 170.446 291.209 169.079 293.037 167.307C294.863 165.533 296.273 163.487 297.262 161.17C298.25 158.853 298.745 156.441 298.745 153.933V66.0654C298.745 63.5569 298.25 61.1446 297.262 58.8275C296.273 56.5105 294.863 54.4647 293.037 52.6921C291.209 50.9186 289.101 49.5521 286.712 48.5925C284.325 47.633 281.839 47.1523 279.254 47.1523H80.7486Z" fill="white"/>
</mask>
<g mask="url(#mask1_779_35)">
<path d="M193.115 159.559C191.5 159.559 190.537 160.38 189.868 161.335V155.914H187.488V169.853H189.868V164.164C189.868 162.597 190.831 161.663 192.209 161.663C193.624 161.663 194.432 162.56 194.432 164.126V169.853H196.811V163.435C196.815 161.085 195.455 159.559 193.115 159.559Z" fill="#5C5E62"/>
</g>
</g>
<mask id="mask2_779_35" style="mask-type:luminance" maskUnits="userSpaceOnUse" x="198" y="159" width="12" height="12">
<path d="M198.965 159.449H209.394V170.259H198.965V159.449Z" fill="white"/>
</mask>
<g mask="url(#mask2_779_35)">
<mask id="mask3_779_35" style="mask-type:luminance" maskUnits="userSpaceOnUse" x="61" y="47" width="238" height="126">
<path d="M80.7486 47.1523C78.1634 47.1523 75.6782 47.633 73.2893 48.5925C70.9013 49.5521 68.7939 50.9186 66.9661 52.6921C65.1393 54.4647 63.73 56.5105 62.7411 58.8275C61.7523 61.1446 61.2578 63.5569 61.2578 66.0654V153.933C61.2578 156.441 61.7523 158.853 62.7411 161.17C63.73 163.487 65.1393 165.533 66.9661 167.307C68.7939 169.079 70.9013 170.446 73.2893 171.405C75.6782 172.365 78.1634 172.846 80.7486 172.846H279.254C281.839 172.846 284.325 172.365 286.712 171.405C289.101 170.446 291.209 169.079 293.037 167.307C294.863 165.533 296.273 163.487 297.262 161.17C298.25 158.853 298.745 156.441 298.745 153.933V66.0654C298.745 63.5569 298.25 61.1446 297.262 58.8275C296.273 56.5105 294.863 54.4647 293.037 52.6921C291.209 50.9186 289.101 49.5521 286.712 48.5925C284.325 47.633 281.839 47.1523 279.254 47.1523H80.7486Z" fill="white"/>
</mask>
<g mask="url(#mask3_779_35)">
<path d="M204.195 159.559C201.225 159.559 199.117 161.926 199.117 164.813V164.85C199.117 167.963 201.44 170.084 204.45 170.084C206.358 170.084 207.718 169.338 208.703 168.194L207.303 166.991C206.479 167.775 205.651 168.194 204.488 168.194C202.955 168.194 201.751 167.276 201.496 165.634H209.135C209.151 165.404 209.174 165.194 209.174 164.985C209.174 162.081 207.502 159.559 204.195 159.559ZM201.479 164.105C201.695 162.538 202.718 161.448 204.173 161.448C205.75 161.448 206.651 162.613 206.812 164.105H201.479Z" fill="#5C5E62"/>
</g>
</g>
<mask id="mask4_779_35" style="mask-type:luminance" maskUnits="userSpaceOnUse" x="185" y="104" width="55" height="46">
<path d="M185.688 104.711H239.021V149.561H185.688V104.711Z" fill="white"/>
</mask>
<g mask="url(#mask4_779_35)">
<mask id="mask5_779_35" style="mask-type:luminance" maskUnits="userSpaceOnUse" x="61" y="47" width="238" height="126">
<path d="M80.7446 47.1543C78.1595 47.1543 75.6743 47.635 73.2854 48.5945C70.8974 49.554 68.79 50.9205 66.9622 52.6941C65.1354 54.4667 63.7261 56.5124 62.7372 58.8295C61.7484 61.1466 61.2539 63.5589 61.2539 66.0673V153.935C61.2539 156.443 61.7484 158.855 62.7372 161.172C63.7261 163.489 65.1354 165.535 66.9622 167.309C68.79 169.081 70.8974 170.448 73.2854 171.407C75.6743 172.367 78.1595 172.848 80.7446 172.848H279.25C281.835 172.848 284.322 172.367 286.709 171.407C289.097 170.448 291.205 169.081 293.033 167.309C294.859 165.535 296.269 163.489 297.258 161.172C298.247 158.855 298.741 156.443 298.741 153.935V66.0673C298.741 63.5589 298.247 61.1466 297.258 58.8295C296.269 56.5124 294.859 54.4667 293.033 52.6941C291.205 50.9205 289.097 49.554 286.709 48.5945C284.322 47.635 281.835 47.1543 279.25 47.1543H80.7446Z" fill="white"/>
</mask>
<g mask="url(#mask5_779_35)">
<path d="M208.437 146.712C208.437 144.785 207.716 144.673 207.716 144.673H206.633C204.827 144.673 203.022 142.921 203.022 141.169V123.389C203.022 116.212 207.44 111.921 213.122 111.921C217.993 111.921 221.603 114.543 221.603 120.321V141.169C221.603 142.921 219.798 144.673 217.993 144.673H216.908C216.908 144.673 216.188 144.857 216.188 146.641C216.188 148.426 216.908 149.386 216.908 149.386H238.196C238.196 149.386 238.918 148.61 238.918 146.825C238.918 145.041 238.196 144.676 238.196 144.676H237.113C235.308 144.676 233.503 142.925 233.503 141.174V119.89C233.503 109.821 227.008 104.924 217.626 104.924C210.683 104.924 205.358 108.075 202.111 112.713C202.111 112.713 202.094 108.12 202.094 107.568C202.094 106.068 200.608 105.544 198.83 106.239C197.629 106.709 191.567 108.778 186.429 108.778C186.144 109.147 185.699 109.893 185.699 111.112C185.699 112.185 185.958 112.747 186.42 113.48H187.504C189.308 113.48 191.114 115.231 191.114 116.982V141.169C191.114 142.921 189.308 144.673 187.504 144.673H186.42C186.42 144.673 185.699 144.785 185.699 146.675C185.699 148.569 186.42 149.381 186.42 149.381H207.708C207.721 149.386 208.437 148.644 208.437 146.712Z" fill="#5C5E62"/>
</g>
</g>
<mask id="mask6_779_35" style="mask-type:luminance" maskUnits="userSpaceOnUse" x="136" y="104" width="46" height="67">
<path d="M136.859 104.711H181.896V170.261H136.859V104.711Z" fill="white"/>
</mask>
<g mask="url(#mask6_779_35)">
<mask id="mask7_779_35" style="mask-type:luminance" maskUnits="userSpaceOnUse" x="61" y="47" width="238" height="126">
<path d="M80.7486 47.1543C78.1634 47.1543 75.6782 47.635 73.2893 48.5945C70.9013 49.554 68.7939 50.9205 66.9661 52.6941C65.1393 54.4667 63.73 56.5124 62.7411 58.8295C61.7523 61.1466 61.2578 63.5589 61.2578 66.0673V153.935C61.2578 156.443 61.7523 158.855 62.7411 161.172C63.73 163.489 65.1393 165.535 66.9661 167.309C68.7939 169.081 70.9013 170.448 73.2893 171.407C75.6782 172.367 78.1634 172.848 80.7486 172.848H279.254C281.839 172.848 284.325 172.367 286.712 171.407C289.101 170.448 291.209 169.081 293.037 167.309C294.863 165.535 296.273 163.489 297.262 161.172C298.25 158.855 298.745 156.443 298.745 153.935V66.0673C298.745 63.5589 298.25 61.1466 297.262 58.8295C296.273 56.5124 294.863 54.4667 293.037 52.6941C291.209 50.9205 289.101 49.554 286.712 48.5945C284.325 47.635 281.839 47.1543 279.254 47.1543H80.7486Z" fill="white"/>
</mask>
<g mask="url(#mask7_779_35)">
<path d="M169.087 108.117C165.866 106.072 161.829 104.865 157.394 104.865C146.254 104.865 138.076 112.101 138.076 121.172C138.076 126.752 141.219 131.286 145.532 134.075L137.963 143.201C137.963 143.201 137 144.893 137 146.579C137 148.258 138.101 149.394 138.101 149.394H143.469C139.518 151.66 137.717 155.435 137.717 158.662C137.717 164.937 143.378 170.083 156.051 170.083C168.81 170.083 180.672 163.542 180.672 153.252C180.672 145.928 176.181 140.964 164.946 140.964H147.964L151.288 136.598C153.175 137.21 154.704 137.47 157.398 137.47C168.452 137.47 176.717 130.146 176.717 121.163C176.717 118.373 175.914 115.762 174.497 113.479H181.065C181.41 112.896 181.786 112.089 181.786 110.739C181.786 109.684 181.38 108.539 181.073 108.108H169.087V108.117ZM151.284 149.394H161.349C167.369 149.394 169.437 152.65 169.437 155.959C169.437 160.145 165.305 164.414 157.847 164.414C150.84 164.414 146.884 161.364 146.884 156.831C146.88 153.78 148.681 150.701 151.284 149.394ZM157.394 132.069C152.364 132.069 149.125 127.971 149.125 121.172C149.125 114.372 152.359 110.275 157.394 110.275C162.338 110.275 165.572 114.372 165.572 121.172C165.572 127.971 162.338 132.069 157.394 132.069Z" fill="#5C5E62"/>
</g>
</g>
<mask id="mask8_779_35" style="mask-type:luminance" maskUnits="userSpaceOnUse" x="64" y="104" width="43" height="47">
<path d="M64.8008 104.711H106.756V150.711H64.8008V104.711Z" fill="white"/>
</mask>
<g mask="url(#mask8_779_35)">
<mask id="mask9_779_35" style="mask-type:luminance" maskUnits="userSpaceOnUse" x="61" y="47" width="238" height="126">
<path d="M80.7486 47.1543C78.1634 47.1543 75.6782 47.635 73.2893 48.5945C70.9013 49.554 68.7939 50.9205 66.9661 52.6941C65.1393 54.4667 63.73 56.5124 62.7411 58.8295C61.7523 61.1466 61.2578 63.5589 61.2578 66.0673V153.935C61.2578 156.443 61.7523 158.855 62.7411 161.172C63.73 163.489 65.1393 165.535 66.9661 167.309C68.7939 169.081 70.9013 170.448 73.2893 171.407C75.6782 172.367 78.1634 172.848 80.7486 172.848H279.254C281.839 172.848 284.325 172.367 286.712 171.407C289.101 170.448 291.209 169.081 293.037 167.309C294.863 165.535 296.273 163.489 297.262 161.172C298.25 158.855 298.745 156.443 298.745 153.935V66.0673C298.745 63.5589 298.25 61.1466 297.262 58.8295C296.273 56.5124 294.863 54.4667 293.037 52.6941C291.209 50.9205 289.101 49.554 286.712 48.5945C284.325 47.635 281.839 47.1543 279.254 47.1543H80.7486Z" fill="white"/>
</mask>
<g mask="url(#mask9_779_35)">
<path d="M104.788 134.736C103.341 134.247 102.158 134.678 102.158 134.678C98.8162 140.309 95.794 142.903 91.0958 142.903C82.6153 142.903 77.2051 135.466 77.2051 126.625C77.2051 118.396 80.9921 110.344 89.744 110.344C95.2449 110.344 99.4727 113.671 99.4727 118.745L99.5977 120.32C99.5977 120.32 99.4292 121.02 101.718 121.02C104.006 121.02 104.628 120.32 104.628 120.32L104.175 108.857C104.175 108.857 104.127 108.555 103.963 108.346C103.803 108.141 103.54 107.982 103.54 107.982C100.021 106.058 95.3319 104.918 89.8301 104.918C76.9329 104.918 64.9375 113.318 64.9375 128.465C64.9375 142.031 75.4903 150.608 87.581 150.608C98.9458 150.608 104.223 143.69 106.567 135.99C106.563 135.981 105.928 135.123 104.788 134.736Z" fill="#5C5E62"/>
</g>
</g>
<mask id="mask10_779_35" style="mask-type:luminance" maskUnits="userSpaceOnUse" x="113" y="86" width="16" height="16">
<path d="M113.395 86.7695H128.565V101.95H113.395V86.7695Z" fill="white"/>
</mask>
<g mask="url(#mask10_779_35)">
<mask id="mask11_779_35" style="mask-type:luminance" maskUnits="userSpaceOnUse" x="61" y="47" width="238" height="126">
<path d="M80.7486 47.1523C78.1634 47.1523 75.6782 47.633 73.2893 48.5925C70.9013 49.5521 68.7939 50.9186 66.9661 52.6921C65.1393 54.4647 63.73 56.5105 62.7411 58.8275C61.7523 61.1446 61.2578 63.5569 61.2578 66.0654V153.933C61.2578 156.441 61.7523 158.853 62.7411 161.17C63.73 163.487 65.1393 165.533 66.9661 167.307C68.7939 169.079 70.9013 170.446 73.2893 171.405C75.6782 172.365 78.1634 172.846 80.7486 172.846H279.254C281.839 172.846 284.325 172.365 286.712 171.405C289.101 170.446 291.209 169.079 293.037 167.307C294.863 165.533 296.273 163.487 297.262 161.17C298.25 158.853 298.745 156.441 298.745 153.933V66.0654C298.745 63.5569 298.25 61.1446 297.262 58.8275C296.273 56.5105 294.863 54.4647 293.037 52.6921C291.209 50.9186 289.101 49.5521 286.712 48.5925C284.325 47.633 281.839 47.1523 279.254 47.1523H80.7486Z" fill="white"/>
</mask>
<g mask="url(#mask11_779_35)">
<path d="M120.953 101.8C125.073 101.8 128.415 98.4733 128.415 94.3755C128.415 90.2697 125.073 86.9473 120.953 86.9473C116.834 86.9473 113.492 90.2697 113.492 94.3755C113.492 98.4733 116.834 101.8 120.953 101.8Z" fill="#5C5E62"/>
</g>
</g>
<mask id="mask12_779_35" style="mask-type:luminance" maskUnits="userSpaceOnUse" x="109" y="107" width="24" height="43">
<path d="M109.363 107.01H132.356V149.56H109.363V107.01Z" fill="white"/>
</mask>
<g mask="url(#mask12_779_35)">
<mask id="mask13_779_35" style="mask-type:luminance" maskUnits="userSpaceOnUse" x="61" y="47" width="238" height="126">
<path d="M80.7486 47.1523C78.1634 47.1523 75.6782 47.633 73.2893 48.5925C70.9013 49.5521 68.7939 50.9186 66.9661 52.6921C65.1393 54.4647 63.73 56.5105 62.7411 58.8275C61.7523 61.1446 61.2578 63.5569 61.2578 66.0654V153.933C61.2578 156.441 61.7523 158.853 62.7411 161.17C63.73 163.487 65.1393 165.533 66.9661 167.307C68.7939 169.079 70.9013 170.446 73.2893 171.405C75.6782 172.365 78.1634 172.846 80.7486 172.846H279.254C281.839 172.846 284.325 172.365 286.712 171.405C289.101 170.446 291.209 169.079 293.037 167.307C294.863 165.533 296.273 163.487 297.262 161.17C298.25 158.853 298.745 156.441 298.745 153.933V66.0654C298.745 63.5569 298.25 61.1446 297.262 58.8275C296.273 56.5105 294.863 54.4647 293.037 52.6921C291.209 50.9186 289.101 49.5521 286.712 48.5925C284.325 47.633 281.839 47.1523 279.254 47.1523H80.7486Z" fill="white"/>
</mask>
<g mask="url(#mask13_779_35)">
<path d="M126.909 115.391C126.909 113.64 128.713 111.888 130.519 111.888H131.602C131.602 111.888 132.323 111.449 132.323 109.752C132.323 108.05 131.602 107.18 131.602 107.18H110.315C110.315 107.18 109.594 108.248 109.594 109.898C109.594 111.55 110.315 111.888 110.315 111.888H111.398C113.203 111.888 115.009 113.64 115.009 115.391V141.163C115.009 142.913 113.203 144.665 111.398 144.665H110.315C110.315 144.665 109.594 145.008 109.594 146.659C109.594 148.31 110.315 149.378 110.315 149.378H131.602C131.602 149.378 132.323 148.507 132.323 146.806C132.323 145.109 131.602 144.67 131.602 144.67H130.519C128.713 144.67 126.909 142.918 126.909 141.167V115.391Z" fill="#5C5E62"/>
</g>
</g>
<mask id="mask14_779_35" style="mask-type:luminance" maskUnits="userSpaceOnUse" x="259" y="159" width="11" height="12">
<path d="M259.406 159.449H269.125V170.259H259.406V159.449Z" fill="white"/>
</mask>
<g mask="url(#mask14_779_35)">
<mask id="mask15_779_35" style="mask-type:luminance" maskUnits="userSpaceOnUse" x="61" y="47" width="238" height="126">
<path d="M80.7446 47.1523C78.1595 47.1523 75.6743 47.633 73.2854 48.5925C70.8974 49.5521 68.79 50.9186 66.9622 52.6921C65.1354 54.4647 63.7261 56.5105 62.7372 58.8275C61.7484 61.1446 61.2539 63.5569 61.2539 66.0654V153.933C61.2539 156.441 61.7484 158.853 62.7372 161.17C63.7261 163.487 65.1354 165.533 66.9622 167.307C68.79 169.079 70.8974 170.446 73.2854 171.405C75.6743 172.365 78.1595 172.846 80.7446 172.846H279.25C281.835 172.846 284.322 172.365 286.709 171.405C289.097 170.446 291.205 169.079 293.033 167.307C294.859 165.533 296.269 163.487 297.258 161.17C298.247 158.853 298.741 156.441 298.741 153.933V66.0654C298.741 63.5569 298.247 61.1446 297.258 58.8275C296.269 56.5105 294.859 54.4647 293.033 52.6921C291.205 50.9186 289.097 49.5521 286.709 48.5925C284.322 47.633 281.835 47.1523 279.25 47.1523H80.7446Z" fill="white"/>
</mask>
<g mask="url(#mask15_779_35)">
<path d="M264.413 159.613C262.72 159.613 261.597 159.956 260.457 160.455L261.105 162.308C262.051 161.926 262.915 161.679 264.076 161.679C265.73 161.679 266.637 162.442 266.637 163.836V164.029C265.829 163.782 265.022 163.61 263.766 163.61C261.343 163.61 259.551 164.679 259.551 166.916V166.954C259.551 168.978 261.282 170.067 263.252 170.067C264.823 170.067 265.907 169.438 266.615 168.617V169.857H268.977V163.878C268.977 161.185 267.479 159.613 264.413 159.613ZM266.676 166.203C266.676 167.465 265.492 168.324 263.921 168.324C262.798 168.324 261.913 167.792 261.913 166.837V166.798C261.913 165.822 262.798 165.232 264.292 165.232C265.217 165.232 266.063 165.404 266.671 165.634V166.203H266.676Z" fill="#5C5E62"/>
</g>
</g>
<mask id="mask16_779_35" style="mask-type:luminance" maskUnits="userSpaceOnUse" x="271" y="159" width="7" height="12">
<path d="M271.734 159.449H277.897V170.029H271.734V159.449Z" fill="white"/>
</mask>
<g mask="url(#mask16_779_35)">
<mask id="mask17_779_35" style="mask-type:luminance" maskUnits="userSpaceOnUse" x="61" y="47" width="238" height="126">
<path d="M80.7486 47.1523C78.1634 47.1523 75.6782 47.633 73.2893 48.5925C70.9013 49.5521 68.7939 50.9186 66.9661 52.6921C65.1393 54.4647 63.73 56.5105 62.7411 58.8275C61.7523 61.1446 61.2578 63.5569 61.2578 66.0654V153.933C61.2578 156.441 61.7523 158.853 62.7411 161.17C63.73 163.487 65.1393 165.533 66.9661 167.307C68.7939 169.079 70.9013 170.446 73.2893 171.405C75.6782 172.365 78.1634 172.846 80.7486 172.846H279.254C281.839 172.846 284.325 172.365 286.712 171.405C289.101 170.446 291.209 169.079 293.037 167.307C294.863 165.533 296.273 163.487 297.262 161.17C298.25 158.853 298.745 156.441 298.745 153.933V66.0654C298.745 63.5569 298.25 61.1446 297.262 58.8275C296.273 56.5105 294.863 54.4647 293.037 52.6921C291.209 50.9186 289.101 49.5521 286.712 48.5925C284.325 47.633 281.839 47.1523 279.254 47.1523H80.7486Z" fill="white"/>
</mask>
<g mask="url(#mask17_779_35)">
<path d="M274.196 162.04V159.768H271.816V169.853H274.196V166.015C274.196 163.342 275.651 162.027 277.74 162.027H277.878V159.581C276.044 159.501 274.843 160.536 274.196 162.04Z" fill="#5C5E62"/>
</g>
</g>
<mask id="mask18_779_35" style="mask-type:luminance" maskUnits="userSpaceOnUse" x="239" y="104" width="54" height="47">
<path d="M239.496 104.711H292.118V150.711H239.496V104.711Z" fill="white"/>
</mask>
<g mask="url(#mask18_779_35)">
<mask id="mask19_779_35" style="mask-type:luminance" maskUnits="userSpaceOnUse" x="61" y="47" width="238" height="126">
<path d="M80.7486 47.1543C78.1634 47.1543 75.6782 47.635 73.2893 48.5945C70.9013 49.554 68.7939 50.9205 66.9661 52.6941C65.1393 54.4667 63.73 56.5124 62.7411 58.8295C61.7523 61.1466 61.2578 63.5589 61.2578 66.0673V153.935C61.2578 156.443 61.7523 158.855 62.7411 161.172C63.73 163.489 65.1393 165.535 66.9661 167.309C68.7939 169.081 70.9013 170.448 73.2893 171.407C75.6782 172.367 78.1634 172.848 80.7486 172.848H279.254C281.839 172.848 284.325 172.367 286.712 171.407C289.101 170.448 291.209 169.081 293.037 167.309C294.863 165.535 296.273 163.489 297.262 161.172C298.25 158.855 298.745 156.443 298.745 153.935V66.0673C298.745 63.5589 298.25 61.1466 297.262 58.8295C296.273 56.5124 294.863 54.4667 293.037 52.6941C291.209 50.9205 289.101 49.554 286.712 48.5945C284.325 47.635 281.839 47.1543 279.254 47.1543H80.7486Z" fill="white"/>
</mask>
<g mask="url(#mask19_779_35)">
<path d="M292.02 143.091C292.02 141.734 291.298 141.324 291.298 141.324H290.214C288.41 141.324 286.609 139.572 286.609 137.821V107.043C286.609 107.043 286.54 106.137 285.543 106.137H282.797C282.256 106.137 281.842 106.578 281.842 106.578L278.016 111.425C277.567 111.995 277.053 111.43 277.053 111.43V111.434C274.493 108.505 270.192 104.91 262.433 104.91C250.796 104.91 239.703 113.139 239.703 128.193C239.703 142.282 249.263 150.6 260.991 150.6C267.666 150.6 271.906 147.885 275.244 143.682V148.886C275.244 148.886 275.287 150.076 276.665 150.369C277.904 150.633 278.854 150.248 278.854 150.248L291.303 145.086C291.294 145.09 292.02 144.453 292.02 143.091ZM263.331 144.826C255.304 144.826 251.966 137.125 251.966 127.757C251.966 118.393 255.304 110.693 263.331 110.693C271.358 110.693 274.696 118.393 274.696 127.757C274.7 137.125 271.362 144.826 263.331 144.826Z" fill="#5C5E62"/>
</g>
</g>
<mask id="mask20_779_35" style="mask-type:luminance" maskUnits="userSpaceOnUse" x="289" y="159" width="4" height="5">
<path d="M289.75 159.91H292.831V163.59H289.75V159.91Z" fill="white"/>
</mask>
<g mask="url(#mask20_779_35)">
<mask id="mask21_779_35" style="mask-type:luminance" maskUnits="userSpaceOnUse" x="61" y="47" width="238" height="126">
<path d="M80.7486 47.1543C78.1634 47.1543 75.6782 47.635 73.2893 48.5945C70.9013 49.554 68.7939 50.9205 66.9661 52.6941C65.1393 54.4667 63.73 56.5124 62.7411 58.8295C61.7523 61.1466 61.2578 63.5589 61.2578 66.0673V153.935C61.2578 156.443 61.7523 158.855 62.7411 161.172C63.73 163.489 65.1393 165.535 66.9661 167.309C68.7939 169.081 70.9013 170.448 73.2893 171.407C75.6782 172.367 78.1634 172.848 80.7486 172.848H279.254C281.839 172.848 284.325 172.367 286.712 171.407C289.101 170.448 291.209 169.081 293.037 167.309C294.863 165.535 296.273 163.489 297.262 161.172C298.25 158.855 298.745 156.443 298.745 153.935V66.0673C298.745 63.5589 298.25 61.1466 297.262 58.8295C296.273 56.5124 294.863 54.4667 293.037 52.6941C291.209 50.9205 289.101 49.554 286.712 48.5945C284.325 47.635 281.839 47.1543 279.254 47.1543H80.7486Z" fill="white"/>
</mask>
<g mask="url(#mask21_779_35)">
<path d="M291.747 161.505L291.186 161.375C290.969 161.324 290.826 161.283 290.763 161.244C290.658 161.19 290.606 161.107 290.606 160.994C290.606 160.872 290.658 160.776 290.763 160.709C290.865 160.641 291.008 160.605 291.181 160.605C291.337 160.605 291.47 160.629 291.578 160.684C291.737 160.764 291.825 160.897 291.833 161.086H292.485C292.472 160.751 292.347 160.495 292.105 160.319C291.862 160.144 291.57 160.055 291.228 160.055C290.818 160.055 290.507 160.147 290.296 160.336C290.084 160.525 289.981 160.759 289.981 161.04C289.981 161.349 290.088 161.576 290.309 161.722C290.438 161.811 290.672 161.89 291.013 161.966L291.358 162.041C291.556 162.083 291.708 162.133 291.802 162.188C291.898 162.246 291.945 162.326 291.945 162.431C291.945 162.611 291.85 162.732 291.661 162.795C291.561 162.829 291.431 162.845 291.272 162.845C291.004 162.845 290.813 162.778 290.706 162.652C290.645 162.582 290.606 162.472 290.585 162.33H289.938C289.938 162.657 290.058 162.917 290.3 163.106C290.542 163.294 290.875 163.386 291.298 163.386C291.712 163.386 292.031 163.29 292.261 163.101C292.489 162.913 292.601 162.669 292.601 162.384C292.601 162.104 292.506 161.89 292.313 161.739C292.178 161.64 291.992 161.563 291.747 161.505Z" fill="#5C5E62"/>
</g>
</g>
<mask id="mask22_779_35" style="mask-type:luminance" maskUnits="userSpaceOnUse" x="293" y="160" width="4" height="4">
<path d="M293.066 160.141H296.385V163.361H293.066V160.141Z" fill="white"/>
</mask>
<g mask="url(#mask22_779_35)">
<mask id="mask23_779_35" style="mask-type:luminance" maskUnits="userSpaceOnUse" x="61" y="47" width="238" height="126">
<path d="M80.7486 47.1543C78.1634 47.1543 75.6782 47.635 73.2893 48.5945C70.9013 49.554 68.7939 50.9205 66.9661 52.6941C65.1393 54.4667 63.73 56.5124 62.7411 58.8295C61.7523 61.1466 61.2578 63.5589 61.2578 66.0673V153.935C61.2578 156.443 61.7523 158.855 62.7411 161.172C63.73 163.489 65.1393 165.535 66.9661 167.309C68.7939 169.081 70.9013 170.448 73.2893 171.407C75.6782 172.367 78.1634 172.848 80.7486 172.848H279.254C281.839 172.848 284.325 172.367 286.712 171.407C289.101 170.448 291.209 169.081 293.037 167.309C294.863 165.535 296.273 163.489 297.262 161.172C298.25 158.855 298.745 156.443 298.745 153.935V66.0673C298.745 63.5589 298.25 61.1466 297.262 58.8295C296.273 56.5124 294.863 54.4667 293.037 52.6941C291.209 50.9205 289.101 49.554 286.712 48.5945C284.325 47.635 281.839 47.1543 279.254 47.1543H80.7486Z" fill="white"/>
</mask>
<g mask="url(#mask23_779_35)">
<path d="M295.25 160.148L294.663 162.629L294.071 160.148H293.082V163.304H293.713V160.656L294.326 163.304H294.987L295.604 160.656V163.304H296.235V160.148H295.25Z" fill="#5C5E62"/>
</g>
</g>
<mask id="mask24_779_35" style="mask-type:luminance" maskUnits="userSpaceOnUse" x="210" y="159" width="11" height="12">
<path d="M210.816 159.449H220.298V170.259H210.816V159.449Z" fill="white"/>
</mask>
<g mask="url(#mask24_779_35)">
<mask id="mask25_779_35" style="mask-type:luminance" maskUnits="userSpaceOnUse" x="61" y="47" width="238" height="126">
<path d="M80.7486 47.1523C78.1634 47.1523 75.6782 47.633 73.2893 48.5925C70.9013 49.5521 68.7939 50.9186 66.9661 52.6921C65.1393 54.4647 63.73 56.5105 62.7411 58.8275C61.7523 61.1446 61.2578 63.5569 61.2578 66.0654V153.933C61.2578 156.441 61.7523 158.853 62.7411 161.17C63.73 163.487 65.1393 165.533 66.9661 167.307C68.7939 169.079 70.9013 170.446 73.2893 171.405C75.6782 172.365 78.1634 172.846 80.7486 172.846H279.254C281.839 172.846 284.325 172.365 286.712 171.405C289.101 170.446 291.209 169.079 293.037 167.307C294.863 165.533 296.273 163.487 297.262 161.17C298.25 158.853 298.745 156.441 298.745 153.933V66.0654C298.745 63.5569 298.25 61.1446 297.262 58.8275C296.273 56.5105 294.863 54.4647 293.037 52.6921C291.209 50.9186 289.101 49.5521 286.712 48.5925C284.325 47.633 281.839 47.1523 279.254 47.1523H80.7486Z" fill="white"/>
</mask>
<g mask="url(#mask25_779_35)">
<path d="M215.73 159.613C214.037 159.613 212.914 159.956 211.774 160.455L212.423 162.308C213.368 161.926 214.232 161.679 215.393 161.679C217.047 161.679 217.954 162.442 217.954 163.836V164.029C217.147 163.782 216.338 163.61 215.078 163.61C212.655 163.61 210.863 164.679 210.863 166.916V166.954C210.863 168.978 212.595 170.067 214.564 170.067C216.136 170.067 217.22 169.438 217.927 168.617V169.857H220.289V163.878C220.294 161.185 218.799 159.613 215.73 159.613ZM217.993 166.203C217.993 167.465 216.81 168.324 215.237 168.324C214.115 168.324 213.23 167.792 213.23 166.837V166.798C213.23 165.822 214.115 165.232 215.609 165.232C216.533 165.232 217.379 165.404 217.988 165.634V166.203H217.993Z" fill="#5C5E62"/>
</g>
</g>
<mask id="mask26_779_35" style="mask-type:luminance" maskUnits="userSpaceOnUse" x="278" y="159" width="12" height="12">
<path d="M278.844 159.449H289.273V170.259H278.844V159.449Z" fill="white"/>
</mask>
<g mask="url(#mask26_779_35)">
<mask id="mask27_779_35" style="mask-type:luminance" maskUnits="userSpaceOnUse" x="61" y="47" width="238" height="126">
<path d="M80.7446 47.1523C78.1595 47.1523 75.6743 47.633 73.2854 48.5925C70.8974 49.5521 68.79 50.9186 66.9622 52.6921C65.1354 54.4647 63.7261 56.5105 62.7372 58.8275C61.7484 61.1446 61.2539 63.5569 61.2539 66.0654V153.933C61.2539 156.441 61.7484 158.853 62.7372 161.17C63.7261 163.487 65.1354 165.533 66.9622 167.307C68.79 169.079 70.8974 170.446 73.2854 171.405C75.6743 172.365 78.1595 172.846 80.7446 172.846H279.25C281.835 172.846 284.322 172.365 286.709 171.405C289.097 170.446 291.205 169.079 293.033 167.307C294.859 165.533 296.269 163.487 297.258 161.17C298.247 158.853 298.741 156.441 298.741 153.933V66.0654C298.741 63.5569 298.247 61.1446 297.258 58.8275C296.269 56.5105 294.859 54.4647 293.033 52.6921C291.205 50.9186 289.097 49.5521 286.709 48.5925C284.322 47.633 281.835 47.1523 279.25 47.1523H80.7446Z" fill="white"/>
</mask>
<g mask="url(#mask27_779_35)">
<path d="M284.089 159.559C281.119 159.559 279.012 161.926 279.012 164.813V164.85C279.012 167.963 281.335 170.084 284.344 170.084C286.253 170.084 287.613 169.338 288.598 168.194L287.199 166.991C286.374 167.775 285.545 168.194 284.383 168.194C282.851 168.194 281.646 167.276 281.39 165.634H289.029C289.047 165.404 289.068 165.194 289.068 164.985C289.068 162.081 287.397 159.559 284.089 159.559ZM281.374 164.105C281.589 162.538 282.613 161.448 284.068 161.448C285.644 161.448 286.547 162.613 286.706 164.105H281.374Z" fill="#5C5E62"/>
</g>
</g>
<mask id="mask28_779_35" style="mask-type:luminance" maskUnits="userSpaceOnUse" x="248" y="159" width="11" height="12">
<path d="M248.266 159.449H258.221V170.259H248.266V159.449Z" fill="white"/>
</mask>
<g mask="url(#mask28_779_35)">
<mask id="mask29_779_35" style="mask-type:luminance" maskUnits="userSpaceOnUse" x="61" y="47" width="238" height="126">
<path d="M80.7446 47.1523C78.1595 47.1523 75.6743 47.633 73.2854 48.5925C70.8974 49.5521 68.79 50.9186 66.9622 52.6921C65.1354 54.4647 63.7261 56.5105 62.7372 58.8275C61.7484 61.1446 61.2539 63.5569 61.2539 66.0654V153.933C61.2539 156.441 61.7484 158.853 62.7372 161.17C63.7261 163.487 65.1354 165.533 66.9622 167.307C68.79 169.079 70.8974 170.446 73.2854 171.405C75.6743 172.365 78.1595 172.846 80.7446 172.846H279.25C281.835 172.846 284.322 172.365 286.709 171.405C289.097 170.446 291.205 169.079 293.033 167.307C294.859 165.533 296.269 163.487 297.258 161.17C298.247 158.853 298.741 156.441 298.741 153.933V66.0654C298.741 63.5569 298.247 61.1446 297.258 58.8275C296.269 56.5105 294.859 54.4647 293.033 52.6921C291.205 50.9186 289.097 49.5521 286.709 48.5925C284.322 47.633 281.835 47.1523 279.25 47.1523H80.7446Z" fill="white"/>
</mask>
<g mask="url(#mask29_779_35)">
<path d="M253.943 168.077C252.111 168.077 250.833 166.627 250.833 164.83V164.792C250.833 163.036 252.094 161.583 253.826 161.583C255.026 161.583 255.795 162.098 256.521 162.843L257.996 161.298C257.034 160.267 255.812 159.559 253.843 159.559C250.734 159.559 248.449 161.964 248.449 164.83V164.867C248.449 167.733 250.734 170.079 253.821 170.079C255.846 170.079 257.047 169.296 258.074 168.189L256.636 166.815C255.89 167.562 255.065 168.077 253.943 168.077Z" fill="#5C5E62"/>
</g>
</g>
<mask id="mask30_779_35" style="mask-type:luminance" maskUnits="userSpaceOnUse" x="223" y="155" width="3" height="16">
<path d="M223.141 155.77H225.748V170.03H223.141V155.77Z" fill="white"/>
</mask>
<g mask="url(#mask30_779_35)">
<mask id="mask31_779_35" style="mask-type:luminance" maskUnits="userSpaceOnUse" x="61" y="47" width="238" height="126">
<path d="M80.7486 47.1523C78.1634 47.1523 75.6782 47.633 73.2893 48.5925C70.9013 49.5521 68.7939 50.9186 66.9661 52.6921C65.1393 54.4647 63.73 56.5105 62.7411 58.8275C61.7523 61.1446 61.2578 63.5569 61.2578 66.0654V153.933C61.2578 156.441 61.7523 158.853 62.7411 161.17C63.73 163.487 65.1393 165.533 66.9661 167.307C68.7939 169.079 70.9013 170.446 73.2893 171.405C75.6782 172.365 78.1634 172.846 80.7486 172.846H279.254C281.839 172.846 284.325 172.365 286.712 171.405C289.101 170.446 291.209 169.079 293.037 167.307C294.863 165.533 296.273 163.487 297.262 161.17C298.25 158.853 298.745 156.441 298.745 153.933V66.0654C298.745 63.5569 298.25 61.1446 297.262 58.8275C296.273 56.5105 294.863 54.4647 293.037 52.6921C291.209 50.9186 289.101 49.5521 286.712 48.5925C284.325 47.633 281.839 47.1523 279.254 47.1523H80.7486Z" fill="white"/>
</mask>
<g mask="url(#mask31_779_35)">
<path d="M223.262 155.91H225.64V169.849H223.262V155.91Z" fill="#5C5E62"/>
</g>
</g>
<mask id="mask32_779_35" style="mask-type:luminance" maskUnits="userSpaceOnUse" x="227" y="156" width="8" height="15">
<path d="M227.883 156.92H234.52V170.03H227.883V156.92Z" fill="white"/>
</mask>
<g mask="url(#mask32_779_35)">
<mask id="mask33_779_35" style="mask-type:luminance" maskUnits="userSpaceOnUse" x="61" y="47" width="238" height="126">
<path d="M80.7486 47.1543C78.1634 47.1543 75.6782 47.635 73.2893 48.5945C70.9013 49.554 68.7939 50.9205 66.9661 52.6941C65.1393 54.4667 63.73 56.5124 62.7411 58.8295C61.7523 61.1466 61.2578 63.5589 61.2578 66.0673V153.935C61.2578 156.443 61.7523 158.855 62.7411 161.172C63.73 163.489 65.1393 165.535 66.9661 167.309C68.7939 169.081 70.9013 170.448 73.2893 171.407C75.6782 172.367 78.1634 172.848 80.7486 172.848H279.254C281.839 172.848 284.325 172.367 286.712 171.407C289.101 170.448 291.209 169.081 293.037 167.309C294.863 165.535 296.273 163.489 297.262 161.172C298.25 158.855 298.745 156.443 298.745 153.935V66.0673C298.745 63.5589 298.25 61.1466 297.262 58.8295C296.273 56.5124 294.863 54.4667 293.037 52.6941C291.209 50.9205 289.101 49.554 286.712 48.5945C284.325 47.635 281.839 47.1543 279.254 47.1543H80.7486Z" fill="white"/>
</mask>
<g mask="url(#mask33_779_35)">
<path d="M231.626 157.002H229.247V159.771H227.93V161.757H229.247V167.066C229.247 169.282 230.486 170.024 232.24 170.024C233.124 170.024 233.795 169.831 234.385 169.508V167.619C233.91 167.849 233.44 167.962 232.908 167.962C232.101 167.962 231.631 167.598 231.631 166.701V161.753H234.424V159.767H231.631V157.002H231.626Z" fill="#5C5E62"/>
</g>
</g>
<mask id="mask34_779_35" style="mask-type:luminance" maskUnits="userSpaceOnUse" x="236" y="155" width="11" height="16">
<path d="M236.652 155.77H246.371V170.03H236.652V155.77Z" fill="white"/>
</mask>
<g mask="url(#mask34_779_35)">
<mask id="mask35_779_35" style="mask-type:luminance" maskUnits="userSpaceOnUse" x="61" y="47" width="238" height="126">
<path d="M80.7486 47.1523C78.1634 47.1523 75.6782 47.633 73.2893 48.5925C70.9013 49.5521 68.7939 50.9186 66.9661 52.6921C65.1393 54.4647 63.73 56.5105 62.7411 58.8275C61.7523 61.1446 61.2578 63.5569 61.2578 66.0654V153.933C61.2578 156.441 61.7523 158.853 62.7411 161.17C63.73 163.487 65.1393 165.533 66.9661 167.307C68.7939 169.079 70.9013 170.446 73.2893 171.405C75.6782 172.365 78.1634 172.846 80.7486 172.846H279.254C281.839 172.846 284.325 172.365 286.712 171.405C289.101 170.446 291.209 169.079 293.037 167.307C294.863 165.533 296.273 163.487 297.262 161.17C298.25 158.853 298.745 156.441 298.745 153.933V66.0654C298.745 63.5569 298.25 61.1446 297.262 58.8275C296.273 56.5105 294.863 54.4647 293.037 52.6921C291.209 50.9186 289.101 49.5521 286.712 48.5925C284.325 47.633 281.839 47.1523 279.254 47.1523H80.7486Z" fill="white"/>
</mask>
<g mask="url(#mask35_779_35)">
<path d="M242.451 159.559C240.836 159.559 239.873 160.38 239.204 161.335V155.914H236.824V169.853H239.204V164.164C239.204 162.597 240.166 161.663 241.548 161.663C242.965 161.663 243.771 162.56 243.771 164.126V169.853H246.151V163.435C246.151 161.085 244.791 159.559 242.451 159.559Z" fill="#5C5E62"/>
</g>
</g>
<mask id="mask36_779_35" style="mask-type:luminance" maskUnits="userSpaceOnUse" x="75" y="50" width="92" height="50">
<path d="M75.7031 50.4297H166.251V99.8797H75.7031V50.4297Z" fill="white"/>
</mask>
<g mask="url(#mask36_779_35)">
<mask id="mask37_779_35" style="mask-type:luminance" maskUnits="userSpaceOnUse" x="61" y="47" width="238" height="126">
<path d="M80.7486 47.1523C78.1634 47.1523 75.6782 47.633 73.2893 48.5925C70.9013 49.5521 68.7939 50.9186 66.9661 52.6921C65.1393 54.4647 63.73 56.5105 62.7411 58.8275C61.7523 61.1446 61.2578 63.5569 61.2578 66.0654V153.933C61.2578 156.441 61.7523 158.853 62.7411 161.17C63.73 163.487 65.1393 165.533 66.9661 167.307C68.7939 169.079 70.9013 170.446 73.2893 171.405C75.6782 172.365 78.1634 172.846 80.7486 172.846H279.254C281.839 172.846 284.325 172.365 286.712 171.405C289.101 170.446 291.209 169.079 293.037 167.307C294.863 165.533 296.273 163.487 297.262 161.17C298.25 158.853 298.745 156.441 298.745 153.933V66.0654C298.745 63.5569 298.25 61.1446 297.262 58.8275C296.273 56.5105 294.863 54.4647 293.037 52.6921C291.209 50.9186 289.101 49.5521 286.712 48.5925C284.325 47.633 281.839 47.1523 279.254 47.1523H80.7486Z" fill="white"/>
</mask>
<g mask="url(#mask37_779_35)">
<path fill-rule="evenodd" clip-rule="evenodd" d="M115.43 69.0346C115.438 64.3672 117.614 60.203 121.017 57.4079C124.411 60.2155 126.566 64.3879 126.556 69.0562C126.548 73.7236 124.376 77.8878 120.969 80.6829C117.575 77.8752 115.42 73.702 115.43 69.0346ZM132.343 57.1105C130.94 60.3782 131.203 63.9144 132.744 66.8388C135.969 65.838 138.738 63.529 140.141 60.2614C141.544 56.9938 141.28 53.4575 139.74 50.5331C136.518 51.5304 133.746 53.842 132.343 57.1105ZM101.841 60.1823C103.231 63.4544 105.991 65.7751 109.212 66.7849C110.766 63.8641 111.043 60.3332 109.652 57.0557C108.262 53.7845 105.503 51.463 102.281 50.4531C100.727 53.3739 100.451 56.9048 101.841 60.1823ZM82.5092 83.2802C85.8768 84.6414 89.5212 84.3862 92.536 82.8903C91.5036 79.7611 89.124 77.0747 85.7564 75.7127C82.3879 74.3516 78.7444 74.6076 75.7305 76.0981C76.762 79.2283 79.1416 81.9182 82.5092 83.2802ZM156.152 75.8681C152.78 77.2176 150.387 79.8949 149.347 83.0206C152.356 84.5282 155.996 84.7968 159.373 83.4473C162.745 82.0988 165.138 79.4214 166.179 76.2958C163.168 74.7873 159.524 74.5196 156.152 75.8681ZM147.024 89.0536C142.214 89.0455 137.913 91.1353 135.019 94.4334C137.9 97.7388 142.192 99.8465 147.002 99.8546C151.812 99.8636 156.113 97.772 159.006 94.4748C156.13 91.1694 151.834 89.0617 147.024 89.0536ZM135.499 72.6966C132.093 75.9894 130.572 80.4223 130.93 84.7339C135.374 85.0942 139.947 83.6405 143.357 80.3468C146.765 77.0541 148.284 72.6212 147.926 68.3105C143.479 67.9457 138.91 69.403 135.499 72.6966ZM94.9194 89.0536C90.1092 89.0617 85.8166 91.1694 82.937 94.4748C85.8258 97.772 90.1305 99.8636 94.9407 99.8546C99.7508 99.8465 104.043 97.7388 106.923 94.4334C104.03 91.1362 99.7295 89.0455 94.9194 89.0536ZM106.443 72.6966C103.037 69.403 98.4638 67.9493 94.0166 68.3105C93.6582 72.6212 95.1777 77.0541 98.5851 80.3468C101.992 83.6405 106.568 85.0942 111.012 84.7339C111.37 80.4187 109.851 75.9894 106.443 72.6966Z" fill="#5C5E62"/>
</g>
</g>
</svg>
