<svg width="360" height="221" viewBox="0 0 360 221" fill="none" xmlns="http://www.w3.org/2000/svg">
<rect width="360" height="221" fill="#D6D7D8"/>
<mask id="path-2-outside-1_779_44" maskUnits="userSpaceOnUse" x="52" y="104" width="76" height="33" fill="black">
<rect fill="white" x="52" y="104" width="76" height="33"/>
<path d="M67.12 134.504C64.404 134.504 62.08 133.93 60.148 132.782C58.244 131.634 56.774 130.01 55.738 127.91C54.73 125.782 54.226 123.276 54.226 120.392C54.226 117.452 54.758 114.89 55.822 112.706C56.886 110.494 58.412 108.786 60.4 107.582C62.388 106.378 64.782 105.776 67.582 105.776C69.038 105.776 70.2 105.902 71.068 106.154C71.936 106.406 72.636 106.672 73.168 106.952C73.7 107.204 74.19 107.33 74.638 107.33C74.918 107.33 75.142 107.274 75.31 107.162C75.478 107.05 75.59 106.91 75.646 106.742L75.856 106.28H76.822L77.242 113.84H76.15C75.982 113.168 75.716 112.454 75.352 111.698C74.988 110.914 74.484 110.186 73.84 109.514C73.224 108.814 72.44 108.254 71.488 107.834C70.564 107.414 69.43 107.204 68.086 107.204C66.574 107.204 65.272 107.484 64.18 108.044C63.116 108.604 62.22 109.36 61.492 110.312C60.792 111.236 60.232 112.272 59.812 113.42C59.42 114.568 59.14 115.73 58.972 116.906C58.804 118.082 58.72 119.188 58.72 120.224C58.72 121.792 58.888 123.346 59.224 124.886C59.588 126.398 60.148 127.77 60.904 129.002C61.66 130.234 62.654 131.228 63.886 131.984C65.118 132.712 66.602 133.076 68.338 133.076C69.066 133.076 69.78 132.992 70.48 132.824C71.208 132.656 71.838 132.362 72.37 131.942C72.902 131.522 73.238 130.934 73.378 130.178V124.634C73.378 123.906 73.196 123.388 72.832 123.08C72.496 122.744 71.88 122.576 70.984 122.576H70.312V121.358H79.342V122.576H78.754C78.222 122.576 77.83 122.716 77.578 122.996C77.354 123.248 77.242 123.696 77.242 124.34V134.084H76.402C76.29 133.72 76.122 133.454 75.898 133.286C75.702 133.09 75.408 132.992 75.016 132.992C74.652 132.992 74.232 133.076 73.756 133.244C73.308 133.384 72.762 133.552 72.118 133.748C71.502 133.944 70.788 134.112 69.976 134.252C69.164 134.42 68.212 134.504 67.12 134.504ZM92.9526 134.462C89.9006 134.462 87.6466 133.58 86.1906 131.816C84.7626 130.024 84.0486 127.546 84.0486 124.382C84.0486 122.198 84.3706 120.322 85.0146 118.754C85.6866 117.186 86.6806 115.982 87.9966 115.142C89.3406 114.302 91.0066 113.882 92.9946 113.882C94.7586 113.882 96.1866 114.19 97.2786 114.806C98.3706 115.394 99.2106 116.192 99.7986 117.2C100.387 118.18 100.779 119.258 100.975 120.434C101.199 121.61 101.311 122.786 101.311 123.962V124.34H87.1986L87.2406 122.996H97.4046C97.4046 121.316 97.2646 119.902 96.9846 118.754C96.7326 117.578 96.2846 116.696 95.6406 116.108C95.0246 115.492 94.1566 115.184 93.0366 115.184C91.8606 115.184 90.8946 115.506 90.1386 116.15C89.4106 116.794 88.8646 117.746 88.5006 119.006C88.1646 120.238 87.9826 121.764 87.9546 123.584C87.9546 124.788 88.0246 125.936 88.1646 127.028C88.3326 128.12 88.6266 129.1 89.0466 129.968C89.4946 130.836 90.1106 131.522 90.8946 132.026C91.7066 132.53 92.7566 132.782 94.0446 132.782C95.2486 132.782 96.2426 132.572 97.0266 132.152C97.8106 131.704 98.4406 131.13 98.9166 130.43C99.3926 129.73 99.7566 129.016 100.009 128.288L101.143 128.792C100.835 129.744 100.373 130.654 99.7566 131.522C99.1686 132.39 98.3286 133.104 97.2366 133.664C96.1726 134.196 94.7446 134.462 92.9526 134.462ZM116.509 134.462C113.401 134.462 111.091 133.594 109.579 131.858C108.095 130.094 107.353 127.532 107.353 124.172C107.353 120.84 108.095 118.292 109.579 116.528C111.091 114.736 113.401 113.84 116.509 113.84C119.617 113.84 121.913 114.722 123.397 116.486C124.909 118.25 125.665 120.798 125.665 124.13C125.665 127.518 124.909 130.094 123.397 131.858C121.913 133.594 119.617 134.462 116.509 134.462ZM116.509 133.118C118.329 133.118 119.645 132.348 120.457 130.808C121.297 129.24 121.717 127.014 121.717 124.13C121.717 121.218 121.283 119.006 120.415 117.494C119.575 115.954 118.259 115.184 116.467 115.184C114.675 115.184 113.359 115.954 112.519 117.494C111.679 119.034 111.259 121.26 111.259 124.172C111.259 127.056 111.679 129.268 112.519 130.808C113.387 132.348 114.717 133.118 116.509 133.118Z"/>
</mask>
<path d="M67.12 134.504C64.404 134.504 62.08 133.93 60.148 132.782C58.244 131.634 56.774 130.01 55.738 127.91C54.73 125.782 54.226 123.276 54.226 120.392C54.226 117.452 54.758 114.89 55.822 112.706C56.886 110.494 58.412 108.786 60.4 107.582C62.388 106.378 64.782 105.776 67.582 105.776C69.038 105.776 70.2 105.902 71.068 106.154C71.936 106.406 72.636 106.672 73.168 106.952C73.7 107.204 74.19 107.33 74.638 107.33C74.918 107.33 75.142 107.274 75.31 107.162C75.478 107.05 75.59 106.91 75.646 106.742L75.856 106.28H76.822L77.242 113.84H76.15C75.982 113.168 75.716 112.454 75.352 111.698C74.988 110.914 74.484 110.186 73.84 109.514C73.224 108.814 72.44 108.254 71.488 107.834C70.564 107.414 69.43 107.204 68.086 107.204C66.574 107.204 65.272 107.484 64.18 108.044C63.116 108.604 62.22 109.36 61.492 110.312C60.792 111.236 60.232 112.272 59.812 113.42C59.42 114.568 59.14 115.73 58.972 116.906C58.804 118.082 58.72 119.188 58.72 120.224C58.72 121.792 58.888 123.346 59.224 124.886C59.588 126.398 60.148 127.77 60.904 129.002C61.66 130.234 62.654 131.228 63.886 131.984C65.118 132.712 66.602 133.076 68.338 133.076C69.066 133.076 69.78 132.992 70.48 132.824C71.208 132.656 71.838 132.362 72.37 131.942C72.902 131.522 73.238 130.934 73.378 130.178V124.634C73.378 123.906 73.196 123.388 72.832 123.08C72.496 122.744 71.88 122.576 70.984 122.576H70.312V121.358H79.342V122.576H78.754C78.222 122.576 77.83 122.716 77.578 122.996C77.354 123.248 77.242 123.696 77.242 124.34V134.084H76.402C76.29 133.72 76.122 133.454 75.898 133.286C75.702 133.09 75.408 132.992 75.016 132.992C74.652 132.992 74.232 133.076 73.756 133.244C73.308 133.384 72.762 133.552 72.118 133.748C71.502 133.944 70.788 134.112 69.976 134.252C69.164 134.42 68.212 134.504 67.12 134.504ZM92.9526 134.462C89.9006 134.462 87.6466 133.58 86.1906 131.816C84.7626 130.024 84.0486 127.546 84.0486 124.382C84.0486 122.198 84.3706 120.322 85.0146 118.754C85.6866 117.186 86.6806 115.982 87.9966 115.142C89.3406 114.302 91.0066 113.882 92.9946 113.882C94.7586 113.882 96.1866 114.19 97.2786 114.806C98.3706 115.394 99.2106 116.192 99.7986 117.2C100.387 118.18 100.779 119.258 100.975 120.434C101.199 121.61 101.311 122.786 101.311 123.962V124.34H87.1986L87.2406 122.996H97.4046C97.4046 121.316 97.2646 119.902 96.9846 118.754C96.7326 117.578 96.2846 116.696 95.6406 116.108C95.0246 115.492 94.1566 115.184 93.0366 115.184C91.8606 115.184 90.8946 115.506 90.1386 116.15C89.4106 116.794 88.8646 117.746 88.5006 119.006C88.1646 120.238 87.9826 121.764 87.9546 123.584C87.9546 124.788 88.0246 125.936 88.1646 127.028C88.3326 128.12 88.6266 129.1 89.0466 129.968C89.4946 130.836 90.1106 131.522 90.8946 132.026C91.7066 132.53 92.7566 132.782 94.0446 132.782C95.2486 132.782 96.2426 132.572 97.0266 132.152C97.8106 131.704 98.4406 131.13 98.9166 130.43C99.3926 129.73 99.7566 129.016 100.009 128.288L101.143 128.792C100.835 129.744 100.373 130.654 99.7566 131.522C99.1686 132.39 98.3286 133.104 97.2366 133.664C96.1726 134.196 94.7446 134.462 92.9526 134.462ZM116.509 134.462C113.401 134.462 111.091 133.594 109.579 131.858C108.095 130.094 107.353 127.532 107.353 124.172C107.353 120.84 108.095 118.292 109.579 116.528C111.091 114.736 113.401 113.84 116.509 113.84C119.617 113.84 121.913 114.722 123.397 116.486C124.909 118.25 125.665 120.798 125.665 124.13C125.665 127.518 124.909 130.094 123.397 131.858C121.913 133.594 119.617 134.462 116.509 134.462ZM116.509 133.118C118.329 133.118 119.645 132.348 120.457 130.808C121.297 129.24 121.717 127.014 121.717 124.13C121.717 121.218 121.283 119.006 120.415 117.494C119.575 115.954 118.259 115.184 116.467 115.184C114.675 115.184 113.359 115.954 112.519 117.494C111.679 119.034 111.259 121.26 111.259 124.172C111.259 127.056 111.679 129.268 112.519 130.808C113.387 132.348 114.717 133.118 116.509 133.118Z" fill="#5C5E62"/>
<path d="M60.148 132.782L59.3735 134.067L59.3818 134.072L60.148 132.782ZM55.738 127.91L54.3824 128.552L54.3875 128.563L54.3928 128.574L55.738 127.91ZM55.822 112.706L57.1705 113.363L57.1738 113.356L55.822 112.706ZM60.4 107.582L61.1771 108.865L61.1771 108.865L60.4 107.582ZM71.068 106.154L71.4862 104.713L71.4862 104.713L71.068 106.154ZM73.168 106.952L72.4694 108.279L72.4973 108.294L72.5259 108.308L73.168 106.952ZM75.31 107.162L74.478 105.914L74.4779 105.914L75.31 107.162ZM75.646 106.742L74.2805 106.121L74.2479 106.193L74.223 106.268L75.646 106.742ZM75.856 106.28V104.78H74.8901L74.4905 105.659L75.856 106.28ZM76.822 106.28L78.3197 106.197L78.241 104.78H76.822V106.28ZM77.242 113.84V115.34H78.8276L78.7397 113.757L77.242 113.84ZM76.15 113.84L74.6948 114.204L74.9788 115.34H76.15V113.84ZM75.352 111.698L73.9915 112.33L73.9959 112.339L74.0005 112.349L75.352 111.698ZM73.84 109.514L72.7139 110.505L72.735 110.529L72.757 110.552L73.84 109.514ZM71.488 107.834L70.8673 109.2L70.8749 109.203L70.8825 109.206L71.488 107.834ZM64.18 108.044L63.4955 106.709L63.4884 106.713L63.4814 106.717L64.18 108.044ZM61.492 110.312L60.3005 109.401L60.2964 109.406L61.492 110.312ZM59.812 113.42L58.4033 112.905L58.3977 112.92L58.3925 112.935L59.812 113.42ZM58.972 116.906L60.4569 117.118L60.4569 117.118L58.972 116.906ZM59.224 124.886L57.7585 125.206L57.7619 125.221L57.7657 125.237L59.224 124.886ZM60.904 129.002L62.1825 128.217L62.1825 128.217L60.904 129.002ZM63.886 131.984L63.1015 133.262L63.1121 133.269L63.1229 133.275L63.886 131.984ZM70.48 132.824L70.1427 131.362L70.1299 131.365L70.48 132.824ZM73.378 130.178L74.8529 130.451L74.878 130.316V130.178H73.378ZM72.832 123.08L71.7713 124.141L71.8155 124.185L71.8631 124.225L72.832 123.08ZM70.312 122.576H68.812V124.076H70.312V122.576ZM70.312 121.358V119.858H68.812V121.358H70.312ZM79.342 121.358H80.842V119.858H79.342V121.358ZM79.342 122.576V124.076H80.842V122.576H79.342ZM77.578 122.996L76.463 121.993L76.4569 121.999L77.578 122.996ZM77.242 134.084V135.584H78.742V134.084H77.242ZM76.402 134.084L74.9683 134.525L75.2941 135.584H76.402V134.084ZM75.898 133.286L74.8373 134.347L74.9127 134.422L74.998 134.486L75.898 133.286ZM73.756 133.244L74.2034 134.676L74.2295 134.668L74.2552 134.658L73.756 133.244ZM72.118 133.748L71.6813 132.313L71.6722 132.316L71.6632 132.319L72.118 133.748ZM69.976 134.252L69.7211 132.774L69.6965 132.778L69.6721 132.783L69.976 134.252ZM67.12 133.004C64.6174 133.004 62.5703 132.477 60.9142 131.492L59.3818 134.072C61.5897 135.383 64.1906 136.004 67.12 136.004V133.004ZM60.9225 131.497C59.2776 130.506 57.9994 129.103 57.0832 127.246L54.3928 128.574C55.5486 130.917 57.2104 132.762 59.3735 134.067L60.9225 131.497ZM57.0936 127.268C56.1996 125.381 55.726 123.103 55.726 120.392H52.726C52.726 123.449 53.2604 126.183 54.3824 128.552L57.0936 127.268ZM55.726 120.392C55.726 117.632 56.225 115.304 57.1705 113.363L54.4735 112.049C53.291 114.476 52.726 117.271 52.726 120.392H55.726ZM57.1738 113.356C58.1191 111.391 59.4522 109.91 61.1771 108.865L59.6229 106.299C57.3718 107.662 55.6529 109.597 54.4703 112.056L57.1738 113.356ZM61.1771 108.865C62.8868 107.83 64.9997 107.276 67.582 107.276V104.276C64.5643 104.276 61.8892 104.926 59.6229 106.299L61.1771 108.865ZM67.582 107.276C68.9715 107.276 69.9747 107.399 70.6498 107.595L71.4862 104.713C70.4253 104.405 69.1045 104.276 67.582 104.276V107.276ZM70.6498 107.595C71.464 107.831 72.0594 108.064 72.4694 108.279L73.8666 105.625C73.2126 105.28 72.408 104.981 71.4862 104.713L70.6498 107.595ZM72.5259 108.308C73.1983 108.626 73.9096 108.83 74.638 108.83V105.83C74.4704 105.83 74.2017 105.782 73.8101 105.596L72.5259 108.308ZM74.638 108.83C75.1034 108.83 75.6493 108.739 76.1421 108.41L74.4779 105.914C74.5559 105.862 74.621 105.841 74.6522 105.833C74.6812 105.826 74.6803 105.83 74.638 105.83V108.83ZM76.142 108.41C76.5468 108.14 76.893 107.744 77.069 107.216L74.223 106.268C74.2516 106.182 74.2956 106.102 74.3487 106.036C74.4004 105.971 74.4495 105.933 74.478 105.914L76.142 108.41ZM77.0116 107.363L77.2216 106.901L74.4905 105.659L74.2805 106.121L77.0116 107.363ZM75.856 107.78H76.822V104.78H75.856V107.78ZM75.3243 106.363L75.7443 113.923L78.7397 113.757L78.3197 106.197L75.3243 106.363ZM77.242 112.34H76.15V115.34H77.242V112.34ZM77.6052 113.476C77.4079 112.687 77.1028 111.877 76.7035 111.047L74.0005 112.349C74.3292 113.031 74.5561 113.649 74.6948 114.204L77.6052 113.476ZM76.7125 111.066C76.2738 110.121 75.6724 109.258 74.923 108.476L72.757 110.552C73.2956 111.114 73.7022 111.707 73.9915 112.33L76.7125 111.066ZM74.9661 108.523C74.1904 107.642 73.2214 106.959 72.0935 106.462L70.8825 109.206C71.6586 109.549 72.2576 109.986 72.7139 110.505L74.9661 108.523ZM72.1087 106.468C70.9374 105.936 69.578 105.704 68.086 105.704V108.704C69.282 108.704 70.1906 108.892 70.8673 109.2L72.1087 106.468ZM68.086 105.704C66.3903 105.704 64.8429 106.018 63.4955 106.709L64.8645 109.379C65.7011 108.95 66.7577 108.704 68.086 108.704V105.704ZM63.4814 106.717C62.2255 107.378 61.1611 108.275 60.3005 109.401L62.6835 111.223C63.2789 110.445 64.0065 109.83 64.8786 109.371L63.4814 106.717ZM60.2964 109.406C59.5015 110.455 58.8717 111.624 58.4033 112.905L61.2207 113.935C61.5923 112.92 62.0825 112.017 62.6876 111.218L60.2964 109.406ZM58.3925 112.935C57.9709 114.17 57.6686 115.423 57.4871 116.694L60.4569 117.118C60.6114 116.037 60.8691 114.966 61.2315 113.905L58.3925 112.935ZM57.4871 116.694C57.3105 117.93 57.22 119.108 57.22 120.224H60.22C60.22 119.268 60.2975 118.234 60.4569 117.118L57.4871 116.694ZM57.22 120.224C57.22 121.9 57.3997 123.561 57.7585 125.206L60.6895 124.566C60.3763 123.131 60.22 121.684 60.22 120.224H57.22ZM57.7657 125.237C58.1637 126.89 58.7812 128.411 59.6255 129.787L62.1825 128.217C61.5148 127.129 61.0123 125.906 60.6823 124.535L57.7657 125.237ZM59.6255 129.787C60.505 131.22 61.6682 132.383 63.1015 133.262L64.6705 130.706C63.6398 130.073 62.815 129.248 62.1825 128.217L59.6255 129.787ZM63.1229 133.275C64.6307 134.166 66.3907 134.576 68.338 134.576V131.576C66.8133 131.576 65.6053 131.258 64.6491 130.693L63.1229 133.275ZM68.338 134.576C69.1826 134.576 70.0141 134.478 70.8301 134.283L70.1299 131.365C69.5459 131.506 68.9494 131.576 68.338 131.576V134.576ZM70.8173 134.286C71.7389 134.073 72.5764 133.69 73.2995 133.119L71.4405 130.765C71.0996 131.034 70.6771 131.239 70.1427 131.362L70.8173 134.286ZM73.2995 133.119C74.1553 132.444 74.6562 131.513 74.8529 130.451L71.9031 129.905C71.8198 130.355 71.6487 130.6 71.4405 130.765L73.2995 133.119ZM74.878 130.178V124.634H71.878V130.178H74.878ZM74.878 124.634C74.878 123.699 74.6469 122.651 73.8009 121.935L71.8631 124.225C71.8121 124.182 71.8102 124.151 71.8263 124.197C71.8462 124.253 71.878 124.387 71.878 124.634H74.878ZM73.8927 122.019C73.1118 121.238 71.9631 121.076 70.984 121.076V124.076C71.3478 124.076 71.584 124.111 71.7233 124.149C71.8629 124.187 71.8407 124.21 71.7713 124.141L73.8927 122.019ZM70.984 121.076H70.312V124.076H70.984V121.076ZM71.812 122.576V121.358H68.812V122.576H71.812ZM70.312 122.858H79.342V119.858H70.312V122.858ZM77.842 121.358V122.576H80.842V121.358H77.842ZM79.342 121.076H78.754V124.076H79.342V121.076ZM78.754 121.076C77.9771 121.076 77.1012 121.284 76.4631 121.993L78.6929 123.999C78.667 124.028 78.639 124.051 78.6127 124.069C78.5869 124.085 78.5692 124.092 78.5655 124.094C78.5625 124.095 78.5744 124.09 78.606 124.085C78.6377 124.081 78.6861 124.076 78.754 124.076V121.076ZM76.4569 121.999C75.8471 122.685 75.742 123.621 75.742 124.34H78.742C78.742 124.096 78.7641 123.953 78.7812 123.885C78.7991 123.813 78.7962 123.883 78.6991 123.993L76.4569 121.999ZM75.742 124.34V134.084H78.742V124.34H75.742ZM77.242 132.584H76.402V135.584H77.242V132.584ZM77.8357 133.643C77.6634 133.083 77.3526 132.502 76.798 132.086L74.998 134.486C74.9735 134.468 74.9551 134.45 74.9423 134.436C74.9298 134.422 74.9241 134.413 74.9238 134.412C74.9235 134.412 74.9285 134.42 74.9368 134.439C74.9451 134.457 74.9561 134.486 74.9683 134.525L77.8357 133.643ZM76.9587 132.225C76.3821 131.649 75.6392 131.492 75.016 131.492V134.492C75.0915 134.492 75.0965 134.502 75.0562 134.489C75.0086 134.473 74.9226 134.432 74.8373 134.347L76.9587 132.225ZM75.016 131.492C74.4302 131.492 73.8357 131.625 73.2568 131.83L74.2552 134.658C74.6283 134.527 74.8738 134.492 75.016 134.492V131.492ZM73.3086 131.812C72.8653 131.951 72.3231 132.118 71.6813 132.313L72.5547 135.183C73.2009 134.986 73.7507 134.817 74.2034 134.676L73.3086 131.812ZM71.6632 132.319C71.1276 132.489 70.4828 132.642 69.7211 132.774L70.2309 135.73C71.0932 135.582 71.8764 135.399 72.5728 135.177L71.6632 132.319ZM69.6721 132.783C68.9858 132.925 68.14 133.004 67.12 133.004V136.004C68.284 136.004 69.3422 135.915 70.2799 135.721L69.6721 132.783ZM86.1906 131.816L85.0175 132.751L85.0256 132.761L85.0338 132.771L86.1906 131.816ZM85.0146 118.754L83.6359 118.163L83.6314 118.174L83.6271 118.184L85.0146 118.754ZM87.9966 115.142L87.2016 113.87L87.1956 113.874L87.1896 113.878L87.9966 115.142ZM97.2786 114.806L96.5416 116.112L96.5545 116.12L96.5675 116.127L97.2786 114.806ZM99.7986 117.2L98.503 117.956L98.5076 117.964L98.5124 117.972L99.7986 117.2ZM100.975 120.434L99.495 120.681L99.4979 120.698L99.5011 120.715L100.975 120.434ZM101.311 124.34V125.84H102.811V124.34H101.311ZM87.1986 124.34L85.6994 124.293L85.651 125.84H87.1986V124.34ZM87.2406 122.996V121.496H85.7868L85.7414 122.949L87.2406 122.996ZM97.4046 122.996V124.496H98.9046V122.996H97.4046ZM96.9846 118.754L95.5179 119.068L95.5223 119.089L95.5273 119.109L96.9846 118.754ZM95.6406 116.108L94.58 117.169L94.6041 117.193L94.6292 117.216L95.6406 116.108ZM90.1386 116.15L89.1659 115.008L89.1553 115.017L89.1448 115.027L90.1386 116.15ZM88.5006 119.006L87.0596 118.59L87.0564 118.6L87.0535 118.611L88.5006 119.006ZM87.9546 123.584L86.4548 123.561L86.4546 123.572V123.584H87.9546ZM88.1646 127.028L86.6768 127.219L86.6792 127.237L86.6821 127.256L88.1646 127.028ZM89.0466 129.968L87.6964 130.621L87.7048 130.639L87.7137 130.656L89.0466 129.968ZM90.8946 132.026L90.0835 133.288L90.0935 133.294L90.1036 133.3L90.8946 132.026ZM97.0266 132.152L97.735 133.474L97.753 133.465L97.7708 133.454L97.0266 132.152ZM98.9166 130.43L100.157 131.273L100.157 131.273L98.9166 130.43ZM100.009 128.288L100.618 126.917L99.1254 126.254L98.5911 127.797L100.009 128.288ZM101.143 128.792L102.57 129.254L102.985 127.969L101.752 127.421L101.143 128.792ZM99.7566 131.522L98.5334 130.654L98.5239 130.667L98.5147 130.681L99.7566 131.522ZM97.2366 133.664L97.9074 135.006L97.9143 135.002L97.9211 134.999L97.2366 133.664ZM92.9526 132.962C90.1887 132.962 88.4305 132.173 87.3475 130.861L85.0338 132.771C86.8627 134.987 89.6125 135.962 92.9526 135.962V132.962ZM87.3637 130.881C86.2152 129.44 85.5486 127.334 85.5486 124.382H82.5486C82.5486 127.758 83.31 130.608 85.0175 132.751L87.3637 130.881ZM85.5486 124.382C85.5486 122.34 85.8505 120.667 86.4022 119.324L83.6271 118.184C82.8908 119.977 82.5486 122.056 82.5486 124.382H85.5486ZM86.3933 119.345C86.9582 118.027 87.7651 117.069 88.8037 116.406L87.1896 113.878C85.5962 114.895 84.415 116.345 83.6359 118.163L86.3933 119.345ZM88.7916 116.414C89.8434 115.757 91.2167 115.382 92.9946 115.382V112.382C90.7966 112.382 88.8379 112.847 87.2016 113.87L88.7916 116.414ZM92.9946 115.382C94.5999 115.382 95.7477 115.665 96.5416 116.112L98.0156 113.5C96.6256 112.715 94.9174 112.382 92.9946 112.382V115.382ZM96.5675 116.127C97.4323 116.592 98.0629 117.201 98.503 117.956L101.094 116.444C100.358 115.183 99.309 114.196 97.9898 113.485L96.5675 116.127ZM98.5124 117.972C98.9994 118.783 99.3286 119.682 99.495 120.681L102.454 120.187C102.229 118.834 101.774 117.577 101.085 116.428L98.5124 117.972ZM99.5011 120.715C99.7078 121.8 99.8106 122.882 99.8106 123.962H102.811C102.811 122.69 102.689 121.42 102.448 120.153L99.5011 120.715ZM99.8106 123.962V124.34H102.811V123.962H99.8106ZM101.311 122.84H87.1986V125.84H101.311V122.84ZM88.6979 124.387L88.7399 123.043L85.7414 122.949L85.6994 124.293L88.6979 124.387ZM87.2406 124.496H97.4046V121.496H87.2406V124.496ZM98.9046 122.996C98.9046 121.242 98.7594 119.7 98.4419 118.399L95.5273 119.109C95.7698 120.104 95.9046 121.39 95.9046 122.996H98.9046ZM98.4513 118.44C98.1581 117.071 97.5994 115.865 96.652 115L94.6292 117.216C94.9698 117.527 95.3072 118.085 95.5179 119.068L98.4513 118.44ZM96.7013 115.047C95.7298 114.076 94.4355 113.684 93.0366 113.684V116.684C93.8777 116.684 94.3195 116.908 94.58 117.169L96.7013 115.047ZM93.0366 113.684C91.5731 113.684 90.2415 114.092 89.1659 115.008L91.1113 117.292C91.5477 116.92 92.1482 116.684 93.0366 116.684V113.684ZM89.1448 115.027C88.1413 115.914 87.4757 117.149 87.0596 118.59L89.9417 119.422C90.2535 118.343 90.6799 117.674 91.1325 117.273L89.1448 115.027ZM87.0535 118.611C86.6737 120.004 86.484 121.664 86.4548 123.561L89.4544 123.607C89.4813 121.864 89.6555 120.472 89.9478 119.401L87.0535 118.611ZM86.4546 123.584C86.4546 124.846 86.528 126.058 86.6768 127.219L89.6524 126.837C89.5213 125.814 89.4546 124.73 89.4546 123.584H86.4546ZM86.6821 127.256C86.8695 128.475 87.2027 129.601 87.6964 130.621L90.3969 129.315C90.0506 128.599 89.7957 127.765 89.6472 126.8L86.6821 127.256ZM87.7137 130.656C88.2763 131.746 89.0675 132.635 90.0835 133.288L91.7058 130.764C91.1538 130.409 90.713 129.926 90.3796 129.28L87.7137 130.656ZM90.1036 133.3C91.2221 133.995 92.5713 134.282 94.0446 134.282V131.282C92.9419 131.282 92.1911 131.065 91.6857 130.752L90.1036 133.3ZM94.0446 134.282C95.4122 134.282 96.6697 134.045 97.735 133.474L96.3183 130.83C95.8155 131.099 95.085 131.282 94.0446 131.282V134.282ZM97.7708 133.454C98.7395 132.901 99.5442 132.175 100.157 131.273L97.6762 129.587C97.337 130.085 96.8818 130.507 96.2824 130.85L97.7708 133.454ZM100.157 131.273C100.7 130.475 101.127 129.643 101.426 128.779L98.5911 127.797C98.3864 128.389 98.0852 128.985 97.6762 129.587L100.157 131.273ZM99.3994 129.659L100.533 130.163L101.752 127.421L100.618 126.917L99.3994 129.659ZM99.7155 128.33C99.4573 129.128 99.0668 129.902 98.5334 130.654L100.98 132.39C101.678 131.406 102.212 130.36 102.57 129.254L99.7155 128.33ZM98.5147 130.681C98.0905 131.307 97.4583 131.865 96.5522 132.329L97.9211 134.999C99.199 134.343 100.247 133.473 100.999 132.363L98.5147 130.681ZM96.5658 132.322C95.7888 132.711 94.6195 132.962 92.9526 132.962V135.962C94.8697 135.962 96.5564 135.681 97.9074 135.006L96.5658 132.322ZM109.579 131.858L108.431 132.824L108.439 132.833L108.448 132.843L109.579 131.858ZM109.579 116.528L108.432 115.561L108.431 115.562L109.579 116.528ZM123.397 116.486L122.249 117.452L122.258 117.462L123.397 116.486ZM123.397 131.858L122.258 130.882L122.257 130.883L123.397 131.858ZM120.457 130.808L119.134 130.1L119.13 130.108L120.457 130.808ZM120.415 117.494L119.098 118.212L119.106 118.227L119.114 118.241L120.415 117.494ZM112.519 117.494L113.836 118.212L113.836 118.212L112.519 117.494ZM112.519 130.808L111.202 131.526L111.207 131.535L111.212 131.545L112.519 130.808ZM116.509 132.962C113.675 132.962 111.847 132.178 110.71 130.873L108.448 132.843C110.335 135.01 113.127 135.962 116.509 135.962V132.962ZM110.727 130.892C109.554 129.499 108.853 127.336 108.853 124.172H105.853C105.853 127.728 106.635 130.689 108.431 132.824L110.727 130.892ZM108.853 124.172C108.853 121.039 109.553 118.889 110.727 117.494L108.431 115.562C106.637 117.695 105.853 120.641 105.853 124.172H108.853ZM110.725 117.495C111.866 116.143 113.69 115.34 116.509 115.34V112.34C113.112 112.34 110.315 113.329 108.432 115.561L110.725 117.495ZM116.509 115.34C119.337 115.34 121.14 116.134 122.249 117.452L124.545 115.52C122.685 113.31 119.896 112.34 116.509 112.34V115.34ZM122.258 117.462C123.454 118.857 124.165 121.003 124.165 124.13H127.165C127.165 120.593 126.364 117.643 124.536 115.51L122.258 117.462ZM124.165 124.13C124.165 127.32 123.45 129.491 122.258 130.882L124.536 132.834C126.367 130.697 127.165 127.716 127.165 124.13H124.165ZM122.257 130.883C121.15 132.177 119.345 132.962 116.509 132.962V135.962C119.889 135.962 122.675 135.011 124.537 132.833L122.257 130.883ZM116.509 134.618C117.633 134.618 118.69 134.379 119.618 133.835C120.551 133.29 121.266 132.489 121.784 131.508L119.13 130.108C118.835 130.667 118.487 131.021 118.103 131.246C117.716 131.472 117.204 131.618 116.509 131.618V134.618ZM121.779 131.516C122.787 129.635 123.217 127.124 123.217 124.13H120.217C120.217 126.904 119.807 128.845 119.135 130.1L121.779 131.516ZM123.217 124.13C123.217 121.111 122.774 118.591 121.716 116.747L119.114 118.241C119.791 119.421 120.217 121.325 120.217 124.13H123.217ZM121.732 116.776C121.201 115.803 120.482 115.009 119.555 114.467C118.63 113.925 117.582 113.684 116.467 113.684V116.684C117.144 116.684 117.649 116.828 118.04 117.056C118.429 117.284 118.788 117.645 119.098 118.212L121.732 116.776ZM116.467 113.684C115.352 113.684 114.303 113.925 113.378 114.467C112.451 115.009 111.732 115.803 111.202 116.776L113.836 118.212C114.145 117.645 114.504 117.284 114.893 117.056C115.284 116.828 115.79 116.684 116.467 116.684V113.684ZM111.202 116.776C110.187 118.636 109.759 121.156 109.759 124.172H112.759C112.759 121.364 113.17 119.432 113.836 118.212L111.202 116.776ZM109.759 124.172C109.759 127.163 110.188 129.667 111.202 131.526L113.836 130.09C113.17 128.869 112.759 126.949 112.759 124.172H109.759ZM111.212 131.545C112.35 133.564 114.185 134.618 116.509 134.618V131.618C115.249 131.618 114.423 131.132 113.825 130.071L111.212 131.545Z" fill="#5C5E62" mask="url(#path-2-outside-1_779_44)"/>
<mask id="path-4-outside-2_779_44" maskUnits="userSpaceOnUse" x="129.516" y="103" width="90" height="34" fill="black">
<rect fill="white" x="129.516" y="103" width="90" height="34"/>
<path d="M131.616 134V132.782C132.652 132.782 133.394 132.726 133.842 132.614C134.29 132.502 134.57 132.264 134.682 131.9C134.794 131.536 134.85 130.99 134.85 130.262V110.018C134.85 109.29 134.794 108.758 134.682 108.422C134.57 108.058 134.29 107.82 133.842 107.708C133.394 107.568 132.652 107.498 131.616 107.498V106.28H142.158C144.174 106.28 145.938 106.504 147.45 106.952C148.962 107.372 150.138 108.044 150.978 108.968C151.846 109.892 152.28 111.124 152.28 112.664C152.28 114.232 151.804 115.562 150.852 116.654C149.9 117.746 148.556 118.488 146.82 118.88V118.922C148.136 119.146 149.298 119.58 150.306 120.224C151.314 120.868 152.098 121.722 152.658 122.786C153.246 123.822 153.54 125.068 153.54 126.524C153.54 128.26 153.12 129.688 152.28 130.808C151.44 131.9 150.222 132.712 148.626 133.244C147.03 133.748 145.098 134 142.83 134H131.616ZM142.2 132.614C143.572 132.614 144.79 132.418 145.854 132.026C146.918 131.634 147.744 130.99 148.332 130.094C148.948 129.17 149.256 127.966 149.256 126.482C149.256 124.41 148.64 122.786 147.408 121.61C146.176 120.434 144.356 119.846 141.948 119.846H138.714V129.548C138.714 130.724 138.952 131.536 139.428 131.984C139.904 132.404 140.828 132.614 142.2 132.614ZM138.714 118.376H141.822C143.978 118.376 145.588 117.942 146.652 117.074C147.716 116.206 148.248 114.876 148.248 113.084C148.248 111.712 147.94 110.634 147.324 109.85C146.736 109.066 145.924 108.52 144.888 108.212C143.88 107.876 142.732 107.708 141.444 107.708C140.604 107.708 139.988 107.764 139.596 107.876C139.232 107.988 138.994 108.184 138.882 108.464C138.77 108.744 138.714 109.136 138.714 109.64V118.376ZM158.839 134V132.782C159.763 132.782 160.421 132.726 160.813 132.614C161.233 132.502 161.485 132.292 161.569 131.984C161.681 131.648 161.737 131.158 161.737 130.514V108.842C161.737 108.114 161.653 107.638 161.485 107.414C161.317 107.162 160.981 107.036 160.477 107.036H159.049V105.776L164.131 104.936H165.307V130.514C165.307 131.158 165.363 131.648 165.475 131.984C165.587 132.292 165.839 132.502 166.231 132.614C166.651 132.726 167.295 132.782 168.163 132.782V134H158.839ZM181.025 134.504C179.149 134.504 177.749 134 176.825 132.992C175.901 131.984 175.439 130.486 175.439 128.498V117.914C175.439 117.186 175.355 116.696 175.187 116.444C175.019 116.192 174.683 116.066 174.179 116.066H172.751V114.848L177.833 114.092H179.009V127.826C179.009 128.666 179.135 129.436 179.387 130.136C179.639 130.836 180.045 131.396 180.605 131.816C181.193 132.236 181.949 132.446 182.873 132.446C183.769 132.446 184.553 132.25 185.225 131.858C185.897 131.438 186.499 130.906 187.031 130.262C187.563 129.618 188.039 128.974 188.459 128.33V130.094C188.011 130.794 187.437 131.494 186.737 132.194C186.065 132.866 185.253 133.426 184.301 133.874C183.377 134.294 182.285 134.504 181.025 134.504ZM187.913 134V131.06H187.829L187.871 117.914C187.871 117.186 187.787 116.696 187.619 116.444C187.451 116.192 187.115 116.066 186.611 116.066H185.183V114.848L190.265 114.092H191.399V130.514C191.399 131.158 191.455 131.648 191.567 131.984C191.679 132.292 191.931 132.502 192.323 132.614C192.743 132.726 193.401 132.782 194.297 132.782V134H187.913ZM209.039 134.462C205.987 134.462 203.733 133.58 202.277 131.816C200.849 130.024 200.135 127.546 200.135 124.382C200.135 122.198 200.457 120.322 201.101 118.754C201.773 117.186 202.767 115.982 204.083 115.142C205.427 114.302 207.093 113.882 209.081 113.882C210.845 113.882 212.273 114.19 213.365 114.806C214.457 115.394 215.297 116.192 215.885 117.2C216.473 118.18 216.865 119.258 217.061 120.434C217.285 121.61 217.397 122.786 217.397 123.962V124.34H203.285L203.327 122.996H213.491C213.491 121.316 213.351 119.902 213.071 118.754C212.819 117.578 212.371 116.696 211.727 116.108C211.111 115.492 210.243 115.184 209.123 115.184C207.947 115.184 206.981 115.506 206.225 116.15C205.497 116.794 204.951 117.746 204.587 119.006C204.251 120.238 204.069 121.764 204.041 123.584C204.041 124.788 204.111 125.936 204.251 127.028C204.419 128.12 204.713 129.1 205.133 129.968C205.581 130.836 206.197 131.522 206.981 132.026C207.793 132.53 208.843 132.782 210.131 132.782C211.335 132.782 212.329 132.572 213.113 132.152C213.897 131.704 214.527 131.13 215.003 130.43C215.479 129.73 215.843 129.016 216.095 128.288L217.229 128.792C216.921 129.744 216.459 130.654 215.843 131.522C215.255 132.39 214.415 133.104 213.323 133.664C212.259 134.196 210.831 134.462 209.039 134.462Z"/>
</mask>
<path d="M131.616 134V132.782C132.652 132.782 133.394 132.726 133.842 132.614C134.29 132.502 134.57 132.264 134.682 131.9C134.794 131.536 134.85 130.99 134.85 130.262V110.018C134.85 109.29 134.794 108.758 134.682 108.422C134.57 108.058 134.29 107.82 133.842 107.708C133.394 107.568 132.652 107.498 131.616 107.498V106.28H142.158C144.174 106.28 145.938 106.504 147.45 106.952C148.962 107.372 150.138 108.044 150.978 108.968C151.846 109.892 152.28 111.124 152.28 112.664C152.28 114.232 151.804 115.562 150.852 116.654C149.9 117.746 148.556 118.488 146.82 118.88V118.922C148.136 119.146 149.298 119.58 150.306 120.224C151.314 120.868 152.098 121.722 152.658 122.786C153.246 123.822 153.54 125.068 153.54 126.524C153.54 128.26 153.12 129.688 152.28 130.808C151.44 131.9 150.222 132.712 148.626 133.244C147.03 133.748 145.098 134 142.83 134H131.616ZM142.2 132.614C143.572 132.614 144.79 132.418 145.854 132.026C146.918 131.634 147.744 130.99 148.332 130.094C148.948 129.17 149.256 127.966 149.256 126.482C149.256 124.41 148.64 122.786 147.408 121.61C146.176 120.434 144.356 119.846 141.948 119.846H138.714V129.548C138.714 130.724 138.952 131.536 139.428 131.984C139.904 132.404 140.828 132.614 142.2 132.614ZM138.714 118.376H141.822C143.978 118.376 145.588 117.942 146.652 117.074C147.716 116.206 148.248 114.876 148.248 113.084C148.248 111.712 147.94 110.634 147.324 109.85C146.736 109.066 145.924 108.52 144.888 108.212C143.88 107.876 142.732 107.708 141.444 107.708C140.604 107.708 139.988 107.764 139.596 107.876C139.232 107.988 138.994 108.184 138.882 108.464C138.77 108.744 138.714 109.136 138.714 109.64V118.376ZM158.839 134V132.782C159.763 132.782 160.421 132.726 160.813 132.614C161.233 132.502 161.485 132.292 161.569 131.984C161.681 131.648 161.737 131.158 161.737 130.514V108.842C161.737 108.114 161.653 107.638 161.485 107.414C161.317 107.162 160.981 107.036 160.477 107.036H159.049V105.776L164.131 104.936H165.307V130.514C165.307 131.158 165.363 131.648 165.475 131.984C165.587 132.292 165.839 132.502 166.231 132.614C166.651 132.726 167.295 132.782 168.163 132.782V134H158.839ZM181.025 134.504C179.149 134.504 177.749 134 176.825 132.992C175.901 131.984 175.439 130.486 175.439 128.498V117.914C175.439 117.186 175.355 116.696 175.187 116.444C175.019 116.192 174.683 116.066 174.179 116.066H172.751V114.848L177.833 114.092H179.009V127.826C179.009 128.666 179.135 129.436 179.387 130.136C179.639 130.836 180.045 131.396 180.605 131.816C181.193 132.236 181.949 132.446 182.873 132.446C183.769 132.446 184.553 132.25 185.225 131.858C185.897 131.438 186.499 130.906 187.031 130.262C187.563 129.618 188.039 128.974 188.459 128.33V130.094C188.011 130.794 187.437 131.494 186.737 132.194C186.065 132.866 185.253 133.426 184.301 133.874C183.377 134.294 182.285 134.504 181.025 134.504ZM187.913 134V131.06H187.829L187.871 117.914C187.871 117.186 187.787 116.696 187.619 116.444C187.451 116.192 187.115 116.066 186.611 116.066H185.183V114.848L190.265 114.092H191.399V130.514C191.399 131.158 191.455 131.648 191.567 131.984C191.679 132.292 191.931 132.502 192.323 132.614C192.743 132.726 193.401 132.782 194.297 132.782V134H187.913ZM209.039 134.462C205.987 134.462 203.733 133.58 202.277 131.816C200.849 130.024 200.135 127.546 200.135 124.382C200.135 122.198 200.457 120.322 201.101 118.754C201.773 117.186 202.767 115.982 204.083 115.142C205.427 114.302 207.093 113.882 209.081 113.882C210.845 113.882 212.273 114.19 213.365 114.806C214.457 115.394 215.297 116.192 215.885 117.2C216.473 118.18 216.865 119.258 217.061 120.434C217.285 121.61 217.397 122.786 217.397 123.962V124.34H203.285L203.327 122.996H213.491C213.491 121.316 213.351 119.902 213.071 118.754C212.819 117.578 212.371 116.696 211.727 116.108C211.111 115.492 210.243 115.184 209.123 115.184C207.947 115.184 206.981 115.506 206.225 116.15C205.497 116.794 204.951 117.746 204.587 119.006C204.251 120.238 204.069 121.764 204.041 123.584C204.041 124.788 204.111 125.936 204.251 127.028C204.419 128.12 204.713 129.1 205.133 129.968C205.581 130.836 206.197 131.522 206.981 132.026C207.793 132.53 208.843 132.782 210.131 132.782C211.335 132.782 212.329 132.572 213.113 132.152C213.897 131.704 214.527 131.13 215.003 130.43C215.479 129.73 215.843 129.016 216.095 128.288L217.229 128.792C216.921 129.744 216.459 130.654 215.843 131.522C215.255 132.39 214.415 133.104 213.323 133.664C212.259 134.196 210.831 134.462 209.039 134.462Z" fill="#5C5E62"/>
<path d="M131.616 134H130.116V135.5H131.616V134ZM131.616 132.782V131.282H130.116V132.782H131.616ZM133.842 132.614L134.205 134.069L134.205 134.069L133.842 132.614ZM134.682 108.422L133.248 108.863L133.253 108.88L133.259 108.896L134.682 108.422ZM133.842 107.708L133.394 109.14L133.436 109.153L133.478 109.163L133.842 107.708ZM131.616 107.498H130.116V108.998H131.616V107.498ZM131.616 106.28V104.78H130.116V106.28H131.616ZM147.45 106.952L147.023 108.39L147.036 108.394L147.048 108.397L147.45 106.952ZM150.978 108.968L149.868 109.977L149.876 109.986L149.884 109.995L150.978 108.968ZM150.852 116.654L149.721 115.668L149.721 115.668L150.852 116.654ZM146.82 118.88L146.489 117.417L145.32 117.681V118.88H146.82ZM146.82 118.922H145.32V120.188L146.568 120.401L146.82 118.922ZM150.306 120.224L151.113 118.96L151.113 118.96L150.306 120.224ZM152.658 122.786L151.33 123.485L151.341 123.506L151.353 123.526L152.658 122.786ZM152.28 130.808L153.469 131.723L153.474 131.715L153.48 131.708L152.28 130.808ZM148.626 133.244L149.077 134.674L149.089 134.671L149.1 134.667L148.626 133.244ZM145.854 132.026L146.372 133.434L146.372 133.434L145.854 132.026ZM148.332 130.094L147.084 129.262L147.078 129.271L148.332 130.094ZM138.714 119.846V118.346H137.214V119.846H138.714ZM139.428 131.984L138.4 133.076L138.417 133.093L138.435 133.109L139.428 131.984ZM138.714 118.376H137.214V119.876H138.714V118.376ZM146.652 117.074L145.703 115.912L145.703 115.912L146.652 117.074ZM147.324 109.85L146.124 110.75L146.134 110.763L146.144 110.777L147.324 109.85ZM144.888 108.212L144.413 109.635L144.437 109.643L144.46 109.65L144.888 108.212ZM139.596 107.876L139.184 106.434L139.169 106.438L139.154 106.442L139.596 107.876ZM138.882 108.464L137.489 107.907L137.489 107.907L138.882 108.464ZM133.116 134V132.782H130.116V134H133.116ZM131.616 134.282C132.661 134.282 133.564 134.23 134.205 134.069L133.478 131.159C133.223 131.222 132.642 131.282 131.616 131.282V134.282ZM134.205 134.069C135.037 133.861 135.814 133.32 136.115 132.341L133.248 131.459C133.259 131.425 133.278 131.379 133.309 131.331C133.341 131.282 133.378 131.241 133.416 131.209C133.491 131.145 133.534 131.145 133.478 131.159L134.205 134.069ZM136.115 132.341C136.295 131.758 136.35 131.03 136.35 130.262H133.35C133.35 130.95 133.292 131.314 133.248 131.459L136.115 132.341ZM136.35 130.262V110.018H133.35V130.262H136.35ZM136.35 110.018C136.35 109.262 136.297 108.526 136.105 107.948L133.259 108.896C133.29 108.99 133.35 109.318 133.35 110.018H136.35ZM136.115 107.981C135.814 107.002 135.037 106.461 134.205 106.253L133.478 109.163C133.534 109.177 133.491 109.177 133.416 109.113C133.378 109.081 133.341 109.04 133.309 108.991C133.278 108.943 133.259 108.897 133.248 108.863L136.115 107.981ZM134.289 106.276C133.606 106.063 132.666 105.998 131.616 105.998V108.998C132.638 108.998 133.181 109.073 133.394 109.14L134.289 106.276ZM133.116 107.498V106.28H130.116V107.498H133.116ZM131.616 107.78H142.158V104.78H131.616V107.78ZM142.158 107.78C144.067 107.78 145.682 107.993 147.023 108.39L147.876 105.514C146.193 105.015 144.28 104.78 142.158 104.78V107.78ZM147.048 108.397C148.357 108.761 149.261 109.31 149.868 109.977L152.088 107.959C151.014 106.778 149.566 105.983 147.851 105.507L147.048 108.397ZM149.884 109.995C150.437 110.584 150.78 111.419 150.78 112.664H153.78C153.78 110.829 153.254 109.2 152.071 107.941L149.884 109.995ZM150.78 112.664C150.78 113.902 150.414 114.873 149.721 115.668L151.982 117.64C153.193 116.251 153.78 114.562 153.78 112.664H150.78ZM149.721 115.668C149.022 116.47 147.987 117.079 146.489 117.417L147.15 120.343C149.124 119.897 150.777 119.022 151.982 117.64L149.721 115.668ZM145.32 118.88V118.922H148.32V118.88H145.32ZM146.568 120.401C147.709 120.595 148.678 120.964 149.498 121.488L151.113 118.96C149.918 118.196 148.562 117.697 147.071 117.443L146.568 120.401ZM149.498 121.488C150.285 121.991 150.891 122.65 151.33 123.485L153.985 122.087C153.304 120.794 152.342 119.745 151.113 118.96L149.498 121.488ZM151.353 123.526C151.787 124.292 152.04 125.27 152.04 126.524H155.04C155.04 124.866 154.704 123.352 153.962 122.046L151.353 123.526ZM152.04 126.524C152.04 128.015 151.682 129.105 151.08 129.908L153.48 131.708C154.557 130.271 155.04 128.505 155.04 126.524H152.04ZM151.091 129.893C150.47 130.701 149.527 131.362 148.151 131.821L149.1 134.667C150.916 134.062 152.409 133.099 153.469 131.723L151.091 129.893ZM148.174 131.814C146.766 132.258 144.995 132.5 142.83 132.5V135.5C145.2 135.5 147.294 135.238 149.077 134.674L148.174 131.814ZM142.83 132.5H131.616V135.5H142.83V132.5ZM142.2 134.114C143.713 134.114 145.111 133.898 146.372 133.434L145.335 130.618C144.468 130.938 143.431 131.114 142.2 131.114V134.114ZM146.372 133.434C147.719 132.937 148.811 132.098 149.586 130.917L147.078 129.271C146.676 129.882 146.116 130.331 145.335 130.618L146.372 133.434ZM149.58 130.926C150.407 129.685 150.756 128.165 150.756 126.482H147.756C147.756 127.767 147.488 128.655 147.084 129.262L149.58 130.926ZM150.756 126.482C150.756 124.095 150.034 122.044 148.443 120.525L146.372 122.695C147.245 123.528 147.756 124.725 147.756 126.482H150.756ZM148.443 120.525C146.835 118.989 144.581 118.346 141.948 118.346V121.346C144.13 121.346 145.517 121.879 146.372 122.695L148.443 120.525ZM141.948 118.346H138.714V121.346H141.948V118.346ZM137.214 119.846V129.548H140.214V119.846H137.214ZM137.214 129.548C137.214 130.833 137.456 132.188 138.4 133.076L140.456 130.892C140.461 130.897 140.397 130.841 140.332 130.617C140.265 130.39 140.214 130.044 140.214 129.548H137.214ZM138.435 133.109C138.932 133.547 139.55 133.784 140.145 133.919C140.753 134.057 141.447 134.114 142.2 134.114V131.114C141.58 131.114 141.126 131.066 140.81 130.994C140.482 130.919 140.4 130.841 140.42 130.859L138.435 133.109ZM138.714 119.876H141.822V116.876H138.714V119.876ZM141.822 119.876C144.137 119.876 146.153 119.417 147.6 118.236L145.703 115.912C145.022 116.467 143.818 116.876 141.822 116.876V119.876ZM147.6 118.236C149.113 117.001 149.748 115.179 149.748 113.084H146.748C146.748 114.573 146.318 115.411 145.703 115.912L147.6 118.236ZM149.748 113.084C149.748 111.501 149.393 110.055 148.503 108.923L146.144 110.777C146.487 111.213 146.748 111.923 146.748 113.084H149.748ZM148.524 108.95C147.723 107.882 146.626 107.164 145.315 106.774L144.46 109.65C145.221 109.876 145.749 110.25 146.124 110.75L148.524 108.95ZM145.362 106.789C144.173 106.392 142.86 106.208 141.444 106.208V109.208C142.603 109.208 143.587 109.36 144.413 109.635L145.362 106.789ZM141.444 106.208C140.579 106.208 139.787 106.261 139.184 106.434L140.008 109.318C140.188 109.267 140.628 109.208 141.444 109.208V106.208ZM139.154 106.442C138.481 106.649 137.812 107.098 137.489 107.907L140.274 109.021C140.235 109.12 140.169 109.206 140.098 109.265C140.034 109.317 139.999 109.321 140.037 109.31L139.154 106.442ZM137.489 107.907C137.274 108.444 137.214 109.056 137.214 109.64H140.214C140.214 109.441 140.225 109.29 140.241 109.18C140.248 109.126 140.256 109.086 140.263 109.059C140.27 109.031 140.275 109.02 140.274 109.021L137.489 107.907ZM137.214 109.64V118.376H140.214V109.64H137.214ZM158.839 134H157.339V135.5H158.839V134ZM158.839 132.782V131.282H157.339V132.782H158.839ZM160.813 132.614L160.426 131.165L160.413 131.168L160.4 131.172L160.813 132.614ZM161.569 131.984L160.145 131.51L160.132 131.549L160.121 131.589L161.569 131.984ZM161.485 107.414L160.236 108.246L160.26 108.281L160.285 108.314L161.485 107.414ZM159.049 107.036H157.549V108.536H159.049V107.036ZM159.049 105.776L158.804 104.296L157.549 104.504V105.776H159.049ZM164.131 104.936V103.436H164.007L163.886 103.456L164.131 104.936ZM165.307 104.936H166.807V103.436H165.307V104.936ZM165.475 131.984L164.051 132.458L164.058 132.478L164.065 132.497L165.475 131.984ZM166.231 132.614L165.818 134.056L165.831 134.06L165.844 134.063L166.231 132.614ZM168.163 132.782H169.663V131.282H168.163V132.782ZM168.163 134V135.5H169.663V134H168.163ZM160.339 134V132.782H157.339V134H160.339ZM158.839 134.282C159.771 134.282 160.614 134.231 161.225 134.056L160.4 131.172C160.227 131.221 159.754 131.282 158.839 131.282V134.282ZM161.199 134.063C161.925 133.87 162.742 133.382 163.016 132.379L160.121 131.589C160.14 131.522 160.17 131.45 160.216 131.38C160.261 131.311 160.311 131.258 160.356 131.22C160.443 131.148 160.491 131.147 160.426 131.165L161.199 134.063ZM162.992 132.458C163.18 131.892 163.237 131.21 163.237 130.514H160.237C160.237 131.106 160.181 131.404 160.145 131.51L162.992 132.458ZM163.237 130.514V108.842H160.237V130.514H163.237ZM163.237 108.842C163.237 108.43 163.213 108.034 163.151 107.678C163.093 107.354 162.978 106.905 162.685 106.514L160.285 108.314C160.213 108.219 160.187 108.147 160.183 108.137C160.179 108.125 160.186 108.141 160.196 108.2C160.218 108.32 160.237 108.526 160.237 108.842H163.237ZM162.733 106.582C162.141 105.694 161.145 105.536 160.477 105.536V108.536C160.616 108.536 160.633 108.555 160.58 108.535C160.549 108.523 160.493 108.498 160.427 108.449C160.359 108.398 160.293 108.33 160.236 108.246L162.733 106.582ZM160.477 105.536H159.049V108.536H160.477V105.536ZM160.549 107.036V105.776H157.549V107.036H160.549ZM159.293 107.256L164.375 106.416L163.886 103.456L158.804 104.296L159.293 107.256ZM164.131 106.436H165.307V103.436H164.131V106.436ZM163.807 104.936V130.514H166.807V104.936H163.807ZM163.807 130.514C163.807 131.21 163.863 131.892 164.051 132.458L166.898 131.51C166.862 131.404 166.807 131.106 166.807 130.514H163.807ZM164.065 132.497C164.381 133.367 165.09 133.848 165.818 134.056L166.643 131.172C166.6 131.16 166.639 131.163 166.708 131.22C166.785 131.285 166.849 131.376 166.884 131.471L164.065 132.497ZM165.844 134.063C166.461 134.228 167.266 134.282 168.163 134.282V131.282C167.323 131.282 166.84 131.224 166.617 131.165L165.844 134.063ZM166.663 132.782V134H169.663V132.782H166.663ZM168.163 132.5H158.839V135.5H168.163V132.5ZM176.825 132.992L175.719 134.006L175.719 134.006L176.825 132.992ZM175.187 116.444L176.435 115.612L176.435 115.612L175.187 116.444ZM172.751 116.066H171.251V117.566H172.751V116.066ZM172.751 114.848L172.53 113.364L171.251 113.555V114.848H172.751ZM177.833 114.092V112.592H177.722L177.612 112.608L177.833 114.092ZM179.009 114.092H180.509V112.592H179.009V114.092ZM179.387 130.136L180.798 129.628L180.798 129.628L179.387 130.136ZM180.605 131.816L179.705 133.016L179.719 133.026L179.733 133.037L180.605 131.816ZM185.225 131.858L185.981 133.154L186.001 133.142L186.02 133.13L185.225 131.858ZM187.031 130.262L185.875 129.307L185.875 129.307L187.031 130.262ZM188.459 128.33H189.959V123.284L187.203 127.511L188.459 128.33ZM188.459 130.094L189.722 130.903L189.959 130.533V130.094H188.459ZM186.737 132.194L185.676 131.133L185.676 131.133L186.737 132.194ZM184.301 133.874L184.922 135.24L184.931 135.235L184.94 135.231L184.301 133.874ZM187.913 134H186.413V135.5H187.913V134ZM187.913 131.06H189.413V129.56H187.913V131.06ZM187.829 131.06L186.329 131.055L186.324 132.56H187.829V131.06ZM187.871 117.914L189.371 117.919V117.914H187.871ZM187.619 116.444L186.371 117.276L186.371 117.276L187.619 116.444ZM185.183 116.066H183.683V117.566H185.183V116.066ZM185.183 114.848L184.962 113.364L183.683 113.555V114.848H185.183ZM190.265 114.092V112.592H190.154L190.044 112.608L190.265 114.092ZM191.399 114.092H192.899V112.592H191.399V114.092ZM191.567 131.984L190.144 132.458L190.15 132.478L190.157 132.497L191.567 131.984ZM192.323 132.614L191.911 134.056L191.924 134.06L191.937 134.063L192.323 132.614ZM194.297 132.782H195.797V131.282H194.297V132.782ZM194.297 134V135.5H195.797V134H194.297ZM181.025 133.004C179.407 133.004 178.477 132.574 177.931 131.978L175.719 134.006C177.021 135.426 178.891 136.004 181.025 136.004V133.004ZM177.931 131.978C177.355 131.35 176.939 130.279 176.939 128.498H173.939C173.939 130.693 174.447 132.618 175.719 134.006L177.931 131.978ZM176.939 128.498V117.914H173.939V128.498H176.939ZM176.939 117.914C176.939 117.5 176.916 117.105 176.854 116.747C176.797 116.411 176.687 115.99 176.435 115.612L173.939 117.276C173.914 117.239 173.898 117.209 173.89 117.19C173.881 117.171 173.877 117.16 173.877 117.16C173.877 117.16 173.879 117.167 173.883 117.183C173.887 117.2 173.892 117.223 173.898 117.254C173.92 117.386 173.939 117.6 173.939 117.914H176.939ZM176.435 115.612C175.843 114.724 174.847 114.566 174.179 114.566V117.566C174.318 117.566 174.336 117.585 174.282 117.565C174.251 117.553 174.195 117.528 174.13 117.479C174.062 117.428 173.995 117.36 173.939 117.276L176.435 115.612ZM174.179 114.566H172.751V117.566H174.179V114.566ZM174.251 116.066V114.848H171.251V116.066H174.251ZM172.972 116.332L178.054 115.576L177.612 112.608L172.53 113.364L172.972 116.332ZM177.833 115.592H179.009V112.592H177.833V115.592ZM177.509 114.092V127.826H180.509V114.092H177.509ZM177.509 127.826C177.509 128.817 177.658 129.762 177.976 130.644L180.798 129.628C180.612 129.11 180.509 128.515 180.509 127.826H177.509ZM177.976 130.644C178.32 131.602 178.896 132.409 179.705 133.016L181.505 130.616C181.194 130.383 180.958 130.07 180.798 129.628L177.976 130.644ZM179.733 133.037C180.638 133.683 181.724 133.946 182.873 133.946V130.946C182.174 130.946 181.748 130.789 181.477 130.595L179.733 133.037ZM182.873 133.946C183.994 133.946 185.047 133.699 185.981 133.154L184.469 130.562C184.06 130.801 183.544 130.946 182.873 130.946V133.946ZM186.02 133.13C186.836 132.62 187.558 131.979 188.187 131.217L185.875 129.307C185.44 129.833 184.958 130.256 184.43 130.586L186.02 133.13ZM188.187 131.217C188.752 130.534 189.262 129.844 189.715 129.149L187.203 127.511C186.816 128.104 186.374 128.702 185.875 129.307L188.187 131.217ZM186.959 128.33V130.094H189.959V128.33H186.959ZM187.196 129.285C186.816 129.879 186.314 130.496 185.676 131.133L187.798 133.255C188.56 132.492 189.206 131.709 189.722 130.903L187.196 129.285ZM185.676 131.133C185.139 131.67 184.474 132.135 183.662 132.517L184.94 135.231C186.032 134.717 186.991 134.062 187.798 133.255L185.676 131.133ZM183.68 132.508C182.992 132.821 182.121 133.004 181.025 133.004V136.004C182.449 136.004 183.762 135.767 184.922 135.24L183.68 132.508ZM189.413 134V131.06H186.413V134H189.413ZM187.913 129.56H187.829V132.56H187.913V129.56ZM189.329 131.065L189.371 117.919L186.371 117.909L186.329 131.055L189.329 131.065ZM189.371 117.914C189.371 117.5 189.348 117.105 189.286 116.747C189.229 116.411 189.119 115.99 188.867 115.612L186.371 117.276C186.346 117.239 186.33 117.209 186.322 117.19C186.313 117.171 186.309 117.16 186.309 117.16C186.309 117.16 186.311 117.167 186.315 117.183C186.319 117.2 186.324 117.223 186.33 117.254C186.352 117.386 186.371 117.6 186.371 117.914H189.371ZM188.867 115.612C188.275 114.724 187.279 114.566 186.611 114.566V117.566C186.75 117.566 186.768 117.585 186.714 117.565C186.683 117.553 186.627 117.528 186.562 117.479C186.494 117.428 186.427 117.36 186.371 117.276L188.867 115.612ZM186.611 114.566H185.183V117.566H186.611V114.566ZM186.683 116.066V114.848H183.683V116.066H186.683ZM185.404 116.332L190.486 115.576L190.044 112.608L184.962 113.364L185.404 116.332ZM190.265 115.592H191.399V112.592H190.265V115.592ZM189.899 114.092V130.514H192.899V114.092H189.899ZM189.899 130.514C189.899 131.21 189.955 131.892 190.144 132.458L192.99 131.51C192.955 131.404 192.899 131.106 192.899 130.514H189.899ZM190.157 132.497C190.474 133.367 191.183 133.848 191.911 134.056L192.735 131.172C192.693 131.16 192.732 131.163 192.8 131.22C192.878 131.285 192.942 131.376 192.977 131.471L190.157 132.497ZM191.937 134.063C192.556 134.228 193.378 134.282 194.297 134.282V131.282C193.424 131.282 192.93 131.224 192.71 131.165L191.937 134.063ZM192.797 132.782V134H195.797V132.782H192.797ZM194.297 132.5H187.913V135.5H194.297V132.5ZM202.277 131.816L201.104 132.751L201.112 132.761L201.121 132.771L202.277 131.816ZM201.101 118.754L199.723 118.163L199.718 118.174L199.714 118.184L201.101 118.754ZM204.083 115.142L203.288 113.87L203.282 113.874L203.276 113.878L204.083 115.142ZM213.365 114.806L212.628 116.112L212.641 116.12L212.654 116.127L213.365 114.806ZM215.885 117.2L214.59 117.956L214.594 117.964L214.599 117.972L215.885 117.2ZM217.061 120.434L215.582 120.681L215.585 120.698L215.588 120.715L217.061 120.434ZM217.397 124.34V125.84H218.897V124.34H217.397ZM203.285 124.34L201.786 124.293L201.738 125.84H203.285V124.34ZM203.327 122.996V121.496H201.873L201.828 122.949L203.327 122.996ZM213.491 122.996V124.496H214.991V122.996H213.491ZM213.071 118.754L211.605 119.068L211.609 119.089L211.614 119.109L213.071 118.754ZM211.727 116.108L210.667 117.169L210.691 117.193L210.716 117.216L211.727 116.108ZM206.225 116.15L205.253 115.008L205.242 115.017L205.231 115.027L206.225 116.15ZM204.587 119.006L203.146 118.59L203.143 118.6L203.14 118.611L204.587 119.006ZM204.041 123.584L202.542 123.561L202.541 123.572V123.584H204.041ZM204.251 127.028L202.764 127.219L202.766 127.237L202.769 127.256L204.251 127.028ZM205.133 129.968L203.783 130.621L203.792 130.639L203.8 130.656L205.133 129.968ZM206.981 132.026L206.17 133.288L206.18 133.294L206.19 133.3L206.981 132.026ZM213.113 132.152L213.822 133.474L213.84 133.465L213.858 133.454L213.113 132.152ZM215.003 130.43L216.244 131.273L216.244 131.273L215.003 130.43ZM216.095 128.288L216.705 126.917L215.212 126.254L214.678 127.797L216.095 128.288ZM217.229 128.792L218.657 129.254L219.072 127.969L217.839 127.421L217.229 128.792ZM215.843 131.522L214.62 130.654L214.611 130.667L214.601 130.681L215.843 131.522ZM213.323 133.664L213.994 135.006L214.001 135.002L214.008 134.999L213.323 133.664ZM209.039 132.962C206.275 132.962 204.517 132.173 203.434 130.861L201.121 132.771C202.949 134.987 205.699 135.962 209.039 135.962V132.962ZM203.45 130.881C202.302 129.44 201.635 127.334 201.635 124.382H198.635C198.635 127.758 199.397 130.608 201.104 132.751L203.45 130.881ZM201.635 124.382C201.635 122.34 201.937 120.667 202.489 119.324L199.714 118.184C198.978 119.977 198.635 122.056 198.635 124.382H201.635ZM202.48 119.345C203.045 118.027 203.852 117.069 204.89 116.406L203.276 113.878C201.683 114.895 200.502 116.345 199.723 118.163L202.48 119.345ZM204.878 116.414C205.93 115.757 207.303 115.382 209.081 115.382V112.382C206.883 112.382 204.925 112.847 203.288 113.87L204.878 116.414ZM209.081 115.382C210.687 115.382 211.834 115.665 212.628 116.112L214.102 113.5C212.712 112.715 211.004 112.382 209.081 112.382V115.382ZM212.654 116.127C213.519 116.592 214.15 117.201 214.59 117.956L217.181 116.444C216.445 115.183 215.396 114.196 214.076 113.485L212.654 116.127ZM214.599 117.972C215.086 118.783 215.415 119.682 215.582 120.681L218.541 120.187C218.315 118.834 217.861 117.577 217.172 116.428L214.599 117.972ZM215.588 120.715C215.795 121.8 215.897 122.882 215.897 123.962H218.897C218.897 122.69 218.776 121.42 218.535 120.153L215.588 120.715ZM215.897 123.962V124.34H218.897V123.962H215.897ZM217.397 122.84H203.285V125.84H217.397V122.84ZM204.785 124.387L204.827 123.043L201.828 122.949L201.786 124.293L204.785 124.387ZM203.327 124.496H213.491V121.496H203.327V124.496ZM214.991 122.996C214.991 121.242 214.846 119.7 214.529 118.399L211.614 119.109C211.857 120.104 211.991 121.39 211.991 122.996H214.991ZM214.538 118.44C214.245 117.071 213.686 115.865 212.739 115L210.716 117.216C211.057 117.527 211.394 118.085 211.605 119.068L214.538 118.44ZM212.788 115.047C211.817 114.076 210.522 113.684 209.123 113.684V116.684C209.964 116.684 210.406 116.908 210.667 117.169L212.788 115.047ZM209.123 113.684C207.66 113.684 206.328 114.092 205.253 115.008L207.198 117.292C207.634 116.92 208.235 116.684 209.123 116.684V113.684ZM205.231 115.027C204.228 115.914 203.562 117.149 203.146 118.59L206.028 119.422C206.34 118.343 206.767 117.674 207.219 117.273L205.231 115.027ZM203.14 118.611C202.76 120.004 202.571 121.664 202.542 123.561L205.541 123.607C205.568 121.864 205.742 120.472 206.034 119.401L203.14 118.611ZM202.541 123.584C202.541 124.846 202.615 126.058 202.764 127.219L205.739 126.837C205.608 125.814 205.541 124.73 205.541 123.584H202.541ZM202.769 127.256C202.956 128.475 203.289 129.601 203.783 130.621L206.484 129.315C206.137 128.599 205.882 127.765 205.734 126.8L202.769 127.256ZM203.8 130.656C204.363 131.746 205.154 132.635 206.17 133.288L207.792 130.764C207.241 130.409 206.8 129.926 206.466 129.28L203.8 130.656ZM206.19 133.3C207.309 133.995 208.658 134.282 210.131 134.282V131.282C209.029 131.282 208.278 131.065 207.772 130.752L206.19 133.3ZM210.131 134.282C211.499 134.282 212.756 134.045 213.822 133.474L212.405 130.83C211.902 131.099 211.172 131.282 210.131 131.282V134.282ZM213.858 133.454C214.826 132.901 215.631 132.175 216.244 131.273L213.763 129.587C213.424 130.085 212.969 130.507 212.369 130.85L213.858 133.454ZM216.244 131.273C216.787 130.475 217.214 129.643 217.513 128.779L214.678 127.797C214.473 128.389 214.172 128.985 213.763 129.587L216.244 131.273ZM215.486 129.659L216.62 130.163L217.839 127.421L216.705 126.917L215.486 129.659ZM215.802 128.33C215.544 129.128 215.153 129.902 214.62 130.654L217.067 132.39C217.765 131.406 218.299 130.36 218.657 129.254L215.802 128.33ZM214.601 130.681C214.177 131.307 213.545 131.865 212.639 132.329L214.008 134.999C215.286 134.343 216.333 133.473 217.085 132.363L214.601 130.681ZM212.653 132.322C211.876 132.711 210.706 132.962 209.039 132.962V135.962C210.956 135.962 212.643 135.681 213.994 135.006L212.653 132.322Z" fill="#5C5E62" mask="url(#path-4-outside-2_779_44)"/>
<path d="M275.35 86.4978L290.142 89.6843L304.077 86.1642L306.921 93.2044L305.642 106.615L300.096 122.542L290.284 133.27L280.613 122.709L275.778 111.141L274.07 98.7371L275.35 86.4978Z" fill="#D6D7D8"/>
<path d="M256.856 109.635C256.856 117.966 251.124 124.723 244.056 124.723C236.989 124.723 231.258 117.966 231.258 109.635C231.258 101.301 236.989 94.5478 244.056 94.5478C251.124 94.5478 256.856 101.301 256.856 109.635Z" fill="#D6D7D8"/>
<path d="M261.352 132.656C261.744 132.656 262.289 132.733 262.289 132.11C262.289 131.65 261.966 131.592 261.624 131.592H260.858V132.656H261.352ZM260.858 134.504H260.5V131.208H261.704C262.434 131.208 262.681 131.527 262.681 132.118C262.681 132.757 262.302 132.994 261.815 133.039L262.647 134.504H262.244L261.455 133.039H260.858V134.504ZM263.467 132.87C263.467 131.468 262.609 130.455 261.418 130.455C260.22 130.455 259.353 131.468 259.353 132.87C259.353 134.289 260.22 135.299 261.418 135.299C262.609 135.299 263.467 134.289 263.467 132.87ZM258.965 132.87C258.965 131.289 260.065 129.995 261.418 129.995C262.763 129.995 263.858 131.289 263.858 132.87C263.858 134.466 262.763 135.764 261.418 135.764C260.065 135.764 258.965 134.466 258.965 132.87Z" fill="#5C5E62"/>
<path d="M304.17 132.656C304.559 132.656 305.106 132.733 305.106 132.11C305.106 131.65 304.781 131.592 304.443 131.592H303.674V132.656H304.17ZM303.674 134.504H303.315V131.208H304.519C305.25 131.208 305.498 131.527 305.498 132.118C305.498 132.757 305.12 132.994 304.631 133.039L305.463 134.504H305.059L304.273 133.039H303.674V134.504ZM306.284 132.87C306.284 131.468 305.425 130.455 304.235 130.455C303.037 130.455 302.173 131.468 302.173 132.87C302.173 134.289 303.037 135.299 304.235 135.299C305.425 135.299 306.284 134.289 306.284 132.87ZM301.781 132.87C301.781 131.289 302.881 129.995 304.235 129.995C305.581 129.995 306.675 131.289 306.675 132.87C306.675 134.466 305.581 135.764 304.235 135.764C302.881 135.764 301.781 134.466 301.781 132.87Z" fill="#5C5E62"/>
<path d="M288.868 97.5522C288.715 97.6801 288.609 97.8094 288.436 97.8437C288.095 97.9083 288.146 97.5601 287.91 97.3636C287.766 97.2462 287.629 97.3992 287.5 97.1183C287.996 97.1341 288.743 97.1394 289.117 97.5878C289.07 97.5575 288.891 97.5364 288.868 97.5522Z" fill="#5C5E62"/>
<path d="M251.431 120.851L251.438 120.869L245.891 108.593C245.488 107.55 245.666 105.81 247.184 105.563L255.281 104.642L255.279 104.638L255.285 104.642H255.281C255.783 106.202 256.055 107.891 256.055 109.657C256.055 114.2 254.247 118.247 251.431 120.851ZM250.616 121.543C248.714 123.022 246.435 123.882 243.987 123.882C241.537 123.882 239.256 123.022 237.353 121.543L237.35 121.551V121.539C237.352 121.539 237.353 121.54 237.353 121.543L243.231 111.182C243.667 110.459 244.326 110.516 244.74 111.182L250.616 121.543C250.618 121.54 250.618 121.539 250.62 121.539V121.551L250.616 121.543ZM231.916 109.657C231.916 107.891 232.189 106.202 232.688 104.642H232.685L232.688 104.638V104.642L240.786 105.563C242.306 105.81 242.482 107.55 242.082 108.593L236.533 120.869L236.538 120.851C233.724 118.247 231.916 114.2 231.916 109.657ZM243.987 95.4305C248.827 95.4305 253 98.7884 254.921 103.639H246.333C245.109 103.608 244.57 102.762 244.545 102.074C244.514 101.257 244.623 100.999 245.194 100.128C245.817 99.1537 245.386 97.2782 243.987 97.2453C242.587 97.2782 242.153 99.1537 242.779 100.128C243.347 100.999 243.456 101.257 243.427 102.074C243.403 102.762 242.863 103.608 241.636 103.639H233.046C234.97 98.7884 239.144 95.4305 243.987 95.4305ZM253.684 98.1026V83.7003H234.217V98.1026H222V121.13H234.217V135.531H253.684V121.13H265.904V98.1026H253.684Z" fill="#5C5E62"/>
<path d="M240.023 107.413L233.894 106.745C233.698 107.68 233.598 108.655 233.598 109.661C233.598 112.707 234.541 115.495 236.105 117.641L240.397 107.975C240.501 107.674 240.465 107.454 240.023 107.413Z" fill="#5C5E62"/>
<path d="M243.987 113.417C243.924 113.415 243.866 113.45 243.816 113.526L239.758 120.849C241.049 121.526 242.479 121.906 243.987 121.906C245.493 121.906 246.923 121.526 248.214 120.849L244.156 113.526C244.106 113.45 244.049 113.415 243.987 113.417Z" fill="#5C5E62"/>
<path d="M241.096 97.887C239.12 98.557 237.386 99.9023 236.086 101.697L241.516 101.695C241.612 101.66 241.666 101.526 241.557 101.398C240.98 100.655 240.484 99.0885 241.096 97.887Z" fill="#5C5E62"/>
<path d="M247.946 107.413C247.503 107.454 247.469 107.674 247.571 107.975L251.868 117.641C253.427 115.495 254.373 112.707 254.373 109.661C254.373 108.655 254.269 107.68 254.077 106.745L247.946 107.413Z" fill="#5C5E62"/>
<path d="M251.887 101.695C250.586 99.9029 248.85 98.5577 246.877 97.8864C247.49 99.0905 246.994 100.655 246.415 101.396C246.307 101.525 246.361 101.661 246.456 101.694L251.887 101.695Z" fill="#5C5E62"/>
<path d="M290.229 129.625C290.229 129.625 290.225 129.624 290.224 129.621C290.224 129.624 290.222 129.625 290.219 129.625H290.229Z" fill="#5C5E62"/>
<path d="M295.209 98.2797C295.104 98.6846 295.019 98.6794 294.792 98.9247C294.322 99.4338 293.697 99.9561 293.085 100.646C292.693 101.089 292.319 101.346 292.037 101.878C291.971 101.999 291.828 102.327 291.828 102.327C290.787 102.079 289.724 102.058 288.911 101.863L288.871 100.817C288.871 100.817 289.916 100.801 290.018 100.064C290.026 100.021 290 99.8004 289.883 99.6962C289.741 99.5723 289.429 99.4351 289.354 99.4021C290.146 99.5485 290.839 99.8954 291.648 100.308C291.702 100.207 291.568 99.8519 291.505 99.7714C291.397 99.6237 291.268 99.5116 290.983 99.4338C290.491 99.2834 289.301 99.1106 289.301 99.1106C289.301 99.1106 289.731 99.0935 290.306 99.0658C290.557 99.0157 290.818 98.8996 290.873 98.7994C290.932 98.6451 290.852 98.4195 290.676 98.1953C290.56 98.0489 290.444 97.9078 290.344 97.7575C290.225 97.561 290.069 97.1851 289.85 96.9582C289.589 96.5889 288.793 96.2355 288.793 96.2355C288.793 96.2355 288.727 95.6037 288.858 95.2964C288.955 95.0709 289.383 95.0458 289.516 95.1236C290.112 95.5167 290.787 95.9493 291.583 96.1102C291.75 96.2566 291.755 96.3001 291.805 96.5889C291.918 97.2207 291.711 98.1439 291.817 98.5791C291.872 98.7203 291.993 98.715 292.082 98.6583C292.823 98.1835 293.327 97.371 294.079 96.9951C294.432 96.8197 295.436 97.4132 295.209 98.2797ZM291.91 110.303C291.91 110.303 292.004 108.444 292.014 107.552C292.432 107.351 292.524 106.875 292.366 106.475C292.282 106.255 291.962 106.099 291.779 106.043C290.912 105.782 290.117 105.731 289.223 105.619C288.441 105.522 287.815 105.399 287.097 105.183C285.622 104.741 284.372 103.934 283.72 102.354C282.91 100.402 283.636 97.9711 285.224 96.9991C286.431 96.2579 287.783 96.399 288.997 96.9464C289.416 97.1402 289.643 97.5675 289.903 97.9883C290.02 98.1782 290.197 98.2547 290.3 98.4618C290.357 98.5778 290.225 98.6358 290.168 98.6569C289.903 98.7387 289.009 98.7506 288.719 98.711C288.358 98.6596 287.748 98.6807 287.386 98.7691C287.77 99.0236 288.175 99.3375 288.558 99.5089C288.792 99.6131 288.972 99.6118 289.184 99.7398C289.273 99.7938 289.523 99.8782 289.523 100.017C289.497 100.154 289.283 100.209 289.133 100.262C288.789 100.385 288.318 100.398 287.88 100.278C287.186 100.091 286.862 99.6092 286.431 99.9099C286.145 100.109 286.144 100.571 286.235 101.032C286.384 101.758 287.033 102.061 287.576 102.267C289.47 102.988 291.493 102.581 293.34 103.703C294.054 104.133 294.859 105.014 295.009 105.95C295.642 109.842 291.91 110.303 291.91 110.303ZM288.925 106.413C288.925 106.413 289.301 106.459 290.209 106.531C290.904 106.585 291.375 106.818 291.375 106.818L291.284 110.733C290.543 110.565 290.057 110.472 289.366 110.365C289.141 108.95 288.851 108.46 288.368 107.414C288.257 107.182 288.353 107.093 288.381 107.031C288.45 106.891 288.936 106.751 288.936 106.751L288.925 106.413ZM293.978 114.949C293.854 115.589 293.506 116.097 292.943 116.496C292.348 116.916 291.731 116.95 291.731 116.95L291.781 114.8C291.781 114.8 291.917 114.766 292.014 114.621C292.107 114.49 292.132 114.394 292.107 114.208C292.089 114.087 292.004 113.92 291.844 113.839C291.664 113.745 291.383 113.715 291.269 113.701C290.371 113.575 289.543 113.455 288.662 113.283C287.071 112.977 285.943 111.897 286.042 110.104C286.106 108.905 287.174 108.534 287.93 108.15C288.181 108.671 288.401 109.229 288.494 109.503C288.636 109.995 288.715 110.303 288.715 110.303C288.715 110.303 288.372 110.37 288.401 110.702C288.427 110.994 288.702 111.119 288.871 111.148C289.986 111.334 291.466 111.548 292.251 111.864C292.772 112.077 293.287 112.425 293.582 112.902C294.023 113.622 294.125 114.208 293.978 114.949ZM289.583 114.175C290.311 114.279 290.576 114.302 291.193 114.394L291.134 117.944L290.43 117.499L289.741 117.106L289.583 114.175ZM292.39 122.605C291.994 122.989 291.522 123.124 291.522 123.124L291.572 121.603C291.572 121.603 291.718 121.455 291.675 121.264C291.609 120.958 290.693 120.238 290.199 120.014C289.698 119.784 289.034 119.556 288.558 119.312C287.449 118.742 287.05 117.6 287.495 116.351C287.662 115.89 288.105 115.577 288.348 115.405C288.613 115.221 289.001 115.084 289.001 115.084L289.117 116.863C289.117 116.863 288.971 116.922 288.93 117.082C288.846 117.394 289.086 117.567 289.148 117.6C289.874 117.979 290.932 118.477 291.702 119.01C292.697 119.698 293.022 120.201 293.028 121.024C293.031 121.776 292.76 122.245 292.39 122.605ZM290.975 126.454C290.971 126.739 290.88 126.954 290.431 126.964C290.056 126.972 289.894 126.817 289.881 126.354C289.821 124.315 289.745 120.481 289.745 120.481C289.745 120.481 290.23 120.66 290.46 120.817C290.534 120.87 290.792 121.056 291.011 121.326C291.058 121.41 291.095 121.426 291.087 121.55C291.064 123.039 290.983 125.802 290.975 126.454ZM289.055 124.77C288.99 125.302 289.179 125.528 289.133 125.784C289.055 126.199 288.833 126.071 288.704 125.768C288.519 125.353 288.401 125.152 288.348 124.523C288.266 123.523 288.69 123.044 288.885 122.818C289.092 122.57 289.288 122.448 289.288 122.448L289.354 124.125C289.354 124.125 289.121 124.233 289.055 124.77ZM296.252 92.7338C294.222 93.0596 292.212 93.2904 290.239 93.3062H290.22C288.244 93.2904 286.235 93.0596 284.205 92.7338C282.177 92.4133 280.211 91.8673 278.11 91.2039C276.637 96.1207 276.953 102.319 278.081 107.839C280.21 118.233 285.533 126.136 290.23 129.619C294.923 126.136 300.25 118.233 302.376 107.839C303.507 102.319 303.821 96.1207 302.35 91.2039C300.247 91.8673 298.282 92.4133 296.252 92.7338Z" fill="#5C5E62"/>
<path d="M303.234 111.099C300.865 119.301 297.167 126.563 290.227 131.631C290.23 131.633 290.234 131.637 290.237 131.641H290.218C290.221 131.637 290.224 131.633 290.227 131.631C283.288 126.563 279.589 119.301 277.22 111.099C275.117 103.817 274.602 95.2973 276.917 88.6435C280.386 90.0481 282.421 90.482 284.309 90.8316C286.068 91.156 287.643 91.3499 290.218 91.3908H290.237C292.813 91.3499 294.387 91.156 296.145 90.8316C298.036 90.482 300.07 90.0481 303.541 88.6435C305.852 95.2973 305.341 103.817 303.234 111.099ZM305.487 83.0303C300.666 85.8923 295.863 87.4341 290.227 87.4552C284.593 87.4763 279.785 85.8633 274.967 83C271.8 90.3449 271.305 102.273 274.038 112.24C276.674 121.845 281.791 130.592 290.227 136.092C298.667 130.592 303.781 121.845 306.418 112.24C309.151 102.273 308.652 90.3765 305.487 83.0303Z" fill="#5C5E62"/>
</svg>
