<svg width="360" height="221" viewBox="0 0 360 221" fill="none" xmlns="http://www.w3.org/2000/svg">
<rect width="360" height="221" fill="#D6D7D8"/>
<g clip-path="url(#clip0_779_39)">
<mask id="mask0_779_39" style="mask-type:luminance" maskUnits="userSpaceOnUse" x="43" y="34" width="275" height="153">
<path d="M43.7539 34.4437H317.81V186.557H43.7539V34.4437Z" fill="white"/>
</mask>
<g mask="url(#mask0_779_39)">
<path d="M92.9782 144.96C92.1834 131.125 92.1235 116.116 92.1235 116.116L73.0123 135.643C70.836 138.011 69.4844 141.31 69.4844 144.96C69.4844 152.161 74.7439 158 81.2313 158C87.7196 158 92.9782 152.161 92.9782 144.96Z" fill="#B0B3B6"/>
<path d="M94.5547 144.96C95.3494 131.125 95.4094 116.116 95.4094 116.116L114.52 135.643C116.698 138.011 118.048 141.31 118.048 144.96C118.048 152.161 112.789 158 106.302 158C99.8142 158 94.5547 152.161 94.5547 144.96Z" fill="#B0B3B6"/>
<path d="M123.784 110.297C111.321 109.414 97.8008 109.347 97.8008 109.347L115.391 88.133C117.524 85.716 120.496 84.2167 123.784 84.2167C130.272 84.2167 135.531 90.0552 135.531 97.2568C135.531 104.458 130.272 110.297 123.784 110.297Z" fill="#B0B3B6"/>
<path d="M63.7469 110.297C76.2102 109.414 89.7303 109.347 89.7303 109.347L72.1399 88.133C70.008 85.716 67.0351 84.2167 63.7469 84.2167C57.2595 84.2167 52 90.0552 52 97.2568C52 104.458 57.2595 110.297 63.7469 110.297Z" fill="#B0B3B6"/>
<path d="M63.7469 112.048C76.2102 112.929 89.7303 112.996 89.7303 112.996L72.1399 134.21C70.008 136.628 67.0351 138.127 63.7469 138.127C57.2595 138.127 52 132.288 52 125.086C52 117.884 57.2595 112.048 63.7469 112.048Z" fill="#B0B3B6"/>
<path d="M123.784 112.048C111.321 112.929 97.8008 112.996 97.8008 112.996L115.391 134.21C117.524 136.628 120.496 138.127 123.784 138.127C130.272 138.127 135.531 132.288 135.531 125.086C135.531 117.884 130.272 112.048 123.784 112.048Z" fill="#B0B3B6"/>
<path d="M114.48 73.3848C114.819 74.6266 115.013 75.9381 115.041 77.2958L91.4669 106.834L90.4141 105.551C90.4141 105.551 92.2626 103.193 93.1086 100.166L114.48 73.3848Z" fill="#5C5E62"/>
<path d="M98.1732 63.5816C96.4832 64.1279 94.9334 65.0391 93.5992 66.2347L76.1094 88.1238L77.3662 89.6543L98.1732 63.5816Z" fill="#5C5E62"/>
<path d="M91.8508 64.913C91.264 64.5417 90.6491 64.2197 90.011 63.9503L73.6484 84.4227C73.9685 85.0989 74.3339 85.7439 74.7419 86.3535L91.8508 64.913Z" fill="#5C5E62"/>
<path d="M87.81 63.2592C87.0065 63.0897 86.177 62.9995 85.3291 62.9995L72.2422 79.4118C72.3427 80.3391 72.5226 81.2385 72.772 82.1035L87.81 63.2592Z" fill="#5C5E62"/>
<path d="M82.5674 63.3227C76.9889 64.6417 72.7174 69.8781 72.1992 76.3145L82.5674 63.3227Z" fill="#5C5E62"/>
<path d="M114.93 79.5903C114.574 82.5578 113.415 85.2442 111.705 87.3725L93.5985 109.426L93 108.697C93 108.697 94.6204 106.48 95.1899 104.325L114.93 79.5903Z" fill="#5C5E62"/>
<path d="M112.363 68.7841C113.032 69.7618 113.594 70.8351 114.027 71.9835L88.8056 103.59L87.6328 102.162C87.6328 102.162 90.9258 98.9662 93.1021 92.9184L112.363 68.7841Z" fill="#5C5E62"/>
<path d="M109.229 65.4966C110.113 66.1599 110.921 66.937 111.634 67.8106L85.9027 100.057L84.6758 98.5616C84.6758 98.5616 89.3919 94.2943 91.9076 87.2033L109.229 65.4966Z" fill="#5C5E62"/>
<path d="M105.369 63.5234C106.437 63.8496 107.452 64.3219 108.393 64.9186L83.0895 96.627L81.8906 95.1662C81.8906 95.1662 88.2214 89.1045 91.0029 81.5241L105.369 63.5234Z" fill="#5C5E62"/>
<path d="M80.1986 93.1074L79.0703 91.7326C90.4885 78.6861 90.4846 75.1808 90.4846 75.1808L100.101 63.1302C100.678 63.0444 101.266 63.0004 101.863 63.0004C102.612 63.0004 103.348 63.0701 104.064 63.2032L80.1986 93.1074Z" fill="#5C5E62"/>
<path d="M191.485 115.554C191.485 110.566 191.208 109.887 188.989 109.21C188.544 109.087 187.601 109.025 187.102 109.025C186.879 109.025 186.658 108.902 186.658 108.656C186.658 108.286 186.935 108.163 187.546 108.163C190.043 108.163 193.538 108.348 193.815 108.348C194.093 108.348 197.589 108.163 199.253 108.163C199.864 108.163 200.14 108.286 200.14 108.656C200.14 108.902 199.919 109.025 199.696 109.025C199.309 109.025 198.975 109.087 198.31 109.21C196.811 109.518 196.368 110.566 196.257 112.721C196.145 114.691 196.145 116.539 196.145 119.126V126.025C196.145 128.797 196.091 128.919 195.424 129.351C191.873 131.446 186.879 132.123 183.662 132.123C179.445 132.123 171.566 131.506 165.407 125.532C162.023 122.268 158.805 115.678 158.805 107.978C158.805 98.1233 163.132 91.1632 168.071 87.7148C173.064 84.2654 178.557 83.8339 182.83 83.8339C186.325 83.8339 190.264 84.6346 191.319 84.8814C192.484 85.1895 194.426 85.4352 195.814 85.4975C196.368 85.5587 196.479 85.8055 196.479 86.0513C196.479 86.9131 196.091 88.6378 196.091 94.7973C196.091 95.7836 195.979 96.0905 195.591 96.0905C195.314 96.0905 195.258 95.7213 195.203 95.1665C195.147 94.3046 194.87 92.5799 194.038 91.102C192.65 88.7613 188.156 86.1125 180.998 86.1125C177.503 86.1125 173.342 86.4827 169.126 90.178C165.907 93.0114 163.632 98.6159 163.632 105.823C163.632 114.507 167.572 120.789 169.513 122.883C173.897 127.626 178.946 129.474 184.05 129.474C186.048 129.474 188.933 129.104 190.376 128.181C191.098 127.75 191.485 127.071 191.485 126.025V115.554Z" fill="#5C5E62"/>
<path d="M227.773 123.746C230.991 115.493 238.426 93.9966 239.646 89.5619C239.924 88.6389 240.146 87.776 240.146 87.2222C240.146 86.7296 239.98 86.1135 239.425 85.8055C238.759 85.5587 237.927 85.5587 237.316 85.5587C236.983 85.5587 236.706 85.4975 236.706 85.1895C236.706 84.8192 237.039 84.6968 237.927 84.6968C240.146 84.6968 242.698 84.8814 243.364 84.8814C243.697 84.8814 246.082 84.6968 247.692 84.6968C248.302 84.6968 248.635 84.8192 248.635 85.1283C248.635 85.4352 248.413 85.5587 247.969 85.5587C247.581 85.5587 246.361 85.5587 245.306 86.2981C244.585 86.853 243.752 87.8994 242.255 92.0873C241.644 93.812 238.871 101.204 236.041 108.78C232.656 117.773 230.159 124.423 228.882 127.441C227.329 131.138 227.107 132.123 226.552 132.123C225.886 132.123 225.61 131.26 224.555 128.304L210.96 90.5472C209.741 87.0988 208.908 86.4216 206.966 85.8055C206.134 85.5587 205.191 85.5587 204.858 85.5587C204.525 85.5587 204.414 85.3741 204.414 85.1283C204.414 84.758 204.969 84.6968 205.857 84.6968C208.52 84.6968 211.682 84.8814 212.349 84.8814C212.903 84.8814 215.4 84.6968 217.509 84.6968C218.507 84.6968 219.006 84.8192 219.006 85.1283C219.006 85.4352 218.84 85.5587 218.451 85.5587C217.841 85.5587 216.843 85.6209 216.344 85.8667C215.733 86.1747 215.622 86.6673 215.622 87.0988C215.622 87.8994 216.288 89.8088 217.119 92.2107L227.773 123.746Z" fill="#5C5E62"/>
<path d="M300.953 123.316C301.174 125.532 301.563 128.981 303.949 129.844C305.558 130.399 307.001 130.399 307.555 130.399C307.833 130.399 307.999 130.459 307.999 130.706C307.999 131.075 307.499 131.26 306.834 131.26C305.613 131.26 299.622 131.075 297.568 130.892C296.293 130.767 296.015 130.583 296.015 130.275C296.015 130.029 296.126 129.905 296.403 129.844C296.681 129.782 296.737 128.735 296.625 127.627L293.962 95.8444H293.796L280.202 127.873C279.036 130.583 278.87 131.137 278.371 131.137C277.982 131.137 277.705 130.521 276.651 128.304C275.208 125.286 270.437 114.631 270.159 114.015C269.66 112.906 263.445 98.124 262.835 96.4604H262.614L260.394 125.039C260.338 126.024 260.338 127.134 260.338 128.181C260.338 129.105 260.949 129.905 261.78 130.091C262.724 130.337 263.556 130.399 263.889 130.399C264.112 130.399 264.334 130.521 264.334 130.706C264.334 131.137 264 131.26 263.335 131.26C261.281 131.26 258.619 131.075 258.175 131.075C257.675 131.075 255.012 131.26 253.514 131.26C252.959 131.26 252.57 131.137 252.57 130.706C252.57 130.521 252.848 130.399 253.125 130.399C253.569 130.399 253.958 130.399 254.79 130.213C256.62 129.844 256.787 127.442 257.01 125.101L261.005 84.9433C261.059 84.265 261.281 83.8346 261.615 83.8346C261.948 83.8346 262.17 84.0804 262.447 84.7576L279.425 123.5L295.737 84.8199C295.959 84.265 296.181 83.8346 296.569 83.8346C296.958 83.8346 297.124 84.3272 297.236 85.4971L300.953 123.316Z" fill="#5C5E62"/>
<path d="M160.125 154.316C158.63 152.889 158.266 151.018 158.266 149.456C158.266 148.356 158.63 146.446 159.986 144.979C160.907 143.997 162.297 143.223 164.643 143.223C165.251 143.223 166.12 143.281 166.867 143.417C167.441 143.532 167.927 143.649 168.432 143.669C168.587 143.669 168.623 143.745 168.623 143.841C168.623 143.977 168.587 144.17 168.553 144.768C168.536 145.306 168.536 146.214 168.518 146.446C168.501 146.695 168.432 146.793 168.344 146.793C168.24 146.793 168.222 146.678 168.222 146.446C168.222 145.81 167.979 145.153 167.58 144.806C167.041 144.305 165.929 143.899 164.573 143.899C162.61 143.899 161.671 144.479 161.132 145.037C160.003 146.196 159.759 147.66 159.759 149.32C159.759 152.465 162.001 155.262 165.268 155.262C166.416 155.262 167.18 155.165 167.789 154.49C168.119 154.123 168.327 153.429 168.38 153.121C168.414 152.947 168.432 152.889 168.536 152.889C168.605 152.889 168.674 153.004 168.674 153.121C168.674 153.236 168.466 154.663 168.309 155.223C168.222 155.532 168.188 155.59 167.927 155.705C167.302 155.976 166.154 156.072 165.164 156.072C162.871 156.072 161.324 155.473 160.125 154.316Z" fill="#5C5E62"/>
<path d="M176.165 150.614C176.235 150.614 176.235 150.577 176.217 150.499L174.705 146.003C174.618 145.754 174.532 145.754 174.444 146.003L173.02 150.499C173.003 150.577 173.02 150.614 173.071 150.614H176.165ZM174.461 143.786C174.654 143.246 174.723 143.149 174.827 143.149C174.983 143.149 175.036 143.38 175.191 143.747C175.47 144.441 177.92 151.213 178.859 153.701C179.415 155.167 179.832 155.379 180.162 155.495C180.388 155.572 180.613 155.592 180.77 155.592C180.857 155.592 180.961 155.631 180.961 155.727C180.961 155.824 180.787 155.861 180.613 155.861C180.388 155.861 179.258 155.861 178.198 155.824C177.902 155.803 177.659 155.803 177.659 155.707C177.659 155.631 177.695 155.631 177.764 155.592C177.851 155.553 178.007 155.418 177.902 155.149L176.53 151.386C176.495 151.309 176.477 151.289 176.39 151.289H172.863C172.794 151.289 172.741 151.328 172.707 151.424L171.838 154.048C171.698 154.452 171.612 154.859 171.612 155.149C171.612 155.475 171.872 155.592 172.133 155.592H172.273C172.393 155.592 172.428 155.649 172.428 155.727C172.428 155.824 172.341 155.861 172.202 155.861C171.838 155.861 171.004 155.803 170.829 155.803C170.673 155.803 169.909 155.861 169.283 155.861C169.092 155.861 168.988 155.824 168.988 155.727C168.988 155.649 169.057 155.592 169.127 155.592C169.231 155.592 169.457 155.572 169.578 155.553C170.273 155.457 170.569 154.878 170.865 154.048L174.461 143.786Z" fill="#5C5E62"/>
<path d="M184.123 149.589C184.123 149.686 184.158 149.744 184.227 149.801C184.455 149.937 185.236 150.053 185.914 150.053C186.278 150.053 186.696 150.034 187.061 149.763C187.581 149.378 187.981 148.51 187.981 147.256C187.981 145.211 186.974 144.034 185.34 144.034C184.889 144.034 184.401 144.092 184.245 144.131C184.176 144.169 184.123 144.227 184.123 144.324V149.589ZM182.803 148.202C182.803 145.656 182.803 145.191 182.769 144.671C182.734 144.111 182.648 143.842 182.142 143.764C182.02 143.746 181.76 143.726 181.622 143.726C181.569 143.726 181.5 143.649 181.5 143.59C181.5 143.494 181.569 143.456 181.743 143.456C182.439 143.456 183.464 143.494 183.55 143.494C183.706 143.494 184.992 143.456 185.462 143.456C186.435 143.456 187.513 143.552 188.311 144.169C188.695 144.479 189.372 145.27 189.372 146.407C189.372 147.622 188.92 148.799 187.495 150.149C188.746 151.885 189.806 153.37 190.694 154.393C191.51 155.32 192.012 155.473 192.395 155.532C192.69 155.59 192.848 155.59 192.935 155.59C193.022 155.59 193.074 155.667 193.074 155.725C193.074 155.822 192.987 155.859 192.707 155.859H191.753C190.884 155.859 190.501 155.764 190.119 155.532C189.459 155.147 188.903 154.354 188.034 153.12C187.391 152.233 186.713 151.172 186.382 150.729C186.314 150.651 186.278 150.633 186.174 150.633L184.227 150.594C184.158 150.594 184.123 150.633 184.123 150.729V151.114C184.123 152.696 184.123 153.968 184.193 154.644C184.245 155.127 184.333 155.435 184.802 155.513C185.011 155.551 185.34 155.59 185.478 155.59C185.584 155.59 185.6 155.667 185.6 155.725C185.6 155.801 185.531 155.859 185.357 155.859C184.524 155.859 183.55 155.801 183.48 155.801C183.464 155.801 182.439 155.859 181.969 155.859C181.812 155.859 181.725 155.822 181.725 155.725C181.725 155.667 181.76 155.59 181.847 155.59C181.986 155.59 182.177 155.551 182.316 155.513C182.612 155.435 182.648 155.127 182.716 154.644C182.803 153.968 182.803 152.677 182.803 151.094V148.202Z" fill="#5C5E62"/>
<path d="M194.31 148.202C194.31 145.656 194.31 145.192 194.276 144.671C194.241 144.112 194.154 143.841 193.65 143.764C193.528 143.746 193.268 143.727 193.13 143.727C193.077 143.727 193.008 143.649 193.008 143.59C193.008 143.495 193.077 143.456 193.25 143.456C193.946 143.456 194.937 143.495 195.024 143.495C195.128 143.495 198.324 143.515 198.672 143.495C198.967 143.475 199.246 143.418 199.368 143.398C199.437 143.379 199.507 143.321 199.576 143.321C199.629 143.321 199.647 143.398 199.647 143.475C199.647 143.59 199.559 143.785 199.525 144.246C199.507 144.401 199.472 145.135 199.437 145.327C199.42 145.404 199.368 145.5 199.299 145.5C199.212 145.5 199.176 145.423 199.176 145.288C199.176 145.173 199.16 144.903 199.09 144.71C198.985 144.439 198.829 144.324 197.996 144.209C197.735 144.17 195.961 144.152 195.787 144.152C195.719 144.152 195.7 144.209 195.7 144.324V148.78C195.7 148.895 195.7 148.953 195.787 148.953C195.979 148.953 197.996 148.953 198.343 148.916C198.707 148.877 198.933 148.858 199.09 148.684C199.195 148.568 199.264 148.471 199.316 148.471C199.368 148.471 199.403 148.51 199.403 148.607C199.403 148.704 199.316 148.974 199.282 149.514C199.246 149.841 199.212 150.459 199.212 150.575C199.212 150.709 199.176 150.883 199.072 150.883C199.002 150.883 198.967 150.825 198.967 150.729C198.967 150.575 198.967 150.401 198.898 150.19C198.845 149.957 198.707 149.764 198.117 149.686C197.7 149.628 196.065 149.61 195.806 149.61C195.719 149.61 195.7 149.667 195.7 149.726V151.095C195.7 151.655 195.684 153.564 195.7 153.893C195.736 154.992 196.014 155.204 197.526 155.204C197.925 155.204 198.655 155.204 199.054 155.031C199.455 154.837 199.663 154.548 199.75 153.893C199.785 153.699 199.819 153.641 199.906 153.641C199.993 153.641 200.011 153.777 200.011 153.893C200.011 154.008 199.89 155.128 199.803 155.473C199.698 155.898 199.542 155.898 198.95 155.898C197.803 155.898 196.917 155.86 196.292 155.84C195.649 155.802 195.25 155.802 195.024 155.802C194.989 155.802 194.693 155.802 194.363 155.822C194.067 155.84 193.72 155.86 193.477 155.86C193.321 155.86 193.234 155.822 193.234 155.726C193.234 155.668 193.268 155.59 193.356 155.59C193.494 155.59 193.686 155.532 193.824 155.513C194.12 155.455 194.154 155.128 194.223 154.645C194.31 153.969 194.31 152.678 194.31 151.095V148.202Z" fill="#5C5E62"/>
<path d="M212.122 153.969C211.281 153.202 209.794 151.618 209.402 151.151C209.011 150.683 208.05 149.499 207.63 148.815C206.849 149.382 206.277 150.283 206.277 151.618C206.277 153.702 207.599 155.204 209.281 155.204C210.679 155.204 211.611 154.553 212.122 153.969ZM205.105 152.4C205.105 150.45 206.232 149.148 207.404 148.382C206.849 147.515 206.667 146.831 206.667 146.079C206.667 144.762 207.885 143.01 209.898 143.01C210.665 143.01 211.311 143.178 211.717 143.428C211.897 143.545 211.912 143.645 211.912 143.844C211.912 144.344 211.852 145.513 211.807 145.763C211.762 146.013 211.717 146.046 211.657 146.046C211.58 146.046 211.567 145.98 211.567 145.729C211.567 145.296 211.476 144.745 211.101 144.311C210.77 143.928 210.259 143.577 209.598 143.577C208.696 143.577 207.69 144.195 207.69 145.763C207.69 147.063 208.501 148.148 210.063 150.033C210.574 150.651 212.423 152.568 212.904 153.017C213.324 152.384 213.671 151.267 213.671 150.249C213.671 150 213.61 149.683 213.384 149.432C213.189 149.216 212.873 149.165 212.648 149.165C212.558 149.165 212.468 149.132 212.468 149.048C212.468 148.965 212.588 148.932 212.708 148.932C213.068 148.932 213.671 148.949 214.511 149.048C214.737 149.083 214.781 149.216 214.781 149.382C214.781 150.733 213.955 152.418 213.294 153.319C214.285 154.254 214.947 154.702 215.367 154.97C215.848 155.287 216.614 155.62 217.156 155.62C217.291 155.62 217.366 155.637 217.366 155.736C217.366 155.803 217.246 155.854 217.111 155.854H215.638C214.525 155.854 214.165 155.736 212.512 154.286C212.167 154.669 210.98 156.088 208.757 156.088C206.127 156.088 205.105 153.853 205.105 152.4Z" fill="#5C5E62"/>
<path d="M223.057 149.589C223.057 149.686 223.091 149.744 223.161 149.801C223.387 149.937 224.168 150.053 224.847 150.053C225.212 150.053 225.629 150.034 225.994 149.763C226.515 149.378 226.914 148.51 226.914 147.256C226.914 145.211 225.907 144.034 224.274 144.034C223.822 144.034 223.335 144.092 223.178 144.131C223.109 144.169 223.057 144.227 223.057 144.324V149.589ZM221.737 148.202C221.737 145.656 221.737 145.191 221.702 144.671C221.667 144.111 221.581 143.842 221.076 143.764C220.954 143.746 220.694 143.726 220.554 143.726C220.502 143.726 220.434 143.649 220.434 143.59C220.434 143.494 220.502 143.456 220.676 143.456C221.37 143.456 222.396 143.494 222.483 143.494C222.64 143.494 223.926 143.456 224.396 143.456C225.368 143.456 226.446 143.552 227.245 144.169C227.629 144.479 228.305 145.27 228.305 146.407C228.305 147.622 227.854 148.799 226.428 150.149C227.68 151.885 228.74 153.37 229.626 154.393C230.443 155.32 230.947 155.473 231.33 155.532C231.624 155.59 231.781 155.59 231.868 155.59C231.955 155.59 232.007 155.667 232.007 155.725C232.007 155.822 231.92 155.859 231.641 155.859H230.687C229.818 155.859 229.435 155.764 229.052 155.532C228.392 155.147 227.837 154.354 226.967 153.12C226.324 152.233 225.648 151.172 225.316 150.729C225.247 150.651 225.212 150.633 225.107 150.633L223.161 150.594C223.091 150.594 223.057 150.633 223.057 150.729V151.114C223.057 152.696 223.057 153.968 223.126 154.644C223.178 155.127 223.265 155.435 223.735 155.513C223.944 155.551 224.274 155.59 224.412 155.59C224.516 155.59 224.534 155.667 224.534 155.725C224.534 155.801 224.464 155.859 224.291 155.859C223.458 155.859 222.483 155.801 222.415 155.801C222.396 155.801 221.37 155.859 220.902 155.859C220.745 155.859 220.66 155.822 220.66 155.725C220.66 155.667 220.694 155.59 220.781 155.59C220.92 155.59 221.11 155.551 221.25 155.513C221.545 155.435 221.581 155.127 221.65 154.644C221.737 153.968 221.737 152.677 221.737 151.094V148.202Z" fill="#5C5E62"/>
<path d="M233.311 148.202C233.311 145.656 233.311 145.192 233.276 144.671C233.241 144.112 233.154 143.841 232.65 143.764C232.529 143.746 232.269 143.727 232.13 143.727C232.077 143.727 232.008 143.649 232.008 143.59C232.008 143.495 232.077 143.456 232.251 143.456C232.946 143.456 233.937 143.495 234.024 143.495C234.129 143.495 237.324 143.515 237.672 143.495C237.967 143.475 238.246 143.418 238.369 143.398C238.437 143.379 238.508 143.321 238.576 143.321C238.629 143.321 238.647 143.398 238.647 143.475C238.647 143.59 238.56 143.785 238.525 144.246C238.508 144.401 238.473 145.135 238.437 145.327C238.421 145.404 238.369 145.5 238.299 145.5C238.212 145.5 238.177 145.423 238.177 145.288C238.177 145.173 238.161 144.903 238.09 144.71C237.987 144.439 237.829 144.324 236.996 144.209C236.735 144.17 234.961 144.152 234.788 144.152C234.719 144.152 234.701 144.209 234.701 144.324V148.78C234.701 148.895 234.701 148.953 234.788 148.953C234.98 148.953 236.996 148.953 237.343 148.916C237.707 148.877 237.933 148.858 238.09 148.684C238.195 148.568 238.264 148.471 238.316 148.471C238.369 148.471 238.403 148.51 238.403 148.607C238.403 148.704 238.316 148.974 238.282 149.514C238.246 149.841 238.212 150.459 238.212 150.575C238.212 150.709 238.177 150.883 238.074 150.883C238.003 150.883 237.967 150.825 237.967 150.729C237.967 150.575 237.967 150.401 237.899 150.19C237.846 149.957 237.707 149.764 237.117 149.686C236.7 149.628 235.066 149.61 234.806 149.61C234.719 149.61 234.701 149.667 234.701 149.726V151.095C234.701 151.655 234.684 153.564 234.701 153.893C234.736 154.992 235.014 155.204 236.526 155.204C236.926 155.204 237.655 155.204 238.054 155.031C238.455 154.837 238.663 154.548 238.75 153.893C238.785 153.699 238.819 153.641 238.907 153.641C238.994 153.641 239.011 153.777 239.011 153.893C239.011 154.008 238.89 155.128 238.803 155.473C238.698 155.898 238.542 155.898 237.951 155.898C236.803 155.898 235.917 155.86 235.292 155.84C234.649 155.802 234.25 155.802 234.024 155.802C233.989 155.802 233.694 155.802 233.363 155.822C233.067 155.84 232.72 155.86 232.478 155.86C232.321 155.86 232.234 155.822 232.234 155.726C232.234 155.668 232.269 155.59 232.356 155.59C232.494 155.59 232.687 155.532 232.825 155.513C233.12 155.455 233.154 155.128 233.224 154.645C233.311 153.969 233.311 152.678 233.311 151.095V148.202Z" fill="#5C5E62"/>
<path d="M242.069 155.629C241.86 155.513 241.844 155.455 241.844 155.012C241.844 154.201 241.912 153.545 241.929 153.275C241.929 153.103 241.965 153.005 242.051 153.005C242.139 153.005 242.192 153.062 242.192 153.198C242.192 153.332 242.192 153.564 242.244 153.796C242.487 154.991 243.633 155.417 244.659 155.417C246.17 155.417 246.953 154.471 246.953 153.237C246.953 152.059 246.38 151.5 245.024 150.381L244.328 149.801C242.678 148.434 242.139 147.429 242.139 146.293C242.139 144.363 243.512 143.205 245.526 143.205C246.135 143.205 246.745 143.303 247.109 143.398C247.405 143.475 247.526 143.475 247.648 143.475C247.769 143.475 247.803 143.495 247.803 143.59C247.803 143.669 247.734 144.208 247.734 145.327C247.734 145.579 247.717 145.694 247.612 145.694C247.508 145.694 247.491 145.616 247.474 145.481C247.456 145.288 247.334 144.845 247.247 144.671C247.144 144.479 246.64 143.861 245.267 143.861C244.154 143.861 243.233 144.479 243.233 145.636C243.233 146.678 243.702 147.276 245.215 148.413L245.649 148.742C247.508 150.15 248.151 151.288 248.151 152.697C248.151 153.661 247.821 154.703 246.726 155.494C246.083 155.956 245.128 156.072 244.294 156.072C243.581 156.072 242.695 155.956 242.069 155.629Z" fill="#5C5E62"/>
<path d="M252.144 148.202C252.144 145.656 252.144 145.192 252.109 144.671C252.074 144.112 251.987 143.841 251.484 143.764C251.361 143.746 251.101 143.727 250.962 143.727C250.909 143.727 250.84 143.649 250.84 143.59C250.84 143.495 250.909 143.456 251.083 143.456C251.779 143.456 252.769 143.495 252.856 143.495C252.961 143.495 256.158 143.515 256.505 143.495C256.8 143.475 257.079 143.418 257.201 143.398C257.27 143.379 257.339 143.321 257.408 143.321C257.461 143.321 257.478 143.398 257.478 143.475C257.478 143.59 257.392 143.785 257.357 144.246C257.339 144.401 257.305 145.135 257.27 145.327C257.253 145.404 257.201 145.5 257.131 145.5C257.044 145.5 257.009 145.423 257.009 145.288C257.009 145.173 256.992 144.903 256.922 144.71C256.819 144.439 256.662 144.324 255.829 144.209C255.568 144.17 253.795 144.152 253.621 144.152C253.552 144.152 253.534 144.209 253.534 144.324V148.78C253.534 148.895 253.534 148.953 253.621 148.953C253.813 148.953 255.829 148.953 256.176 148.916C256.54 148.877 256.766 148.858 256.922 148.684C257.027 148.568 257.096 148.471 257.148 148.471C257.201 148.471 257.235 148.51 257.235 148.607C257.235 148.704 257.148 148.974 257.115 149.514C257.079 149.841 257.044 150.459 257.044 150.575C257.044 150.709 257.009 150.883 256.906 150.883C256.836 150.883 256.8 150.825 256.8 150.729C256.8 150.575 256.8 150.401 256.732 150.19C256.679 149.957 256.54 149.764 255.95 149.686C255.532 149.628 253.899 149.61 253.639 149.61C253.552 149.61 253.534 149.667 253.534 149.726V151.095C253.534 151.655 253.517 153.564 253.534 153.893C253.569 154.992 253.848 155.204 255.358 155.204C255.759 155.204 256.488 155.204 256.887 155.031C257.287 154.837 257.495 154.548 257.582 153.893C257.617 153.699 257.653 153.641 257.74 153.641C257.827 153.641 257.844 153.777 257.844 153.893C257.844 154.008 257.723 155.128 257.637 155.473C257.53 155.898 257.374 155.898 256.784 155.898C255.636 155.898 254.751 155.86 254.125 155.84C253.483 155.802 253.082 155.802 252.856 155.802C252.822 155.802 252.527 155.802 252.196 155.822C251.9 155.84 251.553 155.86 251.31 155.86C251.153 155.86 251.066 155.822 251.066 155.726C251.066 155.668 251.101 155.59 251.188 155.59C251.326 155.59 251.52 155.532 251.658 155.513C251.954 155.455 251.987 155.128 252.057 154.645C252.144 153.969 252.144 152.678 252.144 151.095V148.202Z" fill="#5C5E62"/>
<path d="M265.657 150.614C265.727 150.614 265.727 150.577 265.709 150.499L264.196 146.003C264.11 145.754 264.024 145.754 263.937 146.003L262.512 150.499C262.495 150.577 262.512 150.614 262.564 150.614H265.657ZM263.954 143.786C264.145 143.246 264.215 143.149 264.32 143.149C264.476 143.149 264.528 143.38 264.685 143.747C264.962 144.441 267.412 151.213 268.35 153.701C268.908 155.167 269.324 155.379 269.654 155.495C269.879 155.572 270.107 155.592 270.262 155.592C270.349 155.592 270.454 155.631 270.454 155.727C270.454 155.824 270.279 155.861 270.107 155.861C269.879 155.861 268.751 155.861 267.691 155.824C267.396 155.803 267.152 155.803 267.152 155.707C267.152 155.631 267.187 155.631 267.256 155.592C267.343 155.553 267.499 155.418 267.396 155.149L266.022 151.386C265.987 151.309 265.969 151.289 265.882 151.289H262.355C262.287 151.289 262.234 151.328 262.199 151.424L261.33 154.048C261.191 154.452 261.104 154.859 261.104 155.149C261.104 155.475 261.365 155.592 261.626 155.592H261.765C261.887 155.592 261.921 155.649 261.921 155.727C261.921 155.824 261.833 155.861 261.694 155.861C261.33 155.861 260.496 155.803 260.322 155.803C260.167 155.803 259.401 155.861 258.776 155.861C258.586 155.861 258.48 155.824 258.48 155.727C258.48 155.649 258.549 155.592 258.62 155.592C258.724 155.592 258.949 155.572 259.071 155.553C259.765 155.457 260.061 154.878 260.358 154.048L263.954 143.786Z" fill="#5C5E62"/>
<path d="M273.761 149.589C273.761 149.686 273.795 149.744 273.864 149.801C274.091 149.937 274.873 150.053 275.551 150.053C275.916 150.053 276.331 150.034 276.698 149.763C277.219 149.378 277.618 148.51 277.618 147.256C277.618 145.211 276.611 144.034 274.977 144.034C274.525 144.034 274.039 144.092 273.882 144.131C273.813 144.169 273.761 144.227 273.761 144.324V149.589ZM272.44 148.202C272.44 145.656 272.44 145.191 272.406 144.671C272.37 144.111 272.283 143.842 271.78 143.764C271.658 143.746 271.398 143.726 271.258 143.726C271.205 143.726 271.137 143.649 271.137 143.59C271.137 143.494 271.205 143.456 271.38 143.456C272.075 143.456 273.1 143.494 273.187 143.494C273.343 143.494 274.63 143.456 275.099 143.456C276.072 143.456 277.149 143.552 277.949 144.169C278.331 144.479 279.01 145.27 279.01 146.407C279.01 147.622 278.556 148.799 277.132 150.149C278.383 151.885 279.444 153.37 280.329 154.393C281.146 155.32 281.65 155.473 282.033 155.532C282.328 155.59 282.484 155.59 282.57 155.59C282.657 155.59 282.71 155.667 282.71 155.725C282.71 155.822 282.624 155.859 282.345 155.859H281.39C280.52 155.859 280.138 155.764 279.756 155.532C279.097 155.147 278.539 154.354 277.671 153.12C277.029 152.233 276.35 151.172 276.02 150.729C275.951 150.651 275.916 150.633 275.811 150.633L273.864 150.594C273.795 150.594 273.761 150.633 273.761 150.729V151.114C273.761 152.696 273.761 153.968 273.829 154.644C273.882 155.127 273.97 155.435 274.438 155.513C274.647 155.551 274.977 155.59 275.116 155.59C275.221 155.59 275.237 155.667 275.237 155.725C275.237 155.801 275.168 155.859 274.994 155.859C274.16 155.859 273.187 155.801 273.118 155.801C273.1 155.801 272.075 155.859 271.606 155.859C271.449 155.859 271.363 155.822 271.363 155.725C271.363 155.667 271.398 155.59 271.485 155.59C271.623 155.59 271.813 155.551 271.953 155.513C272.249 155.435 272.283 155.127 272.354 154.644C272.44 153.968 272.44 152.677 272.44 151.094V148.202Z" fill="#5C5E62"/>
<path d="M284.094 154.316C282.598 152.889 282.234 151.018 282.234 149.456C282.234 148.356 282.598 146.446 283.953 144.979C284.876 143.997 286.265 143.223 288.612 143.223C289.22 143.223 290.088 143.281 290.836 143.417C291.409 143.532 291.896 143.649 292.4 143.669C292.556 143.669 292.591 143.745 292.591 143.841C292.591 143.977 292.556 144.17 292.522 144.768C292.504 145.306 292.504 146.214 292.487 146.446C292.469 146.695 292.4 146.793 292.313 146.793C292.209 146.793 292.192 146.678 292.192 146.446C292.192 145.81 291.948 145.153 291.548 144.806C291.009 144.305 289.897 143.899 288.542 143.899C286.577 143.899 285.64 144.479 285.101 145.037C283.972 146.196 283.728 147.66 283.728 149.32C283.728 152.465 285.97 155.262 289.236 155.262C290.385 155.262 291.148 155.165 291.758 154.49C292.088 154.123 292.295 153.429 292.347 153.121C292.382 152.947 292.4 152.889 292.504 152.889C292.574 152.889 292.643 153.004 292.643 153.121C292.643 153.236 292.434 154.663 292.279 155.223C292.192 155.532 292.157 155.59 291.896 155.705C291.27 155.976 290.123 156.072 289.133 156.072C286.839 156.072 285.291 155.473 284.094 154.316Z" fill="#5C5E62"/>
<path d="M305.721 151.095C305.721 152.678 305.739 153.969 305.808 154.646C305.86 155.128 305.895 155.437 306.364 155.513C306.572 155.551 306.919 155.59 307.041 155.59C307.146 155.59 307.181 155.668 307.181 155.725C307.181 155.802 307.094 155.859 306.919 155.859C306.086 155.859 305.112 155.802 305.025 155.802C304.956 155.802 303.966 155.859 303.515 155.859C303.341 155.859 303.27 155.822 303.27 155.725C303.27 155.668 303.305 155.59 303.392 155.59C303.531 155.59 303.705 155.551 303.844 155.513C304.157 155.437 304.209 155.108 304.26 154.625C304.331 153.95 304.331 152.717 304.331 151.134V149.494C304.331 149.418 304.296 149.398 304.244 149.398H297.867C297.813 149.398 297.78 149.418 297.78 149.494V151.134C297.78 152.717 297.78 153.969 297.848 154.646C297.9 155.128 297.953 155.437 298.405 155.513C298.63 155.551 298.96 155.59 299.099 155.59C299.186 155.59 299.222 155.668 299.222 155.725C299.222 155.802 299.151 155.859 298.977 155.859C298.128 155.859 297.155 155.802 297.084 155.802C296.997 155.802 296.024 155.859 295.555 155.859C295.398 155.859 295.311 155.822 295.311 155.725C295.311 155.668 295.347 155.59 295.433 155.59C295.572 155.59 295.764 155.551 295.903 155.513C296.198 155.437 296.234 155.128 296.302 154.646C296.389 153.969 296.389 152.678 296.389 151.095V148.203C296.389 145.657 296.389 145.192 296.354 144.672C296.319 144.113 296.234 143.842 295.728 143.765C295.607 143.746 295.347 143.727 295.208 143.727C295.155 143.727 295.086 143.649 295.086 143.591C295.086 143.495 295.155 143.457 295.33 143.457C296.024 143.457 296.997 143.495 297.084 143.495C297.155 143.495 298.128 143.457 298.596 143.457C298.77 143.457 298.839 143.495 298.839 143.591C298.839 143.649 298.77 143.727 298.717 143.727C298.613 143.727 298.508 143.727 298.334 143.765C297.919 143.861 297.832 144.093 297.797 144.672C297.78 145.192 297.78 145.695 297.78 148.24V148.588C297.78 148.685 297.813 148.685 297.867 148.685H304.244C304.296 148.685 304.331 148.685 304.331 148.588V148.24C304.331 145.695 304.313 145.192 304.296 144.672C304.26 144.113 304.191 143.842 303.687 143.765C303.566 143.746 303.305 143.727 303.166 143.727C303.096 143.727 303.044 143.649 303.044 143.591C303.044 143.495 303.114 143.457 303.287 143.457C303.966 143.457 304.956 143.495 305.025 143.495C305.112 143.495 306.086 143.457 306.537 143.457C306.711 143.457 306.798 143.495 306.798 143.591C306.798 143.649 306.728 143.727 306.66 143.727C306.554 143.727 306.467 143.727 306.277 143.765C305.878 143.861 305.791 144.093 305.756 144.672C305.721 145.192 305.721 145.657 305.721 148.203V151.095Z" fill="#5C5E62"/>
</g>
</g>
<defs>
<clipPath id="clip0_779_39">
<rect width="256" height="95" fill="white" transform="translate(52 63)"/>
</clipPath>
</defs>
</svg>
