<svg width="360" height="221" viewBox="0 0 360 221" fill="none" xmlns="http://www.w3.org/2000/svg">
<rect width="360" height="221" fill="#D6D7D8"/>
<path d="M77.5591 89.4598C81.7104 89.4598 84.9969 90.2886 87.4186 91.9301C89.8402 93.5876 91.5699 95.787 92.6078 98.5282C93.6456 101.285 94.1646 104.329 94.1646 107.692V131.503C94.1646 132.491 93.8013 133.319 93.0748 134.021C92.3483 134.722 91.4489 135.057 90.3937 135.057C89.2694 135.057 88.3526 134.706 87.6607 134.021C86.9688 133.319 86.6229 132.491 86.6229 131.503V107.692C86.6229 105.557 86.2769 103.58 85.5851 101.779C84.8932 99.9785 83.7515 98.5601 82.1429 97.4763C80.5342 96.4085 78.3547 95.8667 75.5872 95.8667C73.0098 95.8667 70.6574 96.4085 68.5125 97.4763C66.3676 98.5442 64.6725 99.9785 63.4271 101.779C62.1644 103.58 61.5417 105.541 61.5417 107.692V131.503C61.5417 132.491 61.1784 133.319 60.4519 134.021C59.7254 134.722 58.826 135.057 57.7708 135.057C56.7157 135.057 55.7989 134.706 55.0897 134.021C54.3632 133.319 54 132.491 54 131.503V74.3512C54 73.3631 54.3632 72.5184 55.0897 71.8331C55.8162 71.1478 56.6811 70.7812 57.7535 70.7812C58.8779 70.7812 59.7946 71.1319 60.4865 71.8172C61.1784 72.5184 61.5244 73.3472 61.5244 74.3353V100.234L59.6389 102.146C59.9503 100.648 60.6422 99.1179 61.7146 97.5879C62.7871 96.0579 64.1363 94.6714 65.7622 93.4601C67.3882 92.2489 69.2217 91.2767 71.2282 90.5436C73.2347 89.8264 75.345 89.4598 77.5418 89.4598" fill="#5C5E62"/>
<path d="M137.185 133.703C132.462 135.296 127.965 135.743 123.675 135.089C119.403 134.42 115.632 132.81 112.38 130.228C109.128 127.662 106.655 124.236 104.977 119.997C103.109 115.263 102.521 110.88 103.247 106.848C103.974 102.816 105.617 99.3736 108.194 96.4889C110.772 93.6202 113.902 91.5802 117.552 90.3371C120.32 89.4127 123.156 88.9824 126.028 89.0621C128.899 89.1418 131.684 89.7474 134.382 90.8789C137.064 92.0105 139.485 93.6042 141.647 95.6602C143.792 97.7161 145.522 100.282 146.802 103.374C147.079 104.266 146.992 105.111 146.508 105.924C146.024 106.737 145.314 107.294 144.363 107.613L109.353 119.359L105.53 114.259L139.658 102.816L138.69 104.442L137.98 102.641C136.856 100.489 135.299 98.8476 133.275 97.7001C131.252 96.5526 129.072 95.8833 126.754 95.6761C124.436 95.4689 122.171 95.7239 119.991 96.457C118.209 97.0467 116.583 97.9392 115.079 99.1186C113.574 100.298 112.363 101.748 111.481 103.469C110.581 105.191 110.132 107.199 110.097 109.478C110.062 111.773 110.616 114.323 111.723 117.16C112.968 120.315 114.767 122.865 117.102 124.794C119.438 126.722 122.119 127.965 125.146 128.523C128.173 129.081 131.321 128.81 134.573 127.726C136.7 127.009 138.413 126.164 139.727 125.16C141.042 124.172 142.114 123.12 142.945 122.005C143.775 120.889 144.432 119.837 144.899 118.801C145.47 118.052 146.11 117.558 146.819 117.319C147.701 117.016 148.549 117.048 149.362 117.399C150.175 117.749 150.729 118.291 151.023 119.056C151.386 119.981 151.213 121.001 150.521 122.084C149.535 124.331 147.874 126.547 145.522 128.746C143.187 130.945 140.419 132.587 137.219 133.655" fill="#5C5E62"/>
<path d="M198.196 89.7286C199.32 89.7286 200.237 90.0633 200.929 90.7326C201.62 91.402 201.966 92.2308 201.966 93.2029V131.516C201.966 132.504 201.603 133.349 200.877 134.034C200.15 134.736 199.251 135.07 198.196 135.07C197.071 135.07 196.154 134.72 195.463 134.034C194.771 133.333 194.425 132.504 194.425 131.516V123.261L196.224 123.086C196.224 124.424 195.757 125.827 194.805 127.309C193.854 128.791 192.574 130.178 190.931 131.484C189.287 132.791 187.367 133.859 185.136 134.704C182.905 135.549 180.535 135.963 178.009 135.963C173.668 135.963 169.811 134.927 166.403 132.871C163.013 130.815 160.314 128.026 158.342 124.488C156.353 120.95 155.367 116.934 155.367 112.407C155.367 107.881 156.353 103.785 158.342 100.279C160.332 96.7729 163.013 94.0157 166.403 92.0236C169.793 90.0314 173.564 89.0273 177.715 89.0273C180.414 89.0273 182.939 89.4417 185.257 90.2386C187.575 91.0514 189.616 92.1511 191.346 93.5376C193.076 94.9242 194.425 96.4542 195.393 98.1435C196.362 99.8329 196.864 101.506 196.864 103.18L194.407 102.654V93.187C194.407 92.1989 194.753 91.3701 195.445 90.7167C196.137 90.0473 197.054 89.7127 198.178 89.7127M178.771 129.524C181.919 129.524 184.704 128.775 187.108 127.261C189.53 125.763 191.415 123.707 192.764 121.141C194.113 118.559 194.788 115.659 194.788 112.407C194.788 109.156 194.113 106.351 192.764 103.801C191.415 101.251 189.53 99.2273 187.108 97.7132C184.686 96.1992 181.901 95.4501 178.771 95.4501C175.64 95.4501 172.941 96.1832 170.52 97.6654C168.098 99.1476 166.195 101.156 164.812 103.706C163.428 106.256 162.736 109.156 162.736 112.392C162.736 115.627 163.428 118.543 164.812 121.125C166.195 123.707 168.098 125.747 170.52 127.245C172.941 128.759 175.692 129.508 178.771 129.508" fill="#5C5E62"/>
<path d="M222.613 131.52C222.613 132.508 222.232 133.337 221.488 134.038C220.727 134.74 219.828 135.074 218.755 135.074C217.683 135.074 216.783 134.724 216.074 134.038C215.348 133.337 214.984 132.508 214.984 131.52V74.3529C214.984 73.3647 215.365 72.536 216.109 71.8348C216.87 71.1335 217.769 70.7988 218.842 70.7988C219.966 70.7988 220.883 71.1495 221.575 71.8348C222.267 72.536 222.613 73.3647 222.613 74.3529V131.536V131.52Z" fill="#5C5E62"/>
<path d="M239.036 83.6435C237.462 83.6435 236.303 83.3567 235.542 82.7829C234.781 82.2092 234.418 81.3007 234.418 80.0895V78.8783C234.418 77.667 234.833 76.7586 235.646 76.1848C236.459 75.6111 237.635 75.3242 239.14 75.3242C240.645 75.3242 241.787 75.6111 242.53 76.1848C243.292 76.7586 243.655 77.667 243.655 78.8783V80.0895C243.655 81.3007 243.257 82.2092 242.479 82.7829C241.683 83.3567 240.541 83.6435 239.036 83.6435ZM242.894 131.519C242.894 132.508 242.53 133.336 241.804 134.037C241.077 134.739 240.178 135.073 239.123 135.073C237.999 135.073 237.064 134.723 236.338 134.037C235.611 133.336 235.248 132.508 235.248 131.519V93.0306C235.248 92.0425 235.611 91.2138 236.338 90.5125C237.064 89.8113 237.981 89.4766 239.123 89.4766C240.195 89.4766 241.095 89.8272 241.804 90.5125C242.53 91.2138 242.894 92.0425 242.894 93.0306V131.519Z" fill="#5C5E62"/>
<path d="M254.383 89.6367C255.577 89.6367 256.58 90.1308 257.393 91.1189L290.206 129.703C290.708 130.341 290.967 131.042 290.967 131.791C290.967 132.779 290.586 133.624 289.843 134.309C289.082 135.01 288.217 135.345 287.196 135.345C286.003 135.345 284.965 134.819 284.083 133.783L251.269 95.2945C250.699 94.7207 250.422 94.0195 250.422 93.2067C250.422 92.1708 250.82 91.3101 251.598 90.6408C252.376 89.9714 253.311 89.6367 254.383 89.6367ZM254.383 135.265C253.57 135.265 252.74 134.979 251.927 134.389C251.114 133.815 250.699 133.066 250.699 132.126C250.699 131.377 250.975 130.644 251.546 129.958L267.01 111.965L271.058 117.702L257.375 133.863C256.614 134.787 255.611 135.249 254.366 135.249M287.11 89.6367C288.234 89.6367 289.133 89.9555 289.791 90.593C290.448 91.2305 290.777 91.9476 290.777 92.7604C290.777 93.1748 290.69 93.5573 290.535 93.9398C290.379 94.3223 290.137 94.6729 289.825 95.0236L274.448 113.192L270.487 107.885L284.065 91.1986C284.948 90.1627 285.951 89.6367 287.075 89.6367" fill="#5C5E62"/>
<path d="M265.031 77.6894C265.031 76.5158 265.983 75.5645 267.156 75.5645H298.391V79.8144H267.156C265.983 79.8144 265.031 78.863 265.031 77.6894V77.6894Z" fill="#5C5E62"/>
<path d="M297.159 104.252C295.794 104.252 294.688 103.146 294.688 101.781V75.5647H299.63V101.781C299.63 103.146 298.523 104.252 297.159 104.252V104.252Z" fill="#5C5E62"/>
<path d="M275.406 68.125C275.406 66.9514 276.358 66 277.531 66H308.766V70.25H277.531C276.358 70.25 275.406 69.2986 275.406 68.125V68.125Z" fill="#B0B3B6"/>
<path d="M307.534 94.6875C306.169 94.6875 305.062 93.5812 305.062 92.2164V66.0002H310.005V92.2164C310.005 93.5812 308.898 94.6875 307.534 94.6875V94.6875Z" fill="#B0B3B6"/>
<path d="M65.9972 145.75C65.837 145.26 65.6259 144.821 65.3638 144.432C65.1066 144.039 64.7984 143.704 64.4393 143.428C64.085 143.151 63.6822 142.94 63.2308 142.794C62.7795 142.649 62.2844 142.576 61.7457 142.576C60.8625 142.576 60.0592 142.804 59.3361 143.26C58.613 143.717 58.0379 144.389 57.6108 145.277C57.1837 146.165 56.9702 147.254 56.9702 148.545C56.9702 149.836 57.1861 150.926 57.6181 151.814C58.05 152.702 58.6348 153.374 59.3725 153.831C60.1102 154.287 60.9401 154.515 61.8622 154.515C62.7164 154.515 63.4686 154.333 64.119 153.969C64.7741 153.6 65.2837 153.081 65.6477 152.411C66.0166 151.736 66.201 150.943 66.201 150.031L66.7543 150.147H62.2699V148.545H67.9482V150.147C67.9482 151.375 67.6861 152.443 67.1619 153.35C66.6426 154.258 65.9244 154.961 65.0071 155.461C64.0947 155.956 63.0464 156.204 61.8622 156.204C60.5421 156.204 59.3822 155.893 58.3825 155.272C57.3875 154.651 56.611 153.768 56.0529 152.622C55.4996 151.477 55.223 150.118 55.223 148.545C55.223 147.366 55.3807 146.306 55.6962 145.364C56.0165 144.418 56.4679 143.612 57.0502 142.947C57.6326 142.282 58.3218 141.773 59.1177 141.419C59.9136 141.064 60.7897 140.887 61.7457 140.887C62.532 140.887 63.2648 141.006 63.9442 141.244C64.6286 141.477 65.2376 141.809 65.7715 142.241C66.3102 142.668 66.7591 143.18 67.1183 143.777C67.4774 144.369 67.7249 145.027 67.8608 145.75H65.9972ZM71.4503 156V141.091H76.4879C77.6527 141.091 78.6088 141.29 79.3562 141.688C80.1036 142.081 80.6568 142.622 81.016 143.311C81.3751 144 81.5547 144.784 81.5547 145.663C81.5547 146.541 81.3751 147.32 81.016 147.999C80.6568 148.679 80.106 149.213 79.3634 149.601C78.6209 149.984 77.6721 150.176 76.517 150.176H72.4403V148.545H76.4588C77.2547 148.545 77.8953 148.429 78.3807 148.196C78.8708 147.963 79.2251 147.633 79.4435 147.206C79.6668 146.774 79.7784 146.26 79.7784 145.663C79.7784 145.066 79.6668 144.544 79.4435 144.097C79.2203 143.651 78.8636 143.306 78.3734 143.064C77.8832 142.816 77.2353 142.692 76.4297 142.692H73.2557V156H71.4503ZM78.468 149.303L82.1371 156H80.0405L76.4297 149.303H78.468ZM97.5526 148.545C97.5526 150.118 97.2687 151.477 96.7009 152.622C96.133 153.768 95.3541 154.651 94.364 155.272C93.374 155.893 92.2432 156.204 90.9716 156.204C89.7001 156.204 88.5693 155.893 87.5792 155.272C86.5892 154.651 85.8102 153.768 85.2424 152.622C84.6746 151.477 84.3907 150.118 84.3907 148.545C84.3907 146.973 84.6746 145.614 85.2424 144.469C85.8102 143.323 86.5892 142.44 87.5792 141.819C88.5693 141.198 89.7001 140.887 90.9716 140.887C92.2432 140.887 93.374 141.198 94.364 141.819C95.3541 142.44 96.133 143.323 96.7009 144.469C97.2687 145.614 97.5526 146.973 97.5526 148.545ZM95.8054 148.545C95.8054 147.254 95.5895 146.165 95.1575 145.277C94.7305 144.389 94.1505 143.717 93.4177 143.26C92.6897 142.804 91.8743 142.576 90.9716 142.576C90.0689 142.576 89.2512 142.804 88.5183 143.26C87.7903 143.717 87.2104 144.389 86.7785 145.277C86.3514 146.165 86.1378 147.254 86.1378 148.545C86.1378 149.836 86.3514 150.926 86.7785 151.814C87.2104 152.702 87.7903 153.374 88.5183 153.831C89.2512 154.287 90.0689 154.515 90.9716 154.515C91.8743 154.515 92.6897 154.287 93.4177 153.831C94.1505 153.374 94.7305 152.702 95.1575 151.814C95.5895 150.926 95.8054 149.836 95.8054 148.545ZM110.782 141.091H112.588V150.962C112.588 151.982 112.348 152.892 111.867 153.692C111.391 154.488 110.719 155.117 109.851 155.578C108.982 156.034 107.963 156.262 106.793 156.262C105.623 156.262 104.604 156.034 103.736 155.578C102.867 155.117 102.192 154.488 101.712 153.692C101.236 152.892 100.998 151.982 100.998 150.962V141.091H102.804V150.817C102.804 151.545 102.964 152.193 103.284 152.76C103.604 153.323 104.061 153.768 104.653 154.093C105.25 154.413 105.963 154.573 106.793 154.573C107.623 154.573 108.336 154.413 108.933 154.093C109.53 153.768 109.986 153.323 110.302 152.76C110.622 152.193 110.782 151.545 110.782 150.817V141.091ZM116.603 156V141.091H121.641C122.81 141.091 123.766 141.302 124.509 141.724C125.256 142.142 125.81 142.707 126.169 143.42C126.528 144.134 126.708 144.93 126.708 145.808C126.708 146.687 126.528 147.485 126.169 148.203C125.815 148.922 125.266 149.494 124.524 149.921C123.781 150.344 122.83 150.555 121.67 150.555H118.059V148.953H121.612C122.412 148.953 123.055 148.815 123.541 148.538C124.026 148.262 124.378 147.888 124.596 147.417C124.82 146.941 124.931 146.405 124.931 145.808C124.931 145.211 124.82 144.677 124.596 144.207C124.378 143.736 124.024 143.367 123.534 143.1C123.043 142.828 122.393 142.692 121.583 142.692H118.409V156H116.603ZM148.781 148.545C148.781 150.118 148.497 151.477 147.929 152.622C147.361 153.768 146.582 154.651 145.592 155.272C144.602 155.893 143.472 156.204 142.2 156.204C140.928 156.204 139.798 155.893 138.808 155.272C137.818 154.651 137.039 153.768 136.471 152.622C135.903 151.477 135.619 150.118 135.619 148.545C135.619 146.973 135.903 145.614 136.471 144.469C137.039 143.323 137.818 142.44 138.808 141.819C139.798 141.198 140.928 140.887 142.2 140.887C143.472 140.887 144.602 141.198 145.592 141.819C146.582 142.44 147.361 143.323 147.929 144.469C148.497 145.614 148.781 146.973 148.781 148.545ZM147.034 148.545C147.034 147.254 146.818 146.165 146.386 145.277C145.959 144.389 145.379 143.717 144.646 143.26C143.918 142.804 143.103 142.576 142.2 142.576C141.297 142.576 140.48 142.804 139.747 143.26C139.019 143.717 138.439 144.389 138.007 145.277C137.58 146.165 137.366 147.254 137.366 148.545C137.366 149.836 137.58 150.926 138.007 151.814C138.439 152.702 139.019 153.374 139.747 153.831C140.48 154.287 141.297 154.515 142.2 154.515C143.103 154.515 143.918 154.287 144.646 153.831C145.379 153.374 145.959 152.702 146.386 151.814C146.818 150.926 147.034 149.836 147.034 148.545ZM152.227 156V141.091H161.166V142.692H154.032V147.73H160.497V149.332H154.032V156H152.227ZM182.841 145.75H181.036C180.929 145.231 180.742 144.775 180.475 144.381C180.213 143.988 179.893 143.658 179.514 143.391C179.141 143.12 178.726 142.916 178.269 142.78C177.813 142.644 177.338 142.576 176.843 142.576C175.94 142.576 175.122 142.804 174.389 143.26C173.661 143.717 173.081 144.389 172.649 145.277C172.222 146.165 172.009 147.254 172.009 148.545C172.009 149.836 172.222 150.926 172.649 151.814C173.081 152.702 173.661 153.374 174.389 153.831C175.122 154.287 175.94 154.515 176.843 154.515C177.338 154.515 177.813 154.447 178.269 154.311C178.726 154.175 179.141 153.974 179.514 153.707C179.893 153.435 180.213 153.103 180.475 152.71C180.742 152.312 180.929 151.855 181.036 151.341H182.841C182.705 152.103 182.458 152.785 182.099 153.387C181.74 153.988 181.293 154.5 180.759 154.923C180.225 155.34 179.626 155.658 178.961 155.876C178.301 156.095 177.595 156.204 176.843 156.204C175.571 156.204 174.44 155.893 173.45 155.272C172.46 154.651 171.681 153.768 171.113 152.622C170.546 151.477 170.262 150.118 170.262 148.545C170.262 146.973 170.546 145.614 171.113 144.469C171.681 143.323 172.46 142.44 173.45 141.819C174.44 141.198 175.571 140.887 176.843 140.887C177.595 140.887 178.301 140.996 178.961 141.215C179.626 141.433 180.225 141.753 180.759 142.176C181.293 142.593 181.74 143.103 182.099 143.704C182.458 144.301 182.705 144.983 182.841 145.75ZM198.748 148.545C198.748 150.118 198.464 151.477 197.896 152.622C197.329 153.768 196.55 154.651 195.56 155.272C194.57 155.893 193.439 156.204 192.167 156.204C190.896 156.204 189.765 155.893 188.775 155.272C187.785 154.651 187.006 153.768 186.438 152.622C185.87 151.477 185.586 150.118 185.586 148.545C185.586 146.973 185.87 145.614 186.438 144.469C187.006 143.323 187.785 142.44 188.775 141.819C189.765 141.198 190.896 140.887 192.167 140.887C193.439 140.887 194.57 141.198 195.56 141.819C196.55 142.44 197.329 143.323 197.896 144.469C198.464 145.614 198.748 146.973 198.748 148.545ZM197.001 148.545C197.001 147.254 196.785 146.165 196.353 145.277C195.926 144.389 195.346 143.717 194.613 143.26C193.885 142.804 193.07 142.576 192.167 142.576C191.264 142.576 190.447 142.804 189.714 143.26C188.986 143.717 188.406 144.389 187.974 145.277C187.547 146.165 187.333 147.254 187.333 148.545C187.333 149.836 187.547 150.926 187.974 151.814C188.406 152.702 188.986 153.374 189.714 153.831C190.447 154.287 191.264 154.515 192.167 154.515C193.07 154.515 193.885 154.287 194.613 153.831C195.346 153.374 195.926 152.702 196.353 151.814C196.785 150.926 197.001 149.836 197.001 148.545ZM202.194 141.091H204.349L209.415 153.467H209.59L214.657 141.091H216.812V156H215.123V144.673H214.977L210.318 156H208.687L204.028 144.673H203.883V156H202.194V141.091ZM220.842 156V141.091H225.879C227.049 141.091 228.005 141.302 228.748 141.724C229.495 142.142 230.048 142.707 230.407 143.42C230.766 144.134 230.946 144.93 230.946 145.808C230.946 146.687 230.766 147.485 230.407 148.203C230.053 148.922 229.505 149.494 228.762 149.921C228.02 150.344 227.068 150.555 225.908 150.555H222.298V148.953H225.85C226.651 148.953 227.294 148.815 227.779 148.538C228.265 148.262 228.616 147.888 228.835 147.417C229.058 146.941 229.17 146.405 229.17 145.808C229.17 145.211 229.058 144.677 228.835 144.207C228.616 143.736 228.262 143.367 227.772 143.1C227.282 142.828 226.631 142.692 225.821 142.692H222.647V156H220.842ZM233.354 156H231.462L236.936 141.091H238.8L244.274 156H242.381L237.926 143.45H237.81L233.354 156ZM234.053 150.176H241.682V151.778H234.053V150.176ZM258.829 141.091V156H257.082L248.957 144.294H248.812V156H247.006V141.091H248.753L256.907 152.826H257.053V141.091H258.829ZM264.657 141.091V156H262.851V141.091H264.657ZM268.687 156V141.091H277.685V142.692H270.492V147.73H277.219V149.332H270.492V154.398H277.801V156H268.687ZM289.502 144.818C289.415 144.08 289.06 143.508 288.439 143.1C287.818 142.692 287.056 142.489 286.153 142.489C285.493 142.489 284.916 142.595 284.421 142.809C283.931 143.022 283.547 143.316 283.271 143.69C282.999 144.064 282.863 144.488 282.863 144.964C282.863 145.362 282.957 145.704 283.147 145.99C283.341 146.272 283.588 146.507 283.889 146.696C284.19 146.881 284.506 147.034 284.836 147.155C285.166 147.271 285.469 147.366 285.746 147.439L287.26 147.847C287.648 147.949 288.08 148.089 288.556 148.269C289.036 148.448 289.495 148.693 289.932 149.004C290.373 149.31 290.737 149.703 291.024 150.183C291.31 150.664 291.453 151.254 291.453 151.952C291.453 152.758 291.242 153.486 290.82 154.136C290.402 154.787 289.791 155.304 288.985 155.687C288.184 156.07 287.211 156.262 286.066 156.262C284.998 156.262 284.074 156.09 283.292 155.745C282.516 155.401 281.904 154.92 281.458 154.304C281.016 153.687 280.766 152.972 280.708 152.156H282.572C282.62 152.719 282.809 153.185 283.139 153.554C283.474 153.918 283.897 154.19 284.406 154.369C284.921 154.544 285.474 154.631 286.066 154.631C286.755 154.631 287.374 154.52 287.922 154.297C288.471 154.068 288.905 153.753 289.225 153.35C289.546 152.942 289.706 152.467 289.706 151.923C289.706 151.428 289.568 151.025 289.291 150.715C289.014 150.404 288.65 150.152 288.199 149.958C287.748 149.764 287.26 149.594 286.736 149.448L284.901 148.924C283.736 148.589 282.814 148.111 282.135 147.49C281.455 146.869 281.116 146.056 281.116 145.051C281.116 144.216 281.341 143.488 281.793 142.867C282.249 142.241 282.86 141.756 283.627 141.411C284.399 141.062 285.26 140.887 286.212 140.887C287.173 140.887 288.027 141.059 288.774 141.404C289.521 141.744 290.114 142.21 290.55 142.802C290.992 143.394 291.225 144.066 291.249 144.818H289.502Z" fill="#5C5E62"/>
</svg>
