<svg width="360" height="221" viewBox="0 0 360 221" fill="none" xmlns="http://www.w3.org/2000/svg">
<rect width="360" height="221" fill="#D6D7D8"/>
<g clip-path="url(#clip0_779_36)">
<path d="M235.711 176L235.944 174.6C236.713 170.02 240.655 167.07 245.983 167.07C251.572 167.07 254.772 169.87 254.772 174.75V176H235.711Z" fill="#5C5E62"/>
<path d="M245.985 168.32C250.723 168.32 253.058 170.74 253.058 174.75H237.65C238.35 170.53 241.893 168.32 245.985 168.32ZM245.985 165.82C239.82 165.82 235.096 169.29 234.244 174.45L233.777 177.25H256.491V174.75C256.491 168.16 251.066 165.82 245.985 165.82Z" fill="#B0B3B6"/>
<path d="M120.664 176L120.898 174.6C121.667 170.02 125.608 167.07 130.936 167.07C136.511 167.07 139.725 169.87 139.725 174.75V176H120.664Z" fill="#5C5E62"/>
<path d="M131.001 168.32C135.739 168.32 138.073 170.74 138.073 174.75H122.666C123.366 170.53 126.909 168.32 131.001 168.32ZM131.001 165.82C124.835 165.82 120.111 169.29 119.26 174.45L118.793 177.25H141.506V174.75C141.506 168.16 136.082 165.82 131.001 165.82Z" fill="#B0B3B6"/>
<path d="M53.7148 202.17V18.25H305.018V202.17H53.7148ZM244.816 165C237.984 165 230.633 169.22 230.633 177C230.633 184.16 236.782 189 245.95 189C249.311 188.963 252.603 188.299 255.515 187.07L254.381 185.54C252.125 186.439 249.598 186.91 247.029 186.91C240.471 186.91 235.921 183.74 235.128 178.65L234.91 177.26H257.305C257.371 176.751 257.403 176.241 257.4 175.73C257.387 169 252.686 165 244.816 165ZM130.409 165C123.578 165 116.226 169.22 116.226 177C116.226 184.16 122.375 189 131.544 189C134.904 188.964 138.197 188.299 141.108 187.07L139.974 185.54C137.719 186.439 135.191 186.91 132.623 186.91C126.064 186.91 121.514 183.74 120.722 178.65L120.503 177.26H142.884C142.884 176.84 142.98 176.32 142.98 175.73C142.98 169 138.28 165 130.409 165ZM273.196 188.39V173.94L273.318 173.71C275.395 169.97 279.03 167.71 283.061 167.71C283.821 167.706 284.58 167.753 285.329 167.85L286.094 165.07C285.444 164.99 284.786 164.953 284.127 164.96C281.025 164.96 277.923 166.62 275.846 169.41L275.354 170.06H272.499L271.993 165.6H268.577V188.37L273.196 188.39ZM219.552 188.39V173.79C219.552 165.92 214.469 165 210.643 165C207.131 165 204.098 166.09 200.518 168.66L200.026 169.02H197.526L196.965 165.62H193.509V188.39H198.209V171.44L198.728 171.07C201.461 169.07 203.934 167.57 207.801 167.57C214.182 167.57 214.92 171.57 214.92 174.57V188.4L219.552 188.39ZM180.173 188.39V173.79C180.173 165.92 175.09 165 171.264 165C167.752 165 164.719 166.09 161.139 168.66L160.647 169.02H158.147L157.587 165.62H154.13V188.39H158.803V171.44L159.322 171.07C162.055 169.07 164.528 167.57 168.395 167.57C174.776 167.57 175.513 171.57 175.513 174.57V188.4L180.173 188.39ZM104.161 188.39V153.89H99.4201V170.77H77.4351V153.87H72.6938V188.37H77.4351V173.45H99.4201V188.38L104.161 188.39Z" fill="#5C5E62"/>
<path d="M304.567 19.5V200.92H55.4331V19.5H304.567ZM284.943 155.64L284.353 154.34L283.323 152.54H281.043V158.11H282.911V156L282.691 154H282.787L284.312 157.2H285.685L287.209 154H287.305L287.086 156V158.07H288.953V152.5H286.674L285.671 154.3L285.081 155.6H284.984M273.477 153.76H275.756V158.07H277.665V153.8H279.958V152.53H273.449V153.8M79.2726 169.5V152.62H71.0332V189.62H79.2726V174.7H97.935V189.63H106.174V152.63H97.935V169.5H79.2726ZM275.166 168.83L274.603 164.35H267.888V189.62H276.017V174.18C278.132 170.37 281.51 168.98 284.257 168.98C285.483 168.973 286.703 169.112 287.868 169.39L289.241 164.24C287.995 163.851 286.641 163.676 285.287 163.73C281.606 163.73 277.94 165.53 275.468 168.83H275.179M246.918 190.24C251.157 190.187 255.284 189.238 258.797 187.51L256.05 183.8C253.675 184.986 250.869 185.63 247.989 185.65C242.4 185.65 238.445 183.08 237.745 178.5H259.772C260.03 177.586 260.15 176.653 260.129 175.72C260.129 168.67 255.185 163.72 245.778 163.72C237.649 163.72 229.808 168.72 229.808 177C229.808 185.28 237.305 190.23 246.918 190.23M199.775 167.74L199.212 164.34H192.483V189.61H200.612V172C203.51 169.94 205.487 168.86 208.522 168.86C212.34 168.86 214.015 170.4 214.015 174.57V189.65H222.145V173.77C222.145 167.39 218.89 163.77 211.475 163.77C206.737 163.77 203.235 165.57 200.091 167.77H199.802M160.225 167.77L159.662 164.37H152.92V189.64H161.036V172C163.933 169.94 165.911 168.86 168.945 168.86C172.763 168.86 174.438 170.4 174.438 174.57V189.65H182.458V173.77C182.458 167.39 179.204 163.77 171.788 163.77C167.05 163.77 163.549 165.57 160.404 167.77H160.115M131.923 190.24C136.162 190.187 140.288 189.238 143.801 187.51L141.055 183.8C138.689 184.986 135.893 185.633 133.021 185.66C127.432 185.66 123.477 183.09 122.777 178.51H144.79C145.049 177.596 145.169 176.663 145.147 175.73C145.147 168.68 140.203 163.73 130.797 163.73C122.667 163.73 114.826 168.73 114.826 177.01C114.826 185.29 122.324 190.24 131.936 190.24M308 17H52V203.42H308V17ZM101.437 155.12H102.81V187.12H101.437V172.2H75.8395V187.13H74.4663V155.13H75.8395V172H101.437V155.12ZM241.343 187C236.289 185.52 233.227 181.92 233.227 177C233.227 170 239.681 166.22 245.765 166.22C255.254 166.22 256.682 172.17 256.682 175.71C256.682 175.803 256.682 175.897 256.682 175.99H233.872L234.298 178.77C234.448 180.456 235.168 182.089 236.395 183.523C237.622 184.958 239.317 186.149 241.329 186.99L241.343 187ZM209.593 166.36C210.199 166.273 210.816 166.23 211.434 166.23C213.782 166.23 218.671 166.23 218.671 173.77V187.12H217.407V174.54C217.407 169.43 214.784 166.68 209.593 166.36ZM170.017 166.36C170.623 166.273 171.239 166.23 171.857 166.23C174.205 166.23 179.094 166.23 179.094 173.77V187.12H177.83V174.54C177.83 169.43 175.207 166.68 170.017 166.36ZM126.361 187C121.308 185.52 118.259 181.92 118.259 177C118.259 170 124.713 166.22 130.797 166.22C140.3 166.22 141.714 172.17 141.714 175.71C141.714 175.803 141.714 175.897 141.714 175.99H118.904L119.33 178.77C119.478 180.458 120.197 182.093 121.424 183.529C122.651 184.965 124.347 186.158 126.361 187ZM283.35 166.51C283.936 166.337 284.559 166.243 285.19 166.23L285.122 166.5H284.229H283.364L283.35 166.51ZM271.321 166.85H271.472L271.746 169.06L272.035 171.33H274.122C273.63 171.943 273.198 172.582 272.831 173.24L272.584 173.69V187.12H271.321V166.85ZM195.916 166.85H196.191L196.397 168.05L196.767 170.25H198.141L197.207 170.92V187.13H195.943V166.85H195.916ZM156.339 166.85H156.572L156.778 168.05L157.149 170.25H158.522L157.589 170.92V187.13H156.366V166.85H156.339Z" fill="#B0B3B6"/>
<path d="M97.9349 169.499H79.2725V152.619H71.0742V189.619H79.2725V174.699H97.9349V189.619H106.133V152.619H97.9349V169.499Z" fill="#B0B3B6"/>
<path d="M130.795 163.74C122.665 163.74 114.824 168.74 114.824 177.02C114.824 185.3 122.322 190.25 131.935 190.25C136.174 190.197 140.3 189.249 143.813 187.52L141.067 183.81C138.696 184.994 135.895 185.638 133.02 185.66C127.431 185.66 123.476 183.09 122.775 178.51H144.788C145.047 177.596 145.167 176.664 145.145 175.73C145.145 168.68 140.188 163.74 130.795 163.74ZM122.665 174.74C123.366 170.52 126.909 168.31 131.001 168.31C135.739 168.31 138.073 170.73 138.073 174.74H122.665Z" fill="#B0B3B6"/>
<path d="M171.855 163.74C167.117 163.74 163.616 165.54 160.471 167.74H160.182L159.619 164.34H152.918V189.61H161.034V172C163.931 169.94 165.909 168.86 168.944 168.86C172.761 168.86 174.437 170.4 174.437 174.57V189.65H182.456V173.77C182.456 167.39 179.271 163.74 171.855 163.74Z" fill="#B0B3B6"/>
<path d="M211.435 163.74C206.697 163.74 203.196 165.54 200.051 167.74H199.763L199.2 164.34H192.484V189.61H200.614V172C203.512 169.94 205.489 168.86 208.524 168.86C212.341 168.86 214.017 170.4 214.017 174.57V189.65H222.146V173.77C222.105 167.39 218.851 163.74 211.435 163.74Z" fill="#B0B3B6"/>
<path d="M245.779 163.74C237.65 163.74 229.809 168.74 229.809 177.02C229.809 185.3 237.307 190.25 246.919 190.25C251.158 190.197 255.285 189.249 258.798 187.52L256.051 183.81C253.676 184.996 250.87 185.64 247.99 185.66C242.401 185.66 238.446 183.09 237.746 178.51H259.773C260.032 177.596 260.151 176.664 260.13 175.73C260.13 168.68 255.241 163.74 245.779 163.74ZM237.65 174.74C238.35 170.52 241.893 168.31 245.985 168.31C250.723 168.31 253.058 170.73 253.058 174.74H237.65Z" fill="#B0B3B6"/>
<path d="M275.453 168.83H275.165L274.602 164.35H267.887V189.62H276.016V174.18C278.131 170.37 281.509 168.98 284.256 168.98C285.482 168.973 286.702 169.112 287.867 169.39L289.241 164.24C287.994 163.851 286.64 163.676 285.286 163.73C281.605 163.74 277.925 165.54 275.453 168.83Z" fill="#B0B3B6"/>
<path d="M275.713 158.109H277.622V153.799H279.929V152.529H273.434V153.799H275.713V158.109Z" fill="#B0B3B6"/>
<path d="M282.899 156.029L282.679 154.069H282.775L284.3 157.269H285.645L287.17 154.069H287.266L287.046 156.029V158.109H288.914V152.529H286.634L285.632 154.339L285.041 155.639H284.945L284.354 154.339L283.325 152.529H281.031V158.109H282.899V156.029Z" fill="#B0B3B6"/>
</g>
<defs>
<clipPath id="clip0_779_36">
<rect width="256" height="186.42" fill="white" transform="translate(52 17)"/>
</clipPath>
</defs>
</svg>
