<svg width="360" height="221" viewBox="0 0 360 221" fill="none" xmlns="http://www.w3.org/2000/svg">
<rect width="360" height="221" fill="#D6D7D8"/>
<g clip-path="url(#clip0_779_40)">
<path fill-rule="evenodd" clip-rule="evenodd" d="M153.375 78.2918L63.3952 74.3346C63.4203 74.3015 63.4455 74.2661 63.4707 74.2331L147.58 70.5358C149.717 72.9447 151.66 75.5308 153.375 78.2918ZM141.882 64.9571L75.915 62.0542C76.1847 61.8626 76.4544 61.676 76.7265 61.4892L133.357 59C136.382 60.7138 139.232 62.7089 141.882 64.9571ZM161.764 102.983C161.963 104.943 162.066 106.935 162.066 108.949C162.066 110.294 162.018 111.623 161.931 112.942L52 108.105C52.0015 108.006 52.0015 107.907 52.0046 107.808L161.764 102.983ZM161.179 119.154C160.596 122.457 159.734 125.662 158.623 128.742L53.9955 124.14C53.9705 124.05 53.9498 123.96 53.9246 123.868L161.179 119.154ZM155.528 135.801C154.01 138.718 152.262 141.484 150.291 144.07L61.0475 140.146C61.0086 140.084 60.9676 140.018 60.9287 139.957L155.528 135.801ZM142.016 152.826C139.287 155.159 136.338 157.223 133.206 158.984L76.8705 156.506C76.5003 156.253 76.1344 155.998 75.771 155.738L142.016 152.826ZM305.442 97.0918L174.442 96.9431L54.6768 91.915L174.442 87.8609L305.442 87.92V97.0918Z" fill="#5C5E62"/>
<path fill-rule="evenodd" clip-rule="evenodd" d="M182.585 79.8814L182.448 80.3447H175.684L175.855 79.8814C176.534 79.8648 176.98 79.8057 177.199 79.7064C177.556 79.5623 177.816 79.3636 177.986 79.1154C178.255 78.723 178.527 78.0209 178.808 77.0092L181.673 66.7499C181.913 65.8988 182.039 65.2559 182.039 64.8209C182.039 64.601 181.984 64.4191 181.881 64.2677C181.773 64.1188 181.615 64.003 181.401 63.925C181.186 63.8447 180.767 63.8068 180.146 63.8068L180.292 63.3387H186.645L186.512 63.8068C185.995 63.7972 185.609 63.854 185.357 63.9818C184.996 64.1472 184.72 64.3836 184.53 64.6956C184.34 65.0053 184.096 65.6884 183.794 66.7499L180.946 77.0092C180.685 77.9524 180.557 78.5552 180.557 78.8175C180.557 79.0233 180.605 79.2029 180.71 79.347C180.809 79.4936 180.971 79.6095 181.193 79.6852C181.417 79.7679 181.881 79.8318 182.585 79.8814ZM190.208 68.9979L188.599 74.7043C190.11 72.3712 191.269 70.8346 192.071 70.0971C192.874 69.3667 193.648 68.9979 194.394 68.9979C194.798 68.9979 195.13 69.1351 195.395 69.4092C195.655 69.6859 195.788 70.0474 195.788 70.4871C195.788 70.9884 195.672 71.6597 195.436 72.4942L193.959 77.7728C193.786 78.385 193.703 78.756 193.703 78.8885C193.703 79.0043 193.735 79.1036 193.797 79.184C193.863 79.2667 193.934 79.3046 194.005 79.3046C194.103 79.3046 194.22 79.2478 194.357 79.1414C194.787 78.7917 195.255 78.2549 195.763 77.5364L196.14 77.7728C195.386 78.8862 194.675 79.6804 194.005 80.1555C193.536 80.4818 193.114 80.6448 192.746 80.6448C192.444 80.6448 192.208 80.5503 192.03 80.3611C191.852 80.1745 191.76 79.9215 191.76 79.6047C191.76 79.2029 191.897 78.5126 192.174 77.5364L193.582 72.4942C193.76 71.8701 193.847 71.3784 193.847 71.0261C193.847 70.8607 193.792 70.7235 193.69 70.6196C193.587 70.5179 193.454 70.4613 193.301 70.4613C193.077 70.4613 192.805 70.5652 192.489 70.7661C191.888 71.142 191.269 71.7636 190.622 72.6265C189.977 73.4917 189.294 74.5956 188.574 75.9454C188.194 76.6546 187.879 77.43 187.625 78.2763L187.022 80.3447H185.2L187.408 72.4942C187.669 71.5486 187.797 70.9788 187.797 70.7922C187.797 70.6078 187.726 70.4446 187.584 70.3075C187.445 70.1704 187.266 70.0971 187.058 70.0971C186.96 70.0971 186.791 70.1161 186.546 70.1491L186.087 70.2272L186.016 69.7733L190.208 68.9979ZM203.599 65.887L202.65 69.2982H204.555L204.349 70.0901H202.456L200.371 77.4843C200.147 78.2809 200.031 78.7963 200.031 79.0255C200.031 79.1721 200.065 79.2785 200.129 79.3565C200.193 79.4297 200.271 79.4676 200.358 79.4676C200.561 79.4676 200.828 79.321 201.16 79.0255C201.354 78.8601 201.786 78.3448 202.456 77.4843L202.858 77.7988C202.113 78.9192 201.409 79.711 200.746 80.1697C200.296 80.4864 199.836 80.6448 199.377 80.6448C199.02 80.6448 198.73 80.5291 198.504 80.3021C198.275 80.0704 198.163 79.7749 198.163 79.4157C198.163 78.9664 198.293 78.2763 198.554 77.3496L200.577 70.0901H198.748L198.867 69.5959C199.759 69.3478 200.499 68.9719 201.087 68.4756C201.679 67.979 202.337 67.1139 203.064 65.887H203.599ZM207.005 75.6145C206.946 76.0353 206.918 76.3803 206.918 76.6594C206.918 77.3992 207.174 78.0327 207.684 78.5598C208.191 79.0823 208.809 79.3424 209.538 79.3424C210.121 79.3424 210.678 79.2195 211.218 78.9712C211.755 78.7278 212.555 78.1794 213.614 77.3353L213.867 77.6995C211.949 79.6638 210.125 80.6448 208.386 80.6448C207.206 80.6448 206.317 80.2596 205.718 79.4936C205.121 78.723 204.822 77.8743 204.822 76.9453C204.822 75.6996 205.192 74.4255 205.935 73.1207C206.68 71.8181 207.613 70.804 208.738 70.0807C209.86 69.3573 211.019 68.9979 212.208 68.9979C213.063 68.9979 213.696 69.1775 214.112 69.5369C214.521 69.8962 214.727 70.3193 214.727 70.8134C214.727 71.5107 214.462 72.1726 213.929 72.8061C213.225 73.6382 212.189 74.3049 210.825 74.8155C209.917 75.1558 208.644 75.4277 207.005 75.6145ZM207.087 75.0023C208.283 74.8627 209.259 74.6168 210.009 74.2741C211.008 73.818 211.75 73.2648 212.249 72.6265C212.745 71.9859 212.994 71.3784 212.994 70.7992C212.994 70.4494 212.887 70.1657 212.67 69.9481C212.459 69.7307 212.153 69.622 211.755 69.622C210.932 69.622 210.059 70.0758 209.131 70.9836C208.205 71.8913 207.526 73.2316 207.087 75.0023ZM216.363 69.7L220.547 68.9979L218.8 75.0898C220.215 72.5887 221.504 70.8418 222.659 69.849C223.313 69.2792 223.845 68.9979 224.259 68.9979C224.524 68.9979 224.737 69.0784 224.89 69.2414C225.043 69.4046 225.121 69.641 225.121 69.9481C225.121 70.4991 224.984 71.0261 224.707 71.5274C224.513 71.9032 224.236 72.0922 223.87 72.0922C223.685 72.0922 223.523 72.0331 223.39 71.9032C223.258 71.7803 223.175 71.5864 223.143 71.3312C223.125 71.168 223.089 71.0639 223.036 71.0142C222.97 70.9505 222.894 70.9151 222.803 70.9151C222.666 70.9151 222.538 70.9505 222.414 71.0142C222.206 71.1325 221.884 71.4587 221.459 71.9931C220.787 72.811 220.06 73.8723 219.276 75.1794C218.937 75.7302 218.642 76.3521 218.403 77.0446C218.064 77.9996 217.87 78.5716 217.82 78.7656L217.431 80.3447H215.577L217.82 72.5579C218.08 71.6549 218.208 71.0096 218.208 70.6242C218.208 70.4753 218.146 70.3501 218.028 70.2508C217.865 70.1161 217.65 70.0498 217.385 70.0498C217.216 70.0498 216.901 70.0901 216.45 70.1609L216.363 69.7ZM230.211 68.9979L228.602 74.7043C230.113 72.3712 231.272 70.8346 232.074 70.0971C232.877 69.3667 233.652 68.9979 234.397 68.9979C234.801 68.9979 235.133 69.1351 235.398 69.4092C235.659 69.6859 235.791 70.0474 235.791 70.4871C235.791 70.9884 235.675 71.6597 235.439 72.4942L233.963 77.7728C233.789 78.385 233.707 78.756 233.707 78.8885C233.707 79.0043 233.739 79.1036 233.8 79.184C233.867 79.2667 233.937 79.3046 234.008 79.3046C234.107 79.3046 234.223 79.2478 234.36 79.1414C234.79 78.7917 235.259 78.2549 235.766 77.5364L236.143 77.7728C235.389 78.8862 234.678 79.6804 234.008 80.1555C233.54 80.4818 233.117 80.6448 232.749 80.6448C232.447 80.6448 232.212 80.5503 232.033 80.3611C231.855 80.1745 231.764 79.9215 231.764 79.6047C231.764 79.2029 231.901 78.5126 232.177 77.5364L233.585 72.4942C233.764 71.8701 233.851 71.3784 233.851 71.0261C233.851 70.8607 233.796 70.7235 233.693 70.6196C233.59 70.5179 233.457 70.4613 233.304 70.4613C233.08 70.4613 232.808 70.5652 232.493 70.7661C231.892 71.142 231.272 71.7636 230.625 72.6265C229.981 73.4917 229.297 74.5956 228.577 75.9454C228.198 76.6546 227.882 77.43 227.628 78.2763L227.025 80.3447H225.203L227.411 72.4942C227.672 71.5486 227.8 70.9788 227.8 70.7922C227.8 70.6078 227.729 70.4446 227.587 70.3075C227.448 70.1704 227.269 70.0971 227.062 70.0971C226.963 70.0971 226.794 70.1161 226.549 70.1491L226.09 70.2272L226.019 69.7733L230.211 68.9979ZM248.8 68.9979L246.437 77.4985L246.172 78.6403C246.146 78.749 246.135 78.8389 246.135 78.9146C246.135 79.0469 246.176 79.1675 246.254 79.2668C246.32 79.3424 246.4 79.3778 246.498 79.3778C246.604 79.3778 246.739 79.314 246.91 79.1793C247.228 78.9358 247.646 78.4346 248.172 77.6735L248.586 77.9736C248.025 78.8411 247.452 79.5054 246.864 79.9641C246.272 80.418 245.726 80.6448 245.225 80.6448C244.878 80.6448 244.615 80.5551 244.441 80.3753C244.267 80.1957 244.18 79.9333 244.18 79.5905C244.18 79.184 244.272 78.6451 244.45 77.9736L244.702 77.0352C243.643 78.4653 242.67 79.463 241.78 80.0326C241.143 80.4392 240.514 80.6448 239.901 80.6448C239.309 80.6448 238.8 80.392 238.374 79.886C237.945 79.3825 237.732 78.6828 237.732 77.7988C237.732 76.4702 238.118 75.0661 238.886 73.591C239.661 72.1182 240.642 70.9363 241.831 70.0498C242.756 69.3478 243.634 68.9979 244.462 68.9979C244.955 68.9979 245.365 69.1302 245.692 69.3951C246.018 69.6646 246.268 70.1067 246.437 70.726L246.876 69.2982L248.8 68.9979ZM244.485 69.648C243.966 69.648 243.419 69.9009 242.836 70.402C242.013 71.1113 241.28 72.1655 240.635 73.5603C239.993 74.955 239.67 76.2197 239.67 77.3496C239.67 77.9169 239.81 78.366 240.084 78.697C240.356 79.0255 240.676 79.1887 241.031 79.1887C241.908 79.1887 242.868 78.5173 243.904 77.1723C245.287 75.3828 245.977 73.5485 245.977 71.6691C245.977 70.9576 245.845 70.4446 245.577 70.1231C245.312 69.8063 244.946 69.648 244.485 69.648ZM256.019 65.887L255.071 69.2982H256.975L256.769 70.0901H254.876L252.791 77.4843C252.567 78.2809 252.451 78.7963 252.451 79.0255C252.451 79.1721 252.485 79.2785 252.549 79.3565C252.613 79.4297 252.691 79.4676 252.778 79.4676C252.981 79.4676 253.249 79.321 253.58 79.0255C253.775 78.8601 254.207 78.3448 254.876 77.4843L255.279 77.7988C254.533 78.9192 253.829 79.711 253.166 80.1697C252.716 80.4864 252.257 80.6448 251.797 80.6448C251.441 80.6448 251.15 80.5291 250.924 80.3021C250.695 80.0704 250.583 79.7749 250.583 79.4157C250.583 78.9664 250.714 78.2763 250.974 77.3496L252.997 70.0901H251.169L251.287 69.5959C252.179 69.3478 252.92 68.9719 253.507 68.4756C254.099 67.979 254.757 67.1139 255.484 65.887H256.019ZM262.02 64.0195C262.358 64.0195 262.644 64.1402 262.882 64.3836C263.112 64.6223 263.231 64.9178 263.231 65.2748C263.231 65.6151 263.112 65.9083 262.872 66.1565C262.637 66.4048 262.351 66.5229 262.02 66.5229C261.688 66.5229 261.403 66.4048 261.163 66.1565C260.927 65.9083 260.806 65.6151 260.806 65.2748C260.806 64.9178 260.922 64.6223 261.158 64.3836C261.391 64.1402 261.679 64.0195 262.02 64.0195ZM262.177 68.9979L259.777 77.7846C259.615 78.3802 259.533 78.7348 259.533 78.8507C259.533 78.9878 259.569 79.0942 259.647 79.1793C259.727 79.262 259.818 79.3046 259.921 79.3046C260.04 79.3046 260.186 79.2359 260.356 79.1036C260.82 78.7278 261.284 78.1912 261.75 77.4985L262.177 77.7846C261.627 78.6545 260.98 79.3849 260.237 79.9805C259.686 80.425 259.16 80.6448 258.659 80.6448C258.328 80.6448 258.058 80.5409 257.848 80.3399C257.635 80.1343 257.532 79.879 257.532 79.5645C257.532 79.2573 257.633 78.7442 257.834 78.0257L259.412 72.4043C259.667 71.4895 259.8 70.9103 259.8 70.6763C259.8 70.4919 259.738 70.3406 259.61 70.2272C259.487 70.1067 259.313 70.0498 259.098 70.0498C258.92 70.0498 258.552 70.0924 257.992 70.187V69.7L262.177 68.9979ZM274.846 72.922C274.846 74.1772 274.526 75.4183 273.886 76.6476C273.239 77.8743 272.345 78.8459 271.2 79.5645C270.048 80.2856 268.935 80.6448 267.851 80.6448C266.742 80.6448 265.839 80.2809 265.14 79.5481C264.44 78.8175 264.093 77.8697 264.093 76.7066C264.093 75.4774 264.431 74.2458 265.115 73.0095C265.798 71.7708 266.713 70.7944 267.856 70.0758C269.001 69.3573 270.107 68.9979 271.175 68.9979C272.242 68.9979 273.12 69.3619 273.81 70.0901C274.503 70.8134 274.846 71.759 274.846 72.922ZM272.834 72.0545C272.834 71.2791 272.651 70.6833 272.283 70.2696C271.915 69.8536 271.44 69.648 270.859 69.648C269.668 69.648 268.576 70.5297 267.577 72.2884C266.58 74.0497 266.08 75.7941 266.08 77.5364C266.08 78.3282 266.274 78.9404 266.662 79.3731C267.051 79.8057 267.54 80.0184 268.128 80.0184C269.271 80.0184 270.338 79.1414 271.335 77.3922C272.334 75.6405 272.834 73.8604 272.834 72.0545ZM281.26 68.9979L279.651 74.7043C281.162 72.3712 282.321 70.8346 283.123 70.0971C283.925 69.3667 284.7 68.9979 285.446 68.9979C285.85 68.9979 286.182 69.1351 286.447 69.4092C286.707 69.6859 286.84 70.0474 286.84 70.4871C286.84 70.9884 286.723 71.6597 286.488 72.4942L285.011 77.7728C284.838 78.385 284.755 78.756 284.755 78.8885C284.755 79.0043 284.787 79.1036 284.849 79.184C284.915 79.2667 284.986 79.3046 285.057 79.3046C285.155 79.3046 285.272 79.2478 285.409 79.1414C285.839 78.7917 286.307 78.2549 286.815 77.5364L287.192 77.7728C286.438 78.8862 285.727 79.6804 285.057 80.1555C284.588 80.4818 284.166 80.6448 283.797 80.6448C283.496 80.6448 283.26 80.5503 283.082 80.3611C282.904 80.1745 282.812 79.9215 282.812 79.6047C282.812 79.2029 282.949 78.5126 283.226 77.5364L284.634 72.4942C284.812 71.8701 284.899 71.3784 284.899 71.0261C284.899 70.8607 284.844 70.7235 284.742 70.6196C284.639 70.5179 284.506 70.4613 284.353 70.4613C284.129 70.4613 283.857 70.5652 283.541 70.7661C282.94 71.142 282.321 71.7636 281.674 72.6265C281.029 73.4917 280.346 74.5956 279.626 75.9454C279.246 76.6546 278.931 77.43 278.677 78.2763L278.074 80.3447H276.252L278.46 72.4942C278.721 71.5486 278.849 70.9788 278.849 70.7922C278.849 70.6078 278.778 70.4446 278.636 70.3075C278.496 70.1704 278.318 70.0971 278.11 70.0971C278.012 70.0971 277.843 70.1161 277.598 70.1491L277.139 70.2272L277.068 69.7733L281.26 68.9979ZM299.849 68.9979L297.485 77.4985L297.22 78.6403C297.195 78.749 297.184 78.8389 297.184 78.9146C297.184 79.0469 297.225 79.1675 297.303 79.2668C297.369 79.3424 297.449 79.3778 297.547 79.3778C297.652 79.3778 297.787 79.314 297.959 79.1793C298.276 78.9358 298.695 78.4346 299.22 77.6735L299.634 77.9736C299.074 78.8411 298.5 79.5054 297.913 79.9641C297.321 80.418 296.774 80.6448 296.274 80.6448C295.926 80.6448 295.664 80.5551 295.49 80.3753C295.316 80.1957 295.229 79.9333 295.229 79.5905C295.229 79.184 295.321 78.6451 295.499 77.9736L295.75 77.0352C294.692 78.4653 293.718 79.463 292.829 80.0326C292.191 80.4392 291.563 80.6448 290.95 80.6448C290.358 80.6448 289.848 80.392 289.423 79.886C288.993 79.3825 288.781 78.6828 288.781 77.7988C288.781 76.4702 289.167 75.0661 289.935 73.591C290.71 72.1182 291.691 70.9363 292.879 70.0498C293.805 69.3478 294.683 68.9979 295.51 68.9979C296.004 68.9979 296.413 69.1302 296.74 69.3951C297.067 69.6646 297.316 70.1067 297.485 70.726L297.924 69.2982L299.849 68.9979ZM295.533 69.648C295.014 69.648 294.468 69.9009 293.885 70.402C293.062 71.1113 292.328 72.1655 291.684 73.5603C291.041 74.955 290.719 76.2197 290.719 77.3496C290.719 77.9169 290.859 78.366 291.133 78.697C291.405 79.0255 291.725 79.1887 292.079 79.1887C292.957 79.1887 293.917 78.5173 294.953 77.1723C296.336 75.3828 297.026 73.5485 297.026 71.6691C297.026 70.9576 296.893 70.4446 296.626 70.1231C296.361 69.8063 295.995 69.648 295.533 69.648ZM307.998 62.5137L303.852 77.4346C303.648 78.1794 303.55 78.6379 303.55 78.8035C303.55 78.9286 303.586 79.0303 303.664 79.1154C303.74 79.1981 303.836 79.2407 303.95 79.2407C304.103 79.2407 304.27 79.1721 304.448 79.0255C304.867 78.6828 305.308 78.1534 305.767 77.4346L306.133 77.8246C305.363 78.9452 304.659 79.723 304.009 80.1697C303.534 80.4864 303.081 80.6448 302.652 80.6448C302.345 80.6448 302.089 80.5361 301.881 80.3187C301.676 80.1012 301.57 79.853 301.57 79.5645C301.57 79.2667 301.703 78.6497 301.959 77.7113L305.246 65.9509C305.516 64.9864 305.648 64.4357 305.648 64.2937C305.648 64.0927 305.568 63.9298 305.415 63.7974C305.262 63.6697 305.022 63.6034 304.7 63.6034C304.515 63.6034 304.233 63.6342 303.852 63.6909V63.2276L307.998 62.5137Z" fill="#5C5E62"/>
<path fill-rule="evenodd" clip-rule="evenodd" d="M164.758 157.163C165.478 153.712 166.111 149.825 166.644 145.514H169.037L168.927 149.646L168.964 152.057C170.079 153.43 171.693 154.584 173.789 155.508C175.886 156.444 178.094 156.905 180.414 156.905C183.925 156.905 186.629 155.943 188.529 154.033C190.415 152.109 191.356 149.516 191.356 146.232C191.356 144.001 190.81 142.332 189.72 141.228C188.602 140.15 186.147 139.176 182.35 138.304C176.692 136.994 173.069 135.328 171.483 133.299C169.883 131.297 169.076 128.616 169.076 125.255C169.076 120.265 170.998 115.941 174.857 112.284C178.715 108.627 183.465 106.793 189.137 106.793C191.295 106.793 193.329 107.062 195.229 107.589C197.126 108.114 198.9 108.911 200.514 109.963C199.595 114.197 198.987 117.967 198.701 121.265H196.196L196.308 117.289L196.269 115.107C195.364 113.849 194.061 112.837 192.362 112.041C190.65 111.258 188.689 110.861 186.494 110.861C183.244 110.861 180.713 111.759 178.889 113.542C177.077 115.338 176.171 117.79 176.171 120.894C176.171 122.65 176.544 124.151 177.289 125.409C178.046 126.654 179.1 127.539 180.453 128.04C182.462 128.758 184.807 129.425 187.475 130.028C192.536 131.207 195.761 132.697 197.138 134.505C198.516 136.302 199.211 138.701 199.211 141.677C199.211 146.644 197.126 151.107 192.97 155.059C188.826 159.023 183.813 160.999 177.945 160.999C175.328 160.999 172.921 160.678 170.738 160.037C168.541 159.409 166.545 158.447 164.758 157.163ZM208.514 139.843C208.514 133.172 209.806 127.333 212.398 122.317C214.99 117.315 218.527 113.478 222.993 110.797C227.471 108.128 232.756 106.793 238.862 106.793C246.181 106.793 251.85 108.743 255.869 112.632C259.901 116.506 261.911 121.804 261.911 128.527C261.911 134.389 260.498 139.895 257.693 145.038C254.877 150.196 251.192 154.135 246.639 156.882C242.087 159.626 236.825 160.999 230.87 160.999C223.75 160.999 218.241 159.113 214.346 155.34C210.462 151.57 208.514 146.398 208.514 139.843ZM218.801 142.126C218.801 145.641 219.334 148.49 220.401 150.698C221.466 152.903 223.08 154.622 225.252 155.853C227.423 157.073 229.954 157.69 232.832 157.69C236.391 157.69 239.431 156.688 241.937 154.688C244.444 152.686 246.689 148.977 248.662 143.575C250.634 138.176 251.626 132.311 251.626 125.974C251.626 120.662 250.424 116.686 248.042 114.055C245.66 111.426 242.261 110.105 237.843 110.105C234.023 110.105 230.822 111.105 228.267 113.093C225.711 115.081 223.501 118.7 221.617 123.934C219.743 129.181 218.801 135.238 218.801 142.126ZM268.165 157.163C268.885 153.712 269.518 149.825 270.051 145.514H272.444L272.334 149.646L272.371 152.057C273.486 153.43 275.1 154.584 277.196 155.508C279.293 156.444 281.501 156.905 283.821 156.905C287.332 156.905 290.036 155.943 291.936 154.033C293.822 152.109 294.764 149.516 294.764 146.232C294.764 144.001 294.217 142.332 293.127 141.228C292.009 140.15 289.554 139.176 285.757 138.304C280.1 136.994 276.476 135.328 274.89 133.299C273.29 131.297 272.483 128.616 272.483 125.255C272.483 120.265 274.405 115.941 278.264 112.284C282.123 108.627 286.873 106.793 292.544 106.793C294.702 106.793 296.736 107.062 298.636 107.589C300.533 108.114 302.307 108.911 303.921 109.963C303.002 114.197 302.394 117.967 302.108 121.265H299.603L299.715 117.289L299.676 115.107C298.771 113.849 297.468 112.837 295.769 112.041C294.057 111.258 292.096 110.861 289.902 110.861C286.651 110.861 284.121 111.759 282.296 113.542C280.484 115.338 279.578 117.79 279.578 120.894C279.578 122.65 279.951 124.151 280.696 125.409C281.453 126.654 282.507 127.539 283.86 128.04C285.869 128.758 288.215 129.425 290.882 130.028C295.943 131.207 299.168 132.697 300.545 134.505C301.923 136.302 302.618 138.701 302.618 141.677C302.618 146.644 300.533 151.107 296.377 155.059C292.233 159.023 287.22 160.999 281.352 160.999C278.735 160.999 276.328 160.678 274.145 160.037C271.948 159.409 269.953 158.447 268.165 157.163Z" fill="#5C5E62"/>
</g>
<defs>
<clipPath id="clip0_779_40">
<rect width="256" height="102" fill="white" transform="translate(52 59)"/>
</clipPath>
</defs>
</svg>
