<svg width="360" height="221" viewBox="0 0 360 221" fill="none" xmlns="http://www.w3.org/2000/svg">
<rect width="360" height="221" fill="#D6D7D8"/>
<g clip-path="url(#clip0_779_31)">
<path opacity="0.977" fill-rule="evenodd" clip-rule="evenodd" d="M84.2441 65.8828C84.4588 65.8828 84.6734 65.8828 84.888 65.8828C88.2271 68.2827 90.3018 71.6398 91.1124 75.9539C86.8195 75.017 82.5268 75.017 78.2344 75.9539C78.8918 71.628 80.895 68.271 84.2441 65.8828Z" fill="#5C5E62"/>
<path opacity="0.988" fill-rule="evenodd" clip-rule="evenodd" d="M106.135 72.6754C110.118 72.4378 114.053 72.7891 117.94 73.7294C118.19 73.8465 118.369 74.0417 118.477 74.3149C121.027 87.2611 118.451 98.8154 110.75 108.978C110.174 109.646 109.566 110.27 108.925 110.852C108.412 108.485 107.554 106.299 106.35 104.294C108.841 99.1417 108.519 94.2233 105.384 89.5386C100.949 84.5552 95.8693 83.6184 90.1448 86.7281C88.3816 85.527 86.4858 84.6683 84.457 84.1518C90.4646 77.6343 97.6907 73.8088 106.135 72.6754Z" fill="#5C5E62"/>
<path opacity="0.992" fill-rule="evenodd" clip-rule="evenodd" d="M59.9895 76.8911C68.055 76.7274 74.9233 79.7331 80.5944 85.9082C79.9985 86.151 79.3903 86.3462 78.77 86.4937C72.138 83.3252 66.7721 84.9647 62.6724 91.4122C60.8494 95.4504 60.8136 99.5102 62.5651 103.591C62.2789 104.45 61.9927 105.309 61.7066 106.167C54.8295 98.168 52.5044 88.7995 54.7309 78.0622C55.1484 77.7429 55.6134 77.5477 56.1261 77.4766C57.451 77.3256 58.7388 77.1304 59.9895 76.8911Z" fill="#5C5E62"/>
<path opacity="0.99" fill-rule="evenodd" clip-rule="evenodd" d="M83.1707 90.4748C86.232 90.1038 88.7362 91.1969 90.6829 93.7538C96.8296 93.747 99.906 97.1039 99.9122 103.825C101.823 105.497 102.825 107.682 102.917 110.383C102.823 113.086 101.821 115.272 99.9122 116.941C99.8976 123.671 96.8212 127.028 90.6829 127.012C87.9051 130.374 84.6141 131.115 80.8097 129.237C79.819 128.702 79.0319 127.921 78.4488 126.895C73.6328 127.217 70.6636 124.836 69.5414 119.751C69.3721 118.91 69.4079 118.09 69.6488 117.292C66.1534 114.05 65.4739 110.185 67.6097 105.698C68.1463 104.801 68.8261 104.059 69.6488 103.473C69.1819 98.7178 71.0422 95.5949 75.2293 94.1051C76.3024 94.0271 77.3756 93.9488 78.4488 93.8709C79.714 92.2061 81.2882 91.0741 83.1707 90.4748ZM84.0293 104.527C88.5074 105.01 90.3318 107.665 89.5024 112.491C88.0111 115.718 85.686 116.772 82.5268 115.652C79.1304 113.358 78.4865 110.352 80.5951 106.635C81.5678 105.559 82.7127 104.856 84.0293 104.527Z" fill="#5C5E62"/>
<path opacity="0.979" fill-rule="evenodd" clip-rule="evenodd" d="M43.8945 110.852C43.8945 110.54 43.8945 110.228 43.8945 109.915C46.0044 106.446 48.9377 104.261 52.6945 103.357C52.8376 103.435 52.9807 103.514 53.1238 103.592C51.9791 108.12 51.9791 112.648 53.1238 117.176C52.8613 117.437 52.5751 117.476 52.2653 117.293C48.7267 116.278 45.9365 114.131 43.8945 110.852Z" fill="#5C5E62"/>
<path opacity="0.97" fill-rule="evenodd" clip-rule="evenodd" d="M116.223 103.357C120.25 104.242 123.326 106.584 125.452 110.384C123.331 114.175 120.255 116.517 116.223 117.41C116.578 115.085 116.793 112.743 116.867 110.384C116.773 108.027 116.558 105.685 116.223 103.357Z" fill="#5C5E62"/>
<path opacity="0.986" fill-rule="evenodd" clip-rule="evenodd" d="M59.9911 110.148C60.7181 112.398 61.7198 114.545 62.9959 116.589C60.2486 122.266 60.8209 127.497 64.713 132.281C69.0656 136.365 73.7875 136.95 78.8789 134.038C80.6798 135.294 82.6116 136.231 84.674 136.848C79.1718 142.929 72.5182 146.637 64.713 147.973C60.1673 148.591 55.66 148.357 51.1911 147.271C50.9015 147.09 50.7226 146.817 50.6545 146.451C48.1265 132.576 51.2387 120.475 59.9911 110.148Z" fill="#5C5E62"/>
<path opacity="0.984" fill-rule="evenodd" clip-rule="evenodd" d="M106.779 114.6C107.472 115.002 108.08 115.549 108.603 116.239C114.415 124.119 116.311 133.019 114.291 142.939C104.305 145.271 95.6484 142.617 88.3203 134.976C89.0344 134.742 89.75 134.508 90.4667 134.273C96.2534 137.144 101.297 136.051 105.598 130.994C108.527 126.393 108.778 121.631 106.35 116.708C106.699 116.057 106.843 115.355 106.779 114.6Z" fill="#5C5E62"/>
<path opacity="0.975" fill-rule="evenodd" clip-rule="evenodd" d="M84.888 154.884C84.6734 154.884 84.4588 154.884 84.2441 154.884C80.895 152.495 78.8918 149.138 78.2344 144.812C82.5268 145.749 86.8195 145.749 91.1124 144.812C90.2975 149.13 88.2226 152.487 84.888 154.884Z" fill="#5C5E62"/>
</g>
<path d="M156.032 81.58V83.326H150.578V94H148.58V83.326H143.126V81.58H156.032ZM163.229 81.58L168.917 94H166.739L165.101 90.31H159.107L157.505 94H155.381L161.069 81.58H163.229ZM164.453 88.78L162.131 83.434H162.095L159.773 88.78H164.453ZM180.219 82.57L179.517 84.19C178.923 83.866 177.627 83.092 175.629 83.092C173.631 83.092 172.497 83.578 172.497 84.568C172.497 85.756 173.451 86.08 176.259 86.764C179.085 87.448 180.705 88.564 180.705 90.562C180.705 92.92 178.761 94.216 175.359 94.216C172.515 94.216 171.021 93.334 170.265 92.848L170.949 91.12C171.525 91.498 173.037 92.434 175.323 92.434C177.483 92.434 178.671 91.984 178.671 90.778C178.671 89.716 177.789 89.122 174.981 88.42C172.173 87.718 170.535 86.872 170.535 84.73C170.535 82.588 172.551 81.364 175.593 81.364C178.185 81.364 179.499 82.156 180.219 82.57ZM195.639 81.58V94H193.659V88.51H185.487V94H183.507V81.58H185.487V86.764H193.659V81.58H195.639ZM201.223 81.58V86.8H203.113L208.495 81.58H211.195L204.895 87.61L211.609 94H208.747L203.167 88.528H201.223V94H199.243V81.58H201.223ZM223.305 81.58V83.326H215.781V86.782H222.585V88.474H215.781V92.218H223.485V94H213.801V81.58H223.305ZM238.487 81.58V94H236.471L228.389 84.586H228.353V94H226.373V81.58H228.389L236.471 90.994H236.507V81.58H238.487ZM253.615 81.58V83.326H248.161V94H246.163V83.326H240.709V81.58H253.615ZM146.51 103.58V116H144.512V103.58H146.51ZM162.391 103.58V116H160.375L152.293 106.586H152.257V116H150.277V103.58H152.293L160.375 112.994H160.411V103.58H162.391ZM177.519 103.58V105.326H172.065V116H170.067V105.326H164.613V103.58H177.519ZM189.249 103.58V105.326H181.725V108.782H188.529V110.474H181.725V114.218H189.429V116H179.745V103.58H189.249ZM203.603 116H201.101L197.825 111.536C197.717 111.536 197.591 111.536 197.465 111.536H194.297V116H192.317V103.58H197.465C201.335 103.58 203.135 104.912 203.135 107.504C203.135 109.376 202.055 110.69 199.967 111.248L203.603 116ZM201.101 107.576C201.101 106.064 199.985 105.326 197.393 105.326H194.297V109.862H197.267C199.895 109.862 201.101 109.034 201.101 107.576ZM218.427 103.58V116H216.411L208.329 106.586H208.293V116H206.313V103.58H208.329L216.411 112.994H216.447V103.58H218.427ZM228.619 103.58L234.307 116H232.129L230.491 112.31H224.497L222.895 116H220.771L226.459 103.58H228.619ZM229.843 110.78L227.521 105.434H227.485L225.163 110.78H229.843ZM246.566 103.58V105.326H241.112V116H239.114V105.326H233.66V103.58H246.566ZM250.952 103.58V116H248.954V103.58H250.952ZM268.184 109.79C268.184 113.768 265.394 116.216 261.092 116.216C256.808 116.216 254.018 113.768 254.018 109.79C254.018 105.812 256.808 103.364 261.11 103.364C265.394 103.364 268.184 105.812 268.184 109.79ZM266.15 109.772C266.15 106.91 264.116 105.146 261.11 105.146C258.086 105.146 256.052 106.91 256.052 109.772C256.052 112.634 258.086 114.38 261.11 114.38C264.116 114.38 266.15 112.634 266.15 109.772ZM283.202 103.58V116H281.186L273.104 106.586H273.068V116H271.088V103.58H273.104L281.186 112.994H281.222V103.58H283.202ZM293.395 103.58L299.083 116H296.905L295.267 112.31H289.273L287.671 116H285.547L291.235 103.58H293.395ZM294.619 110.78L292.297 105.434H292.261L289.939 110.78H294.619ZM303.415 103.58V114.218H311.137V116H301.435V103.58H303.415ZM153.476 126.57L152.774 128.19C152.18 127.866 150.884 127.092 148.886 127.092C146.888 127.092 145.754 127.578 145.754 128.568C145.754 129.756 146.708 130.08 149.516 130.764C152.342 131.448 153.962 132.564 153.962 134.562C153.962 136.92 152.018 138.216 148.616 138.216C145.772 138.216 144.278 137.334 143.522 136.848L144.206 135.12C144.782 135.498 146.294 136.434 148.58 136.434C150.74 136.434 151.928 135.984 151.928 134.778C151.928 133.716 151.046 133.122 148.238 132.42C145.43 131.718 143.792 130.872 143.792 128.73C143.792 126.588 145.808 125.364 148.85 125.364C151.442 125.364 152.756 126.156 153.476 126.57ZM156.062 131.79C156.062 127.47 159.5 125.364 163.388 125.364C166.232 125.364 167.348 126.174 168.158 126.696L167.402 128.334C166.736 127.884 165.71 127.146 163.424 127.146C160.436 127.146 158.096 128.64 158.096 131.736C158.096 134.94 160.166 136.38 163.172 136.38C165.62 136.38 166.97 135.57 167.456 135.246L168.104 136.866C167.546 137.28 165.926 138.216 163.028 138.216C158.996 138.216 156.062 136.308 156.062 131.79ZM182.979 125.58V138H180.999V132.51H172.827V138H170.847V125.58H172.827V130.764H180.999V125.58H182.979ZM200.047 131.79C200.047 135.768 197.257 138.216 192.955 138.216C188.671 138.216 185.881 135.768 185.881 131.79C185.881 127.812 188.671 125.364 192.973 125.364C197.257 125.364 200.047 127.812 200.047 131.79ZM198.013 131.772C198.013 128.91 195.979 127.146 192.973 127.146C189.949 127.146 187.915 128.91 187.915 131.772C187.915 134.634 189.949 136.38 192.973 136.38C195.979 136.38 198.013 134.634 198.013 131.772ZM216.521 131.79C216.521 135.768 213.731 138.216 209.429 138.216C205.145 138.216 202.355 135.768 202.355 131.79C202.355 127.812 205.145 125.364 209.447 125.364C213.731 125.364 216.521 127.812 216.521 131.79ZM214.487 131.772C214.487 128.91 212.453 127.146 209.447 127.146C206.423 127.146 204.389 128.91 204.389 131.772C204.389 134.634 206.423 136.38 209.447 136.38C212.453 136.38 214.487 134.634 214.487 131.772ZM221.406 125.58V136.218H229.128V138H219.426V125.58H221.406Z" fill="#5C5E62"/>
<defs>
<clipPath id="clip0_779_31">
<rect width="88" height="89" fill="white" transform="translate(44 66)"/>
</clipPath>
</defs>
</svg>
