<svg width="360" height="221" viewBox="0 0 360 221" fill="none" xmlns="http://www.w3.org/2000/svg">
<rect width="360" height="221" fill="#D6D7D8"/>
<g clip-path="url(#clip0_779_45)">
<path d="M238.071 81.2044L242.751 63.5581L247.622 81.2044M207.838 81.2044L212.519 63.5581L217.452 81.2044H207.838ZM242.435 121.834L277.854 145.194L262.295 108.333L294.996 81.2044H254.895L242.435 46.7285L230.924 81.2047H224.726L212.203 46.7285L200.628 81.2047H194.936L182.412 46.7285L171.027 80.6394L177.352 83.779L182.729 63.5581L189.496 87.7979H216.377L192.405 105.256L203.727 128.49L182.412 114.11V121.834L217.894 145.194L202.336 108.333L227.128 87.7979H246.167L222.196 105.256L233.517 128.49L212.202 114.11V121.834L247.684 145.194L232.063 108.333L256.856 87.7979H276.337L252.428 105.256L263.687 128.49L242.435 114.11V121.834H242.435Z" fill="#5C5E62"/>
<path d="M171.976 77.1848C166.157 74.7985 157.934 72.4121 148.131 72.4121C139.086 72.4121 128.65 74.4843 117.898 80.5133C105.817 87.1697 96.2668 89.4934 88.8667 89.4934C84.2498 89.4934 80.4545 88.6137 77.2923 87.2956C73.3076 85.7255 69.8287 83.2138 67.0459 80.0739C66.1602 79.0694 65.4014 78.0646 64.7058 76.9969C64.4528 76.6195 64.2632 76.3059 64.2001 76.1171C64.1367 75.9921 64.0736 75.9291 64.0736 75.9291V75.8662L63.8837 75.9918L61.4805 83.2762C62.6824 84.7204 64.0102 86.039 65.4017 87.295C68.1847 89.7438 71.4101 91.6909 74.889 93.1352C78.7474 94.705 83.4277 95.7098 88.867 95.7098C97.5953 95.7098 108.221 93.0722 120.997 85.9758C130.801 80.5127 140.035 78.7541 148.131 78.6914C156.859 78.6914 164.323 80.8266 169.636 82.9618C171.723 83.8415 173.747 84.846 175.708 85.9137C176.087 86.1017 176.404 86.2902 176.656 86.4788L178.364 80.1992C176.276 79.0691 174.189 78.0643 171.976 77.1848Z" fill="#5C5E62"/>
<path d="M64.0727 75.8672L63.8828 75.9928Z" fill="#5C5E62"/>
<path d="M63.8828 75.9926V75.9297L63.1875 76.3065L63.8828 75.9926Z" fill="white"/>
<path d="M166.725 98.4111C160.907 96.0245 152.684 93.6387 142.881 93.6387C133.836 93.6387 123.4 95.7109 112.648 101.676C100.567 108.396 91.0166 110.656 83.6167 110.656C78.9995 110.656 75.2045 109.777 72.0422 108.521C68.0576 106.889 64.5787 104.44 61.7959 101.237C60.9102 100.295 60.1514 99.2903 59.4558 98.2226C59.2028 97.8461 59.0129 97.5316 58.9498 97.3437C58.8864 97.2181 58.8233 97.1551 58.8233 97.1551L58.7599 97.0922L58.6337 97.1551L56.2305 104.44C57.4321 105.946 58.7599 107.266 60.1517 108.521C62.9978 110.971 66.1601 112.917 69.639 114.299C73.4974 115.931 78.1774 116.936 83.617 116.936C92.3453 116.936 102.971 114.299 115.747 107.14C125.551 101.739 134.785 99.9186 142.881 99.9186C151.609 99.9186 159.073 102.054 164.386 104.189C166.473 105.068 168.497 106.01 170.458 107.14C170.837 107.329 171.154 107.517 171.406 107.642L173.114 101.363C171.026 100.295 168.939 99.29 166.725 98.4111Z" fill="#5C5E62"/>
<path d="M58.6331 97.1543L57.9375 97.5308L58.6331 97.1543Z" fill="white"/>
<path d="M161.73 119.322C155.91 116.935 147.625 114.549 137.821 114.549C128.777 114.549 118.404 116.621 107.652 122.649C95.5712 129.306 86.0208 131.566 78.6206 131.566C73.94 131.566 70.145 130.75 66.9828 129.431C63.0615 127.861 59.5195 125.35 56.7365 122.21C55.9143 121.205 55.0919 120.2 54.3963 119.132C54.1433 118.756 54.0168 118.441 53.8906 118.254C53.8272 118.128 53.7641 118.065 53.7641 118.065V118.002L53.5745 118.065V118.128L51.2344 125.412C52.3726 126.857 53.7013 128.175 55.1556 129.431C57.9386 131.88 61.1012 133.827 64.5795 135.208C68.5008 136.841 73.1182 137.846 78.5575 137.846C87.2858 137.846 97.9116 135.208 110.751 128.113C120.491 122.649 129.725 120.828 137.821 120.828C146.549 120.828 154.076 122.963 159.326 125.099C161.413 125.978 163.437 126.92 165.461 128.05C165.777 128.238 166.094 128.427 166.347 128.552L168.055 122.335C165.967 121.205 163.879 120.2 161.73 119.322Z" fill="#5C5E62"/>
<path d="M53.5739 118.13V118.066L52.9414 118.443L53.5739 118.13Z" fill="white"/>
<path d="M60.7857 174.27H56.4215V161.271H52.8164V157.629H64.3908V161.271H60.7857V174.27Z" fill="#5C5E62"/>
<path d="M97.5312 164.85H97.9741C99.4287 164.85 101.01 164.599 101.01 162.777C101.01 160.957 99.4287 160.705 97.9741 160.705H97.5312M107.145 174.019H101.705L97.5946 167.613H97.5312V174.019H93.2305V157.377H99.7448C103.034 157.377 105.564 158.947 105.564 162.527C105.564 164.788 104.236 166.797 101.895 167.236L107.145 174.019Z" fill="#5C5E62"/>
<path d="M136.368 157.377H132.004V174.081H136.368V157.377Z" fill="#5C5E62"/>
<path d="M175.515 162.778C174.63 161.586 173.175 160.894 171.721 160.958C169.001 160.958 167.23 162.967 167.23 165.542C167.23 168.179 169.064 170.063 171.784 170.063C173.238 170.063 174.567 169.435 175.515 168.305V173.517C174.061 173.956 173.049 174.271 171.657 174.271C169.317 174.271 167.103 173.391 165.395 171.821C163.561 170.189 162.676 167.991 162.676 165.542C162.676 163.281 163.562 161.083 165.143 159.45C166.85 157.755 169.127 156.75 171.531 156.75C172.922 156.75 174.25 157.064 175.515 157.567" fill="#5C5E62"/>
<path d="M210.874 162.778H210.811L209.04 168.053H212.645M207.838 171.381L206.699 174.27H202.02L208.471 157.629H213.278L219.603 174.27H214.923L213.847 171.381H207.838Z" fill="#5C5E62"/>
<path d="M249.645 164.85H250.088C251.48 164.85 253.124 164.599 253.124 162.777C253.124 160.957 251.48 160.705 250.088 160.705H249.645M259.259 174.019H253.819L249.709 167.613H249.645V174.019H245.281V157.377H251.796C255.147 157.377 257.615 158.947 257.615 162.527C257.615 164.788 256.35 166.797 253.946 167.236L259.259 174.019Z" fill="#5C5E62"/>
<path d="M289.998 161.082V163.845H294.931V167.488H289.998V170.376H295.184V174.019H285.633V157.377H295.184V161.082H289.998Z" fill="#5C5E62"/>
<mask id="mask0_779_45" style="mask-type:luminance" maskUnits="userSpaceOnUse" x="298" y="157" width="10" height="9">
<path d="M307.768 157.189H298.977V165.919H307.768V157.189Z" fill="white"/>
</mask>
<g mask="url(#mask0_779_45)">
<path d="M302.331 161.208H303.217C303.659 161.208 303.975 161.146 304.102 161.02C304.355 160.832 304.418 160.455 304.228 160.204C304.164 160.078 304.038 159.952 303.912 159.952C303.722 159.89 303.469 159.827 303.217 159.827H302.331M301.571 163.783V159.262H303.152C303.595 159.2 303.975 159.262 304.354 159.387C304.607 159.451 304.797 159.576 304.924 159.827C305.049 160.016 305.113 160.204 305.113 160.455C305.113 160.769 304.987 161.083 304.797 161.334C304.544 161.586 304.164 161.712 303.785 161.775C303.975 161.837 304.101 161.899 304.228 162.025C304.482 162.277 304.671 162.59 304.86 162.905L305.429 163.784H304.544L304.101 163.092C303.786 162.528 303.532 162.15 303.343 162.025C303.153 161.899 302.963 161.837 302.773 161.837H302.331V163.783L301.571 163.783ZM303.468 157.88C302.836 157.88 302.267 158.069 301.698 158.382C301.128 158.634 300.686 159.136 300.37 159.701C299.738 160.769 299.738 162.087 300.37 163.218C300.686 163.783 301.128 164.223 301.698 164.536C302.773 165.164 304.164 165.164 305.24 164.536C305.809 164.223 306.252 163.783 306.568 163.218C307.2 162.15 307.2 160.769 306.568 159.701C306.252 159.136 305.809 158.697 305.24 158.382C304.671 158.069 304.101 157.943 303.468 157.943V157.88ZM303.468 157.189C304.228 157.189 304.924 157.378 305.556 157.755C306.252 158.132 306.821 158.634 307.2 159.325C307.896 160.644 307.896 162.213 307.2 163.532C306.821 164.223 306.252 164.789 305.619 165.102C304.291 165.855 302.647 165.855 301.319 165.102C300.686 164.789 300.116 164.223 299.738 163.532C298.978 162.214 298.978 160.644 299.738 159.325C300.116 158.634 300.686 158.132 301.382 157.755C302.014 157.378 302.71 157.189 303.468 157.189Z" fill="#5C5E62"/>
</g>
</g>
<defs>
<clipPath id="clip0_779_45">
<rect width="257" height="129" fill="white" transform="translate(51 46)"/>
</clipPath>
</defs>
</svg>
