<svg width="360" height="221" viewBox="0 0 360 221" fill="none" xmlns="http://www.w3.org/2000/svg">
<rect width="360" height="221" fill="#D6D7D8"/>
<g clip-path="url(#clip0_779_34)">
<path d="M135.848 138.275H129.355L120.266 116.908H127.315L131.211 126.548C131.767 127.993 132.324 129.761 132.88 131.367H133.066C133.437 129.921 133.993 128.315 134.55 126.869L138.445 117.069H145.309L135.848 138.275Z" fill="#5C5E62"/>
<path d="M159.78 128.796C153.102 128.796 151.618 130.403 151.618 132.17C151.618 133.616 152.731 134.419 154.586 134.419C157.74 134.419 159.78 131.849 159.78 129.278V128.796ZM160.337 138.275C160.337 136.99 160.337 135.704 160.522 134.58C159.409 136.99 156.256 138.757 152.545 138.757C148.093 138.757 145.496 136.508 145.496 133.134C145.496 127.993 151.432 125.262 159.78 125.262V124.137C159.78 121.888 158.482 120.763 154.957 120.763C152.731 120.763 149.763 121.406 147.722 122.37L147.166 117.711C149.577 116.908 152.916 116.426 156.07 116.426C164.047 116.426 166.273 119.157 166.273 123.816V132.813C166.273 134.58 166.273 136.508 166.458 138.275H160.337Z" fill="#5C5E62"/>
<path d="M185.382 138.275V124.619C185.382 122.37 184.64 121.085 182.413 121.085C179.26 121.085 176.663 124.298 176.663 127.993V138.275H170.355V116.908H176.292C176.292 117.872 176.106 119.639 175.921 120.763C177.405 118.193 180.373 116.426 184.269 116.426C189.834 116.426 191.689 119.478 191.689 123.334V138.436H185.382" fill="#5C5E62"/>
<path d="M235.839 121.888C231.201 121.084 228.975 123.655 228.975 129.599V138.275H222.668V116.907H228.604C228.604 118.032 228.419 119.638 228.233 121.245C229.346 118.514 231.758 116.104 236.024 116.425L235.839 121.888Z" fill="#5C5E62"/>
<path d="M248.08 120.442C245.482 120.442 243.627 122.048 243.256 124.779H252.346C252.532 122.048 250.862 120.442 248.08 120.442ZM258.468 128.474H243.071C243.071 132.491 245.297 134.419 249.935 134.419C252.346 134.419 254.943 133.937 257.169 133.133L257.726 137.471C255.129 138.435 251.975 138.917 248.822 138.917C241.03 138.917 236.578 135.543 236.578 127.992C236.578 121.406 240.845 116.586 248.265 116.586C255.5 116.586 258.653 120.924 258.653 126.225C258.653 126.707 258.653 127.511 258.468 128.474Z" fill="#5C5E62"/>
<path d="M206.527 134.419C205.043 134.419 204.116 134.258 203.188 134.097V127.992C203.188 124.458 205.229 121.084 208.568 121.084C211.536 121.084 212.834 123.173 212.834 127.189C212.649 132.33 210.052 134.419 206.527 134.419ZM210.237 116.425C206.713 116.425 203.93 117.871 202.817 120.281C203.003 119.156 203.188 117.389 203.188 116.104V102.77L196.695 106.786V137.632C199.478 138.274 202.261 138.596 205.971 138.596C214.504 138.596 219.327 133.615 219.327 126.386C219.327 120.12 216.174 116.425 210.237 116.425Z" fill="#5C5E62"/>
<path d="M276.836 127.189C276.836 130.884 274.796 134.258 271.457 134.258C268.489 134.258 267.19 132.17 267.19 128.153C267.19 122.851 269.787 120.924 273.497 120.924C274.61 120.924 275.723 121.084 276.836 121.245V127.189ZM276.836 116.747C275.723 116.586 274.796 116.586 273.683 116.586C265.52 116.586 260.512 121.566 260.512 128.796C260.512 134.901 263.48 138.917 269.602 138.917C273.312 138.917 276.094 137.311 277.393 134.901H277.578C277.393 136.025 277.207 137.471 277.207 138.435H283.144V102.77L276.836 106.786V116.747Z" fill="#5C5E62"/>
<path d="M300.581 128.796C293.903 128.796 292.419 130.403 292.419 132.17C292.419 133.616 293.532 134.419 295.387 134.419C298.54 134.419 300.581 131.849 300.581 129.278V128.796ZM301.137 138.275C301.137 136.99 301.137 135.704 301.323 134.58C300.21 136.99 297.056 138.757 293.346 138.757C288.894 138.757 286.297 136.508 286.297 133.134C286.297 127.993 292.233 125.262 300.581 125.262V124.137C300.581 121.888 299.282 120.763 295.758 120.763C293.532 120.763 290.564 121.406 288.523 122.37L287.966 117.711C290.378 116.908 293.717 116.426 296.871 116.426C304.848 116.426 307.074 119.157 307.074 123.816V132.813C307.074 134.58 307.074 136.508 307.259 138.275H301.137Z" fill="#5C5E62"/>
<path d="M106.91 126.066L52.7422 91.6859V80.2793L106.91 114.66V126.066Z" fill="#B2B2B2"/>
<path d="M161.078 72.4066L106.91 106.787V95.3803L161.078 61V72.4066Z" fill="#5C5E62"/>
<path d="M126.761 150.967C127.132 150.967 133.254 150.967 133.254 150.967C135.48 150.967 135.666 151.288 135.666 152.091V152.895C135.666 153.537 135.295 154.019 133.44 154.019C133.44 154.019 126.947 154.019 126.576 154.019C126.761 153.698 126.761 151.288 126.761 150.967ZM133.811 149.682H124.906V158.839H126.761C126.761 158.839 126.761 155.626 126.761 155.305C127.132 155.305 133.811 155.305 133.811 155.305C135.295 155.305 135.851 155.465 135.851 156.75V158.839H137.521V156.429C137.521 155.626 137.15 155.144 136.222 154.823C136.964 154.662 137.706 154.18 137.706 153.055V152.252C137.706 150.485 137.15 149.682 133.811 149.682Z" fill="#B2B2B2"/>
<path d="M142.527 149.682H140.672V158.839H142.527V149.682Z" fill="#B2B2B2"/>
<path d="M154.213 153.538H149.946C147.72 153.538 147.349 153.217 147.349 152.253C147.349 150.967 148.091 150.807 151.059 150.807H152.543C156.439 150.807 156.439 151.128 156.439 152.253V152.413H158.109V151.931C158.109 150.164 156.81 149.521 153.285 149.521H150.317C147.349 149.521 145.68 150.003 145.68 152.092C145.68 154.662 147.349 154.823 151.801 154.823H154.584C156.439 154.823 156.81 155.144 156.81 156.108C156.81 157.233 156.439 157.554 154.213 157.554H149.575C147.72 157.554 147.349 157.072 147.349 156.43V155.787H145.68V156.59C145.68 158.679 147.72 159 149.946 159H154.028C155.697 159 158.48 159 158.48 156.43V155.787C158.48 154.181 156.996 153.538 154.213 153.538Z" fill="#B2B2B2"/>
<path d="M302.805 153.538H298.538C296.312 153.538 295.941 153.217 295.941 152.253C295.941 150.967 296.683 150.807 299.651 150.807H301.135C305.031 150.807 305.031 151.128 305.031 152.253V152.413H306.7V151.931C306.7 150.164 305.402 149.521 301.877 149.521H298.724C295.756 149.521 294.086 150.003 294.086 152.092C294.086 154.662 295.756 154.823 300.208 154.823H302.99C304.845 154.823 305.216 155.144 305.216 156.108C305.216 157.233 304.845 157.554 302.619 157.554H297.982C296.127 157.554 295.755 157.072 295.755 156.43V155.787H294.086V156.59C294.086 158.679 296.127 159 298.353 159H302.434C304.103 159 306.886 159 306.886 156.43V155.787C306.886 154.181 305.587 153.538 302.805 153.538Z" fill="#B2B2B2"/>
<path d="M166.643 154.019C167.014 153.698 174.62 149.682 174.62 149.682H173.878H171.467C171.467 149.682 164.788 153.377 164.603 153.377C164.603 153.377 163.304 153.377 162.933 153.377C162.933 153.055 162.933 149.682 162.933 149.682H161.078V158.839H162.933C162.933 158.839 162.933 154.983 162.933 154.662C163.304 154.662 164.417 154.662 164.417 154.662L171.838 158.839H175.177L174.62 158.518C174.806 158.518 167.2 154.341 166.643 154.019Z" fill="#B2B2B2"/>
<path d="M181.67 155.466C181.67 154.181 182.968 154.02 183.339 154.02H183.71C183.71 154.02 190.759 157.072 191.13 157.233C190.945 157.394 190.203 157.554 189.09 157.554H184.081C181.855 157.554 181.855 156.912 181.855 156.108V155.466M193.357 156.108V154.181H191.687C191.687 154.181 191.687 155.626 191.687 156.108C191.13 155.787 183.525 152.574 183.525 152.574C183.154 152.413 183.154 152.253 183.154 151.61C183.154 151.128 183.154 150.807 184.452 150.807H189.275C190.203 150.807 190.574 151.128 190.574 151.771V152.574H192.243V151.61C192.243 150.164 191.316 149.521 189.275 149.521H183.896C182.226 149.521 181.299 150.164 181.299 151.449C181.299 152.574 181.484 152.895 182.226 153.217C180.371 153.377 180 154.341 180 155.787C180 158.036 181.113 158.84 184.081 158.84H189.275C190.759 158.84 192.058 158.679 192.986 157.876C193.171 158.036 195.026 158.679 195.026 158.679L195.768 157.554C195.768 157.554 193.728 156.751 193.542 156.59C193.357 156.59 193.357 156.108 193.357 156.108Z" fill="#B2B2B2"/>
<path d="M203.744 154.823C204.115 154.823 211.164 154.823 211.164 154.823C212.463 154.823 213.019 154.984 213.019 155.948V156.59C213.019 157.072 212.834 157.554 211.35 157.554C211.35 157.554 204.115 157.554 203.744 157.554C203.744 157.233 203.744 154.984 203.744 154.823ZM212.463 152.574C212.463 152.735 212.463 153.538 210.978 153.538C210.978 153.538 203.929 153.538 203.558 153.538C203.558 153.217 203.558 151.289 203.558 150.967C203.929 150.967 210.978 150.967 210.978 150.967C211.164 150.967 212.277 150.967 212.277 151.771V152.574H212.463ZM213.205 153.859C213.947 153.538 214.318 153.056 214.318 152.413V151.61C214.318 150.807 213.947 149.521 211.164 149.521H201.703V158.679H211.535C213.576 158.679 214.874 157.876 214.874 156.59V155.787C214.689 154.662 214.318 154.181 213.205 153.859Z" fill="#B2B2B2"/>
<path d="M219.513 154.823C219.884 154.823 228.418 154.823 228.418 154.823V153.537C228.418 153.537 219.884 153.537 219.513 153.537C219.513 153.216 219.513 151.288 219.513 150.967C219.884 150.967 228.789 150.967 228.789 150.967V149.682H217.844V158.839H228.974V157.554C228.974 157.554 220.07 157.554 219.699 157.554C219.513 157.232 219.513 154.983 219.513 154.823Z" fill="#B2B2B2"/>
<path d="M243.445 149.682C243.445 149.682 243.445 156.59 243.445 157.232C242.888 156.75 233.798 149.682 233.798 149.682H231.387V158.839H233.242C233.242 158.839 233.242 151.931 233.242 151.288C233.798 151.77 242.888 158.839 242.888 158.839H245.3V149.682H243.445Z" fill="#B2B2B2"/>
<path d="M250.306 154.823C250.677 154.823 259.211 154.823 259.211 154.823V153.537C259.211 153.537 250.677 153.537 250.306 153.537C250.306 153.216 250.306 151.288 250.306 150.967C250.677 150.967 259.582 150.967 259.582 150.967V149.682H248.637V158.839H259.767V157.554C259.767 157.554 250.863 157.554 250.492 157.554C250.306 157.232 250.306 154.983 250.306 154.823Z" fill="#B2B2B2"/>
<path d="M262.18 149.682V158.839H264.035C264.035 158.839 264.035 154.983 264.035 154.823C264.406 154.823 272.568 154.823 272.568 154.823V153.537C272.568 153.537 264.406 153.537 264.035 153.537C264.035 153.216 264.035 151.288 264.035 150.967C264.406 150.967 272.939 150.967 272.939 150.967V149.682H262.18Z" fill="#B2B2B2"/>
<path d="M277.39 149.682H275.535V158.839H277.39V149.682Z" fill="#B2B2B2"/>
<path d="M292.232 149.682H279.617V150.967C279.617 150.967 284.811 150.967 285.182 150.967C285.182 151.288 285.182 158.839 285.182 158.839H287.037C287.037 158.839 287.037 151.288 287.037 150.967C287.408 150.967 292.603 150.967 292.603 150.967L292.232 149.682Z" fill="#B2B2B2"/>
</g>
<defs>
<clipPath id="clip0_779_34">
<rect width="256" height="98" fill="white" transform="translate(52 61)"/>
</clipPath>
</defs>
</svg>
