<svg width="1920" height="1080" viewBox="0 0 1920 1080" fill="none" xmlns="http://www.w3.org/2000/svg">
<rect width="1920" height="1080" fill="#BDE2FB"/>
<path d="M986.53 483.36V437.44H968.42V426.77H1017.73V437.44H999.62V483.36H986.52H986.53Z" fill="#02467E"/>
<path d="M1014.5 483.36L1039.72 426.77H1052.65L1077.95 483.36H1064.21L1043.52 433.4H1048.69L1027.91 483.36H1014.49H1014.5ZM1027.11 471.23L1030.59 461.29H1059.69L1063.25 471.23H1027.12H1027.11Z" fill="#02467E"/>
<path d="M1102.45 484.33C1097.92 484.33 1093.58 483.72 1089.44 482.51C1085.29 481.3 1081.95 479.72 1079.42 477.78L1083.87 467.92C1086.3 469.64 1089.16 471.06 1092.48 472.16C1095.79 473.27 1099.15 473.82 1102.54 473.82C1105.13 473.82 1107.21 473.57 1108.8 473.05C1110.39 472.54 1111.56 471.82 1112.32 470.91C1113.07 469.99 1113.45 468.94 1113.45 467.76C1113.45 466.25 1112.86 465.05 1111.67 464.16C1110.48 463.27 1108.92 462.54 1106.98 461.98C1105.04 461.41 1102.9 460.88 1100.55 460.36C1098.21 459.85 1095.86 459.22 1093.52 458.46C1091.18 457.71 1089.03 456.74 1087.09 455.55C1085.15 454.37 1083.57 452.8 1082.36 450.86C1081.15 448.92 1080.54 446.44 1080.54 443.42C1080.54 440.19 1081.42 437.24 1083.17 434.57C1084.92 431.9 1087.56 429.77 1091.09 428.18C1094.62 426.59 1099.05 425.8 1104.39 425.8C1107.95 425.8 1111.45 426.22 1114.9 427.05C1118.35 427.89 1121.39 429.14 1124.03 430.81L1119.99 440.75C1117.35 439.24 1114.71 438.12 1112.07 437.39C1109.43 436.66 1106.84 436.3 1104.31 436.3C1101.78 436.3 1099.7 436.6 1098.09 437.19C1096.47 437.78 1095.31 438.55 1094.61 439.49C1093.91 440.43 1093.56 441.52 1093.56 442.76C1093.56 444.22 1094.15 445.39 1095.34 446.28C1096.52 447.17 1098.09 447.88 1100.03 448.42C1101.97 448.96 1104.11 449.5 1106.46 450.04C1108.8 450.58 1111.15 451.2 1113.49 451.9C1115.83 452.6 1117.98 453.54 1119.92 454.73C1121.86 455.92 1123.44 457.48 1124.65 459.42C1125.86 461.36 1126.47 463.81 1126.47 466.78C1126.47 469.96 1125.58 472.87 1123.8 475.51C1122.02 478.15 1119.37 480.28 1115.84 481.9C1112.31 483.52 1107.85 484.32 1102.46 484.32L1102.45 484.33Z" fill="#02467E"/>
<path d="M1148.53 483.36H1135.43V426.77H1148.53V483.36ZM1175.21 460.16H1147.56V449.09H1175.21V460.16ZM1174.24 426.77H1187.34V483.36H1174.24V426.77Z" fill="#02467E"/>
<path d="M1200.75 483.36V426.77H1213.77V483.36H1200.75ZM1212.47 470.43L1211.74 455.31L1238.82 426.77H1253.37L1228.96 453.04L1221.68 460.8L1212.46 470.42L1212.47 470.43ZM1239.47 483.36L1219.34 458.7L1227.91 449.4L1254.75 483.35H1239.47V483.36Z" fill="#02467E"/>
<path d="M1273.58 472.85H1304.38V483.36H1260.57V426.77H1303.33V437.28H1273.58V472.85ZM1272.61 449.57H1299.85V459.76H1272.61V449.57Z" fill="#02467E"/>
<path d="M1314.81 483.36V426.77H1325.64L1359.02 467.51H1353.77V426.77H1366.7V483.36H1355.95L1322.48 442.62H1327.73V483.36H1314.8H1314.81Z" fill="#02467E"/>
<path d="M1391.84 483.36V437.44H1373.73V426.77H1423.04V437.44H1404.93V483.36H1391.83H1391.84Z" fill="#02467E"/>
<path d="M974.81 580.36V523.77H987.91V580.36H974.81Z" fill="#02467E"/>
<path d="M1001.32 580.36V523.77H1012.15L1045.53 564.51H1040.28V523.77H1053.21V580.36H1042.46L1008.99 539.62H1014.24V580.36H1001.31H1001.32Z" fill="#02467E"/>
<path d="M1078.36 580.36V534.44H1060.25V523.77H1109.56V534.44H1091.45V580.36H1078.35H1078.36Z" fill="#02467E"/>
<path d="M1129.61 569.85H1160.41V580.36H1116.6V523.77H1159.36V534.28H1129.61V569.85ZM1128.64 546.57H1155.88V556.76H1128.64V546.57Z" fill="#02467E"/>
<path d="M1170.84 580.36V523.77H1195.33C1200.39 523.77 1204.76 524.59 1208.43 526.24C1212.09 527.88 1214.92 530.24 1216.92 533.31C1218.91 536.38 1219.91 540.05 1219.91 544.3C1219.91 548.55 1218.91 552.13 1216.92 555.17C1214.93 558.21 1212.1 560.55 1208.43 562.16C1204.76 563.78 1200.4 564.59 1195.33 564.59H1178.11L1183.93 558.85V580.35H1170.83L1170.84 580.36ZM1183.94 560.31L1178.12 554.17H1194.61C1198.65 554.17 1201.67 553.29 1203.66 551.54C1205.65 549.79 1206.65 547.38 1206.65 544.31C1206.65 541.24 1205.65 538.76 1203.66 537.03C1201.67 535.31 1198.65 534.44 1194.61 534.44H1178.12L1183.94 528.22V560.31ZM1206.82 580.36L1192.67 559.83H1206.66L1220.97 580.36H1206.82Z" fill="#02467E"/>
<path d="M1230.25 580.36V523.77H1241.08L1274.46 564.51H1269.21V523.77H1282.14V580.36H1271.39L1237.92 539.62H1243.17V580.36H1230.24H1230.25Z" fill="#02467E"/>
<path d="M1288.13 580.36L1313.35 523.77H1326.28L1351.58 580.36H1337.84L1317.15 530.4H1322.32L1301.54 580.36H1288.12H1288.13ZM1300.74 568.23L1304.22 558.29H1333.32L1336.88 568.23H1300.75H1300.74Z" fill="#02467E"/>
<path d="M1366.38 580.36V534.44H1348.27V523.77H1397.58V534.44H1379.47V580.36H1366.37H1366.38Z" fill="#02467E"/>
<path d="M1404.61 580.36V523.77H1417.71V580.36H1404.61Z" fill="#02467E"/>
<path d="M1458.61 581.33C1454.14 581.33 1450 580.6 1446.2 579.15C1442.4 577.69 1439.11 575.65 1436.34 573.01C1433.56 570.37 1431.41 567.27 1429.87 563.71C1428.33 560.15 1427.57 556.27 1427.57 552.07C1427.57 547.87 1428.34 543.99 1429.87 540.43C1431.41 536.87 1433.58 533.77 1436.38 531.13C1439.18 528.49 1442.47 526.44 1446.24 524.99C1450.01 523.53 1454.11 522.81 1458.53 522.81C1462.95 522.81 1467.11 523.54 1470.86 524.99C1474.61 526.45 1477.86 528.49 1480.64 531.13C1483.42 533.77 1485.58 536.86 1487.15 540.39C1488.71 543.92 1489.49 547.81 1489.49 552.07C1489.49 556.33 1488.71 560.17 1487.15 563.75C1485.59 567.33 1483.42 570.43 1480.64 573.05C1477.86 575.66 1474.6 577.7 1470.86 579.15C1467.11 580.61 1463.03 581.33 1458.61 581.33ZM1458.53 570.17C1461.06 570.17 1463.39 569.74 1465.52 568.88C1467.65 568.02 1469.52 566.78 1471.14 565.16C1472.76 563.54 1474.01 561.63 1474.9 559.42C1475.79 557.21 1476.23 554.76 1476.23 552.06C1476.23 549.36 1475.79 546.91 1474.9 544.7C1474.01 542.49 1472.77 540.58 1471.18 538.96C1469.59 537.34 1467.72 536.1 1465.56 535.24C1463.4 534.38 1461.06 533.95 1458.53 533.95C1456 533.95 1453.67 534.38 1451.54 535.24C1449.41 536.1 1447.54 537.34 1445.92 538.96C1444.3 540.58 1443.05 542.49 1442.16 544.7C1441.27 546.91 1440.83 549.36 1440.83 552.06C1440.83 554.76 1441.27 557.14 1442.16 559.38C1443.05 561.62 1444.29 563.54 1445.88 565.16C1447.47 566.78 1449.34 568.02 1451.5 568.88C1453.66 569.74 1456 570.17 1458.53 570.17Z" fill="#02467E"/>
<path d="M1499.35 580.36V523.77H1510.18L1543.56 564.51H1538.31V523.77H1551.24V580.36H1540.49L1507.02 539.62H1512.27V580.36H1499.34H1499.35Z" fill="#02467E"/>
<path d="M1557.23 580.36L1582.45 523.77H1595.38L1620.68 580.36H1606.94L1586.25 530.4H1591.42L1570.64 580.36H1557.22H1557.23ZM1569.84 568.23L1573.32 558.29H1602.42L1605.98 568.23H1569.85H1569.84Z" fill="#02467E"/>
<path d="M1626.59 580.36V523.77H1639.69V569.69H1668.06V580.36H1626.59Z" fill="#02467E"/>
<path d="M1001.89 678.33C997.52 678.33 993.47 677.62 989.72 676.19C985.97 674.76 982.73 672.73 979.98 670.09C977.23 667.45 975.09 664.35 973.55 660.79C972.01 657.23 971.25 653.33 971.25 649.07C971.25 644.81 972.02 640.91 973.55 637.35C975.09 633.79 977.24 630.7 980.02 628.05C982.79 625.41 986.04 623.38 989.76 621.95C993.48 620.52 997.55 619.81 1001.97 619.81C1006.87 619.81 1011.31 620.66 1015.27 622.36C1019.23 624.06 1022.56 626.55 1025.25 629.84L1016.84 637.6C1014.9 635.39 1012.74 633.73 1010.37 632.63C1008 631.53 1005.41 630.97 1002.61 630.97C999.97 630.97 997.54 631.4 995.33 632.26C993.12 633.12 991.21 634.36 989.59 635.98C987.97 637.6 986.72 639.51 985.83 641.72C984.94 643.93 984.5 646.38 984.5 649.08C984.5 651.78 984.94 654.23 985.83 656.44C986.72 658.65 987.97 660.56 989.59 662.18C991.21 663.8 993.12 665.04 995.33 665.9C997.54 666.76 999.96 667.19 1002.61 667.19C1005.41 667.19 1008 666.64 1010.37 665.53C1012.74 664.43 1014.9 662.74 1016.84 660.48L1025.25 668.24C1022.55 671.53 1019.23 674.03 1015.27 675.76C1011.31 677.48 1006.85 678.35 1001.89 678.35V678.33Z" fill="#7EC3EA"/>
<path d="M1034.06 677.369V620.779H1047.16V666.699H1075.53V677.369H1034.06Z" fill="#7EC3EA"/>
<path d="M1082.89 677.369V620.779H1095.99V677.369H1082.89Z" fill="#7EC3EA"/>
<path d="M1109.4 677.369V620.779H1120.23L1153.61 661.519H1148.36V620.779H1161.29V677.369H1150.54L1117.07 636.629H1122.32V677.369H1109.39H1109.4Z" fill="#7EC3EA"/>
<path d="M1174.72 677.369V620.779H1187.82V677.369H1174.72Z" fill="#7EC3EA"/>
<path d="M1228.31 678.33C1223.94 678.33 1219.89 677.62 1216.14 676.19C1212.39 674.76 1209.15 672.73 1206.4 670.09C1203.65 667.45 1201.51 664.35 1199.97 660.79C1198.43 657.23 1197.67 653.33 1197.67 649.07C1197.67 644.81 1198.44 640.91 1199.97 637.35C1201.51 633.79 1203.66 630.7 1206.44 628.05C1209.21 625.41 1212.46 623.38 1216.18 621.95C1219.9 620.52 1223.97 619.81 1228.39 619.81C1233.29 619.81 1237.73 620.66 1241.69 622.36C1245.65 624.06 1248.98 626.55 1251.67 629.84L1243.26 637.6C1241.32 635.39 1239.16 633.73 1236.79 632.63C1234.42 631.53 1231.83 630.97 1229.03 630.97C1226.39 630.97 1223.96 631.4 1221.75 632.26C1219.54 633.12 1217.63 634.36 1216.01 635.98C1214.39 637.6 1213.14 639.51 1212.25 641.72C1211.36 643.93 1210.92 646.38 1210.92 649.08C1210.92 651.78 1211.36 654.23 1212.25 656.44C1213.14 658.65 1214.39 660.56 1216.01 662.18C1217.63 663.8 1219.54 665.04 1221.75 665.9C1223.96 666.76 1226.38 667.19 1229.03 667.19C1231.83 667.19 1234.42 666.64 1236.79 665.53C1239.16 664.43 1241.32 662.74 1243.26 660.48L1251.67 668.24C1248.97 671.53 1245.65 674.03 1241.69 675.76C1237.73 677.48 1233.27 678.35 1228.31 678.35V678.33Z" fill="#7EC3EA"/>
<path opacity="0.58" d="M647.55 554.3C647.55 476.15 707.56 420.21 788.3 420.21C833.12 420.21 870.53 436.51 894.98 466.14L856.46 501.7C839.05 481.7 817.2 471.33 791.27 471.33C742.75 471.33 708.3 505.41 708.3 554.3C708.3 603.19 742.75 637.27 791.27 637.27C817.2 637.27 839.05 626.9 856.46 606.53L894.98 642.09C870.53 672.09 833.12 688.39 787.93 688.39C707.55 688.39 647.55 632.46 647.55 554.3Z" fill="url(#paint0_linear_1245_593)"/>
<path opacity="0.58" d="M336.54 476.45H251V426.04H483.95V476.45H398.41V693.36H336.54V476.45Z" fill="url(#paint1_linear_1245_593)"/>
<path d="M623.97 499.74C628.1 490.19 635.36 489.16 638.29 489.16C639.29 489.16 640.44 489.26 641.68 489.57C635.97 483.3 629.17 479.66 621.87 479.66C615.41 479.66 609.35 482.51 604.07 487.53C605.98 490.21 607.81 493.05 609.57 496.05C612.81 501.61 615.71 507.59 618.23 513.92C619.08 516.02 619.87 518.16 620.63 520.34C620.36 517.75 620.35 515.18 620.59 512.63C620.99 508.3 622.11 504.01 623.96 499.74H623.97Z" fill="url(#paint2_linear_1245_593)"/>
<path d="M628.27 612.8C630.1 611.45 631.78 609.97 633.26 608.42C640.06 601.28 645.95 592.97 651.29 582.92L650.71 581.61L648.93 577.61C648.22 576.02 647.6 574.49 647 573.02C645.85 570.22 644.86 567.8 643.68 565.82C641.1 561.5 638.34 557.32 635.42 552.89C633.4 549.84 631.32 546.68 629.3 543.48C627.76 541.03 626.42 538.61 625.29 536.21C628.76 550.64 630.58 566.19 630.58 582.16C630.58 589.62 630.18 597 629.4 604.2C629.09 607.09 628.72 609.97 628.29 612.81L628.27 612.8Z" fill="url(#paint3_linear_1245_593)"/>
<path d="M621.87 471.39C633.551 471.39 643.02 461.921 643.02 450.24C643.02 438.559 633.551 429.09 621.87 429.09C610.189 429.09 600.72 438.559 600.72 450.24C600.72 461.921 610.189 471.39 621.87 471.39Z" fill="url(#paint4_linear_1245_593)"/>
<path d="M489.75 509.64C491.83 504.88 494.13 500.33 496.63 496.04C498.38 493.04 500.21 490.2 502.13 487.52C496.86 482.51 490.79 479.65 484.33 479.65C477.04 479.65 470.24 483.29 464.52 489.56C465.76 489.25 466.91 489.14 467.91 489.14C470.84 489.14 478.1 490.17 482.23 499.72C483.33 502.28 484.18 504.83 484.76 507.41C485.74 511.67 486.01 515.96 485.56 520.32C486.83 516.65 488.23 513.08 489.74 509.62L489.75 509.64Z" fill="url(#paint5_linear_1245_593)"/>
<path d="M476.92 543.47C474.9 546.67 472.82 549.83 470.81 552.88C467.89 557.3 465.12 561.49 462.54 565.81C461.35 567.79 460.37 570.21 459.22 573.01C458.62 574.48 458 576.01 457.29 577.6L455.51 581.6L454.93 582.91C460.27 592.96 466.17 601.28 472.96 608.42C474.44 609.97 476.12 611.45 477.95 612.8C477.51 609.96 477.14 607.09 476.84 604.19C476.06 596.99 475.66 589.61 475.66 582.15C475.66 566.17 477.48 550.63 480.95 536.2C479.82 538.6 478.48 541.02 476.94 543.47H476.92Z" fill="url(#paint6_linear_1245_593)"/>
<path opacity="0.58" d="M570.9 601.25C575.04 592.23 579.33 582.9 585.83 574.3C586.78 573.04 587.81 571.75 588.93 570.49C590.45 568.78 592.14 567.11 594.08 565.61C596.49 563.74 599.29 562.14 602.58 561.05C604.63 560.37 606.71 560.03 608.76 560.03C612.55 560.03 616 561.18 618.81 563.21C617.34 548.12 614.13 534.03 609.56 521.57C606.1 512.13 601.85 503.62 596.97 496.31C585.25 478.74 569.9 468.1 553.11 468.1C536.32 468.1 520.96 478.75 509.24 496.31C505.17 502.41 501.54 509.34 498.44 516.96C492.91 530.52 489.06 546.23 487.41 563.21C490.22 561.18 493.68 560.03 497.46 560.03C499.51 560.03 501.59 560.37 503.64 561.05C508.21 562.55 511.8 565.04 514.77 567.86C515.67 568.71 516.51 569.59 517.29 570.48C518.41 571.75 519.44 573.04 520.39 574.29C526.9 582.89 531.18 592.22 535.32 601.24C536.02 602.77 536.73 604.3 537.44 605.83C543.08 617.89 545.82 630.5 545.82 644.37C545.82 655.52 544 667.67 540.23 681.5C539.21 685.23 538.08 688.99 536.84 692.77C542.05 695 547.5 696.19 553.11 696.19C558.72 696.19 564.17 695 569.38 692.77C568.13 688.98 567 685.23 565.99 681.5C562.22 667.66 560.39 655.52 560.4 644.37C560.4 630.5 563.15 617.88 568.79 605.83C569.5 604.3 570.2 602.77 570.91 601.24L570.9 601.25Z" fill="url(#paint7_linear_1245_593)"/>
<path opacity="0.58" d="M553.11 453.66C574.28 453.66 591.44 436.5 591.44 415.33C591.44 394.16 574.28 377 553.11 377C531.94 377 514.78 394.16 514.78 415.33C514.78 436.5 531.94 453.66 553.11 453.66Z" fill="url(#paint8_linear_1245_593)"/>
<path d="M642.25 502.33C642.18 502.25 642.12 502.18 642.05 502.11C641.98 502.03 641.9 501.95 641.83 501.87C641.75 501.79 641.68 501.72 641.61 501.65C641.56 501.6 641.51 501.55 641.46 501.51C641.39 501.44 641.33 501.38 641.26 501.33C640.8 500.92 640.33 500.61 639.88 500.4C639.82 500.37 639.75 500.34 639.69 500.31C639.62 500.28 639.56 500.26 639.5 500.23C639.39 500.19 639.28 500.15 639.17 500.13C639.06 500.1 638.96 500.08 638.85 500.06C638.81 500.05 638.78 500.04 638.75 500.04C638.75 500.04 638.74 500.04 638.73 500.04C638.67 500.04 638.61 500.03 638.56 500.02C638.48 500.01 638.39 500 638.31 500C638.2 500 638.1 500 637.99 500.02C637.78 500.04 637.57 500.08 637.37 500.15C637.36 500.15 637.34 500.16 637.33 500.16C637.24 500.19 637.16 500.23 637.07 500.26C636.97 500.3 636.87 500.35 636.78 500.4C636.69 500.45 636.61 500.5 636.52 500.55C636.42 500.62 636.31 500.7 636.2 500.78C636.11 500.86 636.01 500.93 635.92 501.02C635.83 501.1 635.73 501.19 635.65 501.29C635.56 501.39 635.47 501.49 635.38 501.59C635.21 501.8 635.03 502.03 634.87 502.28C634.79 502.41 634.71 502.54 634.63 502.67C634.58 502.76 634.53 502.85 634.48 502.94C634.43 503.02 634.39 503.11 634.34 503.2C634.2 503.46 634.07 503.74 633.95 504.03C633.03 506.16 632.37 508.26 631.94 510.32C631.78 511.06 631.66 511.81 631.56 512.54C631.56 512.57 631.55 512.61 631.55 512.64C631.48 513.12 631.44 513.58 631.4 514.05C631.38 514.25 631.37 514.45 631.36 514.66C631.35 514.82 631.34 514.99 631.34 515.16C631.33 515.33 631.32 515.51 631.32 515.68C631.31 516.07 631.32 516.47 631.32 516.86C631.32 517.05 631.33 517.24 631.34 517.43C631.35 517.71 631.37 517.99 631.38 518.28C631.41 518.84 631.47 519.41 631.54 519.97L631.65 520.81C631.69 521.09 631.74 521.37 631.79 521.64C631.84 521.92 631.89 522.2 631.95 522.48C632.03 522.85 632.11 523.21 632.2 523.58C632.24 523.76 632.29 523.95 632.34 524.13C632.39 524.32 632.44 524.5 632.49 524.68C632.72 525.54 632.99 526.39 633.29 527.24C633.45 527.69 633.62 528.13 633.79 528.57C633.88 528.79 633.96 529.01 634.06 529.23C634.29 529.78 634.52 530.33 634.78 530.88C635.03 531.43 635.29 531.97 635.57 532.52C635.68 532.74 635.79 532.96 635.9 533.17C636.12 533.61 636.36 534.04 636.59 534.48C637.19 535.56 637.83 536.64 638.5 537.71C643.26 545.27 648.42 552.59 653.01 560.26C653.1 560.42 653.2 560.58 653.29 560.74C653.38 560.89 653.47 561.05 653.55 561.2C653.72 561.52 653.89 561.84 654.06 562.16C654.22 562.47 654.38 562.78 654.53 563.1C654.61 563.25 654.68 563.4 654.75 563.55C655 564.07 655.24 564.6 655.48 565.14C655.61 565.44 655.74 565.74 655.87 566.04C655.91 566.12 655.94 566.2 655.97 566.27C656.15 566.7 656.33 567.12 656.5 567.54C656.69 568.02 656.89 568.49 657.08 568.97C657.22 569.3 657.35 569.64 657.49 569.98C657.93 571.05 658.38 572.13 658.87 573.22C659.64 571.69 660.36 570.18 661.01 568.7C661.23 568.21 661.44 567.72 661.65 567.23C661.79 566.91 661.92 566.59 662.05 566.26C662.18 565.93 662.31 565.62 662.44 565.29C662.52 565.09 662.6 564.9 662.67 564.7C662.82 564.32 662.96 563.94 663.1 563.56C663.24 563.18 663.37 562.81 663.5 562.43C663.58 562.22 663.65 562 663.72 561.79C663.79 561.59 663.85 561.4 663.91 561.21C664.02 560.88 664.12 560.55 664.22 560.23C664.35 559.83 664.47 559.42 664.59 559.02C664.71 558.61 664.82 558.21 664.92 557.81C664.97 557.62 665.02 557.44 665.07 557.25C665.3 556.32 665.51 555.4 665.69 554.49C665.69 554.49 665.69 554.487 665.69 554.48C665.74 554.23 665.79 553.98 665.83 553.74C665.92 553.28 665.99 552.81 666.06 552.35C666.17 551.64 666.26 550.94 666.33 550.24C666.44 549.15 666.52 548.07 666.54 547.01C666.54 546.71 666.55 546.41 666.55 546.11C666.55 545.59 666.54 545.07 666.52 544.55C666.51 544.29 666.5 544.04 666.48 543.79C666.46 543.53 666.45 543.28 666.43 543.03C666.42 542.86 666.4 542.69 666.38 542.52C666.36 542.3 666.34 542.07 666.31 541.84C666.29 541.62 666.26 541.39 666.23 541.17C666.17 540.72 666.1 540.27 666.02 539.83C666 539.71 665.98 539.59 665.95 539.47C665.93 539.32 665.9 539.18 665.87 539.03C665.83 538.84 665.79 538.64 665.75 538.45C665.72 538.32 665.7 538.18 665.66 538.05C665.61 537.81 665.55 537.57 665.49 537.32C665.42 537.06 665.36 536.8 665.29 536.54C665.15 536.02 665 535.5 664.83 534.98C664.73 534.66 664.62 534.33 664.5 534.01C664.37 533.62 664.22 533.23 664.07 532.85C663.99 532.66 663.92 532.47 663.84 532.27C663.71 531.95 663.57 531.62 663.43 531.3C663.34 531.09 663.24 530.87 663.15 530.66C663.05 530.44 662.95 530.21 662.84 529.99C662.72 529.73 662.59 529.48 662.46 529.22C662.39 529.08 662.32 528.94 662.25 528.8C662.09 528.48 661.92 528.17 661.74 527.85C661.41 527.23 661.05 526.62 660.67 526C660.56 525.81 660.45 525.62 660.33 525.44C660.17 525.18 660.01 524.93 659.84 524.68C659.49 524.14 659.13 523.6 658.75 523.06C658.59 522.83 658.43 522.6 658.26 522.37C657.97 521.95 657.66 521.55 657.35 521.14C656.93 520.59 656.51 520.05 656.09 519.51C656.05 519.46 656.01 519.4 655.97 519.35C655.63 518.91 655.29 518.47 654.94 518.03C654.19 517.06 653.43 516.1 652.66 515.14C652.12 514.47 651.59 513.79 651.05 513.12C650.48 512.42 649.91 511.71 649.35 511.01C647.08 508.2 644.78 505.4 642.48 502.6C642.41 502.52 642.35 502.44 642.28 502.37L642.25 502.33Z" fill="url(#paint9_linear_1245_593)"/>
<path d="M444.19 528.39C444.02 528.71 443.86 529.03 443.7 529.35C443.54 529.67 443.38 529.99 443.24 530.31C443.12 530.57 443 530.82 442.89 531.08C442.59 531.76 442.31 532.43 442.06 533.12C442 533.28 441.94 533.44 441.89 533.6C441.72 534.05 441.57 534.51 441.43 534.96C441.34 535.22 441.27 535.48 441.19 535.74C440.75 537.21 440.41 538.7 440.17 540.2C440.14 540.38 440.11 540.56 440.09 540.74C440.05 540.99 440.02 541.24 439.99 541.5C439.95 541.78 439.92 542.06 439.9 542.34C439.87 542.57 439.85 542.79 439.83 543.02C439.81 543.28 439.79 543.53 439.78 543.78C439.76 544.04 439.75 544.29 439.74 544.55C439.73 544.8 439.72 545.04 439.72 545.28C439.72 545.55 439.71 545.82 439.71 546.09C439.71 546.45 439.71 546.79 439.73 547.14C439.75 548.1 439.81 549.06 439.91 550.02C439.96 550.54 440.02 551.07 440.09 551.59C440.13 551.87 440.17 552.14 440.21 552.42C440.41 553.76 440.69 555.12 441.01 556.51C441.08 556.78 441.15 557.06 441.22 557.34C441.29 557.61 441.36 557.89 441.44 558.18C441.54 558.55 441.64 558.91 441.75 559.28C441.8 559.46 441.85 559.62 441.9 559.79C441.99 560.1 442.09 560.4 442.18 560.71C442.28 561.01 442.38 561.32 442.48 561.62C442.77 562.48 443.08 563.35 443.41 564.22C443.51 564.49 443.62 564.77 443.73 565.04C444.02 565.78 444.33 566.53 444.65 567.28C444.72 567.45 444.8 567.63 444.87 567.8C445.63 569.56 446.48 571.36 447.4 573.2C447.89 572.11 448.33 571.03 448.78 569.96C449.29 568.71 449.79 567.47 450.3 566.27C450.33 566.19 450.36 566.13 450.39 566.06C450.56 565.66 450.74 565.26 450.91 564.86C451.16 564.3 451.42 563.73 451.69 563.18C451.91 562.74 452.13 562.3 452.36 561.86C452.65 561.31 452.96 560.77 453.27 560.24C457.85 552.57 463.01 545.25 467.78 537.69C468.18 537.05 468.58 536.4 468.95 535.76C469.2 535.33 469.45 534.9 469.69 534.47C470.89 532.3 471.92 530.12 472.74 527.9C472.99 527.23 473.22 526.57 473.43 525.9C473.53 525.59 473.62 525.27 473.71 524.96C473.76 524.75 473.82 524.54 473.88 524.34C473.94 524.1 474 523.86 474.06 523.62C474.23 522.9 474.39 522.18 474.51 521.45C474.68 520.48 474.8 519.51 474.87 518.52C474.94 517.6 474.97 516.67 474.95 515.73C474.95 515.53 474.95 515.34 474.93 515.15C474.92 514.96 474.91 514.76 474.9 514.57C474.88 514.28 474.86 513.99 474.83 513.7C474.8 513.41 474.78 513.12 474.74 512.82C474.72 512.63 474.69 512.43 474.66 512.24C474.63 512.05 474.61 511.85 474.57 511.65C474.47 511.01 474.34 510.36 474.19 509.71C474.16 509.57 474.12 509.43 474.09 509.28C473.99 508.88 473.89 508.48 473.77 508.07C473.71 507.87 473.66 507.68 473.59 507.47C473.53 507.27 473.46 507.07 473.4 506.87C473.32 506.64 473.24 506.4 473.16 506.17C473.08 505.94 472.99 505.7 472.9 505.47C472.72 504.99 472.53 504.53 472.32 504.05C472.19 503.76 472.06 503.48 471.93 503.23C471.89 503.14 471.84 503.06 471.79 502.97C471.35 502.16 470.86 501.51 470.34 501.04C470.25 500.95 470.15 500.88 470.06 500.8C469.98 500.73 469.9 500.67 469.81 500.61C469.79 500.6 469.77 500.58 469.75 500.57C469.68 500.53 469.61 500.48 469.54 500.44C469.5 500.41 469.46 500.4 469.42 500.37C469.35 500.34 469.28 500.3 469.21 500.27C469.12 500.23 469.02 500.19 468.92 500.16C468.88 500.14 468.85 500.13 468.81 500.13C468.81 500.13 468.8 500.13 468.79 500.13C468.72 500.11 468.64 500.09 468.57 500.08C468.47 500.06 468.36 500.04 468.26 500.03C468.16 500.01 468.05 500.01 467.94 500.01C467.92 500.01 467.89 500.01 467.87 500.01C467.81 500.01 467.76 500.01 467.7 500.02C467.62 500.02 467.54 500.03 467.45 500.05C466.86 500.14 466.25 500.39 465.64 500.81C465.55 500.87 465.47 500.94 465.38 501C465.29 501.07 465.2 501.14 465.11 501.21C464.99 501.31 464.86 501.42 464.74 501.54C464.69 501.59 464.63 501.64 464.58 501.7C464.31 501.96 464.04 502.25 463.78 502.57C460.34 506.77 456.89 510.97 453.51 515.22C452.98 515.89 452.45 516.56 451.93 517.23C451.84 517.33 451.77 517.43 451.69 517.54C451.18 518.19 450.67 518.84 450.17 519.49C449.75 520.03 449.34 520.57 448.92 521.11C448.61 521.52 448.3 521.92 448.01 522.33C447.8 522.62 447.59 522.91 447.39 523.2C446.35 524.69 445.41 526.19 444.59 527.68C444.46 527.91 444.33 528.14 444.21 528.38L444.19 528.39Z" fill="url(#paint10_linear_1245_593)"/>
<path d="M669.38 653.6C667.31 655.85 664.57 658.7 661.73 661.61C641.46 682.37 615.66 697.02 587.32 703.2C586.51 703.38 585.69 703.55 584.88 703.71C584.48 702.71 584.09 701.71 583.7 700.71C583.34 699.78 583 698.85 582.65 697.92C582.06 696.35 581.5 694.76 580.95 693.17C580.82 692.81 580.7 692.45 580.58 692.09C580.35 691.42 580.13 690.76 579.91 690.09C579.6 689.16 579.29 688.22 579 687.28C578.78 686.56 578.55 685.85 578.33 685.14C578.24 684.86 578.16 684.58 578.07 684.3C577.51 682.43 576.97 680.55 576.45 678.66C570.2 655.72 568.08 632.93 578.6 610.42C579.49 608.51 580.37 606.6 581.24 604.68C581.63 603.84 582.01 603.01 582.4 602.18C582.83 601.27 583.25 600.36 583.68 599.44C583.94 598.89 584.2 598.34 584.47 597.79C585.2 596.27 585.96 594.77 586.74 593.28C586.99 592.8 587.25 592.32 587.5 591.84C587.83 591.23 588.17 590.62 588.51 590.02C588.85 589.41 589.2 588.81 589.55 588.21C589.72 587.91 589.9 587.61 590.09 587.31C590.24 587.05 590.4 586.8 590.56 586.55C590.79 586.17 591.02 585.8 591.26 585.43C591.33 585.32 591.4 585.22 591.47 585.11C591.79 584.62 592.1 584.14 592.44 583.66C592.7 583.28 592.96 582.91 593.22 582.53C593.27 582.46 593.32 582.39 593.37 582.32C593.52 582.1 593.68 581.89 593.83 581.68C593.92 581.55 594 581.44 594.1 581.32C594.22 581.15 594.34 580.99 594.46 580.83C597.52 576.78 600.91 573 605.95 571.34C606.43 571.18 606.91 571.06 607.38 570.99C607.53 570.97 607.67 570.95 607.81 570.93C607.91 570.92 608.01 570.91 608.12 570.9C608.56 570.86 608.99 570.86 609.4 570.9C609.77 570.93 610.13 570.99 610.48 571.08C610.56 571.1 610.64 571.12 610.71 571.15C610.83 571.18 610.95 571.22 611.06 571.26C611.19 571.31 611.32 571.36 611.45 571.42C611.51 571.45 611.58 571.47 611.64 571.51C611.96 571.66 612.26 571.85 612.54 572.06C612.65 572.15 612.76 572.23 612.86 572.32C612.97 572.41 613.07 572.51 613.17 572.61C613.27 572.71 613.37 572.81 613.46 572.92C613.51 572.97 613.55 573.03 613.6 573.08C613.67 573.17 613.74 573.25 613.81 573.35C613.88 573.44 613.94 573.54 614 573.63C614.08 573.74 614.15 573.86 614.22 573.99C614.31 574.17 614.41 574.35 614.49 574.54C614.52 574.61 614.55 574.69 614.58 574.76C614.61 574.84 614.64 574.91 614.67 574.98C614.72 575.13 614.77 575.28 614.82 575.43C614.89 575.64 614.94 575.86 614.99 576.08C615.04 576.3 615.08 576.53 615.11 576.76C615.53 579.77 615.37 582.94 614.98 585.97C614.93 586.36 614.88 586.76 614.82 587.16C614.77 587.56 614.71 587.95 614.65 588.35C614.33 590.46 613.96 592.56 613.6 594.66C613.47 595.38 613.35 596.1 613.23 596.83C613.12 597.5 613.01 598.16 612.9 598.82C612.85 599.13 612.8 599.43 612.76 599.73C612.63 600.57 612.51 601.41 612.41 602.25C612.37 602.53 612.33 602.8 612.31 603.08C612.29 603.17 612.28 603.25 612.28 603.34C612.21 603.86 612.16 604.38 612.11 604.9C611.68 609.36 611.59 614.03 612.48 618.38C612.51 618.51 612.53 618.64 612.57 618.76C612.59 618.85 612.61 618.93 612.64 619.02C612.64 619.05 612.65 619.07 612.66 619.1C612.71 619.31 612.77 619.52 612.84 619.72C612.87 619.81 612.89 619.9 612.93 619.99C612.96 620.09 613 620.19 613.03 620.28C613.06 620.38 613.1 620.47 613.14 620.56C613.23 620.79 613.32 621.01 613.42 621.23C613.51 621.42 613.61 621.61 613.7 621.79C613.77 621.93 613.84 622.06 613.92 622.19C613.99 622.32 614.07 622.44 614.14 622.56C614.22 622.68 614.3 622.8 614.38 622.91C614.54 623.14 614.71 623.37 614.89 623.59C614.97 623.68 615.05 623.78 615.14 623.87C615.15 623.89 615.17 623.91 615.19 623.93C615.29 624.04 615.39 624.15 615.49 624.26C615.7 624.47 615.91 624.67 616.13 624.86C616.85 625.48 617.64 625.99 618.49 626.36C618.6 626.41 618.71 626.46 618.83 626.51C619.16 626.65 619.5 626.77 619.85 626.86C619.92 626.88 619.98 626.9 620.05 626.91C620.12 626.93 620.18 626.94 620.25 626.96C620.38 626.99 620.5 627.02 620.62 627.04C620.75 627.07 620.87 627.09 621 627.11C621.09 627.13 621.17 627.14 621.27 627.15C621.4 627.17 621.53 627.18 621.66 627.19C621.81 627.2 621.95 627.21 622.1 627.22C622.25 627.22 622.4 627.23 622.55 627.23C622.72 627.23 622.89 627.23 623.06 627.21C623.2 627.21 623.33 627.2 623.46 627.18C623.66 627.17 623.87 627.14 624.08 627.11C624.23 627.09 624.39 627.06 624.55 627.03C624.9 626.96 625.25 626.88 625.6 626.77C625.81 626.71 626.03 626.64 626.24 626.56C626.46 626.48 626.69 626.39 626.92 626.29C627.09 626.22 627.26 626.14 627.43 626.06C627.6 625.98 627.77 625.89 627.94 625.8C632.75 623.23 637.37 619.82 641.13 615.88C643.05 613.86 644.89 611.78 646.63 609.64C646.81 609.42 646.98 609.21 647.16 608.99C647.26 608.87 647.36 608.74 647.45 608.62C647.84 608.14 648.22 607.65 648.6 607.17C648.92 606.75 649.24 606.34 649.56 605.92C649.88 605.49 650.2 605.06 650.52 604.62C650.66 604.44 650.79 604.26 650.92 604.07C651.05 603.89 651.18 603.71 651.31 603.52C651.6 603.11 651.9 602.7 652.19 602.28C652.48 601.86 652.76 601.46 653.04 601.03C654.34 599.12 655.58 597.18 656.78 595.21C657.57 593.9 658.34 592.58 659.08 591.25C659.33 590.81 659.58 590.36 659.82 589.91C660.02 589.55 660.22 589.18 660.42 588.82C661.1 587.56 661.76 586.3 662.4 585.02C662.59 584.65 662.78 584.28 662.96 583.91C663.23 583.36 663.51 582.81 663.77 582.25C663.98 581.82 664.19 581.39 664.39 580.96C664.66 580.39 664.93 579.82 665.19 579.25C665.55 578.47 665.91 577.69 666.26 576.91C666.62 576.1 666.98 575.29 667.33 574.47V574.42C667.48 574.09 667.62 573.78 667.76 573.45C667.81 573.34 667.86 573.23 667.9 573.12C668.21 572.39 668.52 571.66 668.82 570.92C669.09 570.25 669.37 569.57 669.64 568.89C675.34 554.62 676.09 540.37 670.93 525.79C669.94 522.99 668.97 520.17 668.03 517.35C667.14 514.68 666.27 512.01 665.43 509.33C665.09 508.26 664.76 507.2 664.44 506.13C663.75 503.88 663.09 501.62 662.44 499.36C659.26 488.22 660.85 477.75 668.02 468.37C668.22 468.1 668.42 467.86 668.63 467.62C668.83 467.39 669.03 467.17 669.24 466.97C669.45 466.77 669.64 466.59 669.85 466.42C669.95 466.33 670.05 466.26 670.16 466.18C670.31 466.07 670.46 465.97 670.61 465.87C670.74 465.79 670.86 465.72 670.98 465.66C671.05 465.63 671.11 465.59 671.17 465.57C671.3 465.51 671.43 465.46 671.55 465.41C671.6 465.39 671.66 465.36 671.72 465.36C671.73 465.36 671.74 465.35 671.75 465.35C671.88 465.31 672 465.27 672.12 465.25C672.24 465.22 672.36 465.21 672.48 465.2C672.7 465.17 672.93 465.17 673.15 465.2C673.24 465.2 673.33 465.22 673.42 465.24C673.5 465.26 673.58 465.28 673.67 465.3C673.7 465.3 673.74 465.32 673.77 465.33C673.82 465.34 673.87 465.36 673.92 465.38C673.94 465.38 673.95 465.38 673.97 465.4C674.06 465.43 674.14 465.47 674.23 465.51C674.32 465.55 674.4 465.6 674.49 465.65C674.58 465.7 674.66 465.75 674.75 465.8C674.85 465.87 674.94 465.93 675.03 466C675.19 466.13 675.36 466.27 675.52 466.43C675.59 466.49 675.65 466.56 675.71 466.62C675.81 466.72 675.91 466.83 676 466.94C676.08 467.04 676.16 467.14 676.24 467.25C676.32 467.35 676.4 467.46 676.47 467.57C676.51 467.63 676.56 467.7 676.6 467.76C676.68 467.88 676.76 468.01 676.83 468.13C676.92 468.28 677.02 468.44 677.1 468.61C677.2 468.78 677.29 468.97 677.38 469.16C677.43 469.25 677.47 469.35 677.52 469.44C683.92 484.85 690.62 500.14 696.61 515.7C701.26 527.79 705.49 540.18 706.25 553.26C708.49 591.98 695.49 625.3 669.44 653.6H669.38Z" fill="url(#paint11_linear_1245_593)"/>
<path d="M529.77 678.67C529.58 679.36 529.39 680.04 529.2 680.73C529.06 681.21 528.93 681.69 528.79 682.16C528.6 682.8 528.42 683.43 528.22 684.07C528.12 684.43 528.01 684.79 527.89 685.15C527.67 685.87 527.45 686.58 527.22 687.29C526.99 688.01 526.76 688.72 526.53 689.44C526.32 690.09 526.11 690.73 525.87 691.41C525.69 691.92 525.53 692.43 525.36 692.94C525.32 693.05 525.28 693.16 525.24 693.27C524.96 694.08 524.67 694.89 524.38 695.7C524.11 696.45 523.84 697.19 523.57 697.93C523.4 698.4 523.22 698.86 523.05 699.33C522.86 699.85 522.66 700.37 522.46 700.89C522.15 701.69 521.84 702.49 521.52 703.29C521.47 703.44 521.41 703.58 521.35 703.73C520.53 703.56 519.72 703.39 518.9 703.22C490.26 696.97 464.28 682.01 443.84 661C441.47 658.57 439.14 656.11 436.84 653.62C410.78 625.33 397.79 592 400.02 553.28C400.78 540.19 405 527.81 409.66 515.72C415.65 500.16 422.35 484.87 428.75 469.46L428.86 469.23C428.95 469.06 429.02 468.89 429.12 468.74C429.18 468.63 429.24 468.52 429.3 468.41C429.56 467.96 429.82 467.55 430.1 467.2C430.16 467.12 430.23 467.04 430.29 466.97C430.42 466.81 430.56 466.65 430.71 466.51C430.81 466.41 430.92 466.31 431.02 466.22C431.4 465.89 431.8 465.64 432.21 465.48C432.23 465.47 432.25 465.46 432.28 465.45C432.36 465.42 432.44 465.39 432.53 465.37C432.61 465.35 432.68 465.33 432.76 465.31C432.78 465.31 432.79 465.31 432.81 465.31C432.81 465.31 432.84 465.31 432.85 465.3H432.89C432.89 465.3 432.92 465.29 432.93 465.29H432.95C433.01 465.28 433.07 465.27 433.13 465.26C433.22 465.25 433.32 465.24 433.41 465.24H433.57C433.68 465.24 433.8 465.25 433.91 465.27C433.92 465.27 433.93 465.27 433.94 465.27C434.21 465.31 434.48 465.38 434.75 465.49C434.86 465.53 434.97 465.58 435.08 465.63C435.21 465.69 435.34 465.76 435.47 465.83C435.47 465.83 435.47 465.83 435.48 465.83C435.48 465.83 435.49 465.84 435.5 465.84C435.59 465.89 435.67 465.94 435.76 466C435.82 466.04 435.88 466.08 435.94 466.13C436.02 466.18 436.09 466.24 436.17 466.29C436.25 466.34 436.32 466.4 436.4 466.47C436.6 466.63 436.8 466.81 437.01 467.02C437.11 467.12 437.21 467.22 437.32 467.33C437.52 467.55 437.72 467.78 437.93 468.03C438.03 468.16 438.13 468.29 438.24 468.42C445.41 477.8 447 488.28 443.82 499.41C443.18 501.67 442.51 503.93 441.82 506.18C441.49 507.25 441.16 508.32 440.83 509.39C440.16 511.54 439.46 513.68 438.76 515.82C438.59 516.34 438.41 516.87 438.24 517.39C437.61 519.3 436.96 521.2 436.3 523.09C435.98 524.01 435.66 524.93 435.34 525.84C430.18 540.42 430.93 554.67 436.62 568.94C436.9 569.65 437.19 570.36 437.48 571.07C438.19 572.8 438.92 574.52 439.68 576.23C439.96 576.88 440.25 577.53 440.55 578.17C440.78 578.68 441.01 579.18 441.24 579.68C441.47 580.18 441.7 580.69 441.94 581.18C441.97 581.25 441.99 581.3 442.03 581.36C442.32 581.98 442.62 582.59 442.92 583.21C443.18 583.73 443.43 584.24 443.69 584.76C444.07 585.52 444.46 586.28 444.86 587.04C445.08 587.47 445.31 587.9 445.54 588.32C446.57 590.25 447.63 592.14 448.75 594.02C448.95 594.36 449.15 594.71 449.36 595.05C449.4 595.12 449.44 595.19 449.49 595.26C449.8 595.77 450.1 596.27 450.42 596.77C450.62 597.1 450.83 597.42 451.04 597.75C451.75 598.88 452.48 599.99 453.24 601.09C453.48 601.46 453.73 601.81 453.98 602.17C454.61 603.07 455.25 603.97 455.89 604.85C456.17 605.23 456.45 605.6 456.73 605.97C457.54 607.05 458.37 608.11 459.22 609.17C459.65 609.69 460.07 610.21 460.51 610.73C461.44 611.84 462.4 612.94 463.38 614.02C463.65 614.33 463.93 614.63 464.22 614.94C464.53 615.27 464.84 615.61 465.15 615.93C468.9 619.87 473.53 623.28 478.34 625.85C478.51 625.94 478.68 626.02 478.85 626.11C479.02 626.19 479.19 626.27 479.36 626.34C479.58 626.43 479.81 626.53 480.04 626.61C480.25 626.69 480.47 626.75 480.68 626.82C481.14 626.96 481.61 627.06 482.07 627.14C482.29 627.17 482.52 627.2 482.74 627.22C485.51 627.49 488.12 626.64 490.15 624.9C490.37 624.71 490.59 624.51 490.79 624.3C490.89 624.19 490.99 624.09 491.09 623.97L491.14 623.92C491.84 623.12 492.45 622.19 492.92 621.15C492.99 621.01 493.05 620.87 493.1 620.73C493.17 620.57 493.23 620.41 493.29 620.25C493.32 620.18 493.34 620.1 493.37 620.03C493.42 619.88 493.47 619.74 493.51 619.58C493.52 619.57 493.52 619.55 493.52 619.54C493.59 619.34 493.64 619.14 493.69 618.93C493.73 618.76 493.77 618.59 493.8 618.42C494.68 614.08 494.59 609.4 494.16 604.94C494.11 604.42 494.06 603.9 493.99 603.38C493.99 603.3 493.97 603.21 493.96 603.12C493.93 602.84 493.89 602.57 493.86 602.29C493.86 602.25 493.86 602.2 493.84 602.16C493.81 601.9 493.77 601.64 493.74 601.38C493.67 600.84 493.59 600.31 493.51 599.77C493.47 599.46 493.42 599.16 493.37 598.86C493.27 598.19 493.16 597.53 493.04 596.87C492.92 596.14 492.79 595.42 492.67 594.7C492.4 593.17 492.13 591.64 491.88 590.11C491.84 589.84 491.79 589.56 491.75 589.28C491.69 588.92 491.64 588.56 491.58 588.19C491.53 587.83 491.47 587.47 491.42 587.1C491.37 586.74 491.32 586.37 491.27 586.01C490.88 582.98 490.72 579.81 491.14 576.8C491.16 576.65 491.18 576.51 491.21 576.37C491.24 576.23 491.26 576.09 491.3 575.95C491.34 575.81 491.37 575.68 491.41 575.55C491.44 575.42 491.49 575.29 491.53 575.16C491.57 575.03 491.62 574.91 491.67 574.79C491.73 574.64 491.8 574.49 491.87 574.35C492.08 573.92 492.32 573.53 492.61 573.18C492.69 573.09 492.76 572.99 492.84 572.91C492.92 572.82 493 572.74 493.09 572.65C493.17 572.57 493.25 572.49 493.34 572.41C493.43 572.33 493.52 572.26 493.61 572.19C493.7 572.12 493.8 572.05 493.89 571.98C493.99 571.91 494.09 571.85 494.19 571.79C494.32 571.71 494.45 571.65 494.58 571.58C494.59 571.58 494.6 571.57 494.61 571.56C494.67 571.53 494.73 571.51 494.79 571.48C494.8 571.48 494.81 571.47 494.82 571.46C494.86 571.44 494.9 571.43 494.93 571.41C494.95 571.41 494.96 571.4 494.98 571.39C495.35 571.24 495.74 571.12 496.15 571.04C496.27 571.02 496.39 571 496.51 570.98C496.69 570.95 496.88 570.93 497.07 570.93C497.21 570.92 497.35 570.91 497.49 570.91C497.94 570.91 498.4 570.94 498.87 571.02C499.34 571.1 499.81 571.22 500.3 571.37C505.34 573.03 508.72 576.81 511.79 580.86C512.16 581.36 512.53 581.85 512.89 582.36C513.08 582.62 513.27 582.89 513.45 583.15C513.58 583.35 513.72 583.54 513.85 583.74C514.03 584 514.2 584.26 514.37 584.53C515.1 585.63 515.8 586.74 516.47 587.87C516.64 588.15 516.81 588.44 516.98 588.72C519 592.17 520.79 595.74 522.51 599.35C522.76 599.87 523 600.38 523.24 600.9C523.61 601.69 523.98 602.49 524.35 603.29C525.46 605.68 526.55 608.07 527.66 610.46C538.19 632.97 536.06 655.76 529.82 678.7L529.77 678.67Z" fill="url(#paint12_linear_1245_593)"/>
<path d="M484.34 471.39C496.021 471.39 505.49 461.921 505.49 450.24C505.49 438.559 496.021 429.09 484.34 429.09C472.659 429.09 463.19 438.559 463.19 450.24C463.19 461.921 472.659 471.39 484.34 471.39Z" fill="url(#paint13_linear_1245_593)"/>
<defs>
<linearGradient id="paint0_linear_1245_593" x1="771.27" y1="414.83" x2="771.27" y2="703.05" gradientUnits="userSpaceOnUse">
<stop stop-color="#AFD2EE"/>
<stop offset="1" stop-color="#008AD6"/>
</linearGradient>
<linearGradient id="paint1_linear_1245_593" x1="367.47" y1="414.83" x2="367.47" y2="703.05" gradientUnits="userSpaceOnUse">
<stop stop-color="#AFD2EE"/>
<stop offset="1" stop-color="#008AD6"/>
</linearGradient>
<linearGradient id="paint2_linear_1245_593" x1="622.88" y1="427.87" x2="622.88" y2="605.34" gradientUnits="userSpaceOnUse">
<stop stop-color="#0096D8"/>
<stop offset="1" stop-color="#2264A7"/>
</linearGradient>
<linearGradient id="paint3_linear_1245_593" x1="638.28" y1="427.87" x2="638.28" y2="605.34" gradientUnits="userSpaceOnUse">
<stop stop-color="#0096D8"/>
<stop offset="1" stop-color="#2264A7"/>
</linearGradient>
<linearGradient id="paint4_linear_1245_593" x1="621.87" y1="427.87" x2="621.87" y2="605.34" gradientUnits="userSpaceOnUse">
<stop stop-color="#0096D8"/>
<stop offset="1" stop-color="#2264A7"/>
</linearGradient>
<linearGradient id="paint5_linear_1245_593" x1="483.33" y1="427.87" x2="483.33" y2="605.34" gradientUnits="userSpaceOnUse">
<stop stop-color="#0096D8"/>
<stop offset="1" stop-color="#2264A7"/>
</linearGradient>
<linearGradient id="paint6_linear_1245_593" x1="467.93" y1="427.87" x2="467.93" y2="605.34" gradientUnits="userSpaceOnUse">
<stop stop-color="#0096D8"/>
<stop offset="1" stop-color="#2264A7"/>
</linearGradient>
<linearGradient id="paint7_linear_1245_593" x1="553.1" y1="415.23" x2="553.1" y2="706.44" gradientUnits="userSpaceOnUse">
<stop stop-color="#AFD2EE"/>
<stop offset="1" stop-color="#008AD6"/>
</linearGradient>
<linearGradient id="paint8_linear_1245_593" x1="553.1" y1="415.23" x2="553.1" y2="706.44" gradientUnits="userSpaceOnUse">
<stop stop-color="#AFD2EE"/>
<stop offset="1" stop-color="#008AD6"/>
</linearGradient>
<linearGradient id="paint9_linear_1245_593" x1="648.91" y1="450.07" x2="648.91" y2="709.71" gradientUnits="userSpaceOnUse">
<stop stop-color="#0096D8"/>
<stop offset="1" stop-color="#2264A7"/>
</linearGradient>
<linearGradient id="paint10_linear_1245_593" x1="457.3" y1="450.07" x2="457.3" y2="709.71" gradientUnits="userSpaceOnUse">
<stop stop-color="#0096D8"/>
<stop offset="1" stop-color="#2264A7"/>
</linearGradient>
<linearGradient id="paint11_linear_1245_593" x1="638.83" y1="450.07" x2="638.83" y2="709.71" gradientUnits="userSpaceOnUse">
<stop stop-color="#0096D8"/>
<stop offset="1" stop-color="#2264A7"/>
</linearGradient>
<linearGradient id="paint12_linear_1245_593" x1="467.38" y1="450.07" x2="467.38" y2="709.71" gradientUnits="userSpaceOnUse">
<stop stop-color="#0096D8"/>
<stop offset="1" stop-color="#2264A7"/>
</linearGradient>
<linearGradient id="paint13_linear_1245_593" x1="484.34" y1="427.87" x2="484.34" y2="605.34" gradientUnits="userSpaceOnUse">
<stop stop-color="#0096D8"/>
<stop offset="1" stop-color="#2264A7"/>
</linearGradient>
</defs>
</svg>
