<svg width="500" height="500" viewBox="0 0 500 500" fill="none" xmlns="http://www.w3.org/2000/svg">
<path d="M84.167 220.5C68.636 220.5 56.002 207.872 56.002 192.35V79.7067C56.002 64.1837 68.632 51.5547 84.154 51.5547C99.688 51.5547 112.319 64.1847 112.319 79.7067V192.351C112.32 207.873 99.689 220.5 84.167 220.5ZM84.167 67.1257C77.224 67.1257 71.573 72.7707 71.573 79.7067V192.351C71.573 199.285 77.218 204.929 84.154 204.929C91.097 204.929 96.748 199.285 96.748 192.351V79.7067C96.749 72.7697 91.104 67.1257 84.167 67.1257Z" fill="white"/>
<path d="M84.1669 357.522C79.8669 357.522 76.3809 354.037 76.3809 349.737V212.712C76.3809 208.411 79.8659 204.926 84.1669 204.926C88.4669 204.926 91.9519 208.411 91.9519 212.712V349.737C91.9519 354.037 88.4669 357.522 84.1669 357.522Z" fill="white"/>
<path d="M168.251 211.934C152.719 211.934 140.086 199.307 140.086 183.782V71.1403C140.086 55.6183 152.716 42.9883 168.238 42.9883C183.772 42.9883 196.403 55.6183 196.403 71.1403V183.781C196.403 199.307 183.773 211.934 168.251 211.934ZM168.251 58.5593C161.308 58.5593 155.657 64.2043 155.657 71.1403V183.781C155.657 190.718 161.302 196.362 168.238 196.362C175.181 196.362 180.832 190.717 180.832 183.781V71.1403C180.832 64.2043 175.188 58.5593 168.251 58.5593Z" fill="white"/>
<path d="M168.251 348.959C163.95 348.959 160.465 345.474 160.465 341.173V204.148C160.465 199.848 163.95 196.363 168.251 196.363C172.551 196.363 176.036 199.848 176.036 204.148V341.173C176.036 345.474 172.551 348.959 168.251 348.959Z" fill="white"/>
<path d="M248.576 226.727C233.047 226.727 220.414 214.1 220.414 198.577V85.9333C220.414 70.4113 233.045 57.7812 248.567 57.7812C264.099 57.7812 276.728 70.4123 276.728 85.9333V198.577C276.728 214.1 264.098 226.727 248.576 226.727ZM248.576 73.3522C241.633 73.3522 235.985 78.9973 235.985 85.9333V198.577C235.985 205.511 241.63 211.156 248.567 211.156C255.51 211.156 261.157 205.511 261.157 198.577V85.9333C261.157 78.9963 255.512 73.3522 248.576 73.3522Z" fill="white"/>
<path d="M248.575 361.416C244.275 361.416 240.789 357.931 240.789 353.63V218.941C240.789 214.641 244.274 211.156 248.575 211.156C252.876 211.156 256.36 214.641 256.36 218.941V353.631C256.36 357.931 252.875 361.416 248.575 361.416Z" fill="white"/>
<path d="M329.411 245.41C313.879 245.41 301.246 232.783 301.246 217.26V104.618C301.246 89.0948 313.877 76.4648 329.398 76.4648C344.933 76.4648 357.563 89.0958 357.563 104.618V217.261C357.563 232.784 344.934 245.41 329.411 245.41ZM329.411 92.0359C322.468 92.0359 316.817 97.6808 316.817 104.618V217.261C316.817 224.195 322.462 229.84 329.398 229.84C336.342 229.84 341.992 224.195 341.992 217.261V104.618C341.992 97.6798 336.348 92.0359 329.411 92.0359Z" fill="white"/>
<path d="M329.41 381.658C325.109 381.658 321.625 378.173 321.625 373.872V237.626C321.625 233.325 325.109 229.84 329.41 229.84C333.711 229.84 337.196 233.325 337.196 237.626V373.872C337.196 378.173 333.711 381.658 329.41 381.658Z" fill="white"/>
<path d="M410.38 260.362C394.848 260.362 382.215 247.729 382.215 232.206V119.566C382.215 104.043 394.846 91.4141 410.367 91.4141C425.902 91.4141 438.532 104.044 438.532 119.566V232.206C438.532 247.729 425.902 260.362 410.38 260.362ZM410.38 106.985C403.437 106.985 397.786 112.63 397.786 119.566V232.206C397.786 239.146 403.431 244.791 410.367 244.791C417.31 244.791 422.961 239.146 422.961 232.206V119.566C422.961 112.629 417.316 106.985 410.38 106.985Z" fill="white"/>
<path d="M410.38 396.453C406.079 396.453 402.594 392.968 402.594 388.667V252.579C402.594 248.279 406.079 244.793 410.38 244.793C414.681 244.793 418.165 248.278 418.165 252.579V388.667C418.165 392.967 414.68 396.453 410.38 396.453Z" fill="white"/>
<path d="M467.215 424.481H423.616C407.674 424.001 359.884 422.553 225.462 387.64C110.83 357.842 37.9916 407.76 37.2716 408.265C33.7556 410.722 28.9046 409.889 26.4266 406.386C23.9506 402.877 24.7786 398.035 28.2816 395.547C31.4536 393.303 107.387 340.891 229.38 372.568C318.688 395.766 382.301 407.658 423.854 408.917L467.216 408.911C471.517 408.911 475.001 412.396 475.001 416.696C475 420.995 471.516 424.481 467.215 424.481Z" fill="white"/>
<path d="M360.853 457.016C360.427 457.016 359.995 456.979 359.56 456.906C323.677 450.909 278.561 440.873 225.461 427.084C194.589 419.073 164.01 416.057 134.599 418.179C130.366 418.422 126.585 415.253 126.278 410.965C125.971 406.677 129.198 402.954 133.486 402.645C164.591 400.419 196.865 403.569 229.375 412.011C282.03 425.691 326.694 435.629 362.128 441.554C366.37 442.259 369.232 446.274 368.523 450.513C367.888 454.322 364.588 457.016 360.853 457.016Z" fill="white"/>
</svg>
