<svg width="500" height="500" viewBox="0 0 500 500" fill="none" xmlns="http://www.w3.org/2000/svg">
<path d="M7.86036 281.163C11.8496 281.976 16.0488 280.097 18.1338 276.61C20.2022 273.15 19.9072 268.688 17.4111 265.524C14.8125 262.231 10.252 260.977 6.33009 262.453C2.56837 263.868 0.00587294 267.574 1.35629e-05 271.593C-0.00779894 276.205 3.36037 280.25 7.86036 281.163Z" fill="white"/>
<path d="M381.15 228.847C362.747 164.37 303.728 119.695 236.141 119.695L235.52 119.699C226.099 119.807 217.972 125.448 211.944 130.35C209.254 132.538 206.301 134.186 203.213 135.292V135.152C203.236 133.419 203.237 131.63 203.213 129.792V99.7894C203.213 79.7767 219.494 63.4954 239.507 63.4954C244.901 63.4954 249.273 59.1233 249.273 53.7298C249.273 48.3362 244.901 43.9642 239.507 43.9642C219.035 43.9642 201.103 55.0403 191.386 71.5149C187.18 62.473 181.572 53.9173 174.15 46.512C136.173 8.62823 67.0792 18.5452 64.1554 18.9856C59.921 19.6243 56.5978 22.9456 55.9562 27.179C55.5177 30.0696 45.7462 97.8323 82.5587 135.934C75.1105 139.724 67.9367 144.159 61.0988 149.219C35.5158 168.149 16.8712 194.053 7.18081 224.13C5.52651 229.264 8.3478 234.766 13.4816 236.419C18.6115 238.072 24.1173 235.253 25.7707 230.118C43.2863 175.752 93.4904 139.225 150.64 139.225L151.152 139.228C152.538 139.243 154.181 139.872 155.803 140.741C155.985 140.849 156.17 140.951 156.358 141.046C159 142.55 161.5 144.583 162.627 145.5C180.486 160.026 206.41 160.027 224.269 145.501C226.163 143.96 231.929 139.272 235.69 139.229L236.198 139.226C293.263 139.226 343.343 175.863 360.873 229.333C297.567 235.978 248.047 290.049 248.047 355.552C248.047 392.006 263.384 424.919 287.9 448.088C268.803 460.99 250.183 462.891 234.162 462.891L233.133 462.878C232.935 462.873 232.475 462.876 231.773 462.901C216.137 463.462 203.918 460.715 196.423 458.317C194.486 457.698 192.407 457.698 190.471 458.317C182.977 460.715 170.761 463.462 155.12 462.901C154.419 462.876 153.957 462.871 153.767 462.878L152.733 462.891C131.909 462.891 88.5812 462.891 51.4757 388.028C39.9709 364.815 30.5656 338.314 24.9933 313.405C23.8166 308.141 18.5949 304.827 13.3312 306.006C8.06753 307.184 4.75601 312.405 5.93276 317.668C11.8371 344.06 21.796 372.127 33.9748 396.7C71.6339 472.679 117.223 482.422 152.733 482.422H153.373C153.455 482.422 153.537 482.421 153.619 482.419L154.064 482.407L154.428 482.419C167.916 482.901 181.337 481.313 193.447 477.824C204.147 480.907 215.866 482.503 227.753 482.503C229.321 482.503 230.894 482.476 232.466 482.419L232.829 482.407L233.274 482.419C233.356 482.421 233.439 482.422 233.521 482.422H234.161C253.436 482.422 278.468 479.872 303.694 460.793C323.792 474.467 347.998 482.457 374.023 482.457C443.485 482.457 499.998 425.528 499.998 355.551C499.999 287.985 447.311 232.581 381.15 228.847ZM167.135 124.74L120.747 70.8001C117.23 66.7103 111.064 66.2464 106.975 69.764C102.886 73.2806 102.421 79.4466 105.938 83.5355L137.52 120.259C125.463 121.297 113.688 123.76 102.372 127.588C100.596 126.176 98.9132 124.681 97.3517 123.124C72.8341 98.6634 73.2453 54.9632 74.5207 37.554C91.9757 36.2796 135.817 35.8606 160.356 60.3401C180.935 80.8694 183.921 115.064 183.662 135.284C180.582 134.177 177.635 132.533 174.951 130.349C172.64 128.47 170.02 126.483 167.135 124.74ZM154.204 482.405L154.268 482.404C154.249 482.404 154.228 482.404 154.204 482.405ZM232.633 482.403L232.689 482.404C232.668 482.404 232.65 482.404 232.633 482.403ZM374.024 462.927C315.33 462.927 267.579 414.759 267.579 355.552C267.579 296.346 315.33 248.177 374.024 248.177C432.717 248.177 480.468 296.345 480.468 355.552C480.468 414.758 432.717 462.927 374.024 462.927Z" fill="white"/>
<path d="M420.692 322.053H407.323V308.482C407.323 296.519 397.632 286.785 385.72 286.785H362.325C350.413 286.785 340.722 296.519 340.722 308.482V322.053H327.353C315.44 322.053 305.75 331.786 305.75 343.751V367.352C305.75 379.315 315.441 389.05 327.353 389.05H340.722V402.619C340.722 414.583 350.413 424.317 362.325 424.317H385.72C397.632 424.317 407.323 414.584 407.323 402.619V389.05H420.692C432.604 389.05 442.296 379.316 442.296 367.352V343.751C442.296 331.786 432.604 322.053 420.692 322.053ZM422.765 367.351C422.765 368.546 421.835 369.518 420.692 369.518H397.558C392.164 369.518 387.792 373.89 387.792 379.283V402.618C387.792 403.813 386.862 404.785 385.72 404.785H362.325C361.183 404.785 360.253 403.813 360.253 402.618V379.283C360.253 373.89 355.881 369.518 350.487 369.518H327.353C326.21 369.518 325.281 368.546 325.281 367.351V343.75C325.281 342.555 326.211 341.583 327.353 341.583H350.487C355.881 341.583 360.253 337.211 360.253 331.817V308.481C360.253 307.287 361.183 306.315 362.325 306.315H385.72C386.862 306.315 387.792 307.287 387.792 308.481V331.817C387.792 337.211 392.164 341.583 397.558 341.583H420.692C421.835 341.583 422.765 342.555 422.765 343.75V367.351Z" fill="white"/>
</svg>
