<svg width="500" height="500" viewBox="0 0 500 500" fill="none" xmlns="http://www.w3.org/2000/svg">
<path d="M16.666 240.748C16.7091 255.68 21.7162 270.174 30.8993 281.948L90.5494 357.781C102.021 372.487 108.277 390.589 108.333 409.24V474.998C108.333 477.208 109.211 479.328 110.773 480.891C112.336 482.454 114.456 483.331 116.666 483.331H283.333C285.543 483.331 287.662 482.454 289.225 480.891C290.788 479.328 291.666 477.208 291.666 474.998V457.906C288.883 458.04 286.149 458.331 283.333 458.331C258.514 458.441 233.957 453.27 211.29 443.162C188.623 433.054 168.365 418.24 151.862 399.704C135.358 381.168 122.986 359.334 115.566 335.65C108.146 311.967 105.849 286.976 108.827 262.337C111.804 237.698 119.989 213.974 132.837 192.74C145.685 171.505 162.903 153.247 183.347 139.176C203.791 125.105 226.995 115.544 251.417 111.127C275.839 106.71 300.922 107.538 324.999 113.556V76.4065C325.129 70.0195 322.901 63.8087 318.741 58.9603C314.582 54.112 308.782 50.9659 302.449 50.1231C298.99 49.8474 295.511 50.2824 292.227 51.4013C288.942 52.5203 285.921 54.2996 283.35 56.6297C280.779 58.9598 278.711 61.7915 277.275 64.9504C275.839 68.1093 275.065 71.5287 274.999 74.9981C274.999 77.2083 274.121 79.3279 272.559 80.8907C270.996 82.4535 268.876 83.3315 266.666 83.3315C264.456 83.3315 262.336 82.4535 260.773 80.8907C259.211 79.3279 258.333 77.2083 258.333 74.9981V59.7398C258.462 53.3529 256.234 47.142 252.075 42.2937C247.915 37.4453 242.115 34.2993 235.783 33.4565C232.323 33.1795 228.844 33.6136 225.559 34.7321C222.274 35.8506 219.252 37.6299 216.681 39.9602C214.109 42.2906 212.042 45.1227 210.606 48.2822C209.17 51.4417 208.397 54.8617 208.333 58.3315C208.333 60.5416 207.455 62.6612 205.892 64.224C204.329 65.7868 202.21 66.6648 199.999 66.6648C197.789 66.6648 195.67 65.7868 194.107 64.224C192.544 62.6612 191.666 60.5416 191.666 58.3315V43.0731C191.796 36.6862 189.568 30.4754 185.408 25.627C181.248 20.7787 175.448 17.6326 169.116 16.7898C165.655 16.5029 162.171 16.9301 158.882 18.0449C155.592 19.1598 152.567 20.9385 149.993 23.2707C147.42 25.603 145.352 28.4391 143.92 31.6032C142.488 34.7673 141.72 38.192 141.666 41.6648V49.9981C141.666 52.2083 140.788 54.3279 139.225 55.8907C137.662 57.4535 135.543 58.3315 133.333 58.3315C131.123 58.3315 129.003 57.4535 127.44 55.8907C125.877 54.3279 124.999 52.2083 124.999 49.9981C124.957 46.5226 124.199 43.0931 122.771 39.9242C121.343 36.7553 119.276 33.915 116.701 31.5811C114.125 29.2472 111.096 27.4698 107.802 26.36C104.508 25.2502 101.021 24.832 97.5577 25.1315C91.2252 25.9722 85.4244 29.1163 81.2632 33.9631C77.102 38.8099 74.8721 45.0197 74.9994 51.4065V216.665C74.9994 218.875 74.1214 220.995 72.5586 222.557C70.9958 224.12 68.8762 224.998 66.666 224.998C64.4559 224.998 62.3363 224.12 60.7735 222.557C59.2107 220.995 58.3327 218.875 58.3327 216.665V100.74C46.6934 102.717 36.1279 108.746 28.5033 117.759C20.8787 126.773 16.686 138.192 16.666 149.998V240.748Z" fill="white"/>
<path d="M408.334 283.332C408.324 260.592 402.111 238.285 390.364 218.813C378.616 199.342 361.78 183.444 341.667 172.832V260.832C341.672 271.345 339.46 281.74 335.176 291.34L313.334 340.457C310.019 347.92 308.315 355.999 308.334 364.165V405.832C336.55 400.033 361.904 384.681 380.12 362.366C398.336 340.052 408.301 312.138 408.334 283.332Z" fill="white"/>
<path d="M125 283.333C125 314.649 134.286 345.261 151.684 371.299C169.082 397.336 193.81 417.63 222.742 429.614C251.673 441.598 283.509 444.734 314.223 438.624C344.936 432.515 373.149 417.435 395.292 395.292C417.435 373.149 432.515 344.936 438.624 314.223C444.734 283.509 441.598 251.673 429.614 222.742C417.63 193.81 397.336 169.082 371.299 151.684C345.261 134.286 314.649 125 283.333 125C241.355 125.046 201.109 141.743 171.426 171.426C141.743 201.109 125.046 241.355 125 283.333ZM300 175C302.21 175 304.33 175.878 305.893 177.441C307.455 179.004 308.333 181.123 308.333 183.333V191.667C308.333 193.877 307.455 195.996 305.893 197.559C304.33 199.122 302.21 200 300 200C297.79 200 295.67 199.122 294.107 197.559C292.545 195.996 291.667 193.877 291.667 191.667V183.333C291.667 181.123 292.545 179.004 294.107 177.441C295.67 175.878 297.79 175 300 175ZM300 241.667C297.79 241.667 295.67 240.789 294.107 239.226C292.545 237.663 291.667 235.543 291.667 233.333V225C291.667 222.79 292.545 220.67 294.107 219.107C295.67 217.545 297.79 216.667 300 216.667C302.21 216.667 304.33 217.545 305.893 219.107C307.455 220.67 308.333 222.79 308.333 225V233.333C308.333 235.543 307.455 237.663 305.893 239.226C304.33 240.789 302.21 241.667 300 241.667ZM308.333 266.667V275C308.333 277.21 307.455 279.33 305.893 280.893C304.33 282.455 302.21 283.333 300 283.333C297.79 283.333 295.67 282.455 294.107 280.893C292.545 279.33 291.667 277.21 291.667 275V266.667C291.667 264.457 292.545 262.337 294.107 260.774C295.67 259.211 297.79 258.333 300 258.333C302.21 258.333 304.33 259.211 305.893 260.774C307.455 262.337 308.333 264.457 308.333 266.667ZM291.667 150C291.667 152.21 290.789 154.33 289.226 155.893C287.663 157.455 285.543 158.333 283.333 158.333C250.181 158.333 218.387 171.503 194.945 194.945C171.503 218.387 158.333 250.181 158.333 283.333C158.333 316.485 171.503 348.28 194.945 371.722C218.387 395.164 250.181 408.333 283.333 408.333C286.15 408.333 288.9 408.092 291.667 407.908V364.167C291.662 353.654 293.874 343.258 298.158 333.658L320 284.542C323.315 277.078 325.019 269 325 260.833V165.475C321.6 164.264 318.128 163.2 314.583 162.283C312.486 161.693 310.704 160.304 309.618 158.415C308.532 156.527 308.229 154.288 308.774 152.178C309.319 150.069 310.668 148.257 312.533 147.13C314.397 146.003 316.629 145.651 318.75 146.15C353.647 155.143 383.808 177.093 403.096 207.534C422.384 237.976 429.35 274.622 422.577 310.017C415.804 345.413 395.801 376.898 366.638 398.069C337.474 419.239 301.34 428.504 265.588 423.978C229.836 419.452 197.151 401.476 174.182 373.706C151.214 345.936 139.687 310.46 141.948 274.493C144.209 238.526 160.087 204.772 186.352 180.097C212.617 155.422 247.296 141.68 283.333 141.667C285.543 141.667 287.663 142.545 289.226 144.107C290.789 145.67 291.667 147.79 291.667 150ZM266.667 333.333C264.457 333.333 262.337 332.455 260.774 330.893C259.211 329.33 258.333 327.21 258.333 325V316.667C258.333 314.457 259.211 312.337 260.774 310.774C262.337 309.211 264.457 308.333 266.667 308.333C268.877 308.333 270.996 309.211 272.559 310.774C274.122 312.337 275 314.457 275 316.667V325C275 327.21 274.122 329.33 272.559 330.893C270.996 332.455 268.877 333.333 266.667 333.333ZM275 358.333V366.667C275 368.877 274.122 370.996 272.559 372.559C270.996 374.122 268.877 375 266.667 375C264.457 375 262.337 374.122 260.774 372.559C259.211 370.996 258.333 368.877 258.333 366.667V358.333C258.333 356.123 259.211 354.004 260.774 352.441C262.337 350.878 264.457 350 266.667 350C268.877 350 270.996 350.878 272.559 352.441C274.122 354.004 275 356.123 275 358.333ZM266.667 291.667C264.457 291.667 262.337 290.789 260.774 289.226C259.211 287.663 258.333 285.543 258.333 283.333V275C258.333 272.79 259.211 270.67 260.774 269.107C262.337 267.545 264.457 266.667 266.667 266.667C268.877 266.667 270.996 267.545 272.559 269.107C274.122 270.67 275 272.79 275 275V283.333C275 285.543 274.122 287.663 272.559 289.226C270.996 290.789 268.877 291.667 266.667 291.667ZM266.667 250C264.457 250 262.337 249.122 260.774 247.559C259.211 245.996 258.333 243.877 258.333 241.667V233.333C258.333 231.123 259.211 229.004 260.774 227.441C262.337 225.878 264.457 225 266.667 225C268.877 225 270.996 225.878 272.559 227.441C274.122 229.004 275 231.123 275 233.333V241.667C275 243.877 274.122 245.996 272.559 247.559C270.996 249.122 268.877 250 266.667 250ZM266.667 208.333C264.457 208.333 262.337 207.455 260.774 205.893C259.211 204.33 258.333 202.21 258.333 200V191.667C258.333 189.457 259.211 187.337 260.774 185.774C262.337 184.211 264.457 183.333 266.667 183.333C268.877 183.333 270.996 184.211 272.559 185.774C274.122 187.337 275 189.457 275 191.667V200C275 202.21 274.122 204.33 272.559 205.893C270.996 207.455 268.877 208.333 266.667 208.333ZM233.333 308.333C231.123 308.333 229.004 307.455 227.441 305.893C225.878 304.33 225 302.21 225 300V291.667C225 289.457 225.878 287.337 227.441 285.774C229.004 284.211 231.123 283.333 233.333 283.333C235.543 283.333 237.663 284.211 239.226 285.774C240.789 287.337 241.667 289.457 241.667 291.667V300C241.667 302.21 240.789 304.33 239.226 305.893C237.663 307.455 235.543 308.333 233.333 308.333ZM241.667 333.333V341.667C241.667 343.877 240.789 345.996 239.226 347.559C237.663 349.122 235.543 350 233.333 350C231.123 350 229.004 349.122 227.441 347.559C225.878 345.996 225 343.877 225 341.667V333.333C225 331.123 225.878 329.004 227.441 327.441C229.004 325.878 231.123 325 233.333 325C235.543 325 237.663 325.878 239.226 327.441C240.789 329.004 241.667 331.123 241.667 333.333ZM233.333 266.667C231.123 266.667 229.004 265.789 227.441 264.226C225.878 262.663 225 260.543 225 258.333V250C225 247.79 225.878 245.67 227.441 244.107C229.004 242.545 231.123 241.667 233.333 241.667C235.543 241.667 237.663 242.545 239.226 244.107C240.789 245.67 241.667 247.79 241.667 250V258.333C241.667 260.543 240.789 262.663 239.226 264.226C237.663 265.789 235.543 266.667 233.333 266.667ZM233.333 225C231.123 225 229.004 224.122 227.441 222.559C225.878 220.996 225 218.877 225 216.667V208.333C225 206.123 225.878 204.004 227.441 202.441C229.004 200.878 231.123 200 233.333 200C235.543 200 237.663 200.878 239.226 202.441C240.789 204.004 241.667 206.123 241.667 208.333V216.667C241.667 218.877 240.789 220.996 239.226 222.559C237.663 224.122 235.543 225 233.333 225ZM200 300C197.79 300 195.67 299.122 194.107 297.559C192.545 295.996 191.667 293.877 191.667 291.667V283.333C191.667 281.123 192.545 279.004 194.107 277.441C195.67 275.878 197.79 275 200 275C202.21 275 204.33 275.878 205.893 277.441C207.455 279.004 208.333 281.123 208.333 283.333V291.667C208.333 293.877 207.455 295.996 205.893 297.559C204.33 299.122 202.21 300 200 300ZM208.333 325V333.333C208.333 335.543 207.455 337.663 205.893 339.226C204.33 340.789 202.21 341.667 200 341.667C197.79 341.667 195.67 340.789 194.107 339.226C192.545 337.663 191.667 335.543 191.667 333.333V325C191.667 322.79 192.545 320.67 194.107 319.107C195.67 317.545 197.79 316.667 200 316.667C202.21 316.667 204.33 317.545 205.893 319.107C207.455 320.67 208.333 322.79 208.333 325ZM200 258.333C197.79 258.333 195.67 257.455 194.107 255.893C192.545 254.33 191.667 252.21 191.667 250V241.667C191.667 239.457 192.545 237.337 194.107 235.774C195.67 234.211 197.79 233.333 200 233.333C202.21 233.333 204.33 234.211 205.893 235.774C207.455 237.337 208.333 239.457 208.333 241.667V250C208.333 252.21 207.455 254.33 205.893 255.893C204.33 257.455 202.21 258.333 200 258.333Z" fill="white"/>
</svg>
