<svg width="500" height="500" viewBox="0 0 500 500" fill="none" xmlns="http://www.w3.org/2000/svg">
<g clip-path="url(#clip0_454_256)">
<path d="M250.083 484.535C203.406 484.535 154.601 468.391 105.029 436.546L97.1094 448.875C149.081 482.262 200.549 499.187 250.083 499.187C300.826 499.187 353.53 481.457 406.733 446.487L398.684 434.242C347.91 467.613 297.915 484.535 250.083 484.535Z" fill="white"/>
<path d="M19.5847 364.878C28.6713 354.99 51.9104 331.064 84.4765 307.291C123.272 278.963 183.498 245.199 250.084 245.199C263.657 245.199 277.626 246.603 291.603 249.365L294.445 234.991C279.533 232.042 264.606 230.547 250.084 230.547C179.546 230.547 116.394 265.844 75.8362 295.454C32.1426 327.352 5.30243 358.808 4.17709 360.132L0 364.878L7.59888 373.472C16.9563 383.799 44.8151 412.943 84.6939 440.588L93.0443 428.545C55.7251 402.677 29.4228 375.616 19.5847 364.878Z" fill="white"/>
<path d="M495.986 360.132C495.173 359.171 475.665 336.286 442.874 309.725C412.536 285.15 364.707 252.821 309.15 238.359L305.457 252.539C393.47 275.45 463.077 345.915 480.563 364.874C470.981 375.292 445.746 401.224 410.59 426.115L419.059 438.074C465.804 404.978 494.777 371.031 495.986 369.604L499.999 364.866L495.986 360.132Z" fill="white"/>
<path d="M145.07 364.866C145.07 422.77 192.178 469.881 250.085 469.881C307.988 469.881 355.1 422.77 355.1 364.866C355.1 306.959 307.988 259.852 250.085 259.852C192.178 259.852 145.07 306.959 145.07 364.866ZM340.448 364.866C340.448 414.69 299.909 455.229 250.085 455.229C200.258 455.229 159.723 414.69 159.723 364.866C159.723 315.039 200.258 274.504 250.085 274.504C299.909 274.504 340.448 315.039 340.448 364.866Z" fill="white"/>
<path d="M291.339 326.792L302.1 316.847C298.403 312.849 294.249 309.271 289.752 306.223L281.523 318.346C285.098 320.772 288.401 323.614 291.339 326.792Z" fill="white"/>
<path d="M179.262 364.867C179.262 403.918 211.031 435.69 250.085 435.69C289.136 435.69 320.909 403.918 320.909 364.867C320.909 352.648 317.731 340.59 311.719 330L298.975 337.233C303.739 345.621 306.257 355.177 306.257 364.867C306.257 395.838 281.057 421.038 250.085 421.038C219.11 421.038 193.914 395.838 193.914 364.867C193.914 333.891 219.11 308.695 250.085 308.695C256.967 308.695 263.689 309.931 270.063 312.365L275.293 298.678C267.24 295.603 258.76 294.043 250.085 294.043C211.031 294.043 179.262 325.812 179.262 364.867Z" fill="white"/>
<path d="M417.617 236.791L400.821 219.991L390.456 230.355L424.945 264.84L459.434 230.355L449.069 219.991L432.273 236.791V97.6914H374.148V112.344H417.617V236.791Z" fill="white"/>
<path d="M51.2852 211.496H65.9412V226.152H51.2852V211.496Z" fill="white"/>
<path d="M65.9412 112.344H103.447L86.6474 129.14L97.0081 139.505L131.497 105.016L97.0081 70.5273L86.6474 80.8919L103.447 97.6918H51.2852V196.843H65.9412V112.344Z" fill="white"/>
<path d="M51.2852 240.805H65.9412V255.457H51.2852V240.805Z" fill="white"/>
<path d="M250.085 210.03C307.988 210.03 355.1 162.922 355.1 105.015C355.1 86.113 350.019 67.5774 340.41 51.4183L327.813 58.9066C336.076 72.8035 340.444 88.7489 340.448 105.015C340.448 154.842 299.909 195.377 250.085 195.377C200.258 195.377 159.723 154.842 159.723 105.015C159.723 55.191 200.258 14.6523 250.085 14.6523C267.942 14.6523 285.211 19.8517 300.016 29.6898L308.126 17.4866C290.906 6.0463 270.837 0 250.085 0C192.178 0 145.07 47.1115 145.07 105.015C145.07 162.922 192.178 210.03 250.085 210.03Z" fill="white"/>
<path d="M320.042 47.8163L331.383 38.5351C328.068 34.4877 324.421 30.654 320.541 27.1406L310.707 38.0049C314.049 41.0299 317.188 44.3297 320.042 47.8163Z" fill="white"/>
<path d="M279.878 169.003V134.812H314.069V75.2224H279.878V41.0312H220.289V75.2224H186.098V134.812H220.289V169.003H279.878ZM200.75 120.156V89.8746H234.941V55.6835H265.226V89.8746H299.417V120.156H265.226V154.347H234.941V120.156H200.75Z" fill="white"/>
<path d="M421.769 330.457L412.633 341.913C423.741 350.774 434.533 360.269 444.711 370.134L454.907 359.609C444.394 349.424 433.247 339.612 421.769 330.457Z" fill="white"/>
<path d="M389.523 324.726C393.407 327.404 397.34 330.227 401.223 333.115L409.966 321.358C405.95 318.367 401.868 315.441 397.847 312.668L389.523 324.726Z" fill="white"/>
<path d="M250.082 338C264.894 338 276.945 350.054 276.945 364.867H291.597C291.597 341.971 272.974 323.348 250.082 323.348V338Z" fill="white"/>
</g>
<defs>
<clipPath id="clip0_454_256">
<rect width="500" height="500" fill="white"/>
</clipPath>
</defs>
</svg>
