<svg width="820" height="656" viewBox="0 0 820 656" fill="none" xmlns="http://www.w3.org/2000/svg">
<rect width="820" height="656" fill="white"/>
<path d="M422.75 299.306V276.292H413.673V270.944H438.386V276.292H429.31V299.306H422.745H422.75Z" fill="#02467E"/>
<path d="M436.767 299.306L449.407 270.944H455.887L468.567 299.306H461.681L451.311 274.267H453.902L443.488 299.306H436.762H436.767ZM443.087 293.227L444.831 288.245H459.415L461.199 293.227H443.092H443.087Z" fill="#02467E"/>
<path d="M480.845 299.793C478.574 299.793 476.399 299.487 474.325 298.881C472.245 298.274 470.571 297.482 469.303 296.51L471.533 291.568C472.751 292.43 474.184 293.142 475.848 293.693C477.507 294.25 479.191 294.525 480.89 294.525C482.188 294.525 483.23 294.4 484.027 294.139C484.824 293.884 485.41 293.523 485.791 293.067C486.167 292.606 486.358 292.08 486.358 291.488C486.358 290.731 486.062 290.13 485.466 289.684C484.869 289.238 484.087 288.872 483.115 288.591C482.143 288.306 481.07 288.04 479.893 287.78C478.72 287.524 477.542 287.208 476.369 286.827C475.197 286.451 474.119 285.965 473.147 285.369C472.174 284.778 471.383 283.991 470.776 283.018C470.17 282.046 469.864 280.803 469.864 279.29C469.864 277.671 470.305 276.192 471.182 274.854C472.059 273.516 473.382 272.449 475.151 271.652C476.921 270.855 479.141 270.459 481.817 270.459C483.601 270.459 485.355 270.669 487.084 271.085C488.814 271.506 490.337 272.133 491.66 272.97L489.635 277.952C488.312 277.195 486.989 276.633 485.666 276.268C484.343 275.902 483.045 275.721 481.777 275.721C480.509 275.721 479.467 275.872 478.66 276.167C477.848 276.463 477.266 276.849 476.916 277.32C476.565 277.791 476.389 278.337 476.389 278.959C476.389 279.691 476.685 280.277 477.281 280.723C477.873 281.169 478.66 281.525 479.632 281.796C480.604 282.066 481.677 282.337 482.855 282.607C484.027 282.878 485.205 283.189 486.378 283.54C487.551 283.89 488.628 284.362 489.6 284.958C490.573 285.554 491.364 286.336 491.971 287.308C492.577 288.281 492.883 289.509 492.883 290.997C492.883 292.591 492.437 294.049 491.545 295.372C490.653 296.695 489.325 297.763 487.556 298.575C485.786 299.387 483.551 299.788 480.85 299.788L480.845 299.793Z" fill="#02467E"/>
<path d="M503.939 299.306H497.374V270.944H503.939V299.306ZM517.311 287.679H503.453V282.131H517.311V287.679ZM516.825 270.944H523.39V299.306H516.825V270.944Z" fill="#02467E"/>
<path d="M530.111 299.306V270.944H536.636V299.306H530.111ZM535.985 292.826L535.619 285.248L549.191 270.944H556.483L544.249 284.11L540.6 287.999L535.98 292.821L535.985 292.826ZM549.516 299.306L539.428 286.947L543.723 282.286L557.174 299.301H549.516V299.306Z" fill="#02467E"/>
<path d="M566.612 294.038H582.048V299.306H560.091V270.944H581.522V276.212H566.612V294.038ZM566.125 282.371H579.777V287.478H566.125V282.371Z" fill="#02467E"/>
<path d="M587.275 299.306V270.944H592.702L609.432 291.362H606.8V270.944H613.28V299.306H607.893L591.119 278.888H593.75V299.306H587.27H587.275Z" fill="#02467E"/>
<path d="M625.88 299.306V276.292H616.804V270.944H641.517V276.292H632.441V299.306H625.875H625.88Z" fill="#02467E"/>
<path d="M416.876 347.921V319.56H423.442V347.921H416.876Z" fill="#02467E"/>
<path d="M430.162 347.921V319.56H435.59L452.319 339.977H449.688V319.56H456.168V347.921H450.781L434.006 327.503H436.637V347.921H430.157H430.162Z" fill="#02467E"/>
<path d="M468.772 347.921V324.907H459.696V319.56H484.409V324.907H475.332V347.921H468.767H468.772Z" fill="#02467E"/>
<path d="M494.457 342.654H509.893V347.921H487.937V319.56H509.367V324.827H494.457V342.654ZM493.971 330.986H507.623V336.093H493.971V330.986Z" fill="#02467E"/>
<path d="M515.121 347.921V319.56H527.395C529.931 319.56 532.121 319.971 533.96 320.797C535.795 321.619 537.213 322.802 538.215 324.341C539.213 325.879 539.714 327.719 539.714 329.849C539.714 331.979 539.213 333.773 538.215 335.296C537.218 336.82 535.8 337.993 533.96 338.8C532.121 339.612 529.936 340.018 527.395 340.018H518.765L521.682 337.141V347.916H515.116L515.121 347.921ZM521.687 337.873L518.77 334.795H527.034C529.059 334.795 530.572 334.354 531.57 333.477C532.567 332.6 533.068 331.392 533.068 329.854C533.068 328.315 532.567 327.072 531.57 326.205C530.572 325.343 529.059 324.907 527.034 324.907H518.77L521.687 321.79V337.873ZM533.153 347.921L526.062 337.632H533.073L540.245 347.921H533.153Z" fill="#02467E"/>
<path d="M544.896 347.921V319.56H550.323L567.053 339.977H564.421V319.56H570.902V347.921H565.514L548.74 327.503H551.371V347.921H544.891H544.896Z" fill="#02467E"/>
<path d="M573.903 347.921L586.543 319.56H593.023L605.703 347.921H598.817L588.448 322.882H591.039L580.624 347.921H573.898H573.903ZM580.223 341.842L581.967 336.86H596.551L598.336 341.842H580.228H580.223Z" fill="#02467E"/>
<path d="M613.121 347.921V324.907H604.044V319.56H628.757V324.907H619.681V347.921H613.116H613.121Z" fill="#02467E"/>
<path d="M632.28 347.921V319.56H638.846V347.921H632.28Z" fill="#02467E"/>
<path d="M659.344 348.407C657.103 348.407 655.028 348.041 653.124 347.314C651.22 346.583 649.571 345.56 648.182 344.237C646.789 342.914 645.712 341.36 644.94 339.576C644.168 337.792 643.787 335.847 643.787 333.742C643.787 331.638 644.173 329.693 644.94 327.909C645.712 326.125 646.799 324.571 648.202 323.248C649.606 321.925 651.255 320.897 653.144 320.171C655.033 319.439 657.088 319.078 659.304 319.078C661.519 319.078 663.604 319.444 665.483 320.171C667.362 320.902 668.991 321.925 670.384 323.248C671.778 324.571 672.86 326.12 673.647 327.889C674.429 329.658 674.82 331.607 674.82 333.742C674.82 335.877 674.429 337.802 673.647 339.596C672.865 341.39 671.778 342.944 670.384 344.257C668.991 345.565 667.357 346.588 665.483 347.314C663.604 348.046 661.559 348.407 659.344 348.407ZM659.304 342.814C660.571 342.814 661.739 342.598 662.807 342.167C663.874 341.736 664.811 341.115 665.623 340.303C666.435 339.491 667.062 338.534 667.508 337.426C667.954 336.319 668.174 335.091 668.174 333.737C668.174 332.384 667.954 331.156 667.508 330.049C667.062 328.941 666.44 327.984 665.643 327.172C664.846 326.36 663.909 325.739 662.827 325.308C661.744 324.877 660.571 324.661 659.304 324.661C658.036 324.661 656.868 324.877 655.8 325.308C654.733 325.739 653.796 326.36 652.984 327.172C652.172 327.984 651.545 328.941 651.099 330.049C650.653 331.156 650.433 332.384 650.433 333.737C650.433 335.091 650.653 336.283 651.099 337.406C651.545 338.529 652.167 339.491 652.964 340.303C653.761 341.115 654.698 341.736 655.78 342.167C656.863 342.598 658.036 342.814 659.304 342.814Z" fill="#02467E"/>
<path d="M679.762 347.921V319.56H685.19L701.919 339.977H699.288V319.56H705.768V347.921H700.38L683.606 327.503H686.237V347.921H679.757H679.762Z" fill="#02467E"/>
<path d="M708.769 347.921L721.409 319.56H727.889L740.569 347.921H733.683L723.313 322.882H725.904L715.49 347.921H708.764H708.769ZM715.089 341.842L716.833 336.86H731.417L733.201 341.842H715.094H715.089Z" fill="#02467E"/>
<path d="M743.531 347.921V319.56H750.097V342.574H764.315V347.921H743.531Z" fill="#02467E"/>
<path d="M430.447 397.022C428.257 397.022 426.227 396.666 424.348 395.95C422.469 395.233 420.845 394.215 419.467 392.892C418.088 391.569 417.016 390.016 416.244 388.231C415.472 386.447 415.091 384.493 415.091 382.358C415.091 380.223 415.477 378.268 416.244 376.484C417.016 374.7 418.093 373.151 419.487 371.823C420.875 370.5 422.504 369.483 424.368 368.766C426.232 368.049 428.272 367.693 430.487 367.693C432.943 367.693 435.168 368.119 437.153 368.971C439.138 369.823 440.807 371.071 442.155 372.72L437.94 376.609C436.968 375.502 435.885 374.67 434.697 374.118C433.509 373.567 432.211 373.286 430.808 373.286C429.485 373.286 428.267 373.502 427.16 373.933C426.052 374.364 425.095 374.985 424.283 375.797C423.471 376.609 422.844 377.566 422.398 378.674C421.952 379.782 421.732 381.01 421.732 382.363C421.732 383.716 421.952 384.944 422.398 386.051C422.844 387.159 423.471 388.116 424.283 388.928C425.095 389.74 426.052 390.361 427.16 390.792C428.267 391.223 429.48 391.439 430.808 391.439C432.211 391.439 433.509 391.163 434.697 390.607C435.885 390.056 436.968 389.209 437.94 388.076L442.155 391.965C440.802 393.614 439.138 394.867 437.153 395.734C435.168 396.596 432.933 397.032 430.447 397.032V397.022Z" fill="#7EC3EA"/>
<path d="M446.57 396.54V368.179H453.136V391.193H467.354V396.54H446.57Z" fill="#7EC3EA"/>
<path d="M471.042 396.54V368.179H477.607V396.54H471.042Z" fill="#7EC3EA"/>
<path d="M484.33 396.54V368.179H489.757L506.487 388.597H503.855V368.179H510.336V396.54H504.948L488.174 376.122H490.805V396.54H484.325H484.33Z" fill="#7EC3EA"/>
<path d="M517.066 396.54V368.179H523.631V396.54H517.066Z" fill="#7EC3EA"/>
<path d="M543.924 397.022C541.734 397.022 539.704 396.666 537.825 395.95C535.945 395.233 534.321 394.215 532.943 392.892C531.565 391.569 530.492 390.016 529.721 388.231C528.949 386.447 528.568 384.493 528.568 382.358C528.568 380.223 528.954 378.268 529.721 376.484C530.492 374.7 531.57 373.151 532.963 371.823C534.351 370.5 535.98 369.483 537.845 368.766C539.709 368.049 541.749 367.693 543.964 367.693C546.42 367.693 548.645 368.119 550.63 368.971C552.614 369.823 554.283 371.071 555.631 372.72L551.416 376.609C550.444 375.502 549.362 374.67 548.174 374.118C546.986 373.567 545.688 373.286 544.285 373.286C542.962 373.286 541.744 373.502 540.636 373.933C539.529 374.364 538.571 374.985 537.759 375.797C536.948 376.609 536.321 377.566 535.875 378.674C535.429 379.782 535.208 381.01 535.208 382.363C535.208 383.716 535.429 384.944 535.875 386.051C536.321 387.159 536.948 388.116 537.759 388.928C538.571 389.74 539.529 390.361 540.636 390.792C541.744 391.223 542.957 391.439 544.285 391.439C545.688 391.439 546.986 391.163 548.174 390.607C549.362 390.056 550.444 389.209 551.416 388.076L555.631 391.965C554.278 393.614 552.614 394.867 550.63 395.734C548.645 396.596 546.41 397.032 543.924 397.032V397.022Z" fill="#7EC3EA"/>
<path opacity="0.58" d="M252.86 334.863C252.86 295.696 282.936 267.66 323.401 267.66C345.863 267.66 364.612 275.829 376.866 290.679L357.561 308.501C348.835 298.477 337.885 293.28 324.889 293.28C300.572 293.28 283.307 310.36 283.307 334.863C283.307 359.365 300.572 376.445 324.889 376.445C337.885 376.445 348.835 371.248 357.561 361.039L376.866 378.861C364.612 393.896 345.863 402.065 323.215 402.065C282.931 402.065 252.86 374.034 252.86 334.863Z" fill="url(#paint0_linear_641_49)"/>
<path opacity="0.58" d="M96.9906 295.845H54.1201V270.581H170.869V295.845H127.998V404.555H96.9906V295.845Z" fill="url(#paint1_linear_641_49)"/>
<path d="M241.043 307.514C243.113 302.728 246.751 302.211 248.22 302.211C248.721 302.211 249.297 302.261 249.919 302.417C247.057 299.274 243.649 297.45 239.99 297.45C236.753 297.45 233.716 298.879 231.069 301.394C232.027 302.738 232.944 304.161 233.826 305.664C235.45 308.451 236.903 311.448 238.166 314.62C238.592 315.673 238.988 316.745 239.369 317.838C239.233 316.54 239.228 315.252 239.349 313.974C239.549 311.804 240.111 309.654 241.038 307.514H241.043Z" fill="url(#paint2_linear_641_49)"/>
<path d="M243.198 364.176C244.115 363.499 244.957 362.758 245.699 361.981C249.107 358.402 252.059 354.238 254.735 349.201L254.444 348.544L253.552 346.54C253.197 345.743 252.886 344.976 252.585 344.239C252.009 342.836 251.513 341.623 250.921 340.631C249.628 338.466 248.245 336.371 246.781 334.151C245.769 332.622 244.727 331.038 243.714 329.435C242.942 328.207 242.271 326.994 241.705 325.791C243.444 333.023 244.356 340.816 244.356 348.82C244.356 352.559 244.155 356.257 243.764 359.866C243.609 361.314 243.424 362.758 243.208 364.181L243.198 364.176Z" fill="url(#paint3_linear_641_49)"/>
<path d="M239.991 293.305C245.845 293.305 250.591 288.559 250.591 282.705C250.591 276.851 245.845 272.105 239.991 272.105C234.137 272.105 229.391 276.851 229.391 282.705C229.391 288.559 234.137 293.305 239.991 293.305Z" fill="url(#paint4_linear_641_49)"/>
<path d="M173.776 312.474C174.819 310.088 175.972 307.808 177.225 305.658C178.102 304.154 179.019 302.731 179.981 301.388C177.34 298.877 174.298 297.443 171.06 297.443C167.407 297.443 163.999 299.268 161.132 302.41C161.753 302.255 162.33 302.2 162.831 302.2C164.299 302.2 167.938 302.716 170.008 307.502C170.559 308.785 170.985 310.063 171.276 311.356C171.767 313.491 171.902 315.641 171.677 317.826C172.313 315.987 173.015 314.198 173.771 312.464L173.776 312.474Z" fill="url(#paint5_linear_641_49)"/>
<path d="M167.346 329.431C166.333 331.034 165.291 332.618 164.283 334.147C162.82 336.362 161.432 338.462 160.139 340.627C159.542 341.619 159.051 342.832 158.475 344.235C158.174 344.972 157.863 345.739 157.507 346.536L156.615 348.54L156.325 349.197C159.001 354.234 161.958 358.404 165.361 361.982C166.103 362.759 166.945 363.501 167.862 364.177C167.641 362.754 167.456 361.315 167.305 359.862C166.915 356.254 166.714 352.555 166.714 348.816C166.714 340.807 167.626 333.019 169.365 325.787C168.799 326.99 168.127 328.203 167.356 329.431H167.346Z" fill="url(#paint6_linear_641_49)"/>
<path opacity="0.58" d="M214.446 358.389C216.521 353.868 218.671 349.192 221.929 344.882C222.405 344.25 222.921 343.604 223.482 342.972C224.244 342.115 225.091 341.279 226.063 340.527C227.271 339.59 228.674 338.788 230.323 338.241C231.351 337.901 232.393 337.73 233.421 337.73C235.32 337.73 237.049 338.307 238.457 339.324C237.721 331.761 236.112 324.7 233.821 318.455C232.087 313.724 229.957 309.459 227.512 305.795C221.638 296.99 213.945 291.657 205.53 291.657C197.115 291.657 189.417 296.995 183.544 305.795C181.504 308.853 179.685 312.326 178.131 316.145C175.359 322.941 173.43 330.814 172.603 339.324C174.011 338.307 175.745 337.73 177.64 337.73C178.667 337.73 179.71 337.901 180.737 338.241C183.027 338.993 184.827 340.241 186.315 341.654C186.766 342.08 187.187 342.521 187.578 342.967C188.139 343.604 188.656 344.25 189.132 344.877C192.394 349.187 194.539 353.863 196.614 358.384C196.965 359.15 197.321 359.917 197.677 360.684C200.503 366.728 201.877 373.048 201.877 379.999C201.877 385.587 200.964 391.677 199.075 398.608C198.564 400.477 197.998 402.362 197.376 404.256C199.987 405.374 202.719 405.97 205.53 405.97C208.342 405.97 211.073 405.374 213.684 404.256C213.058 402.357 212.492 400.477 211.985 398.608C210.096 391.672 209.179 385.587 209.184 379.999C209.184 373.048 210.562 366.723 213.389 360.684C213.744 359.917 214.095 359.15 214.451 358.384L214.446 358.389Z" fill="url(#paint7_linear_641_49)"/>
<path opacity="0.58" d="M205.53 284.42C216.14 284.42 224.74 275.82 224.74 265.21C224.74 254.6 216.14 246 205.53 246C194.92 246 186.32 254.6 186.32 265.21C186.32 275.82 194.92 284.42 205.53 284.42Z" fill="url(#paint8_linear_641_49)"/>
<path d="M250.205 308.812C250.17 308.772 250.14 308.737 250.105 308.702C250.07 308.662 250.03 308.622 249.995 308.582C249.955 308.542 249.92 308.507 249.884 308.471C249.859 308.446 249.834 308.421 249.809 308.401C249.774 308.366 249.744 308.336 249.709 308.311C249.478 308.106 249.243 307.95 249.017 307.845C248.987 307.83 248.952 307.815 248.922 307.8C248.887 307.785 248.857 307.775 248.827 307.76C248.772 307.74 248.717 307.72 248.662 307.71C248.606 307.695 248.556 307.685 248.501 307.675C248.481 307.67 248.466 307.665 248.451 307.665C248.451 307.665 248.446 307.665 248.441 307.665C248.411 307.665 248.381 307.66 248.356 307.655C248.316 307.65 248.271 307.645 248.231 307.645C248.175 307.645 248.125 307.645 248.07 307.655C247.965 307.665 247.86 307.685 247.759 307.72C247.754 307.72 247.744 307.725 247.739 307.725C247.694 307.74 247.654 307.76 247.609 307.775C247.559 307.795 247.509 307.82 247.464 307.845C247.419 307.87 247.379 307.895 247.333 307.92C247.283 307.955 247.228 307.995 247.173 308.035C247.128 308.076 247.078 308.111 247.033 308.156C246.988 308.196 246.938 308.241 246.897 308.291C246.852 308.341 246.807 308.391 246.762 308.441C246.677 308.547 246.587 308.662 246.507 308.787C246.466 308.852 246.426 308.918 246.386 308.983C246.361 309.028 246.336 309.073 246.311 309.118C246.286 309.158 246.266 309.203 246.241 309.248C246.171 309.379 246.106 309.519 246.045 309.664C245.584 310.732 245.254 311.784 245.038 312.817C244.958 313.188 244.898 313.563 244.848 313.929C244.848 313.944 244.843 313.964 244.843 313.979C244.808 314.22 244.787 314.45 244.767 314.686C244.757 314.786 244.752 314.887 244.747 314.992C244.742 315.072 244.737 315.157 244.737 315.242C244.732 315.328 244.727 315.418 244.727 315.503C244.722 315.698 244.727 315.899 244.727 316.094C244.727 316.19 244.732 316.285 244.737 316.38C244.742 316.52 244.752 316.661 244.757 316.806C244.772 317.087 244.803 317.372 244.838 317.653L244.893 318.074C244.913 318.214 244.938 318.355 244.963 318.49C244.988 318.63 245.013 318.771 245.043 318.911C245.083 319.096 245.123 319.277 245.168 319.462C245.188 319.552 245.213 319.648 245.239 319.738C245.264 319.833 245.289 319.923 245.314 320.014C245.429 320.445 245.564 320.871 245.715 321.297C245.795 321.522 245.88 321.743 245.965 321.963C246.01 322.073 246.05 322.184 246.101 322.294C246.216 322.57 246.331 322.845 246.461 323.121C246.587 323.396 246.717 323.667 246.857 323.943C246.912 324.053 246.968 324.163 247.023 324.268C247.133 324.489 247.253 324.705 247.369 324.925C247.669 325.466 247.99 326.008 248.326 326.544C250.711 330.333 253.297 334.001 255.598 337.845C255.643 337.925 255.693 338.006 255.738 338.086C255.783 338.161 255.828 338.241 255.868 338.316C255.954 338.477 256.039 338.637 256.124 338.798C256.204 338.953 256.284 339.108 256.36 339.269C256.4 339.344 256.435 339.419 256.47 339.494C256.595 339.755 256.715 340.02 256.836 340.291C256.901 340.441 256.966 340.592 257.031 340.742C257.051 340.782 257.066 340.822 257.081 340.857C257.171 341.073 257.262 341.283 257.347 341.494C257.442 341.734 257.542 341.97 257.638 342.211C257.708 342.376 257.773 342.546 257.843 342.717C258.064 343.253 258.289 343.794 258.535 344.341C258.921 343.574 259.281 342.817 259.607 342.075C259.717 341.83 259.823 341.584 259.928 341.338C259.998 341.178 260.063 341.018 260.128 340.852C260.194 340.687 260.259 340.532 260.324 340.366C260.364 340.266 260.404 340.171 260.439 340.071C260.514 339.88 260.584 339.69 260.655 339.499C260.725 339.309 260.79 339.123 260.855 338.933C260.895 338.828 260.93 338.717 260.965 338.612C261 338.512 261.031 338.417 261.061 338.321C261.116 338.156 261.166 337.991 261.216 337.83C261.281 337.63 261.341 337.424 261.401 337.224C261.462 337.018 261.517 336.818 261.567 336.617C261.592 336.522 261.617 336.432 261.642 336.337C261.757 335.871 261.863 335.41 261.953 334.954C261.953 334.954 261.953 334.952 261.953 334.949C261.978 334.823 262.003 334.698 262.023 334.578C262.068 334.347 262.103 334.112 262.138 333.881C262.193 333.525 262.238 333.174 262.273 332.824C262.329 332.277 262.369 331.736 262.379 331.205C262.379 331.054 262.384 330.904 262.384 330.754C262.384 330.493 262.379 330.232 262.369 329.972C262.364 329.842 262.359 329.716 262.349 329.591C262.339 329.461 262.334 329.335 262.324 329.21C262.319 329.125 262.309 329.04 262.299 328.954C262.289 328.844 262.278 328.729 262.263 328.614C262.253 328.503 262.238 328.388 262.223 328.278C262.193 328.052 262.158 327.827 262.118 327.606C262.108 327.546 262.098 327.486 262.083 327.426C262.073 327.351 262.058 327.281 262.043 327.205C262.023 327.11 262.003 327.01 261.983 326.915C261.968 326.85 261.958 326.779 261.938 326.714C261.913 326.594 261.883 326.474 261.852 326.348C261.817 326.218 261.787 326.088 261.752 325.957C261.682 325.697 261.607 325.436 261.522 325.176C261.472 325.015 261.416 324.85 261.356 324.689C261.291 324.494 261.216 324.299 261.141 324.108C261.101 324.013 261.066 323.918 261.026 323.817C260.96 323.657 260.89 323.492 260.82 323.331C260.775 323.226 260.725 323.116 260.68 323.011C260.63 322.9 260.579 322.785 260.524 322.675C260.464 322.544 260.399 322.419 260.334 322.289C260.299 322.219 260.264 322.149 260.229 322.078C260.148 321.918 260.063 321.763 259.973 321.602C259.808 321.292 259.627 320.986 259.437 320.675C259.382 320.58 259.327 320.485 259.266 320.394C259.186 320.264 259.106 320.139 259.021 320.014C258.845 319.743 258.665 319.472 258.475 319.202C258.394 319.086 258.314 318.971 258.229 318.856C258.084 318.645 257.928 318.445 257.773 318.239C257.562 317.964 257.352 317.693 257.141 317.422C257.121 317.397 257.101 317.367 257.081 317.342C256.911 317.122 256.741 316.901 256.565 316.681C256.189 316.195 255.808 315.713 255.422 315.232C255.152 314.897 254.886 314.556 254.616 314.22C254.33 313.869 254.044 313.513 253.764 313.162C252.626 311.754 251.473 310.351 250.32 308.948C250.285 308.907 250.255 308.867 250.22 308.832L250.205 308.812Z" fill="url(#paint9_linear_641_49)"/>
<path d="M150.943 321.873C150.858 322.033 150.778 322.193 150.697 322.354C150.617 322.514 150.537 322.675 150.467 322.835C150.407 322.965 150.347 323.091 150.291 323.221C150.141 323.562 150.001 323.897 149.876 324.243C149.845 324.323 149.815 324.404 149.79 324.484C149.705 324.709 149.63 324.94 149.56 325.165C149.515 325.296 149.48 325.426 149.439 325.556C149.219 326.293 149.049 327.04 148.928 327.792C148.913 327.882 148.898 327.972 148.888 328.062C148.868 328.188 148.853 328.313 148.838 328.443C148.818 328.583 148.803 328.724 148.793 328.864C148.778 328.979 148.768 329.09 148.758 329.205C148.748 329.335 148.738 329.461 148.733 329.586C148.723 329.716 148.718 329.841 148.713 329.972C148.708 330.097 148.703 330.217 148.703 330.338C148.703 330.473 148.698 330.608 148.698 330.744C148.698 330.924 148.698 331.094 148.708 331.27C148.718 331.751 148.748 332.232 148.798 332.713C148.823 332.974 148.853 333.239 148.888 333.5C148.908 333.64 148.928 333.776 148.948 333.916C149.049 334.588 149.189 335.269 149.349 335.966C149.384 336.101 149.419 336.241 149.455 336.382C149.49 336.517 149.525 336.657 149.565 336.803C149.615 336.988 149.665 337.169 149.72 337.354C149.745 337.444 149.77 337.524 149.795 337.61C149.84 337.765 149.891 337.915 149.936 338.071C149.986 338.221 150.036 338.376 150.086 338.527C150.231 338.958 150.387 339.394 150.552 339.83C150.602 339.965 150.657 340.105 150.712 340.241C150.858 340.612 151.013 340.988 151.174 341.363C151.209 341.449 151.249 341.539 151.284 341.624C151.665 342.506 152.091 343.408 152.552 344.33C152.797 343.784 153.018 343.243 153.243 342.707C153.499 342.08 153.75 341.459 154.005 340.857C154.02 340.817 154.035 340.787 154.05 340.752C154.136 340.552 154.226 340.351 154.311 340.151C154.436 339.87 154.567 339.584 154.702 339.309C154.812 339.088 154.922 338.868 155.038 338.647C155.183 338.371 155.338 338.101 155.494 337.835C157.789 333.991 160.375 330.323 162.766 326.534C162.966 326.213 163.167 325.887 163.352 325.566C163.477 325.351 163.603 325.135 163.723 324.92C164.324 323.832 164.841 322.74 165.252 321.627C165.377 321.291 165.492 320.961 165.597 320.625C165.647 320.469 165.693 320.309 165.738 320.154C165.763 320.048 165.793 319.943 165.823 319.843C165.853 319.723 165.883 319.602 165.913 319.482C165.998 319.121 166.078 318.76 166.139 318.395C166.224 317.908 166.284 317.422 166.319 316.926C166.354 316.465 166.369 315.999 166.359 315.528C166.359 315.428 166.359 315.332 166.349 315.237C166.344 315.142 166.339 315.042 166.334 314.946C166.324 314.801 166.314 314.656 166.299 314.51C166.284 314.365 166.274 314.22 166.254 314.069C166.244 313.974 166.229 313.874 166.214 313.779C166.199 313.684 166.189 313.583 166.169 313.483C166.119 313.162 166.053 312.837 165.978 312.511C165.963 312.441 165.943 312.37 165.928 312.295C165.878 312.095 165.828 311.894 165.768 311.689C165.738 311.589 165.713 311.493 165.678 311.388C165.647 311.288 165.612 311.188 165.582 311.087C165.542 310.972 165.502 310.852 165.462 310.737C165.422 310.621 165.377 310.501 165.332 310.386C165.242 310.145 165.146 309.915 165.041 309.674C164.976 309.529 164.911 309.388 164.846 309.263C164.826 309.218 164.8 309.178 164.775 309.133C164.555 308.727 164.309 308.401 164.049 308.166C164.004 308.121 163.954 308.085 163.908 308.045C163.868 308.01 163.828 307.98 163.783 307.95C163.773 307.945 163.763 307.935 163.753 307.93C163.718 307.91 163.683 307.885 163.648 307.865C163.628 307.85 163.608 307.845 163.588 307.83C163.553 307.815 163.517 307.795 163.482 307.78C163.437 307.76 163.387 307.74 163.337 307.725C163.317 307.715 163.302 307.71 163.282 307.71C163.282 307.71 163.277 307.71 163.272 307.71C163.237 307.7 163.197 307.69 163.162 307.684C163.112 307.674 163.056 307.664 163.006 307.659C162.956 307.649 162.901 307.649 162.846 307.649C162.836 307.649 162.821 307.649 162.811 307.649C162.781 307.649 162.756 307.649 162.726 307.654C162.686 307.654 162.645 307.659 162.6 307.669C162.305 307.715 161.999 307.84 161.693 308.05C161.648 308.08 161.608 308.116 161.563 308.146C161.518 308.181 161.473 308.216 161.428 308.251C161.367 308.301 161.302 308.356 161.242 308.416C161.217 308.441 161.187 308.466 161.162 308.496C161.027 308.627 160.891 308.772 160.761 308.932C159.037 311.037 157.308 313.142 155.614 315.272C155.348 315.608 155.083 315.944 154.822 316.28C154.777 316.33 154.742 316.38 154.702 316.435C154.446 316.761 154.191 317.087 153.94 317.412C153.73 317.683 153.524 317.954 153.314 318.224C153.158 318.43 153.003 318.63 152.858 318.836C152.752 318.981 152.647 319.126 152.547 319.272C152.026 320.018 151.554 320.77 151.143 321.517C151.078 321.632 151.013 321.747 150.953 321.868L150.943 321.873Z" fill="url(#paint10_linear_641_49)"/>
<path d="M263.802 384.626C262.764 385.754 261.391 387.182 259.968 388.64C249.809 399.045 236.879 406.387 222.676 409.484C222.27 409.574 221.859 409.66 221.453 409.74C221.252 409.239 221.057 408.737 220.861 408.236C220.681 407.77 220.51 407.304 220.335 406.838C220.039 406.051 219.759 405.254 219.483 404.457C219.418 404.277 219.358 404.097 219.298 403.916C219.182 403.58 219.072 403.25 218.962 402.914C218.806 402.448 218.651 401.977 218.506 401.505C218.396 401.145 218.28 400.789 218.17 400.433C218.125 400.293 218.085 400.152 218.04 400.012C217.759 399.075 217.488 398.133 217.228 397.185C214.095 385.688 213.033 374.267 218.305 362.985C218.751 362.028 219.192 361.071 219.628 360.108C219.824 359.687 220.014 359.271 220.21 358.856C220.425 358.399 220.636 357.943 220.851 357.482C220.982 357.207 221.112 356.931 221.247 356.655C221.613 355.894 221.994 355.142 222.385 354.395C222.51 354.154 222.64 353.914 222.766 353.673C222.931 353.368 223.102 353.062 223.272 352.761C223.442 352.455 223.618 352.155 223.793 351.854C223.878 351.704 223.969 351.553 224.064 351.403C224.139 351.273 224.219 351.147 224.299 351.022C224.415 350.832 224.53 350.646 224.65 350.461C224.685 350.406 224.72 350.356 224.755 350.3C224.916 350.055 225.071 349.814 225.242 349.574C225.372 349.383 225.502 349.198 225.632 349.007C225.658 348.972 225.683 348.937 225.708 348.902C225.783 348.792 225.863 348.687 225.938 348.581C225.983 348.516 226.023 348.461 226.073 348.401C226.134 348.316 226.194 348.236 226.254 348.155C227.787 346.126 229.486 344.231 232.012 343.399C232.253 343.319 232.494 343.259 232.729 343.224C232.804 343.214 232.874 343.204 232.945 343.194C232.995 343.189 233.045 343.184 233.1 343.179C233.32 343.159 233.536 343.159 233.741 343.179C233.927 343.194 234.107 343.224 234.283 343.269C234.323 343.279 234.363 343.289 234.398 343.304C234.458 343.319 234.518 343.339 234.573 343.359C234.639 343.384 234.704 343.409 234.769 343.439C234.799 343.454 234.834 343.464 234.864 343.484C235.024 343.56 235.175 343.655 235.315 343.76C235.37 343.805 235.425 343.845 235.476 343.89C235.531 343.936 235.581 343.986 235.631 344.036C235.681 344.086 235.731 344.136 235.776 344.191C235.801 344.216 235.821 344.246 235.846 344.271C235.881 344.316 235.917 344.357 235.952 344.407C235.987 344.452 236.017 344.502 236.047 344.547C236.087 344.602 236.122 344.662 236.157 344.727C236.202 344.818 236.252 344.908 236.292 345.003C236.307 345.038 236.322 345.078 236.338 345.113C236.353 345.153 236.368 345.188 236.383 345.224C236.408 345.299 236.433 345.374 236.458 345.449C236.493 345.554 236.518 345.665 236.543 345.775C236.568 345.885 236.588 346 236.603 346.116C236.814 347.624 236.733 349.213 236.538 350.731C236.513 350.927 236.488 351.127 236.458 351.328C236.433 351.528 236.403 351.724 236.373 351.924C236.212 352.982 236.027 354.034 235.846 355.087C235.781 355.448 235.721 355.808 235.661 356.174C235.606 356.51 235.551 356.841 235.496 357.172C235.47 357.327 235.445 357.477 235.425 357.628C235.36 358.049 235.3 358.47 235.25 358.891C235.23 359.031 235.21 359.166 235.2 359.307C235.19 359.352 235.185 359.392 235.185 359.437C235.15 359.697 235.125 359.958 235.1 360.219C234.884 362.454 234.839 364.794 235.285 366.975C235.3 367.04 235.31 367.105 235.33 367.165C235.34 367.21 235.35 367.25 235.365 367.295C235.365 367.31 235.37 367.32 235.375 367.335C235.4 367.441 235.43 367.546 235.465 367.646C235.481 367.691 235.491 367.736 235.511 367.781C235.526 367.832 235.546 367.882 235.561 367.927C235.576 367.977 235.596 368.022 235.616 368.067C235.661 368.182 235.706 368.293 235.756 368.403C235.801 368.498 235.851 368.593 235.896 368.684C235.932 368.754 235.967 368.819 236.007 368.884C236.042 368.949 236.082 369.009 236.117 369.069C236.157 369.13 236.197 369.19 236.237 369.245C236.317 369.36 236.403 369.475 236.493 369.586C236.533 369.631 236.573 369.681 236.618 369.726C236.623 369.736 236.633 369.746 236.643 369.756C236.693 369.811 236.743 369.866 236.794 369.921C236.899 370.027 237.004 370.127 237.114 370.222C237.475 370.533 237.871 370.788 238.297 370.974C238.352 370.999 238.407 371.024 238.468 371.049C238.633 371.119 238.803 371.179 238.979 371.224C239.014 371.235 239.044 371.245 239.079 371.25C239.114 371.26 239.144 371.265 239.179 371.275C239.244 371.29 239.304 371.305 239.365 371.315C239.43 371.33 239.49 371.34 239.555 371.35C239.6 371.36 239.64 371.365 239.69 371.37C239.756 371.38 239.821 371.385 239.886 371.39C239.961 371.395 240.031 371.4 240.106 371.405C240.182 371.405 240.257 371.41 240.332 371.41C240.417 371.41 240.502 371.41 240.588 371.4C240.658 371.4 240.723 371.395 240.788 371.385C240.888 371.38 240.993 371.365 241.099 371.35C241.174 371.34 241.254 371.325 241.334 371.31C241.51 371.275 241.685 371.235 241.86 371.179C241.966 371.149 242.076 371.114 242.181 371.074C242.291 371.034 242.407 370.989 242.522 370.939C242.607 370.904 242.692 370.864 242.778 370.824C242.863 370.783 242.948 370.738 243.033 370.693C245.444 369.405 247.759 367.696 249.644 365.722C250.606 364.709 251.528 363.667 252.4 362.594C252.49 362.484 252.576 362.379 252.666 362.269C252.716 362.208 252.766 362.143 252.811 362.083C253.007 361.843 253.197 361.597 253.387 361.356C253.548 361.146 253.708 360.94 253.869 360.73C254.029 360.514 254.189 360.299 254.35 360.078C254.42 359.988 254.485 359.898 254.55 359.803C254.615 359.712 254.681 359.622 254.746 359.527C254.891 359.322 255.041 359.116 255.187 358.906C255.332 358.695 255.472 358.495 255.613 358.279C256.264 357.322 256.886 356.35 257.487 355.362C257.883 354.706 258.269 354.044 258.64 353.378C258.765 353.157 258.89 352.932 259.011 352.706C259.111 352.526 259.211 352.34 259.311 352.16C259.652 351.528 259.983 350.897 260.304 350.255C260.399 350.07 260.494 349.884 260.584 349.699C260.72 349.423 260.86 349.148 260.99 348.867C261.096 348.652 261.201 348.436 261.301 348.221C261.436 347.935 261.572 347.649 261.702 347.364C261.882 346.973 262.063 346.582 262.238 346.191C262.419 345.785 262.599 345.379 262.774 344.968V344.943C262.85 344.778 262.92 344.622 262.99 344.457C263.015 344.402 263.04 344.347 263.06 344.291C263.216 343.926 263.371 343.56 263.521 343.189C263.657 342.853 263.797 342.512 263.932 342.171C266.789 335.02 267.165 327.878 264.579 320.571C264.083 319.168 263.596 317.754 263.125 316.341C262.679 315.003 262.243 313.665 261.822 312.321C261.652 311.785 261.486 311.254 261.326 310.718C260.98 309.59 260.65 308.457 260.324 307.325C258.73 301.742 259.527 296.494 263.12 291.793C263.221 291.658 263.321 291.538 263.426 291.417C263.526 291.302 263.626 291.192 263.732 291.092C263.837 290.991 263.932 290.901 264.037 290.816C264.088 290.771 264.138 290.736 264.193 290.696C264.268 290.641 264.343 290.591 264.418 290.54C264.483 290.5 264.544 290.465 264.604 290.435C264.639 290.42 264.669 290.4 264.699 290.39C264.764 290.36 264.829 290.335 264.889 290.31C264.915 290.3 264.945 290.285 264.975 290.285C264.98 290.285 264.985 290.28 264.99 290.28C265.055 290.26 265.115 290.24 265.175 290.23C265.235 290.215 265.295 290.21 265.356 290.205C265.466 290.19 265.581 290.19 265.691 290.205C265.736 290.205 265.782 290.215 265.827 290.225C265.867 290.235 265.907 290.245 265.952 290.255C265.967 290.255 265.987 290.265 266.002 290.27C266.027 290.275 266.052 290.285 266.077 290.295C266.087 290.295 266.092 290.295 266.102 290.305C266.147 290.32 266.187 290.34 266.233 290.36C266.278 290.38 266.318 290.405 266.363 290.43C266.408 290.455 266.448 290.48 266.493 290.505C266.543 290.54 266.588 290.57 266.634 290.606C266.714 290.671 266.799 290.741 266.879 290.821C266.914 290.851 266.944 290.886 266.974 290.916C267.024 290.966 267.075 291.022 267.12 291.077C267.16 291.127 267.2 291.177 267.24 291.232C267.28 291.282 267.32 291.337 267.355 291.392C267.375 291.422 267.4 291.458 267.42 291.488C267.46 291.548 267.501 291.613 267.536 291.673C267.581 291.748 267.631 291.828 267.671 291.914C267.721 291.999 267.766 292.094 267.811 292.189C267.836 292.234 267.856 292.285 267.881 292.33C271.089 300.053 274.447 307.716 277.449 315.514C279.779 321.573 281.899 327.783 282.28 334.338C283.403 353.744 276.888 370.443 263.832 384.626H263.802Z" fill="url(#paint11_linear_641_49)"/>
<path d="M193.833 397.189C193.738 397.535 193.642 397.876 193.547 398.222C193.477 398.462 193.412 398.703 193.342 398.938C193.246 399.259 193.156 399.575 193.056 399.896C193.006 400.076 192.951 400.256 192.891 400.437C192.78 400.798 192.67 401.154 192.555 401.509C192.439 401.87 192.324 402.226 192.209 402.587C192.104 402.913 191.998 403.233 191.878 403.574C191.788 403.83 191.708 404.085 191.623 404.341C191.603 404.396 191.582 404.451 191.562 404.506C191.422 404.912 191.277 405.318 191.131 405.724C190.996 406.1 190.861 406.471 190.725 406.842C190.64 407.077 190.55 407.308 190.465 407.544C190.37 407.804 190.269 408.065 190.169 408.325C190.014 408.726 189.858 409.127 189.698 409.528C189.673 409.603 189.643 409.674 189.613 409.749C189.202 409.663 188.796 409.578 188.385 409.493C174.031 406.361 161.011 398.863 150.767 388.334C149.579 387.116 148.411 385.883 147.259 384.635C134.198 370.457 127.688 353.752 128.805 334.347C129.186 327.787 131.301 321.582 133.637 315.523C136.639 307.725 139.997 300.062 143.204 292.339L143.259 292.223C143.304 292.138 143.339 292.053 143.39 291.978C143.42 291.923 143.45 291.867 143.48 291.812C143.61 291.587 143.74 291.381 143.881 291.206C143.911 291.166 143.946 291.126 143.976 291.091C144.041 291.01 144.111 290.93 144.186 290.86C144.237 290.81 144.292 290.76 144.342 290.715C144.532 290.549 144.733 290.424 144.938 290.344C144.948 290.339 144.958 290.334 144.973 290.329C145.013 290.314 145.053 290.299 145.099 290.289C145.139 290.279 145.174 290.269 145.214 290.259C145.224 290.259 145.229 290.259 145.239 290.259C145.239 290.259 145.254 290.259 145.259 290.254H145.279C145.279 290.254 145.294 290.249 145.299 290.249H145.309C145.339 290.244 145.369 290.239 145.399 290.234C145.444 290.229 145.494 290.224 145.54 290.224H145.62C145.675 290.224 145.735 290.229 145.79 290.239C145.795 290.239 145.8 290.239 145.805 290.239C145.941 290.259 146.076 290.294 146.211 290.349C146.266 290.369 146.321 290.394 146.377 290.419C146.442 290.449 146.507 290.484 146.572 290.519C146.572 290.519 146.572 290.519 146.577 290.519C146.577 290.519 146.582 290.524 146.587 290.524C146.632 290.549 146.672 290.574 146.717 290.605C146.747 290.625 146.777 290.645 146.808 290.67C146.848 290.695 146.883 290.725 146.923 290.75C146.963 290.775 146.998 290.805 147.038 290.84C147.138 290.92 147.239 291.01 147.344 291.116C147.394 291.166 147.444 291.216 147.499 291.271C147.599 291.381 147.7 291.497 147.805 291.622C147.855 291.687 147.905 291.752 147.96 291.817C151.554 296.518 152.351 301.771 150.757 307.349C150.436 308.481 150.1 309.614 149.754 310.742C149.589 311.278 149.424 311.814 149.258 312.35C148.923 313.428 148.572 314.5 148.221 315.573C148.136 315.834 148.045 316.099 147.96 316.36C147.645 317.317 147.319 318.269 146.988 319.217C146.828 319.678 146.667 320.139 146.507 320.595C143.921 327.902 144.297 335.044 147.148 342.195C147.289 342.551 147.434 342.907 147.579 343.263C147.935 344.13 148.301 344.992 148.682 345.849C148.822 346.175 148.968 346.5 149.118 346.821C149.233 347.077 149.349 347.327 149.464 347.578C149.579 347.829 149.694 348.084 149.815 348.33C149.83 348.365 149.84 348.39 149.86 348.42C150.005 348.731 150.155 349.036 150.306 349.347C150.436 349.608 150.561 349.863 150.692 350.124C150.882 350.505 151.078 350.886 151.278 351.267C151.388 351.482 151.504 351.698 151.619 351.908C152.135 352.875 152.666 353.823 153.228 354.765C153.328 354.935 153.428 355.111 153.533 355.281C153.553 355.316 153.573 355.351 153.598 355.386C153.754 355.642 153.904 355.892 154.065 356.143C154.165 356.308 154.27 356.469 154.375 356.634C154.731 357.201 155.097 357.757 155.478 358.308C155.598 358.494 155.723 358.669 155.849 358.849C156.164 359.3 156.485 359.752 156.806 360.193C156.946 360.383 157.087 360.568 157.227 360.754C157.633 361.295 158.049 361.826 158.475 362.358C158.69 362.618 158.901 362.879 159.121 363.139C159.587 363.696 160.069 364.247 160.56 364.788C160.695 364.944 160.835 365.094 160.981 365.249C161.136 365.415 161.291 365.585 161.447 365.746C163.326 367.72 165.647 369.429 168.057 370.717C168.143 370.762 168.228 370.802 168.313 370.848C168.398 370.888 168.483 370.928 168.569 370.963C168.679 371.008 168.794 371.058 168.909 371.098C169.015 371.138 169.125 371.168 169.23 371.203C169.461 371.274 169.696 371.324 169.927 371.364C170.037 371.379 170.152 371.394 170.263 371.404C171.651 371.539 172.959 371.113 173.976 370.241C174.086 370.146 174.197 370.046 174.297 369.94C174.347 369.885 174.397 369.835 174.447 369.775L174.472 369.75C174.823 369.349 175.129 368.883 175.364 368.362C175.4 368.292 175.43 368.221 175.455 368.151C175.49 368.071 175.52 367.991 175.55 367.911C175.565 367.876 175.575 367.835 175.59 367.8C175.615 367.725 175.64 367.655 175.66 367.575C175.665 367.57 175.665 367.56 175.665 367.555C175.7 367.455 175.725 367.354 175.75 367.249C175.77 367.164 175.79 367.079 175.805 366.994C176.247 364.818 176.201 362.473 175.986 360.238C175.961 359.977 175.936 359.716 175.901 359.456C175.901 359.416 175.891 359.371 175.886 359.326C175.871 359.185 175.851 359.05 175.836 358.91C175.836 358.89 175.836 358.864 175.826 358.844C175.81 358.714 175.79 358.584 175.775 358.454C175.74 358.183 175.7 357.917 175.66 357.647C175.64 357.491 175.615 357.341 175.59 357.191C175.54 356.855 175.485 356.524 175.425 356.193C175.364 355.827 175.299 355.466 175.239 355.106C175.104 354.339 174.969 353.572 174.843 352.805C174.823 352.67 174.798 352.53 174.778 352.389C174.748 352.209 174.723 352.028 174.693 351.843C174.668 351.663 174.638 351.482 174.613 351.297C174.588 351.116 174.563 350.931 174.538 350.75C174.342 349.232 174.262 347.643 174.472 346.135C174.482 346.059 174.492 345.989 174.507 345.919C174.522 345.849 174.533 345.779 174.553 345.709C174.573 345.638 174.588 345.573 174.608 345.508C174.623 345.443 174.648 345.378 174.668 345.313C174.688 345.248 174.713 345.187 174.738 345.127C174.768 345.052 174.803 344.977 174.838 344.907C174.943 344.691 175.064 344.496 175.209 344.32C175.249 344.275 175.284 344.225 175.324 344.185C175.364 344.14 175.405 344.1 175.45 344.055C175.49 344.015 175.53 343.975 175.575 343.934C175.62 343.894 175.665 343.859 175.71 343.824C175.755 343.789 175.805 343.754 175.851 343.719C175.901 343.684 175.951 343.654 176.001 343.624C176.066 343.584 176.131 343.554 176.196 343.518C176.201 343.518 176.206 343.514 176.211 343.508C176.242 343.493 176.272 343.483 176.302 343.468C176.307 343.468 176.312 343.463 176.317 343.458C176.337 343.448 176.357 343.443 176.372 343.433C176.382 343.433 176.387 343.428 176.397 343.423C176.582 343.348 176.778 343.288 176.983 343.248C177.043 343.238 177.104 343.228 177.164 343.218C177.254 343.203 177.349 343.193 177.444 343.193C177.514 343.188 177.585 343.183 177.655 343.183C177.88 343.183 178.111 343.198 178.346 343.238C178.582 343.278 178.818 343.338 179.063 343.413C181.589 344.245 183.283 346.14 184.822 348.169C185.007 348.42 185.192 348.666 185.373 348.921C185.468 349.051 185.563 349.187 185.654 349.317C185.719 349.417 185.789 349.513 185.854 349.613C185.944 349.743 186.029 349.873 186.115 350.009C186.481 350.56 186.831 351.116 187.167 351.683C187.252 351.823 187.338 351.968 187.423 352.109C188.435 353.838 189.332 355.627 190.194 357.436C190.319 357.697 190.44 357.952 190.56 358.213C190.746 358.609 190.931 359.01 191.116 359.411C191.673 360.609 192.219 361.806 192.775 363.004C198.053 374.286 196.985 385.707 193.858 397.204L193.833 397.189Z" fill="url(#paint12_linear_641_49)"/>
<path d="M171.064 293.307C176.918 293.307 181.664 288.561 181.664 282.707C181.664 276.853 176.918 272.107 171.064 272.107C165.21 272.107 160.464 276.853 160.464 282.707C160.464 288.561 165.21 293.307 171.064 293.307Z" fill="url(#paint13_linear_641_49)"/>
<defs>
<linearGradient id="paint0_linear_641_49" x1="314.866" y1="264.964" x2="314.866" y2="409.412" gradientUnits="userSpaceOnUse">
<stop stop-color="#AFD2EE"/>
<stop offset="1" stop-color="#008AD6"/>
</linearGradient>
<linearGradient id="paint1_linear_641_49" x1="112.492" y1="264.963" x2="112.492" y2="409.411" gradientUnits="userSpaceOnUse">
<stop stop-color="#AFD2EE"/>
<stop offset="1" stop-color="#008AD6"/>
</linearGradient>
<linearGradient id="paint2_linear_641_49" x1="240.496" y1="271.494" x2="240.496" y2="360.438" gradientUnits="userSpaceOnUse">
<stop stop-color="#0096D8"/>
<stop offset="1" stop-color="#2264A7"/>
</linearGradient>
<linearGradient id="paint3_linear_641_49" x1="248.215" y1="271.494" x2="248.215" y2="360.437" gradientUnits="userSpaceOnUse">
<stop stop-color="#0096D8"/>
<stop offset="1" stop-color="#2264A7"/>
</linearGradient>
<linearGradient id="paint4_linear_641_49" x1="239.991" y1="271.494" x2="239.991" y2="360.437" gradientUnits="userSpaceOnUse">
<stop stop-color="#0096D8"/>
<stop offset="1" stop-color="#2264A7"/>
</linearGradient>
<linearGradient id="paint5_linear_641_49" x1="170.559" y1="271.493" x2="170.559" y2="360.436" gradientUnits="userSpaceOnUse">
<stop stop-color="#0096D8"/>
<stop offset="1" stop-color="#2264A7"/>
</linearGradient>
<linearGradient id="paint6_linear_641_49" x1="162.84" y1="271.495" x2="162.84" y2="360.438" gradientUnits="userSpaceOnUse">
<stop stop-color="#0096D8"/>
<stop offset="1" stop-color="#2264A7"/>
</linearGradient>
<linearGradient id="paint7_linear_641_49" x1="205.525" y1="265.16" x2="205.525" y2="411.107" gradientUnits="userSpaceOnUse">
<stop stop-color="#AFD2EE"/>
<stop offset="1" stop-color="#008AD6"/>
</linearGradient>
<linearGradient id="paint8_linear_641_49" x1="205.525" y1="265.16" x2="205.525" y2="411.107" gradientUnits="userSpaceOnUse">
<stop stop-color="#AFD2EE"/>
<stop offset="1" stop-color="#008AD6"/>
</linearGradient>
<linearGradient id="paint9_linear_641_49" x1="253.543" y1="282.621" x2="253.543" y2="412.746" gradientUnits="userSpaceOnUse">
<stop stop-color="#0096D8"/>
<stop offset="1" stop-color="#2264A7"/>
</linearGradient>
<linearGradient id="paint10_linear_641_49" x1="157.513" y1="282.621" x2="157.513" y2="412.746" gradientUnits="userSpaceOnUse">
<stop stop-color="#0096D8"/>
<stop offset="1" stop-color="#2264A7"/>
</linearGradient>
<linearGradient id="paint11_linear_641_49" x1="248.491" y1="282.622" x2="248.491" y2="412.747" gradientUnits="userSpaceOnUse">
<stop stop-color="#0096D8"/>
<stop offset="1" stop-color="#2264A7"/>
</linearGradient>
<linearGradient id="paint12_linear_641_49" x1="162.564" y1="282.621" x2="162.564" y2="412.746" gradientUnits="userSpaceOnUse">
<stop stop-color="#0096D8"/>
<stop offset="1" stop-color="#2264A7"/>
</linearGradient>
<linearGradient id="paint13_linear_641_49" x1="171.064" y1="271.496" x2="171.064" y2="360.439" gradientUnits="userSpaceOnUse">
<stop stop-color="#0096D8"/>
<stop offset="1" stop-color="#2264A7"/>
</linearGradient>
</defs>
</svg>
