<svg width="646" height="327" viewBox="0 0 646 327" fill="none" xmlns="http://www.w3.org/2000/svg">
<path opacity="0.58" d="M398 176.09C398 97.94 458.01 42 538.75 42C583.57 42 620.98 58.3 645.43 87.93L606.91 123.49C589.5 103.49 567.65 93.12 541.72 93.12C493.2 93.12 458.75 127.2 458.75 176.09C458.75 224.98 493.2 259.06 541.72 259.06C567.65 259.06 589.5 248.69 606.91 228.32L645.43 263.88C620.98 293.88 583.57 310.18 538.38 310.18C458 310.18 398 254.25 398 176.09Z" fill="white"/>
<path opacity="0.58" d="M85.54 98.41H0V48H232.95V98.41H147.41V315.32H85.54V98.41Z" fill="white"/>
<path d="M373.196 122.74C377.326 113.19 384.586 112.16 387.516 112.16C388.516 112.16 389.666 112.26 390.906 112.57C385.196 106.3 378.396 102.66 371.096 102.66C364.636 102.66 358.576 105.51 353.296 110.53C355.206 113.21 357.036 116.05 358.796 119.05C362.036 124.61 364.936 130.59 367.456 136.92C368.306 139.02 369.096 141.16 369.856 143.34C369.586 140.75 369.576 138.18 369.816 135.63C370.216 131.3 371.336 127.01 373.186 122.74H373.196Z" fill="white"/>
<path d="M377.496 235.8C379.326 234.45 381.006 232.97 382.486 231.42C389.286 224.28 395.176 215.97 400.516 205.92L399.936 204.61L398.156 200.61C397.446 199.02 396.826 197.49 396.226 196.02C395.076 193.22 394.086 190.8 392.906 188.82C390.326 184.5 387.566 180.32 384.646 175.89C382.626 172.84 380.546 169.68 378.526 166.48C376.986 164.03 375.646 161.61 374.516 159.21C377.986 173.64 379.806 189.19 379.806 205.16C379.806 212.62 379.406 220 378.626 227.2C378.316 230.09 377.946 232.97 377.516 235.81L377.496 235.8Z" fill="white"/>
<path d="M371.096 94.39C382.777 94.39 392.246 84.921 392.246 73.24C392.246 61.559 382.777 52.09 371.096 52.09C359.415 52.09 349.946 61.559 349.946 73.24C349.946 84.921 359.415 94.39 371.096 94.39Z" fill="white"/>
<path d="M238.976 132.64C241.056 127.88 243.356 123.33 245.856 119.04C247.606 116.04 249.436 113.2 251.356 110.52C246.086 105.51 240.016 102.65 233.556 102.65C226.266 102.65 219.466 106.29 213.746 112.56C214.986 112.25 216.136 112.14 217.136 112.14C220.066 112.14 227.326 113.17 231.456 122.72C232.556 125.28 233.406 127.83 233.986 130.41C234.966 134.67 235.236 138.96 234.786 143.32C236.056 139.65 237.456 136.08 238.966 132.62L238.976 132.64Z" fill="white"/>
<path d="M226.146 166.47C224.126 169.67 222.046 172.83 220.036 175.88C217.116 180.3 214.346 184.49 211.766 188.81C210.576 190.79 209.596 193.21 208.446 196.01C207.846 197.48 207.226 199.01 206.516 200.6L204.736 204.6L204.156 205.91C209.496 215.96 215.396 224.28 222.186 231.42C223.666 232.97 225.346 234.45 227.176 235.8C226.736 232.96 226.366 230.09 226.066 227.19C225.286 219.99 224.886 212.61 224.886 205.15C224.886 189.17 226.706 173.63 230.176 159.2C229.046 161.6 227.706 164.02 226.166 166.47H226.146Z" fill="white"/>
<path opacity="0.58" d="M320.126 224.25C324.266 215.23 328.556 205.9 335.056 197.3C336.006 196.04 337.036 194.75 338.156 193.49C339.676 191.78 341.366 190.11 343.306 188.61C345.716 186.74 348.516 185.14 351.806 184.05C353.856 183.37 355.936 183.03 357.986 183.03C361.776 183.03 365.226 184.18 368.036 186.21C366.566 171.12 363.356 157.03 358.786 144.57C355.326 135.13 351.076 126.62 346.196 119.31C334.476 101.74 319.126 91.1 302.336 91.1C285.546 91.1 270.186 101.75 258.466 119.31C254.396 125.41 250.766 132.34 247.666 139.96C242.136 153.52 238.286 169.23 236.636 186.21C239.446 184.18 242.906 183.03 246.686 183.03C248.736 183.03 250.816 183.37 252.866 184.05C257.436 185.55 261.026 188.04 263.996 190.86C264.896 191.71 265.736 192.59 266.516 193.48C267.636 194.75 268.666 196.04 269.616 197.29C276.126 205.89 280.406 215.22 284.546 224.24C285.246 225.77 285.956 227.3 286.666 228.83C292.306 240.89 295.046 253.5 295.046 267.37C295.046 278.52 293.226 290.67 289.456 304.5C288.436 308.23 287.306 311.99 286.066 315.77C291.276 318 296.726 319.19 302.336 319.19C307.946 319.19 313.396 318 318.606 315.77C317.356 311.98 316.226 308.23 315.216 304.5C311.446 290.66 309.616 278.52 309.626 267.37C309.626 253.5 312.376 240.88 318.016 228.83C318.726 227.3 319.426 225.77 320.136 224.24L320.126 224.25Z" fill="white"/>
<path opacity="0.58" d="M302.336 76.66C323.506 76.66 340.666 59.5 340.666 38.33C340.666 17.16 323.506 0 302.336 0C281.166 0 264.006 17.16 264.006 38.33C264.006 59.5 281.166 76.66 302.336 76.66Z" fill="white"/>
<path d="M391.476 125.33C391.406 125.25 391.346 125.18 391.276 125.11C391.206 125.03 391.126 124.95 391.056 124.87C390.976 124.79 390.906 124.72 390.836 124.65C390.786 124.6 390.736 124.55 390.686 124.51C390.616 124.44 390.556 124.38 390.486 124.33C390.026 123.92 389.556 123.61 389.106 123.4C389.046 123.37 388.976 123.34 388.916 123.31C388.846 123.28 388.786 123.26 388.726 123.23C388.616 123.19 388.506 123.15 388.396 123.13C388.286 123.1 388.186 123.08 388.076 123.06C388.036 123.05 388.006 123.04 387.976 123.04C387.976 123.04 387.966 123.04 387.956 123.04C387.896 123.04 387.836 123.03 387.786 123.02C387.706 123.01 387.616 123 387.536 123C387.426 123 387.326 123 387.216 123.02C387.006 123.04 386.796 123.08 386.596 123.15C386.586 123.15 386.566 123.16 386.556 123.16C386.466 123.19 386.386 123.23 386.296 123.26C386.196 123.3 386.096 123.35 386.006 123.4C385.916 123.45 385.836 123.5 385.746 123.55C385.646 123.62 385.536 123.7 385.426 123.78C385.336 123.86 385.236 123.93 385.146 124.02C385.056 124.1 384.956 124.19 384.876 124.29C384.786 124.39 384.696 124.49 384.606 124.59C384.436 124.8 384.256 125.03 384.096 125.28C384.016 125.41 383.936 125.54 383.856 125.67C383.806 125.76 383.756 125.85 383.706 125.94C383.656 126.02 383.616 126.11 383.566 126.2C383.426 126.46 383.296 126.74 383.176 127.03C382.256 129.16 381.596 131.26 381.166 133.32C381.006 134.06 380.886 134.81 380.786 135.54C380.786 135.57 380.776 135.61 380.776 135.64C380.706 136.12 380.666 136.58 380.626 137.05C380.606 137.25 380.596 137.45 380.586 137.66C380.576 137.82 380.566 137.99 380.566 138.16C380.556 138.33 380.546 138.51 380.546 138.68C380.536 139.07 380.546 139.47 380.546 139.86C380.546 140.05 380.556 140.24 380.566 140.43C380.576 140.71 380.596 140.99 380.606 141.28C380.636 141.84 380.696 142.41 380.766 142.97L380.876 143.81C380.916 144.09 380.966 144.37 381.016 144.64C381.066 144.92 381.116 145.2 381.176 145.48C381.256 145.85 381.336 146.21 381.426 146.58C381.466 146.76 381.516 146.95 381.566 147.13C381.616 147.32 381.666 147.5 381.716 147.68C381.946 148.54 382.216 149.39 382.516 150.24C382.676 150.69 382.846 151.13 383.016 151.57C383.106 151.79 383.186 152.01 383.286 152.23C383.516 152.78 383.746 153.33 384.006 153.88C384.256 154.43 384.516 154.97 384.796 155.52C384.906 155.74 385.016 155.96 385.126 156.17C385.346 156.61 385.586 157.04 385.816 157.48C386.416 158.56 387.056 159.64 387.726 160.71C392.486 168.27 397.646 175.59 402.236 183.26C402.326 183.42 402.426 183.58 402.516 183.74C402.606 183.89 402.696 184.05 402.776 184.2C402.946 184.52 403.116 184.84 403.286 185.16C403.446 185.47 403.606 185.78 403.756 186.1C403.836 186.25 403.906 186.4 403.976 186.55C404.226 187.07 404.466 187.6 404.706 188.14C404.836 188.44 404.966 188.74 405.096 189.04C405.136 189.12 405.166 189.2 405.196 189.27C405.376 189.7 405.556 190.12 405.726 190.54C405.916 191.02 406.116 191.49 406.306 191.97C406.446 192.3 406.576 192.64 406.716 192.98C407.156 194.05 407.606 195.13 408.096 196.22C408.866 194.69 409.586 193.18 410.236 191.7C410.456 191.21 410.666 190.72 410.876 190.23C411.016 189.91 411.146 189.59 411.276 189.26C411.406 188.93 411.536 188.62 411.666 188.29C411.746 188.09 411.826 187.9 411.896 187.7C412.046 187.32 412.186 186.94 412.326 186.56C412.466 186.18 412.596 185.81 412.726 185.43C412.806 185.22 412.876 185 412.946 184.79C413.016 184.59 413.076 184.4 413.136 184.21C413.246 183.88 413.346 183.55 413.446 183.23C413.576 182.83 413.696 182.42 413.816 182.02C413.936 181.61 414.046 181.21 414.146 180.81C414.196 180.62 414.246 180.44 414.296 180.25C414.526 179.32 414.736 178.4 414.916 177.49C414.916 177.49 414.916 177.487 414.916 177.48C414.966 177.23 415.016 176.98 415.056 176.74C415.146 176.28 415.216 175.81 415.286 175.35C415.396 174.64 415.486 173.94 415.556 173.24C415.666 172.15 415.746 171.07 415.766 170.01C415.766 169.71 415.776 169.41 415.776 169.11C415.776 168.59 415.766 168.07 415.746 167.55C415.736 167.29 415.726 167.04 415.706 166.79C415.686 166.53 415.676 166.28 415.656 166.03C415.646 165.86 415.626 165.69 415.606 165.52C415.586 165.3 415.566 165.07 415.536 164.84C415.516 164.62 415.486 164.39 415.456 164.17C415.396 163.72 415.326 163.27 415.246 162.83C415.226 162.71 415.206 162.59 415.176 162.47C415.156 162.32 415.126 162.18 415.096 162.03C415.056 161.84 415.016 161.64 414.976 161.45C414.946 161.32 414.926 161.18 414.886 161.05C414.836 160.81 414.776 160.57 414.716 160.32C414.646 160.06 414.586 159.8 414.516 159.54C414.376 159.02 414.226 158.5 414.056 157.98C413.956 157.66 413.846 157.33 413.726 157.01C413.596 156.62 413.446 156.23 413.296 155.85C413.216 155.66 413.146 155.47 413.066 155.27C412.936 154.95 412.796 154.62 412.656 154.3C412.566 154.09 412.466 153.87 412.376 153.66C412.276 153.44 412.176 153.21 412.066 152.99C411.946 152.73 411.816 152.48 411.686 152.22C411.616 152.08 411.546 151.94 411.476 151.8C411.316 151.48 411.146 151.17 410.966 150.85C410.636 150.23 410.276 149.62 409.896 149C409.786 148.81 409.676 148.62 409.556 148.44C409.396 148.18 409.236 147.93 409.066 147.68C408.716 147.14 408.356 146.6 407.976 146.06C407.816 145.83 407.656 145.6 407.486 145.37C407.196 144.95 406.886 144.55 406.576 144.14C406.156 143.59 405.736 143.05 405.316 142.51C405.276 142.46 405.236 142.4 405.196 142.35C404.856 141.91 404.516 141.47 404.166 141.03C403.416 140.06 402.656 139.1 401.886 138.14C401.346 137.47 400.816 136.79 400.276 136.12C399.706 135.42 399.136 134.71 398.576 134.01C396.306 131.2 394.006 128.4 391.706 125.6C391.636 125.52 391.576 125.44 391.506 125.37L391.476 125.33Z" fill="white"/>
<path d="M193.416 151.39C193.246 151.71 193.086 152.03 192.926 152.35C192.766 152.67 192.606 152.99 192.466 153.31C192.346 153.57 192.226 153.82 192.116 154.08C191.816 154.76 191.536 155.43 191.286 156.12C191.226 156.28 191.166 156.44 191.116 156.6C190.946 157.05 190.796 157.51 190.656 157.96C190.566 158.22 190.496 158.48 190.416 158.74C189.976 160.21 189.636 161.7 189.396 163.2C189.366 163.38 189.336 163.56 189.316 163.74C189.276 163.99 189.246 164.24 189.216 164.5C189.176 164.78 189.146 165.06 189.126 165.34C189.096 165.57 189.076 165.79 189.056 166.02C189.036 166.28 189.016 166.53 189.006 166.78C188.986 167.04 188.976 167.29 188.966 167.55C188.956 167.8 188.946 168.04 188.946 168.28C188.946 168.55 188.936 168.82 188.936 169.09C188.936 169.45 188.936 169.79 188.956 170.14C188.976 171.1 189.036 172.06 189.136 173.02C189.186 173.54 189.246 174.07 189.316 174.59C189.356 174.87 189.396 175.14 189.436 175.42C189.636 176.76 189.916 178.12 190.236 179.51C190.306 179.78 190.376 180.06 190.446 180.34C190.516 180.61 190.586 180.89 190.666 181.18C190.766 181.55 190.866 181.91 190.976 182.28C191.026 182.46 191.076 182.62 191.126 182.79C191.216 183.1 191.316 183.4 191.406 183.71C191.506 184.01 191.606 184.32 191.706 184.62C191.996 185.48 192.306 186.35 192.636 187.22C192.736 187.49 192.846 187.77 192.956 188.04C193.246 188.78 193.556 189.53 193.876 190.28C193.946 190.45 194.026 190.63 194.096 190.8C194.856 192.56 195.706 194.36 196.626 196.2C197.116 195.11 197.556 194.03 198.006 192.96C198.516 191.71 199.016 190.47 199.526 189.27C199.556 189.19 199.586 189.13 199.616 189.06C199.786 188.66 199.966 188.26 200.136 187.86C200.386 187.3 200.646 186.73 200.916 186.18C201.136 185.74 201.356 185.3 201.586 184.86C201.876 184.31 202.186 183.77 202.496 183.24C207.076 175.57 212.236 168.25 217.006 160.69C217.406 160.05 217.806 159.4 218.176 158.76C218.426 158.33 218.676 157.9 218.916 157.47C220.116 155.3 221.146 153.12 221.966 150.9C222.216 150.23 222.446 149.57 222.656 148.9C222.756 148.59 222.846 148.27 222.936 147.96C222.986 147.75 223.046 147.54 223.106 147.34C223.166 147.1 223.226 146.86 223.286 146.62C223.456 145.9 223.616 145.18 223.736 144.45C223.906 143.48 224.026 142.51 224.096 141.52C224.166 140.6 224.196 139.67 224.176 138.73C224.176 138.53 224.176 138.34 224.156 138.15C224.146 137.96 224.136 137.76 224.126 137.57C224.106 137.28 224.086 136.99 224.056 136.7C224.026 136.41 224.006 136.12 223.966 135.82C223.946 135.63 223.916 135.43 223.886 135.24C223.856 135.05 223.836 134.85 223.796 134.65C223.696 134.01 223.566 133.36 223.416 132.71C223.386 132.57 223.346 132.43 223.316 132.28C223.216 131.88 223.116 131.48 222.996 131.07C222.936 130.87 222.886 130.68 222.816 130.47C222.756 130.27 222.686 130.07 222.626 129.87C222.546 129.64 222.466 129.4 222.386 129.17C222.306 128.94 222.216 128.7 222.126 128.47C221.946 127.99 221.756 127.53 221.546 127.05C221.416 126.76 221.286 126.48 221.156 126.23C221.116 126.14 221.066 126.06 221.016 125.97C220.576 125.16 220.086 124.51 219.566 124.04C219.476 123.95 219.376 123.88 219.286 123.8C219.206 123.73 219.126 123.67 219.036 123.61C219.016 123.6 218.996 123.58 218.976 123.57C218.906 123.53 218.836 123.48 218.766 123.44C218.726 123.41 218.686 123.4 218.646 123.37C218.576 123.34 218.506 123.3 218.436 123.27C218.346 123.23 218.246 123.19 218.146 123.16C218.106 123.14 218.076 123.13 218.036 123.13C218.036 123.13 218.026 123.13 218.016 123.13C217.946 123.11 217.866 123.09 217.796 123.08C217.696 123.06 217.586 123.04 217.486 123.03C217.386 123.01 217.276 123.01 217.166 123.01C217.146 123.01 217.116 123.01 217.096 123.01C217.036 123.01 216.986 123.01 216.926 123.02C216.846 123.02 216.766 123.03 216.676 123.05C216.086 123.14 215.476 123.39 214.866 123.81C214.776 123.87 214.696 123.94 214.606 124C214.516 124.07 214.426 124.14 214.336 124.21C214.216 124.31 214.086 124.42 213.966 124.54C213.916 124.59 213.856 124.64 213.806 124.7C213.536 124.96 213.266 125.25 213.006 125.57C209.566 129.77 206.116 133.97 202.736 138.22C202.206 138.89 201.676 139.56 201.156 140.23C201.066 140.33 200.996 140.43 200.916 140.54C200.406 141.19 199.896 141.84 199.396 142.49C198.976 143.03 198.566 143.57 198.146 144.11C197.836 144.52 197.526 144.92 197.236 145.33C197.026 145.62 196.816 145.91 196.616 146.2C195.576 147.69 194.636 149.19 193.816 150.68C193.686 150.91 193.556 151.14 193.436 151.38L193.416 151.39Z" fill="white"/>
<path d="M418.606 276.6C416.536 278.85 413.796 281.7 410.956 284.61C390.686 305.37 364.886 320.02 336.546 326.2C335.736 326.38 334.916 326.55 334.106 326.71C333.706 325.71 333.316 324.71 332.926 323.71C332.566 322.78 332.226 321.85 331.876 320.92C331.286 319.35 330.726 317.76 330.176 316.17C330.046 315.81 329.926 315.45 329.806 315.09C329.576 314.42 329.356 313.76 329.136 313.09C328.826 312.16 328.516 311.22 328.226 310.28C328.006 309.56 327.776 308.85 327.556 308.14C327.466 307.86 327.386 307.58 327.296 307.3C326.736 305.43 326.196 303.55 325.676 301.66C319.426 278.72 317.306 255.93 327.826 233.42C328.716 231.51 329.596 229.6 330.466 227.68C330.856 226.84 331.236 226.01 331.626 225.18C332.056 224.27 332.476 223.36 332.906 222.44C333.166 221.89 333.426 221.34 333.696 220.79C334.426 219.27 335.186 217.77 335.966 216.28C336.216 215.8 336.476 215.32 336.726 214.84C337.056 214.23 337.396 213.62 337.736 213.02C338.076 212.41 338.426 211.81 338.776 211.21C338.946 210.91 339.126 210.61 339.316 210.31C339.466 210.05 339.626 209.8 339.786 209.55C340.016 209.17 340.246 208.8 340.486 208.43C340.556 208.32 340.626 208.22 340.696 208.11C341.016 207.62 341.326 207.14 341.666 206.66C341.926 206.28 342.186 205.91 342.446 205.53C342.496 205.46 342.546 205.39 342.596 205.32C342.746 205.1 342.906 204.89 343.056 204.68C343.146 204.55 343.226 204.44 343.326 204.32C343.446 204.15 343.566 203.99 343.686 203.83C346.746 199.78 350.136 196 355.176 194.34C355.656 194.18 356.136 194.06 356.606 193.99C356.756 193.97 356.896 193.95 357.036 193.93C357.136 193.92 357.236 193.91 357.346 193.9C357.786 193.86 358.216 193.86 358.626 193.9C358.996 193.93 359.356 193.99 359.706 194.08C359.786 194.1 359.866 194.12 359.936 194.15C360.056 194.18 360.176 194.22 360.286 194.26C360.416 194.31 360.546 194.36 360.676 194.42C360.736 194.45 360.806 194.47 360.866 194.51C361.186 194.66 361.486 194.85 361.766 195.06C361.876 195.15 361.986 195.23 362.086 195.32C362.196 195.41 362.296 195.51 362.396 195.61C362.496 195.71 362.596 195.81 362.686 195.92C362.736 195.97 362.776 196.03 362.826 196.08C362.896 196.17 362.966 196.25 363.036 196.35C363.106 196.44 363.166 196.54 363.226 196.63C363.306 196.74 363.376 196.86 363.446 196.99C363.536 197.17 363.636 197.35 363.716 197.54C363.746 197.61 363.776 197.69 363.806 197.76C363.836 197.84 363.866 197.91 363.896 197.98C363.946 198.13 363.996 198.28 364.046 198.43C364.116 198.64 364.166 198.86 364.216 199.08C364.266 199.3 364.306 199.53 364.336 199.76C364.756 202.77 364.596 205.94 364.206 208.97C364.156 209.36 364.106 209.76 364.046 210.16C363.996 210.56 363.936 210.95 363.876 211.35C363.556 213.46 363.186 215.56 362.826 217.66C362.696 218.38 362.576 219.1 362.456 219.83C362.346 220.5 362.236 221.16 362.126 221.82C362.076 222.13 362.026 222.43 361.986 222.73C361.856 223.57 361.736 224.41 361.636 225.25C361.596 225.53 361.556 225.8 361.536 226.08C361.516 226.17 361.506 226.25 361.506 226.34C361.436 226.86 361.386 227.38 361.336 227.9C360.906 232.36 360.816 237.03 361.706 241.38C361.736 241.51 361.756 241.64 361.796 241.76C361.816 241.85 361.836 241.93 361.866 242.02C361.866 242.05 361.876 242.07 361.886 242.1C361.936 242.31 361.996 242.52 362.066 242.72C362.096 242.81 362.116 242.9 362.156 242.99C362.186 243.09 362.226 243.19 362.256 243.28C362.286 243.38 362.326 243.47 362.366 243.56C362.456 243.79 362.546 244.01 362.646 244.23C362.736 244.42 362.836 244.61 362.926 244.79C362.996 244.93 363.066 245.06 363.146 245.19C363.216 245.32 363.296 245.44 363.366 245.56C363.446 245.68 363.526 245.8 363.606 245.91C363.766 246.14 363.936 246.37 364.116 246.59C364.196 246.68 364.276 246.78 364.366 246.87C364.376 246.89 364.396 246.91 364.416 246.93C364.516 247.04 364.616 247.15 364.716 247.26C364.926 247.47 365.136 247.67 365.356 247.86C366.076 248.48 366.866 248.99 367.716 249.36C367.826 249.41 367.936 249.46 368.056 249.51C368.386 249.65 368.726 249.77 369.076 249.86C369.146 249.88 369.206 249.9 369.276 249.91C369.346 249.93 369.406 249.94 369.476 249.96C369.606 249.99 369.726 250.02 369.846 250.04C369.976 250.07 370.096 250.09 370.226 250.11C370.316 250.13 370.396 250.14 370.496 250.15C370.626 250.17 370.756 250.18 370.886 250.19C371.036 250.2 371.176 250.21 371.326 250.22C371.476 250.22 371.626 250.23 371.776 250.23C371.946 250.23 372.116 250.23 372.286 250.21C372.426 250.21 372.556 250.2 372.686 250.18C372.886 250.17 373.096 250.14 373.306 250.11C373.456 250.09 373.616 250.06 373.776 250.03C374.126 249.96 374.476 249.88 374.826 249.77C375.036 249.71 375.256 249.64 375.466 249.56C375.686 249.48 375.916 249.39 376.146 249.29C376.316 249.22 376.486 249.14 376.656 249.06C376.826 248.98 376.996 248.89 377.166 248.8C381.976 246.23 386.596 242.82 390.356 238.88C392.276 236.86 394.116 234.78 395.856 232.64C396.036 232.42 396.206 232.21 396.386 231.99C396.486 231.87 396.586 231.74 396.676 231.62C397.066 231.14 397.446 230.65 397.826 230.17C398.146 229.75 398.466 229.34 398.786 228.92C399.106 228.49 399.426 228.06 399.746 227.62C399.886 227.44 400.016 227.26 400.146 227.07C400.276 226.89 400.406 226.71 400.536 226.52C400.826 226.11 401.126 225.7 401.416 225.28C401.706 224.86 401.986 224.46 402.266 224.03C403.566 222.12 404.806 220.18 406.006 218.21C406.796 216.9 407.566 215.58 408.306 214.25C408.556 213.81 408.806 213.36 409.046 212.91C409.246 212.55 409.446 212.18 409.646 211.82C410.326 210.56 410.986 209.3 411.626 208.02C411.816 207.65 412.006 207.28 412.186 206.91C412.456 206.36 412.736 205.81 412.996 205.25C413.206 204.82 413.416 204.39 413.616 203.96C413.886 203.39 414.156 202.82 414.416 202.25C414.776 201.47 415.136 200.69 415.486 199.91C415.846 199.1 416.206 198.29 416.556 197.47V197.42C416.706 197.09 416.846 196.78 416.986 196.45C417.036 196.34 417.086 196.23 417.126 196.12C417.436 195.39 417.746 194.66 418.046 193.92C418.316 193.25 418.596 192.57 418.866 191.89C424.566 177.62 425.316 163.37 420.156 148.79C419.166 145.99 418.196 143.17 417.256 140.35C416.366 137.68 415.496 135.01 414.656 132.33C414.316 131.26 413.986 130.2 413.666 129.13C412.976 126.88 412.316 124.62 411.666 122.36C408.486 111.22 410.076 100.75 417.246 91.37C417.446 91.1 417.646 90.86 417.856 90.62C418.056 90.39 418.256 90.17 418.466 89.97C418.676 89.77 418.866 89.59 419.076 89.42C419.176 89.33 419.276 89.26 419.386 89.18C419.536 89.07 419.686 88.97 419.836 88.87C419.966 88.79 420.086 88.72 420.206 88.66C420.276 88.63 420.336 88.59 420.396 88.57C420.526 88.51 420.656 88.46 420.776 88.41C420.826 88.39 420.886 88.36 420.946 88.36C420.956 88.36 420.966 88.35 420.976 88.35C421.106 88.31 421.226 88.27 421.346 88.25C421.466 88.22 421.586 88.21 421.706 88.2C421.926 88.17 422.156 88.17 422.376 88.2C422.466 88.2 422.556 88.22 422.646 88.24C422.726 88.26 422.806 88.28 422.896 88.3C422.926 88.3 422.966 88.32 422.996 88.33C423.046 88.34 423.096 88.36 423.146 88.38C423.166 88.38 423.176 88.38 423.196 88.4C423.286 88.43 423.366 88.47 423.456 88.51C423.546 88.55 423.626 88.6 423.716 88.65C423.806 88.7 423.886 88.75 423.976 88.8C424.076 88.87 424.166 88.93 424.256 89C424.416 89.13 424.586 89.27 424.746 89.43C424.816 89.49 424.876 89.56 424.936 89.62C425.036 89.72 425.136 89.83 425.226 89.94C425.306 90.04 425.386 90.14 425.466 90.25C425.546 90.35 425.626 90.46 425.696 90.57C425.736 90.63 425.786 90.7 425.826 90.76C425.906 90.88 425.986 91.01 426.056 91.13C426.146 91.28 426.246 91.44 426.326 91.61C426.426 91.78 426.516 91.97 426.606 92.16C426.656 92.25 426.696 92.35 426.746 92.44C433.146 107.85 439.846 123.14 445.836 138.7C450.486 150.79 454.716 163.18 455.476 176.26C457.716 214.98 444.716 248.3 418.666 276.6H418.606Z" fill="white"/>
<path d="M278.996 301.67C278.806 302.36 278.616 303.04 278.426 303.73C278.286 304.21 278.156 304.69 278.016 305.16C277.826 305.8 277.646 306.43 277.446 307.07C277.346 307.43 277.236 307.79 277.116 308.15C276.896 308.87 276.676 309.58 276.446 310.29C276.216 311.01 275.986 311.72 275.756 312.44C275.546 313.09 275.336 313.73 275.096 314.41C274.916 314.92 274.756 315.43 274.586 315.94C274.546 316.05 274.506 316.16 274.466 316.27C274.186 317.08 273.896 317.89 273.606 318.7C273.336 319.45 273.066 320.19 272.796 320.93C272.626 321.4 272.446 321.86 272.276 322.33C272.086 322.85 271.886 323.37 271.686 323.89C271.376 324.69 271.066 325.49 270.746 326.29C270.696 326.44 270.636 326.58 270.576 326.73C269.756 326.56 268.946 326.39 268.126 326.22C239.486 319.97 213.506 305.01 193.066 284C190.696 281.57 188.366 279.11 186.066 276.62C160.006 248.33 147.016 215 149.246 176.28C150.006 163.19 154.226 150.81 158.886 138.72C164.876 123.16 171.576 107.87 177.976 92.46L178.086 92.23C178.176 92.06 178.246 91.89 178.346 91.74C178.406 91.63 178.466 91.52 178.526 91.41C178.786 90.96 179.046 90.55 179.326 90.2C179.386 90.12 179.456 90.04 179.516 89.97C179.646 89.81 179.786 89.65 179.936 89.51C180.036 89.41 180.146 89.31 180.246 89.22C180.626 88.89 181.026 88.64 181.436 88.48C181.456 88.47 181.476 88.46 181.506 88.45C181.586 88.42 181.666 88.39 181.756 88.37C181.836 88.35 181.906 88.33 181.986 88.31C182.006 88.31 182.016 88.31 182.036 88.31C182.036 88.31 182.066 88.31 182.076 88.3H182.116C182.116 88.3 182.146 88.29 182.156 88.29H182.176C182.236 88.28 182.296 88.27 182.356 88.26C182.446 88.25 182.546 88.24 182.636 88.24H182.796C182.906 88.24 183.026 88.25 183.136 88.27C183.146 88.27 183.156 88.27 183.166 88.27C183.436 88.31 183.706 88.38 183.976 88.49C184.086 88.53 184.196 88.58 184.306 88.63C184.436 88.69 184.566 88.76 184.696 88.83C184.696 88.83 184.696 88.83 184.706 88.83C184.706 88.83 184.716 88.84 184.726 88.84C184.816 88.89 184.896 88.94 184.986 89C185.046 89.04 185.106 89.08 185.166 89.13C185.246 89.18 185.316 89.24 185.396 89.29C185.476 89.34 185.546 89.4 185.626 89.47C185.826 89.63 186.026 89.81 186.236 90.02C186.336 90.12 186.436 90.22 186.546 90.33C186.746 90.55 186.946 90.78 187.156 91.03C187.256 91.16 187.356 91.29 187.466 91.42C194.636 100.8 196.226 111.28 193.046 122.41C192.406 124.67 191.736 126.93 191.046 129.18C190.716 130.25 190.386 131.32 190.056 132.39C189.386 134.54 188.686 136.68 187.986 138.82C187.816 139.34 187.636 139.87 187.466 140.39C186.836 142.3 186.186 144.2 185.526 146.09C185.206 147.01 184.886 147.93 184.566 148.84C179.406 163.42 180.156 177.67 185.846 191.94C186.126 192.65 186.416 193.36 186.706 194.07C187.416 195.8 188.146 197.52 188.906 199.23C189.186 199.88 189.476 200.53 189.776 201.17C190.006 201.68 190.236 202.18 190.466 202.68C190.696 203.18 190.926 203.69 191.166 204.18C191.196 204.25 191.216 204.3 191.256 204.36C191.546 204.98 191.846 205.59 192.146 206.21C192.406 206.73 192.656 207.24 192.916 207.76C193.296 208.52 193.686 209.28 194.086 210.04C194.306 210.47 194.536 210.9 194.766 211.32C195.796 213.25 196.856 215.14 197.976 217.02C198.176 217.36 198.376 217.71 198.586 218.05C198.626 218.12 198.666 218.19 198.716 218.26C199.026 218.77 199.326 219.27 199.646 219.77C199.846 220.1 200.056 220.42 200.266 220.75C200.976 221.88 201.706 222.99 202.466 224.09C202.706 224.46 202.956 224.81 203.206 225.17C203.836 226.07 204.476 226.97 205.116 227.85C205.396 228.23 205.676 228.6 205.956 228.97C206.766 230.05 207.596 231.11 208.446 232.17C208.876 232.69 209.296 233.21 209.736 233.73C210.666 234.84 211.626 235.94 212.606 237.02C212.876 237.33 213.156 237.63 213.446 237.94C213.756 238.27 214.066 238.61 214.376 238.93C218.126 242.87 222.756 246.28 227.566 248.85C227.736 248.94 227.906 249.02 228.076 249.11C228.246 249.19 228.416 249.27 228.586 249.34C228.806 249.43 229.036 249.53 229.266 249.61C229.476 249.69 229.696 249.75 229.906 249.82C230.366 249.96 230.836 250.06 231.296 250.14C231.516 250.17 231.746 250.2 231.966 250.22C234.736 250.49 237.346 249.64 239.376 247.9C239.596 247.71 239.816 247.51 240.016 247.3C240.116 247.19 240.216 247.09 240.316 246.97L240.366 246.92C241.066 246.12 241.676 245.19 242.146 244.15C242.216 244.01 242.276 243.87 242.326 243.73C242.396 243.57 242.456 243.41 242.516 243.25C242.546 243.18 242.566 243.1 242.596 243.03C242.646 242.88 242.696 242.74 242.736 242.58C242.746 242.57 242.746 242.55 242.746 242.54C242.816 242.34 242.866 242.14 242.916 241.93C242.956 241.76 242.996 241.59 243.026 241.42C243.906 237.08 243.816 232.4 243.386 227.94C243.336 227.42 243.286 226.9 243.216 226.38C243.216 226.3 243.196 226.21 243.186 226.12C243.156 225.84 243.116 225.57 243.086 225.29C243.086 225.25 243.086 225.2 243.066 225.16C243.036 224.9 242.996 224.64 242.966 224.38C242.896 223.84 242.816 223.31 242.736 222.77C242.696 222.46 242.646 222.16 242.596 221.86C242.496 221.19 242.386 220.53 242.266 219.87C242.146 219.14 242.016 218.42 241.896 217.7C241.626 216.17 241.356 214.64 241.106 213.11C241.066 212.84 241.016 212.56 240.976 212.28C240.916 211.92 240.866 211.56 240.806 211.19C240.756 210.83 240.696 210.47 240.646 210.1C240.596 209.74 240.546 209.37 240.496 209.01C240.106 205.98 239.946 202.81 240.366 199.8C240.386 199.65 240.406 199.51 240.436 199.37C240.466 199.23 240.486 199.09 240.526 198.95C240.566 198.81 240.596 198.68 240.636 198.55C240.666 198.42 240.716 198.29 240.756 198.16C240.796 198.03 240.846 197.91 240.896 197.79C240.956 197.64 241.026 197.49 241.096 197.35C241.306 196.92 241.546 196.53 241.836 196.18C241.916 196.09 241.986 195.99 242.066 195.91C242.146 195.82 242.226 195.74 242.316 195.65C242.396 195.57 242.476 195.49 242.566 195.41C242.656 195.33 242.746 195.26 242.836 195.19C242.926 195.12 243.026 195.05 243.116 194.98C243.216 194.91 243.316 194.85 243.416 194.79C243.546 194.71 243.676 194.65 243.806 194.58C243.816 194.58 243.826 194.57 243.836 194.56C243.896 194.53 243.956 194.51 244.016 194.48C244.026 194.48 244.036 194.47 244.046 194.46C244.086 194.44 244.126 194.43 244.156 194.41C244.176 194.41 244.186 194.4 244.206 194.39C244.576 194.24 244.966 194.12 245.376 194.04C245.496 194.02 245.616 194 245.736 193.98C245.916 193.95 246.106 193.93 246.296 193.93C246.436 193.92 246.576 193.91 246.716 193.91C247.166 193.91 247.626 193.94 248.096 194.02C248.566 194.1 249.036 194.22 249.526 194.37C254.566 196.03 257.946 199.81 261.016 203.86C261.386 204.36 261.756 204.85 262.116 205.36C262.306 205.62 262.496 205.89 262.676 206.15C262.806 206.35 262.946 206.54 263.076 206.74C263.256 207 263.426 207.26 263.596 207.53C264.326 208.63 265.026 209.74 265.696 210.87C265.866 211.15 266.036 211.44 266.206 211.72C268.226 215.17 270.016 218.74 271.736 222.35C271.986 222.87 272.226 223.38 272.466 223.9C272.836 224.69 273.206 225.49 273.576 226.29C274.686 228.68 275.776 231.07 276.886 233.46C287.416 255.97 285.286 278.76 279.046 301.7L278.996 301.67Z" fill="white"/>
<path d="M233.566 94.39C245.247 94.39 254.716 84.921 254.716 73.24C254.716 61.559 245.247 52.09 233.566 52.09C221.885 52.09 212.416 61.559 212.416 73.24C212.416 84.921 221.885 94.39 233.566 94.39Z" fill="white"/>
</svg>
