<svg width="360" height="221" viewBox="0 0 360 221" fill="none" xmlns="http://www.w3.org/2000/svg">
<rect width="360" height="221" fill="white"/>
<g clip-path="url(#clip0_1162_1067)">
<path d="M168.703 118.433C180.669 118.433 186.811 114.58 186.811 106.292C186.811 99.1383 181.746 94.3783 170.746 94.3783C157.414 94.3783 152.087 100.484 150.872 111.421C148.926 111.293 146.801 111.251 143.903 111.237C143.903 110.642 143.916 110.047 143.916 109.437C143.916 98.345 139.445 94.3358 127.52 94.3358C121.696 94.3358 116.562 95.2283 113.429 96.5317L113.899 105.386C116.631 103.898 120.703 102.467 124.567 102.467C130.018 102.467 131.675 104.777 131.675 110.316L131.661 111.138C131.288 111.123 130.322 111.123 129.798 111.123C116.217 111.123 109.924 115.345 109.924 123.165C109.924 131.226 113.83 135.972 124.967 135.972C130.833 135.972 136.629 135.122 144.096 135.122C143.544 131.892 143.53 127.245 143.53 124.057C143.53 122.372 143.613 120.36 143.695 118.079C146.884 118.107 149.23 118.192 150.776 118.263C151.935 131.212 158.477 136 172.099 136C177.136 136 182.229 135.122 184.892 133.847L184.423 124.992C181.773 126.565 178.088 127.854 174.045 127.854C167.351 127.854 163.721 124.27 163.721 118.603V118.334C164.922 118.391 167.309 118.433 168.703 118.433ZM127.865 128.237C123.725 128.237 121.958 126.82 121.958 123.264C121.958 119.836 124.208 117.895 129.867 117.895C130.391 117.895 131.026 117.881 131.481 117.923C131.454 121.238 131.385 125.106 131.564 127.797C130.584 128.067 129.135 128.237 127.865 128.237ZM163.666 111.591V111.392C163.666 105.839 165.377 101.759 170.346 101.759C173.161 101.759 174.969 103.275 174.969 106.023C174.969 109.891 172.457 111.69 167.24 111.69C165.985 111.69 164.646 111.676 163.666 111.591ZM211.28 127.132C207.278 127.132 206.105 125.502 206.105 119.538V104.139H213.999V95.5825H206.229C206.229 92.5508 206.464 88.0742 206.712 85H199.397C198.431 92.48 196.32 96.3333 189.668 97.4667C189.64 99.4783 189.75 102.227 189.668 104.139H194.098C194.029 108.389 193.905 116.152 193.905 123.222C193.905 132.246 198.459 135.943 207.016 135.943C211.184 135.943 214.248 135.32 215.269 135.023L214.744 126.225C213.999 126.749 212.522 127.132 211.28 127.132ZM294.557 109.437C294.557 98.345 290.086 94.3358 278.175 94.3358C272.337 94.3358 267.217 95.2283 264.084 96.5317L264.553 105.386C267.286 103.898 271.344 102.467 275.222 102.467C280.673 102.467 282.329 104.777 282.329 110.316V111.138C281.943 111.123 280.991 111.123 280.466 111.123C266.872 111.123 260.592 115.345 260.592 123.165C260.592 131.226 264.498 135.972 275.636 135.972C281.501 135.972 287.298 135.122 294.751 135.122C294.212 131.892 294.198 127.245 294.198 124.057C294.185 120.445 294.557 115.373 294.557 109.437ZM278.52 128.237C274.366 128.237 272.613 126.82 272.613 123.264C272.613 119.836 274.863 117.895 280.521 117.895C281.032 117.895 281.667 117.881 282.122 117.923C282.109 121.238 282.026 125.106 282.219 127.797C281.239 128.067 279.776 128.237 278.52 128.237ZM255.61 116.677C255.61 113.333 255.679 108.885 255.679 108.885C255.679 98.8692 251.401 94.3783 239.297 94.3783C232.507 94.3783 227.662 95.5967 220.086 95.5967C220.513 102.623 220.527 111.308 220.5 116.691C220.527 122.159 220.32 131.963 220.086 135.122H233.086C232.783 131.948 232.534 122.839 232.562 116.691C232.562 113.192 232.603 108.956 232.741 103.275C234.039 102.822 235.681 102.482 237.461 102.482C242.016 102.482 243.479 104.677 243.479 110.698C243.479 110.698 243.548 114.481 243.548 116.705C243.548 122.173 243.368 131.977 243.134 135.136H256.135C255.831 131.934 255.569 122.825 255.61 116.677ZM94.5767 92.5792C93.3622 91.3325 91.7751 90.7092 90.2017 90.7092C88.6146 90.7092 87.0136 91.3325 85.7991 92.5933L78.5948 100.002L71.3768 92.5933C70.1485 91.3183 68.5613 90.695 66.9742 90.695C65.387 90.695 63.7999 91.3183 62.5854 92.565L53.8077 101.575C51.3925 104.054 51.3925 108.092 53.8215 110.585L78.581 136L103.341 110.585C105.77 108.106 105.756 104.068 103.341 101.575L94.5767 92.5792ZM304.881 96.645C304.881 95.2992 304.08 94.7325 302.521 94.7325H300.064V101.362H301.127V98.5292H302.12L303.79 101.362H304.991L303.183 98.4442C304.163 98.345 304.881 97.8492 304.881 96.645ZM301.127 97.6083V95.6675H302.41C303.045 95.6675 303.818 95.7667 303.818 96.56C303.818 97.5233 303.114 97.5942 302.327 97.5942H301.127V97.6083ZM302.286 91.9558C299.195 91.9558 296.545 94.35 296.545 97.9483C296.545 101.363 298.932 103.941 302.286 103.941C305.35 103.941 308 101.561 308 97.9483C308 94.3358 305.35 91.9558 302.286 91.9558ZM302.286 102.892C299.512 102.892 297.787 100.668 297.787 97.9483C297.787 95.03 299.747 93.0042 302.286 93.0042C304.784 93.0042 306.744 95.0442 306.744 97.9483C306.744 100.881 304.784 102.892 302.286 102.892Z" fill="#7D3F98"/>
</g>
<defs>
<clipPath id="clip0_1162_1067">
<rect width="256" height="51" fill="white" transform="translate(52 85)"/>
</clipPath>
</defs>
</svg>
