<svg width="360" height="221" viewBox="0 0 360 221" fill="none" xmlns="http://www.w3.org/2000/svg">
<rect width="360" height="221" fill="white"/>
<g clip-path="url(#clip0_1162_1068)">
<path fill-rule="evenodd" clip-rule="evenodd" d="M180 59C250.693 59 308 86.9822 308 121.5C308 156.018 250.693 184 180 184C109.307 184 52 156.018 52 121.5C52 86.9822 109.307 59 180 59Z" fill="#29166F"/>
<path fill-rule="evenodd" clip-rule="evenodd" d="M180 174.117C231.241 174.117 272.78 153.028 272.78 127.013C272.78 100.998 231.241 79.9082 180 79.9082C128.758 79.9082 87.2188 100.998 87.2188 127.013C87.2188 153.028 128.758 174.117 180 174.117Z" fill="white"/>
<path fill-rule="evenodd" clip-rule="evenodd" d="M87.9031 105.161L87.1453 106.303L85.5574 106.023L84.1641 108.123L85.1631 109.29L84.4191 110.411L80.1113 105.163L80.8545 104.043L87.9031 105.161ZM84.3735 105.823L81.797 105.361L83.4216 107.257L84.3735 105.823ZM86.5729 103.717L87.293 102.7C87.6829 102.898 88.0307 102.97 88.341 102.917C88.6514 102.864 88.9337 102.691 89.189 102.398C89.4589 102.089 89.5918 101.802 89.5869 101.539C89.581 101.276 89.4847 101.073 89.2948 100.932C89.1722 100.84 89.0396 100.796 88.8957 100.797C88.7532 100.798 88.5778 100.859 88.3715 100.977C88.2302 101.057 87.9324 101.257 87.4747 101.577C86.8858 101.988 86.3996 102.222 86.0148 102.278C85.4746 102.358 85.0001 102.244 84.59 101.938C84.3268 101.741 84.1392 101.487 84.029 101.178C83.9197 100.869 83.9181 100.54 84.0246 100.191C84.1305 99.8423 84.3422 99.4858 84.6625 99.1186C85.1839 98.5211 85.7201 98.1774 86.2704 98.0906C86.8218 98.0026 87.3421 98.1303 87.8354 98.4731L87.0269 99.4681C86.724 99.3099 86.4562 99.2549 86.2222 99.3025C85.988 99.3498 85.7524 99.5084 85.5175 99.7776C85.2748 100.056 85.147 100.321 85.1354 100.571C85.1281 100.732 85.1898 100.864 85.3246 100.964C85.4471 101.056 85.5935 101.086 85.7634 101.055C85.9811 101.017 86.3538 100.809 86.8826 100.43C87.4104 100.051 87.8374 99.798 88.1598 99.6696C88.4846 99.541 88.8124 99.4954 89.1454 99.5348C89.4786 99.5741 89.8079 99.7155 90.1338 99.9591C90.4296 100.18 90.6413 100.463 90.7668 100.809C90.8922 101.154 90.8972 101.513 90.7799 101.884C90.6633 102.257 90.423 102.651 90.0609 103.066C89.5338 103.67 88.9788 104.022 88.3946 104.12C87.8114 104.219 87.2041 104.084 86.5729 103.717ZM90.7209 99.1196L91.5804 98.2001C91.9385 98.4437 92.2729 98.5582 92.588 98.5438C92.9033 98.5293 93.2078 98.3923 93.5028 98.1334C93.8146 97.8599 93.9875 97.5921 94.0202 97.3308C94.0528 97.0697 93.9856 96.8566 93.8176 96.6926C93.7092 96.5867 93.5842 96.5271 93.4415 96.5103C93.2998 96.4946 93.1173 96.5326 92.8961 96.6243C92.7446 96.6862 92.4207 96.8483 91.9213 97.109C91.2787 97.4441 90.7633 97.6164 90.3738 97.6251C89.827 97.6372 89.3728 97.4667 89.0104 97.1128C88.7776 96.8854 88.628 96.6106 88.563 96.2914C88.499 95.9712 88.5446 95.6456 88.6995 95.3127C88.8545 94.9796 89.1153 94.6523 89.4855 94.3275C90.0877 93.7992 90.6684 93.5243 91.2265 93.5058C91.7854 93.4863 92.2828 93.6766 92.7227 94.0769L91.7789 94.964C91.5014 94.77 91.2437 94.6826 91.0049 94.701C90.7662 94.7194 90.51 94.8476 90.2385 95.0857C89.9582 95.3316 89.7936 95.5785 89.746 95.8251C89.7153 95.9841 89.7577 96.1217 89.8774 96.238C89.9858 96.3438 90.1264 96.3919 90.2993 96.382C90.5205 96.3712 90.9198 96.2102 91.4983 95.8997C92.0756 95.5884 92.535 95.3903 92.8729 95.3025C93.2133 95.215 93.5447 95.21 93.8691 95.2904C94.1936 95.3702 94.5 95.5508 94.788 95.8321C95.0496 96.0874 95.2189 96.3941 95.2938 96.752C95.3687 97.1099 95.3223 97.4659 95.1526 97.8198C94.9838 98.1746 94.6891 98.5357 94.271 98.9025C93.6618 99.4368 93.0613 99.7173 92.4682 99.743C91.876 99.7698 91.294 99.5608 90.7209 99.1196ZM94.7066 94.1131C94.2956 93.6154 94.0314 93.14 93.9125 92.6875C93.8261 92.3546 93.8058 92.0143 93.85 91.6699C93.8942 91.3254 94.0003 91.0182 94.1674 90.7471C94.3903 90.3859 94.7162 90.0528 95.1461 89.749C95.9244 89.1984 96.7305 88.9828 97.5669 89.0985C98.4032 89.2162 99.1498 89.6727 99.8075 90.4692C100.46 91.259 100.738 92.0412 100.643 92.8139C100.549 93.5879 100.113 94.2491 99.3382 94.797C98.5535 95.3519 97.7457 95.5723 96.916 95.4555C96.0871 95.3397 95.3502 94.8925 94.7066 94.1131ZM95.7769 93.3038C96.2339 93.8571 96.719 94.1783 97.2317 94.2693C97.7435 94.359 98.2128 94.2538 98.6376 93.9534C99.0636 93.6521 99.295 93.2634 99.3351 92.7869C99.3732 92.3101 99.1584 91.7887 98.6902 91.2217C98.2276 90.6615 97.7498 90.3372 97.2562 90.2506C96.763 90.1622 96.2972 90.2739 95.8564 90.5856C95.4168 90.8964 95.1774 91.2872 95.1385 91.7557C95.1004 92.2255 95.3125 92.7414 95.7769 93.3038ZM104.941 88.2802L106.254 87.9597C106.471 88.6317 106.475 89.2201 106.269 89.7259C106.062 90.2305 105.657 90.6571 105.052 91.005C104.302 91.436 103.528 91.5529 102.727 91.357C101.927 91.1601 101.251 90.6515 100.699 89.8292C100.116 88.9608 99.905 88.1458 100.066 87.3862C100.228 86.6267 100.704 86.0194 101.494 85.5651C102.185 85.1681 102.873 85.0354 103.557 85.1657C103.964 85.2413 104.371 85.4518 104.781 85.7969L103.821 86.6921C103.573 86.4609 103.29 86.3271 102.974 86.292C102.656 86.2576 102.347 86.3278 102.045 86.5013C101.626 86.742 101.379 87.076 101.306 87.5036C101.23 87.9307 101.402 88.4548 101.82 89.0769C102.262 89.7351 102.706 90.1313 103.15 90.2636C103.595 90.3962 104.022 90.3443 104.433 90.108C104.736 89.9337 104.938 89.6949 105.036 89.3909C105.134 89.0871 105.104 88.7173 104.941 88.2802ZM108.288 89.0519L104.946 83.7433L106.108 83.1171L109.45 88.4257L108.288 89.0519ZM115.841 85.2455L114.559 85.8689L113.349 84.8775L110.992 86.0236L111.207 87.4991L109.948 88.1112L109.142 81.5631L110.399 80.9518L115.841 85.2455ZM112.441 84.146L110.482 82.5303L110.831 84.929L112.441 84.146ZM117.257 84.7224L114.931 80.0931L113.149 80.86L112.676 79.9186L117.451 77.8636L117.924 78.805L116.15 79.5685L118.476 84.1977L117.257 84.7224ZM121.035 83.1916L118.402 77.5518L119.637 77.0584L122.269 82.6981L121.035 83.1916ZM122.085 79.4588C121.859 78.8686 121.764 78.3412 121.8 77.8768C121.828 77.5352 121.921 77.2056 122.078 76.8903C122.233 76.5748 122.436 76.3123 122.685 76.1015C123.016 75.8208 123.437 75.596 123.946 75.4283C124.869 75.1245 125.708 75.1476 126.466 75.4945C127.224 75.8434 127.783 76.4893 128.146 77.4338C128.506 78.3703 128.513 79.1938 128.167 79.9027C127.821 80.6129 127.187 81.1189 126.269 81.4213C125.338 81.7274 124.496 81.7085 123.745 81.3623C122.994 81.0175 122.44 80.3831 122.085 79.4588ZM123.372 78.9914C123.624 79.6477 123.98 80.0905 124.438 80.3224C124.895 80.5528 125.377 80.5855 125.881 80.4197C126.386 80.2535 126.735 79.9489 126.93 79.5067C127.124 79.0634 127.092 78.5063 126.834 77.8339C126.578 77.1696 126.231 76.7255 125.789 76.5034C125.349 76.2795 124.869 76.254 124.346 76.426C123.825 76.5975 123.468 76.9017 123.276 77.3367C123.084 77.7731 123.116 78.3244 123.372 78.9914ZM130.249 80.0178L128.233 74.1644L129.472 73.7987L133.427 76.9534L132.075 73.0308L133.259 72.6815L135.275 78.5349L133.996 78.9123L130.107 75.8208L131.433 79.6686L130.249 80.0178ZM138.108 74.7475C137.948 74.1388 137.913 73.6052 138.001 73.1468C138.067 72.8097 138.196 72.4907 138.386 72.1919C138.577 71.893 138.807 71.6513 139.078 71.4652C139.439 71.2177 139.882 71.0341 140.408 70.9158C141.36 70.7018 142.192 70.8046 142.907 71.2219C143.622 71.6412 144.107 72.3371 144.362 73.3111C144.616 74.277 144.531 75.0968 144.108 75.7688C143.685 76.4423 142.999 76.8852 142.051 77.0983C141.091 77.3142 140.256 77.2152 139.547 76.7992C138.839 76.3845 138.359 75.7008 138.108 74.7475ZM139.44 74.4052C139.618 75.082 139.922 75.5566 140.352 75.8308C140.781 76.1036 141.257 76.182 141.776 76.0651C142.297 75.9479 142.678 75.6782 142.922 75.257C143.164 74.8346 143.194 74.2774 143.012 73.5839C142.832 72.8989 142.536 72.424 142.122 72.161C141.709 71.8964 141.234 71.8251 140.695 71.9463C140.157 72.0673 139.768 72.3357 139.529 72.7503C139.29 73.1661 139.259 73.7174 139.44 74.4052ZM146.18 76.1357L144.94 70.1003L149.422 69.3118L149.631 70.3317L146.47 70.8879L146.765 72.3207L149.497 71.8399L149.707 72.8599L146.974 73.3407L147.501 75.9033L146.18 76.1357ZM154.288 74.7768L153.449 68.6824L155.582 68.4311C156.389 68.3361 156.919 68.3038 157.173 68.3359C157.563 68.3837 157.906 68.5451 158.202 68.8216C158.499 69.0979 158.681 69.4788 158.748 69.9639C158.799 70.3385 158.769 70.6606 158.658 70.9331C158.546 71.2059 158.388 71.4278 158.183 71.6004C157.977 71.7716 157.761 71.8952 157.534 71.9696C157.225 72.065 156.771 72.1489 156.17 72.2196L155.305 72.3214L155.621 74.6197L154.288 74.7768ZM154.925 69.5552L155.164 71.2916L155.889 71.2061C156.411 71.1446 156.755 71.071 156.922 70.9863C157.09 70.9017 157.214 70.7862 157.295 70.6369C157.376 70.4889 157.405 70.3255 157.38 70.1439C157.349 69.9211 157.253 69.7464 157.094 69.6183C156.933 69.4901 156.744 69.42 156.523 69.4087C156.361 69.4006 156.042 69.4236 155.564 69.4799L154.925 69.5552ZM160.422 74.0528L159.763 67.9398L162.572 67.6801C163.277 67.6149 163.797 67.6229 164.129 67.7028C164.462 67.7827 164.738 67.9541 164.961 68.2167C165.183 68.4807 165.315 68.7919 165.354 69.1532C165.403 69.6129 165.3 70.0048 165.041 70.3304C164.783 70.6562 164.369 70.8841 163.8 71.0159C164.104 71.1443 164.359 71.2932 164.566 71.4624C164.773 71.6315 165.061 71.9397 165.429 72.3857L166.364 73.5037L164.769 73.6511L163.669 72.4047C163.275 71.9625 163.007 71.6856 162.866 71.5735C162.727 71.4628 162.584 71.3898 162.437 71.3574C162.29 71.325 162.063 71.3229 161.755 71.3506L161.484 71.3757L161.76 73.9286L160.422 74.0528ZM161.379 70.4031L162.367 70.3119C163.006 70.2527 163.402 70.1904 163.556 70.1257C163.709 70.0613 163.826 69.9628 163.902 69.8323C163.979 69.7014 164.007 69.5436 163.988 69.36C163.965 69.1536 163.887 68.9942 163.755 68.8771C163.623 68.7614 163.447 68.6971 163.228 68.6843C163.118 68.6802 162.792 68.7031 162.253 68.7529L161.212 68.8492L161.379 70.4031ZM167.044 73.4963L166.601 67.3663L167.943 67.2833L168.385 73.4134L167.044 73.4963ZM171.356 73.2543L168.679 67.2178L170.13 67.1562L172.04 71.6277L173.431 67.0162L174.857 66.9556L172.802 73.1929L171.356 73.2543ZM181.13 73.0248L179.682 73.0424L179.089 71.651L176.427 71.6836L175.895 73.0889L174.474 73.1063L176.963 66.9317L178.383 66.9143L181.13 73.0248ZM178.638 70.6181L177.683 68.3559L176.82 70.6405L178.638 70.6181ZM182.65 73.0853L182.755 67.9808L180.79 67.9463L180.811 66.9082L186.076 67.0007L186.055 68.0389L184.099 68.0045L183.994 73.1089L182.65 73.0853ZM186.819 73.1938L187.084 67.0551L191.994 67.2369L191.949 68.2742L188.383 68.1422L188.324 69.5054L191.64 69.6281L191.596 70.6656L188.279 70.5428L188.207 72.2061L191.903 72.3429L191.859 73.3803L186.819 73.1938ZM197.046 73.8329L197.562 68.7499L195.605 68.5799L195.709 67.5462L200.953 68.0015L200.848 69.0352L198.9 68.866L198.385 73.9491L197.046 73.8329ZM201.165 71.1818C201.251 70.5604 201.424 70.0503 201.683 69.6513C201.874 69.3582 202.118 69.1029 202.411 68.8867C202.704 68.6703 203.013 68.5207 203.338 68.4365C203.77 68.3245 204.255 68.2995 204.792 68.3627C205.764 68.4772 206.501 68.8481 207.008 69.4743C207.514 70.1019 207.698 70.9123 207.561 71.9066C207.426 72.8927 207.03 73.6303 206.375 74.1182C205.721 74.6076 204.908 74.7945 203.941 74.6806C202.962 74.5651 202.22 74.1966 201.718 73.5738C201.216 72.9524 201.032 72.1551 201.165 71.1818ZM202.541 71.3023C202.446 71.993 202.547 72.5369 202.843 72.9351C203.139 73.3318 203.553 73.5622 204.083 73.6247C204.615 73.6875 205.075 73.5613 205.465 73.2485C205.855 72.9339 206.098 72.4234 206.195 71.7154C206.291 71.016 206.198 70.4746 205.912 70.0919C205.629 69.7083 205.212 69.4849 204.662 69.4199C204.113 69.3552 203.646 69.4776 203.263 69.7856C202.879 70.095 202.638 70.6 202.541 71.3023ZM209.361 69.1075L210.683 69.3309L210.038 72.6059C209.935 73.1264 209.885 73.4655 209.887 73.6243C209.894 73.8813 209.987 74.1035 210.168 74.288C210.349 74.4742 210.622 74.5974 210.986 74.6589C211.356 74.7213 211.649 74.6982 211.866 74.5881C212.082 74.4777 212.229 74.3238 212.308 74.1233C212.387 73.9229 212.474 73.5844 212.568 73.1062L213.228 69.7607L214.551 69.9842L213.924 73.1622C213.781 73.8881 213.644 74.3957 213.514 74.6833C213.383 74.9708 213.203 75.202 212.97 75.3765C212.739 75.5512 212.452 75.6711 212.108 75.7395C211.764 75.8079 211.335 75.7994 210.82 75.7123C210.198 75.6072 209.74 75.4615 209.445 75.2737C209.151 75.0859 208.931 74.87 208.786 74.6245C208.641 74.3792 208.564 74.1363 208.551 73.8913C208.532 73.5306 208.591 73.0114 208.724 72.3347L209.361 69.1075ZM214.746 76.3091L216.169 70.3084L218.926 70.8684C219.619 71.0091 220.11 71.166 220.399 71.3374C220.689 71.509 220.894 71.7512 221.017 72.0647C221.14 72.3796 221.161 72.7131 221.077 73.068C220.97 73.5192 220.74 73.8619 220.385 74.0972C220.03 74.3327 219.561 74.4306 218.975 74.3921C219.221 74.6018 219.414 74.8167 219.553 75.0366C219.694 75.257 219.864 75.6329 220.065 76.1624L220.578 77.4936L219.013 77.1758L218.385 75.6749C218.158 75.1414 217.997 74.8011 217.901 74.6542C217.805 74.5088 217.694 74.3984 217.566 74.3254C217.436 74.2524 217.221 74.1851 216.919 74.1238L216.653 74.07L216.059 76.5759L214.746 76.3091ZM216.88 73.1144L217.849 73.3113C218.477 73.4389 218.873 73.493 219.042 73.476C219.209 73.4589 219.353 73.3988 219.469 73.2963C219.587 73.1942 219.666 73.0523 219.709 72.872C219.757 72.6696 219.737 72.4956 219.65 72.3463C219.563 72.1984 219.418 72.0868 219.214 72.0117C219.11 71.9759 218.793 71.9043 218.263 71.7967L217.242 71.5892L216.88 73.1144ZM221.219 77.7147L222.817 71.7519L224.122 72.0515L222.524 78.0143L221.219 77.7147ZM224.004 76.352L225.297 76.5716C225.251 76.9807 225.314 77.3054 225.487 77.5495C225.661 77.7936 225.943 77.9672 226.333 78.0711C226.746 78.1813 227.083 78.1833 227.343 78.0765C227.603 77.9701 227.767 77.8085 227.835 77.5914C227.878 77.4512 227.871 77.3212 227.814 77.1989C227.757 77.0779 227.629 76.9516 227.431 76.8216C227.297 76.7321 226.982 76.5559 226.486 76.2898C225.848 75.9469 225.426 75.6233 225.221 75.3169C224.931 74.8871 224.86 74.4382 225.006 73.9697C225.1 73.6686 225.28 73.41 225.544 73.1964C225.81 72.9829 226.137 72.8541 226.525 72.809C226.914 72.7638 227.351 72.8063 227.841 72.9366C228.639 73.1491 229.189 73.4729 229.489 73.9088C229.791 74.3447 229.866 74.838 229.716 75.3919L228.411 75.0886C228.451 74.769 228.402 74.5192 228.264 74.338C228.126 74.1568 227.876 74.0173 227.517 73.9216C227.146 73.8226 226.832 73.8164 226.579 73.9036C226.415 73.9597 226.308 74.0636 226.26 74.2177C226.217 74.3578 226.244 74.4944 226.34 74.6274C226.463 74.7983 226.815 75.0351 227.397 75.3392C227.98 75.6419 228.397 75.9079 228.651 76.1331C228.905 76.3602 229.077 76.6221 229.168 76.9213C229.258 77.2206 229.245 77.5565 229.129 77.9289C229.024 78.267 228.824 78.5576 228.528 78.7988C228.233 79.0399 227.878 79.1834 227.462 79.2273C227.046 79.2727 226.561 79.2206 226.007 79.073C225.201 78.858 224.635 78.5213 224.31 78.0611C223.985 77.6023 223.884 77.0328 224.004 76.352ZM229.66 79.9759L231.855 74.1781L233.755 74.7945L233.381 79.113L235.988 75.5186L237.893 76.1365L235.697 81.9341L234.524 81.5539L236.249 76.9882L233.285 81.1518L232.066 80.7565L232.565 75.7934L230.832 80.3563L229.66 79.9759ZM244.503 85.3691L243.172 84.8423L243.239 83.3477L240.791 82.3789L239.69 83.4641L238.383 82.9468L243.363 78.236L244.668 78.7527L244.503 85.3691ZM243.28 82.2346L243.397 79.8082L241.607 81.5727L243.28 82.2346ZM248.971 85.0463L249.487 84.1242L252.048 85.35L250.831 87.5271C250.457 87.6331 249.986 87.6572 249.417 87.602C248.849 87.5462 248.323 87.402 247.837 87.1695C247.221 86.8746 246.751 86.4983 246.426 86.0388C246.103 85.58 245.951 85.0709 245.97 84.5147C245.988 83.9584 246.145 83.4168 246.438 82.8921C246.756 82.323 247.168 81.8792 247.672 81.5588C248.177 81.2403 248.743 81.0797 249.371 81.0807C249.851 81.0803 250.371 81.2149 250.934 81.4842C251.665 81.8344 252.158 82.2505 252.411 82.7321C252.662 83.2143 252.707 83.7336 252.544 84.2931L251.243 83.9314C251.311 83.624 251.273 83.3369 251.131 83.0709C250.99 82.8069 250.748 82.5928 250.404 82.4286C249.886 82.1803 249.387 82.1351 248.91 82.2947C248.433 82.4542 248.026 82.8341 247.69 83.4349C247.327 84.0841 247.211 84.6449 247.34 85.1172C247.47 85.5903 247.786 85.9473 248.289 86.1883C248.538 86.3073 248.813 86.3811 249.113 86.4104C249.415 86.4405 249.691 86.4324 249.943 86.389L250.33 85.6967L248.971 85.0463ZM251.493 88.8468L255.091 83.6843L259.221 86.1496L258.612 87.0221L255.613 85.2313L254.814 86.3778L257.603 88.0429L256.995 88.9154L254.206 87.2501L253.231 88.649L256.339 90.5049L255.731 91.3773L251.493 88.8468ZM256.742 91.884L260.773 87.0028L261.807 87.7339L261.276 92.5404L263.978 89.2693L264.965 89.9674L260.934 94.8486L259.867 94.0941L260.379 89.3735L257.73 92.5822L256.742 91.884ZM266.857 96.5163L267.581 97.5794C266.953 97.9718 266.347 98.1518 265.764 98.1213C265.182 98.0897 264.621 97.8599 264.081 97.43C263.412 96.8974 263.059 96.2485 263.021 95.4825C262.985 94.7173 263.306 93.968 263.989 93.2341C264.709 92.4591 265.486 92.0289 266.318 91.9438C267.149 91.8588 267.918 92.0975 268.623 92.659C269.239 93.1496 269.582 93.7169 269.653 94.3601C269.697 94.7423 269.602 95.1647 269.369 95.6301L268.158 95.0508C268.322 94.7627 268.376 94.4731 268.317 94.183C268.257 93.8921 268.092 93.6399 267.823 93.4253C267.449 93.1278 267.031 93.0098 266.568 93.0733C266.105 93.1349 265.616 93.4437 265.1 93.9986C264.554 94.5861 264.279 95.097 264.275 95.5283C264.273 95.9614 264.454 96.3232 264.82 96.6151C265.091 96.8305 265.398 96.937 265.74 96.9325C266.083 96.9285 266.455 96.7906 266.857 96.5163ZM266.945 99.8232L271.778 95.6123L272.7 96.5183L267.866 100.729L266.945 99.8232ZM268.775 101.564L273.889 97.6477L277.022 101.152L276.157 101.813L273.882 99.2682L272.746 100.138L274.862 102.505L273.997 103.166L271.882 100.8L270.496 101.861L272.854 104.499L271.989 105.16L268.775 101.564ZM274.326 104.701L275.115 105.673C274.783 105.945 274.591 106.223 274.54 106.512C274.489 106.8 274.569 107.104 274.781 107.426C275.004 107.765 275.25 107.978 275.519 108.063C275.788 108.147 276.027 108.132 276.236 108.014C276.371 107.939 276.46 107.838 276.508 107.712C276.554 107.588 276.553 107.415 276.502 107.195C276.469 107.045 276.366 106.718 276.196 106.211C275.977 105.559 275.904 105.056 275.977 104.702C276.079 104.205 276.355 103.83 276.805 103.577C277.095 103.414 277.416 103.337 277.767 103.345C278.119 103.355 278.453 103.465 278.772 103.675C279.091 103.886 279.382 104.191 279.647 104.594C280.078 105.25 280.246 105.833 280.148 106.342C280.051 106.852 279.745 107.262 279.229 107.575L278.491 106.534C278.755 106.324 278.901 106.11 278.932 105.89C278.963 105.67 278.882 105.411 278.688 105.115C278.487 104.81 278.261 104.609 278.01 104.514C277.849 104.452 277.694 104.462 277.547 104.545C277.412 104.621 277.331 104.738 277.306 104.897C277.27 105.099 277.356 105.494 277.562 106.083C277.769 106.671 277.882 107.129 277.903 107.453C277.924 107.779 277.859 108.08 277.706 108.357C277.554 108.634 277.298 108.873 276.94 109.074C276.616 109.257 276.256 109.345 275.862 109.337C275.468 109.329 275.102 109.213 274.764 108.984C274.425 108.757 274.106 108.414 273.806 107.959C273.37 107.295 273.201 106.692 273.299 106.15C273.395 105.609 273.739 105.127 274.326 104.701Z" fill="#D6D7D8"/>
<path fill-rule="evenodd" clip-rule="evenodd" d="M87.2188 127.012H272.78L272.75 128.233H87.2494L87.2188 127.012Z" fill="#29166F"/>
<path d="M253.738 155.605C230.708 137.88 124.751 137.958 105.971 155.411Z" fill="white"/>
<path d="M253.738 155.605C230.708 137.88 124.751 137.958 105.971 155.411" stroke="#29166F" stroke-width="1.0247"/>
<path d="M209.27 127.012C208.876 134.48 206.582 142.069 202.505 148.643Z" fill="#F8F8F8"/>
<path d="M209.27 127.012C208.876 134.48 206.582 142.069 202.505 148.643" stroke="#29166F" stroke-width="1.0136"/>
<path d="M148.662 127.012C149.249 134.3 152.017 141.673 156.836 148.095Z" fill="white"/>
<path d="M148.662 127.012C149.249 134.3 152.017 141.673 156.836 148.095" stroke="#29166F" stroke-width="1.0135"/>
<path d="M179.67 127.012C179.67 141.671 179.67 141.445 179.67 146.276Z" fill="#29166F"/>
<path d="M179.67 127.012C179.67 141.671 179.67 141.445 179.67 146.276" stroke="#29166F" stroke-width="1.0135"/>
<path d="M242.463 127.012C243.376 135.869 239.973 144.762 232.104 151.96Z" fill="white"/>
<path d="M242.463 127.012C243.376 135.869 239.973 144.762 232.104 151.96" stroke="#29166F" stroke-width="1.0136"/>
<path d="M116.953 127.012C117.469 135.636 120.479 144.401 125.827 151.993Z" fill="white"/>
<path d="M116.953 127.012C117.469 135.636 120.479 144.401 125.827 151.993" stroke="#29166F" stroke-width="1.0131"/>
<path fill-rule="evenodd" clip-rule="evenodd" d="M205.712 121.647L213.898 121.658C214.756 120.421 215.079 118.391 215.393 116.832L224.581 116.842C225.371 118.022 225.762 120.045 226.091 121.67L234.777 121.639L224.764 92.3026L215.953 92.308L205.712 121.647ZM217.247 110.413L223.107 110.495L220.279 100.226L217.247 110.413ZM125.224 121.637L133.362 121.648L134.885 116.859L144.426 116.866L145.651 121.637L154.238 121.668L144.312 92.399L135.286 92.291L125.224 121.637ZM136.762 110.414L142.573 110.472C142.233 108.743 141.651 107.049 141.234 105.501C140.827 103.987 140.371 101.548 139.46 100.425L136.762 110.414ZM182.083 99.5628L190.509 99.5614L190.497 121.584L198.76 121.671L198.767 99.603L207.215 99.5232L207.212 92.3982L182.173 92.2952L182.083 99.5628ZM156.93 121.663L165.102 121.654L165.262 98.3024C168.399 98.2519 171.17 98.2026 171.53 101.073C171.932 104.279 169.347 104.676 166.312 104.88L166.329 110.735C170.83 110.948 175.11 110.647 177.286 108.171C179.358 105.812 180.306 101.352 179.032 97.5076C177.832 93.884 175.564 92.5027 170.769 92.3219C167.233 92.1888 160.316 92.0257 156.987 92.4164L156.93 121.663Z" fill="#29166F"/>
<path fill-rule="evenodd" clip-rule="evenodd" d="M136.135 155.735C136.228 159.718 137.337 157.875 142.183 158.767C141.633 159.965 136.662 164.701 135.11 166.239C133.14 168.191 131.116 168.564 133.17 171.762C134.032 173.104 134.007 173.038 136.087 173.174C138.736 173.347 141.691 174.151 143.899 174.03C145.759 170.01 141.182 170.639 137.289 170.199C137.97 168.572 146.235 159.372 146.457 160.051C146.457 160.051 147.671 160.059 147.657 161.477C147.603 166.93 147.481 167.021 146.275 170.494C145.786 172.159 145.093 173.136 146.265 174.468C148.309 176.793 147.555 176.407 149.4 175.003C151.112 176.334 151.251 177.026 153.856 175.605C157.115 173.827 158.125 170.042 155.6 167.256C161.907 160.783 154.126 155.579 146.784 157.597C143.922 156.448 137.935 154.866 136.135 155.735ZM151.424 164.983C154.596 164.822 157.261 160.216 151.538 160.725L151.424 164.983ZM149.969 172.565C152.058 173.22 153.943 170.761 153.586 168.877C152.625 167.999 152.478 167.875 150.895 167.951C150.07 169.212 149.443 171.416 149.969 172.565Z" fill="#29166F" stroke="#D6D7D8" stroke-width="0.5068" stroke-linejoin="round"/>
<path fill-rule="evenodd" clip-rule="evenodd" d="M232.607 170.86C232.715 169.022 229.76 162.924 228.972 160.729C235.022 164.394 234.753 168.718 240.474 168.92C239.713 166.086 237.986 163.927 237.245 160.681C234.689 156.907 236.113 150.942 231.182 151.682C230.924 153.707 233.31 158.879 234.049 160.953C232.496 160.077 230.108 157.529 228.494 156.187C226.59 154.604 225.596 152.685 222.041 154.139C222.791 155.828 223.711 155.75 224.632 157.869C226.687 162.599 226.854 170.323 232.607 170.86Z" fill="#29166F" stroke="#D6D7D8" stroke-width="0.5068" stroke-linejoin="round"/>
<path fill-rule="evenodd" clip-rule="evenodd" d="M212.939 167.71C213.187 169.44 213.303 168.849 214.152 169.875C216.137 172.273 213.51 174.625 219.273 174.269L218.646 168.919L222.217 167.715C223.562 172.615 223.928 173.926 227.762 172.921C228.075 172.199 228.02 173.008 227.827 171.996C227.757 171.628 227.67 171.509 227.539 171.204C227.252 170.534 226.963 170.068 226.628 169.334C225.994 167.947 225.298 166.728 224.893 165.247C221.982 162.038 222.064 155.167 216.172 155.914L216.987 157.719C213.581 158.036 215.437 162.649 214.508 167.001C213.425 167.641 213.945 167.467 212.939 167.71ZM218.292 165.54L220.931 165.307C220.529 163.899 219.715 161.93 218.571 161.067L218.292 165.54Z" fill="#29166F" stroke="#D6D7D8" stroke-width="0.5068" stroke-linejoin="round"/>
<path fill-rule="evenodd" clip-rule="evenodd" d="M170.558 170.572C170.433 173.004 169.865 175.022 170.221 177.535C174.117 178.295 173.537 177.046 173.717 174.991C174.148 170.08 173.497 168.468 177.567 175.188C180.49 179.265 180.679 179.495 184.096 178.502C183.695 177.596 179.097 172.583 177.371 169.429C179.458 167.74 179.708 167.577 181.065 165C182.385 162.494 182.529 161.066 180.08 159.988C178.863 160.768 177.325 165.123 174.758 167.01C174.632 161.751 176.525 159.95 171.219 159.855L170.558 170.572Z" fill="#29166F" stroke="#D6D7D8" stroke-width="0.5068" stroke-linejoin="round"/>
<path fill-rule="evenodd" clip-rule="evenodd" d="M125.853 170.925C128.041 170.982 129.945 168.835 130.913 167.66C132.8 165.37 138.404 155.045 133.219 153.845C132.003 155.533 130.38 161.874 128.695 164.96C120.595 173.174 128.753 153.593 128.698 152.56L126.308 151.43C124.811 153.055 123.481 155.83 122.549 158.413C121.272 161.949 119.7 170.764 125.853 170.925Z" fill="#29166F" stroke="#D6D7D8" stroke-width="0.5068" stroke-linejoin="round"/>
<path fill-rule="evenodd" clip-rule="evenodd" d="M161.091 177.099C163.153 177.957 167.395 177.597 168.929 176.276C169.083 172.796 166.073 174.836 162.856 174.333L163.461 169.597L168.068 169.341C168.351 166.53 166.792 166.827 164.276 166.523C163.978 164.895 164.837 163.599 165.249 162.162L170.229 162.15C169.429 159.06 163.308 157.879 160.397 159.534C159.795 160.278 159.786 159.292 160.059 160.913C160.138 161.381 160.505 161.779 160.717 162.242C161.798 164.607 156.182 175.055 161.091 177.099Z" fill="#29166F" stroke="#D6D7D8" stroke-width="0.5068" stroke-linejoin="round"/>
<path fill-rule="evenodd" clip-rule="evenodd" d="M195.702 170.651C199.485 172.746 195.409 176.14 191.59 173.611C190.746 174.818 190.854 174.762 191.059 176.428C197.297 179.713 207.366 172.46 194.592 166.649C190.205 164.012 194.233 161.791 195.879 161.579C194.953 167.981 200.469 163.052 199.128 160.29C197.576 157.469 191.011 158.49 189.44 162.892C187.707 167.746 194.316 169.279 195.702 170.651Z" fill="#29166F" stroke="#D6D7D8" stroke-width="0.5068" stroke-linejoin="round"/>
<path fill-rule="evenodd" clip-rule="evenodd" d="M200.776 159.537C201.394 162.872 203.357 161.318 205.338 161.196C206.057 163.177 206.277 167.441 206.568 169.749C207.072 173.739 206.304 175.129 211.031 175.655C211.148 171.056 208.947 165.878 209.265 160.298L212.594 159.284C211.236 154.103 201.626 158.76 200.776 159.537Z" fill="#29166F" stroke="#D6D7D8" stroke-width="0.5068" stroke-linejoin="round"/>
<path fill-rule="evenodd" clip-rule="evenodd" d="M189.232 177.839C189.179 173.623 188.764 164.814 188.238 160.968C187.23 160.456 185.947 159.464 184.29 159.258C184.646 169.375 184.89 169.443 185.017 177.255C185.017 177.255 187.488 177.88 189.232 177.839Z" fill="#29166F" stroke="#D6D7D8" stroke-width="0.5068" stroke-linejoin="round"/>
</g>
<defs>
<clipPath id="clip0_1162_1068">
<rect width="256" height="125" fill="white" transform="translate(52 59)"/>
</clipPath>
</defs>
</svg>
