<svg width="360" height="221" viewBox="0 0 360 221" fill="none" xmlns="http://www.w3.org/2000/svg">
<rect width="360" height="221" fill="white"/>
<g clip-path="url(#clip0_1162_1076)">
<path fill-rule="evenodd" clip-rule="evenodd" d="M259.126 142.005C259.132 142.644 259.288 142.734 259.558 142.301C261.109 139.806 266.577 131.132 269.941 127.405C273.892 123.03 277.007 122.237 281.598 125.525C286.191 128.813 289.778 132.78 294.106 134.366C298.435 135.955 308 135.329 308 135.329L306.466 144.283C306.466 144.283 297.853 144.966 292.1 143.268C286.347 141.565 281.335 137.143 279.169 135.557C277.007 133.97 275.446 133.877 274.093 135.426C272.738 136.978 266.743 146.804 263.72 151.534C260.701 156.266 255.249 158.76 252.764 152.276C250.583 146.582 249.559 81.9862 249.547 81.4172C249.535 80.8473 249.107 80.8551 248.987 81.4017C248.867 81.9457 231.62 161.793 229.158 170.167C226.414 179.505 220.219 182.235 217.361 174.474C214.501 166.709 212.447 154.609 211.4 149.99C210.427 145.709 209.335 145.819 205.601 148.695C201.867 151.569 196.216 155.829 190.017 155.829C183.816 155.829 129.155 155.829 129.155 155.829L130.79 146.293C130.79 146.293 180.608 146.292 188.414 146.292C196.221 146.292 199.82 140.406 204.03 137.405C208.239 134.405 212.867 133.422 216.156 138.415C219.366 143.288 220.483 153.328 222.652 163.928C222.706 164.191 222.913 164.194 222.963 163.931C228.076 136.897 240.069 84.5719 243.697 68.9798C247.325 53.3902 255.803 52.9383 256.749 68.0794C257.695 83.2197 259.031 133.548 259.126 142.005Z" fill="#B2E6FA"/>
<path fill-rule="evenodd" clip-rule="evenodd" d="M303.724 136.317C300.623 136.317 296.39 136.122 293.843 135.188C290.842 134.086 288.224 131.924 285.452 129.634C284.083 128.503 282.666 127.334 281.149 126.247C279.364 124.968 277.886 124.372 276.499 124.372C274.635 124.372 272.792 125.494 270.519 128.011C267.214 131.671 261.807 140.242 260.229 142.782C260.128 142.945 259.824 143.434 259.286 143.434C258.962 143.434 258.559 143.238 258.399 142.684C258.348 142.506 258.322 142.294 258.317 142.017C258.231 134.188 256.908 85.4378 255.943 69.9903C255.731 66.6177 254.861 59.7212 251.404 59.7212C247.949 59.7212 245.331 67.3924 244.479 71.0465C244.172 72.3677 238.485 95.9031 233.35 118.975C228.373 141.335 223.941 163.259 223.755 164.104C223.374 165.818 222.108 165.315 221.864 164.116C221.62 162.915 220.889 159.092 220.447 156.686C219.05 149.062 217.841 142.478 215.496 138.918C214.777 137.823 213.961 137.005 213.075 136.488C212.271 136.018 211.38 135.779 210.427 135.779C208.665 135.779 206.663 136.57 204.476 138.13C203.42 138.882 202.393 139.834 201.304 140.843C198.107 143.806 194.484 147.16 188.414 147.16H131.468L131.086 149.389H188.414C191.26 149.389 193.849 148.684 196.323 147.234C198.462 145.981 200.253 144.323 201.832 142.861C202.901 141.87 203.909 140.934 204.922 140.213C206.975 138.751 208.826 138.009 210.427 138.009C211.244 138.009 212.004 138.213 212.689 138.613C213.466 139.068 214.191 139.795 214.838 140.78C217.084 144.188 220.052 161.327 220.891 164.567C221.729 167.807 224.239 166.883 224.819 164.269C225.399 161.655 235.198 116.085 244.84 75.4614C245.064 74.5197 245.213 73.8956 245.262 73.6796C246.087 70.1314 248.048 63.0102 250.944 63.0102C253.84 63.0102 254.934 69.2242 255.137 72.4745C256.116 88.1131 257.427 134.979 257.511 142.4C257.515 142.761 257.553 143.051 257.628 143.312C257.866 144.14 258.519 144.673 259.286 144.673C259.728 144.673 260.367 144.493 260.9 143.635C262.468 141.11 267.611 133.706 270.868 130.099C272.974 127.766 274.641 126.723 276.267 126.723C277.487 126.723 278.823 127.211 280.472 128.391C281.965 129.461 283.462 130.583 284.821 131.706C287.649 134.043 290.254 135.958 293.381 137.105C296.035 138.077 300.308 138.365 303.47 138.365L306.66 138.321L307.015 136.252C306.228 136.284 305.069 136.317 303.724 136.317Z" fill="#176FC1"/>
<path d="M305.975 142.316H302.14C299.388 142.316 295.634 141.998 292.498 141.072C287.794 139.68 283.621 136.147 281.101 134.184C280.621 133.811 280.197 133.505 279.855 133.233C277.077 131.019 274.483 131.714 272.742 134.306C271.757 135.776 267.334 142.627 263.057 149.437C258.811 156.193 253.366 154.69 252.69 146.366C253.558 158.741 260.062 155.438 263.057 151.045C266.055 146.645 272.491 135.996 273.502 134.837C274.307 133.913 275.227 133.447 276.239 133.447C277.239 133.447 278.346 133.904 279.624 134.842C279.975 135.099 280.39 135.421 280.87 135.794C283.39 137.758 287.609 141.041 292.315 142.431C295.449 143.358 299.388 143.553 302.14 143.553C303.597 143.553 305.78 143.459 305.78 143.459L305.975 142.316ZM250.297 78.4575C250.278 76.8298 249.224 76.81 248.838 78.479C248.804 78.6254 248.635 79.3794 248.355 80.6361C248.352 80.6465 248.352 80.6559 248.349 80.668C248.806 78.5531 250.289 78.6538 250.331 81.2172C250.33 81.1423 250.328 81.0691 250.328 80.9985C250.311 79.66 250.301 78.7777 250.297 78.4575ZM217.012 168.175C214.088 156.283 212.89 150.493 212.645 149.415C212.342 148.083 211.984 146.908 211.611 146.291C211.131 145.495 210.228 144.269 207.503 145.896C207.543 145.842 207.582 145.788 207.621 145.736C207.632 145.72 207.643 145.707 207.654 145.692C207.683 145.652 207.712 145.614 207.742 145.579C207.752 145.564 207.764 145.55 207.775 145.535C207.808 145.493 207.843 145.452 207.877 145.411C207.881 145.405 207.885 145.399 207.891 145.393C207.932 145.345 207.973 145.298 208.014 145.253C208.017 145.249 208.02 145.245 208.023 145.241C208.06 145.202 208.095 145.162 208.133 145.124L208.154 145.102C208.189 145.066 208.226 145.028 208.261 144.993C208.265 144.99 208.268 144.985 208.272 144.984C208.53 144.732 208.935 144.482 209.207 144.326C207.597 144.288 205.808 145.592 204.785 146.382C201.398 148.989 196.076 153.355 190.017 153.355H130.407L130.131 154.964H190.017C196.076 154.964 201.743 150.598 205.132 147.989C206.954 146.586 208.222 145.774 209.311 145.774C210.089 145.774 210.727 146.178 211.209 146.973C211.581 147.588 211.881 148.458 212.185 149.786C212.428 150.867 212.728 152.35 213.073 154.068C214.214 159.717 215.991 168.577 218.11 174.154C220.239 179.759 225.778 178.778 228.383 169.902V169.899C226.038 177.031 219.739 179.272 217.012 168.175Z" fill="#99D98C"/>
<path fill-rule="evenodd" clip-rule="evenodd" d="M213.291 147.763C213.289 147.754 213.287 147.745 213.285 147.734C211.661 140.452 207.174 142.926 204.158 145.313C201.141 147.7 196.028 152.363 190.248 152.363H130.577L130.407 153.354H190.017C196.076 153.354 201.398 148.988 204.784 146.38C205.797 145.6 207.554 144.317 209.151 144.324C210.622 143.544 211.865 144.446 212.336 145.229C212.705 145.839 213.006 146.634 213.291 147.763Z" fill="#B0B3B6"/>
<path fill-rule="evenodd" clip-rule="evenodd" d="M303.47 138.364C300.309 138.364 296.035 138.075 293.382 137.103C290.254 135.956 287.65 134.041 284.821 131.705C283.463 130.582 281.966 129.46 280.473 128.39C278.823 127.209 277.488 126.722 276.267 126.722C274.641 126.722 272.975 127.764 270.869 130.097C267.612 133.705 262.469 141.109 260.901 143.634C260.368 144.492 259.729 144.672 259.287 144.672C258.519 144.672 257.867 144.139 257.629 143.31C257.553 143.05 257.516 142.76 257.512 142.399C257.428 134.977 256.116 88.1117 255.138 72.473C254.935 69.2227 253.84 63.0087 250.945 63.0087C248.049 63.0087 246.088 70.13 245.263 73.6781C245.213 73.8942 245.064 74.5182 244.841 75.4599C235.198 116.083 225.4 161.653 224.82 164.267C224.239 166.882 221.73 167.805 220.892 164.565C220.053 161.325 217.085 144.187 214.838 140.778C214.192 139.794 213.467 139.066 212.69 138.611C212.005 138.211 211.245 138.007 210.428 138.007C208.827 138.007 206.975 138.749 204.923 140.212C203.91 140.933 202.901 141.869 201.832 142.859C200.253 144.322 198.463 145.979 196.324 147.233C193.85 148.683 191.261 149.388 188.414 149.388H131.087L130.795 151.091H188.793C191.752 151.091 194.44 150.35 197.009 148.83C199.204 147.53 201.009 145.841 202.603 144.35C203.643 143.378 204.624 142.458 205.585 141.767C207.486 140.401 208.617 139.956 210.251 139.956C211.883 139.956 213.253 141.027 214.197 143.304C215.139 145.587 217.92 159.159 219.411 166.158C220.901 173.159 224.704 171.531 226.172 165.547C227.642 159.562 236.977 116.752 245.74 79.4798C245.74 79.4798 246.112 77.9054 246.159 77.6919C246.954 74.254 248.519 67.6819 250.489 67.6819C252.459 67.6819 252.964 73.2133 253.157 76.3353C254.132 92.0885 255.644 140.853 255.968 145.124C256.293 149.395 258.694 150.234 261.148 146.588C263.603 142.942 268.565 134.996 271.744 131.442C273.668 129.29 274.907 128.598 276.287 128.598C277.33 128.598 278.399 128.833 279.892 129.913C281.351 130.968 282.73 132.12 284.064 133.232C286.92 135.611 289.729 137.397 292.951 138.591C295.68 139.6 300.29 139.969 303.483 139.969H306.378L306.661 138.32L303.47 138.364Z" fill="#00ADEF"/>
<path fill-rule="evenodd" clip-rule="evenodd" d="M303.483 139.97C300.29 139.97 295.68 139.6 292.95 138.591C289.728 137.397 286.919 135.612 284.064 133.232C282.73 132.121 281.351 130.968 279.892 129.913C278.398 128.833 277.33 128.599 276.286 128.599C274.907 128.599 273.668 129.291 271.744 131.443C268.565 134.997 263.603 142.943 261.148 146.588C258.694 150.234 256.293 149.395 255.968 145.125C255.643 140.853 254.132 92.0889 253.157 76.3358C252.964 73.2137 252.458 67.6823 250.488 67.6823C248.519 67.6823 246.954 74.2544 246.159 77.6923C246.112 77.9058 245.74 79.4802 245.74 79.4802C236.977 116.752 227.642 159.562 226.172 165.548C224.704 171.531 220.901 173.16 219.41 166.159C217.92 159.159 215.139 145.587 214.197 143.304C213.253 141.027 211.883 139.957 210.251 139.957C208.616 139.957 207.486 140.402 205.585 141.768C204.624 142.458 203.643 143.378 202.602 144.35C201.009 145.841 199.204 147.53 197.009 148.83C194.439 150.351 191.752 151.092 188.793 151.092H130.795L130.577 152.363H190.249C196.028 152.363 201.141 147.701 204.158 145.313C207.175 142.927 211.661 140.453 213.286 147.735C213.287 147.745 213.289 147.755 213.291 147.763C213.336 147.943 213.381 148.131 213.427 148.329C213.677 149.426 215.946 159.973 217.941 168.072C219.935 176.174 225.554 176.369 227.795 167.151C230.034 157.932 247.911 79.135 248.757 75.3932C249.605 71.6505 251.087 72.0499 251.278 75.8193C251.467 79.5878 253.691 138.009 254.324 145.485C254.956 152.96 259.3 153.026 262.574 148.045C265.848 143.062 271.037 134.35 273.21 132.017C275.122 129.963 277.688 129.959 280.573 132.094C280.928 132.357 281.838 133.062 281.838 133.062C284.311 134.986 288.219 138.53 292.774 139.877C295.817 140.775 299.673 141.138 302.371 141.138H306.177L306.378 139.97C304.054 139.97 303.895 139.97 303.483 139.97Z" fill="#CCE86E"/>
<path fill-rule="evenodd" clip-rule="evenodd" d="M207.503 145.896C210.228 144.269 211.131 145.495 211.611 146.292C211.984 146.909 212.342 148.083 212.645 149.415C212.89 150.494 214.088 156.283 217.011 168.175C219.934 180.067 226.958 176.642 228.822 168.297C230.686 159.952 248.452 80.149 248.838 78.4791C249.224 76.8101 250.277 76.8299 250.297 78.4576C250.317 80.087 250.495 96.2943 251.032 113.378C251.621 132.145 252.064 137.69 252.675 146.18C253.283 154.669 258.779 156.244 263.057 149.437C267.334 142.627 271.756 135.776 272.742 134.306C274.483 131.714 277.076 131.019 279.855 133.233C280.197 133.505 280.62 133.811 281.101 134.184C283.62 136.147 287.794 139.68 292.498 141.072C295.634 141.998 299.388 142.316 302.14 142.316C303.597 142.316 305.975 142.316 305.975 142.316L306.176 141.139C306.176 141.139 303.128 141.139 302.37 141.139C299.673 141.139 295.817 140.776 292.774 139.878C288.219 138.531 284.311 134.987 281.838 133.063C281.838 133.063 280.927 132.358 280.573 132.095C277.688 129.96 275.122 129.964 273.209 132.018C271.037 134.351 265.848 143.063 262.573 148.046C259.3 153.027 254.955 152.961 254.324 145.485C253.691 138.01 251.467 79.5887 251.278 75.8202C251.087 72.0508 249.605 71.6514 248.757 75.3941C247.911 79.1359 230.033 157.933 227.795 167.152C225.554 176.37 219.934 176.175 217.94 168.073C215.945 159.974 213.677 149.427 213.426 148.33C213.099 146.891 212.764 145.936 212.336 145.23C211.695 144.168 209.63 142.883 207.503 145.896Z" fill="#66C657"/>
<path d="M72.0692 115.071C71.142 115.317 69.6565 115.452 66.553 115.452C64.2009 115.452 61.1645 115.452 61.1645 115.452L63.8872 98.9405H71.883C82.4318 98.9405 81.4676 112.573 72.0692 115.071ZM67.4468 77.3342H74.6646C83.3287 77.3342 82.6509 89.9937 75.2052 92.6311C74.1912 92.9904 72.8369 93.0923 70.3724 93.0923C68.0175 93.0923 64.8584 93.0923 64.8584 93.0923L67.4468 77.3342ZM80.23 95.4436C83.5401 94.6793 89.4424 91.0206 89.4424 83.5577C89.4424 75.6023 84.6881 71.895 76.3301 71.895C71.188 71.895 63.103 71.8803 60.1545 71.8803L52 121.123C53.0028 121.123 61.8226 121.12 66.8056 121.118C70.1902 121.118 73.4139 120.997 75.2281 120.588C83.5432 118.704 86.9118 112.212 87.5808 107.452C88.5079 100.857 84.6343 96.501 80.23 95.4436Z" fill="#00ADEF"/>
<path d="M105.606 121.885C117.067 121.885 121.377 115.457 122.747 107.811C123.198 105.296 125.371 92.5392 125.538 91.2514C126.034 87.4528 123.121 85.9688 120.928 85.9688C120.15 85.9688 118.797 85.9688 118.797 85.9688C118.797 85.9688 115.651 105.305 115.297 107.507C114.538 112.244 112.418 115.484 106.446 115.484C103.048 115.484 99.7373 113.282 100.515 108.344C100.816 106.434 103.068 92.3825 103.258 91.2514C103.892 87.4519 100.876 85.9688 98.3923 85.9688C98.0385 85.9688 96.5055 85.9688 96.5055 85.9688C96.0447 88.9041 93.9775 101.267 93.1879 106.113C92.8698 108.059 92.7524 110.039 92.8895 111.317C93.5955 117.884 98.9615 121.885 105.606 121.885Z" fill="#00ADEF"/>
<path d="M145.867 116.15C133.92 115.438 137.805 90.8375 149.956 91.5614C160.943 92.2165 157.526 116.845 145.867 116.15ZM152.339 85.2485C146.26 85.2485 142.123 88.4222 140.018 91.7233L140.109 91.2507C140.773 87.8592 138.078 85.9681 135.789 85.9681H133.52C133.52 85.9681 127.362 123.839 126.513 128.397C125.515 133.763 129.563 135.006 130.848 135.006C132.051 135.006 131.726 135.006 132.717 135.006L136.043 115.596C137.335 118.369 141.022 121.884 146.894 121.884C157.474 121.884 164.018 113.02 164.675 102.64C165.373 91.6019 159.339 85.2485 152.339 85.2485Z" fill="#00ADEF"/>
<path d="M183.666 115.457C172.679 114.801 176.098 90.2443 187.754 90.9389C199.704 91.6517 195.817 116.181 183.666 115.457ZM198.478 85.9309L197.527 91.3022C196.235 88.5296 192.6 85.2061 186.729 85.2061C176.36 85.2061 170.213 94.3786 169.185 104.155C168.007 115.33 174.726 121.861 181.58 121.861C188.02 121.861 191.47 118.802 193.568 115.307L193.449 115.838C192.845 119.113 195.382 121.121 197.774 121.121H199.845L205.602 85.9309H198.478Z" fill="#00ADEF"/>
</g>
<defs>
<clipPath id="clip0_1162_1076">
<rect width="256" height="122" fill="white" transform="translate(52 57)"/>
</clipPath>
</defs>
</svg>
