<svg width="360" height="221" viewBox="0 0 360 221" fill="none" xmlns="http://www.w3.org/2000/svg">
<rect width="360" height="221" fill="white"/>
<mask id="mask0_1162_1070" style="mask-type:luminance" maskUnits="userSpaceOnUse" x="187" y="155" width="10" height="16">
<path d="M187.348 155.77H196.829V170.03H187.348V155.77Z" fill="white"/>
</mask>
<g mask="url(#mask0_1162_1070)">
<mask id="mask1_1162_1070" style="mask-type:luminance" maskUnits="userSpaceOnUse" x="61" y="47" width="238" height="126">
<path d="M80.7466 47.1523C78.1614 47.1523 75.6762 47.633 73.2873 48.5925C70.8994 49.5521 68.792 50.9186 66.9642 52.6921C65.1373 54.4647 63.7281 56.5105 62.7392 58.8275C61.7503 61.1446 61.2559 63.5569 61.2559 66.0654V153.933C61.2559 156.441 61.7503 158.853 62.7392 161.17C63.7281 163.487 65.1373 165.533 66.9642 167.307C68.792 169.079 70.8994 170.446 73.2873 171.405C75.6762 172.365 78.1614 172.846 80.7466 172.846H279.252C281.837 172.846 284.323 172.365 286.71 171.405C289.099 170.446 291.207 169.079 293.035 167.307C294.861 165.533 296.271 163.487 297.26 161.17C298.248 158.853 298.743 156.441 298.743 153.933V66.0654C298.743 63.5569 298.248 61.1446 297.26 58.8275C296.271 56.5105 294.861 54.4647 293.035 52.6921C291.207 50.9186 289.099 49.5521 286.71 48.5925C284.323 47.633 281.837 47.1523 279.252 47.1523H80.7466Z" fill="white"/>
</mask>
<g mask="url(#mask1_1162_1070)">
<path d="M193.113 159.559C191.498 159.559 190.535 160.38 189.866 161.335V155.914H187.486V169.853H189.866V164.164C189.866 162.597 190.829 161.663 192.207 161.663C193.622 161.663 194.43 162.56 194.43 164.126V169.853H196.809V163.435C196.813 161.085 195.453 159.559 193.113 159.559Z" fill="#0033FF"/>
</g>
</g>
<mask id="mask2_1162_1070" style="mask-type:luminance" maskUnits="userSpaceOnUse" x="198" y="159" width="12" height="12">
<path d="M198.963 159.449H209.393V170.259H198.963V159.449Z" fill="white"/>
</mask>
<g mask="url(#mask2_1162_1070)">
<mask id="mask3_1162_1070" style="mask-type:luminance" maskUnits="userSpaceOnUse" x="61" y="47" width="238" height="126">
<path d="M80.7476 47.1523C78.1624 47.1523 75.6772 47.633 73.2883 48.5925C70.9004 49.5521 68.7929 50.9186 66.9652 52.6921C65.1383 54.4647 63.7291 56.5105 62.7402 58.8275C61.7513 61.1446 61.2568 63.5569 61.2568 66.0654V153.933C61.2568 156.441 61.7513 158.853 62.7402 161.17C63.7291 163.487 65.1383 165.533 66.9652 167.307C68.7929 169.079 70.9004 170.446 73.2883 171.405C75.6772 172.365 78.1624 172.846 80.7476 172.846H279.253C281.838 172.846 284.324 172.365 286.711 171.405C289.1 170.446 291.208 169.079 293.036 167.307C294.862 165.533 296.272 163.487 297.261 161.17C298.249 158.853 298.744 156.441 298.744 153.933V66.0654C298.744 63.5569 298.249 61.1446 297.261 58.8275C296.272 56.5105 294.862 54.4647 293.036 52.6921C291.208 50.9186 289.1 49.5521 286.711 48.5925C284.324 47.633 281.838 47.1523 279.253 47.1523H80.7476Z" fill="white"/>
</mask>
<g mask="url(#mask3_1162_1070)">
<path d="M204.194 159.559C201.224 159.559 199.116 161.926 199.116 164.813V164.85C199.116 167.963 201.439 170.084 204.449 170.084C206.357 170.084 207.717 169.338 208.702 168.194L207.302 166.991C206.478 167.775 205.65 168.194 204.488 168.194C202.954 168.194 201.75 167.276 201.495 165.634H209.134C209.15 165.404 209.173 165.194 209.173 164.985C209.173 162.081 207.501 159.559 204.194 159.559ZM201.478 164.105C201.694 162.538 202.717 161.448 204.172 161.448C205.749 161.448 206.65 162.613 206.811 164.105H201.478Z" fill="#0033FF"/>
</g>
</g>
<mask id="mask4_1162_1070" style="mask-type:luminance" maskUnits="userSpaceOnUse" x="185" y="104" width="55" height="46">
<path d="M185.688 104.711H239.022V149.561H185.688V104.711Z" fill="white"/>
</mask>
<g mask="url(#mask4_1162_1070)">
<mask id="mask5_1162_1070" style="mask-type:luminance" maskUnits="userSpaceOnUse" x="61" y="47" width="238" height="126">
<path d="M80.7466 47.1543C78.1614 47.1543 75.6762 47.635 73.2873 48.5945C70.8994 49.554 68.792 50.9205 66.9642 52.6941C65.1373 54.4667 63.7281 56.5124 62.7392 58.8295C61.7503 61.1466 61.2559 63.5589 61.2559 66.0673V153.935C61.2559 156.443 61.7503 158.855 62.7392 161.172C63.7281 163.489 65.1373 165.535 66.9642 167.309C68.792 169.081 70.8994 170.448 73.2873 171.407C75.6762 172.367 78.1614 172.848 80.7466 172.848H279.252C281.837 172.848 284.323 172.367 286.71 171.407C289.099 170.448 291.207 169.081 293.035 167.309C294.861 165.535 296.271 163.489 297.26 161.172C298.248 158.855 298.743 156.443 298.743 153.935V66.0673C298.743 63.5589 298.248 61.1466 297.26 58.8295C296.271 56.5124 294.861 54.4667 293.035 52.6941C291.207 50.9205 289.099 49.554 286.71 48.5945C284.323 47.635 281.837 47.1543 279.252 47.1543H80.7466Z" fill="white"/>
</mask>
<g mask="url(#mask5_1162_1070)">
<path d="M208.437 146.712C208.437 144.785 207.716 144.673 207.716 144.673H206.633C204.827 144.673 203.022 142.921 203.022 141.169V123.389C203.022 116.212 207.44 111.921 213.122 111.921C217.993 111.921 221.603 114.543 221.603 120.321V141.169C221.603 142.921 219.798 144.673 217.993 144.673H216.908C216.908 144.673 216.188 144.857 216.188 146.641C216.188 148.426 216.908 149.386 216.908 149.386H238.196C238.196 149.386 238.918 148.61 238.918 146.825C238.918 145.041 238.196 144.676 238.196 144.676H237.113C235.308 144.676 233.503 142.925 233.503 141.174V119.89C233.503 109.821 227.008 104.924 217.626 104.924C210.683 104.924 205.358 108.075 202.111 112.713C202.111 112.713 202.094 108.12 202.094 107.568C202.094 106.068 200.608 105.544 198.83 106.239C197.629 106.709 191.567 108.778 186.429 108.778C186.144 109.147 185.699 109.893 185.699 111.112C185.699 112.185 185.958 112.747 186.42 113.48H187.504C189.308 113.48 191.114 115.231 191.114 116.982V141.169C191.114 142.921 189.308 144.673 187.504 144.673H186.42C186.42 144.673 185.699 144.785 185.699 146.675C185.699 148.569 186.42 149.381 186.42 149.381H207.708C207.721 149.386 208.437 148.644 208.437 146.712Z" fill="#0033FF"/>
</g>
</g>
<mask id="mask6_1162_1070" style="mask-type:luminance" maskUnits="userSpaceOnUse" x="136" y="104" width="46" height="67">
<path d="M136.859 104.711H181.896V170.261H136.859V104.711Z" fill="white"/>
</mask>
<g mask="url(#mask6_1162_1070)">
<mask id="mask7_1162_1070" style="mask-type:luminance" maskUnits="userSpaceOnUse" x="61" y="47" width="238" height="126">
<path d="M80.7476 47.1543C78.1624 47.1543 75.6772 47.635 73.2883 48.5945C70.9004 49.554 68.7929 50.9205 66.9652 52.6941C65.1383 54.4667 63.7291 56.5124 62.7402 58.8295C61.7513 61.1466 61.2568 63.5589 61.2568 66.0673V153.935C61.2568 156.443 61.7513 158.855 62.7402 161.172C63.7291 163.489 65.1383 165.535 66.9652 167.309C68.7929 169.081 70.9004 170.448 73.2883 171.407C75.6772 172.367 78.1624 172.848 80.7476 172.848H279.253C281.838 172.848 284.324 172.367 286.711 171.407C289.1 170.448 291.208 169.081 293.036 167.309C294.862 165.535 296.272 163.489 297.261 161.172C298.249 158.855 298.744 156.443 298.744 153.935V66.0673C298.744 63.5589 298.249 61.1466 297.261 58.8295C296.272 56.5124 294.862 54.4667 293.036 52.6941C291.208 50.9205 289.1 49.554 286.711 48.5945C284.324 47.635 281.838 47.1543 279.253 47.1543H80.7476Z" fill="white"/>
</mask>
<g mask="url(#mask7_1162_1070)">
<path d="M169.085 108.117C165.864 106.072 161.827 104.865 157.392 104.865C146.252 104.865 138.074 112.101 138.074 121.172C138.074 126.752 141.217 131.286 145.53 134.075L137.961 143.201C137.961 143.201 136.998 144.893 136.998 146.579C136.998 148.258 138.099 149.394 138.099 149.394H143.467C139.516 151.66 137.715 155.435 137.715 158.662C137.715 164.937 143.376 170.083 156.049 170.083C168.808 170.083 180.67 163.542 180.67 153.252C180.67 145.928 176.18 140.964 164.944 140.964H147.962L151.286 136.598C153.173 137.21 154.702 137.47 157.396 137.47C168.45 137.47 176.715 130.146 176.715 121.163C176.715 118.373 175.912 115.762 174.495 113.479H181.063C181.408 112.896 181.784 112.089 181.784 110.739C181.784 109.684 181.378 108.539 181.071 108.108H169.085V108.117ZM151.282 149.394H161.347C167.367 149.394 169.435 152.65 169.435 155.959C169.435 160.145 165.303 164.414 157.845 164.414C150.838 164.414 146.882 161.364 146.882 156.831C146.878 153.78 148.679 150.701 151.282 149.394ZM157.392 132.069C152.362 132.069 149.123 127.971 149.123 121.172C149.123 114.372 152.357 110.275 157.392 110.275C162.336 110.275 165.57 114.372 165.57 121.172C165.57 127.971 162.336 132.069 157.392 132.069Z" fill="#0033FF"/>
</g>
</g>
<mask id="mask8_1162_1070" style="mask-type:luminance" maskUnits="userSpaceOnUse" x="64" y="104" width="43" height="47">
<path d="M64.7998 104.711H106.755V150.711H64.7998V104.711Z" fill="white"/>
</mask>
<g mask="url(#mask8_1162_1070)">
<mask id="mask9_1162_1070" style="mask-type:luminance" maskUnits="userSpaceOnUse" x="61" y="47" width="238" height="126">
<path d="M80.7466 47.1543C78.1614 47.1543 75.6762 47.635 73.2873 48.5945C70.8994 49.554 68.792 50.9205 66.9642 52.6941C65.1373 54.4667 63.7281 56.5124 62.7392 58.8295C61.7503 61.1466 61.2559 63.5589 61.2559 66.0673V153.935C61.2559 156.443 61.7503 158.855 62.7392 161.172C63.7281 163.489 65.1373 165.535 66.9642 167.309C68.792 169.081 70.8994 170.448 73.2873 171.407C75.6762 172.367 78.1614 172.848 80.7466 172.848H279.252C281.837 172.848 284.323 172.367 286.71 171.407C289.099 170.448 291.207 169.081 293.035 167.309C294.861 165.535 296.271 163.489 297.26 161.172C298.248 158.855 298.743 156.443 298.743 153.935V66.0673C298.743 63.5589 298.248 61.1466 297.26 58.8295C296.271 56.5124 294.861 54.4667 293.035 52.6941C291.207 50.9205 289.099 49.554 286.71 48.5945C284.323 47.635 281.837 47.1543 279.252 47.1543H80.7466Z" fill="white"/>
</mask>
<g mask="url(#mask9_1162_1070)">
<path d="M104.785 134.736C103.338 134.247 102.155 134.678 102.155 134.678C98.8133 140.309 95.7911 142.903 91.0929 142.903C82.6123 142.903 77.2022 135.466 77.2022 126.625C77.2022 118.396 80.9892 110.344 89.7411 110.344C95.242 110.344 99.4698 113.671 99.4698 118.745L99.5948 120.32C99.5948 120.32 99.4262 121.02 101.715 121.02C104.003 121.02 104.625 120.32 104.625 120.32L104.172 108.857C104.172 108.857 104.124 108.555 103.96 108.346C103.8 108.141 103.537 107.982 103.537 107.982C100.018 106.058 95.329 104.918 89.8272 104.918C76.9299 104.918 64.9346 113.318 64.9346 128.465C64.9346 142.031 75.4873 150.608 87.5781 150.608C98.9429 150.608 104.22 143.69 106.564 135.99C106.56 135.981 105.925 135.123 104.785 134.736Z" fill="#0033FF"/>
</g>
</g>
<mask id="mask10_1162_1070" style="mask-type:luminance" maskUnits="userSpaceOnUse" x="113" y="86" width="16" height="16">
<path d="M113.393 86.7695H128.563V101.95H113.393V86.7695Z" fill="white"/>
</mask>
<g mask="url(#mask10_1162_1070)">
<mask id="mask11_1162_1070" style="mask-type:luminance" maskUnits="userSpaceOnUse" x="61" y="47" width="238" height="126">
<path d="M80.7476 47.1523C78.1624 47.1523 75.6772 47.633 73.2883 48.5925C70.9004 49.5521 68.7929 50.9186 66.9652 52.6921C65.1383 54.4647 63.7291 56.5105 62.7402 58.8275C61.7513 61.1446 61.2568 63.5569 61.2568 66.0654V153.933C61.2568 156.441 61.7513 158.853 62.7402 161.17C63.7291 163.487 65.1383 165.533 66.9652 167.307C68.7929 169.079 70.9004 170.446 73.2883 171.405C75.6772 172.365 78.1624 172.846 80.7476 172.846H279.253C281.838 172.846 284.324 172.365 286.711 171.405C289.1 170.446 291.208 169.079 293.036 167.307C294.862 165.533 296.272 163.487 297.261 161.17C298.249 158.853 298.744 156.441 298.744 153.933V66.0654C298.744 63.5569 298.249 61.1446 297.261 58.8275C296.272 56.5105 294.862 54.4647 293.036 52.6921C291.208 50.9186 289.1 49.5521 286.711 48.5925C284.324 47.633 281.838 47.1523 279.253 47.1523H80.7476Z" fill="white"/>
</mask>
<g mask="url(#mask11_1162_1070)">
<path d="M120.952 101.8C125.072 101.8 128.414 98.4733 128.414 94.3755C128.414 90.2697 125.072 86.9473 120.952 86.9473C116.833 86.9473 113.491 90.2697 113.491 94.3755C113.491 98.4733 116.833 101.8 120.952 101.8Z" fill="#0033FF"/>
</g>
</g>
<mask id="mask12_1162_1070" style="mask-type:luminance" maskUnits="userSpaceOnUse" x="109" y="107" width="24" height="43">
<path d="M109.363 107.01H132.356V149.56H109.363V107.01Z" fill="white"/>
</mask>
<g mask="url(#mask12_1162_1070)">
<mask id="mask13_1162_1070" style="mask-type:luminance" maskUnits="userSpaceOnUse" x="61" y="47" width="238" height="126">
<path d="M80.7476 47.1523C78.1624 47.1523 75.6772 47.633 73.2883 48.5925C70.9004 49.5521 68.7929 50.9186 66.9652 52.6921C65.1383 54.4647 63.7291 56.5105 62.7402 58.8275C61.7513 61.1446 61.2568 63.5569 61.2568 66.0654V153.933C61.2568 156.441 61.7513 158.853 62.7402 161.17C63.7291 163.487 65.1383 165.533 66.9652 167.307C68.7929 169.079 70.9004 170.446 73.2883 171.405C75.6772 172.365 78.1624 172.846 80.7476 172.846H279.253C281.838 172.846 284.324 172.365 286.711 171.405C289.1 170.446 291.208 169.079 293.036 167.307C294.862 165.533 296.272 163.487 297.261 161.17C298.249 158.853 298.744 156.441 298.744 153.933V66.0654C298.744 63.5569 298.249 61.1446 297.261 58.8275C296.272 56.5105 294.862 54.4647 293.036 52.6921C291.208 50.9186 289.1 49.5521 286.711 48.5925C284.324 47.633 281.838 47.1523 279.253 47.1523H80.7476Z" fill="white"/>
</mask>
<g mask="url(#mask13_1162_1070)">
<path d="M126.907 115.391C126.907 113.64 128.711 111.888 130.517 111.888H131.6C131.6 111.888 132.321 111.449 132.321 109.752C132.321 108.05 131.6 107.18 131.6 107.18H110.313C110.313 107.18 109.592 108.248 109.592 109.898C109.592 111.55 110.313 111.888 110.313 111.888H111.396C113.201 111.888 115.007 113.64 115.007 115.391V141.163C115.007 142.913 113.201 144.665 111.396 144.665H110.313C110.313 144.665 109.592 145.008 109.592 146.659C109.592 148.31 110.313 149.378 110.313 149.378H131.6C131.6 149.378 132.321 148.507 132.321 146.806C132.321 145.109 131.6 144.67 131.6 144.67H130.517C128.711 144.67 126.907 142.918 126.907 141.167V115.391Z" fill="#0033FF"/>
</g>
</g>
<mask id="mask14_1162_1070" style="mask-type:luminance" maskUnits="userSpaceOnUse" x="259" y="159" width="11" height="12">
<path d="M259.407 159.449H269.126V170.259H259.407V159.449Z" fill="white"/>
</mask>
<g mask="url(#mask14_1162_1070)">
<mask id="mask15_1162_1070" style="mask-type:luminance" maskUnits="userSpaceOnUse" x="61" y="47" width="238" height="126">
<path d="M80.7466 47.1523C78.1614 47.1523 75.6762 47.633 73.2873 48.5925C70.8994 49.5521 68.792 50.9186 66.9642 52.6921C65.1373 54.4647 63.7281 56.5105 62.7392 58.8275C61.7503 61.1446 61.2559 63.5569 61.2559 66.0654V153.933C61.2559 156.441 61.7503 158.853 62.7392 161.17C63.7281 163.487 65.1373 165.533 66.9642 167.307C68.792 169.079 70.8994 170.446 73.2873 171.405C75.6762 172.365 78.1614 172.846 80.7466 172.846H279.252C281.837 172.846 284.323 172.365 286.71 171.405C289.099 170.446 291.207 169.079 293.035 167.307C294.861 165.533 296.271 163.487 297.26 161.17C298.248 158.853 298.743 156.441 298.743 153.933V66.0654C298.743 63.5569 298.248 61.1446 297.26 58.8275C296.271 56.5105 294.861 54.4647 293.035 52.6921C291.207 50.9186 289.099 49.5521 286.71 48.5925C284.323 47.633 281.837 47.1523 279.252 47.1523H80.7466Z" fill="white"/>
</mask>
<g mask="url(#mask15_1162_1070)">
<path d="M264.415 159.613C262.722 159.613 261.599 159.956 260.459 160.455L261.107 162.308C262.053 161.926 262.917 161.679 264.078 161.679C265.732 161.679 266.639 162.442 266.639 163.836V164.029C265.831 163.782 265.024 163.61 263.768 163.61C261.345 163.61 259.553 164.679 259.553 166.916V166.954C259.553 168.978 261.284 170.067 263.254 170.067C264.825 170.067 265.909 169.438 266.617 168.617V169.857H268.979V163.878C268.979 161.185 267.481 159.613 264.415 159.613ZM266.678 166.203C266.678 167.465 265.494 168.324 263.923 168.324C262.8 168.324 261.915 167.792 261.915 166.837V166.798C261.915 165.822 262.8 165.232 264.293 165.232C265.218 165.232 266.065 165.404 266.673 165.634V166.203H266.678Z" fill="#0033FF"/>
</g>
</g>
<mask id="mask16_1162_1070" style="mask-type:luminance" maskUnits="userSpaceOnUse" x="271" y="159" width="7" height="12">
<path d="M271.733 159.449H277.896V170.029H271.733V159.449Z" fill="white"/>
</mask>
<g mask="url(#mask16_1162_1070)">
<mask id="mask17_1162_1070" style="mask-type:luminance" maskUnits="userSpaceOnUse" x="61" y="47" width="238" height="126">
<path d="M80.7476 47.1523C78.1624 47.1523 75.6772 47.633 73.2883 48.5925C70.9004 49.5521 68.7929 50.9186 66.9652 52.6921C65.1383 54.4647 63.7291 56.5105 62.7402 58.8275C61.7513 61.1446 61.2568 63.5569 61.2568 66.0654V153.933C61.2568 156.441 61.7513 158.853 62.7402 161.17C63.7291 163.487 65.1383 165.533 66.9652 167.307C68.7929 169.079 70.9004 170.446 73.2883 171.405C75.6772 172.365 78.1624 172.846 80.7476 172.846H279.253C281.838 172.846 284.324 172.365 286.711 171.405C289.1 170.446 291.208 169.079 293.036 167.307C294.862 165.533 296.272 163.487 297.261 161.17C298.249 158.853 298.744 156.441 298.744 153.933V66.0654C298.744 63.5569 298.249 61.1446 297.261 58.8275C296.272 56.5105 294.862 54.4647 293.036 52.6921C291.208 50.9186 289.1 49.5521 286.711 48.5925C284.324 47.633 281.838 47.1523 279.253 47.1523H80.7476Z" fill="white"/>
</mask>
<g mask="url(#mask17_1162_1070)">
<path d="M274.197 162.04V159.768H271.817V169.853H274.197V166.015C274.197 163.342 275.652 162.027 277.741 162.027H277.879V159.581C276.045 159.501 274.844 160.536 274.197 162.04Z" fill="#0033FF"/>
</g>
</g>
<mask id="mask18_1162_1070" style="mask-type:luminance" maskUnits="userSpaceOnUse" x="239" y="104" width="54" height="47">
<path d="M239.496 104.711H292.118V150.711H239.496V104.711Z" fill="white"/>
</mask>
<g mask="url(#mask18_1162_1070)">
<mask id="mask19_1162_1070" style="mask-type:luminance" maskUnits="userSpaceOnUse" x="61" y="47" width="238" height="126">
<path d="M80.7466 47.1543C78.1614 47.1543 75.6762 47.635 73.2873 48.5945C70.8994 49.554 68.792 50.9205 66.9642 52.6941C65.1373 54.4667 63.7281 56.5124 62.7392 58.8295C61.7503 61.1466 61.2559 63.5589 61.2559 66.0673V153.935C61.2559 156.443 61.7503 158.855 62.7392 161.172C63.7281 163.489 65.1373 165.535 66.9642 167.309C68.792 169.081 70.8994 170.448 73.2873 171.407C75.6762 172.367 78.1614 172.848 80.7466 172.848H279.252C281.837 172.848 284.323 172.367 286.71 171.407C289.099 170.448 291.207 169.081 293.035 167.309C294.861 165.535 296.271 163.489 297.26 161.172C298.248 158.855 298.743 156.443 298.743 153.935V66.0673C298.743 63.5589 298.248 61.1466 297.26 58.8295C296.271 56.5124 294.861 54.4667 293.035 52.6941C291.207 50.9205 289.099 49.554 286.71 48.5945C284.323 47.635 281.837 47.1543 279.252 47.1543H80.7466Z" fill="white"/>
</mask>
<g mask="url(#mask19_1162_1070)">
<path d="M292.016 143.091C292.016 141.734 291.295 141.324 291.295 141.324H290.21C288.406 141.324 286.605 139.572 286.605 137.821V107.043C286.605 107.043 286.536 106.137 285.539 106.137H282.793C282.252 106.137 281.838 106.578 281.838 106.578L278.012 111.425C277.563 111.995 277.049 111.43 277.049 111.43V111.434C274.489 108.505 270.188 104.91 262.429 104.91C250.792 104.91 239.699 113.139 239.699 128.193C239.699 142.282 249.259 150.6 260.987 150.6C267.662 150.6 271.902 147.885 275.24 143.682V148.886C275.24 148.886 275.283 150.076 276.661 150.369C277.9 150.633 278.85 150.248 278.85 150.248L291.299 145.086C291.29 145.09 292.016 144.453 292.016 143.091ZM263.327 144.826C255.3 144.826 251.962 137.125 251.962 127.757C251.962 118.393 255.3 110.693 263.327 110.693C271.354 110.693 274.692 118.393 274.692 127.757C274.696 137.125 271.358 144.826 263.327 144.826Z" fill="#0033FF"/>
</g>
</g>
<mask id="mask20_1162_1070" style="mask-type:luminance" maskUnits="userSpaceOnUse" x="289" y="159" width="4" height="5">
<path d="M289.748 159.91H292.83V163.59H289.748V159.91Z" fill="white"/>
</mask>
<g mask="url(#mask20_1162_1070)">
<mask id="mask21_1162_1070" style="mask-type:luminance" maskUnits="userSpaceOnUse" x="61" y="47" width="238" height="126">
<path d="M80.7476 47.1543C78.1624 47.1543 75.6772 47.635 73.2883 48.5945C70.9004 49.554 68.7929 50.9205 66.9652 52.6941C65.1383 54.4667 63.7291 56.5124 62.7402 58.8295C61.7513 61.1466 61.2568 63.5589 61.2568 66.0673V153.935C61.2568 156.443 61.7513 158.855 62.7402 161.172C63.7291 163.489 65.1383 165.535 66.9652 167.309C68.7929 169.081 70.9004 170.448 73.2883 171.407C75.6772 172.367 78.1624 172.848 80.7476 172.848H279.253C281.838 172.848 284.324 172.367 286.711 171.407C289.1 170.448 291.208 169.081 293.036 167.309C294.862 165.535 296.272 163.489 297.261 161.172C298.249 158.855 298.744 156.443 298.744 153.935V66.0673C298.744 63.5589 298.249 61.1466 297.261 58.8295C296.272 56.5124 294.862 54.4667 293.036 52.6941C291.208 50.9205 289.1 49.554 286.711 48.5945C284.324 47.635 281.838 47.1543 279.253 47.1543H80.7476Z" fill="white"/>
</mask>
<g mask="url(#mask21_1162_1070)">
<path d="M291.745 161.505L291.184 161.375C290.967 161.324 290.824 161.283 290.761 161.244C290.656 161.19 290.604 161.107 290.604 160.994C290.604 160.872 290.656 160.776 290.761 160.709C290.863 160.641 291.006 160.605 291.179 160.605C291.335 160.605 291.468 160.629 291.576 160.684C291.736 160.764 291.823 160.897 291.831 161.086H292.483C292.47 160.751 292.345 160.495 292.103 160.319C291.861 160.144 291.568 160.055 291.226 160.055C290.816 160.055 290.505 160.147 290.294 160.336C290.082 160.525 289.979 160.759 289.979 161.04C289.979 161.349 290.086 161.576 290.307 161.722C290.436 161.811 290.67 161.89 291.011 161.966L291.356 162.041C291.554 162.083 291.706 162.133 291.8 162.188C291.896 162.246 291.943 162.326 291.943 162.431C291.943 162.611 291.849 162.732 291.659 162.795C291.559 162.829 291.429 162.845 291.27 162.845C291.002 162.845 290.811 162.778 290.704 162.652C290.643 162.582 290.604 162.472 290.583 162.33H289.936C289.936 162.657 290.056 162.917 290.298 163.106C290.54 163.294 290.873 163.386 291.296 163.386C291.71 163.386 292.029 163.29 292.259 163.101C292.487 162.913 292.599 162.669 292.599 162.384C292.599 162.104 292.504 161.89 292.311 161.739C292.176 161.64 291.99 161.563 291.745 161.505Z" fill="#0033FF"/>
</g>
</g>
<mask id="mask22_1162_1070" style="mask-type:luminance" maskUnits="userSpaceOnUse" x="293" y="160" width="4" height="4">
<path d="M293.066 160.141H296.385V163.361H293.066V160.141Z" fill="white"/>
</mask>
<g mask="url(#mask22_1162_1070)">
<mask id="mask23_1162_1070" style="mask-type:luminance" maskUnits="userSpaceOnUse" x="61" y="47" width="238" height="126">
<path d="M80.7466 47.1543C78.1614 47.1543 75.6762 47.635 73.2873 48.5945C70.8994 49.554 68.792 50.9205 66.9642 52.6941C65.1373 54.4667 63.7281 56.5124 62.7392 58.8295C61.7503 61.1466 61.2559 63.5589 61.2559 66.0673V153.935C61.2559 156.443 61.7503 158.855 62.7392 161.172C63.7281 163.489 65.1373 165.535 66.9642 167.309C68.792 169.081 70.8994 170.448 73.2873 171.407C75.6762 172.367 78.1614 172.848 80.7466 172.848H279.252C281.837 172.848 284.323 172.367 286.71 171.407C289.099 170.448 291.207 169.081 293.035 167.309C294.861 165.535 296.271 163.489 297.26 161.172C298.248 158.855 298.743 156.443 298.743 153.935V66.0673C298.743 63.5589 298.248 61.1466 297.26 58.8295C296.271 56.5124 294.861 54.4667 293.035 52.6941C291.207 50.9205 289.099 49.554 286.71 48.5945C284.323 47.635 281.837 47.1543 279.252 47.1543H80.7466Z" fill="white"/>
</mask>
<g mask="url(#mask23_1162_1070)">
<path d="M295.25 160.148L294.663 162.629L294.071 160.148H293.082V163.304H293.713V160.656L294.326 163.304H294.987L295.604 160.656V163.304H296.235V160.148H295.25Z" fill="#0033FF"/>
</g>
</g>
<mask id="mask24_1162_1070" style="mask-type:luminance" maskUnits="userSpaceOnUse" x="210" y="159" width="11" height="12">
<path d="M210.814 159.449H220.296V170.259H210.814V159.449Z" fill="white"/>
</mask>
<g mask="url(#mask24_1162_1070)">
<mask id="mask25_1162_1070" style="mask-type:luminance" maskUnits="userSpaceOnUse" x="61" y="47" width="238" height="126">
<path d="M80.7466 47.1523C78.1614 47.1523 75.6762 47.633 73.2873 48.5925C70.8994 49.5521 68.792 50.9186 66.9642 52.6921C65.1373 54.4647 63.7281 56.5105 62.7392 58.8275C61.7503 61.1446 61.2559 63.5569 61.2559 66.0654V153.933C61.2559 156.441 61.7503 158.853 62.7392 161.17C63.7281 163.487 65.1373 165.533 66.9642 167.307C68.792 169.079 70.8994 170.446 73.2873 171.405C75.6762 172.365 78.1614 172.846 80.7466 172.846H279.252C281.837 172.846 284.323 172.365 286.71 171.405C289.099 170.446 291.207 169.079 293.035 167.307C294.861 165.533 296.271 163.487 297.26 161.17C298.248 158.853 298.743 156.441 298.743 153.933V66.0654C298.743 63.5569 298.248 61.1446 297.26 58.8275C296.271 56.5105 294.861 54.4647 293.035 52.6921C291.207 50.9186 289.099 49.5521 286.71 48.5925C284.323 47.633 281.837 47.1523 279.252 47.1523H80.7466Z" fill="white"/>
</mask>
<g mask="url(#mask25_1162_1070)">
<path d="M215.726 159.613C214.033 159.613 212.91 159.956 211.77 160.455L212.419 162.308C213.364 161.926 214.228 161.679 215.389 161.679C217.043 161.679 217.95 162.442 217.95 163.836V164.029C217.143 163.782 216.334 163.61 215.074 163.61C212.651 163.61 210.859 164.679 210.859 166.916V166.954C210.859 168.978 212.591 170.067 214.56 170.067C216.132 170.067 217.216 169.438 217.923 168.617V169.857H220.285V163.878C220.29 161.185 218.795 159.613 215.726 159.613ZM217.989 166.203C217.989 167.465 216.806 168.324 215.233 168.324C214.111 168.324 213.226 167.792 213.226 166.837V166.798C213.226 165.822 214.111 165.232 215.605 165.232C216.529 165.232 217.375 165.404 217.984 165.634V166.203H217.989Z" fill="#0033FF"/>
</g>
</g>
<mask id="mask26_1162_1070" style="mask-type:luminance" maskUnits="userSpaceOnUse" x="278" y="159" width="12" height="12">
<path d="M278.845 159.449H289.274V170.259H278.845V159.449Z" fill="white"/>
</mask>
<g mask="url(#mask26_1162_1070)">
<mask id="mask27_1162_1070" style="mask-type:luminance" maskUnits="userSpaceOnUse" x="61" y="47" width="238" height="126">
<path d="M80.7476 47.1523C78.1624 47.1523 75.6772 47.633 73.2883 48.5925C70.9004 49.5521 68.7929 50.9186 66.9652 52.6921C65.1383 54.4647 63.7291 56.5105 62.7402 58.8275C61.7513 61.1446 61.2568 63.5569 61.2568 66.0654V153.933C61.2568 156.441 61.7513 158.853 62.7402 161.17C63.7291 163.487 65.1383 165.533 66.9652 167.307C68.7929 169.079 70.9004 170.446 73.2883 171.405C75.6772 172.365 78.1624 172.846 80.7476 172.846H279.253C281.838 172.846 284.324 172.365 286.711 171.405C289.1 170.446 291.208 169.079 293.036 167.307C294.862 165.533 296.272 163.487 297.261 161.17C298.249 158.853 298.744 156.441 298.744 153.933V66.0654C298.744 63.5569 298.249 61.1446 297.261 58.8275C296.272 56.5105 294.862 54.4647 293.036 52.6921C291.208 50.9186 289.1 49.5521 286.711 48.5925C284.324 47.633 281.838 47.1523 279.253 47.1523H80.7476Z" fill="white"/>
</mask>
<g mask="url(#mask27_1162_1070)">
<path d="M284.093 159.559C281.123 159.559 279.016 161.926 279.016 164.813V164.85C279.016 167.963 281.339 170.084 284.348 170.084C286.257 170.084 287.617 169.338 288.602 168.194L287.203 166.991C286.378 167.775 285.549 168.194 284.387 168.194C282.855 168.194 281.65 167.276 281.394 165.634H289.033C289.051 165.404 289.072 165.194 289.072 164.985C289.072 162.081 287.401 159.559 284.093 159.559ZM281.378 164.105C281.593 162.538 282.617 161.448 284.072 161.448C285.648 161.448 286.551 162.613 286.71 164.105H281.378Z" fill="#0033FF"/>
</g>
</g>
<mask id="mask28_1162_1070" style="mask-type:luminance" maskUnits="userSpaceOnUse" x="248" y="159" width="11" height="12">
<path d="M248.267 159.449H258.222V170.259H248.267V159.449Z" fill="white"/>
</mask>
<g mask="url(#mask28_1162_1070)">
<mask id="mask29_1162_1070" style="mask-type:luminance" maskUnits="userSpaceOnUse" x="61" y="47" width="238" height="126">
<path d="M80.7476 47.1523C78.1624 47.1523 75.6772 47.633 73.2883 48.5925C70.9004 49.5521 68.7929 50.9186 66.9652 52.6921C65.1383 54.4647 63.7291 56.5105 62.7402 58.8275C61.7513 61.1446 61.2568 63.5569 61.2568 66.0654V153.933C61.2568 156.441 61.7513 158.853 62.7402 161.17C63.7291 163.487 65.1383 165.533 66.9652 167.307C68.7929 169.079 70.9004 170.446 73.2883 171.405C75.6772 172.365 78.1624 172.846 80.7476 172.846H279.253C281.838 172.846 284.324 172.365 286.711 171.405C289.1 170.446 291.208 169.079 293.036 167.307C294.862 165.533 296.272 163.487 297.261 161.17C298.249 158.853 298.744 156.441 298.744 153.933V66.0654C298.744 63.5569 298.249 61.1446 297.261 58.8275C296.272 56.5105 294.862 54.4647 293.036 52.6921C291.208 50.9186 289.1 49.5521 286.711 48.5925C284.324 47.633 281.838 47.1523 279.253 47.1523H80.7476Z" fill="white"/>
</mask>
<g mask="url(#mask29_1162_1070)">
<path d="M253.946 168.077C252.114 168.077 250.836 166.627 250.836 164.83V164.792C250.836 163.036 252.097 161.583 253.829 161.583C255.029 161.583 255.798 162.098 256.523 162.843L257.999 161.298C257.037 160.267 255.815 159.559 253.846 159.559C250.737 159.559 248.452 161.964 248.452 164.83V164.867C248.452 167.733 250.737 170.079 253.824 170.079C255.849 170.079 257.05 169.296 258.077 168.189L256.639 166.815C255.893 167.562 255.068 168.077 253.946 168.077Z" fill="#0033FF"/>
</g>
</g>
<mask id="mask30_1162_1070" style="mask-type:luminance" maskUnits="userSpaceOnUse" x="223" y="155" width="3" height="16">
<path d="M223.141 155.77H225.748V170.03H223.141V155.77Z" fill="white"/>
</mask>
<g mask="url(#mask30_1162_1070)">
<mask id="mask31_1162_1070" style="mask-type:luminance" maskUnits="userSpaceOnUse" x="61" y="47" width="238" height="126">
<path d="M80.7476 47.1523C78.1624 47.1523 75.6772 47.633 73.2883 48.5925C70.9004 49.5521 68.7929 50.9186 66.9652 52.6921C65.1383 54.4647 63.7291 56.5105 62.7402 58.8275C61.7513 61.1446 61.2568 63.5569 61.2568 66.0654V153.933C61.2568 156.441 61.7513 158.853 62.7402 161.17C63.7291 163.487 65.1383 165.533 66.9652 167.307C68.7929 169.079 70.9004 170.446 73.2883 171.405C75.6772 172.365 78.1624 172.846 80.7476 172.846H279.253C281.838 172.846 284.324 172.365 286.711 171.405C289.1 170.446 291.208 169.079 293.036 167.307C294.862 165.533 296.272 163.487 297.261 161.17C298.249 158.853 298.744 156.441 298.744 153.933V66.0654C298.744 63.5569 298.249 61.1446 297.261 58.8275C296.272 56.5105 294.862 54.4647 293.036 52.6921C291.208 50.9186 289.1 49.5521 286.711 48.5925C284.324 47.633 281.838 47.1523 279.253 47.1523H80.7476Z" fill="white"/>
</mask>
<g mask="url(#mask31_1162_1070)">
<path d="M223.263 155.91H225.641V169.849H223.263V155.91Z" fill="#0033FF"/>
</g>
</g>
<mask id="mask32_1162_1070" style="mask-type:luminance" maskUnits="userSpaceOnUse" x="227" y="156" width="8" height="15">
<path d="M227.882 156.92H234.519V170.03H227.882V156.92Z" fill="white"/>
</mask>
<g mask="url(#mask32_1162_1070)">
<mask id="mask33_1162_1070" style="mask-type:luminance" maskUnits="userSpaceOnUse" x="61" y="47" width="238" height="126">
<path d="M80.7476 47.1543C78.1624 47.1543 75.6772 47.635 73.2883 48.5945C70.9004 49.554 68.7929 50.9205 66.9652 52.6941C65.1383 54.4667 63.7291 56.5124 62.7402 58.8295C61.7513 61.1466 61.2568 63.5589 61.2568 66.0673V153.935C61.2568 156.443 61.7513 158.855 62.7402 161.172C63.7291 163.489 65.1383 165.535 66.9652 167.309C68.7929 169.081 70.9004 170.448 73.2883 171.407C75.6772 172.367 78.1624 172.848 80.7476 172.848H279.253C281.838 172.848 284.324 172.367 286.711 171.407C289.1 170.448 291.208 169.081 293.036 167.309C294.862 165.535 296.272 163.489 297.261 161.172C298.249 158.855 298.744 156.443 298.744 153.935V66.0673C298.744 63.5589 298.249 61.1466 297.261 58.8295C296.272 56.5124 294.862 54.4667 293.036 52.6941C291.208 50.9205 289.1 49.554 286.711 48.5945C284.324 47.635 281.838 47.1543 279.253 47.1543H80.7476Z" fill="white"/>
</mask>
<g mask="url(#mask33_1162_1070)">
<path d="M231.625 157.002H229.246V159.771H227.929V161.757H229.246V167.066C229.246 169.282 230.485 170.024 232.239 170.024C233.123 170.024 233.794 169.831 234.384 169.508V167.619C233.909 167.849 233.439 167.962 232.907 167.962C232.1 167.962 231.63 167.598 231.63 166.701V161.753H234.423V159.767H231.63V157.002H231.625Z" fill="#0033FF"/>
</g>
</g>
<mask id="mask34_1162_1070" style="mask-type:luminance" maskUnits="userSpaceOnUse" x="236" y="155" width="11" height="16">
<path d="M236.652 155.77H246.371V170.03H236.652V155.77Z" fill="white"/>
</mask>
<g mask="url(#mask34_1162_1070)">
<mask id="mask35_1162_1070" style="mask-type:luminance" maskUnits="userSpaceOnUse" x="61" y="47" width="238" height="126">
<path d="M80.7476 47.1523C78.1624 47.1523 75.6772 47.633 73.2883 48.5925C70.9004 49.5521 68.7929 50.9186 66.9652 52.6921C65.1383 54.4647 63.7291 56.5105 62.7402 58.8275C61.7513 61.1446 61.2568 63.5569 61.2568 66.0654V153.933C61.2568 156.441 61.7513 158.853 62.7402 161.17C63.7291 163.487 65.1383 165.533 66.9652 167.307C68.7929 169.079 70.9004 170.446 73.2883 171.405C75.6772 172.365 78.1624 172.846 80.7476 172.846H279.253C281.838 172.846 284.324 172.365 286.711 171.405C289.1 170.446 291.208 169.079 293.036 167.307C294.862 165.533 296.272 163.487 297.261 161.17C298.249 158.853 298.744 156.441 298.744 153.933V66.0654C298.744 63.5569 298.249 61.1446 297.261 58.8275C296.272 56.5105 294.862 54.4647 293.036 52.6921C291.208 50.9186 289.1 49.5521 286.711 48.5925C284.324 47.633 281.838 47.1523 279.253 47.1523H80.7476Z" fill="white"/>
</mask>
<g mask="url(#mask35_1162_1070)">
<path d="M242.451 159.559C240.836 159.559 239.873 160.38 239.204 161.335V155.914H236.824V169.853H239.204V164.164C239.204 162.597 240.166 161.663 241.548 161.663C242.965 161.663 243.771 162.56 243.771 164.126V169.853H246.151V163.435C246.151 161.085 244.791 159.559 242.451 159.559Z" fill="#0033FF"/>
</g>
</g>
<mask id="mask36_1162_1070" style="mask-type:luminance" maskUnits="userSpaceOnUse" x="75" y="50" width="92" height="50">
<path d="M75.7041 50.4297H166.252V99.8797H75.7041V50.4297Z" fill="white"/>
</mask>
<g mask="url(#mask36_1162_1070)">
<mask id="mask37_1162_1070" style="mask-type:luminance" maskUnits="userSpaceOnUse" x="61" y="47" width="238" height="126">
<path d="M80.7476 47.1523C78.1624 47.1523 75.6772 47.633 73.2883 48.5925C70.9004 49.5521 68.7929 50.9186 66.9652 52.6921C65.1383 54.4647 63.7291 56.5105 62.7402 58.8275C61.7513 61.1446 61.2568 63.5569 61.2568 66.0654V153.933C61.2568 156.441 61.7513 158.853 62.7402 161.17C63.7291 163.487 65.1383 165.533 66.9652 167.307C68.7929 169.079 70.9004 170.446 73.2883 171.405C75.6772 172.365 78.1624 172.846 80.7476 172.846H279.253C281.838 172.846 284.324 172.365 286.711 171.405C289.1 170.446 291.208 169.079 293.036 167.307C294.862 165.533 296.272 163.487 297.261 161.17C298.249 158.853 298.744 156.441 298.744 153.933V66.0654C298.744 63.5569 298.249 61.1446 297.261 58.8275C296.272 56.5105 294.862 54.4647 293.036 52.6921C291.208 50.9186 289.1 49.5521 286.711 48.5925C284.324 47.633 281.838 47.1523 279.253 47.1523H80.7476Z" fill="white"/>
</mask>
<g mask="url(#mask37_1162_1070)">
<path fill-rule="evenodd" clip-rule="evenodd" d="M115.43 69.0346C115.438 64.3672 117.614 60.203 121.017 57.4079C124.411 60.2155 126.566 64.3879 126.556 69.0562C126.548 73.7236 124.376 77.8878 120.969 80.6829C117.575 77.8752 115.42 73.702 115.43 69.0346ZM132.343 57.1105C130.94 60.3782 131.203 63.9144 132.744 66.8388C135.969 65.838 138.738 63.529 140.141 60.2614C141.544 56.9938 141.28 53.4575 139.74 50.5331C136.518 51.5304 133.746 53.842 132.343 57.1105ZM101.841 60.1823C103.231 63.4544 105.991 65.7751 109.212 66.7849C110.766 63.8641 111.043 60.3332 109.652 57.0557C108.262 53.7845 105.503 51.463 102.281 50.4531C100.727 53.3739 100.451 56.9048 101.841 60.1823ZM82.5092 83.2802C85.8768 84.6414 89.5212 84.3862 92.536 82.8903C91.5036 79.7611 89.124 77.0747 85.7564 75.7127C82.3879 74.3516 78.7444 74.6076 75.7305 76.0981C76.762 79.2283 79.1416 81.9182 82.5092 83.2802ZM156.152 75.8681C152.78 77.2176 150.387 79.8949 149.347 83.0206C152.356 84.5282 155.996 84.7968 159.373 83.4473C162.745 82.0988 165.138 79.4214 166.179 76.2958C163.168 74.7873 159.524 74.5196 156.152 75.8681ZM147.024 89.0536C142.214 89.0455 137.913 91.1353 135.019 94.4334C137.9 97.7388 142.192 99.8465 147.002 99.8546C151.812 99.8636 156.113 97.772 159.006 94.4748C156.13 91.1694 151.834 89.0617 147.024 89.0536ZM135.499 72.6966C132.093 75.9894 130.572 80.4223 130.93 84.7339C135.374 85.0942 139.947 83.6405 143.357 80.3468C146.765 77.0541 148.284 72.6212 147.926 68.3105C143.479 67.9457 138.91 69.403 135.499 72.6966ZM94.9194 89.0536C90.1092 89.0617 85.8166 91.1694 82.937 94.4748C85.8258 97.772 90.1305 99.8636 94.9407 99.8546C99.7508 99.8465 104.043 97.7388 106.923 94.4334C104.03 91.1362 99.7295 89.0455 94.9194 89.0536ZM106.443 72.6966C103.037 69.403 98.4638 67.9493 94.0166 68.3105C93.6582 72.6212 95.1777 77.0541 98.5851 80.3468C101.992 83.6405 106.568 85.0942 111.012 84.7339C111.37 80.4187 109.851 75.9894 106.443 72.6966Z" fill="#03CC54"/>
</g>
</g>
</svg>
