<svg width="360" height="221" viewBox="0 0 360 221" fill="none" xmlns="http://www.w3.org/2000/svg">
<rect width="360" height="221" fill="white"/>
<mask id="path-2-outside-1_1162_1077" maskUnits="userSpaceOnUse" x="52" y="104" width="76" height="33" fill="black">
<rect fill="white" x="52" y="104" width="76" height="33"/>
<path d="M67.12 134.504C64.404 134.504 62.08 133.93 60.148 132.782C58.244 131.634 56.774 130.01 55.738 127.91C54.73 125.782 54.226 123.276 54.226 120.392C54.226 117.452 54.758 114.89 55.822 112.706C56.886 110.494 58.412 108.786 60.4 107.582C62.388 106.378 64.782 105.776 67.582 105.776C69.038 105.776 70.2 105.902 71.068 106.154C71.936 106.406 72.636 106.672 73.168 106.952C73.7 107.204 74.19 107.33 74.638 107.33C74.918 107.33 75.142 107.274 75.31 107.162C75.478 107.05 75.59 106.91 75.646 106.742L75.856 106.28H76.822L77.242 113.84H76.15C75.982 113.168 75.716 112.454 75.352 111.698C74.988 110.914 74.484 110.186 73.84 109.514C73.224 108.814 72.44 108.254 71.488 107.834C70.564 107.414 69.43 107.204 68.086 107.204C66.574 107.204 65.272 107.484 64.18 108.044C63.116 108.604 62.22 109.36 61.492 110.312C60.792 111.236 60.232 112.272 59.812 113.42C59.42 114.568 59.14 115.73 58.972 116.906C58.804 118.082 58.72 119.188 58.72 120.224C58.72 121.792 58.888 123.346 59.224 124.886C59.588 126.398 60.148 127.77 60.904 129.002C61.66 130.234 62.654 131.228 63.886 131.984C65.118 132.712 66.602 133.076 68.338 133.076C69.066 133.076 69.78 132.992 70.48 132.824C71.208 132.656 71.838 132.362 72.37 131.942C72.902 131.522 73.238 130.934 73.378 130.178V124.634C73.378 123.906 73.196 123.388 72.832 123.08C72.496 122.744 71.88 122.576 70.984 122.576H70.312V121.358H79.342V122.576H78.754C78.222 122.576 77.83 122.716 77.578 122.996C77.354 123.248 77.242 123.696 77.242 124.34V134.084H76.402C76.29 133.72 76.122 133.454 75.898 133.286C75.702 133.09 75.408 132.992 75.016 132.992C74.652 132.992 74.232 133.076 73.756 133.244C73.308 133.384 72.762 133.552 72.118 133.748C71.502 133.944 70.788 134.112 69.976 134.252C69.164 134.42 68.212 134.504 67.12 134.504ZM92.9526 134.462C89.9006 134.462 87.6466 133.58 86.1906 131.816C84.7626 130.024 84.0486 127.546 84.0486 124.382C84.0486 122.198 84.3706 120.322 85.0146 118.754C85.6866 117.186 86.6806 115.982 87.9966 115.142C89.3406 114.302 91.0066 113.882 92.9946 113.882C94.7586 113.882 96.1866 114.19 97.2786 114.806C98.3706 115.394 99.2106 116.192 99.7986 117.2C100.387 118.18 100.779 119.258 100.975 120.434C101.199 121.61 101.311 122.786 101.311 123.962V124.34H87.1986L87.2406 122.996H97.4046C97.4046 121.316 97.2646 119.902 96.9846 118.754C96.7326 117.578 96.2846 116.696 95.6406 116.108C95.0246 115.492 94.1566 115.184 93.0366 115.184C91.8606 115.184 90.8946 115.506 90.1386 116.15C89.4106 116.794 88.8646 117.746 88.5006 119.006C88.1646 120.238 87.9826 121.764 87.9546 123.584C87.9546 124.788 88.0246 125.936 88.1646 127.028C88.3326 128.12 88.6266 129.1 89.0466 129.968C89.4946 130.836 90.1106 131.522 90.8946 132.026C91.7066 132.53 92.7566 132.782 94.0446 132.782C95.2486 132.782 96.2426 132.572 97.0266 132.152C97.8106 131.704 98.4406 131.13 98.9166 130.43C99.3926 129.73 99.7566 129.016 100.009 128.288L101.143 128.792C100.835 129.744 100.373 130.654 99.7566 131.522C99.1686 132.39 98.3286 133.104 97.2366 133.664C96.1726 134.196 94.7446 134.462 92.9526 134.462ZM116.509 134.462C113.401 134.462 111.091 133.594 109.579 131.858C108.095 130.094 107.353 127.532 107.353 124.172C107.353 120.84 108.095 118.292 109.579 116.528C111.091 114.736 113.401 113.84 116.509 113.84C119.617 113.84 121.913 114.722 123.397 116.486C124.909 118.25 125.665 120.798 125.665 124.13C125.665 127.518 124.909 130.094 123.397 131.858C121.913 133.594 119.617 134.462 116.509 134.462ZM116.509 133.118C118.329 133.118 119.645 132.348 120.457 130.808C121.297 129.24 121.717 127.014 121.717 124.13C121.717 121.218 121.283 119.006 120.415 117.494C119.575 115.954 118.259 115.184 116.467 115.184C114.675 115.184 113.359 115.954 112.519 117.494C111.679 119.034 111.259 121.26 111.259 124.172C111.259 127.056 111.679 129.268 112.519 130.808C113.387 132.348 114.717 133.118 116.509 133.118Z"/>
</mask>
<path d="M67.12 134.504C64.404 134.504 62.08 133.93 60.148 132.782C58.244 131.634 56.774 130.01 55.738 127.91C54.73 125.782 54.226 123.276 54.226 120.392C54.226 117.452 54.758 114.89 55.822 112.706C56.886 110.494 58.412 108.786 60.4 107.582C62.388 106.378 64.782 105.776 67.582 105.776C69.038 105.776 70.2 105.902 71.068 106.154C71.936 106.406 72.636 106.672 73.168 106.952C73.7 107.204 74.19 107.33 74.638 107.33C74.918 107.33 75.142 107.274 75.31 107.162C75.478 107.05 75.59 106.91 75.646 106.742L75.856 106.28H76.822L77.242 113.84H76.15C75.982 113.168 75.716 112.454 75.352 111.698C74.988 110.914 74.484 110.186 73.84 109.514C73.224 108.814 72.44 108.254 71.488 107.834C70.564 107.414 69.43 107.204 68.086 107.204C66.574 107.204 65.272 107.484 64.18 108.044C63.116 108.604 62.22 109.36 61.492 110.312C60.792 111.236 60.232 112.272 59.812 113.42C59.42 114.568 59.14 115.73 58.972 116.906C58.804 118.082 58.72 119.188 58.72 120.224C58.72 121.792 58.888 123.346 59.224 124.886C59.588 126.398 60.148 127.77 60.904 129.002C61.66 130.234 62.654 131.228 63.886 131.984C65.118 132.712 66.602 133.076 68.338 133.076C69.066 133.076 69.78 132.992 70.48 132.824C71.208 132.656 71.838 132.362 72.37 131.942C72.902 131.522 73.238 130.934 73.378 130.178V124.634C73.378 123.906 73.196 123.388 72.832 123.08C72.496 122.744 71.88 122.576 70.984 122.576H70.312V121.358H79.342V122.576H78.754C78.222 122.576 77.83 122.716 77.578 122.996C77.354 123.248 77.242 123.696 77.242 124.34V134.084H76.402C76.29 133.72 76.122 133.454 75.898 133.286C75.702 133.09 75.408 132.992 75.016 132.992C74.652 132.992 74.232 133.076 73.756 133.244C73.308 133.384 72.762 133.552 72.118 133.748C71.502 133.944 70.788 134.112 69.976 134.252C69.164 134.42 68.212 134.504 67.12 134.504ZM92.9526 134.462C89.9006 134.462 87.6466 133.58 86.1906 131.816C84.7626 130.024 84.0486 127.546 84.0486 124.382C84.0486 122.198 84.3706 120.322 85.0146 118.754C85.6866 117.186 86.6806 115.982 87.9966 115.142C89.3406 114.302 91.0066 113.882 92.9946 113.882C94.7586 113.882 96.1866 114.19 97.2786 114.806C98.3706 115.394 99.2106 116.192 99.7986 117.2C100.387 118.18 100.779 119.258 100.975 120.434C101.199 121.61 101.311 122.786 101.311 123.962V124.34H87.1986L87.2406 122.996H97.4046C97.4046 121.316 97.2646 119.902 96.9846 118.754C96.7326 117.578 96.2846 116.696 95.6406 116.108C95.0246 115.492 94.1566 115.184 93.0366 115.184C91.8606 115.184 90.8946 115.506 90.1386 116.15C89.4106 116.794 88.8646 117.746 88.5006 119.006C88.1646 120.238 87.9826 121.764 87.9546 123.584C87.9546 124.788 88.0246 125.936 88.1646 127.028C88.3326 128.12 88.6266 129.1 89.0466 129.968C89.4946 130.836 90.1106 131.522 90.8946 132.026C91.7066 132.53 92.7566 132.782 94.0446 132.782C95.2486 132.782 96.2426 132.572 97.0266 132.152C97.8106 131.704 98.4406 131.13 98.9166 130.43C99.3926 129.73 99.7566 129.016 100.009 128.288L101.143 128.792C100.835 129.744 100.373 130.654 99.7566 131.522C99.1686 132.39 98.3286 133.104 97.2366 133.664C96.1726 134.196 94.7446 134.462 92.9526 134.462ZM116.509 134.462C113.401 134.462 111.091 133.594 109.579 131.858C108.095 130.094 107.353 127.532 107.353 124.172C107.353 120.84 108.095 118.292 109.579 116.528C111.091 114.736 113.401 113.84 116.509 113.84C119.617 113.84 121.913 114.722 123.397 116.486C124.909 118.25 125.665 120.798 125.665 124.13C125.665 127.518 124.909 130.094 123.397 131.858C121.913 133.594 119.617 134.462 116.509 134.462ZM116.509 133.118C118.329 133.118 119.645 132.348 120.457 130.808C121.297 129.24 121.717 127.014 121.717 124.13C121.717 121.218 121.283 119.006 120.415 117.494C119.575 115.954 118.259 115.184 116.467 115.184C114.675 115.184 113.359 115.954 112.519 117.494C111.679 119.034 111.259 121.26 111.259 124.172C111.259 127.056 111.679 129.268 112.519 130.808C113.387 132.348 114.717 133.118 116.509 133.118Z" fill="#04AEE2"/>
<path d="M60.148 132.782L59.3735 134.067L59.3818 134.072L60.148 132.782ZM55.738 127.91L54.3824 128.552L54.3875 128.563L54.3928 128.574L55.738 127.91ZM55.822 112.706L57.1705 113.363L57.1738 113.356L55.822 112.706ZM60.4 107.582L61.1771 108.865H61.1771L60.4 107.582ZM71.068 106.154L71.4862 104.713H71.4862L71.068 106.154ZM73.168 106.952L72.4694 108.279L72.4973 108.294L72.5259 108.308L73.168 106.952ZM75.31 107.162L74.478 105.914L74.4779 105.914L75.31 107.162ZM75.646 106.742L74.2805 106.121L74.2479 106.193L74.223 106.268L75.646 106.742ZM75.856 106.28V104.78H74.8901L74.4905 105.659L75.856 106.28ZM76.822 106.28L78.3197 106.197L78.241 104.78H76.822V106.28ZM77.242 113.84V115.34H78.8276L78.7397 113.757L77.242 113.84ZM76.15 113.84L74.6948 114.204L74.9788 115.34H76.15V113.84ZM75.352 111.698L73.9915 112.33L73.9959 112.339L74.0005 112.349L75.352 111.698ZM73.84 109.514L72.7139 110.505L72.735 110.529L72.757 110.552L73.84 109.514ZM71.488 107.834L70.8673 109.2L70.8749 109.203L70.8825 109.206L71.488 107.834ZM64.18 108.044L63.4955 106.709L63.4884 106.713L63.4814 106.717L64.18 108.044ZM61.492 110.312L60.3005 109.401L60.2964 109.406L61.492 110.312ZM59.812 113.42L58.4033 112.905L58.3977 112.92L58.3925 112.935L59.812 113.42ZM58.972 116.906L60.4569 117.118L58.972 116.906ZM59.224 124.886L57.7585 125.206L57.7619 125.221L57.7657 125.237L59.224 124.886ZM60.904 129.002L62.1825 128.217L60.904 129.002ZM63.886 131.984L63.1015 133.262L63.1121 133.269L63.1229 133.275L63.886 131.984ZM70.48 132.824L70.1427 131.362L70.1299 131.365L70.48 132.824ZM73.378 130.178L74.8529 130.451L74.878 130.316V130.178H73.378ZM72.832 123.08L71.7713 124.141L71.8155 124.185L71.8631 124.225L72.832 123.08ZM70.312 122.576H68.812V124.076H70.312V122.576ZM70.312 121.358V119.858H68.812V121.358H70.312ZM79.342 121.358H80.842V119.858H79.342V121.358ZM79.342 122.576V124.076H80.842V122.576H79.342ZM77.578 122.996L76.463 121.993L76.4569 121.999L77.578 122.996ZM77.242 134.084V135.584H78.742V134.084H77.242ZM76.402 134.084L74.9683 134.525L75.2941 135.584H76.402V134.084ZM75.898 133.286L74.8373 134.347L74.9127 134.422L74.998 134.486L75.898 133.286ZM73.756 133.244L74.2034 134.676L74.2295 134.668L74.2552 134.658L73.756 133.244ZM72.118 133.748L71.6813 132.313L71.6722 132.316L71.6632 132.319L72.118 133.748ZM69.976 134.252L69.7211 132.774L69.6965 132.778L69.6721 132.783L69.976 134.252ZM67.12 133.004C64.6174 133.004 62.5703 132.477 60.9142 131.492L59.3818 134.072C61.5897 135.383 64.1906 136.004 67.12 136.004V133.004ZM60.9225 131.497C59.2776 130.506 57.9994 129.103 57.0832 127.246L54.3928 128.574C55.5486 130.917 57.2104 132.762 59.3735 134.067L60.9225 131.497ZM57.0936 127.268C56.1996 125.381 55.726 123.103 55.726 120.392H52.726C52.726 123.449 53.2604 126.183 54.3824 128.552L57.0936 127.268ZM55.726 120.392C55.726 117.632 56.225 115.304 57.1705 113.363L54.4735 112.049C53.291 114.476 52.726 117.271 52.726 120.392H55.726ZM57.1738 113.356C58.1191 111.391 59.4522 109.91 61.1771 108.865L59.6229 106.299C57.3718 107.662 55.6529 109.597 54.4703 112.056L57.1738 113.356ZM61.1771 108.865C62.8868 107.83 64.9997 107.276 67.582 107.276V104.276C64.5643 104.276 61.8892 104.926 59.6229 106.299L61.1771 108.865ZM67.582 107.276C68.9715 107.276 69.9747 107.399 70.6498 107.595L71.4862 104.713C70.4253 104.405 69.1045 104.276 67.582 104.276V107.276ZM70.6498 107.595C71.464 107.831 72.0594 108.064 72.4694 108.279L73.8666 105.625C73.2126 105.28 72.408 104.981 71.4862 104.713L70.6498 107.595ZM72.5259 108.308C73.1983 108.626 73.9096 108.83 74.638 108.83V105.83C74.4704 105.83 74.2017 105.782 73.8101 105.596L72.5259 108.308ZM74.638 108.83C75.1034 108.83 75.6493 108.739 76.1421 108.41L74.4779 105.914C74.5559 105.862 74.621 105.841 74.6522 105.833C74.6812 105.826 74.6803 105.83 74.638 105.83V108.83ZM76.142 108.41C76.5468 108.14 76.893 107.744 77.069 107.216L74.223 106.268C74.2516 106.182 74.2956 106.102 74.3487 106.036C74.4004 105.971 74.4495 105.933 74.478 105.914L76.142 108.41ZM77.0116 107.363L77.2215 106.901L74.4905 105.659L74.2805 106.121L77.0116 107.363ZM75.856 107.78H76.822V104.78H75.856V107.78ZM75.3243 106.363L75.7443 113.923L78.7397 113.757L78.3197 106.197L75.3243 106.363ZM77.242 112.34H76.15V115.34H77.242V112.34ZM77.6052 113.476C77.4079 112.687 77.1028 111.877 76.7035 111.047L74.0005 112.349C74.3292 113.031 74.5561 113.649 74.6948 114.204L77.6052 113.476ZM76.7125 111.066C76.2738 110.121 75.6724 109.258 74.923 108.476L72.757 110.552C73.2956 111.114 73.7022 111.707 73.9915 112.33L76.7125 111.066ZM74.9661 108.523C74.1904 107.642 73.2214 106.959 72.0935 106.462L70.8825 109.206C71.6586 109.549 72.2576 109.986 72.7139 110.505L74.9661 108.523ZM72.1087 106.468C70.9374 105.936 69.578 105.704 68.086 105.704V108.704C69.282 108.704 70.1906 108.892 70.8673 109.2L72.1087 106.468ZM68.086 105.704C66.3903 105.704 64.8429 106.018 63.4955 106.709L64.8645 109.379C65.7011 108.95 66.7577 108.704 68.086 108.704V105.704ZM63.4814 106.717C62.2255 107.378 61.1611 108.275 60.3005 109.401L62.6835 111.223C63.2789 110.445 64.0065 109.83 64.8786 109.371L63.4814 106.717ZM60.2964 109.406C59.5015 110.455 58.8717 111.624 58.4033 112.905L61.2207 113.935C61.5923 112.92 62.0825 112.017 62.6876 111.218L60.2964 109.406ZM58.3925 112.935C57.9709 114.17 57.6686 115.423 57.4871 116.694L60.4569 117.118C60.6114 116.037 60.8691 114.966 61.2315 113.905L58.3925 112.935ZM57.4871 116.694C57.3105 117.93 57.22 119.108 57.22 120.224H60.22C60.22 119.268 60.2975 118.234 60.4569 117.118L57.4871 116.694ZM57.22 120.224C57.22 121.9 57.3997 123.561 57.7585 125.206L60.6895 124.566C60.3763 123.131 60.22 121.684 60.22 120.224H57.22ZM57.7657 125.237C58.1637 126.89 58.7812 128.411 59.6255 129.787L62.1825 128.217C61.5148 127.129 61.0123 125.906 60.6823 124.535L57.7657 125.237ZM59.6255 129.787C60.505 131.22 61.6682 132.383 63.1015 133.262L64.6705 130.706C63.6398 130.073 62.815 129.248 62.1825 128.217L59.6255 129.787ZM63.1229 133.275C64.6307 134.166 66.3907 134.576 68.338 134.576V131.576C66.8133 131.576 65.6053 131.258 64.6491 130.693L63.1229 133.275ZM68.338 134.576C69.1826 134.576 70.0141 134.478 70.8301 134.283L70.1299 131.365C69.5459 131.506 68.9494 131.576 68.338 131.576V134.576ZM70.8173 134.286C71.7389 134.073 72.5764 133.69 73.2995 133.119L71.4405 130.765C71.0996 131.034 70.6771 131.239 70.1427 131.362L70.8173 134.286ZM73.2995 133.119C74.1553 132.444 74.6562 131.513 74.8529 130.451L71.9031 129.905C71.8198 130.355 71.6487 130.6 71.4405 130.765L73.2995 133.119ZM74.878 130.178V124.634H71.878V130.178H74.878ZM74.878 124.634C74.878 123.699 74.6469 122.651 73.8009 121.935L71.8631 124.225C71.8121 124.182 71.8102 124.151 71.8263 124.197C71.8462 124.253 71.878 124.387 71.878 124.634H74.878ZM73.8927 122.019C73.1118 121.238 71.9631 121.076 70.984 121.076V124.076C71.3478 124.076 71.584 124.111 71.7233 124.149C71.8629 124.187 71.8407 124.21 71.7713 124.141L73.8927 122.019ZM70.984 121.076H70.312V124.076H70.984V121.076ZM71.812 122.576V121.358H68.812V122.576H71.812ZM70.312 122.858H79.342V119.858H70.312V122.858ZM77.842 121.358V122.576H80.842V121.358H77.842ZM79.342 121.076H78.754V124.076H79.342V121.076ZM78.754 121.076C77.9771 121.076 77.1012 121.284 76.4631 121.993L78.6929 123.999C78.667 124.028 78.639 124.051 78.6127 124.069C78.5869 124.085 78.5692 124.092 78.5655 124.094C78.5625 124.095 78.5744 124.09 78.606 124.085C78.6377 124.081 78.6861 124.076 78.754 124.076V121.076ZM76.4569 121.999C75.8471 122.685 75.742 123.621 75.742 124.34H78.742C78.742 124.096 78.7641 123.953 78.7812 123.885C78.7991 123.813 78.7962 123.883 78.6991 123.993L76.4569 121.999ZM75.742 124.34V134.084H78.742V124.34H75.742ZM77.242 132.584H76.402V135.584H77.242V132.584ZM77.8357 133.643C77.6634 133.083 77.3526 132.502 76.798 132.086L74.998 134.486C74.9735 134.468 74.9551 134.45 74.9423 134.436C74.9298 134.422 74.9241 134.413 74.9238 134.412C74.9235 134.412 74.9285 134.42 74.9368 134.439C74.9451 134.457 74.9561 134.486 74.9683 134.525L77.8357 133.643ZM76.9587 132.225C76.3821 131.649 75.6392 131.492 75.016 131.492V134.492C75.0915 134.492 75.0965 134.502 75.0562 134.489C75.0086 134.473 74.9226 134.432 74.8373 134.347L76.9587 132.225ZM75.016 131.492C74.4302 131.492 73.8357 131.625 73.2568 131.83L74.2552 134.658C74.6283 134.527 74.8738 134.492 75.016 134.492V131.492ZM73.3086 131.812C72.8653 131.951 72.3231 132.118 71.6813 132.313L72.5547 135.183C73.2009 134.986 73.7507 134.817 74.2034 134.676L73.3086 131.812ZM71.6632 132.319C71.1276 132.489 70.4828 132.642 69.7211 132.774L70.2309 135.73C71.0932 135.582 71.8764 135.399 72.5728 135.177L71.6632 132.319ZM69.6721 132.783C68.9858 132.925 68.14 133.004 67.12 133.004V136.004C68.284 136.004 69.3422 135.915 70.2799 135.721L69.6721 132.783ZM86.1906 131.816L85.0175 132.751L85.0256 132.761L85.0338 132.771L86.1906 131.816ZM85.0146 118.754L83.6359 118.163L83.6314 118.174L83.6271 118.184L85.0146 118.754ZM87.9966 115.142L87.2016 113.87L87.1956 113.874L87.1896 113.878L87.9966 115.142ZM97.2786 114.806L96.5416 116.112L96.5545 116.12L96.5675 116.127L97.2786 114.806ZM99.7986 117.2L98.503 117.956L98.5076 117.964L98.5124 117.972L99.7986 117.2ZM100.975 120.434L99.495 120.681L99.4979 120.698L99.5011 120.715L100.975 120.434ZM101.311 124.34V125.84H102.811V124.34H101.311ZM87.1986 124.34L85.6994 124.293L85.651 125.84H87.1986V124.34ZM87.2406 122.996V121.496H85.7868L85.7414 122.949L87.2406 122.996ZM97.4046 122.996V124.496H98.9046V122.996H97.4046ZM96.9846 118.754L95.5179 119.068L95.5223 119.089L95.5273 119.109L96.9846 118.754ZM95.6406 116.108L94.58 117.169L94.6041 117.193L94.6292 117.216L95.6406 116.108ZM90.1386 116.15L89.1659 115.008L89.1553 115.017L89.1448 115.027L90.1386 116.15ZM88.5006 119.006L87.0596 118.59L87.0564 118.6L87.0535 118.611L88.5006 119.006ZM87.9546 123.584L86.4548 123.561L86.4546 123.572V123.584H87.9546ZM88.1646 127.028L86.6768 127.219L86.6792 127.237L86.6821 127.256L88.1646 127.028ZM89.0466 129.968L87.6964 130.621L87.7048 130.639L87.7137 130.656L89.0466 129.968ZM90.8946 132.026L90.0835 133.288L90.0935 133.294L90.1036 133.3L90.8946 132.026ZM97.0266 132.152L97.735 133.474L97.753 133.465L97.7708 133.454L97.0266 132.152ZM98.9166 130.43L100.157 131.273L98.9166 130.43ZM100.009 128.288L100.618 126.917L99.1254 126.254L98.5911 127.797L100.009 128.288ZM101.143 128.792L102.57 129.254L102.985 127.969L101.752 127.421L101.143 128.792ZM99.7566 131.522L98.5334 130.654L98.5239 130.667L98.5147 130.681L99.7566 131.522ZM97.2366 133.664L97.9074 135.006L97.9143 135.002L97.9211 134.999L97.2366 133.664ZM92.9526 132.962C90.1887 132.962 88.4305 132.173 87.3475 130.861L85.0338 132.771C86.8627 134.987 89.6125 135.962 92.9526 135.962V132.962ZM87.3637 130.881C86.2152 129.44 85.5486 127.334 85.5486 124.382H82.5486C82.5486 127.758 83.31 130.608 85.0175 132.751L87.3637 130.881ZM85.5486 124.382C85.5486 122.34 85.8505 120.667 86.4022 119.324L83.6271 118.184C82.8908 119.977 82.5486 122.056 82.5486 124.382H85.5486ZM86.3933 119.345C86.9582 118.027 87.7651 117.069 88.8037 116.406L87.1896 113.878C85.5962 114.895 84.415 116.345 83.6359 118.163L86.3933 119.345ZM88.7916 116.414C89.8434 115.757 91.2167 115.382 92.9946 115.382V112.382C90.7966 112.382 88.8379 112.847 87.2016 113.87L88.7916 116.414ZM92.9946 115.382C94.5999 115.382 95.7477 115.665 96.5416 116.112L98.0156 113.5C96.6256 112.715 94.9174 112.382 92.9946 112.382V115.382ZM96.5675 116.127C97.4323 116.592 98.0629 117.201 98.503 117.956L101.094 116.444C100.358 115.183 99.309 114.196 97.9898 113.485L96.5675 116.127ZM98.5124 117.972C98.9994 118.783 99.3286 119.682 99.495 120.681L102.454 120.187C102.229 118.834 101.774 117.577 101.085 116.428L98.5124 117.972ZM99.5011 120.715C99.7078 121.8 99.8106 122.882 99.8106 123.962H102.811C102.811 122.69 102.689 121.42 102.448 120.153L99.5011 120.715ZM99.8106 123.962V124.34H102.811V123.962H99.8106ZM101.311 122.84H87.1986V125.84H101.311V122.84ZM88.6979 124.387L88.7399 123.043L85.7414 122.949L85.6994 124.293L88.6979 124.387ZM87.2406 124.496H97.4046V121.496H87.2406V124.496ZM98.9046 122.996C98.9046 121.242 98.7594 119.7 98.4419 118.399L95.5273 119.109C95.7698 120.104 95.9046 121.39 95.9046 122.996H98.9046ZM98.4513 118.44C98.1581 117.071 97.5994 115.865 96.652 115L94.6292 117.216C94.9698 117.527 95.3072 118.085 95.5179 119.068L98.4513 118.44ZM96.7013 115.047C95.7298 114.076 94.4355 113.684 93.0366 113.684V116.684C93.8777 116.684 94.3195 116.908 94.58 117.169L96.7013 115.047ZM93.0366 113.684C91.5731 113.684 90.2415 114.092 89.1659 115.008L91.1113 117.292C91.5477 116.92 92.1482 116.684 93.0366 116.684V113.684ZM89.1448 115.027C88.1413 115.914 87.4757 117.149 87.0596 118.59L89.9417 119.422C90.2535 118.343 90.6799 117.674 91.1325 117.273L89.1448 115.027ZM87.0535 118.611C86.6737 120.004 86.484 121.664 86.4548 123.561L89.4544 123.607C89.4813 121.864 89.6555 120.472 89.9478 119.401L87.0535 118.611ZM86.4546 123.584C86.4546 124.846 86.528 126.058 86.6768 127.219L89.6524 126.837C89.5213 125.814 89.4546 124.73 89.4546 123.584H86.4546ZM86.6821 127.256C86.8695 128.475 87.2027 129.601 87.6964 130.621L90.3969 129.315C90.0506 128.599 89.7957 127.765 89.6472 126.8L86.6821 127.256ZM87.7137 130.656C88.2763 131.746 89.0675 132.635 90.0835 133.288L91.7058 130.764C91.1538 130.409 90.713 129.926 90.3796 129.28L87.7137 130.656ZM90.1036 133.3C91.2221 133.995 92.5713 134.282 94.0446 134.282V131.282C92.9419 131.282 92.1911 131.065 91.6857 130.752L90.1036 133.3ZM94.0446 134.282C95.4122 134.282 96.6697 134.045 97.735 133.474L96.3183 130.83C95.8155 131.099 95.085 131.282 94.0446 131.282V134.282ZM97.7708 133.454C98.7395 132.901 99.5442 132.175 100.157 131.273L97.6762 129.587C97.337 130.085 96.8818 130.507 96.2824 130.85L97.7708 133.454ZM100.157 131.273C100.7 130.475 101.127 129.643 101.426 128.779L98.5911 127.797C98.3864 128.389 98.0852 128.985 97.6762 129.587L100.157 131.273ZM99.3994 129.659L100.533 130.163L101.752 127.421L100.618 126.917L99.3994 129.659ZM99.7155 128.33C99.4573 129.128 99.0668 129.902 98.5334 130.654L100.98 132.39C101.678 131.406 102.212 130.36 102.57 129.254L99.7155 128.33ZM98.5147 130.681C98.0905 131.307 97.4583 131.865 96.5522 132.329L97.9211 134.999C99.199 134.343 100.247 133.473 100.999 132.363L98.5147 130.681ZM96.5658 132.322C95.7888 132.711 94.6195 132.962 92.9526 132.962V135.962C94.8697 135.962 96.5564 135.681 97.9074 135.006L96.5658 132.322ZM109.579 131.858L108.431 132.824L108.439 132.833L108.448 132.843L109.579 131.858ZM109.579 116.528L108.432 115.561L108.431 115.562L109.579 116.528ZM123.397 116.486L122.249 117.452L122.258 117.462L123.397 116.486ZM123.397 131.858L122.258 130.882L122.257 130.883L123.397 131.858ZM120.457 130.808L119.134 130.1L119.13 130.108L120.457 130.808ZM120.415 117.494L119.098 118.212L119.106 118.227L119.114 118.241L120.415 117.494ZM112.519 117.494L113.836 118.212L112.519 117.494ZM112.519 130.808L111.202 131.526L111.207 131.535L111.212 131.545L112.519 130.808ZM116.509 132.962C113.675 132.962 111.847 132.178 110.71 130.873L108.448 132.843C110.335 135.01 113.127 135.962 116.509 135.962V132.962ZM110.727 130.892C109.554 129.499 108.853 127.336 108.853 124.172H105.853C105.853 127.728 106.635 130.689 108.431 132.824L110.727 130.892ZM108.853 124.172C108.853 121.039 109.553 118.889 110.727 117.494L108.431 115.562C106.637 117.695 105.853 120.641 105.853 124.172H108.853ZM110.725 117.495C111.866 116.143 113.69 115.34 116.509 115.34V112.34C113.112 112.34 110.315 113.329 108.432 115.561L110.725 117.495ZM116.509 115.34C119.337 115.34 121.14 116.134 122.249 117.452L124.545 115.52C122.685 113.31 119.896 112.34 116.509 112.34V115.34ZM122.258 117.462C123.454 118.857 124.165 121.003 124.165 124.13H127.165C127.165 120.593 126.364 117.643 124.536 115.51L122.258 117.462ZM124.165 124.13C124.165 127.32 123.45 129.491 122.258 130.882L124.536 132.834C126.367 130.697 127.165 127.716 127.165 124.13H124.165ZM122.257 130.883C121.15 132.177 119.345 132.962 116.509 132.962V135.962C119.889 135.962 122.675 135.011 124.537 132.833L122.257 130.883ZM116.509 134.618C117.633 134.618 118.69 134.379 119.618 133.835C120.551 133.29 121.266 132.489 121.784 131.508L119.13 130.108C118.835 130.667 118.487 131.021 118.103 131.246C117.716 131.472 117.204 131.618 116.509 131.618V134.618ZM121.779 131.516C122.787 129.635 123.217 127.124 123.217 124.13H120.217C120.217 126.904 119.807 128.845 119.134 130.1L121.779 131.516ZM123.217 124.13C123.217 121.111 122.774 118.591 121.716 116.747L119.114 118.241C119.791 119.421 120.217 121.325 120.217 124.13H123.217ZM121.732 116.776C121.201 115.803 120.482 115.009 119.555 114.467C118.63 113.925 117.582 113.684 116.467 113.684V116.684C117.144 116.684 117.649 116.828 118.04 117.056C118.429 117.284 118.788 117.645 119.098 118.212L121.732 116.776ZM116.467 113.684C115.352 113.684 114.303 113.925 113.378 114.467C112.451 115.009 111.732 115.803 111.202 116.776L113.836 118.212C114.145 117.645 114.504 117.284 114.893 117.056C115.284 116.828 115.79 116.684 116.467 116.684V113.684ZM111.202 116.776C110.187 118.636 109.759 121.156 109.759 124.172H112.759C112.759 121.364 113.17 119.432 113.836 118.212L111.202 116.776ZM109.759 124.172C109.759 127.163 110.188 129.667 111.202 131.526L113.836 130.09C113.17 128.869 112.759 126.949 112.759 124.172H109.759ZM111.212 131.545C112.35 133.564 114.185 134.618 116.509 134.618V131.618C115.249 131.618 114.423 131.132 113.825 130.071L111.212 131.545Z" fill="#04AEE2" mask="url(#path-2-outside-1_1162_1077)"/>
<mask id="path-4-outside-2_1162_1077" maskUnits="userSpaceOnUse" x="129.514" y="103" width="90" height="34" fill="black">
<rect fill="white" x="129.514" y="103" width="90" height="34"/>
<path d="M131.614 134V132.782C132.65 132.782 133.392 132.726 133.84 132.614C134.288 132.502 134.568 132.264 134.68 131.9C134.792 131.536 134.848 130.99 134.848 130.262V110.018C134.848 109.29 134.792 108.758 134.68 108.422C134.568 108.058 134.288 107.82 133.84 107.708C133.392 107.568 132.65 107.498 131.614 107.498V106.28H142.156C144.172 106.28 145.936 106.504 147.448 106.952C148.96 107.372 150.136 108.044 150.976 108.968C151.844 109.892 152.278 111.124 152.278 112.664C152.278 114.232 151.802 115.562 150.85 116.654C149.898 117.746 148.554 118.488 146.818 118.88V118.922C148.134 119.146 149.296 119.58 150.304 120.224C151.312 120.868 152.096 121.722 152.656 122.786C153.244 123.822 153.538 125.068 153.538 126.524C153.538 128.26 153.118 129.688 152.278 130.808C151.438 131.9 150.22 132.712 148.624 133.244C147.028 133.748 145.096 134 142.828 134H131.614ZM142.198 132.614C143.57 132.614 144.788 132.418 145.852 132.026C146.916 131.634 147.742 130.99 148.33 130.094C148.946 129.17 149.254 127.966 149.254 126.482C149.254 124.41 148.638 122.786 147.406 121.61C146.174 120.434 144.354 119.846 141.946 119.846H138.712V129.548C138.712 130.724 138.95 131.536 139.426 131.984C139.902 132.404 140.826 132.614 142.198 132.614ZM138.712 118.376H141.82C143.976 118.376 145.586 117.942 146.65 117.074C147.714 116.206 148.246 114.876 148.246 113.084C148.246 111.712 147.938 110.634 147.322 109.85C146.734 109.066 145.922 108.52 144.886 108.212C143.878 107.876 142.73 107.708 141.442 107.708C140.602 107.708 139.986 107.764 139.594 107.876C139.23 107.988 138.992 108.184 138.88 108.464C138.768 108.744 138.712 109.136 138.712 109.64V118.376ZM158.837 134V132.782C159.761 132.782 160.419 132.726 160.811 132.614C161.231 132.502 161.483 132.292 161.567 131.984C161.679 131.648 161.735 131.158 161.735 130.514V108.842C161.735 108.114 161.651 107.638 161.483 107.414C161.315 107.162 160.979 107.036 160.475 107.036H159.047V105.776L164.129 104.936H165.305V130.514C165.305 131.158 165.361 131.648 165.473 131.984C165.585 132.292 165.837 132.502 166.229 132.614C166.649 132.726 167.293 132.782 168.161 132.782V134H158.837ZM181.023 134.504C179.147 134.504 177.747 134 176.823 132.992C175.899 131.984 175.437 130.486 175.437 128.498V117.914C175.437 117.186 175.353 116.696 175.185 116.444C175.017 116.192 174.681 116.066 174.177 116.066H172.749V114.848L177.831 114.092H179.007V127.826C179.007 128.666 179.133 129.436 179.385 130.136C179.637 130.836 180.043 131.396 180.603 131.816C181.191 132.236 181.947 132.446 182.871 132.446C183.767 132.446 184.551 132.25 185.223 131.858C185.895 131.438 186.497 130.906 187.029 130.262C187.561 129.618 188.037 128.974 188.457 128.33V130.094C188.009 130.794 187.435 131.494 186.735 132.194C186.063 132.866 185.251 133.426 184.299 133.874C183.375 134.294 182.283 134.504 181.023 134.504ZM187.911 134V131.06H187.827L187.869 117.914C187.869 117.186 187.785 116.696 187.617 116.444C187.449 116.192 187.113 116.066 186.609 116.066H185.181V114.848L190.263 114.092H191.397V130.514C191.397 131.158 191.453 131.648 191.565 131.984C191.677 132.292 191.929 132.502 192.321 132.614C192.741 132.726 193.399 132.782 194.295 132.782V134H187.911ZM209.037 134.462C205.985 134.462 203.731 133.58 202.275 131.816C200.847 130.024 200.133 127.546 200.133 124.382C200.133 122.198 200.455 120.322 201.099 118.754C201.771 117.186 202.765 115.982 204.081 115.142C205.425 114.302 207.091 113.882 209.079 113.882C210.843 113.882 212.271 114.19 213.363 114.806C214.455 115.394 215.295 116.192 215.883 117.2C216.471 118.18 216.863 119.258 217.059 120.434C217.283 121.61 217.395 122.786 217.395 123.962V124.34H203.283L203.325 122.996H213.489C213.489 121.316 213.349 119.902 213.069 118.754C212.817 117.578 212.369 116.696 211.725 116.108C211.109 115.492 210.241 115.184 209.121 115.184C207.945 115.184 206.979 115.506 206.223 116.15C205.495 116.794 204.949 117.746 204.585 119.006C204.249 120.238 204.067 121.764 204.039 123.584C204.039 124.788 204.109 125.936 204.249 127.028C204.417 128.12 204.711 129.1 205.131 129.968C205.579 130.836 206.195 131.522 206.979 132.026C207.791 132.53 208.841 132.782 210.129 132.782C211.333 132.782 212.327 132.572 213.111 132.152C213.895 131.704 214.525 131.13 215.001 130.43C215.477 129.73 215.841 129.016 216.093 128.288L217.227 128.792C216.919 129.744 216.457 130.654 215.841 131.522C215.253 132.39 214.413 133.104 213.321 133.664C212.257 134.196 210.829 134.462 209.037 134.462Z"/>
</mask>
<path d="M131.614 134V132.782C132.65 132.782 133.392 132.726 133.84 132.614C134.288 132.502 134.568 132.264 134.68 131.9C134.792 131.536 134.848 130.99 134.848 130.262V110.018C134.848 109.29 134.792 108.758 134.68 108.422C134.568 108.058 134.288 107.82 133.84 107.708C133.392 107.568 132.65 107.498 131.614 107.498V106.28H142.156C144.172 106.28 145.936 106.504 147.448 106.952C148.96 107.372 150.136 108.044 150.976 108.968C151.844 109.892 152.278 111.124 152.278 112.664C152.278 114.232 151.802 115.562 150.85 116.654C149.898 117.746 148.554 118.488 146.818 118.88V118.922C148.134 119.146 149.296 119.58 150.304 120.224C151.312 120.868 152.096 121.722 152.656 122.786C153.244 123.822 153.538 125.068 153.538 126.524C153.538 128.26 153.118 129.688 152.278 130.808C151.438 131.9 150.22 132.712 148.624 133.244C147.028 133.748 145.096 134 142.828 134H131.614ZM142.198 132.614C143.57 132.614 144.788 132.418 145.852 132.026C146.916 131.634 147.742 130.99 148.33 130.094C148.946 129.17 149.254 127.966 149.254 126.482C149.254 124.41 148.638 122.786 147.406 121.61C146.174 120.434 144.354 119.846 141.946 119.846H138.712V129.548C138.712 130.724 138.95 131.536 139.426 131.984C139.902 132.404 140.826 132.614 142.198 132.614ZM138.712 118.376H141.82C143.976 118.376 145.586 117.942 146.65 117.074C147.714 116.206 148.246 114.876 148.246 113.084C148.246 111.712 147.938 110.634 147.322 109.85C146.734 109.066 145.922 108.52 144.886 108.212C143.878 107.876 142.73 107.708 141.442 107.708C140.602 107.708 139.986 107.764 139.594 107.876C139.23 107.988 138.992 108.184 138.88 108.464C138.768 108.744 138.712 109.136 138.712 109.64V118.376ZM158.837 134V132.782C159.761 132.782 160.419 132.726 160.811 132.614C161.231 132.502 161.483 132.292 161.567 131.984C161.679 131.648 161.735 131.158 161.735 130.514V108.842C161.735 108.114 161.651 107.638 161.483 107.414C161.315 107.162 160.979 107.036 160.475 107.036H159.047V105.776L164.129 104.936H165.305V130.514C165.305 131.158 165.361 131.648 165.473 131.984C165.585 132.292 165.837 132.502 166.229 132.614C166.649 132.726 167.293 132.782 168.161 132.782V134H158.837ZM181.023 134.504C179.147 134.504 177.747 134 176.823 132.992C175.899 131.984 175.437 130.486 175.437 128.498V117.914C175.437 117.186 175.353 116.696 175.185 116.444C175.017 116.192 174.681 116.066 174.177 116.066H172.749V114.848L177.831 114.092H179.007V127.826C179.007 128.666 179.133 129.436 179.385 130.136C179.637 130.836 180.043 131.396 180.603 131.816C181.191 132.236 181.947 132.446 182.871 132.446C183.767 132.446 184.551 132.25 185.223 131.858C185.895 131.438 186.497 130.906 187.029 130.262C187.561 129.618 188.037 128.974 188.457 128.33V130.094C188.009 130.794 187.435 131.494 186.735 132.194C186.063 132.866 185.251 133.426 184.299 133.874C183.375 134.294 182.283 134.504 181.023 134.504ZM187.911 134V131.06H187.827L187.869 117.914C187.869 117.186 187.785 116.696 187.617 116.444C187.449 116.192 187.113 116.066 186.609 116.066H185.181V114.848L190.263 114.092H191.397V130.514C191.397 131.158 191.453 131.648 191.565 131.984C191.677 132.292 191.929 132.502 192.321 132.614C192.741 132.726 193.399 132.782 194.295 132.782V134H187.911ZM209.037 134.462C205.985 134.462 203.731 133.58 202.275 131.816C200.847 130.024 200.133 127.546 200.133 124.382C200.133 122.198 200.455 120.322 201.099 118.754C201.771 117.186 202.765 115.982 204.081 115.142C205.425 114.302 207.091 113.882 209.079 113.882C210.843 113.882 212.271 114.19 213.363 114.806C214.455 115.394 215.295 116.192 215.883 117.2C216.471 118.18 216.863 119.258 217.059 120.434C217.283 121.61 217.395 122.786 217.395 123.962V124.34H203.283L203.325 122.996H213.489C213.489 121.316 213.349 119.902 213.069 118.754C212.817 117.578 212.369 116.696 211.725 116.108C211.109 115.492 210.241 115.184 209.121 115.184C207.945 115.184 206.979 115.506 206.223 116.15C205.495 116.794 204.949 117.746 204.585 119.006C204.249 120.238 204.067 121.764 204.039 123.584C204.039 124.788 204.109 125.936 204.249 127.028C204.417 128.12 204.711 129.1 205.131 129.968C205.579 130.836 206.195 131.522 206.979 132.026C207.791 132.53 208.841 132.782 210.129 132.782C211.333 132.782 212.327 132.572 213.111 132.152C213.895 131.704 214.525 131.13 215.001 130.43C215.477 129.73 215.841 129.016 216.093 128.288L217.227 128.792C216.919 129.744 216.457 130.654 215.841 131.522C215.253 132.39 214.413 133.104 213.321 133.664C212.257 134.196 210.829 134.462 209.037 134.462Z" fill="#6ECDE3"/>
<path d="M131.614 134H130.114V135.5H131.614V134ZM131.614 132.782V131.282H130.114V132.782H131.614ZM133.84 132.614L134.203 134.069H134.203L133.84 132.614ZM134.68 108.422L133.246 108.863L133.251 108.88L133.257 108.896L134.68 108.422ZM133.84 107.708L133.392 109.14L133.434 109.153L133.476 109.163L133.84 107.708ZM131.614 107.498H130.114V108.998H131.614V107.498ZM131.614 106.28V104.78H130.114V106.28H131.614ZM147.448 106.952L147.022 108.39L147.034 108.394L147.046 108.397L147.448 106.952ZM150.976 108.968L149.866 109.977L149.874 109.986L149.882 109.995L150.976 108.968ZM150.85 116.654L149.719 115.668L150.85 116.654ZM146.818 118.88L146.487 117.417L145.318 117.681V118.88H146.818ZM146.818 118.922H145.318V120.188L146.566 120.401L146.818 118.922ZM150.304 120.224L151.111 118.96L150.304 120.224ZM152.656 122.786L151.328 123.485L151.339 123.506L151.351 123.526L152.656 122.786ZM152.278 130.808L153.467 131.723L153.472 131.715L153.478 131.708L152.278 130.808ZM148.624 133.244L149.075 134.674L149.087 134.671L149.098 134.667L148.624 133.244ZM145.852 132.026L146.37 133.434L145.852 132.026ZM148.33 130.094L147.082 129.262L147.076 129.271L148.33 130.094ZM138.712 119.846V118.346H137.212V119.846H138.712ZM139.426 131.984L138.398 133.076L138.415 133.093L138.433 133.109L139.426 131.984ZM138.712 118.376H137.212V119.876H138.712V118.376ZM146.65 117.074L145.701 115.912L146.65 117.074ZM147.322 109.85L146.122 110.75L146.132 110.763L146.142 110.777L147.322 109.85ZM144.886 108.212L144.411 109.635L144.435 109.643L144.458 109.65L144.886 108.212ZM139.594 107.876L139.182 106.434L139.167 106.438L139.153 106.442L139.594 107.876ZM138.88 108.464L137.487 107.907L137.487 107.907L138.88 108.464ZM133.114 134V132.782H130.114V134H133.114ZM131.614 134.282C132.659 134.282 133.562 134.23 134.203 134.069L133.476 131.159C133.221 131.222 132.64 131.282 131.614 131.282V134.282ZM134.203 134.069C135.035 133.861 135.812 133.32 136.113 132.341L133.246 131.459C133.257 131.425 133.276 131.379 133.307 131.331C133.339 131.282 133.376 131.241 133.414 131.209C133.489 131.145 133.532 131.145 133.476 131.159L134.203 134.069ZM136.113 132.341C136.293 131.758 136.348 131.03 136.348 130.262H133.348C133.348 130.95 133.29 131.314 133.246 131.459L136.113 132.341ZM136.348 130.262V110.018H133.348V130.262H136.348ZM136.348 110.018C136.348 109.262 136.295 108.526 136.103 107.948L133.257 108.896C133.288 108.99 133.348 109.318 133.348 110.018H136.348ZM136.113 107.981C135.812 107.002 135.035 106.461 134.203 106.253L133.476 109.163C133.532 109.177 133.489 109.177 133.414 109.113C133.376 109.081 133.339 109.04 133.307 108.991C133.276 108.943 133.257 108.897 133.246 108.863L136.113 107.981ZM134.287 106.276C133.604 106.063 132.664 105.998 131.614 105.998V108.998C132.636 108.998 133.179 109.073 133.392 109.14L134.287 106.276ZM133.114 107.498V106.28H130.114V107.498H133.114ZM131.614 107.78H142.156V104.78H131.614V107.78ZM142.156 107.78C144.065 107.78 145.68 107.993 147.022 108.39L147.874 105.514C146.191 105.015 144.278 104.78 142.156 104.78V107.78ZM147.046 108.397C148.355 108.761 149.259 109.31 149.866 109.977L152.086 107.959C151.012 106.778 149.564 105.983 147.849 105.507L147.046 108.397ZM149.882 109.995C150.435 110.584 150.778 111.419 150.778 112.664H153.778C153.778 110.829 153.252 109.2 152.069 107.941L149.882 109.995ZM150.778 112.664C150.778 113.902 150.412 114.873 149.719 115.668L151.98 117.64C153.191 116.251 153.778 114.562 153.778 112.664H150.778ZM149.719 115.668C149.02 116.47 147.985 117.079 146.487 117.417L147.148 120.343C149.122 119.897 150.775 119.022 151.98 117.64L149.719 115.668ZM145.318 118.88V118.922H148.318V118.88H145.318ZM146.566 120.401C147.707 120.595 148.676 120.964 149.496 121.488L151.111 118.96C149.916 118.196 148.56 117.697 147.069 117.443L146.566 120.401ZM149.496 121.488C150.283 121.991 150.889 122.65 151.328 123.485L153.983 122.087C153.302 120.794 152.34 119.745 151.111 118.96L149.496 121.488ZM151.351 123.526C151.785 124.292 152.038 125.27 152.038 126.524H155.038C155.038 124.866 154.702 123.352 153.96 122.046L151.351 123.526ZM152.038 126.524C152.038 128.015 151.68 129.105 151.078 129.908L153.478 131.708C154.555 130.271 155.038 128.505 155.038 126.524H152.038ZM151.089 129.893C150.468 130.701 149.525 131.362 148.149 131.821L149.098 134.667C150.914 134.062 152.408 133.099 153.467 131.723L151.089 129.893ZM148.172 131.814C146.764 132.258 144.993 132.5 142.828 132.5V135.5C145.198 135.5 147.292 135.238 149.075 134.674L148.172 131.814ZM142.828 132.5H131.614V135.5H142.828V132.5ZM142.198 134.114C143.711 134.114 145.109 133.898 146.37 133.434L145.333 130.618C144.466 130.938 143.429 131.114 142.198 131.114V134.114ZM146.37 133.434C147.717 132.937 148.809 132.098 149.584 130.917L147.076 129.271C146.674 129.882 146.114 130.331 145.333 130.618L146.37 133.434ZM149.578 130.926C150.405 129.685 150.754 128.165 150.754 126.482H147.754C147.754 127.767 147.486 128.655 147.082 129.262L149.578 130.926ZM150.754 126.482C150.754 124.095 150.032 122.044 148.441 120.525L146.37 122.695C147.243 123.528 147.754 124.725 147.754 126.482H150.754ZM148.441 120.525C146.833 118.989 144.579 118.346 141.946 118.346V121.346C144.128 121.346 145.515 121.879 146.37 122.695L148.441 120.525ZM141.946 118.346H138.712V121.346H141.946V118.346ZM137.212 119.846V129.548H140.212V119.846H137.212ZM137.212 129.548C137.212 130.833 137.454 132.188 138.398 133.076L140.454 130.892C140.459 130.897 140.395 130.841 140.33 130.617C140.263 130.39 140.212 130.044 140.212 129.548H137.212ZM138.433 133.109C138.93 133.547 139.548 133.784 140.143 133.919C140.751 134.057 141.445 134.114 142.198 134.114V131.114C141.578 131.114 141.124 131.066 140.808 130.994C140.48 130.919 140.398 130.841 140.418 130.859L138.433 133.109ZM138.712 119.876H141.82V116.876H138.712V119.876ZM141.82 119.876C144.135 119.876 146.151 119.417 147.598 118.236L145.701 115.912C145.02 116.467 143.816 116.876 141.82 116.876V119.876ZM147.598 118.236C149.112 117.001 149.746 115.179 149.746 113.084H146.746C146.746 114.573 146.316 115.411 145.701 115.912L147.598 118.236ZM149.746 113.084C149.746 111.501 149.391 110.055 148.501 108.923L146.142 110.777C146.485 111.213 146.746 111.923 146.746 113.084H149.746ZM148.522 108.95C147.721 107.882 146.624 107.164 145.313 106.774L144.458 109.65C145.219 109.876 145.747 110.25 146.122 110.75L148.522 108.95ZM145.36 106.789C144.171 106.392 142.858 106.208 141.442 106.208V109.208C142.601 109.208 143.585 109.36 144.411 109.635L145.36 106.789ZM141.442 106.208C140.577 106.208 139.785 106.261 139.182 106.434L140.006 109.318C140.186 109.267 140.626 109.208 141.442 109.208V106.208ZM139.153 106.442C138.479 106.649 137.81 107.098 137.487 107.907L140.272 109.021C140.233 109.12 140.167 109.206 140.096 109.265C140.033 109.317 139.997 109.321 140.035 109.31L139.153 106.442ZM137.487 107.907C137.272 108.444 137.212 109.056 137.212 109.64H140.212C140.212 109.441 140.223 109.29 140.239 109.18C140.246 109.126 140.255 109.086 140.261 109.059C140.268 109.031 140.273 109.02 140.272 109.021L137.487 107.907ZM137.212 109.64V118.376H140.212V109.64H137.212ZM158.837 134H157.337V135.5H158.837V134ZM158.837 132.782V131.282H157.337V132.782H158.837ZM160.811 132.614L160.424 131.165L160.411 131.168L160.398 131.172L160.811 132.614ZM161.567 131.984L160.144 131.51L160.13 131.549L160.119 131.589L161.567 131.984ZM161.483 107.414L160.234 108.246L160.258 108.281L160.283 108.314L161.483 107.414ZM159.047 107.036H157.547V108.536H159.047V107.036ZM159.047 105.776L158.802 104.296L157.547 104.504V105.776H159.047ZM164.129 104.936V103.436H164.005L163.884 103.456L164.129 104.936ZM165.305 104.936H166.805V103.436H165.305V104.936ZM165.473 131.984L164.05 132.458L164.056 132.478L164.063 132.497L165.473 131.984ZM166.229 132.614L165.816 134.056L165.829 134.06L165.842 134.063L166.229 132.614ZM168.161 132.782H169.661V131.282H168.161V132.782ZM168.161 134V135.5H169.661V134H168.161ZM160.337 134V132.782H157.337V134H160.337ZM158.837 134.282C159.769 134.282 160.612 134.231 161.223 134.056L160.398 131.172C160.225 131.221 159.752 131.282 158.837 131.282V134.282ZM161.197 134.063C161.923 133.87 162.74 133.382 163.014 132.379L160.119 131.589C160.138 131.522 160.168 131.45 160.214 131.38C160.259 131.311 160.309 131.258 160.354 131.22C160.441 131.148 160.489 131.147 160.424 131.165L161.197 134.063ZM162.99 132.458C163.178 131.892 163.235 131.21 163.235 130.514H160.235C160.235 131.106 160.179 131.404 160.144 131.51L162.99 132.458ZM163.235 130.514V108.842H160.235V130.514H163.235ZM163.235 108.842C163.235 108.43 163.211 108.034 163.149 107.678C163.092 107.354 162.976 106.905 162.683 106.514L160.283 108.314C160.211 108.219 160.185 108.147 160.181 108.137C160.177 108.125 160.184 108.141 160.194 108.2C160.216 108.32 160.235 108.526 160.235 108.842H163.235ZM162.731 106.582C162.139 105.694 161.143 105.536 160.475 105.536V108.536C160.614 108.536 160.631 108.555 160.578 108.535C160.547 108.523 160.491 108.498 160.425 108.449C160.358 108.398 160.291 108.33 160.234 108.246L162.731 106.582ZM160.475 105.536H159.047V108.536H160.475V105.536ZM160.547 107.036V105.776H157.547V107.036H160.547ZM159.291 107.256L164.373 106.416L163.884 103.456L158.802 104.296L159.291 107.256ZM164.129 106.436H165.305V103.436H164.129V106.436ZM163.805 104.936V130.514H166.805V104.936H163.805ZM163.805 130.514C163.805 131.21 163.861 131.892 164.05 132.458L166.896 131.51C166.86 131.404 166.805 131.106 166.805 130.514H163.805ZM164.063 132.497C164.379 133.367 165.088 133.848 165.816 134.056L166.641 131.172C166.598 131.16 166.637 131.163 166.706 131.22C166.783 131.285 166.848 131.376 166.882 131.471L164.063 132.497ZM165.842 134.063C166.459 134.228 167.265 134.282 168.161 134.282V131.282C167.321 131.282 166.838 131.224 166.615 131.165L165.842 134.063ZM166.661 132.782V134H169.661V132.782H166.661ZM168.161 132.5H158.837V135.5H168.161V132.5ZM176.823 132.992L175.717 134.006L176.823 132.992ZM175.185 116.444L176.433 115.612V115.612L175.185 116.444ZM172.749 116.066H171.249V117.566H172.749V116.066ZM172.749 114.848L172.528 113.364L171.249 113.555V114.848H172.749ZM177.831 114.092V112.592H177.72L177.61 112.608L177.831 114.092ZM179.007 114.092H180.507V112.592H179.007V114.092ZM179.385 130.136L180.796 129.628L179.385 130.136ZM180.603 131.816L179.703 133.016L179.717 133.026L179.731 133.037L180.603 131.816ZM185.223 131.858L185.979 133.154L185.999 133.142L186.018 133.13L185.223 131.858ZM187.029 130.262L185.873 129.307L187.029 130.262ZM188.457 128.33H189.957V123.284L187.201 127.511L188.457 128.33ZM188.457 130.094L189.72 130.903L189.957 130.533V130.094H188.457ZM186.735 132.194L185.674 131.133L186.735 132.194ZM184.299 133.874L184.92 135.24L184.929 135.235L184.938 135.231L184.299 133.874ZM187.911 134H186.411V135.5H187.911V134ZM187.911 131.06H189.411V129.56H187.911V131.06ZM187.827 131.06L186.327 131.055L186.322 132.56H187.827V131.06ZM187.869 117.914L189.369 117.919V117.914H187.869ZM187.617 116.444L186.369 117.276V117.276L187.617 116.444ZM185.181 116.066H183.681V117.566H185.181V116.066ZM185.181 114.848L184.96 113.364L183.681 113.555V114.848H185.181ZM190.263 114.092V112.592H190.152L190.042 112.608L190.263 114.092ZM191.397 114.092H192.897V112.592H191.397V114.092ZM191.565 131.984L190.142 132.458L190.148 132.478L190.155 132.497L191.565 131.984ZM192.321 132.614L191.909 134.056L191.922 134.06L191.935 134.063L192.321 132.614ZM194.295 132.782H195.795V131.282H194.295V132.782ZM194.295 134V135.5H195.795V134H194.295ZM181.023 133.004C179.405 133.004 178.475 132.574 177.929 131.978L175.717 134.006C177.019 135.426 178.889 136.004 181.023 136.004V133.004ZM177.929 131.978C177.353 131.35 176.937 130.279 176.937 128.498H173.937C173.937 130.693 174.445 132.618 175.717 134.006L177.929 131.978ZM176.937 128.498V117.914H173.937V128.498H176.937ZM176.937 117.914C176.937 117.5 176.914 117.105 176.852 116.747C176.795 116.411 176.685 115.99 176.433 115.612L173.937 117.276C173.912 117.239 173.896 117.209 173.888 117.19C173.879 117.171 173.875 117.16 173.875 117.16C173.875 117.16 173.877 117.167 173.881 117.183C173.885 117.2 173.89 117.223 173.896 117.254C173.918 117.386 173.937 117.6 173.937 117.914H176.937ZM176.433 115.612C175.841 114.724 174.845 114.566 174.177 114.566V117.566C174.316 117.566 174.334 117.585 174.28 117.565C174.249 117.553 174.193 117.528 174.128 117.479C174.06 117.428 173.993 117.36 173.937 117.276L176.433 115.612ZM174.177 114.566H172.749V117.566H174.177V114.566ZM174.249 116.066V114.848H171.249V116.066H174.249ZM172.97 116.332L178.052 115.576L177.61 112.608L172.528 113.364L172.97 116.332ZM177.831 115.592H179.007V112.592H177.831V115.592ZM177.507 114.092V127.826H180.507V114.092H177.507ZM177.507 127.826C177.507 128.817 177.656 129.762 177.974 130.644L180.796 129.628C180.61 129.11 180.507 128.515 180.507 127.826H177.507ZM177.974 130.644C178.318 131.602 178.894 132.409 179.703 133.016L181.503 130.616C181.192 130.383 180.956 130.07 180.796 129.628L177.974 130.644ZM179.731 133.037C180.636 133.683 181.722 133.946 182.871 133.946V130.946C182.172 130.946 181.746 130.789 181.475 130.595L179.731 133.037ZM182.871 133.946C183.992 133.946 185.045 133.699 185.979 133.154L184.467 130.562C184.058 130.801 183.542 130.946 182.871 130.946V133.946ZM186.018 133.13C186.834 132.62 187.556 131.979 188.186 131.217L185.873 129.307C185.438 129.833 184.956 130.256 184.428 130.586L186.018 133.13ZM188.186 131.217C188.75 130.534 189.26 129.844 189.713 129.149L187.201 127.511C186.814 128.104 186.372 128.702 185.873 129.307L188.186 131.217ZM186.957 128.33V130.094H189.957V128.33H186.957ZM187.194 129.285C186.814 129.879 186.312 130.496 185.674 131.133L187.796 133.255C188.558 132.492 189.204 131.709 189.72 130.903L187.194 129.285ZM185.674 131.133C185.137 131.67 184.472 132.135 183.66 132.517L184.938 135.231C186.03 134.717 186.989 134.062 187.796 133.255L185.674 131.133ZM183.678 132.508C182.99 132.821 182.119 133.004 181.023 133.004V136.004C182.447 136.004 183.76 135.767 184.92 135.24L183.678 132.508ZM189.411 134V131.06H186.411V134H189.411ZM187.911 129.56H187.827V132.56H187.911V129.56ZM189.327 131.065L189.369 117.919L186.369 117.909L186.327 131.055L189.327 131.065ZM189.369 117.914C189.369 117.5 189.346 117.105 189.284 116.747C189.227 116.411 189.117 115.99 188.865 115.612L186.369 117.276C186.344 117.239 186.328 117.209 186.32 117.19C186.311 117.171 186.307 117.16 186.307 117.16C186.307 117.16 186.309 117.167 186.313 117.183C186.317 117.2 186.322 117.223 186.328 117.254C186.35 117.386 186.369 117.6 186.369 117.914H189.369ZM188.865 115.612C188.273 114.724 187.277 114.566 186.609 114.566V117.566C186.748 117.566 186.766 117.585 186.712 117.565C186.681 117.553 186.625 117.528 186.56 117.479C186.492 117.428 186.425 117.36 186.369 117.276L188.865 115.612ZM186.609 114.566H185.181V117.566H186.609V114.566ZM186.681 116.066V114.848H183.681V116.066H186.681ZM185.402 116.332L190.484 115.576L190.042 112.608L184.96 113.364L185.402 116.332ZM190.263 115.592H191.397V112.592H190.263V115.592ZM189.897 114.092V130.514H192.897V114.092H189.897ZM189.897 130.514C189.897 131.21 189.953 131.892 190.142 132.458L192.988 131.51C192.953 131.404 192.897 131.106 192.897 130.514H189.897ZM190.155 132.497C190.472 133.367 191.181 133.848 191.909 134.056L192.733 131.172C192.691 131.16 192.73 131.163 192.798 131.22C192.876 131.285 192.94 131.376 192.975 131.471L190.155 132.497ZM191.935 134.063C192.554 134.228 193.376 134.282 194.295 134.282V131.282C193.422 131.282 192.928 131.224 192.708 131.165L191.935 134.063ZM192.795 132.782V134H195.795V132.782H192.795ZM194.295 132.5H187.911V135.5H194.295V132.5ZM202.275 131.816L201.102 132.751L201.11 132.761L201.119 132.771L202.275 131.816ZM201.099 118.754L199.721 118.163L199.716 118.174L199.712 118.184L201.099 118.754ZM204.081 115.142L203.286 113.87L203.28 113.874L203.274 113.878L204.081 115.142ZM213.363 114.806L212.626 116.112L212.639 116.12L212.652 116.127L213.363 114.806ZM215.883 117.2L214.588 117.956L214.592 117.964L214.597 117.972L215.883 117.2ZM217.059 120.434L215.58 120.681L215.583 120.698L215.586 120.715L217.059 120.434ZM217.395 124.34V125.84H218.895V124.34H217.395ZM203.283 124.34L201.784 124.293L201.736 125.84H203.283V124.34ZM203.325 122.996V121.496H201.872L201.826 122.949L203.325 122.996ZM213.489 122.996V124.496H214.989V122.996H213.489ZM213.069 118.754L211.603 119.068L211.607 119.089L211.612 119.109L213.069 118.754ZM211.725 116.108L210.665 117.169L210.689 117.193L210.714 117.216L211.725 116.108ZM206.223 116.15L205.251 115.008L205.24 115.017L205.23 115.027L206.223 116.15ZM204.585 119.006L203.144 118.59L203.141 118.6L203.138 118.611L204.585 119.006ZM204.039 123.584L202.54 123.561L202.539 123.572V123.584H204.039ZM204.249 127.028L202.762 127.219L202.764 127.237L202.767 127.256L204.249 127.028ZM205.131 129.968L203.781 130.621L203.79 130.639L203.798 130.656L205.131 129.968ZM206.979 132.026L206.168 133.288L206.178 133.294L206.188 133.3L206.979 132.026ZM213.111 132.152L213.82 133.474L213.838 133.465L213.856 133.454L213.111 132.152ZM215.001 130.43L216.242 131.273L215.001 130.43ZM216.093 128.288L216.703 126.917L215.21 126.254L214.676 127.797L216.093 128.288ZM217.227 128.792L218.655 129.254L219.07 127.969L217.837 127.421L217.227 128.792ZM215.841 131.522L214.618 130.654L214.609 130.667L214.6 130.681L215.841 131.522ZM213.321 133.664L213.992 135.006L213.999 135.002L214.006 134.999L213.321 133.664ZM209.037 132.962C206.273 132.962 204.515 132.173 203.432 130.861L201.119 132.771C202.948 134.987 205.697 135.962 209.037 135.962V132.962ZM203.448 130.881C202.3 129.44 201.633 127.334 201.633 124.382H198.633C198.633 127.758 199.395 130.608 201.102 132.751L203.448 130.881ZM201.633 124.382C201.633 122.34 201.935 120.667 202.487 119.324L199.712 118.184C198.976 119.977 198.633 122.056 198.633 124.382H201.633ZM202.478 119.345C203.043 118.027 203.85 117.069 204.888 116.406L203.274 113.878C201.681 114.895 200.5 116.345 199.721 118.163L202.478 119.345ZM204.876 116.414C205.928 115.757 207.301 115.382 209.079 115.382V112.382C206.881 112.382 204.923 112.847 203.286 113.87L204.876 116.414ZM209.079 115.382C210.685 115.382 211.832 115.665 212.626 116.112L214.1 113.5C212.71 112.715 211.002 112.382 209.079 112.382V115.382ZM212.652 116.127C213.517 116.592 214.148 117.201 214.588 117.956L217.179 116.444C216.443 115.183 215.394 114.196 214.075 113.485L212.652 116.127ZM214.597 117.972C215.084 118.783 215.413 119.682 215.58 120.681L218.539 120.187C218.313 118.834 217.859 117.577 217.17 116.428L214.597 117.972ZM215.586 120.715C215.793 121.8 215.895 122.882 215.895 123.962H218.895C218.895 122.69 218.774 121.42 218.533 120.153L215.586 120.715ZM215.895 123.962V124.34H218.895V123.962H215.895ZM217.395 122.84H203.283V125.84H217.395V122.84ZM204.783 124.387L204.825 123.043L201.826 122.949L201.784 124.293L204.783 124.387ZM203.325 124.496H213.489V121.496H203.325V124.496ZM214.989 122.996C214.989 121.242 214.844 119.7 214.527 118.399L211.612 119.109C211.855 120.104 211.989 121.39 211.989 122.996H214.989ZM214.536 118.44C214.243 117.071 213.684 115.865 212.737 115L210.714 117.216C211.055 117.527 211.392 118.085 211.603 119.068L214.536 118.44ZM212.786 115.047C211.815 114.076 210.52 113.684 209.121 113.684V116.684C209.962 116.684 210.404 116.908 210.665 117.169L212.786 115.047ZM209.121 113.684C207.658 113.684 206.326 114.092 205.251 115.008L207.196 117.292C207.632 116.92 208.233 116.684 209.121 116.684V113.684ZM205.23 115.027C204.226 115.914 203.561 117.149 203.144 118.59L206.026 119.422C206.338 118.343 206.765 117.674 207.217 117.273L205.23 115.027ZM203.138 118.611C202.758 120.004 202.569 121.664 202.54 123.561L205.539 123.607C205.566 121.864 205.74 120.472 206.033 119.401L203.138 118.611ZM202.539 123.584C202.539 124.846 202.613 126.058 202.762 127.219L205.737 126.837C205.606 125.814 205.539 124.73 205.539 123.584H202.539ZM202.767 127.256C202.954 128.475 203.287 129.601 203.781 130.621L206.482 129.315C206.135 128.599 205.88 127.765 205.732 126.8L202.767 127.256ZM203.798 130.656C204.361 131.746 205.152 132.635 206.168 133.288L207.791 130.764C207.239 130.409 206.798 129.926 206.464 129.28L203.798 130.656ZM206.188 133.3C207.307 133.995 208.656 134.282 210.129 134.282V131.282C209.027 131.282 208.276 131.065 207.77 130.752L206.188 133.3ZM210.129 134.282C211.497 134.282 212.755 134.045 213.82 133.474L212.403 130.83C211.9 131.099 211.17 131.282 210.129 131.282V134.282ZM213.856 133.454C214.824 132.901 215.629 132.175 216.242 131.273L213.761 129.587C213.422 130.085 212.967 130.507 212.367 130.85L213.856 133.454ZM216.242 131.273C216.785 130.475 217.212 129.643 217.511 128.779L214.676 127.797C214.471 128.389 214.17 128.985 213.761 129.587L216.242 131.273ZM215.484 129.659L216.618 130.163L217.837 127.421L216.703 126.917L215.484 129.659ZM215.8 128.33C215.542 129.128 215.152 129.902 214.618 130.654L217.065 132.39C217.763 131.406 218.297 130.36 218.655 129.254L215.8 128.33ZM214.6 130.681C214.175 131.307 213.543 131.865 212.637 132.329L214.006 134.999C215.284 134.343 216.332 133.473 217.083 132.363L214.6 130.681ZM212.651 132.322C211.874 132.711 210.704 132.962 209.037 132.962V135.962C210.954 135.962 212.641 135.681 213.992 135.006L212.651 132.322Z" fill="#6ECDE3" mask="url(#path-4-outside-2_1162_1077)"/>
<path d="M285.57 86.5383L303.197 89.7596L319.804 86.2009L323.193 93.3183L321.669 106.876L315.06 122.977L303.366 133.822L291.842 123.146L286.08 111.452L284.045 98.9116L285.57 86.5383Z" fill="white"/>
<path d="M263.54 109.926C263.54 118.349 256.709 125.18 248.286 125.18C239.864 125.18 233.034 118.349 233.034 109.926C233.034 101.501 239.864 94.6744 248.286 94.6744C256.709 94.6744 263.54 101.501 263.54 109.926Z" fill="white"/>
<path d="M268.896 133.202C269.363 133.202 270.012 133.28 270.012 132.65C270.012 132.185 269.627 132.126 269.22 132.126H268.307V133.202H268.896ZM268.307 135.07H267.88V131.738H269.315C270.185 131.738 270.479 132.061 270.479 132.658C270.479 133.304 270.028 133.544 269.447 133.589L270.439 135.07H269.959L269.019 133.589H268.307V135.07ZM271.416 133.418C271.416 132.001 270.393 130.977 268.975 130.977C267.547 130.977 266.513 132.001 266.513 133.418C266.513 134.853 267.547 135.874 268.975 135.874C270.393 135.874 271.416 134.853 271.416 133.418ZM266.051 133.418C266.051 131.82 267.361 130.512 268.975 130.512C270.577 130.512 271.881 131.82 271.881 133.418C271.881 135.032 270.577 136.344 268.975 136.344C267.361 136.344 266.051 135.032 266.051 133.418Z" fill="#0099D8"/>
<path d="M319.919 133.202C320.383 133.202 321.035 133.28 321.035 132.65C321.035 132.185 320.647 132.126 320.244 132.126H319.328V133.202H319.919ZM319.328 135.07H318.9V131.738H320.335C321.206 131.738 321.502 132.061 321.502 132.658C321.502 133.304 321.051 133.544 320.468 133.589L321.46 135.07H320.979L320.042 133.589H319.328V135.07ZM322.438 133.418C322.438 132.001 321.415 130.977 319.996 130.977C318.568 130.977 317.539 132.001 317.539 133.418C317.539 134.853 318.568 135.874 319.996 135.874C321.415 135.874 322.438 134.853 322.438 133.418ZM317.072 133.418C317.072 131.82 318.383 130.512 319.996 130.512C321.6 130.512 322.904 131.82 322.904 133.418C322.904 135.032 321.6 136.344 319.996 136.344C318.383 136.344 317.072 135.032 317.072 133.418Z" fill="#0099D8"/>
<path d="M301.687 97.713C301.505 97.8423 301.378 97.973 301.173 98.0077C300.766 98.073 300.826 97.721 300.545 97.5223C300.374 97.4037 300.21 97.5583 300.057 97.2743C300.647 97.2903 301.538 97.2957 301.983 97.749C301.927 97.7183 301.714 97.697 301.687 97.713Z" fill="#0099D8"/>
<path d="M257.073 121.266L257.081 121.285L250.471 108.874C249.991 107.819 250.203 106.061 252.012 105.811L261.661 104.879L261.659 104.875L261.665 104.879H261.661C262.259 106.457 262.583 108.165 262.583 109.95C262.583 114.542 260.428 118.634 257.073 121.266ZM256.101 121.966C253.835 123.461 251.119 124.33 248.201 124.33C245.283 124.33 242.564 123.461 240.296 121.966L240.292 121.974V121.962C240.295 121.962 240.296 121.963 240.296 121.966L247.301 111.491C247.82 110.761 248.605 110.818 249.099 111.491L256.101 121.966C256.104 121.963 256.104 121.962 256.107 121.962V121.974L256.101 121.966ZM233.817 109.95C233.817 108.165 234.143 106.457 234.737 104.879H234.733L234.737 104.875V104.879L244.387 105.811C246.199 106.061 246.408 107.819 245.932 108.874L239.319 121.285L239.325 121.266C235.972 118.634 233.817 114.542 233.817 109.95ZM248.201 95.5674C253.969 95.5674 258.943 98.9621 261.232 103.866H250.997C249.539 103.834 248.896 102.979 248.867 102.283C248.829 101.458 248.96 101.197 249.64 100.317C250.383 99.3314 249.869 97.4354 248.201 97.4021C246.533 97.4354 246.016 99.3314 246.763 100.317C247.439 101.197 247.569 101.458 247.535 102.283C247.505 102.979 246.863 103.834 245.4 103.866H235.164C237.456 98.9621 242.431 95.5674 248.201 95.5674ZM259.757 98.2688V83.7088H236.559V98.2688H222V121.549H236.559V136.107H259.757V121.549H274.32V98.2688H259.757Z" fill="#0099D8"/>
<path d="M243.474 107.678L236.17 107.003C235.936 107.948 235.816 108.934 235.816 109.951C235.816 113.03 236.94 115.848 238.804 118.018L243.919 108.246C244.043 107.942 244 107.719 243.474 107.678Z" fill="#0099D8"/>
<path d="M248.201 113.751C248.126 113.75 248.057 113.785 247.997 113.862L243.161 121.265C244.7 121.95 246.404 122.334 248.201 122.334C249.996 122.334 251.7 121.95 253.238 121.265L248.402 113.862C248.342 113.785 248.274 113.75 248.201 113.751Z" fill="#0099D8"/>
<path d="M244.76 98.0503C242.405 98.7277 240.338 100.088 238.789 101.902L245.26 101.9C245.374 101.865 245.438 101.729 245.309 101.6C244.621 100.849 244.03 99.265 244.76 98.0503Z" fill="#0099D8"/>
<path d="M252.925 107.678C252.397 107.719 252.357 107.942 252.479 108.246L257.599 118.018C259.457 115.848 260.584 113.03 260.584 109.951C260.584 108.934 260.46 107.948 260.232 107.003L252.925 107.678Z" fill="#0099D8"/>
<path d="M257.611 101.9C256.061 100.088 253.993 98.7284 251.641 98.0497C252.371 99.2671 251.781 100.848 251.09 101.598C250.962 101.728 251.026 101.866 251.139 101.899L257.611 101.9Z" fill="#0099D8"/>
<path d="M303.309 130.135C303.309 130.135 303.305 130.133 303.304 130.131C303.304 130.133 303.301 130.135 303.297 130.135H303.309Z" fill="#0099D8"/>
<path d="M309.239 98.4482C309.115 98.8575 309.014 98.8522 308.743 99.1002C308.183 99.6149 307.438 100.143 306.708 100.84C306.242 101.288 305.795 101.548 305.459 102.086C305.38 102.208 305.211 102.54 305.211 102.54C303.97 102.29 302.703 102.268 301.734 102.071L301.687 101.014C301.687 101.014 302.932 100.998 303.054 100.252C303.063 100.208 303.032 99.9855 302.892 99.8802C302.723 99.7549 302.351 99.6162 302.262 99.5829C303.206 99.7309 304.032 100.082 304.996 100.499C305.06 100.396 304.9 100.038 304.826 99.9562C304.696 99.8069 304.543 99.6935 304.203 99.6149C303.618 99.4629 302.199 99.2882 302.199 99.2882C302.199 99.2882 302.711 99.2709 303.396 99.2429C303.696 99.1922 304.007 99.0749 304.072 98.9735C304.143 98.8175 304.047 98.5895 303.838 98.3629C303.699 98.2149 303.562 98.0722 303.442 97.9202C303.3 97.7215 303.114 97.3415 302.854 97.1122C302.542 96.7389 301.594 96.3815 301.594 96.3815C301.594 96.3815 301.515 95.7429 301.671 95.4322C301.787 95.2042 302.296 95.1789 302.455 95.2575C303.166 95.6549 303.97 96.0922 304.919 96.2549C305.118 96.4029 305.123 96.4469 305.183 96.7389C305.318 97.3775 305.071 98.3109 305.198 98.7509C305.263 98.8935 305.407 98.8882 305.514 98.8309C306.396 98.3509 306.996 97.5295 307.892 97.1495C308.314 96.9722 309.51 97.5722 309.239 98.4482ZM305.308 110.603C305.308 110.603 305.42 108.724 305.432 107.822C305.93 107.619 306.04 107.138 305.851 106.734C305.751 106.511 305.37 106.354 305.152 106.296C304.119 106.032 303.171 105.982 302.106 105.868C301.174 105.77 300.428 105.646 299.572 105.427C297.815 104.98 296.326 104.164 295.548 102.567C294.583 100.594 295.448 98.1362 297.34 97.1535C298.779 96.4042 300.39 96.5469 301.836 97.1002C302.336 97.2962 302.607 97.7282 302.916 98.1535C303.056 98.3455 303.267 98.4229 303.39 98.6322C303.458 98.7495 303.3 98.8082 303.232 98.8295C302.916 98.9122 301.851 98.9242 301.506 98.8842C301.075 98.8322 300.348 98.8535 299.916 98.9429C300.375 99.2002 300.858 99.5175 301.314 99.6909C301.592 99.7962 301.807 99.7949 302.059 99.9242C302.166 99.9789 302.463 100.064 302.463 100.204C302.432 100.343 302.178 100.399 301.999 100.452C301.588 100.576 301.027 100.59 300.506 100.468C299.679 100.279 299.292 99.7922 298.779 100.096C298.438 100.298 298.436 100.764 298.546 101.231C298.723 101.964 299.496 102.271 300.143 102.479C302.4 103.208 304.811 102.796 307.012 103.931C307.863 104.366 308.823 105.256 309.002 106.203C309.755 110.138 305.308 110.603 305.308 110.603ZM301.751 106.671C301.751 106.671 302.199 106.718 303.282 106.79C304.11 106.844 304.671 107.08 304.671 107.08L304.562 111.038C303.679 110.868 303.1 110.774 302.276 110.666C302.008 109.235 301.663 108.74 301.087 107.683C300.955 107.448 301.07 107.358 301.103 107.295C301.184 107.154 301.764 107.012 301.764 107.012L301.751 106.671ZM307.772 115.3C307.624 115.947 307.21 116.46 306.539 116.864C305.83 117.288 305.095 117.323 305.095 117.323L305.155 115.15C305.155 115.15 305.316 115.115 305.432 114.968C305.543 114.836 305.572 114.739 305.543 114.551C305.522 114.428 305.42 114.26 305.23 114.178C305.015 114.083 304.68 114.052 304.544 114.039C303.474 113.911 302.487 113.79 301.438 113.616C299.542 113.307 298.198 112.215 298.315 110.402C298.391 109.19 299.664 108.815 300.566 108.427C300.864 108.954 301.127 109.518 301.238 109.795C301.407 110.292 301.5 110.603 301.5 110.603C301.5 110.603 301.092 110.671 301.127 111.007C301.158 111.302 301.486 111.428 301.687 111.458C303.015 111.646 304.779 111.862 305.715 112.182C306.335 112.396 306.95 112.748 307.3 113.231C307.826 113.959 307.948 114.551 307.772 115.3ZM302.535 114.518C303.403 114.623 303.719 114.646 304.454 114.739L304.383 118.328L303.544 117.878L302.723 117.48L302.535 114.518ZM305.88 123.04C305.408 123.428 304.846 123.564 304.846 123.564L304.906 122.027C304.906 122.027 305.079 121.878 305.028 121.684C304.95 121.375 303.858 120.647 303.27 120.42C302.672 120.188 301.88 119.958 301.314 119.711C299.992 119.135 299.516 117.98 300.047 116.718C300.246 116.251 300.774 115.935 301.063 115.762C301.379 115.575 301.842 115.436 301.842 115.436L301.98 117.235C301.98 117.235 301.806 117.295 301.756 117.456C301.656 117.772 301.943 117.947 302.016 117.98C302.882 118.363 304.143 118.867 305.06 119.406C306.246 120.102 306.634 120.61 306.64 121.442C306.644 122.202 306.322 122.676 305.88 123.04ZM304.194 126.931C304.19 127.219 304.08 127.436 303.546 127.447C303.099 127.455 302.906 127.298 302.89 126.83C302.819 124.768 302.728 120.892 302.728 120.892C302.728 120.892 303.306 121.074 303.58 121.232C303.668 121.286 303.976 121.474 304.236 121.747C304.292 121.832 304.336 121.848 304.327 121.974C304.3 123.479 304.203 126.272 304.194 126.931ZM301.906 125.228C301.828 125.767 302.054 125.995 301.999 126.254C301.906 126.674 301.642 126.544 301.487 126.238C301.267 125.818 301.127 125.615 301.063 124.979C300.966 123.968 301.471 123.484 301.703 123.255C301.95 123.004 302.183 122.882 302.183 122.882L302.262 124.576C302.262 124.576 301.984 124.686 301.906 125.228ZM310.483 92.8415C308.063 93.1709 305.668 93.4042 303.316 93.4202H303.294C300.939 93.4042 298.546 93.1709 296.126 92.8415C293.71 92.5175 291.367 91.9655 288.863 91.2949C287.107 96.2655 287.484 102.532 288.828 108.112C291.366 118.62 297.708 126.61 303.306 130.131C308.899 126.61 315.247 118.62 317.78 108.112C319.128 102.532 319.503 96.2655 317.75 91.2949C315.243 91.9655 312.902 92.5175 310.483 92.8415Z" fill="#0099D8"/>
<path d="M318.804 111.407C315.981 119.699 311.574 127.04 303.304 132.164C303.308 132.166 303.312 132.17 303.316 132.174H303.293C303.297 132.17 303.3 132.166 303.304 132.164C295.034 127.04 290.626 119.699 287.804 111.407C285.297 104.046 284.684 95.4325 287.442 88.7058C291.576 90.1258 294.001 90.5645 296.252 90.9178C298.348 91.2458 300.224 91.4418 303.293 91.4832H303.316C306.385 91.4418 308.261 91.2458 310.356 90.9178C312.609 90.5645 315.033 90.1258 319.17 88.7058C321.924 95.4325 321.314 104.046 318.804 111.407ZM321.489 83.0312C315.744 85.9245 310.02 87.4832 303.304 87.5045C296.589 87.5258 290.86 85.8952 285.118 83.0005C281.344 90.4258 280.754 102.484 284.012 112.56C287.153 122.271 293.25 131.114 303.304 136.674C313.361 131.114 319.456 122.271 322.598 112.56C325.856 102.484 325.261 90.4578 321.489 83.0312Z" fill="#0099D8"/>
</svg>
