<svg width="360" height="221" viewBox="0 0 360 221" fill="none" xmlns="http://www.w3.org/2000/svg">
<rect width="360" height="221" fill="white"/>
<g clip-path="url(#clip0_1162_1072)">
<mask id="mask0_1162_1072" style="mask-type:luminance" maskUnits="userSpaceOnUse" x="43" y="34" width="275" height="153">
<path d="M43.7549 34.4437H317.811V186.557H43.7549V34.4437Z" fill="white"/>
</mask>
<g mask="url(#mask0_1162_1072)">
<path d="M92.9772 144.96C92.1825 131.125 92.1225 116.116 92.1225 116.116L73.0113 135.643C70.835 138.011 69.4834 141.31 69.4834 144.96C69.4834 152.161 74.7429 158 81.2303 158C87.7187 158 92.9772 152.161 92.9772 144.96Z" fill="#B0B3B6"/>
<path d="M94.5547 144.96C95.3494 131.125 95.4094 116.116 95.4094 116.116L114.52 135.643C116.698 138.011 118.048 141.31 118.048 144.96C118.048 152.161 112.789 158 106.302 158C99.8142 158 94.5547 152.161 94.5547 144.96Z" fill="#B0B3B6"/>
<path d="M123.785 110.297C111.322 109.414 97.8018 109.347 97.8018 109.347L115.392 88.133C117.525 85.716 120.497 84.2167 123.785 84.2167C130.273 84.2167 135.532 90.0552 135.532 97.2568C135.532 104.458 130.273 110.297 123.785 110.297Z" fill="#B0B3B6"/>
<path d="M63.7469 110.297C76.2102 109.414 89.7303 109.347 89.7303 109.347L72.1399 88.133C70.008 85.716 67.0351 84.2167 63.7469 84.2167C57.2595 84.2167 52 90.0552 52 97.2568C52 104.458 57.2595 110.297 63.7469 110.297Z" fill="#B0B3B6"/>
<path d="M63.7469 112.048C76.2102 112.929 89.7303 112.996 89.7303 112.996L72.1399 134.21C70.008 136.628 67.0351 138.127 63.7469 138.127C57.2595 138.127 52 132.288 52 125.086C52 117.884 57.2595 112.048 63.7469 112.048Z" fill="#B0B3B6"/>
<path d="M123.785 112.048C111.322 112.929 97.8018 112.996 97.8018 112.996L115.392 134.21C117.525 136.628 120.497 138.127 123.785 138.127C130.273 138.127 135.532 132.288 135.532 125.086C135.532 117.884 130.273 112.048 123.785 112.048Z" fill="#B0B3B6"/>
<path d="M114.482 73.3848C114.821 74.6266 115.015 75.9381 115.043 77.2958L91.4689 106.834L90.416 105.551C90.416 105.551 92.2646 103.193 93.1106 100.166L114.482 73.3848Z" fill="#0095D8"/>
<path d="M98.1713 63.5816C96.4813 64.1279 94.9315 65.0391 93.5973 66.2347L76.1074 88.1238L77.3643 89.6543L98.1713 63.5816Z" fill="#0095D8"/>
<path d="M91.8508 64.913C91.264 64.5417 90.6491 64.2197 90.011 63.9503L73.6484 84.4227C73.9685 85.0989 74.3339 85.7439 74.7419 86.3535L91.8508 64.913Z" fill="#0095D8"/>
<path d="M87.8119 63.2592C87.0085 63.0897 86.179 62.9995 85.3311 62.9995L72.2441 79.4118C72.3447 80.3391 72.5245 81.2385 72.774 82.1035L87.8119 63.2592Z" fill="#0095D8"/>
<path d="M82.5694 63.3227C76.9908 64.6417 72.7194 69.8781 72.2012 76.3145L82.5694 63.3227Z" fill="#0095D8"/>
<path d="M114.929 79.5903C114.573 82.5578 113.414 85.2442 111.704 87.3725L93.5975 109.426L92.999 108.697C92.999 108.697 94.6194 106.48 95.1889 104.325L114.929 79.5903Z" fill="#0095D8"/>
<path d="M112.363 68.7841C113.032 69.7618 113.594 70.8351 114.027 71.9835L88.8056 103.59L87.6328 102.162C87.6328 102.162 90.9258 98.9662 93.1021 92.9184L112.363 68.7841Z" fill="#0095D8"/>
<path d="M109.229 65.4966C110.113 66.1599 110.921 66.937 111.634 67.8106L85.9027 100.057L84.6758 98.5616C84.6758 98.5616 89.3919 94.2943 91.9076 87.2033L109.229 65.4966Z" fill="#0095D8"/>
<path d="M105.368 63.5234C106.436 63.8496 107.451 64.3219 108.392 64.9186L83.0885 96.627L81.8896 95.1662C81.8896 95.1662 88.2204 89.1045 91.002 81.5241L105.368 63.5234Z" fill="#0095D8"/>
<path d="M80.1986 93.1074L79.0703 91.7326C90.4885 78.6861 90.4846 75.1808 90.4846 75.1808L100.101 63.1302C100.678 63.0444 101.266 63.0004 101.863 63.0004C102.612 63.0004 103.348 63.0701 104.064 63.2032L80.1986 93.1074Z" fill="#0095D8"/>
<path d="M191.486 115.554C191.486 110.566 191.209 109.887 188.99 109.21C188.545 109.087 187.602 109.025 187.103 109.025C186.88 109.025 186.659 108.902 186.659 108.656C186.659 108.286 186.936 108.163 187.547 108.163C190.044 108.163 193.539 108.348 193.816 108.348C194.094 108.348 197.59 108.163 199.254 108.163C199.865 108.163 200.141 108.286 200.141 108.656C200.141 108.902 199.92 109.025 199.697 109.025C199.31 109.025 198.976 109.087 198.311 109.21C196.812 109.518 196.369 110.566 196.258 112.721C196.146 114.691 196.146 116.539 196.146 119.126V126.025C196.146 128.797 196.092 128.919 195.425 129.351C191.874 131.446 186.88 132.123 183.663 132.123C179.446 132.123 171.567 131.506 165.408 125.532C162.024 122.268 158.806 115.678 158.806 107.978C158.806 98.1233 163.133 91.1632 168.072 87.7148C173.065 84.2654 178.558 83.8339 182.831 83.8339C186.326 83.8339 190.265 84.6346 191.32 84.8814C192.485 85.1895 194.427 85.4352 195.815 85.4975C196.369 85.5587 196.48 85.8055 196.48 86.0513C196.48 86.9131 196.092 88.6378 196.092 94.7973C196.092 95.7836 195.98 96.0905 195.592 96.0905C195.315 96.0905 195.259 95.7213 195.204 95.1665C195.148 94.3046 194.871 92.5799 194.039 91.102C192.651 88.7613 188.157 86.1125 180.999 86.1125C177.504 86.1125 173.343 86.4827 169.126 90.178C165.908 93.0114 163.633 98.6159 163.633 105.823C163.633 114.507 167.573 120.789 169.514 122.883C173.898 127.626 178.947 129.474 184.051 129.474C186.049 129.474 188.934 129.104 190.377 128.181C191.099 127.75 191.486 127.071 191.486 126.025V115.554Z" fill="#0095D8"/>
<path d="M227.772 123.746C230.99 115.493 238.425 93.9966 239.645 89.5619C239.923 88.6389 240.145 87.776 240.145 87.2222C240.145 86.7296 239.979 86.1135 239.424 85.8055C238.758 85.5587 237.926 85.5587 237.315 85.5587C236.982 85.5587 236.705 85.4975 236.705 85.1895C236.705 84.8192 237.038 84.6968 237.926 84.6968C240.145 84.6968 242.697 84.8814 243.363 84.8814C243.696 84.8814 246.081 84.6968 247.691 84.6968C248.301 84.6968 248.634 84.8192 248.634 85.1283C248.634 85.4352 248.412 85.5587 247.968 85.5587C247.58 85.5587 246.36 85.5587 245.305 86.2981C244.584 86.853 243.751 87.8994 242.254 92.0873C241.644 93.812 238.87 101.204 236.04 108.78C232.655 117.773 230.158 124.423 228.881 127.441C227.328 131.138 227.106 132.123 226.551 132.123C225.885 132.123 225.609 131.26 224.554 128.304L210.959 90.5472C209.74 87.0988 208.907 86.4216 206.965 85.8055C206.133 85.5587 205.19 85.5587 204.857 85.5587C204.524 85.5587 204.413 85.3741 204.413 85.1283C204.413 84.758 204.968 84.6968 205.856 84.6968C208.519 84.6968 211.681 84.8814 212.348 84.8814C212.902 84.8814 215.399 84.6968 217.508 84.6968C218.506 84.6968 219.005 84.8192 219.005 85.1283C219.005 85.4352 218.839 85.5587 218.45 85.5587C217.84 85.5587 216.842 85.6209 216.343 85.8667C215.732 86.1747 215.621 86.6673 215.621 87.0988C215.621 87.8994 216.287 89.8088 217.118 92.2107L227.772 123.746Z" fill="#0095D8"/>
<path d="M300.954 123.316C301.175 125.532 301.564 128.981 303.95 129.844C305.559 130.399 307.001 130.399 307.556 130.399C307.834 130.399 308 130.459 308 130.706C308 131.075 307.5 131.26 306.835 131.26C305.614 131.26 299.623 131.075 297.569 130.892C296.294 130.767 296.016 130.583 296.016 130.275C296.016 130.029 296.127 129.905 296.404 129.844C296.682 129.782 296.738 128.735 296.626 127.627L293.963 95.8444H293.797L280.203 127.873C279.037 130.583 278.871 131.137 278.372 131.137C277.983 131.137 277.706 130.521 276.652 128.304C275.209 125.286 270.438 114.631 270.16 114.015C269.661 112.906 263.446 98.124 262.836 96.4604H262.615L260.395 125.039C260.339 126.024 260.339 127.134 260.339 128.181C260.339 129.105 260.95 129.905 261.781 130.091C262.725 130.337 263.557 130.399 263.89 130.399C264.113 130.399 264.335 130.521 264.335 130.706C264.335 131.137 264.001 131.26 263.336 131.26C261.282 131.26 258.62 131.075 258.176 131.075C257.676 131.075 255.013 131.26 253.515 131.26C252.96 131.26 252.571 131.137 252.571 130.706C252.571 130.521 252.849 130.399 253.126 130.399C253.57 130.399 253.959 130.399 254.791 130.213C256.621 129.844 256.788 127.442 257.011 125.101L261.006 84.9433C261.06 84.265 261.282 83.8346 261.616 83.8346C261.949 83.8346 262.171 84.0804 262.448 84.7576L279.426 123.5L295.738 84.8199C295.96 84.265 296.182 83.8346 296.57 83.8346C296.959 83.8346 297.125 84.3272 297.237 85.4971L300.954 123.316Z" fill="#0095D8"/>
<path d="M160.127 154.316C158.632 152.889 158.268 151.018 158.268 149.456C158.268 148.356 158.632 146.446 159.988 144.979C160.909 143.997 162.299 143.223 164.645 143.223C165.253 143.223 166.122 143.281 166.869 143.417C167.443 143.532 167.929 143.649 168.434 143.669C168.589 143.669 168.625 143.745 168.625 143.841C168.625 143.977 168.589 144.17 168.555 144.768C168.538 145.306 168.538 146.214 168.52 146.446C168.503 146.695 168.434 146.793 168.346 146.793C168.242 146.793 168.224 146.678 168.224 146.446C168.224 145.81 167.981 145.153 167.582 144.806C167.042 144.305 165.931 143.899 164.575 143.899C162.612 143.899 161.673 144.479 161.134 145.037C160.005 146.196 159.761 147.66 159.761 149.32C159.761 152.465 162.003 155.262 165.27 155.262C166.418 155.262 167.182 155.165 167.791 154.49C168.12 154.123 168.329 153.429 168.382 153.121C168.416 152.947 168.434 152.889 168.538 152.889C168.607 152.889 168.676 153.004 168.676 153.121C168.676 153.236 168.468 154.663 168.311 155.223C168.224 155.532 168.19 155.59 167.929 155.705C167.304 155.976 166.156 156.072 165.166 156.072C162.873 156.072 161.326 155.473 160.127 154.316Z" fill="#0095D8"/>
<path d="M176.167 150.614C176.237 150.614 176.237 150.577 176.219 150.499L174.707 146.003C174.62 145.754 174.534 145.754 174.446 146.003L173.022 150.499C173.004 150.577 173.022 150.614 173.073 150.614H176.167ZM174.463 143.786C174.656 143.246 174.724 143.149 174.829 143.149C174.985 143.149 175.038 143.38 175.193 143.747C175.472 144.441 177.922 151.213 178.861 153.701C179.416 155.167 179.834 155.379 180.164 155.495C180.39 155.572 180.615 155.592 180.772 155.592C180.859 155.592 180.963 155.631 180.963 155.727C180.963 155.824 180.789 155.861 180.615 155.861C180.39 155.861 179.26 155.861 178.2 155.824C177.904 155.803 177.661 155.803 177.661 155.707C177.661 155.631 177.696 155.631 177.766 155.592C177.853 155.553 178.009 155.418 177.904 155.149L176.531 151.386C176.497 151.309 176.479 151.289 176.392 151.289H172.865C172.796 151.289 172.743 151.328 172.709 151.424L171.839 154.048C171.7 154.452 171.614 154.859 171.614 155.149C171.614 155.475 171.874 155.592 172.135 155.592H172.275C172.395 155.592 172.43 155.649 172.43 155.727C172.43 155.824 172.343 155.861 172.204 155.861C171.839 155.861 171.006 155.803 170.831 155.803C170.675 155.803 169.911 155.861 169.285 155.861C169.094 155.861 168.99 155.824 168.99 155.727C168.99 155.649 169.059 155.592 169.128 155.592C169.233 155.592 169.459 155.572 169.58 155.553C170.275 155.457 170.571 154.878 170.867 154.048L174.463 143.786Z" fill="#0095D8"/>
<path d="M184.125 149.589C184.125 149.686 184.16 149.744 184.229 149.801C184.457 149.937 185.238 150.053 185.916 150.053C186.28 150.053 186.698 150.034 187.063 149.763C187.583 149.378 187.983 148.51 187.983 147.256C187.983 145.211 186.976 144.034 185.342 144.034C184.891 144.034 184.403 144.092 184.247 144.131C184.178 144.169 184.125 144.227 184.125 144.324V149.589ZM182.805 148.202C182.805 145.656 182.805 145.191 182.771 144.671C182.736 144.111 182.65 143.842 182.144 143.764C182.022 143.746 181.762 143.726 181.624 143.726C181.571 143.726 181.502 143.649 181.502 143.59C181.502 143.494 181.571 143.456 181.745 143.456C182.441 143.456 183.466 143.494 183.552 143.494C183.708 143.494 184.994 143.456 185.464 143.456C186.437 143.456 187.515 143.552 188.313 144.169C188.697 144.479 189.374 145.27 189.374 146.407C189.374 147.622 188.922 148.799 187.497 150.149C188.748 151.885 189.808 153.37 190.695 154.393C191.511 155.32 192.014 155.473 192.397 155.532C192.692 155.59 192.85 155.59 192.937 155.59C193.024 155.59 193.076 155.667 193.076 155.725C193.076 155.822 192.989 155.859 192.709 155.859H191.755C190.886 155.859 190.503 155.764 190.121 155.532C189.461 155.147 188.905 154.354 188.036 153.12C187.393 152.233 186.715 151.172 186.384 150.729C186.316 150.651 186.28 150.633 186.176 150.633L184.229 150.594C184.16 150.594 184.125 150.633 184.125 150.729V151.114C184.125 152.696 184.125 153.968 184.195 154.644C184.247 155.127 184.335 155.435 184.804 155.513C185.012 155.551 185.342 155.59 185.48 155.59C185.586 155.59 185.602 155.667 185.602 155.725C185.602 155.801 185.533 155.859 185.359 155.859C184.526 155.859 183.552 155.801 183.482 155.801C183.466 155.801 182.441 155.859 181.971 155.859C181.814 155.859 181.727 155.822 181.727 155.725C181.727 155.667 181.762 155.59 181.849 155.59C181.988 155.59 182.179 155.551 182.318 155.513C182.614 155.435 182.65 155.127 182.718 154.644C182.805 153.968 182.805 152.677 182.805 151.094V148.202Z" fill="#0095D8"/>
<path d="M194.308 148.202C194.308 145.656 194.308 145.192 194.274 144.671C194.24 144.112 194.153 143.841 193.648 143.764C193.526 143.746 193.266 143.727 193.128 143.727C193.075 143.727 193.006 143.649 193.006 143.59C193.006 143.495 193.075 143.456 193.249 143.456C193.944 143.456 194.935 143.495 195.022 143.495C195.126 143.495 198.322 143.515 198.67 143.495C198.965 143.475 199.244 143.418 199.366 143.398C199.435 143.379 199.505 143.321 199.574 143.321C199.627 143.321 199.645 143.398 199.645 143.475C199.645 143.59 199.557 143.785 199.523 144.246C199.505 144.401 199.47 145.135 199.435 145.327C199.418 145.404 199.366 145.5 199.297 145.5C199.21 145.5 199.174 145.423 199.174 145.288C199.174 145.173 199.158 144.903 199.088 144.71C198.983 144.439 198.827 144.324 197.994 144.209C197.733 144.17 195.96 144.152 195.785 144.152C195.717 144.152 195.698 144.209 195.698 144.324V148.78C195.698 148.895 195.698 148.953 195.785 148.953C195.977 148.953 197.994 148.953 198.341 148.916C198.705 148.877 198.931 148.858 199.088 148.684C199.193 148.568 199.262 148.471 199.314 148.471C199.366 148.471 199.401 148.51 199.401 148.607C199.401 148.704 199.314 148.974 199.28 149.514C199.244 149.841 199.21 150.459 199.21 150.575C199.21 150.709 199.174 150.883 199.07 150.883C199 150.883 198.965 150.825 198.965 150.729C198.965 150.575 198.965 150.401 198.896 150.19C198.844 149.957 198.705 149.764 198.115 149.686C197.698 149.628 196.063 149.61 195.804 149.61C195.717 149.61 195.698 149.667 195.698 149.726V151.095C195.698 151.655 195.682 153.564 195.698 153.893C195.734 154.992 196.012 155.204 197.524 155.204C197.923 155.204 198.653 155.204 199.052 155.031C199.453 154.837 199.661 154.548 199.748 153.893C199.783 153.699 199.817 153.641 199.904 153.641C199.991 153.641 200.009 153.777 200.009 153.893C200.009 154.008 199.888 155.128 199.801 155.473C199.696 155.898 199.54 155.898 198.948 155.898C197.801 155.898 196.915 155.86 196.29 155.84C195.647 155.802 195.248 155.802 195.022 155.802C194.987 155.802 194.691 155.802 194.361 155.822C194.065 155.84 193.718 155.86 193.475 155.86C193.319 155.86 193.232 155.822 193.232 155.726C193.232 155.668 193.266 155.59 193.354 155.59C193.492 155.59 193.684 155.532 193.822 155.513C194.118 155.455 194.153 155.128 194.221 154.645C194.308 153.969 194.308 152.678 194.308 151.095V148.202Z" fill="#0095D8"/>
<path d="M212.122 153.969C211.281 153.202 209.794 151.618 209.402 151.151C209.011 150.683 208.05 149.499 207.63 148.815C206.849 149.382 206.277 150.283 206.277 151.618C206.277 153.702 207.599 155.204 209.281 155.204C210.679 155.204 211.611 154.553 212.122 153.969ZM205.105 152.4C205.105 150.45 206.232 149.148 207.404 148.382C206.849 147.515 206.667 146.831 206.667 146.079C206.667 144.762 207.885 143.01 209.898 143.01C210.665 143.01 211.311 143.178 211.717 143.428C211.897 143.545 211.912 143.645 211.912 143.844C211.912 144.344 211.852 145.513 211.807 145.763C211.762 146.013 211.717 146.046 211.657 146.046C211.58 146.046 211.567 145.98 211.567 145.729C211.567 145.296 211.476 144.745 211.101 144.311C210.77 143.928 210.259 143.577 209.598 143.577C208.696 143.577 207.69 144.195 207.69 145.763C207.69 147.063 208.501 148.148 210.063 150.033C210.574 150.651 212.423 152.568 212.904 153.017C213.324 152.384 213.671 151.267 213.671 150.249C213.671 150 213.61 149.683 213.384 149.432C213.189 149.216 212.873 149.165 212.648 149.165C212.558 149.165 212.468 149.132 212.468 149.048C212.468 148.965 212.588 148.932 212.708 148.932C213.068 148.932 213.671 148.949 214.511 149.048C214.737 149.083 214.781 149.216 214.781 149.382C214.781 150.733 213.955 152.418 213.294 153.319C214.285 154.254 214.947 154.702 215.367 154.97C215.848 155.287 216.614 155.62 217.156 155.62C217.291 155.62 217.366 155.637 217.366 155.736C217.366 155.803 217.246 155.854 217.111 155.854H215.638C214.525 155.854 214.165 155.736 212.512 154.286C212.167 154.669 210.98 156.088 208.757 156.088C206.127 156.088 205.105 153.853 205.105 152.4Z" fill="#0095D8"/>
<path d="M223.058 149.589C223.058 149.686 223.092 149.744 223.162 149.801C223.388 149.937 224.169 150.053 224.848 150.053C225.213 150.053 225.63 150.034 225.995 149.763C226.516 149.378 226.915 148.51 226.915 147.256C226.915 145.211 225.908 144.034 224.275 144.034C223.823 144.034 223.336 144.092 223.179 144.131C223.11 144.169 223.058 144.227 223.058 144.324V149.589ZM221.738 148.202C221.738 145.656 221.738 145.191 221.703 144.671C221.668 144.111 221.582 143.842 221.077 143.764C220.955 143.746 220.695 143.726 220.555 143.726C220.503 143.726 220.435 143.649 220.435 143.59C220.435 143.494 220.503 143.456 220.677 143.456C221.371 143.456 222.397 143.494 222.484 143.494C222.641 143.494 223.927 143.456 224.397 143.456C225.369 143.456 226.447 143.552 227.246 144.169C227.63 144.479 228.306 145.27 228.306 146.407C228.306 147.622 227.855 148.799 226.429 150.149C227.681 151.885 228.741 153.37 229.627 154.393C230.444 155.32 230.948 155.473 231.331 155.532C231.625 155.59 231.782 155.59 231.869 155.59C231.956 155.59 232.008 155.667 232.008 155.725C232.008 155.822 231.921 155.859 231.642 155.859H230.688C229.819 155.859 229.436 155.764 229.053 155.532C228.393 155.147 227.838 154.354 226.968 153.12C226.325 152.233 225.649 151.172 225.317 150.729C225.248 150.651 225.213 150.633 225.108 150.633L223.162 150.594C223.092 150.594 223.058 150.633 223.058 150.729V151.114C223.058 152.696 223.058 153.968 223.127 154.644C223.179 155.127 223.266 155.435 223.736 155.513C223.945 155.551 224.275 155.59 224.413 155.59C224.517 155.59 224.535 155.667 224.535 155.725C224.535 155.801 224.465 155.859 224.292 155.859C223.459 155.859 222.484 155.801 222.416 155.801C222.397 155.801 221.371 155.859 220.903 155.859C220.746 155.859 220.661 155.822 220.661 155.725C220.661 155.667 220.695 155.59 220.782 155.59C220.921 155.59 221.111 155.551 221.251 155.513C221.546 155.435 221.582 155.127 221.651 154.644C221.738 153.968 221.738 152.677 221.738 151.094V148.202Z" fill="#0095D8"/>
<path d="M233.311 148.202C233.311 145.656 233.311 145.192 233.276 144.671C233.241 144.112 233.154 143.841 232.65 143.764C232.529 143.746 232.269 143.727 232.13 143.727C232.077 143.727 232.008 143.649 232.008 143.59C232.008 143.495 232.077 143.456 232.251 143.456C232.946 143.456 233.937 143.495 234.024 143.495C234.129 143.495 237.324 143.515 237.672 143.495C237.967 143.475 238.246 143.418 238.369 143.398C238.437 143.379 238.508 143.321 238.576 143.321C238.629 143.321 238.647 143.398 238.647 143.475C238.647 143.59 238.56 143.785 238.525 144.246C238.508 144.401 238.473 145.135 238.437 145.327C238.421 145.404 238.369 145.5 238.299 145.5C238.212 145.5 238.177 145.423 238.177 145.288C238.177 145.173 238.161 144.903 238.09 144.71C237.987 144.439 237.829 144.324 236.996 144.209C236.735 144.17 234.961 144.152 234.788 144.152C234.719 144.152 234.701 144.209 234.701 144.324V148.78C234.701 148.895 234.701 148.953 234.788 148.953C234.98 148.953 236.996 148.953 237.343 148.916C237.707 148.877 237.933 148.858 238.09 148.684C238.195 148.568 238.264 148.471 238.316 148.471C238.369 148.471 238.403 148.51 238.403 148.607C238.403 148.704 238.316 148.974 238.282 149.514C238.246 149.841 238.212 150.459 238.212 150.575C238.212 150.709 238.177 150.883 238.074 150.883C238.003 150.883 237.967 150.825 237.967 150.729C237.967 150.575 237.967 150.401 237.899 150.19C237.846 149.957 237.707 149.764 237.117 149.686C236.7 149.628 235.066 149.61 234.806 149.61C234.719 149.61 234.701 149.667 234.701 149.726V151.095C234.701 151.655 234.684 153.564 234.701 153.893C234.736 154.992 235.014 155.204 236.526 155.204C236.926 155.204 237.655 155.204 238.054 155.031C238.455 154.837 238.663 154.548 238.75 153.893C238.785 153.699 238.819 153.641 238.907 153.641C238.994 153.641 239.011 153.777 239.011 153.893C239.011 154.008 238.89 155.128 238.803 155.473C238.698 155.898 238.542 155.898 237.951 155.898C236.803 155.898 235.917 155.86 235.292 155.84C234.649 155.802 234.25 155.802 234.024 155.802C233.989 155.802 233.694 155.802 233.363 155.822C233.067 155.84 232.72 155.86 232.478 155.86C232.321 155.86 232.234 155.822 232.234 155.726C232.234 155.668 232.269 155.59 232.356 155.59C232.494 155.59 232.687 155.532 232.825 155.513C233.12 155.455 233.154 155.128 233.224 154.645C233.311 153.969 233.311 152.678 233.311 151.095V148.202Z" fill="#0095D8"/>
<path d="M242.069 155.629C241.86 155.513 241.844 155.455 241.844 155.012C241.844 154.201 241.912 153.545 241.929 153.275C241.929 153.103 241.965 153.005 242.051 153.005C242.139 153.005 242.192 153.062 242.192 153.198C242.192 153.332 242.192 153.564 242.244 153.796C242.487 154.991 243.633 155.417 244.659 155.417C246.17 155.417 246.953 154.471 246.953 153.237C246.953 152.059 246.38 151.5 245.024 150.381L244.328 149.801C242.678 148.434 242.139 147.429 242.139 146.293C242.139 144.363 243.512 143.205 245.526 143.205C246.135 143.205 246.745 143.303 247.109 143.398C247.405 143.475 247.526 143.475 247.648 143.475C247.769 143.475 247.803 143.495 247.803 143.59C247.803 143.669 247.734 144.208 247.734 145.327C247.734 145.579 247.717 145.694 247.612 145.694C247.508 145.694 247.491 145.616 247.474 145.481C247.456 145.288 247.334 144.845 247.247 144.671C247.144 144.479 246.64 143.861 245.267 143.861C244.154 143.861 243.233 144.479 243.233 145.636C243.233 146.678 243.702 147.276 245.215 148.413L245.649 148.742C247.508 150.15 248.151 151.288 248.151 152.697C248.151 153.661 247.821 154.703 246.726 155.494C246.083 155.956 245.128 156.072 244.294 156.072C243.581 156.072 242.695 155.956 242.069 155.629Z" fill="#0095D8"/>
<path d="M252.142 148.202C252.142 145.656 252.142 145.192 252.107 144.671C252.073 144.112 251.986 143.841 251.482 143.764C251.359 143.746 251.099 143.727 250.96 143.727C250.908 143.727 250.838 143.649 250.838 143.59C250.838 143.495 250.908 143.456 251.082 143.456C251.777 143.456 252.767 143.495 252.854 143.495C252.959 143.495 256.156 143.515 256.503 143.495C256.798 143.475 257.077 143.418 257.199 143.398C257.268 143.379 257.337 143.321 257.406 143.321C257.459 143.321 257.476 143.398 257.476 143.475C257.476 143.59 257.39 143.785 257.355 144.246C257.337 144.401 257.303 145.135 257.268 145.327C257.251 145.404 257.199 145.5 257.129 145.5C257.042 145.5 257.007 145.423 257.007 145.288C257.007 145.173 256.99 144.903 256.92 144.71C256.817 144.439 256.66 144.324 255.827 144.209C255.566 144.17 253.793 144.152 253.619 144.152C253.55 144.152 253.532 144.209 253.532 144.324V148.78C253.532 148.895 253.532 148.953 253.619 148.953C253.811 148.953 255.827 148.953 256.174 148.916C256.538 148.877 256.765 148.858 256.92 148.684C257.025 148.568 257.094 148.471 257.146 148.471C257.199 148.471 257.233 148.51 257.233 148.607C257.233 148.704 257.146 148.974 257.113 149.514C257.077 149.841 257.042 150.459 257.042 150.575C257.042 150.709 257.007 150.883 256.904 150.883C256.834 150.883 256.798 150.825 256.798 150.729C256.798 150.575 256.798 150.401 256.73 150.19C256.678 149.957 256.538 149.764 255.949 149.686C255.53 149.628 253.897 149.61 253.637 149.61C253.55 149.61 253.532 149.667 253.532 149.726V151.095C253.532 151.655 253.515 153.564 253.532 153.893C253.567 154.992 253.846 155.204 255.356 155.204C255.757 155.204 256.486 155.204 256.885 155.031C257.285 154.837 257.494 154.548 257.581 153.893C257.615 153.699 257.651 153.641 257.738 153.641C257.825 153.641 257.843 153.777 257.843 153.893C257.843 154.008 257.721 155.128 257.635 155.473C257.528 155.898 257.372 155.898 256.782 155.898C255.634 155.898 254.749 155.86 254.123 155.84C253.481 155.802 253.08 155.802 252.854 155.802C252.82 155.802 252.525 155.802 252.194 155.822C251.898 155.84 251.551 155.86 251.308 155.86C251.151 155.86 251.064 155.822 251.064 155.726C251.064 155.668 251.099 155.59 251.186 155.59C251.324 155.59 251.518 155.532 251.656 155.513C251.952 155.455 251.986 155.128 252.055 154.645C252.142 153.969 252.142 152.678 252.142 151.095V148.202Z" fill="#0095D8"/>
<path d="M265.658 150.614C265.728 150.614 265.728 150.577 265.71 150.499L264.197 146.003C264.111 145.754 264.025 145.754 263.938 146.003L262.513 150.499C262.496 150.577 262.513 150.614 262.565 150.614H265.658ZM263.955 143.786C264.146 143.246 264.216 143.149 264.321 143.149C264.477 143.149 264.529 143.38 264.686 143.747C264.963 144.441 267.413 151.213 268.351 153.701C268.909 155.167 269.325 155.379 269.655 155.495C269.88 155.572 270.107 155.592 270.263 155.592C270.35 155.592 270.455 155.631 270.455 155.727C270.455 155.824 270.28 155.861 270.107 155.861C269.88 155.861 268.752 155.861 267.692 155.824C267.397 155.803 267.153 155.803 267.153 155.707C267.153 155.631 267.188 155.631 267.257 155.592C267.344 155.553 267.5 155.418 267.397 155.149L266.023 151.386C265.988 151.309 265.97 151.289 265.883 151.289H262.356C262.288 151.289 262.235 151.328 262.2 151.424L261.331 154.048C261.192 154.452 261.105 154.859 261.105 155.149C261.105 155.475 261.366 155.592 261.627 155.592H261.766C261.888 155.592 261.922 155.649 261.922 155.727C261.922 155.824 261.834 155.861 261.695 155.861C261.331 155.861 260.497 155.803 260.323 155.803C260.168 155.803 259.402 155.861 258.777 155.861C258.587 155.861 258.481 155.824 258.481 155.727C258.481 155.649 258.55 155.592 258.621 155.592C258.725 155.592 258.95 155.572 259.072 155.553C259.766 155.457 260.062 154.878 260.359 154.048L263.955 143.786Z" fill="#0095D8"/>
<path d="M273.76 149.589C273.76 149.686 273.795 149.744 273.863 149.801C274.09 149.937 274.872 150.053 275.55 150.053C275.915 150.053 276.33 150.034 276.697 149.763C277.218 149.378 277.617 148.51 277.617 147.256C277.617 145.211 276.61 144.034 274.976 144.034C274.524 144.034 274.038 144.092 273.882 144.131C273.812 144.169 273.76 144.227 273.76 144.324V149.589ZM272.439 148.202C272.439 145.656 272.439 145.191 272.405 144.671C272.369 144.111 272.282 143.842 271.779 143.764C271.657 143.746 271.397 143.726 271.257 143.726C271.204 143.726 271.136 143.649 271.136 143.59C271.136 143.494 271.204 143.456 271.379 143.456C272.074 143.456 273.099 143.494 273.186 143.494C273.342 143.494 274.629 143.456 275.098 143.456C276.071 143.456 277.148 143.552 277.948 144.169C278.33 144.479 279.009 145.27 279.009 146.407C279.009 147.622 278.555 148.799 277.131 150.149C278.382 151.885 279.443 153.37 280.328 154.393C281.145 155.32 281.649 155.473 282.032 155.532C282.327 155.59 282.483 155.59 282.569 155.59C282.656 155.59 282.709 155.667 282.709 155.725C282.709 155.822 282.623 155.859 282.344 155.859H281.389C280.519 155.859 280.137 155.764 279.755 155.532C279.096 155.147 278.538 154.354 277.67 153.12C277.028 152.233 276.349 151.172 276.019 150.729C275.95 150.651 275.915 150.633 275.81 150.633L273.863 150.594C273.795 150.594 273.76 150.633 273.76 150.729V151.114C273.76 152.696 273.76 153.968 273.828 154.644C273.882 155.127 273.969 155.435 274.437 155.513C274.646 155.551 274.976 155.59 275.115 155.59C275.22 155.59 275.236 155.667 275.236 155.725C275.236 155.801 275.167 155.859 274.993 155.859C274.159 155.859 273.186 155.801 273.117 155.801C273.099 155.801 272.074 155.859 271.605 155.859C271.448 155.859 271.362 155.822 271.362 155.725C271.362 155.667 271.397 155.59 271.484 155.59C271.622 155.59 271.813 155.551 271.952 155.513C272.248 155.435 272.282 155.127 272.353 154.644C272.439 153.968 272.439 152.677 272.439 151.094V148.202Z" fill="#0095D8"/>
<path d="M284.095 154.316C282.599 152.889 282.235 151.018 282.235 149.456C282.235 148.356 282.599 146.446 283.954 144.979C284.877 143.997 286.266 143.223 288.613 143.223C289.221 143.223 290.089 143.281 290.837 143.417C291.41 143.532 291.897 143.649 292.401 143.669C292.557 143.669 292.592 143.745 292.592 143.841C292.592 143.977 292.557 144.17 292.523 144.768C292.505 145.306 292.505 146.214 292.488 146.446C292.47 146.695 292.401 146.793 292.314 146.793C292.21 146.793 292.193 146.678 292.193 146.446C292.193 145.81 291.949 145.153 291.549 144.806C291.01 144.305 289.898 143.899 288.543 143.899C286.578 143.899 285.641 144.479 285.102 145.037C283.973 146.196 283.729 147.66 283.729 149.32C283.729 152.465 285.971 155.262 289.237 155.262C290.386 155.262 291.149 155.165 291.759 154.49C292.089 154.123 292.296 153.429 292.348 153.121C292.383 152.947 292.401 152.889 292.505 152.889C292.575 152.889 292.644 153.004 292.644 153.121C292.644 153.236 292.435 154.663 292.28 155.223C292.193 155.532 292.158 155.59 291.897 155.705C291.271 155.976 290.124 156.072 289.134 156.072C286.84 156.072 285.292 155.473 284.095 154.316Z" fill="#0095D8"/>
<path d="M305.72 151.095C305.72 152.678 305.738 153.969 305.807 154.646C305.859 155.128 305.894 155.437 306.363 155.513C306.571 155.551 306.918 155.59 307.04 155.59C307.145 155.59 307.18 155.668 307.18 155.725C307.18 155.802 307.093 155.859 306.918 155.859C306.085 155.859 305.111 155.802 305.024 155.802C304.955 155.802 303.965 155.859 303.514 155.859C303.34 155.859 303.269 155.822 303.269 155.725C303.269 155.668 303.304 155.59 303.391 155.59C303.53 155.59 303.704 155.551 303.843 155.513C304.156 155.437 304.208 155.108 304.259 154.625C304.33 153.95 304.33 152.717 304.33 151.134V149.494C304.33 149.418 304.295 149.398 304.243 149.398H297.866C297.812 149.398 297.779 149.418 297.779 149.494V151.134C297.779 152.717 297.779 153.969 297.847 154.646C297.899 155.128 297.952 155.437 298.404 155.513C298.629 155.551 298.959 155.59 299.098 155.59C299.185 155.59 299.221 155.668 299.221 155.725C299.221 155.802 299.15 155.859 298.976 155.859C298.127 155.859 297.154 155.802 297.083 155.802C296.996 155.802 296.023 155.859 295.554 155.859C295.397 155.859 295.31 155.822 295.31 155.725C295.31 155.668 295.346 155.59 295.432 155.59C295.571 155.59 295.763 155.551 295.902 155.513C296.197 155.437 296.233 155.128 296.301 154.646C296.388 153.969 296.388 152.678 296.388 151.095V148.203C296.388 145.657 296.388 145.192 296.353 144.672C296.318 144.113 296.233 143.842 295.727 143.765C295.606 143.746 295.346 143.727 295.207 143.727C295.154 143.727 295.085 143.649 295.085 143.591C295.085 143.495 295.154 143.457 295.329 143.457C296.023 143.457 296.996 143.495 297.083 143.495C297.154 143.495 298.127 143.457 298.595 143.457C298.769 143.457 298.838 143.495 298.838 143.591C298.838 143.649 298.769 143.727 298.716 143.727C298.612 143.727 298.508 143.727 298.333 143.765C297.918 143.861 297.831 144.093 297.796 144.672C297.779 145.192 297.779 145.695 297.779 148.24V148.588C297.779 148.685 297.812 148.685 297.866 148.685H304.243C304.295 148.685 304.33 148.685 304.33 148.588V148.24C304.33 145.695 304.312 145.192 304.295 144.672C304.259 144.113 304.191 143.842 303.686 143.765C303.565 143.746 303.304 143.727 303.165 143.727C303.095 143.727 303.043 143.649 303.043 143.591C303.043 143.495 303.113 143.457 303.287 143.457C303.965 143.457 304.955 143.495 305.024 143.495C305.111 143.495 306.085 143.457 306.536 143.457C306.71 143.457 306.797 143.495 306.797 143.591C306.797 143.649 306.727 143.727 306.659 143.727C306.553 143.727 306.466 143.727 306.276 143.765C305.877 143.861 305.79 144.093 305.755 144.672C305.72 145.192 305.72 145.657 305.72 148.203V151.095Z" fill="#0095D8"/>
</g>
</g>
<defs>
<clipPath id="clip0_1162_1072">
<rect width="256" height="95" fill="white" transform="translate(52 63)"/>
</clipPath>
</defs>
</svg>
