<svg width="360" height="221" viewBox="0 0 360 221" fill="none" xmlns="http://www.w3.org/2000/svg">
<rect width="360" height="221" fill="white"/>
<g clip-path="url(#clip0_1162_1071)">
<path d="M235.713 176L235.946 174.6C236.715 170.02 240.657 167.07 245.985 167.07C251.574 167.07 254.774 169.87 254.774 174.75V176H235.713Z" fill="#00338E"/>
<path d="M245.984 168.32C250.722 168.32 253.057 170.74 253.057 174.75H237.649C238.349 170.53 241.892 168.32 245.984 168.32ZM245.984 165.82C239.819 165.82 235.095 169.29 234.243 174.45L233.776 177.25H256.49V174.75C256.49 168.16 251.065 165.82 245.984 165.82Z" fill="#B0B3B6"/>
<path d="M120.662 176L120.896 174.6C121.665 170.02 125.606 167.07 130.934 167.07C136.509 167.07 139.723 169.87 139.723 174.75V176H120.662Z" fill="#00338E"/>
<path d="M131.003 168.32C135.741 168.32 138.075 170.74 138.075 174.75H122.667C123.368 170.53 126.911 168.32 131.003 168.32ZM131.003 165.82C124.837 165.82 120.113 169.29 119.262 174.45L118.795 177.25H141.508V174.75C141.508 168.16 136.084 165.82 131.003 165.82Z" fill="#B0B3B6"/>
<path d="M53.7168 202.17V18.25H305.02V202.17H53.7168ZM244.818 165C237.986 165 230.635 169.22 230.635 177C230.635 184.16 236.784 189 245.952 189C249.313 188.963 252.605 188.299 255.517 187.07L254.382 185.54C252.127 186.439 249.6 186.91 247.031 186.91C240.473 186.91 235.923 183.74 235.13 178.65L234.912 177.26H257.307C257.373 176.751 257.405 176.241 257.402 175.73C257.389 169 252.688 165 244.818 165ZM130.411 165C123.579 165 116.228 169.22 116.228 177C116.228 184.16 122.377 189 131.545 189C134.906 188.964 138.199 188.299 141.11 187.07L139.976 185.54C137.72 186.439 135.193 186.91 132.625 186.91C126.066 186.91 121.516 183.74 120.724 178.65L120.505 177.26H142.886C142.886 176.84 142.982 176.32 142.982 175.73C142.982 169 138.282 165 130.411 165ZM273.197 188.39V173.94L273.32 173.71C275.397 169.97 279.032 167.71 283.063 167.71C283.823 167.706 284.582 167.753 285.331 167.85L286.096 165.07C285.446 164.99 284.787 164.953 284.128 164.96C281.027 164.96 277.925 166.62 275.848 169.41L275.356 170.06H272.501L271.995 165.6H268.579V188.37L273.197 188.39ZM219.554 188.39V173.79C219.554 165.92 214.471 165 210.645 165C207.133 165 204.1 166.09 200.52 168.66L200.028 169.02H197.528L196.967 165.62H193.511V188.39H198.211V171.44L198.73 171.07C201.463 169.07 203.936 167.57 207.803 167.57C214.184 167.57 214.922 171.57 214.922 174.57V188.4L219.554 188.39ZM180.175 188.39V173.79C180.175 165.92 175.092 165 171.266 165C167.754 165 164.721 166.09 161.141 168.66L160.649 169.02H158.149L157.589 165.62H154.132V188.39H158.805V171.44L159.324 171.07C162.057 169.07 164.53 167.57 168.397 167.57C174.778 167.57 175.515 171.57 175.515 174.57V188.4L180.175 188.39ZM104.163 188.39V153.89H99.422V170.77H77.437V153.87H72.6957V188.37H77.437V173.45H99.422V188.38L104.163 188.39Z" fill="#00338E"/>
<path d="M304.567 19.5V200.92H55.4331V19.5H304.567ZM284.943 155.64L284.353 154.34L283.323 152.54H281.043V158.11H282.911V156L282.691 154H282.787L284.312 157.2H285.685L287.209 154H287.305L287.086 156V158.07H288.953V152.5H286.674L285.671 154.3L285.081 155.6H284.984M273.477 153.76H275.756V158.07H277.665V153.8H279.958V152.53H273.449V153.8M79.2726 169.5V152.62H71.0331V189.62H79.2726V174.7H97.935V189.63H106.174V152.63H97.935V169.5H79.2726ZM275.166 168.83L274.603 164.35H267.888V189.62H276.017V174.18C278.132 170.37 281.51 168.98 284.257 168.98C285.483 168.973 286.703 169.112 287.868 169.39L289.241 164.24C287.995 163.851 286.641 163.676 285.287 163.73C281.606 163.73 277.94 165.53 275.468 168.83H275.179M246.918 190.24C251.157 190.187 255.284 189.238 258.797 187.51L256.05 183.8C253.675 184.986 250.869 185.63 247.989 185.65C242.4 185.65 238.445 183.08 237.745 178.5H259.772C260.03 177.586 260.15 176.653 260.129 175.72C260.129 168.67 255.185 163.72 245.778 163.72C237.649 163.72 229.808 168.72 229.808 177C229.808 185.28 237.305 190.23 246.918 190.23M199.775 167.74L199.212 164.34H192.483V189.61H200.612V172C203.51 169.94 205.487 168.86 208.522 168.86C212.34 168.86 214.015 170.4 214.015 174.57V189.65H222.145V173.77C222.145 167.39 218.89 163.77 211.475 163.77C206.737 163.77 203.235 165.57 200.091 167.77H199.802M160.225 167.77L159.662 164.37H152.92V189.64H161.036V172C163.933 169.94 165.911 168.86 168.945 168.86C172.763 168.86 174.438 170.4 174.438 174.57V189.65H182.458V173.77C182.458 167.39 179.204 163.77 171.788 163.77C167.05 163.77 163.549 165.57 160.404 167.77H160.115M131.923 190.24C136.162 190.187 140.288 189.238 143.801 187.51L141.055 183.8C138.689 184.986 135.893 185.633 133.021 185.66C127.432 185.66 123.477 183.09 122.777 178.51H144.79C145.049 177.596 145.169 176.663 145.147 175.73C145.147 168.68 140.203 163.73 130.797 163.73C122.667 163.73 114.826 168.73 114.826 177.01C114.826 185.29 122.324 190.24 131.936 190.24M308 17H52V203.42H308V17ZM101.437 155.12H102.81V187.12H101.437V172.2H75.8395V187.13H74.4663V155.13H75.8395V172H101.437V155.12ZM241.343 187C236.289 185.52 233.227 181.92 233.227 177C233.227 170 239.681 166.22 245.765 166.22C255.254 166.22 256.682 172.17 256.682 175.71C256.682 175.803 256.682 175.897 256.682 175.99H233.872L234.298 178.77C234.448 180.456 235.168 182.089 236.395 183.523C237.622 184.958 239.317 186.149 241.329 186.99L241.343 187ZM209.593 166.36C210.199 166.273 210.816 166.23 211.434 166.23C213.782 166.23 218.671 166.23 218.671 173.77V187.12H217.407V174.54C217.407 169.43 214.784 166.68 209.593 166.36ZM170.017 166.36C170.623 166.273 171.239 166.23 171.857 166.23C174.205 166.23 179.094 166.23 179.094 173.77V187.12H177.83V174.54C177.83 169.43 175.207 166.68 170.017 166.36ZM126.361 187C121.308 185.52 118.259 181.92 118.259 177C118.259 170 124.713 166.22 130.797 166.22C140.3 166.22 141.714 172.17 141.714 175.71C141.714 175.803 141.714 175.897 141.714 175.99H118.904L119.33 178.77C119.478 180.458 120.197 182.093 121.424 183.529C122.651 184.965 124.347 186.158 126.361 187ZM283.35 166.51C283.936 166.337 284.559 166.243 285.19 166.23L285.122 166.5H284.229H283.364L283.35 166.51ZM271.321 166.85H271.472L271.746 169.06L272.035 171.33H274.122C273.63 171.943 273.198 172.582 272.831 173.24L272.584 173.69V187.12H271.321V166.85ZM195.916 166.85H196.191L196.397 168.05L196.767 170.25H198.141L197.207 170.92V187.13H195.943V166.85H195.916ZM156.339 166.85H156.572L156.778 168.05L157.149 170.25H158.522L157.589 170.92V187.13H156.366V166.85H156.339Z" fill="#B0B3B6"/>
<path d="M97.9349 169.499H79.2725V152.619H71.0742V189.619H79.2725V174.699H97.9349V189.619H106.133V152.619H97.9349V169.499Z" fill="white"/>
<path d="M130.797 163.74C122.667 163.74 114.826 168.74 114.826 177.02C114.826 185.3 122.324 190.25 131.937 190.25C136.176 190.197 140.302 189.249 143.815 187.52L141.069 183.81C138.698 184.994 135.897 185.638 133.022 185.66C127.433 185.66 123.478 183.09 122.777 178.51H144.79C145.049 177.596 145.169 176.664 145.147 175.73C145.147 168.68 140.19 163.74 130.797 163.74ZM122.667 174.74C123.368 170.52 126.911 168.31 131.003 168.31C135.741 168.31 138.075 170.73 138.075 174.74H122.667Z" fill="white"/>
<path d="M171.857 163.74C167.119 163.74 163.617 165.54 160.473 167.74H160.184L159.621 164.34H152.92V189.61H161.036V172C163.933 169.94 165.911 168.86 168.946 168.86C172.763 168.86 174.439 170.4 174.439 174.57V189.65H182.458V173.77C182.458 167.39 179.272 163.74 171.857 163.74Z" fill="white"/>
<path d="M211.433 163.74C206.695 163.74 203.194 165.54 200.049 167.74H199.761L199.198 164.34H192.482V189.61H200.612V172C203.51 169.94 205.487 168.86 208.522 168.86C212.34 168.86 214.015 170.4 214.015 174.57V189.65H222.144V173.77C222.103 167.39 218.849 163.74 211.433 163.74Z" fill="white"/>
<path d="M245.778 163.74C237.649 163.74 229.808 168.74 229.808 177.02C229.808 185.3 237.306 190.25 246.918 190.25C251.157 190.197 255.284 189.249 258.797 187.52L256.05 183.81C253.675 184.996 250.869 185.64 247.989 185.66C242.4 185.66 238.445 183.09 237.745 178.51H259.772C260.031 177.596 260.15 176.664 260.129 175.73C260.129 168.68 255.24 163.74 245.778 163.74ZM237.649 174.74C238.349 170.52 241.892 168.31 245.984 168.31C250.722 168.31 253.057 170.73 253.057 174.74H237.649Z" fill="white"/>
<path d="M275.454 168.83H275.166L274.603 164.35H267.888V189.62H276.017V174.18C278.132 170.37 281.51 168.98 284.257 168.98C285.483 168.973 286.703 169.112 287.868 169.39L289.242 164.24C287.995 163.851 286.641 163.676 285.287 163.73C281.606 163.74 277.926 165.54 275.454 168.83Z" fill="white"/>
<path d="M275.715 158.109H277.624V153.799H279.931V152.529H273.436V153.799H275.715V158.109Z" fill="white"/>
<path d="M282.897 156.029L282.677 154.069H282.773L284.298 157.269H285.643L287.168 154.069H287.264L287.044 156.029V158.109H288.912V152.529H286.632L285.63 154.339L285.039 155.639H284.943L284.353 154.339L283.323 152.529H281.029V158.109H282.897V156.029Z" fill="white"/>
</g>
<defs>
<clipPath id="clip0_1162_1071">
<rect width="256" height="186.42" fill="white" transform="translate(52 17)"/>
</clipPath>
</defs>
</svg>
