<svg width="360" height="221" viewBox="0 0 360 221" fill="none" xmlns="http://www.w3.org/2000/svg">
<rect width="360" height="221" fill="white"/>
<g clip-path="url(#clip0_1162_1074)">
<path fill-rule="evenodd" clip-rule="evenodd" d="M153.375 78.2918L63.3952 74.3346C63.4203 74.3015 63.4455 74.2661 63.4707 74.2331L147.58 70.5358C149.717 72.9447 151.66 75.5308 153.375 78.2918ZM141.882 64.9571L75.915 62.0542C76.1847 61.8626 76.4544 61.676 76.7265 61.4892L133.357 59C136.382 60.7138 139.232 62.7089 141.882 64.9571ZM161.764 102.983C161.963 104.943 162.066 106.935 162.066 108.949C162.066 110.294 162.018 111.623 161.931 112.942L52 108.105C52.0015 108.006 52.0015 107.907 52.0046 107.808L161.764 102.983ZM161.179 119.154C160.596 122.457 159.734 125.662 158.623 128.742L53.9955 124.14C53.9705 124.05 53.9498 123.96 53.9246 123.868L161.179 119.154ZM155.528 135.801C154.01 138.718 152.262 141.484 150.291 144.07L61.0475 140.146C61.0086 140.084 60.9676 140.018 60.9287 139.957L155.528 135.801ZM142.016 152.826C139.287 155.159 136.338 157.223 133.206 158.984L76.8705 156.506C76.5003 156.253 76.1344 155.998 75.771 155.738L142.016 152.826ZM305.442 97.0918L174.442 96.9431L54.6768 91.915L174.442 87.8609L305.442 87.92V97.0918Z" fill="#102A83"/>
<path fill-rule="evenodd" clip-rule="evenodd" d="M182.587 79.8814L182.45 80.3447H175.686L175.857 79.8814C176.536 79.8648 176.982 79.8057 177.201 79.7064C177.558 79.5623 177.818 79.3636 177.988 79.1154C178.257 78.723 178.529 78.0209 178.81 77.0092L181.675 66.7499C181.915 65.8988 182.04 65.2559 182.04 64.8209C182.04 64.601 181.985 64.4191 181.883 64.2677C181.775 64.1188 181.617 64.003 181.403 63.925C181.188 63.8447 180.769 63.8068 180.148 63.8068L180.294 63.3387H186.646L186.514 63.8068C185.997 63.7972 185.611 63.854 185.359 63.9818C184.998 64.1472 184.722 64.3836 184.532 64.6956C184.342 65.0053 184.098 65.6884 183.796 66.7499L180.948 77.0092C180.687 77.9524 180.559 78.5552 180.559 78.8175C180.559 79.0233 180.607 79.2029 180.712 79.347C180.81 79.4936 180.973 79.6095 181.195 79.6852C181.419 79.7679 181.883 79.8318 182.587 79.8814ZM190.21 68.9979L188.601 74.7043C190.112 72.3712 191.271 70.8346 192.073 70.0971C192.876 69.3667 193.65 68.9979 194.396 68.9979C194.8 68.9979 195.132 69.1351 195.397 69.4092C195.657 69.6859 195.79 70.0474 195.79 70.4871C195.79 70.9884 195.674 71.6597 195.438 72.4942L193.961 77.7728C193.788 78.385 193.705 78.756 193.705 78.8885C193.705 79.0043 193.737 79.1036 193.799 79.184C193.865 79.2667 193.936 79.3046 194.007 79.3046C194.105 79.3046 194.222 79.2478 194.359 79.1414C194.789 78.7917 195.257 78.2549 195.765 77.5364L196.142 77.7728C195.388 78.8862 194.677 79.6804 194.007 80.1555C193.538 80.4818 193.116 80.6448 192.748 80.6448C192.446 80.6448 192.21 80.5503 192.032 80.3611C191.854 80.1745 191.762 79.9215 191.762 79.6047C191.762 79.2029 191.899 78.5126 192.176 77.5364L193.584 72.4942C193.762 71.8701 193.849 71.3784 193.849 71.0261C193.849 70.8607 193.794 70.7235 193.692 70.6196C193.589 70.5179 193.456 70.4613 193.303 70.4613C193.079 70.4613 192.807 70.5652 192.491 70.7661C191.89 71.142 191.271 71.7636 190.624 72.6265C189.979 73.4917 189.296 74.5956 188.576 75.9454C188.196 76.6546 187.881 77.43 187.627 78.2763L187.024 80.3447H185.202L187.41 72.4942C187.67 71.5486 187.799 70.9788 187.799 70.7922C187.799 70.6078 187.728 70.4446 187.586 70.3075C187.446 70.1704 187.268 70.0971 187.06 70.0971C186.962 70.0971 186.793 70.1161 186.548 70.1491L186.089 70.2272L186.018 69.7733L190.21 68.9979ZM203.601 65.887L202.652 69.2982H204.557L204.351 70.0901H202.458L200.373 77.4843C200.149 78.2809 200.033 78.7963 200.033 79.0255C200.033 79.1721 200.067 79.2785 200.131 79.3565C200.195 79.4297 200.273 79.4676 200.36 79.4676C200.563 79.4676 200.83 79.321 201.162 79.0255C201.356 78.8601 201.788 78.3448 202.458 77.4843L202.86 77.7988C202.115 78.9192 201.411 79.711 200.748 80.1697C200.298 80.4864 199.838 80.6448 199.379 80.6448C199.022 80.6448 198.732 80.5291 198.506 80.3021C198.277 80.0704 198.165 79.7749 198.165 79.4157C198.165 78.9664 198.295 78.2763 198.556 77.3496L200.579 70.0901H198.75L198.869 69.5959C199.761 69.3478 200.501 68.9719 201.089 68.4756C201.681 67.979 202.339 67.1139 203.066 65.887H203.601ZM207.007 75.6145C206.948 76.0353 206.92 76.3803 206.92 76.6594C206.92 77.3992 207.176 78.0327 207.686 78.5598C208.193 79.0823 208.811 79.3424 209.54 79.3424C210.123 79.3424 210.68 79.2195 211.22 78.9712C211.757 78.7278 212.557 78.1794 213.615 77.3353L213.869 77.6995C211.951 79.6638 210.127 80.6448 208.388 80.6448C207.208 80.6448 206.319 80.2596 205.72 79.4936C205.123 78.723 204.824 77.8743 204.824 76.9453C204.824 75.6996 205.194 74.4255 205.937 73.1207C206.682 71.8181 207.615 70.804 208.74 70.0807C209.862 69.3573 211.021 68.9979 212.21 68.9979C213.065 68.9979 213.698 69.1775 214.114 69.5369C214.523 69.8962 214.729 70.3193 214.729 70.8134C214.729 71.5107 214.464 72.1726 213.931 72.8061C213.227 73.6382 212.191 74.3049 210.827 74.8155C209.919 75.1558 208.646 75.4277 207.007 75.6145ZM207.089 75.0023C208.285 74.8627 209.261 74.6168 210.011 74.2741C211.01 73.818 211.752 73.2648 212.251 72.6265C212.747 71.9859 212.996 71.3784 212.996 70.7992C212.996 70.4494 212.889 70.1657 212.671 69.9481C212.461 69.7307 212.155 69.622 211.757 69.622C210.934 69.622 210.061 70.0758 209.133 70.9836C208.207 71.8913 207.528 73.2316 207.089 75.0023ZM216.365 69.7L220.549 68.9979L218.802 75.0898C220.217 72.5887 221.506 70.8418 222.661 69.849C223.315 69.2792 223.847 68.9979 224.261 68.9979C224.526 68.9979 224.739 69.0784 224.892 69.2414C225.045 69.4046 225.123 69.641 225.123 69.9481C225.123 70.4991 224.986 71.0261 224.709 71.5274C224.515 71.9032 224.238 72.0922 223.872 72.0922C223.687 72.0922 223.525 72.0331 223.392 71.9032C223.26 71.7803 223.177 71.5864 223.145 71.3312C223.127 71.168 223.091 71.0639 223.038 71.0142C222.972 70.9505 222.896 70.9151 222.805 70.9151C222.668 70.9151 222.54 70.9505 222.416 71.0142C222.208 71.1325 221.886 71.4587 221.461 71.9931C220.789 72.811 220.062 73.8723 219.278 75.1794C218.939 75.7302 218.644 76.3521 218.404 77.0446C218.066 77.9996 217.872 78.5716 217.822 78.7656L217.433 80.3447H215.579L217.822 72.5579C218.082 71.6549 218.21 71.0096 218.21 70.6242C218.21 70.4753 218.148 70.3501 218.029 70.2508C217.867 70.1161 217.652 70.0498 217.387 70.0498C217.218 70.0498 216.903 70.0901 216.452 70.1609L216.365 69.7ZM230.213 68.9979L228.604 74.7043C230.115 72.3712 231.274 70.8346 232.076 70.0971C232.879 69.3667 233.654 68.9979 234.399 68.9979C234.803 68.9979 235.135 69.1351 235.4 69.4092C235.661 69.6859 235.793 70.0474 235.793 70.4871C235.793 70.9884 235.677 71.6597 235.441 72.4942L233.965 77.7728C233.791 78.385 233.709 78.756 233.709 78.8885C233.709 79.0043 233.741 79.1036 233.802 79.184C233.869 79.2667 233.939 79.3046 234.01 79.3046C234.109 79.3046 234.225 79.2478 234.362 79.1414C234.792 78.7917 235.261 78.2549 235.768 77.5364L236.145 77.7728C235.391 78.8862 234.68 79.6804 234.01 80.1555C233.542 80.4818 233.119 80.6448 232.751 80.6448C232.449 80.6448 232.214 80.5503 232.035 80.3611C231.857 80.1745 231.766 79.9215 231.766 79.6047C231.766 79.2029 231.903 78.5126 232.179 77.5364L233.587 72.4942C233.766 71.8701 233.853 71.3784 233.853 71.0261C233.853 70.8607 233.798 70.7235 233.695 70.6196C233.592 70.5179 233.459 70.4613 233.306 70.4613C233.082 70.4613 232.81 70.5652 232.495 70.7661C231.894 71.142 231.274 71.7636 230.627 72.6265C229.982 73.4917 229.299 74.5956 228.579 75.9454C228.2 76.6546 227.884 77.43 227.63 78.2763L227.027 80.3447H225.205L227.413 72.4942C227.674 71.5486 227.802 70.9788 227.802 70.7922C227.802 70.6078 227.731 70.4446 227.589 70.3075C227.45 70.1704 227.271 70.0971 227.063 70.0971C226.965 70.0971 226.796 70.1161 226.551 70.1491L226.092 70.2272L226.021 69.7733L230.213 68.9979ZM248.802 68.9979L246.439 77.4985L246.173 78.6403C246.148 78.749 246.137 78.8389 246.137 78.9146C246.137 79.0469 246.178 79.1675 246.256 79.2668C246.322 79.3424 246.402 79.3778 246.5 79.3778C246.606 79.3778 246.74 79.314 246.912 79.1793C247.23 78.9358 247.648 78.4346 248.174 77.6735L248.588 77.9736C248.027 78.8411 247.454 79.5054 246.866 79.9641C246.274 80.418 245.728 80.6448 245.227 80.6448C244.88 80.6448 244.617 80.5551 244.443 80.3753C244.269 80.1957 244.182 79.9333 244.182 79.5905C244.182 79.184 244.274 78.6451 244.452 77.9736L244.704 77.0352C243.645 78.4653 242.672 79.463 241.782 80.0326C241.145 80.4392 240.516 80.6448 239.903 80.6448C239.311 80.6448 238.802 80.392 238.376 79.886C237.947 79.3825 237.734 78.6828 237.734 77.7988C237.734 76.4702 238.12 75.0661 238.888 73.591C239.663 72.1182 240.644 70.9363 241.833 70.0498C242.758 69.3478 243.636 68.9979 244.464 68.9979C244.957 68.9979 245.367 69.1302 245.694 69.3951C246.02 69.6646 246.27 70.1067 246.439 70.726L246.878 69.2982L248.802 68.9979ZM244.487 69.648C243.968 69.648 243.421 69.9009 242.838 70.402C242.015 71.1113 241.282 72.1655 240.637 73.5603C239.995 74.955 239.672 76.2197 239.672 77.3496C239.672 77.9169 239.812 78.366 240.086 78.697C240.358 79.0255 240.678 79.1887 241.032 79.1887C241.91 79.1887 242.87 78.5173 243.906 77.1723C245.289 75.3828 245.979 73.5485 245.979 71.6691C245.979 70.9576 245.847 70.4446 245.579 70.1231C245.314 69.8063 244.948 69.648 244.487 69.648ZM256.021 65.887L255.073 69.2982H256.977L256.771 70.0901H254.878L252.793 77.4843C252.569 78.2809 252.453 78.7963 252.453 79.0255C252.453 79.1721 252.487 79.2785 252.551 79.3565C252.615 79.4297 252.693 79.4676 252.78 79.4676C252.983 79.4676 253.251 79.321 253.582 79.0255C253.777 78.8601 254.208 78.3448 254.878 77.4843L255.281 77.7988C254.535 78.9192 253.831 79.711 253.168 80.1697C252.718 80.4864 252.259 80.6448 251.799 80.6448C251.443 80.6448 251.152 80.5291 250.926 80.3021C250.697 80.0704 250.585 79.7749 250.585 79.4157C250.585 78.9664 250.716 78.2763 250.976 77.3496L252.999 70.0901H251.171L251.289 69.5959C252.181 69.3478 252.922 68.9719 253.509 68.4756C254.101 67.979 254.759 67.1139 255.486 65.887H256.021ZM262.022 64.0195C262.36 64.0195 262.646 64.1402 262.883 64.3836C263.114 64.6223 263.233 64.9178 263.233 65.2748C263.233 65.6151 263.114 65.9083 262.874 66.1565C262.639 66.4048 262.353 66.5229 262.022 66.5229C261.69 66.5229 261.405 66.4048 261.164 66.1565C260.929 65.9083 260.808 65.6151 260.808 65.2748C260.808 64.9178 260.924 64.6223 261.16 64.3836C261.393 64.1402 261.681 64.0195 262.022 64.0195ZM262.179 68.9979L259.779 77.7846C259.617 78.3802 259.535 78.7348 259.535 78.8507C259.535 78.9878 259.571 79.0942 259.649 79.1793C259.729 79.262 259.82 79.3046 259.923 79.3046C260.042 79.3046 260.188 79.2359 260.358 79.1036C260.822 78.7278 261.286 78.1912 261.752 77.4985L262.179 77.7846C261.629 78.6545 260.982 79.3849 260.239 79.9805C259.688 80.425 259.162 80.6448 258.661 80.6448C258.33 80.6448 258.06 80.5409 257.85 80.3399C257.637 80.1343 257.534 79.879 257.534 79.5645C257.534 79.2573 257.635 78.7442 257.836 78.0257L259.413 72.4043C259.669 71.4895 259.802 70.9103 259.802 70.6763C259.802 70.4919 259.74 70.3406 259.612 70.2272C259.489 70.1067 259.315 70.0498 259.1 70.0498C258.922 70.0498 258.554 70.0924 257.994 70.187V69.7L262.179 68.9979ZM274.848 72.922C274.848 74.1772 274.528 75.4183 273.888 76.6476C273.241 77.8743 272.347 78.8459 271.202 79.5645C270.05 80.2856 268.937 80.6448 267.853 80.6448C266.744 80.6448 265.841 80.2809 265.142 79.5481C264.442 78.8175 264.095 77.8697 264.095 76.7066C264.095 75.4774 264.433 74.2458 265.117 73.0095C265.8 71.7708 266.715 70.7944 267.858 70.0758C269.003 69.3573 270.109 68.9979 271.177 68.9979C272.244 68.9979 273.122 69.3619 273.812 70.0901C274.505 70.8134 274.848 71.759 274.848 72.922ZM272.836 72.0545C272.836 71.2791 272.653 70.6833 272.285 70.2696C271.917 69.8536 271.442 69.648 270.861 69.648C269.67 69.648 268.578 70.5297 267.579 72.2884C266.582 74.0497 266.081 75.7941 266.081 77.5364C266.081 78.3282 266.276 78.9404 266.664 79.3731C267.053 79.8057 267.542 80.0184 268.13 80.0184C269.272 80.0184 270.34 79.1414 271.337 77.3922C272.336 75.6405 272.836 73.8604 272.836 72.0545ZM281.262 68.9979L279.653 74.7043C281.164 72.3712 282.323 70.8346 283.125 70.0971C283.927 69.3667 284.702 68.9979 285.448 68.9979C285.852 68.9979 286.184 69.1351 286.449 69.4092C286.709 69.6859 286.842 70.0474 286.842 70.4871C286.842 70.9884 286.725 71.6597 286.49 72.4942L285.013 77.7728C284.839 78.385 284.757 78.756 284.757 78.8885C284.757 79.0043 284.789 79.1036 284.851 79.184C284.917 79.2667 284.988 79.3046 285.059 79.3046C285.157 79.3046 285.274 79.2478 285.411 79.1414C285.841 78.7917 286.309 78.2549 286.817 77.5364L287.194 77.7728C286.44 78.8862 285.729 79.6804 285.059 80.1555C284.59 80.4818 284.167 80.6448 283.799 80.6448C283.498 80.6448 283.262 80.5503 283.084 80.3611C282.906 80.1745 282.814 79.9215 282.814 79.6047C282.814 79.2029 282.951 78.5126 283.228 77.5364L284.636 72.4942C284.814 71.8701 284.901 71.3784 284.901 71.0261C284.901 70.8607 284.846 70.7235 284.743 70.6196C284.641 70.5179 284.508 70.4613 284.355 70.4613C284.131 70.4613 283.859 70.5652 283.543 70.7661C282.942 71.142 282.323 71.7636 281.676 72.6265C281.031 73.4917 280.348 74.5956 279.628 75.9454C279.248 76.6546 278.933 77.43 278.679 78.2763L278.075 80.3447H276.254L278.462 72.4942C278.723 71.5486 278.85 70.9788 278.85 70.7922C278.85 70.6078 278.78 70.4446 278.638 70.3075C278.498 70.1704 278.32 70.0971 278.112 70.0971C278.014 70.0971 277.845 70.1161 277.6 70.1491L277.141 70.2272L277.07 69.7733L281.262 68.9979ZM299.851 68.9979L297.487 77.4985L297.222 78.6403C297.197 78.749 297.186 78.8389 297.186 78.9146C297.186 79.0469 297.227 79.1675 297.304 79.2668C297.371 79.3424 297.451 79.3778 297.549 79.3778C297.654 79.3778 297.789 79.314 297.96 79.1793C298.278 78.9358 298.697 78.4346 299.222 77.6735L299.636 77.9736C299.076 78.8411 298.502 79.5054 297.915 79.9641C297.323 80.418 296.776 80.6448 296.276 80.6448C295.928 80.6448 295.665 80.5551 295.492 80.3753C295.318 80.1957 295.231 79.9333 295.231 79.5905C295.231 79.184 295.323 78.6451 295.501 77.9736L295.752 77.0352C294.694 78.4653 293.72 79.463 292.831 80.0326C292.193 80.4392 291.565 80.6448 290.952 80.6448C290.36 80.6448 289.85 80.392 289.425 79.886C288.995 79.3825 288.783 78.6828 288.783 77.7988C288.783 76.4702 289.169 75.0661 289.937 73.591C290.712 72.1182 291.693 70.9363 292.881 70.0498C293.807 69.3478 294.685 68.9979 295.512 68.9979C296.006 68.9979 296.415 69.1302 296.742 69.3951C297.069 69.6646 297.318 70.1067 297.487 70.726L297.926 69.2982L299.851 68.9979ZM295.535 69.648C295.016 69.648 294.47 69.9009 293.887 70.402C293.064 71.1113 292.33 72.1655 291.686 73.5603C291.043 74.955 290.721 76.2197 290.721 77.3496C290.721 77.9169 290.861 78.366 291.135 78.697C291.407 79.0255 291.727 79.1887 292.081 79.1887C292.959 79.1887 293.919 78.5173 294.955 77.1723C296.337 75.3828 297.028 73.5485 297.028 71.6691C297.028 70.9576 296.895 70.4446 296.628 70.1231C296.363 69.8063 295.997 69.648 295.535 69.648ZM308 62.5137L303.854 77.4346C303.65 78.1794 303.552 78.6379 303.552 78.8035C303.552 78.9286 303.588 79.0303 303.666 79.1154C303.742 79.1981 303.838 79.2407 303.952 79.2407C304.105 79.2407 304.272 79.1721 304.45 79.0255C304.869 78.6828 305.31 78.1534 305.769 77.4346L306.135 77.8246C305.365 78.9452 304.661 79.723 304.011 80.1697C303.536 80.4864 303.083 80.6448 302.653 80.6448C302.347 80.6448 302.091 80.5361 301.883 80.3187C301.677 80.1012 301.572 79.853 301.572 79.5645C301.572 79.2667 301.705 78.6497 301.961 77.7113L305.248 65.9509C305.518 64.9864 305.65 64.4357 305.65 64.2937C305.65 64.0927 305.57 63.9298 305.417 63.7974C305.264 63.6697 305.024 63.6034 304.702 63.6034C304.516 63.6034 304.235 63.6342 303.854 63.6909V63.2276L308 62.5137Z" fill="#1B1918"/>
<path fill-rule="evenodd" clip-rule="evenodd" d="M164.759 157.163C165.479 153.712 166.112 149.825 166.645 145.514H169.038L168.928 149.646L168.965 152.057C170.08 153.43 171.694 154.584 173.79 155.508C175.886 156.444 178.095 156.905 180.415 156.905C183.926 156.905 186.63 155.943 188.53 154.033C190.416 152.109 191.357 149.516 191.357 146.232C191.357 144.001 190.811 142.332 189.721 141.228C188.603 140.15 186.148 139.176 182.351 138.304C176.693 136.994 173.07 135.328 171.484 133.299C169.884 131.297 169.077 128.616 169.077 125.255C169.077 120.265 170.999 115.941 174.858 112.284C178.716 108.627 183.466 106.793 189.138 106.793C191.296 106.793 193.33 107.062 195.23 107.589C197.127 108.114 198.901 108.911 200.515 109.963C199.596 114.197 198.988 117.967 198.702 121.265H196.197L196.309 117.289L196.27 115.107C195.365 113.849 194.062 112.837 192.363 112.041C190.651 111.258 188.69 110.861 186.495 110.861C183.245 110.861 180.714 111.759 178.89 113.542C177.078 115.338 176.172 117.79 176.172 120.894C176.172 122.65 176.545 124.151 177.29 125.409C178.047 126.654 179.1 127.539 180.454 128.04C182.463 128.758 184.808 129.425 187.476 130.028C192.537 131.207 195.762 132.697 197.138 134.505C198.517 136.302 199.212 138.701 199.212 141.677C199.212 146.644 197.127 151.107 192.971 155.059C188.827 159.023 183.814 160.999 177.946 160.999C175.329 160.999 172.922 160.678 170.739 160.037C168.542 159.409 166.546 158.447 164.759 157.163ZM208.515 139.843C208.515 133.172 209.807 127.333 212.399 122.317C214.991 117.315 218.528 113.478 222.994 110.797C227.472 108.128 232.757 106.793 238.863 106.793C246.182 106.793 251.851 108.743 255.87 112.632C259.902 116.506 261.912 121.804 261.912 128.527C261.912 134.389 260.499 139.895 257.694 145.038C254.878 150.196 251.193 154.135 246.64 156.882C242.088 159.626 236.826 160.999 230.871 160.999C223.751 160.999 218.242 159.113 214.347 155.34C210.463 151.57 208.515 146.398 208.515 139.843ZM218.802 142.126C218.802 145.641 219.335 148.49 220.402 150.698C221.467 152.903 223.081 154.622 225.253 155.853C227.424 157.073 229.955 157.69 232.833 157.69C236.392 157.69 239.432 156.688 241.938 154.688C244.445 152.686 246.69 148.977 248.663 143.575C250.635 138.176 251.627 132.311 251.627 125.974C251.627 120.662 250.425 116.686 248.043 114.055C245.661 111.426 242.262 110.105 237.844 110.105C234.024 110.105 230.823 111.105 228.268 113.093C225.712 115.081 223.502 118.7 221.618 123.934C219.744 129.181 218.802 135.238 218.802 142.126ZM268.166 157.163C268.886 153.712 269.519 149.825 270.052 145.514H272.445L272.335 149.646L272.372 152.057C273.487 153.43 275.101 154.584 277.197 155.508C279.294 156.444 281.502 156.905 283.822 156.905C287.333 156.905 290.037 155.943 291.937 154.033C293.823 152.109 294.765 149.516 294.765 146.232C294.765 144.001 294.218 142.332 293.128 141.228C292.01 140.15 289.555 139.176 285.758 138.304C280.101 136.994 276.477 135.328 274.891 133.299C273.291 131.297 272.484 128.616 272.484 125.255C272.484 120.265 274.406 115.941 278.265 112.284C282.124 108.627 286.874 106.793 292.545 106.793C294.703 106.793 296.737 107.062 298.637 107.589C300.534 108.114 302.308 108.911 303.922 109.963C303.003 114.197 302.395 117.967 302.109 121.265H299.604L299.716 117.289L299.677 115.107C298.772 113.849 297.469 112.837 295.77 112.041C294.058 111.258 292.097 110.861 289.903 110.861C286.652 110.861 284.121 111.759 282.297 113.542C280.485 115.338 279.579 117.79 279.579 120.894C279.579 122.65 279.952 124.151 280.697 125.409C281.454 126.654 282.508 127.539 283.861 128.04C285.87 128.758 288.216 129.425 290.883 130.028C295.944 131.207 299.169 132.697 300.546 134.505C301.924 136.302 302.619 138.701 302.619 141.677C302.619 146.644 300.534 151.107 296.378 155.059C292.234 159.023 287.221 160.999 281.353 160.999C278.736 160.999 276.329 160.678 274.146 160.037C271.949 159.409 269.954 158.447 268.166 157.163Z" fill="#1B1918"/>
</g>
<defs>
<clipPath id="clip0_1162_1074">
<rect width="256" height="102" fill="white" transform="translate(52 59)"/>
</clipPath>
</defs>
</svg>
