<svg width="360" height="221" viewBox="0 0 360 221" fill="none" xmlns="http://www.w3.org/2000/svg">
<rect width="360" height="221" fill="white"/>
<g clip-path="url(#clip0_779_31)">
<path opacity="0.977" fill-rule="evenodd" clip-rule="evenodd" d="M93.1581 58.8809C93.3776 58.8809 93.5971 58.8809 93.8166 58.8809C97.2315 61.3078 99.3534 64.7025 100.182 69.0651C95.792 68.1177 91.4017 68.1177 87.0117 69.0651C87.6841 64.6906 89.7328 61.2958 93.1581 58.8809Z" fill="#2B3643"/>
<path opacity="0.988" fill-rule="evenodd" clip-rule="evenodd" d="M115.549 65.7505C119.622 65.5101 123.647 65.8654 127.622 66.8163C127.878 66.9347 128.061 67.132 128.171 67.4084C130.779 80.5 128.145 92.1842 120.268 102.461C119.679 103.136 119.057 103.767 118.402 104.356C117.877 101.962 116.999 99.7518 115.768 97.7241C118.316 92.5141 117.987 87.5404 114.78 82.8031C110.245 77.7638 105.05 76.8164 99.195 79.961C97.3917 78.7465 95.4528 77.878 93.3779 77.3557C99.5221 70.765 106.912 66.8966 115.549 65.7505Z" fill="#9C1B2F"/>
<path opacity="0.992" fill-rule="evenodd" clip-rule="evenodd" d="M68.3541 70.0123C76.603 69.8467 83.6273 72.8862 89.4273 79.1307C88.8179 79.3762 88.1958 79.5736 87.5614 79.7228C80.7787 76.5187 75.2909 78.1766 71.098 84.6965C69.2335 88.7801 69.1969 92.8855 70.9883 97.0123C70.6956 97.8808 70.4029 98.749 70.1102 99.6175C63.0769 91.5282 60.6989 82.0545 62.9761 71.1965C63.403 70.8736 63.8786 70.6762 64.4029 70.6044C65.7579 70.4516 67.075 70.2543 68.3541 70.0123Z" fill="#F3952C"/>
<path opacity="0.99" fill-rule="evenodd" clip-rule="evenodd" d="M92.0608 83.749C95.1917 83.3739 97.7527 84.4792 99.7437 87.0648C106.03 87.058 109.176 90.4526 109.183 97.249C111.137 98.9396 112.161 101.15 112.256 103.881C112.16 106.615 111.135 108.825 109.183 110.512C109.168 117.318 106.022 120.713 99.7437 120.696C96.9028 124.096 93.537 124.846 89.6461 122.946C88.6329 122.406 87.8279 121.616 87.2315 120.578C82.3061 120.904 79.2694 118.496 78.1218 113.354C77.9486 112.504 77.9852 111.675 78.2315 110.867C74.6568 107.589 73.9618 103.681 76.1461 99.1438C76.6949 98.236 77.3901 97.4859 78.2315 96.8938C77.7541 92.0847 79.6566 88.9266 83.9388 87.4201C85.0364 87.3412 86.134 87.2621 87.2315 87.1832C88.5255 85.4998 90.1354 84.3551 92.0608 83.749ZM92.9388 97.9596C97.5187 98.4479 99.3846 101.132 98.5364 106.012C97.0112 109.276 94.6332 110.342 91.4022 109.21C87.9287 106.889 87.2701 103.85 89.4266 100.091C90.4215 99.0028 91.5923 98.2923 92.9388 97.9596Z" fill="#9FC23A"/>
<path opacity="0.979" fill-rule="evenodd" clip-rule="evenodd" d="M51.8906 104.354C51.8906 104.039 51.8906 103.723 51.8906 103.407C54.0484 99.8991 57.0484 97.6887 60.8906 96.7754C61.037 96.8543 61.1833 96.9334 61.3296 97.0122C60.1589 101.591 60.1589 106.17 61.3296 110.749C61.0612 111.013 60.7685 111.052 60.4516 110.867C56.8326 109.841 53.979 107.67 51.8906 104.354Z" fill="#2B3643"/>
<path opacity="0.97" fill-rule="evenodd" clip-rule="evenodd" d="M125.866 96.7754C129.985 97.6702 133.131 100.039 135.305 103.881C133.136 107.715 129.99 110.083 125.866 110.986C126.23 108.635 126.449 106.266 126.525 103.881C126.429 101.498 126.209 99.1294 125.866 96.7754Z" fill="#2B3643"/>
<path opacity="0.986" fill-rule="evenodd" clip-rule="evenodd" d="M68.3534 103.645C69.097 105.92 70.1214 108.091 71.4266 110.158C68.6168 115.899 69.2021 121.188 73.1827 126.026C77.6342 130.155 82.4634 130.747 87.6705 127.802C89.5124 129.072 91.488 130.02 93.5973 130.645C87.9701 136.793 81.1652 140.543 73.1827 141.895C68.5337 142.519 63.9239 142.282 59.3534 141.184C59.0573 141.001 58.8744 140.725 58.8046 140.355C56.2192 126.324 59.4022 114.087 68.3534 103.645Z" fill="#006A6D"/>
<path opacity="0.984" fill-rule="evenodd" clip-rule="evenodd" d="M116.207 108.145C116.916 108.552 117.538 109.104 118.073 109.802C124.017 117.771 125.956 126.771 123.89 136.802C113.677 139.161 104.824 136.477 97.3291 128.75C98.0594 128.513 98.7913 128.276 99.5242 128.039C105.442 130.943 110.601 129.837 115 124.723C117.996 120.07 118.252 115.255 115.768 110.276C116.126 109.619 116.272 108.908 116.207 108.145Z" fill="#009CB8"/>
<path opacity="0.975" fill-rule="evenodd" clip-rule="evenodd" d="M93.8166 148.881C93.5971 148.881 93.3776 148.881 93.1581 148.881C89.7328 146.466 87.6841 143.072 87.0117 138.697C91.4017 139.645 95.792 139.645 100.182 138.697C99.349 143.063 97.2269 146.458 93.8166 148.881Z" fill="#2B3643"/>
</g>
<path d="M161.032 75.58V77.326H155.578V88H153.58V77.326H148.126V75.58H161.032ZM168.229 75.58L173.917 88H171.739L170.101 84.31H164.107L162.505 88H160.381L166.069 75.58H168.229ZM169.453 82.78L167.131 77.434H167.095L164.773 82.78H169.453ZM185.219 76.57L184.517 78.19C183.923 77.866 182.627 77.092 180.629 77.092C178.631 77.092 177.497 77.578 177.497 78.568C177.497 79.756 178.451 80.08 181.259 80.764C184.085 81.448 185.705 82.564 185.705 84.562C185.705 86.92 183.761 88.216 180.359 88.216C177.515 88.216 176.021 87.334 175.265 86.848L175.949 85.12C176.525 85.498 178.037 86.434 180.323 86.434C182.483 86.434 183.671 85.984 183.671 84.778C183.671 83.716 182.789 83.122 179.981 82.42C177.173 81.718 175.535 80.872 175.535 78.73C175.535 76.588 177.551 75.364 180.593 75.364C183.185 75.364 184.499 76.156 185.219 76.57ZM200.639 75.58V88H198.659V82.51H190.487V88H188.507V75.58H190.487V80.764H198.659V75.58H200.639ZM206.223 75.58V80.8H208.113L213.495 75.58H216.195L209.895 81.61L216.609 88H213.747L208.167 82.528H206.223V88H204.243V75.58H206.223ZM228.305 75.58V77.326H220.781V80.782H227.585V82.474H220.781V86.218H228.485V88H218.801V75.58H228.305ZM243.487 75.58V88H241.471L233.389 78.586H233.353V88H231.373V75.58H233.389L241.471 84.994H241.507V75.58H243.487ZM258.615 75.58V77.326H253.161V88H251.163V77.326H245.709V75.58H258.615ZM151.51 97.58V110H149.512V97.58H151.51ZM167.391 97.58V110H165.375L157.293 100.586H157.257V110H155.277V97.58H157.293L165.375 106.994H165.411V97.58H167.391ZM182.519 97.58V99.326H177.065V110H175.067V99.326H169.613V97.58H182.519ZM194.249 97.58V99.326H186.725V102.782H193.529V104.474H186.725V108.218H194.429V110H184.745V97.58H194.249ZM208.603 110H206.101L202.825 105.536C202.717 105.536 202.591 105.536 202.465 105.536H199.297V110H197.317V97.58H202.465C206.335 97.58 208.135 98.912 208.135 101.504C208.135 103.376 207.055 104.69 204.967 105.248L208.603 110ZM206.101 101.576C206.101 100.064 204.985 99.326 202.393 99.326H199.297V103.862H202.267C204.895 103.862 206.101 103.034 206.101 101.576ZM223.427 97.58V110H221.411L213.329 100.586H213.293V110H211.313V97.58H213.329L221.411 106.994H221.447V97.58H223.427ZM233.619 97.58L239.307 110H237.129L235.491 106.31H229.497L227.895 110H225.771L231.459 97.58H233.619ZM234.843 104.78L232.521 99.434H232.485L230.163 104.78H234.843ZM251.566 97.58V99.326H246.112V110H244.114V99.326H238.66V97.58H251.566ZM255.952 97.58V110H253.954V97.58H255.952ZM273.184 103.79C273.184 107.768 270.394 110.216 266.092 110.216C261.808 110.216 259.018 107.768 259.018 103.79C259.018 99.812 261.808 97.364 266.11 97.364C270.394 97.364 273.184 99.812 273.184 103.79ZM271.15 103.772C271.15 100.91 269.116 99.146 266.11 99.146C263.086 99.146 261.052 100.91 261.052 103.772C261.052 106.634 263.086 108.38 266.11 108.38C269.116 108.38 271.15 106.634 271.15 103.772ZM288.202 97.58V110H286.186L278.104 100.586H278.068V110H276.088V97.58H278.104L286.186 106.994H286.222V97.58H288.202ZM298.395 97.58L304.083 110H301.905L300.267 106.31H294.273L292.671 110H290.547L296.235 97.58H298.395ZM299.619 104.78L297.297 99.434H297.261L294.939 104.78H299.619ZM308.415 97.58V108.218H316.137V110H306.435V97.58H308.415ZM158.476 120.57L157.774 122.19C157.18 121.866 155.884 121.092 153.886 121.092C151.888 121.092 150.754 121.578 150.754 122.568C150.754 123.756 151.708 124.08 154.516 124.764C157.342 125.448 158.962 126.564 158.962 128.562C158.962 130.92 157.018 132.216 153.616 132.216C150.772 132.216 149.278 131.334 148.522 130.848L149.206 129.12C149.782 129.498 151.294 130.434 153.58 130.434C155.74 130.434 156.928 129.984 156.928 128.778C156.928 127.716 156.046 127.122 153.238 126.42C150.43 125.718 148.792 124.872 148.792 122.73C148.792 120.588 150.808 119.364 153.85 119.364C156.442 119.364 157.756 120.156 158.476 120.57ZM161.062 125.79C161.062 121.47 164.5 119.364 168.388 119.364C171.232 119.364 172.348 120.174 173.158 120.696L172.402 122.334C171.736 121.884 170.71 121.146 168.424 121.146C165.436 121.146 163.096 122.64 163.096 125.736C163.096 128.94 165.166 130.38 168.172 130.38C170.62 130.38 171.97 129.57 172.456 129.246L173.104 130.866C172.546 131.28 170.926 132.216 168.028 132.216C163.996 132.216 161.062 130.308 161.062 125.79ZM187.979 119.58V132H185.999V126.51H177.827V132H175.847V119.58H177.827V124.764H185.999V119.58H187.979ZM205.047 125.79C205.047 129.768 202.257 132.216 197.955 132.216C193.671 132.216 190.881 129.768 190.881 125.79C190.881 121.812 193.671 119.364 197.973 119.364C202.257 119.364 205.047 121.812 205.047 125.79ZM203.013 125.772C203.013 122.91 200.979 121.146 197.973 121.146C194.949 121.146 192.915 122.91 192.915 125.772C192.915 128.634 194.949 130.38 197.973 130.38C200.979 130.38 203.013 128.634 203.013 125.772ZM221.521 125.79C221.521 129.768 218.731 132.216 214.429 132.216C210.145 132.216 207.355 129.768 207.355 125.79C207.355 121.812 210.145 119.364 214.447 119.364C218.731 119.364 221.521 121.812 221.521 125.79ZM219.487 125.772C219.487 122.91 217.453 121.146 214.447 121.146C211.423 121.146 209.389 122.91 209.389 125.772C209.389 128.634 211.423 130.38 214.447 130.38C217.453 130.38 219.487 128.634 219.487 125.772ZM226.406 119.58V130.218H234.128V132H224.426V119.58H226.406Z" fill="#2B3643"/>
<defs>
<clipPath id="clip0_779_31">
<rect width="90" height="90" fill="white" transform="translate(52 59)"/>
</clipPath>
</defs>
</svg>
