<svg width="360" height="221" viewBox="0 0 360 221" fill="none" xmlns="http://www.w3.org/2000/svg">
<rect width="360" height="221" fill="white"/>
<g clip-path="url(#clip0_1162_1078)">
<path d="M238.341 81.2044L243.002 63.5581L247.854 81.2044M208.225 81.2044L212.888 63.5581L217.802 81.2044H208.225ZM242.688 121.834L277.969 145.194L262.47 108.333L295.043 81.2044H255.099L242.688 46.7285L231.221 81.2047H225.047L212.573 46.7285L201.043 81.2047H195.373L182.898 46.7285L171.558 80.6394L177.858 83.779L183.214 63.5581L189.955 87.7979H216.731L192.853 105.256L204.13 128.49L182.898 114.11V121.834L218.242 145.194L202.744 108.333L227.44 87.7979H246.405L222.527 105.256L233.804 128.49L212.573 114.11V121.834L247.916 145.194L232.355 108.333L257.052 87.7979H276.457L252.641 105.256L263.856 128.49L242.687 114.11V121.834H242.688Z" fill="#023F88"/>
<path d="M172.503 77.1848C166.706 74.7985 158.516 72.4121 148.75 72.4121C139.741 72.4121 129.346 74.4843 118.635 80.5133C106.602 87.1697 97.0885 89.4934 89.7171 89.4934C85.1182 89.4934 81.3377 88.6137 78.1878 87.2956C74.2186 85.7255 70.7532 83.2138 67.9813 80.0739C67.099 79.0694 66.3432 78.0646 65.6503 76.9969C65.3983 76.6195 65.2094 76.3059 65.1465 76.1171C65.0834 75.9921 65.0205 75.9291 65.0205 75.9291V75.8662L64.8314 75.9918L62.4375 83.2762C63.6347 84.7204 64.9574 86.039 66.3435 87.295C69.1157 89.7438 72.3285 91.6909 75.7939 93.1352C79.6373 94.705 84.2993 95.7098 89.7174 95.7098C98.4118 95.7098 108.996 93.0722 121.723 85.9758C131.488 80.5127 140.687 78.7541 148.751 78.6914C157.445 78.6914 164.88 80.8266 170.172 82.9618C172.251 83.8415 174.267 84.846 176.22 85.9137C176.598 86.1017 176.914 86.2902 177.165 86.4788L178.866 80.1992C176.787 79.0691 174.708 78.0643 172.503 77.1848Z" fill="#C4122F"/>
<path d="M65.0209 75.8672L64.8311 75.9928L65.0209 75.8672Z" fill="#5C5E62"/>
<path d="M64.8313 75.9926V75.9297L64.1387 76.3065L64.8313 75.9926Z" fill="white"/>
<path d="M167.274 98.4111C161.478 96.0245 153.287 93.6387 143.522 93.6387C134.513 93.6387 124.117 95.7109 113.407 101.676C101.373 108.396 91.8597 110.656 84.4886 110.656C79.8894 110.656 76.1092 109.777 72.9592 108.521C68.9901 106.889 65.5247 104.44 62.7528 101.237C61.8705 100.295 61.1147 99.2903 60.4218 98.2226C60.1698 97.8461 59.9806 97.5316 59.9177 97.3437C59.8546 97.2181 59.7917 97.1551 59.7917 97.1551L59.7286 97.0922L59.6029 97.1551L57.209 104.44C58.4059 105.946 59.7286 107.266 61.115 108.521C63.95 110.971 67.1 112.917 70.5654 114.299C74.4088 115.931 79.0705 116.936 84.4889 116.936C93.1832 116.936 103.768 114.299 116.494 107.14C126.26 101.739 135.458 99.9186 143.523 99.9186C152.217 99.9186 159.651 102.054 164.943 104.189C167.023 105.068 169.039 106.01 170.992 107.14C171.37 107.329 171.685 107.517 171.937 107.642L173.638 101.363C171.558 100.295 169.479 99.29 167.274 98.4111Z" fill="#C4122F"/>
<path d="M59.6021 97.1543L58.9092 97.5308L59.6021 97.1543Z" fill="white"/>
<path d="M162.297 119.322C156.5 116.935 148.247 114.549 138.481 114.549C129.472 114.549 119.14 116.621 108.429 122.649C96.3957 129.306 86.8825 131.566 79.5111 131.566C74.8488 131.566 71.0685 130.75 67.9186 129.431C64.0126 127.861 60.4843 125.35 57.7121 122.21C56.8932 121.205 56.074 120.2 55.3811 119.132C55.1291 118.756 55.0031 118.441 54.8773 118.254C54.8142 118.128 54.7513 118.065 54.7513 118.065V118.002L54.5625 118.065V118.128L52.2314 125.412C53.3652 126.857 54.6888 128.175 56.1374 129.431C58.9096 131.88 62.0599 133.827 65.5247 135.208C69.4307 136.841 74.0301 137.846 79.4482 137.846C88.1426 137.846 98.727 135.208 111.517 128.113C121.219 122.649 130.417 120.828 138.482 120.828C147.176 120.828 154.673 122.963 159.903 125.099C161.982 125.978 163.998 126.92 166.014 128.05C166.329 128.238 166.644 128.427 166.896 128.552L168.597 122.335C166.518 121.205 164.438 120.2 162.297 119.322Z" fill="#C4122F"/>
<path d="M54.5627 118.13V118.066L53.9326 118.443L54.5627 118.13Z" fill="white"/>
<path d="M61.7439 174.27H57.3968V161.271H53.8057V157.629H65.3351V161.271H61.7439V174.27Z" fill="#C4122F"/>
<path d="M98.3485 164.85H98.7896C100.239 164.85 101.814 164.599 101.814 162.777C101.814 160.957 100.239 160.705 98.7896 160.705H98.3485M107.925 174.019H102.506L98.4116 167.613H98.3485V174.019H94.0645V157.377H100.553C103.83 157.377 106.35 158.947 106.35 162.527C106.35 164.788 105.027 166.797 102.696 167.236L107.925 174.019Z" fill="#C4122F"/>
<path d="M137.032 157.377H132.686V174.081H137.032V157.377Z" fill="#C4122F"/>
<path d="M176.031 162.778C175.149 161.586 173.7 160.894 172.251 160.958C169.542 160.958 167.778 162.967 167.778 165.542C167.778 168.179 169.605 170.063 172.314 170.063C173.763 170.063 175.086 169.435 176.031 168.305V173.517C174.582 173.956 173.574 174.271 172.188 174.271C169.857 174.271 167.652 173.391 165.95 171.821C164.123 170.189 163.241 167.991 163.241 165.542C163.241 163.281 164.124 161.083 165.699 159.45C167.4 157.755 169.668 156.75 172.062 156.75C173.448 156.75 174.771 157.064 176.031 157.567" fill="#C4122F"/>
<path d="M211.249 162.778H211.187L209.423 168.053H213.014M208.226 171.381L207.091 174.27H202.43L208.856 157.629H213.644L219.944 174.27H215.283L214.211 171.381H208.226Z" fill="#C4122F"/>
<path d="M249.869 164.85H250.311C251.697 164.85 253.335 164.599 253.335 162.777C253.335 160.957 251.697 160.705 250.311 160.705H249.869M259.446 174.019H254.027L249.933 167.613H249.869V174.019H245.522V157.377H252.011C255.35 157.377 257.808 158.947 257.808 162.527C257.808 164.788 256.548 166.797 254.153 167.236L259.446 174.019Z" fill="#C4122F"/>
<path d="M290.066 161.082V163.845H294.98V167.488H290.066V170.376H295.232V174.019H285.718V157.377H295.232V161.082H290.066Z" fill="#C4122F"/>
<mask id="mask0_1162_1078" style="mask-type:luminance" maskUnits="userSpaceOnUse" x="299" y="157" width="9" height="9">
<path d="M307.769 157.189H299.012V165.919H307.769V157.189Z" fill="white"/>
</mask>
<g mask="url(#mask0_1162_1078)">
<path d="M302.352 161.208H303.234C303.675 161.208 303.99 161.146 304.116 161.02C304.368 160.832 304.431 160.455 304.242 160.204C304.178 160.078 304.052 159.952 303.927 159.952C303.737 159.89 303.485 159.827 303.234 159.827H302.352M301.595 163.783V159.262H303.17C303.611 159.2 303.989 159.262 304.367 159.387C304.619 159.451 304.809 159.576 304.935 159.827C305.06 160.016 305.123 160.204 305.123 160.455C305.123 160.769 304.997 161.083 304.809 161.334C304.556 161.586 304.178 161.712 303.801 161.775C303.989 161.837 304.115 161.899 304.241 162.025C304.494 162.277 304.683 162.59 304.871 162.905L305.438 163.784H304.556L304.115 163.092C303.801 162.528 303.549 162.15 303.36 162.025C303.17 161.899 302.982 161.837 302.793 161.837H302.352V163.783L301.595 163.783ZM303.485 157.88C302.855 157.88 302.288 158.069 301.721 158.382C301.154 158.634 300.713 159.136 300.398 159.701C299.769 160.769 299.769 162.087 300.398 163.218C300.713 163.783 301.154 164.223 301.721 164.536C302.793 165.164 304.178 165.164 305.25 164.536C305.817 164.223 306.258 163.783 306.572 163.218C307.202 162.15 307.202 160.769 306.572 159.701C306.258 159.136 305.817 158.697 305.25 158.382C304.683 158.069 304.115 157.943 303.485 157.943V157.88ZM303.485 157.189C304.241 157.189 304.935 157.378 305.564 157.755C306.258 158.132 306.825 158.634 307.202 159.325C307.896 160.644 307.896 162.213 307.202 163.532C306.825 164.223 306.258 164.789 305.627 165.102C304.304 165.855 302.667 165.855 301.344 165.102C300.713 164.789 300.146 164.223 299.769 163.532C299.012 162.214 299.012 160.644 299.769 159.325C300.146 158.634 300.713 158.132 301.406 157.755C302.036 157.378 302.729 157.189 303.485 157.189Z" fill="#C4122F"/>
</g>
</g>
<defs>
<clipPath id="clip0_1162_1078">
<rect width="256" height="129" fill="white" transform="translate(52 46)"/>
</clipPath>
</defs>
</svg>
