<svg width="360" height="221" viewBox="0 0 360 221" fill="none" xmlns="http://www.w3.org/2000/svg">
<rect width="360" height="221" fill="white"/>
<g clip-path="url(#clip0_1162_1069)">
<path d="M133.849 138.275H127.356L118.267 116.908H125.316L129.212 126.548C129.768 127.993 130.325 129.761 130.881 131.367H131.067C131.438 129.921 131.994 128.315 132.551 126.869L136.446 117.069H143.31L133.849 138.275Z" fill="#164194"/>
<path d="M157.78 128.796C151.102 128.796 149.618 130.403 149.618 132.17C149.618 133.616 150.731 134.419 152.586 134.419C155.74 134.419 157.78 131.849 157.78 129.278V128.796ZM158.337 138.275C158.337 136.99 158.337 135.704 158.522 134.58C157.409 136.99 154.256 138.757 150.545 138.757C146.093 138.757 143.496 136.508 143.496 133.134C143.496 127.993 149.432 125.262 157.78 125.262V124.137C157.78 121.888 156.482 120.763 152.957 120.763C150.731 120.763 147.763 121.406 145.722 122.37L145.166 117.711C147.577 116.908 150.916 116.426 154.07 116.426C162.047 116.426 164.273 119.157 164.273 123.816V132.813C164.273 134.58 164.273 136.508 164.458 138.275H158.337Z" fill="#164194"/>
<path d="M183.38 138.275V124.619C183.38 122.37 182.638 121.085 180.411 121.085C177.258 121.085 174.661 124.298 174.661 127.993V138.275H168.354V116.908H174.29C174.29 117.872 174.104 119.639 173.919 120.763C175.403 118.193 178.371 116.426 182.267 116.426C187.832 116.426 189.687 119.478 189.687 123.334V138.436H183.38" fill="#164194"/>
<path d="M233.838 121.888C229.2 121.084 226.974 123.655 226.974 129.599V138.275H220.667V116.907H226.603C226.603 118.032 226.418 119.638 226.232 121.245C227.345 118.514 229.757 116.104 234.024 116.425L233.838 121.888Z" fill="#164194"/>
<path d="M246.082 120.442C243.484 120.442 241.629 122.048 241.258 124.779H250.348C250.534 122.048 248.864 120.442 246.082 120.442ZM256.47 128.474H241.073C241.073 132.491 243.299 134.419 247.937 134.419C250.348 134.419 252.945 133.937 255.171 133.133L255.728 137.471C253.131 138.435 249.977 138.917 246.824 138.917C239.032 138.917 234.58 135.543 234.58 127.992C234.58 121.406 238.847 116.586 246.267 116.586C253.502 116.586 256.655 120.924 256.655 126.225C256.655 126.707 256.655 127.511 256.47 128.474Z" fill="#164194"/>
<path d="M204.527 134.419C203.043 134.419 202.116 134.258 201.188 134.097V127.992C201.188 124.458 203.229 121.084 206.568 121.084C209.536 121.084 210.834 123.173 210.834 127.189C210.649 132.33 208.052 134.419 204.527 134.419ZM208.237 116.425C204.713 116.425 201.93 117.871 200.817 120.281C201.003 119.156 201.188 117.389 201.188 116.104V102.77L194.695 106.786V137.632C197.478 138.274 200.261 138.596 203.971 138.596C212.504 138.596 217.327 133.615 217.327 126.386C217.327 120.12 214.174 116.425 208.237 116.425Z" fill="#164194"/>
<path d="M274.834 127.189C274.834 130.884 272.794 134.258 269.455 134.258C266.487 134.258 265.188 132.17 265.188 128.153C265.188 122.851 267.785 120.924 271.495 120.924C272.608 120.924 273.721 121.084 274.834 121.245V127.189ZM274.834 116.747C273.721 116.586 272.794 116.586 271.681 116.586C263.518 116.586 258.51 121.566 258.51 128.796C258.51 134.901 261.478 138.917 267.6 138.917C271.31 138.917 274.092 137.311 275.391 134.901H275.576C275.391 136.025 275.205 137.471 275.205 138.435H281.142V102.77L274.834 106.786V116.747Z" fill="#164194"/>
<path d="M298.58 128.796C291.902 128.796 290.418 130.403 290.418 132.17C290.418 133.616 291.531 134.419 293.386 134.419C296.539 134.419 298.58 131.849 298.58 129.278V128.796ZM299.136 138.275C299.136 136.99 299.136 135.704 299.322 134.58C298.209 136.99 295.055 138.757 291.345 138.757C286.893 138.757 284.296 136.508 284.296 133.134C284.296 127.993 290.232 125.262 298.58 125.262V124.137C298.58 121.888 297.281 120.763 293.757 120.763C291.531 120.763 288.563 121.406 286.522 122.37L285.965 117.711C288.377 116.908 291.716 116.426 294.87 116.426C302.847 116.426 305.073 119.157 305.073 123.816V132.813C305.073 134.58 305.073 136.508 305.258 138.275H299.136Z" fill="#164194"/>
<path d="M104.91 126.066L50.7422 91.6859V80.2793L104.91 114.66V126.066Z" fill="#B2B2B2"/>
<path d="M159.078 72.4066L104.91 106.787V95.3803L159.078 61V72.4066Z" fill="#164194"/>
<path d="M124.759 150.967C125.13 150.967 131.252 150.967 131.252 150.967C133.478 150.967 133.664 151.288 133.664 152.091V152.895C133.664 153.537 133.293 154.019 131.438 154.019C131.438 154.019 124.945 154.019 124.574 154.019C124.759 153.698 124.759 151.288 124.759 150.967ZM131.809 149.682H122.904V158.839H124.759C124.759 158.839 124.759 155.626 124.759 155.305C125.13 155.305 131.809 155.305 131.809 155.305C133.293 155.305 133.849 155.465 133.849 156.75V158.839H135.519V156.429C135.519 155.626 135.148 155.144 134.22 154.823C134.962 154.662 135.704 154.18 135.704 153.055V152.252C135.704 150.485 135.148 149.682 131.809 149.682Z" fill="#B2B2B2"/>
<path d="M140.528 149.682H138.673V158.839H140.528V149.682Z" fill="#B2B2B2"/>
<path d="M152.215 153.538H147.948C145.722 153.538 145.351 153.217 145.351 152.253C145.351 150.967 146.093 150.807 149.061 150.807H150.545C154.441 150.807 154.441 151.128 154.441 152.253V152.413H156.111V151.931C156.111 150.164 154.812 149.521 151.287 149.521H148.319C145.351 149.521 143.682 150.003 143.682 152.092C143.682 154.662 145.351 154.823 149.803 154.823H152.586C154.441 154.823 154.812 155.144 154.812 156.108C154.812 157.233 154.441 157.554 152.215 157.554H147.577C145.722 157.554 145.351 157.072 145.351 156.43V155.787H143.682V156.59C143.682 158.679 145.722 159 147.948 159H152.029C153.699 159 156.482 159 156.482 156.43V155.787C156.482 154.181 154.998 153.538 152.215 153.538Z" fill="#B2B2B2"/>
<path d="M300.806 153.538H296.539C294.313 153.538 293.942 153.217 293.942 152.253C293.942 150.967 294.684 150.807 297.652 150.807H299.136C303.032 150.807 303.032 151.128 303.032 152.253V152.413H304.701V151.931C304.701 150.164 303.403 149.521 299.878 149.521H296.725C293.756 149.521 292.087 150.003 292.087 152.092C292.087 154.662 293.756 154.823 298.209 154.823H300.991C302.846 154.823 303.217 155.144 303.217 156.108C303.217 157.233 302.846 157.554 300.62 157.554H295.983C294.128 157.554 293.756 157.072 293.756 156.43V155.787H292.087V156.59C292.087 158.679 294.127 159 296.354 159H300.435C302.104 159 304.887 159 304.887 156.43V155.787C304.887 154.181 303.588 153.538 300.806 153.538Z" fill="#B2B2B2"/>
<path d="M164.643 154.019C165.014 153.698 172.62 149.682 172.62 149.682H171.878H169.467C169.467 149.682 162.788 153.377 162.603 153.377C162.603 153.377 161.304 153.377 160.933 153.377C160.933 153.055 160.933 149.682 160.933 149.682H159.078V158.839H160.933C160.933 158.839 160.933 154.983 160.933 154.662C161.304 154.662 162.417 154.662 162.417 154.662L169.838 158.839H173.177L172.62 158.518C172.806 158.518 165.2 154.341 164.643 154.019Z" fill="#B2B2B2"/>
<path d="M179.67 155.466C179.67 154.181 180.968 154.02 181.339 154.02H181.71C181.71 154.02 188.759 157.072 189.13 157.233C188.945 157.394 188.203 157.554 187.09 157.554H182.081C179.855 157.554 179.855 156.912 179.855 156.108V155.466M191.357 156.108V154.181H189.687C189.687 154.181 189.687 155.626 189.687 156.108C189.13 155.787 181.525 152.574 181.525 152.574C181.154 152.413 181.154 152.253 181.154 151.61C181.154 151.128 181.154 150.807 182.452 150.807H187.275C188.203 150.807 188.574 151.128 188.574 151.771V152.574H190.243V151.61C190.243 150.164 189.316 149.521 187.275 149.521H181.896C180.226 149.521 179.299 150.164 179.299 151.449C179.299 152.574 179.484 152.895 180.226 153.217C178.371 153.377 178 154.341 178 155.787C178 158.036 179.113 158.84 182.081 158.84H187.275C188.759 158.84 190.058 158.679 190.986 157.876C191.171 158.036 193.026 158.679 193.026 158.679L193.768 157.554C193.768 157.554 191.728 156.751 191.542 156.59C191.357 156.59 191.357 156.108 191.357 156.108Z" fill="#B2B2B2"/>
<path d="M201.745 154.823C202.116 154.823 209.165 154.823 209.165 154.823C210.464 154.823 211.02 154.984 211.02 155.948V156.59C211.02 157.072 210.835 157.554 209.35 157.554C209.35 157.554 202.116 157.554 201.745 157.554C201.745 157.233 201.745 154.984 201.745 154.823ZM210.464 152.574C210.464 152.735 210.464 153.538 208.979 153.538C208.979 153.538 201.93 153.538 201.559 153.538C201.559 153.217 201.559 151.289 201.559 150.967C201.93 150.967 208.979 150.967 208.979 150.967C209.165 150.967 210.278 150.967 210.278 151.771V152.574H210.464ZM211.206 153.859C211.948 153.538 212.319 153.056 212.319 152.413V151.61C212.319 150.807 211.948 149.521 209.165 149.521H199.704V158.679H209.536C211.577 158.679 212.875 157.876 212.875 156.59V155.787C212.69 154.662 212.319 154.181 211.206 153.859Z" fill="#B2B2B2"/>
<path d="M217.513 154.823C217.884 154.823 226.418 154.823 226.418 154.823V153.537C226.418 153.537 217.884 153.537 217.513 153.537C217.513 153.216 217.513 151.288 217.513 150.967C217.884 150.967 226.789 150.967 226.789 150.967V149.682H215.844V158.839H226.974V157.554C226.974 157.554 218.07 157.554 217.699 157.554C217.513 157.232 217.513 154.983 217.513 154.823Z" fill="#B2B2B2"/>
<path d="M241.444 149.682C241.444 149.682 241.444 156.59 241.444 157.232C240.887 156.75 231.797 149.682 231.797 149.682H229.386V158.839H231.241C231.241 158.839 231.241 151.931 231.241 151.288C231.797 151.77 240.887 158.839 240.887 158.839H243.299V149.682H241.444Z" fill="#B2B2B2"/>
<path d="M248.307 154.823C248.678 154.823 257.212 154.823 257.212 154.823V153.537C257.212 153.537 248.678 153.537 248.307 153.537C248.307 153.216 248.307 151.288 248.307 150.967C248.678 150.967 257.583 150.967 257.583 150.967V149.682H246.638V158.839H257.768V157.554C257.768 157.554 248.864 157.554 248.493 157.554C248.307 157.232 248.307 154.983 248.307 154.823Z" fill="#B2B2B2"/>
<path d="M260.18 149.682V158.839H262.035C262.035 158.839 262.035 154.983 262.035 154.823C262.406 154.823 270.568 154.823 270.568 154.823V153.537C270.568 153.537 262.406 153.537 262.035 153.537C262.035 153.216 262.035 151.288 262.035 150.967C262.406 150.967 270.939 150.967 270.939 150.967V149.682H260.18Z" fill="#B2B2B2"/>
<path d="M275.391 149.682H273.536V158.839H275.391V149.682Z" fill="#B2B2B2"/>
<path d="M290.232 149.682H277.617V150.967C277.617 150.967 282.811 150.967 283.182 150.967C283.182 151.288 283.182 158.839 283.182 158.839H285.037C285.037 158.839 285.037 151.288 285.037 150.967C285.408 150.967 290.603 150.967 290.603 150.967L290.232 149.682Z" fill="#B2B2B2"/>
</g>
<defs>
<clipPath id="clip0_1162_1069">
<rect width="256" height="98" fill="white" transform="translate(50 61)"/>
</clipPath>
</defs>
</svg>
