<svg width="349" height="220" viewBox="0 0 349 220" fill="none" xmlns="http://www.w3.org/2000/svg">
<path d="M41.0075 197.198H1V1H348V197.198H66.31H65.31V198.198V217.818L41.6603 197.441L41.3789 197.198H41.0075Z" fill="white" stroke="#B6B7BA" stroke-width="2"/>
<path d="M14.5025 72.7656V62.5838H18.0621C18.7714 62.5838 19.3564 62.7064 19.8171 62.9517C20.2778 63.1937 20.6209 63.5201 20.8462 63.9311C21.0716 64.3388 21.1843 64.7912 21.1843 65.2884C21.1843 65.7259 21.1064 66.0871 20.9506 66.3722C20.7982 66.6572 20.596 66.8826 20.3441 67.0483C20.0955 67.214 19.8254 67.3366 19.5337 67.4162V67.5156C19.8453 67.5355 20.1585 67.6449 20.4734 67.8438C20.7882 68.0426 21.0517 68.3277 21.2638 68.6989C21.476 69.0701 21.582 69.5241 21.582 70.0611C21.582 70.5715 21.466 71.0305 21.234 71.4382C21.002 71.8459 20.6358 72.169 20.1353 72.4077C19.6348 72.6463 18.9835 72.7656 18.1815 72.7656H14.5025ZM15.7354 71.6719H18.1815C18.9869 71.6719 19.5586 71.5161 19.8967 71.2045C20.238 70.8897 20.4087 70.5085 20.4087 70.0611C20.4087 69.7164 20.3209 69.3982 20.1452 69.1065C19.9696 68.8116 19.7193 68.5762 19.3945 68.4006C19.0697 68.2216 18.6853 68.1321 18.2411 68.1321H15.7354V71.6719ZM15.7354 67.0582H18.0224C18.3936 67.0582 18.7283 66.9853 19.0266 66.8395C19.3282 66.6937 19.5669 66.4882 19.7425 66.223C19.9215 65.9579 20.011 65.6463 20.011 65.2884C20.011 64.8409 19.8552 64.4614 19.5437 64.1499C19.2321 63.835 18.7383 63.6776 18.0621 63.6776H15.7354V67.0582ZM26.5511 72.9247C25.8617 72.9247 25.2569 72.7607 24.7365 72.4325C24.2195 72.1044 23.8151 71.6454 23.5234 71.0554C23.2351 70.4654 23.0909 69.776 23.0909 68.9872C23.0909 68.1918 23.2351 67.4974 23.5234 66.9041C23.8151 66.3108 24.2195 65.8501 24.7365 65.522C25.2569 65.1939 25.8617 65.0298 26.5511 65.0298C27.2405 65.0298 27.8438 65.1939 28.3608 65.522C28.8812 65.8501 29.2855 66.3108 29.5739 66.9041C29.8655 67.4974 30.0114 68.1918 30.0114 68.9872C30.0114 69.776 29.8655 70.4654 29.5739 71.0554C29.2855 71.6454 28.8812 72.1044 28.3608 72.4325C27.8438 72.7607 27.2405 72.9247 26.5511 72.9247ZM26.5511 71.8707C27.0748 71.8707 27.5057 71.7365 27.8438 71.468C28.1818 71.1996 28.4321 70.8466 28.5945 70.4091C28.7569 69.9716 28.8381 69.4976 28.8381 68.9872C28.8381 68.4768 28.7569 68.0012 28.5945 67.5604C28.4321 67.1196 28.1818 66.7633 27.8438 66.4915C27.5057 66.2197 27.0748 66.0838 26.5511 66.0838C26.0275 66.0838 25.5966 66.2197 25.2585 66.4915C24.9205 66.7633 24.6702 67.1196 24.5078 67.5604C24.3454 68.0012 24.2642 68.4768 24.2642 68.9872C24.2642 69.4976 24.3454 69.9716 24.5078 70.4091C24.6702 70.8466 24.9205 71.1996 25.2585 71.468C25.5966 71.7365 26.0275 71.8707 26.5511 71.8707ZM35.1234 65.1293V66.1236H31.166V65.1293H35.1234ZM32.3194 63.2997H33.4927V70.5781C33.4927 70.9096 33.5408 71.1581 33.6369 71.3239C33.7363 71.4863 33.8623 71.5956 34.0147 71.652C34.1705 71.705 34.3346 71.7315 34.5069 71.7315C34.6362 71.7315 34.7422 71.7249 34.8251 71.7116C34.908 71.6951 34.9743 71.6818 35.024 71.6719L35.2626 72.7259C35.1831 72.7557 35.072 72.7855 34.9295 72.8153C34.787 72.8485 34.6064 72.8651 34.3876 72.8651C34.0562 72.8651 33.7314 72.7938 33.4132 72.6513C33.0983 72.5088 32.8365 72.2917 32.6277 72C32.4222 71.7083 32.3194 71.3404 32.3194 70.8963V63.2997ZM38.2257 68.1719V72.7656H37.0524V62.5838H38.2257V66.3224H38.3251C38.5041 65.928 38.7725 65.6148 39.1305 65.3828C39.4918 65.1475 39.9724 65.0298 40.5723 65.0298C41.0926 65.0298 41.5484 65.1342 41.9395 65.343C42.3306 65.5485 42.6338 65.8651 42.8493 66.2926C43.068 66.7169 43.1774 67.2571 43.1774 67.9134V72.7656H42.0041V67.9929C42.0041 67.3864 41.8467 66.9174 41.5318 66.5859C41.2202 66.2512 40.7877 66.0838 40.2342 66.0838C39.8497 66.0838 39.505 66.165 39.2001 66.3274C38.8985 66.4898 38.6599 66.7268 38.4842 67.0384C38.3118 67.3499 38.2257 67.7277 38.2257 68.1719ZM52.1449 72.9247C51.5085 72.9247 50.9467 72.764 50.4595 72.4425C49.9723 72.1177 49.5911 71.6603 49.3161 71.0703C49.041 70.477 48.9034 69.776 48.9034 68.9673C48.9034 68.1652 49.041 67.4692 49.3161 66.8793C49.5911 66.2893 49.974 65.8336 50.4645 65.5121C50.955 65.1906 51.5218 65.0298 52.1648 65.0298C52.6619 65.0298 53.0547 65.1127 53.343 65.2784C53.6347 65.4408 53.8568 65.6264 54.0092 65.8352C54.165 66.0407 54.286 66.2098 54.3722 66.3423H54.4716V62.5838H55.6449V72.7656H54.5114V71.5923H54.3722C54.286 71.7315 54.1634 71.9072 54.0043 72.1193C53.8452 72.3281 53.6181 72.5154 53.3232 72.6811C53.0282 72.8435 52.6354 72.9247 52.1449 72.9247ZM52.304 71.8707C52.7746 71.8707 53.1723 71.7481 53.4972 71.5028C53.822 71.2543 54.0689 70.9112 54.2379 70.4737C54.407 70.0329 54.4915 69.5241 54.4915 68.9474C54.4915 68.3774 54.4086 67.8786 54.2429 67.451C54.0772 67.0201 53.8319 66.6854 53.5071 66.4467C53.1823 66.2048 52.7813 66.0838 52.304 66.0838C51.8068 66.0838 51.3925 66.2114 51.0611 66.4666C50.733 66.7185 50.486 67.0616 50.3203 67.4957C50.1579 67.9266 50.0767 68.4105 50.0767 68.9474C50.0767 69.491 50.1596 69.9848 50.3253 70.429C50.4943 70.8698 50.7429 71.2211 51.071 71.483C51.4025 71.7415 51.8134 71.8707 52.304 71.8707ZM61.0589 72.9247C60.3696 72.9247 59.7647 72.7607 59.2443 72.4325C58.7273 72.1044 58.3229 71.6454 58.0312 71.0554C57.7429 70.4654 57.5987 69.776 57.5987 68.9872C57.5987 68.1918 57.7429 67.4974 58.0312 66.9041C58.3229 66.3108 58.7273 65.8501 59.2443 65.522C59.7647 65.1939 60.3696 65.0298 61.0589 65.0298C61.7483 65.0298 62.3516 65.1939 62.8686 65.522C63.389 65.8501 63.7933 66.3108 64.0817 66.9041C64.3733 67.4974 64.5192 68.1918 64.5192 68.9872C64.5192 69.776 64.3733 70.4654 64.0817 71.0554C63.7933 71.6454 63.389 72.1044 62.8686 72.4325C62.3516 72.7607 61.7483 72.9247 61.0589 72.9247ZM61.0589 71.8707C61.5826 71.8707 62.0135 71.7365 62.3516 71.468C62.6896 71.1996 62.9399 70.8466 63.1023 70.4091C63.2647 69.9716 63.3459 69.4976 63.3459 68.9872C63.3459 68.4768 63.2647 68.0012 63.1023 67.5604C62.9399 67.1196 62.6896 66.7633 62.3516 66.4915C62.0135 66.2197 61.5826 66.0838 61.0589 66.0838C60.5353 66.0838 60.1044 66.2197 59.7663 66.4915C59.4283 66.7633 59.178 67.1196 59.0156 67.5604C58.8532 68.0012 58.772 68.4768 58.772 68.9872C58.772 69.4976 58.8532 69.9716 59.0156 70.4091C59.178 70.8466 59.4283 71.1996 59.7663 71.468C60.1044 71.7365 60.5353 71.8707 61.0589 71.8707ZM69.4125 72.9247C68.6966 72.9247 68.0801 72.7557 67.563 72.4176C67.046 72.0795 66.6483 71.6139 66.3699 71.0206C66.0914 70.4273 65.9522 69.7495 65.9522 68.9872C65.9522 68.2116 66.0948 67.5272 66.3798 66.9339C66.6681 66.3374 67.0692 65.8717 67.5829 65.5369C68.1 65.1989 68.7032 65.0298 69.3926 65.0298C69.9295 65.0298 70.4134 65.1293 70.8443 65.3281C71.2752 65.527 71.6281 65.8054 71.9032 66.1634C72.1783 66.5213 72.349 66.9389 72.4153 67.4162H71.242C71.1525 67.0682 70.9537 66.7599 70.6454 66.4915C70.3405 66.2197 69.9295 66.0838 69.4125 66.0838C68.9551 66.0838 68.554 66.2031 68.2093 66.4418C67.868 66.6771 67.6011 67.0102 67.4089 67.4411C67.22 67.8686 67.1255 68.3707 67.1255 68.9474C67.1255 69.5374 67.2183 70.0511 67.4039 70.4886C67.5929 70.9261 67.858 71.2659 68.1994 71.5078C68.5441 71.7498 68.9484 71.8707 69.4125 71.8707C69.7174 71.8707 69.9941 71.8177 70.2427 71.7116C70.4913 71.6056 70.7018 71.4531 70.8741 71.2543C71.0465 71.0554 71.1691 70.8168 71.242 70.5384H72.4153C72.349 70.9891 72.185 71.3951 71.9231 71.7564C71.6646 72.1143 71.3216 72.3994 70.894 72.6115C70.4698 72.8203 69.9759 72.9247 69.4125 72.9247ZM77.4515 65.1293V66.1236H73.4941V65.1293H77.4515ZM74.6475 63.2997H75.8208V70.5781C75.8208 70.9096 75.8689 71.1581 75.965 71.3239C76.0645 71.4863 76.1904 71.5956 76.3429 71.652C76.4986 71.705 76.6627 71.7315 76.835 71.7315C76.9643 71.7315 77.0704 71.7249 77.1532 71.7116C77.2361 71.6951 77.3024 71.6818 77.3521 71.6719L77.5907 72.7259C77.5112 72.7557 77.4002 72.7855 77.2576 72.8153C77.1151 72.8485 76.9345 72.8651 76.7157 72.8651C76.3843 72.8651 76.0595 72.7938 75.7413 72.6513C75.4264 72.5088 75.1646 72.2917 74.9558 72C74.7503 71.7083 74.6475 71.3404 74.6475 70.8963V63.2997ZM82.2367 72.9247C81.5473 72.9247 80.9424 72.7607 80.4221 72.4325C79.905 72.1044 79.5007 71.6454 79.209 71.0554C78.9206 70.4654 78.7765 69.776 78.7765 68.9872C78.7765 68.1918 78.9206 67.4974 79.209 66.9041C79.5007 66.3108 79.905 65.8501 80.4221 65.522C80.9424 65.1939 81.5473 65.0298 82.2367 65.0298C82.9261 65.0298 83.5293 65.1939 84.0463 65.522C84.5667 65.8501 84.9711 66.3108 85.2594 66.9041C85.5511 67.4974 85.6969 68.1918 85.6969 68.9872C85.6969 69.776 85.5511 70.4654 85.2594 71.0554C84.9711 71.6454 84.5667 72.1044 84.0463 72.4325C83.5293 72.7607 82.9261 72.9247 82.2367 72.9247ZM82.2367 71.8707C82.7604 71.8707 83.1912 71.7365 83.5293 71.468C83.8674 71.1996 84.1176 70.8466 84.28 70.4091C84.4424 69.9716 84.5236 69.4976 84.5236 68.9872C84.5236 68.4768 84.4424 68.0012 84.28 67.5604C84.1176 67.1196 83.8674 66.7633 83.5293 66.4915C83.1912 66.2197 82.7604 66.0838 82.2367 66.0838C81.713 66.0838 81.2821 66.2197 80.9441 66.4915C80.606 66.7633 80.3558 67.1196 80.1934 67.5604C80.031 68.0012 79.9498 68.4768 79.9498 68.9872C79.9498 69.4976 80.031 69.9716 80.1934 70.4091C80.3558 70.8466 80.606 71.1996 80.9441 71.468C81.2821 71.7365 81.713 71.8707 82.2367 71.8707ZM87.4879 72.7656V65.1293H88.6214V66.2827H88.701C88.8402 65.9048 89.0921 65.5982 89.4567 65.3629C89.8213 65.1276 90.2322 65.0099 90.6896 65.0099C90.7758 65.0099 90.8835 65.0116 91.0128 65.0149C91.142 65.0182 91.2398 65.0232 91.3061 65.0298V66.223C91.2663 66.2131 91.1752 66.1982 91.0327 66.1783C90.8935 66.1551 90.746 66.1435 90.5902 66.1435C90.219 66.1435 89.8875 66.2214 89.5959 66.3771C89.3075 66.5296 89.0788 66.7417 88.9098 67.0135C88.7441 67.282 88.6612 67.5885 88.6612 67.9332V72.7656H87.4879ZM98.106 66.8395L97.052 67.1378C96.9857 66.9621 96.888 66.7914 96.7587 66.6257C96.6328 66.4567 96.4604 66.3175 96.2417 66.2081C96.0229 66.0987 95.7428 66.044 95.4015 66.044C94.9341 66.044 94.5447 66.1518 94.2331 66.3672C93.9249 66.5793 93.7708 66.8494 93.7708 67.1776C93.7708 67.4692 93.8768 67.6996 94.089 67.8686C94.3011 68.0376 94.6325 68.1785 95.0833 68.2912L96.2168 68.5696C96.8996 68.7353 97.4083 68.9889 97.7431 69.3303C98.0778 69.6683 98.2452 70.1042 98.2452 70.6378C98.2452 71.0753 98.1193 71.4664 97.8674 71.8111C97.6188 72.1558 97.2708 72.4276 96.8233 72.6264C96.3759 72.8253 95.8555 72.9247 95.2623 72.9247C94.4834 72.9247 93.8387 72.7557 93.3283 72.4176C92.8179 72.0795 92.4947 71.5857 92.3588 70.9361L93.4725 70.6577C93.5785 71.0687 93.7791 71.3769 94.074 71.5824C94.3723 71.7879 94.7618 71.8906 95.2424 71.8906C95.7892 71.8906 96.2234 71.7746 96.5449 71.5426C96.8697 71.3073 97.0321 71.0256 97.0321 70.6974C97.0321 70.4323 96.9393 70.2102 96.7537 70.0312C96.5681 69.849 96.2831 69.7131 95.8986 69.6236L94.6259 69.3253C93.9266 69.1596 93.4128 68.9027 93.0847 68.5547C92.7599 68.2034 92.5975 67.7642 92.5975 67.2372C92.5975 66.8063 92.7185 66.4252 92.9604 66.0938C93.2057 65.7623 93.5388 65.5021 93.9597 65.3132C94.3839 65.1243 94.8645 65.0298 95.4015 65.0298C96.1571 65.0298 96.7504 65.1955 97.1813 65.527C97.6155 65.8584 97.9237 66.2959 98.106 66.8395ZM106.196 72.9446C105.712 72.9446 105.273 72.8535 104.879 72.6712C104.484 72.4856 104.171 72.2188 103.939 71.8707C103.707 71.5194 103.591 71.0952 103.591 70.598C103.591 70.1605 103.677 69.8059 103.849 69.5341C104.022 69.259 104.252 69.0436 104.54 68.8878C104.829 68.732 105.147 68.616 105.495 68.5398C105.846 68.4602 106.199 68.3973 106.554 68.3509C107.018 68.2912 107.394 68.2464 107.683 68.2166C107.974 68.1835 108.186 68.1288 108.319 68.0526C108.455 67.9763 108.523 67.8437 108.523 67.6548V67.6151C108.523 67.1245 108.388 66.7434 108.12 66.4716C107.855 66.1998 107.452 66.0639 106.912 66.0639C106.352 66.0639 105.913 66.1866 105.594 66.4318C105.276 66.6771 105.053 66.9389 104.923 67.2173L103.81 66.8196C104.009 66.3556 104.274 65.9943 104.605 65.7358C104.94 65.474 105.304 65.2917 105.699 65.1889C106.097 65.0829 106.488 65.0298 106.872 65.0298C107.117 65.0298 107.399 65.0597 107.717 65.1193C108.039 65.1757 108.349 65.2933 108.647 65.4723C108.949 65.6513 109.199 65.9214 109.398 66.2827C109.597 66.6439 109.696 67.1278 109.696 67.7344V72.7656H108.523V71.7315H108.463C108.384 71.8973 108.251 72.0746 108.065 72.2635C107.88 72.4524 107.633 72.6132 107.325 72.7457C107.016 72.8783 106.64 72.9446 106.196 72.9446ZM106.375 71.8906C106.839 71.8906 107.23 71.7995 107.548 71.6172C107.87 71.4349 108.112 71.1996 108.274 70.9112C108.44 70.6229 108.523 70.3196 108.523 70.0014V68.9276C108.473 68.9872 108.364 69.0419 108.195 69.0916C108.029 69.138 107.837 69.1795 107.618 69.2159C107.402 69.2491 107.192 69.2789 106.987 69.3054C106.784 69.3286 106.62 69.3485 106.494 69.3651C106.189 69.4048 105.904 69.4695 105.639 69.5589C105.377 69.6451 105.165 69.776 105.003 69.9517C104.844 70.1241 104.764 70.3594 104.764 70.6577C104.764 71.0653 104.915 71.3736 105.217 71.5824C105.522 71.7879 105.908 71.8906 106.375 71.8906ZM113.011 68.1719V72.7656H111.838V65.1293H112.971V66.3224H113.07C113.249 65.9347 113.521 65.6231 113.886 65.3878C114.25 65.1491 114.721 65.0298 115.298 65.0298C115.815 65.0298 116.267 65.1359 116.655 65.348C117.043 65.5568 117.344 65.875 117.56 66.3026C117.775 66.7268 117.883 67.2637 117.883 67.9134V72.7656H116.71V67.9929C116.71 67.393 116.554 66.9257 116.242 66.5909C115.931 66.2528 115.503 66.0838 114.96 66.0838C114.585 66.0838 114.25 66.165 113.955 66.3274C113.664 66.4898 113.433 66.7268 113.264 67.0384C113.095 67.3499 113.011 67.7277 113.011 68.1719ZM122.911 72.9247C122.274 72.9247 121.712 72.764 121.225 72.4425C120.738 72.1177 120.357 71.6603 120.082 71.0703C119.807 70.477 119.669 69.776 119.669 68.9673C119.669 68.1652 119.807 67.4692 120.082 66.8793C120.357 66.2893 120.74 65.8336 121.23 65.5121C121.721 65.1906 122.287 65.0298 122.93 65.0298C123.428 65.0298 123.82 65.1127 124.109 65.2784C124.4 65.4408 124.622 65.6264 124.775 65.8352C124.931 66.0407 125.052 66.2098 125.138 66.3423H125.237V62.5838H126.411V72.7656H125.277V71.5923H125.138C125.052 71.7315 124.929 71.9072 124.77 72.1193C124.611 72.3281 124.384 72.5154 124.089 72.6811C123.794 72.8435 123.401 72.9247 122.911 72.9247ZM123.07 71.8707C123.54 71.8707 123.938 71.7481 124.263 71.5028C124.588 71.2543 124.835 70.9112 125.004 70.4737C125.173 70.0329 125.257 69.5241 125.257 68.9474C125.257 68.3774 125.174 67.8786 125.009 67.451C124.843 67.0201 124.598 66.6854 124.273 66.4467C123.948 66.2048 123.547 66.0838 123.07 66.0838C122.572 66.0838 122.158 66.2114 121.827 66.4666C121.499 66.7185 121.252 67.0616 121.086 67.4957C120.924 67.9266 120.842 68.4105 120.842 68.9474C120.842 69.491 120.925 69.9848 121.091 70.429C121.26 70.8698 121.509 71.2211 121.837 71.483C122.168 71.7415 122.579 71.8707 123.07 71.8707ZM138.069 66.8395L137.015 67.1378C136.949 66.9621 136.851 66.7914 136.722 66.6257C136.596 66.4567 136.423 66.3175 136.205 66.2081C135.986 66.0987 135.706 66.044 135.364 66.044C134.897 66.044 134.508 66.1518 134.196 66.3672C133.888 66.5793 133.734 66.8494 133.734 67.1776C133.734 67.4692 133.84 67.6996 134.052 67.8686C134.264 68.0376 134.595 68.1785 135.046 68.2912L136.18 68.5696C136.862 68.7353 137.371 68.9889 137.706 69.3303C138.041 69.6683 138.208 70.1042 138.208 70.6378C138.208 71.0753 138.082 71.4664 137.83 71.8111C137.582 72.1558 137.234 72.4276 136.786 72.6264C136.339 72.8253 135.818 72.9247 135.225 72.9247C134.446 72.9247 133.802 72.7557 133.291 72.4176C132.781 72.0795 132.458 71.5857 132.322 70.9361L133.435 70.6577C133.541 71.0687 133.742 71.3769 134.037 71.5824C134.335 71.7879 134.725 71.8906 135.205 71.8906C135.752 71.8906 136.186 71.7746 136.508 71.5426C136.833 71.3073 136.995 71.0256 136.995 70.6974C136.995 70.4323 136.902 70.2102 136.717 70.0312C136.531 69.849 136.246 69.7131 135.862 69.6236L134.589 69.3253C133.889 69.1596 133.376 68.9027 133.048 68.5547C132.723 68.2034 132.56 67.7642 132.56 67.2372C132.56 66.8063 132.681 66.4252 132.923 66.0938C133.169 65.7623 133.502 65.5021 133.923 65.3132C134.347 65.1243 134.827 65.0298 135.364 65.0298C136.12 65.0298 136.713 65.1955 137.144 65.527C137.578 65.8584 137.887 66.2959 138.069 66.8395ZM143.295 65.1293V66.1236H139.338V65.1293H143.295ZM140.491 63.2997H141.665V70.5781C141.665 70.9096 141.713 71.1581 141.809 71.3239C141.908 71.4863 142.034 71.5956 142.187 71.652C142.342 71.705 142.506 71.7315 142.679 71.7315C142.808 71.7315 142.914 71.7249 142.997 71.7116C143.08 71.6951 143.146 71.6818 143.196 71.6719L143.434 72.7259C143.355 72.7557 143.244 72.7855 143.101 72.8153C142.959 72.8485 142.778 72.8651 142.559 72.8651C142.228 72.8651 141.903 72.7938 141.585 72.6513C141.27 72.5088 141.008 72.2917 140.8 72C140.594 71.7083 140.491 71.3404 140.491 70.8963V63.2997ZM147.307 72.9446C146.823 72.9446 146.384 72.8535 145.99 72.6712C145.595 72.4856 145.282 72.2188 145.05 71.8707C144.818 71.5194 144.702 71.0952 144.702 70.598C144.702 70.1605 144.788 69.8059 144.961 69.5341C145.133 69.259 145.363 69.0436 145.652 68.8878C145.94 68.732 146.258 68.616 146.606 68.5398C146.958 68.4602 147.311 68.3973 147.665 68.3509C148.129 68.2912 148.506 68.2464 148.794 68.2166C149.086 68.1835 149.298 68.1288 149.43 68.0526C149.566 67.9763 149.634 67.8437 149.634 67.6548V67.6151C149.634 67.1245 149.5 66.7434 149.231 66.4716C148.966 66.1998 148.564 66.0639 148.023 66.0639C147.463 66.0639 147.024 66.1866 146.706 66.4318C146.388 66.6771 146.164 66.9389 146.035 67.2173L144.921 66.8196C145.12 66.3556 145.385 65.9943 145.716 65.7358C146.051 65.474 146.416 65.2917 146.81 65.1889C147.208 65.0829 147.599 65.0298 147.983 65.0298C148.229 65.0298 148.51 65.0597 148.829 65.1193C149.15 65.1757 149.46 65.2933 149.758 65.4723C150.06 65.6513 150.31 65.9214 150.509 66.2827C150.708 66.6439 150.807 67.1278 150.807 67.7344V72.7656H149.634V71.7315H149.574C149.495 71.8973 149.362 72.0746 149.177 72.2635C148.991 72.4524 148.744 72.6132 148.436 72.7457C148.128 72.8783 147.751 72.9446 147.307 72.9446ZM147.486 71.8906C147.95 71.8906 148.341 71.7995 148.66 71.6172C148.981 71.4349 149.223 71.1996 149.385 70.9112C149.551 70.6229 149.634 70.3196 149.634 70.0014V68.9276C149.584 68.9872 149.475 69.0419 149.306 69.0916C149.14 69.138 148.948 69.1795 148.729 69.2159C148.514 69.2491 148.303 69.2789 148.098 69.3054C147.896 69.3286 147.732 69.3485 147.606 69.3651C147.301 69.4048 147.016 69.4695 146.751 69.5589C146.489 69.6451 146.277 69.776 146.114 69.9517C145.955 70.1241 145.876 70.3594 145.876 70.6577C145.876 71.0653 146.026 71.3736 146.328 71.5824C146.633 71.7879 147.019 71.8906 147.486 71.8906ZM156.349 65.1293V66.1236H152.233V65.1293H156.349ZM153.466 72.7656V64.0753C153.466 63.6378 153.569 63.2732 153.774 62.9815C153.98 62.6899 154.246 62.4711 154.575 62.3253C154.903 62.1795 155.249 62.1065 155.614 62.1065C155.902 62.1065 156.137 62.1297 156.32 62.1761C156.502 62.2225 156.638 62.2656 156.727 62.3054L156.389 63.3196C156.33 63.2997 156.247 63.2749 156.141 63.245C156.038 63.2152 155.902 63.2003 155.733 63.2003C155.345 63.2003 155.065 63.2981 154.893 63.4936C154.724 63.6892 154.639 63.9759 154.639 64.3537V72.7656H153.466ZM161.394 65.1293V66.1236H157.278V65.1293H161.394ZM158.511 72.7656V64.0753C158.511 63.6378 158.614 63.2732 158.819 62.9815C159.025 62.6899 159.291 62.4711 159.619 62.3253C159.948 62.1795 160.294 62.1065 160.659 62.1065C160.947 62.1065 161.182 62.1297 161.365 62.1761C161.547 62.2225 161.683 62.2656 161.772 62.3054L161.434 63.3196C161.374 63.2997 161.292 63.2749 161.186 63.245C161.083 63.2152 160.947 63.2003 160.778 63.2003C160.39 63.2003 160.11 63.2981 159.938 63.4936C159.769 63.6892 159.684 63.9759 159.684 64.3537V72.7656H158.511ZM169.223 72.9446C168.739 72.9446 168.3 72.8535 167.906 72.6712C167.511 72.4856 167.198 72.2188 166.966 71.8707C166.734 71.5194 166.618 71.0952 166.618 70.598C166.618 70.1605 166.704 69.8059 166.877 69.5341C167.049 69.259 167.279 69.0436 167.568 68.8878C167.856 68.732 168.174 68.616 168.522 68.5398C168.874 68.4602 169.227 68.3973 169.581 68.3509C170.045 68.2912 170.422 68.2464 170.71 68.2166C171.002 68.1835 171.214 68.1288 171.346 68.0526C171.482 67.9763 171.55 67.8437 171.55 67.6548V67.6151C171.55 67.1245 171.416 66.7434 171.147 66.4716C170.882 66.1998 170.48 66.0639 169.939 66.0639C169.379 66.0639 168.94 66.1866 168.622 66.4318C168.304 66.6771 168.08 66.9389 167.951 67.2173L166.837 66.8196C167.036 66.3556 167.301 65.9943 167.632 65.7358C167.967 65.474 168.332 65.2917 168.726 65.1889C169.124 65.0829 169.515 65.0298 169.9 65.0298C170.145 65.0298 170.426 65.0597 170.745 65.1193C171.066 65.1757 171.376 65.2933 171.674 65.4723C171.976 65.6513 172.226 65.9214 172.425 66.2827C172.624 66.6439 172.723 67.1278 172.723 67.7344V72.7656H171.55V71.7315H171.49C171.411 71.8973 171.278 72.0746 171.093 72.2635C170.907 72.4524 170.66 72.6132 170.352 72.7457C170.044 72.8783 169.667 72.9446 169.223 72.9446ZM169.402 71.8906C169.866 71.8906 170.257 71.7995 170.576 71.6172C170.897 71.4349 171.139 71.1996 171.301 70.9112C171.467 70.6229 171.55 70.3196 171.55 70.0014V68.9276C171.5 68.9872 171.391 69.0419 171.222 69.0916C171.056 69.138 170.864 69.1795 170.645 69.2159C170.43 69.2491 170.219 69.2789 170.014 69.3054C169.812 69.3286 169.648 69.3485 169.522 69.3651C169.217 69.4048 168.932 69.4695 168.667 69.5589C168.405 69.6451 168.193 69.776 168.03 69.9517C167.871 70.1241 167.792 70.3594 167.792 70.6577C167.792 71.0653 167.942 71.3736 168.244 71.5824C168.549 71.7879 168.935 71.8906 169.402 71.8906ZM174.865 72.7656V65.1293H175.998V66.2827H176.078C176.217 65.9048 176.469 65.5982 176.834 65.3629C177.198 65.1276 177.609 65.0099 178.067 65.0099C178.153 65.0099 178.26 65.0116 178.39 65.0149C178.519 65.0182 178.617 65.0232 178.683 65.0298V66.223C178.643 66.2131 178.552 66.1982 178.41 66.1783C178.27 66.1551 178.123 66.1435 177.967 66.1435C177.596 66.1435 177.265 66.2214 176.973 66.3771C176.684 66.5296 176.456 66.7417 176.287 67.0135C176.121 67.282 176.038 67.5885 176.038 67.9332V72.7656H174.865ZM183.043 72.9247C182.307 72.9247 181.673 72.7623 181.139 72.4375C180.609 72.1094 180.199 71.652 179.911 71.0653C179.626 70.4754 179.483 69.7893 179.483 69.0071C179.483 68.2249 179.626 67.5355 179.911 66.9389C180.199 66.339 180.6 65.8717 181.114 65.5369C181.631 65.1989 182.234 65.0298 182.924 65.0298C183.322 65.0298 183.714 65.0961 184.102 65.2287C184.49 65.3613 184.843 65.5767 185.161 65.875C185.479 66.17 185.733 66.5611 185.922 67.0483C186.111 67.5355 186.205 68.1354 186.205 68.848V69.3452H180.319V68.331H185.012C185.012 67.9001 184.926 67.5156 184.753 67.1776C184.584 66.8395 184.342 66.5727 184.028 66.3771C183.716 66.1816 183.348 66.0838 182.924 66.0838C182.456 66.0838 182.052 66.1998 181.711 66.4318C181.373 66.6605 181.113 66.9588 180.93 67.3267C180.748 67.6946 180.657 68.089 180.657 68.5099V69.1861C180.657 69.7628 180.756 70.2517 180.955 70.6527C181.157 71.0504 181.437 71.3537 181.795 71.5625C182.153 71.768 182.569 71.8707 183.043 71.8707C183.351 71.8707 183.63 71.8277 183.878 71.7415C184.13 71.652 184.347 71.5194 184.53 71.3438C184.712 71.1648 184.853 70.9427 184.952 70.6776L186.086 70.9957C185.966 71.3802 185.766 71.7183 185.484 72.0099C185.202 72.2983 184.854 72.5237 184.44 72.6861C184.026 72.8452 183.56 72.9247 183.043 72.9247ZM195.328 65.1293V66.1236H191.211V65.1293H195.328ZM192.444 72.7656V64.0753C192.444 63.6378 192.547 63.2732 192.753 62.9815C192.958 62.6899 193.225 62.4711 193.553 62.3253C193.881 62.1795 194.228 62.1065 194.592 62.1065C194.881 62.1065 195.116 62.1297 195.298 62.1761C195.48 62.2225 195.616 62.2656 195.706 62.3054L195.368 63.3196C195.308 63.2997 195.225 63.2749 195.119 63.245C195.016 63.2152 194.881 63.2003 194.711 63.2003C194.324 63.2003 194.044 63.2981 193.871 63.4936C193.702 63.6892 193.618 63.9759 193.618 64.3537V72.7656H192.444ZM196.972 72.7656V65.1293H198.106V66.2827H198.185C198.325 65.9048 198.576 65.5982 198.941 65.3629C199.306 65.1276 199.717 65.0099 200.174 65.0099C200.26 65.0099 200.368 65.0116 200.497 65.0149C200.626 65.0182 200.724 65.0232 200.79 65.0298V66.223C200.751 66.2131 200.66 66.1982 200.517 66.1783C200.378 66.1551 200.23 66.1435 200.075 66.1435C199.703 66.1435 199.372 66.2214 199.08 66.3771C198.792 66.5296 198.563 66.7417 198.394 67.0135C198.228 67.282 198.146 67.5885 198.146 67.9332V72.7656H196.972ZM202.181 72.7656V65.1293H203.355V72.7656H202.181ZM202.778 63.8565C202.549 63.8565 202.352 63.7786 202.186 63.6229C202.024 63.4671 201.943 63.2798 201.943 63.0611C201.943 62.8423 202.024 62.6551 202.186 62.4993C202.352 62.3435 202.549 62.2656 202.778 62.2656C203.007 62.2656 203.202 62.3435 203.365 62.4993C203.53 62.6551 203.613 62.8423 203.613 63.0611C203.613 63.2798 203.53 63.4671 203.365 63.6229C203.202 63.7786 203.007 63.8565 202.778 63.8565ZM208.705 72.9247C207.969 72.9247 207.335 72.7623 206.801 72.4375C206.271 72.1094 205.862 71.652 205.573 71.0653C205.288 70.4754 205.146 69.7893 205.146 69.0071C205.146 68.2249 205.288 67.5355 205.573 66.9389C205.862 66.339 206.263 65.8717 206.776 65.5369C207.293 65.1989 207.897 65.0298 208.586 65.0298C208.984 65.0298 209.376 65.0961 209.764 65.2287C210.152 65.3613 210.505 65.5767 210.823 65.875C211.141 66.17 211.395 66.5611 211.584 67.0483C211.773 67.5355 211.867 68.1354 211.867 68.848V69.3452H205.981V68.331H210.674C210.674 67.9001 210.588 67.5156 210.415 67.1776C210.246 66.8395 210.004 66.5727 209.69 66.3771C209.378 66.1816 209.01 66.0838 208.586 66.0838C208.119 66.0838 207.714 66.1998 207.373 66.4318C207.035 66.6605 206.775 66.9588 206.592 67.3267C206.41 67.6946 206.319 68.089 206.319 68.5099V69.1861C206.319 69.7628 206.418 70.2517 206.617 70.6527C206.819 71.0504 207.099 71.3537 207.457 71.5625C207.815 71.768 208.231 71.8707 208.705 71.8707C209.013 71.8707 209.292 71.8277 209.54 71.7415C209.792 71.652 210.009 71.5194 210.192 71.3438C210.374 71.1648 210.515 70.9427 210.614 70.6776L211.748 70.9957C211.629 71.3802 211.428 71.7183 211.146 72.0099C210.865 72.2983 210.517 72.5237 210.102 72.6861C209.688 72.8452 209.222 72.9247 208.705 72.9247ZM214.825 68.1719V72.7656H213.652V65.1293H214.786V66.3224H214.885C215.064 65.9347 215.336 65.6231 215.7 65.3878C216.065 65.1491 216.536 65.0298 217.112 65.0298C217.629 65.0298 218.082 65.1359 218.469 65.348C218.857 65.5568 219.159 65.875 219.374 66.3026C219.59 66.7268 219.697 67.2637 219.697 67.9134V72.7656H218.524V67.9929C218.524 67.393 218.368 66.9257 218.057 66.5909C217.745 66.2528 217.318 66.0838 216.774 66.0838C216.4 66.0838 216.065 66.165 215.77 66.3274C215.478 66.4898 215.248 66.7268 215.079 67.0384C214.91 67.3499 214.825 67.7277 214.825 68.1719ZM224.725 72.9247C224.089 72.9247 223.527 72.764 223.04 72.4425C222.552 72.1177 222.171 71.6603 221.896 71.0703C221.621 70.477 221.483 69.776 221.483 68.9673C221.483 68.1652 221.621 67.4692 221.896 66.8793C222.171 66.2893 222.554 65.8336 223.045 65.5121C223.535 65.1906 224.102 65.0298 224.745 65.0298C225.242 65.0298 225.635 65.1127 225.923 65.2784C226.215 65.4408 226.437 65.6264 226.589 65.8352C226.745 66.0407 226.866 66.2098 226.952 66.3423H227.052V62.5838H228.225V72.7656H227.091V71.5923H226.952C226.866 71.7315 226.743 71.9072 226.584 72.1193C226.425 72.3281 226.198 72.5154 225.903 72.6811C225.608 72.8435 225.215 72.9247 224.725 72.9247ZM224.884 71.8707C225.355 71.8707 225.752 71.7481 226.077 71.5028C226.402 71.2543 226.649 70.9112 226.818 70.4737C226.987 70.0329 227.072 69.5241 227.072 68.9474C227.072 68.3774 226.989 67.8786 226.823 67.451C226.657 67.0201 226.412 66.6854 226.087 66.4467C225.762 66.2048 225.361 66.0838 224.884 66.0838C224.387 66.0838 223.973 66.2114 223.641 66.4666C223.313 66.7185 223.066 67.0616 222.9 67.4957C222.738 67.9266 222.657 68.4105 222.657 68.9474C222.657 69.491 222.74 69.9848 222.905 70.429C223.074 70.8698 223.323 71.2211 223.651 71.483C223.983 71.7415 224.394 71.8707 224.884 71.8707ZM231.71 62.5838V72.7656H230.537V62.5838H231.71ZM234.615 75.6293C234.416 75.6293 234.239 75.6127 234.083 75.5795C233.927 75.5497 233.819 75.5199 233.76 75.4901L234.058 74.456C234.343 74.5289 234.595 74.5554 234.814 74.5355C235.032 74.5156 235.226 74.4179 235.395 74.2422C235.568 74.0698 235.725 73.7898 235.868 73.402L236.086 72.8054L233.262 65.1293H234.535L236.643 71.2145H236.723L238.831 65.1293H240.103L236.862 73.8793C236.716 74.2737 236.535 74.6001 236.32 74.8587C236.105 75.1205 235.854 75.3144 235.569 75.4403C235.288 75.5663 234.969 75.6293 234.615 75.6293ZM242.029 72.8452C241.783 72.8452 241.573 72.7573 241.397 72.5817C241.222 72.406 241.134 72.1955 241.134 71.9503C241.134 71.705 241.222 71.4946 241.397 71.3189C241.573 71.1432 241.783 71.0554 242.029 71.0554C242.274 71.0554 242.484 71.1432 242.66 71.3189C242.836 71.4946 242.923 71.705 242.923 71.9503C242.923 72.1127 242.882 72.2618 242.799 72.3977C242.72 72.5336 242.612 72.643 242.476 72.7259C242.343 72.8054 242.194 72.8452 242.029 72.8452ZM248.569 63.6776V62.5838H256.205V63.6776H253.003V72.7656H251.77V63.6776H248.569ZM259.122 68.1719V72.7656H257.949V62.5838H259.122V66.3224H259.222C259.401 65.928 259.669 65.6148 260.027 65.3828C260.388 65.1475 260.869 65.0298 261.469 65.0298C261.989 65.0298 262.445 65.1342 262.836 65.343C263.227 65.5485 263.53 65.8651 263.746 66.2926C263.964 66.7169 264.074 67.2571 264.074 67.9134V72.7656H262.901V67.9929C262.901 67.3864 262.743 66.9174 262.428 66.5859C262.117 66.2512 261.684 66.0838 261.131 66.0838C260.746 66.0838 260.402 66.165 260.097 66.3274C259.795 66.4898 259.556 66.7268 259.381 67.0384C259.208 67.3499 259.122 67.7277 259.122 68.1719ZM269.422 72.9247C268.686 72.9247 268.052 72.7623 267.518 72.4375C266.988 72.1094 266.578 71.652 266.29 71.0653C266.005 70.4754 265.862 69.7893 265.862 69.0071C265.862 68.2249 266.005 67.5355 266.29 66.9389C266.578 66.339 266.979 65.8717 267.493 65.5369C268.01 65.1989 268.613 65.0298 269.303 65.0298C269.7 65.0298 270.093 65.0961 270.481 65.2287C270.869 65.3613 271.222 65.5767 271.54 65.875C271.858 66.17 272.112 66.5611 272.301 67.0483C272.49 67.5355 272.584 68.1354 272.584 68.848V69.3452H266.698V68.331H271.391C271.391 67.9001 271.305 67.5156 271.132 67.1776C270.963 66.8395 270.721 66.5727 270.406 66.3771C270.095 66.1816 269.727 66.0838 269.303 66.0838C268.835 66.0838 268.431 66.1998 268.09 66.4318C267.752 66.6605 267.491 66.9588 267.309 67.3267C267.127 67.6946 267.036 68.089 267.036 68.5099V69.1861C267.036 69.7628 267.135 70.2517 267.334 70.6527C267.536 71.0504 267.816 71.3537 268.174 71.5625C268.532 71.768 268.948 71.8707 269.422 71.8707C269.73 71.8707 270.009 71.8277 270.257 71.7415C270.509 71.652 270.726 71.5194 270.909 71.3438C271.091 71.1648 271.232 70.9427 271.331 70.6776L272.465 70.9957C272.345 71.3802 272.145 71.7183 271.863 72.0099C271.581 72.2983 271.233 72.5237 270.819 72.6861C270.405 72.8452 269.939 72.9247 269.422 72.9247ZM274.369 72.7656V65.1293H275.502V66.2827H275.582C275.721 65.9048 275.973 65.5982 276.338 65.3629C276.702 65.1276 277.113 65.0099 277.57 65.0099C277.657 65.0099 277.764 65.0116 277.894 65.0149C278.023 65.0182 278.121 65.0232 278.187 65.0298V66.223C278.147 66.2131 278.056 66.1982 277.914 66.1783C277.774 66.1551 277.627 66.1435 277.471 66.1435C277.1 66.1435 276.768 66.2214 276.477 66.3771C276.188 66.5296 275.96 66.7417 275.791 67.0135C275.625 67.282 275.542 67.5885 275.542 67.9332V72.7656H274.369ZM282.547 72.9247C281.811 72.9247 281.177 72.7623 280.643 72.4375C280.113 72.1094 279.703 71.652 279.415 71.0653C279.13 70.4754 278.987 69.7893 278.987 69.0071C278.987 68.2249 279.13 67.5355 279.415 66.9389C279.703 66.339 280.104 65.8717 280.618 65.5369C281.135 65.1989 281.738 65.0298 282.428 65.0298C282.825 65.0298 283.218 65.0961 283.606 65.2287C283.994 65.3613 284.347 65.5767 284.665 65.875C284.983 66.17 285.237 66.5611 285.426 67.0483C285.615 67.5355 285.709 68.1354 285.709 68.848V69.3452H279.823V68.331H284.516C284.516 67.9001 284.43 67.5156 284.257 67.1776C284.088 66.8395 283.846 66.5727 283.531 66.3771C283.22 66.1816 282.852 66.0838 282.428 66.0838C281.96 66.0838 281.556 66.1998 281.215 66.4318C280.877 66.6605 280.616 66.9588 280.434 67.3267C280.252 67.6946 280.161 68.089 280.161 68.5099V69.1861C280.161 69.7628 280.26 70.2517 280.459 70.6527C280.661 71.0504 280.941 71.3537 281.299 71.5625C281.657 71.768 282.073 71.8707 282.547 71.8707C282.855 71.8707 283.134 71.8277 283.382 71.7415C283.634 71.652 283.851 71.5194 284.034 71.3438C284.216 71.1648 284.357 70.9427 284.456 70.6776L285.59 70.9957C285.47 71.3802 285.27 71.7183 284.988 72.0099C284.706 72.2983 284.358 72.5237 283.944 72.6861C283.53 72.8452 283.064 72.9247 282.547 72.9247ZM291.431 72.7656V65.1293H292.605V72.7656H291.431ZM292.028 63.8565C291.799 63.8565 291.602 63.7786 291.436 63.6229C291.274 63.4671 291.193 63.2798 291.193 63.0611C291.193 62.8423 291.274 62.6551 291.436 62.4993C291.602 62.3435 291.799 62.2656 292.028 62.2656C292.257 62.2656 292.452 62.3435 292.615 62.4993C292.78 62.6551 292.863 62.8423 292.863 63.0611C292.863 63.2798 292.78 63.4671 292.615 63.6229C292.452 63.7786 292.257 63.8565 292.028 63.8565ZM300.163 66.8395L299.109 67.1378C299.042 66.9621 298.945 66.7914 298.815 66.6257C298.689 66.4567 298.517 66.3175 298.298 66.2081C298.08 66.0987 297.799 66.044 297.458 66.044C296.991 66.044 296.601 66.1518 296.29 66.3672C295.982 66.5793 295.827 66.8494 295.827 67.1776C295.827 67.4692 295.933 67.6996 296.146 67.8686C296.358 68.0376 296.689 68.1785 297.14 68.2912L298.273 68.5696C298.956 68.7353 299.465 68.9889 299.8 69.3303C300.134 69.6683 300.302 70.1042 300.302 70.6378C300.302 71.0753 300.176 71.4664 299.924 71.8111C299.675 72.1558 299.327 72.4276 298.88 72.6264C298.433 72.8253 297.912 72.9247 297.319 72.9247C296.54 72.9247 295.895 72.7557 295.385 72.4176C294.875 72.0795 294.551 71.5857 294.415 70.9361L295.529 70.6577C295.635 71.0687 295.836 71.3769 296.131 71.5824C296.429 71.7879 296.818 71.8906 297.299 71.8906C297.846 71.8906 298.28 71.7746 298.602 71.5426C298.926 71.3073 299.089 71.0256 299.089 70.6974C299.089 70.4323 298.996 70.2102 298.81 70.0312C298.625 69.849 298.34 69.7131 297.955 69.6236L296.683 69.3253C295.983 69.1596 295.469 68.9027 295.141 68.5547C294.817 68.2034 294.654 67.7642 294.654 67.2372C294.654 66.8063 294.775 66.4252 295.017 66.0938C295.262 65.7623 295.595 65.5021 296.016 65.3132C296.441 65.1243 296.921 65.0298 297.458 65.0298C298.214 65.0298 298.807 65.1955 299.238 65.527C299.672 65.8584 299.98 66.2959 300.163 66.8395ZM307.179 68.1719V72.7656H306.006V65.1293H307.139V66.3224H307.238C307.417 65.9347 307.689 65.6231 308.054 65.3878C308.418 65.1491 308.889 65.0298 309.466 65.0298C309.983 65.0298 310.435 65.1359 310.823 65.348C311.211 65.5568 311.512 65.875 311.728 66.3026C311.943 66.7268 312.051 67.2637 312.051 67.9134V72.7656H310.878V67.9929C310.878 67.393 310.722 66.9257 310.41 66.5909C310.099 66.2528 309.671 66.0838 309.128 66.0838C308.753 66.0838 308.418 66.165 308.123 66.3274C307.832 66.4898 307.601 66.7268 307.432 67.0384C307.263 67.3499 307.179 67.7277 307.179 68.1719ZM317.297 72.9247C316.608 72.9247 316.003 72.7607 315.483 72.4325C314.966 72.1044 314.561 71.6454 314.27 71.0554C313.981 70.4654 313.837 69.776 313.837 68.9872C313.837 68.1918 313.981 67.4974 314.27 66.9041C314.561 66.3108 314.966 65.8501 315.483 65.522C316.003 65.1939 316.608 65.0298 317.297 65.0298C317.987 65.0298 318.59 65.1939 319.107 65.522C319.627 65.8501 320.032 66.3108 320.32 66.9041C320.612 67.4974 320.757 68.1918 320.757 68.9872C320.757 69.776 320.612 70.4654 320.32 71.0554C320.032 71.6454 319.627 72.1044 319.107 72.4325C318.59 72.7607 317.987 72.9247 317.297 72.9247ZM317.297 71.8707C317.821 71.8707 318.252 71.7365 318.59 71.468C318.928 71.1996 319.178 70.8466 319.341 70.4091C319.503 69.9716 319.584 69.4976 319.584 68.9872C319.584 68.4768 319.503 68.0012 319.341 67.5604C319.178 67.1196 318.928 66.7633 318.59 66.4915C318.252 66.2197 317.821 66.0838 317.297 66.0838C316.774 66.0838 316.343 66.2197 316.005 66.4915C315.667 66.7633 315.416 67.1196 315.254 67.5604C315.092 68.0012 315.01 68.4768 315.01 68.9872C315.01 69.4976 315.092 69.9716 315.254 70.4091C315.416 70.8466 315.667 71.1996 316.005 71.468C316.343 71.7365 316.774 71.8707 317.297 71.8707ZM15.5167 79.5838V89.7656H14.3434V79.5838H15.5167ZM20.7679 89.9247C20.0785 89.9247 19.4737 89.7607 18.9533 89.4325C18.4363 89.1044 18.0319 88.6454 17.7402 88.0554C17.4519 87.4654 17.3077 86.776 17.3077 85.9872C17.3077 85.1918 17.4519 84.4974 17.7402 83.9041C18.0319 83.3108 18.4363 82.8501 18.9533 82.522C19.4737 82.1939 20.0785 82.0298 20.7679 82.0298C21.4573 82.0298 22.0605 82.1939 22.5776 82.522C23.098 82.8501 23.5023 83.3108 23.7907 83.9041C24.0823 84.4974 24.2282 85.1918 24.2282 85.9872C24.2282 86.776 24.0823 87.4654 23.7907 88.0554C23.5023 88.6454 23.098 89.1044 22.5776 89.4325C22.0605 89.7607 21.4573 89.9247 20.7679 89.9247ZM20.7679 88.8707C21.2916 88.8707 21.7225 88.7365 22.0605 88.468C22.3986 88.1996 22.6489 87.8466 22.8113 87.4091C22.9737 86.9716 23.0549 86.4976 23.0549 85.9872C23.0549 85.4768 22.9737 85.0012 22.8113 84.5604C22.6489 84.1196 22.3986 83.7633 22.0605 83.4915C21.7225 83.2197 21.2916 83.0838 20.7679 83.0838C20.2443 83.0838 19.8134 83.2197 19.4753 83.4915C19.1373 83.7633 18.887 84.1196 18.7246 84.5604C18.5622 85.0012 18.481 85.4768 18.481 85.9872C18.481 86.4976 18.5622 86.9716 18.7246 87.4091C18.887 87.8466 19.1373 88.1996 19.4753 88.468C19.8134 88.7365 20.2443 88.8707 20.7679 88.8707ZM27.1925 85.1719V89.7656H26.0192V82.1293H27.1527V83.3224H27.2521C27.4311 82.9347 27.7029 82.6231 28.0675 82.3878C28.4321 82.1491 28.9027 82.0298 29.4794 82.0298C29.9964 82.0298 30.4489 82.1359 30.8366 82.348C31.2244 82.5568 31.526 82.875 31.7415 83.3026C31.9569 83.7268 32.0646 84.2637 32.0646 84.9134V89.7656H30.8913V84.9929C30.8913 84.393 30.7356 83.9257 30.424 83.5909C30.1125 83.2528 29.6849 83.0838 29.1413 83.0838C28.7668 83.0838 28.4321 83.165 28.1371 83.3274C27.8454 83.4898 27.6151 83.7268 27.446 84.0384C27.277 84.3499 27.1925 84.7277 27.1925 85.1719ZM37.291 92.7884C36.7243 92.7884 36.237 92.7154 35.8294 92.5696C35.4217 92.4271 35.082 92.2382 34.8102 92.0028C34.5417 91.7708 34.3279 91.5223 34.1689 91.2571L35.1035 90.6009C35.2096 90.7401 35.3438 90.8991 35.5062 91.0781C35.6686 91.2604 35.8907 91.4179 36.1724 91.5504C36.4574 91.6863 36.8303 91.7543 37.291 91.7543C37.9075 91.7543 38.4163 91.6051 38.8173 91.3068C39.2183 91.0085 39.4189 90.5412 39.4189 89.9048V88.3537H39.3194C39.2333 88.4929 39.1106 88.6652 38.9515 88.8707C38.7958 89.0729 38.5704 89.2536 38.2754 89.4126C37.9837 89.5684 37.5893 89.6463 37.0922 89.6463C36.4757 89.6463 35.9222 89.5005 35.4316 89.2088C34.9444 88.9171 34.5583 88.4929 34.2733 87.9361C33.9915 87.3793 33.8507 86.7031 33.8507 85.9077C33.8507 85.1255 33.9882 84.4444 34.2633 83.8643C34.5384 83.281 34.9212 82.8303 35.4118 82.5121C35.9023 82.1906 36.469 82.0298 37.112 82.0298C37.6092 82.0298 38.0036 82.1127 38.2953 82.2784C38.5903 82.4408 38.8156 82.6264 38.9714 82.8352C39.1305 83.0407 39.2531 83.2098 39.3393 83.3423H39.4586V82.1293H40.5922V89.9844C40.5922 90.6406 40.443 91.1742 40.1447 91.5852C39.8497 91.9995 39.452 92.3028 38.9515 92.495C38.4544 92.6906 37.9009 92.7884 37.291 92.7884ZM37.2512 88.5923C37.7219 88.5923 38.1196 88.4846 38.4444 88.2692C38.7692 88.0537 39.0162 87.7438 39.1852 87.3395C39.3542 86.9351 39.4387 86.4512 39.4387 85.8878C39.4387 85.3376 39.3559 84.852 39.1902 84.4311C39.0244 84.0102 38.7792 83.6804 38.4544 83.4418C38.1296 83.2031 37.7285 83.0838 37.2512 83.0838C36.7541 83.0838 36.3398 83.2098 36.0083 83.4616C35.6802 83.7135 35.4333 84.0516 35.2676 84.4759C35.1052 84.9001 35.024 85.3707 35.024 85.8878C35.024 86.4181 35.1068 86.8871 35.2725 87.2947C35.4416 87.6991 35.6902 88.0173 36.0183 88.2493C36.3497 88.478 36.7607 88.5923 37.2512 88.5923ZM48.4075 89.7656L46.0808 82.1293H47.3137L48.9643 87.9759H49.0439L50.6745 82.1293H51.9274L53.5382 87.956H53.6177L55.2683 82.1293H56.5012L54.1745 89.7656H53.0211L51.3507 83.8991H51.2314L49.5609 89.7656H48.4075ZM60.2995 89.9446C59.8156 89.9446 59.3765 89.8535 58.9821 89.6712C58.5877 89.4856 58.2744 89.2188 58.0424 88.8707C57.8104 88.5194 57.6944 88.0952 57.6944 87.598C57.6944 87.1605 57.7806 86.8059 57.9529 86.5341C58.1253 86.259 58.3556 86.0436 58.644 85.8878C58.9324 85.732 59.2505 85.616 59.5985 85.5398C59.9499 85.4602 60.3029 85.3973 60.6575 85.3509C61.1215 85.2912 61.4977 85.2464 61.786 85.2166C62.0777 85.1835 62.2898 85.1288 62.4224 85.0526C62.5583 84.9763 62.6262 84.8437 62.6262 84.6548V84.6151C62.6262 84.1245 62.492 83.7434 62.2235 83.4716C61.9584 83.1998 61.5557 83.0639 61.0154 83.0639C60.4553 83.0639 60.0162 83.1866 59.698 83.4318C59.3798 83.6771 59.1561 83.9389 59.0268 84.2173L57.9132 83.8196C58.112 83.3556 58.3772 82.9943 58.7086 82.7358C59.0434 82.474 59.408 82.2917 59.8024 82.1889C60.2001 82.0829 60.5912 82.0298 60.9757 82.0298C61.2209 82.0298 61.5027 82.0597 61.8208 82.1193C62.1423 82.1757 62.4522 82.2933 62.7505 82.4723C63.0521 82.6513 63.3024 82.9214 63.5012 83.2827C63.7001 83.6439 63.7995 84.1278 63.7995 84.7344V89.7656H62.6262V88.7315H62.5666C62.487 88.8973 62.3545 89.0746 62.1689 89.2635C61.9833 89.4524 61.7363 89.6132 61.4281 89.7457C61.1199 89.8783 60.7437 89.9446 60.2995 89.9446ZM60.4785 88.8906C60.9425 88.8906 61.3336 88.7995 61.6518 88.6172C61.9733 88.4349 62.2153 88.1996 62.3777 87.9112C62.5434 87.6229 62.6262 87.3196 62.6262 87.0014V85.9276C62.5765 85.9872 62.4672 86.0419 62.2981 86.0916C62.1324 86.138 61.9402 86.1795 61.7214 86.2159C61.506 86.2491 61.2955 86.2789 61.09 86.3054C60.8878 86.3286 60.7238 86.3485 60.5978 86.3651C60.2929 86.4048 60.0079 86.4695 59.7427 86.5589C59.4809 86.6451 59.2688 86.776 59.1064 86.9517C58.9473 87.1241 58.8677 87.3594 58.8677 87.6577C58.8677 88.0653 59.0185 88.3736 59.3201 88.5824C59.6251 88.7879 60.0112 88.8906 60.4785 88.8906ZM65.9411 89.7656V82.1293H67.1143V89.7656H65.9411ZM66.5376 80.8565C66.3089 80.8565 66.1117 80.7786 65.946 80.6229C65.7836 80.4671 65.7024 80.2798 65.7024 80.0611C65.7024 79.8423 65.7836 79.6551 65.946 79.4993C66.1117 79.3435 66.3089 79.2656 66.5376 79.2656C66.7663 79.2656 66.9619 79.3435 67.1243 79.4993C67.29 79.6551 67.3729 79.8423 67.3729 80.0611C67.3729 80.2798 67.29 80.4671 67.1243 80.6229C66.9619 80.7786 66.7663 80.8565 66.5376 80.8565ZM72.5843 82.1293V83.1236H68.627V82.1293H72.5843ZM69.7804 80.2997H70.9537V87.5781C70.9537 87.9096 71.0017 88.1581 71.0978 88.3239C71.1973 88.4863 71.3232 88.5956 71.4757 88.652C71.6315 88.705 71.7955 88.7315 71.9679 88.7315C72.0971 88.7315 72.2032 88.7249 72.286 88.7116C72.3689 88.6951 72.4352 88.6818 72.4849 88.6719L72.7235 89.7259C72.644 89.7557 72.533 89.7855 72.3904 89.8153C72.2479 89.8485 72.0673 89.8651 71.8485 89.8651C71.5171 89.8651 71.1923 89.7938 70.8741 89.6513C70.5592 89.5088 70.2974 89.2917 70.0886 89C69.8831 88.7083 69.7804 88.3404 69.7804 87.8963V80.2997ZM74.3493 89.7656V82.1293H75.5225V89.7656H74.3493ZM74.9458 80.8565C74.7172 80.8565 74.5199 80.7786 74.3542 80.6229C74.1918 80.4671 74.1106 80.2798 74.1106 80.0611C74.1106 79.8423 74.1918 79.6551 74.3542 79.4993C74.5199 79.3435 74.7172 79.2656 74.9458 79.2656C75.1745 79.2656 75.3701 79.3435 75.5325 79.4993C75.6982 79.6551 75.7811 79.8423 75.7811 80.0611C75.7811 80.2798 75.6982 80.4671 75.5325 80.6229C75.3701 80.7786 75.1745 80.8565 74.9458 80.8565ZM78.8448 85.1719V89.7656H77.6715V82.1293H78.805V83.3224H78.9045C79.0835 82.9347 79.3552 82.6231 79.7198 82.3878C80.0844 82.1491 80.555 82.0298 81.1317 82.0298C81.6488 82.0298 82.1012 82.1359 82.489 82.348C82.8768 82.5568 83.1784 82.875 83.3938 83.3026C83.6093 83.7268 83.717 84.2637 83.717 84.9134V89.7656H82.5437V84.9929C82.5437 84.393 82.3879 83.9257 82.0763 83.5909C81.7648 83.2528 81.3372 83.0838 80.7937 83.0838C80.4192 83.0838 80.0844 83.165 79.7894 83.3274C79.4978 83.4898 79.2674 83.7268 79.0984 84.0384C78.9293 84.3499 78.8448 84.7277 78.8448 85.1719ZM88.9434 92.7884C88.3766 92.7884 87.8894 92.7154 87.4817 92.5696C87.074 92.4271 86.7343 92.2382 86.4625 92.0028C86.1941 91.7708 85.9803 91.5223 85.8212 91.2571L86.7559 90.6009C86.8619 90.7401 86.9962 90.8991 87.1586 91.0781C87.321 91.2604 87.543 91.4179 87.8248 91.5504C88.1098 91.6863 88.4827 91.7543 88.9434 91.7543C89.5598 91.7543 90.0686 91.6051 90.4696 91.3068C90.8707 91.0085 91.0712 90.5412 91.0712 89.9048V88.3537H90.9718C90.8856 88.4929 90.763 88.6652 90.6039 88.8707C90.4481 89.0729 90.2227 89.2536 89.9277 89.4126C89.6361 89.5684 89.2417 89.6463 88.7445 89.6463C88.128 89.6463 87.5745 89.5005 87.084 89.2088C86.5968 88.9171 86.2106 88.4929 85.9256 87.9361C85.6439 87.3793 85.503 86.7031 85.503 85.9077C85.503 85.1255 85.6406 84.4444 85.9157 83.8643C86.1908 83.281 86.5736 82.8303 87.0641 82.5121C87.5546 82.1906 88.1214 82.0298 88.7644 82.0298C89.2615 82.0298 89.656 82.1127 89.9476 82.2784C90.2426 82.4408 90.468 82.6264 90.6238 82.8352C90.7828 83.0407 90.9055 83.2098 90.9917 83.3423H91.111V82.1293H92.2445V89.9844C92.2445 90.6406 92.0953 91.1742 91.7971 91.5852C91.5021 91.9995 91.1043 92.3028 90.6039 92.495C90.1067 92.6906 89.5532 92.7884 88.9434 92.7884ZM88.9036 88.5923C89.3742 88.5923 89.772 88.4846 90.0968 88.2692C90.4216 88.0537 90.6685 87.7438 90.8375 87.3395C91.0066 86.9351 91.0911 86.4512 91.0911 85.8878C91.0911 85.3376 91.0082 84.852 90.8425 84.4311C90.6768 84.0102 90.4315 83.6804 90.1067 83.4418C89.7819 83.2031 89.3809 83.0838 88.9036 83.0838C88.4064 83.0838 87.9921 83.2098 87.6607 83.4616C87.3326 83.7135 87.0856 84.0516 86.9199 84.4759C86.7575 84.9001 86.6763 85.3707 86.6763 85.8878C86.6763 86.4181 86.7592 86.8871 86.9249 87.2947C87.0939 87.6991 87.3425 88.0173 87.6706 88.2493C88.0021 88.478 88.4131 88.5923 88.9036 88.5923ZM101.651 82.1293V83.1236H97.6934V82.1293H101.651ZM98.8468 80.2997H100.02V87.5781C100.02 87.9096 100.068 88.1581 100.164 88.3239C100.264 88.4863 100.39 88.5956 100.542 88.652C100.698 88.705 100.862 88.7315 101.034 88.7315C101.164 88.7315 101.27 88.7249 101.352 88.7116C101.435 88.6951 101.502 88.6818 101.551 88.6719L101.79 89.7259C101.71 89.7557 101.599 89.7855 101.457 89.8153C101.314 89.8485 101.134 89.8651 100.915 89.8651C100.584 89.8651 100.259 89.7938 99.9405 89.6513C99.6257 89.5088 99.3638 89.2917 99.155 89C98.9495 88.7083 98.8468 88.3404 98.8468 87.8963V80.2997ZM103.416 89.7656V82.1293H104.589V89.7656H103.416ZM104.012 80.8565C103.784 80.8565 103.586 80.7786 103.421 80.6229C103.258 80.4671 103.177 80.2798 103.177 80.0611C103.177 79.8423 103.258 79.6551 103.421 79.4993C103.586 79.3435 103.784 79.2656 104.012 79.2656C104.241 79.2656 104.436 79.3435 104.599 79.4993C104.765 79.6551 104.847 79.8423 104.847 80.0611C104.847 80.2798 104.765 80.4671 104.599 80.6229C104.436 80.7786 104.241 80.8565 104.012 80.8565ZM106.738 89.7656V82.1293H107.871V83.3224H107.971C108.13 82.9148 108.387 82.5982 108.741 82.3729C109.096 82.1442 109.522 82.0298 110.019 82.0298C110.523 82.0298 110.942 82.1442 111.277 82.3729C111.615 82.5982 111.879 82.9148 112.067 83.3224H112.147C112.343 82.928 112.636 82.6148 113.027 82.3828C113.418 82.1475 113.887 82.0298 114.434 82.0298C115.117 82.0298 115.675 82.2436 116.109 82.6712C116.544 83.0954 116.761 83.7566 116.761 84.6548V89.7656H115.587V84.6548C115.587 84.0914 115.433 83.6887 115.125 83.4467C114.817 83.2048 114.454 83.0838 114.036 83.0838C113.499 83.0838 113.083 83.2462 112.788 83.571C112.493 83.8925 112.346 84.3002 112.346 84.794V89.7656H111.153V84.5355C111.153 84.1013 111.012 83.7517 110.73 83.4865C110.448 83.218 110.085 83.0838 109.641 83.0838C109.336 83.0838 109.051 83.165 108.786 83.3274C108.524 83.4898 108.312 83.7152 108.15 84.0036C107.991 84.2886 107.911 84.6184 107.911 84.9929V89.7656H106.738ZM122.108 89.9247C121.372 89.9247 120.737 89.7623 120.203 89.4375C119.673 89.1094 119.264 88.652 118.975 88.0653C118.69 87.4754 118.548 86.7893 118.548 86.0071C118.548 85.2249 118.69 84.5355 118.975 83.9389C119.264 83.339 119.665 82.8717 120.179 82.5369C120.696 82.1989 121.299 82.0298 121.988 82.0298C122.386 82.0298 122.779 82.0961 123.167 82.2287C123.554 82.3613 123.907 82.5767 124.225 82.875C124.544 83.17 124.797 83.5611 124.986 84.0483C125.175 84.5355 125.27 85.1354 125.27 85.848V86.3452H119.383V85.331H124.076C124.076 84.9001 123.99 84.5156 123.818 84.1776C123.649 83.8395 123.407 83.5727 123.092 83.3771C122.78 83.1816 122.413 83.0838 121.988 83.0838C121.521 83.0838 121.117 83.1998 120.775 83.4318C120.437 83.6605 120.177 83.9588 119.995 84.3267C119.812 84.6946 119.721 85.089 119.721 85.5099V86.1861C119.721 86.7628 119.821 87.2517 120.02 87.6527C120.222 88.0504 120.502 88.3537 120.86 88.5625C121.218 88.768 121.634 88.8707 122.108 88.8707C122.416 88.8707 122.694 88.8277 122.943 88.7415C123.195 88.652 123.412 88.5194 123.594 88.3438C123.776 88.1648 123.917 87.9427 124.017 87.6776L125.15 87.9957C125.031 88.3802 124.83 88.7183 124.549 89.0099C124.267 89.2983 123.919 89.5237 123.505 89.6861C123.09 89.8452 122.625 89.9247 122.108 89.9247ZM133.239 89.9446C132.755 89.9446 132.316 89.8535 131.922 89.6712C131.527 89.4856 131.214 89.2188 130.982 88.8707C130.75 88.5194 130.634 88.0952 130.634 87.598C130.634 87.1605 130.72 86.8059 130.892 86.5341C131.065 86.259 131.295 86.0436 131.583 85.8878C131.872 85.732 132.19 85.616 132.538 85.5398C132.889 85.4602 133.242 85.3973 133.597 85.3509C134.061 85.2912 134.437 85.2464 134.725 85.2166C135.017 85.1835 135.229 85.1288 135.362 85.0526C135.498 84.9763 135.566 84.8437 135.566 84.6548V84.6151C135.566 84.1245 135.431 83.7434 135.163 83.4716C134.898 83.1998 134.495 83.0639 133.955 83.0639C133.395 83.0639 132.956 83.1866 132.637 83.4318C132.319 83.6771 132.096 83.9389 131.966 84.2173L130.853 83.8196C131.051 83.3556 131.317 82.9943 131.648 82.7358C131.983 82.474 132.347 82.2917 132.742 82.1889C133.14 82.0829 133.531 82.0298 133.915 82.0298C134.16 82.0298 134.442 82.0597 134.76 82.1193C135.082 82.1757 135.392 82.2933 135.69 82.4723C135.992 82.6513 136.242 82.9214 136.441 83.2827C136.64 83.6439 136.739 84.1278 136.739 84.7344V89.7656H135.566V88.7315H135.506C135.426 88.8973 135.294 89.0746 135.108 89.2635C134.923 89.4524 134.676 89.6132 134.368 89.7457C134.059 89.8783 133.683 89.9446 133.239 89.9446ZM133.418 88.8906C133.882 88.8906 134.273 88.7995 134.591 88.6172C134.913 88.4349 135.155 88.1996 135.317 87.9112C135.483 87.6229 135.566 87.3196 135.566 87.0014V85.9276C135.516 85.9872 135.407 86.0419 135.238 86.0916C135.072 86.138 134.88 86.1795 134.661 86.2159C134.445 86.2491 134.235 86.2789 134.029 86.3054C133.827 86.3286 133.663 86.3485 133.537 86.3651C133.232 86.4048 132.947 86.4695 132.682 86.5589C132.42 86.6451 132.208 86.776 132.046 86.9517C131.887 87.1241 131.807 87.3594 131.807 87.6577C131.807 88.0653 131.958 88.3736 132.26 88.5824C132.565 88.7879 132.951 88.8906 133.418 88.8906ZM140.054 85.1719V89.7656H138.881V82.1293H140.014V83.3224H140.113C140.292 82.9347 140.564 82.6231 140.929 82.3878C141.293 82.1491 141.764 82.0298 142.341 82.0298C142.858 82.0298 143.31 82.1359 143.698 82.348C144.086 82.5568 144.387 82.875 144.603 83.3026C144.818 83.7268 144.926 84.2637 144.926 84.9134V89.7656H143.753V84.9929C143.753 84.393 143.597 83.9257 143.285 83.5909C142.974 83.2528 142.546 83.0838 142.003 83.0838C141.628 83.0838 141.293 83.165 140.998 83.3274C140.707 83.4898 140.476 83.7268 140.307 84.0384C140.138 84.3499 140.054 84.7277 140.054 85.1719ZM149.953 89.9247C149.317 89.9247 148.755 89.764 148.268 89.4425C147.781 89.1177 147.4 88.6603 147.125 88.0703C146.85 87.477 146.712 86.776 146.712 85.9673C146.712 85.1652 146.85 84.4692 147.125 83.8793C147.4 83.2893 147.783 82.8336 148.273 82.5121C148.764 82.1906 149.33 82.0298 149.973 82.0298C150.471 82.0298 150.863 82.1127 151.152 82.2784C151.443 82.4408 151.665 82.6264 151.818 82.8352C151.974 83.0407 152.095 83.2098 152.181 83.3423H152.28V79.5838H153.453V89.7656H152.32V88.5923H152.181C152.095 88.7315 151.972 88.9072 151.813 89.1193C151.654 89.3281 151.427 89.5154 151.132 89.6811C150.837 89.8435 150.444 89.9247 149.953 89.9247ZM150.113 88.8707C150.583 88.8707 150.981 88.7481 151.306 88.5028C151.631 88.2543 151.877 87.9112 152.047 87.4737C152.216 87.0329 152.3 86.5241 152.3 85.9474C152.3 85.3774 152.217 84.8786 152.051 84.451C151.886 84.0201 151.641 83.6854 151.316 83.4467C150.991 83.2048 150.59 83.0838 150.113 83.0838C149.615 83.0838 149.201 83.2114 148.87 83.4666C148.542 83.7185 148.295 84.0616 148.129 84.4957C147.967 84.9266 147.885 85.4105 147.885 85.9474C147.885 86.491 147.968 86.9848 148.134 87.429C148.303 87.8698 148.551 88.2211 148.88 88.483C149.211 88.7415 149.622 88.8707 150.113 88.8707ZM160.458 92.6293C160.26 92.6293 160.082 92.6127 159.926 92.5795C159.771 92.5497 159.663 92.5199 159.603 92.4901L159.902 91.456C160.187 91.5289 160.439 91.5554 160.657 91.5355C160.876 91.5156 161.07 91.4179 161.239 91.2422C161.411 91.0698 161.569 90.7898 161.711 90.402L161.93 89.8054L159.106 82.1293H160.379L162.487 88.2145H162.566L164.674 82.1293H165.947L162.706 90.8793C162.56 91.2737 162.379 91.6001 162.164 91.8587C161.948 92.1205 161.698 92.3144 161.413 92.4403C161.131 92.5663 160.813 92.6293 160.458 92.6293ZM170.325 89.9247C169.635 89.9247 169.03 89.7607 168.51 89.4325C167.993 89.1044 167.589 88.6454 167.297 88.0554C167.009 87.4654 166.864 86.776 166.864 85.9872C166.864 85.1918 167.009 84.4974 167.297 83.9041C167.589 83.3108 167.993 82.8501 168.51 82.522C169.03 82.1939 169.635 82.0298 170.325 82.0298C171.014 82.0298 171.617 82.1939 172.134 82.522C172.655 82.8501 173.059 83.3108 173.347 83.9041C173.639 84.4974 173.785 85.1918 173.785 85.9872C173.785 86.776 173.639 87.4654 173.347 88.0554C173.059 88.6454 172.655 89.1044 172.134 89.4325C171.617 89.7607 171.014 89.9247 170.325 89.9247ZM170.325 88.8707C170.848 88.8707 171.279 88.7365 171.617 88.468C171.955 88.1996 172.205 87.8466 172.368 87.4091C172.53 86.9716 172.612 86.4976 172.612 85.9872C172.612 85.4768 172.53 85.0012 172.368 84.5604C172.205 84.1196 171.955 83.7633 171.617 83.4915C171.279 83.2197 170.848 83.0838 170.325 83.0838C169.801 83.0838 169.37 83.2197 169.032 83.4915C168.694 83.7633 168.444 84.1196 168.281 84.5604C168.119 85.0012 168.038 85.4768 168.038 85.9872C168.038 86.4976 168.119 86.9716 168.281 87.4091C168.444 87.8466 168.694 88.1996 169.032 88.468C169.37 88.7365 169.801 88.8707 170.325 88.8707ZM180.388 86.6435V82.1293H181.562V89.7656H180.388V88.473H180.309C180.13 88.8608 179.851 89.1906 179.474 89.4624C179.096 89.7308 178.618 89.8651 178.042 89.8651C177.564 89.8651 177.14 89.7607 176.769 89.5518C176.398 89.3397 176.106 89.0215 175.894 88.5973C175.682 88.1697 175.576 87.6312 175.576 86.9815V82.1293H176.749V86.902C176.749 87.4588 176.905 87.9029 177.216 88.2344C177.531 88.5658 177.932 88.7315 178.42 88.7315C178.711 88.7315 179.008 88.657 179.309 88.5078C179.614 88.3587 179.87 88.13 180.075 87.8217C180.284 87.5135 180.388 87.1207 180.388 86.6435ZM190.75 89.9247C190.034 89.9247 189.418 89.7557 188.901 89.4176C188.384 89.0795 187.986 88.6139 187.708 88.0206C187.429 87.4273 187.29 86.7495 187.29 85.9872C187.29 85.2116 187.433 84.5272 187.718 83.9339C188.006 83.3374 188.407 82.8717 188.921 82.5369C189.438 82.1989 190.041 82.0298 190.73 82.0298C191.267 82.0298 191.751 82.1293 192.182 82.3281C192.613 82.527 192.966 82.8054 193.241 83.1634C193.516 83.5213 193.687 83.9389 193.753 84.4162H192.58C192.49 84.0682 192.292 83.7599 191.983 83.4915C191.678 83.2197 191.267 83.0838 190.75 83.0838C190.293 83.0838 189.892 83.2031 189.547 83.4418C189.206 83.6771 188.939 84.0102 188.747 84.4411C188.558 84.8686 188.463 85.3707 188.463 85.9474C188.463 86.5374 188.556 87.0511 188.742 87.4886C188.931 87.9261 189.196 88.2659 189.537 88.5078C189.882 88.7498 190.286 88.8707 190.75 88.8707C191.055 88.8707 191.332 88.8177 191.581 88.7116C191.829 88.6056 192.04 88.4531 192.212 88.2543C192.384 88.0554 192.507 87.8168 192.58 87.5384H193.753C193.687 87.9891 193.523 88.3951 193.261 88.7564C193.002 89.1143 192.659 89.3994 192.232 89.6115C191.808 89.8203 191.314 89.9247 190.75 89.9247ZM197.716 89.9446C197.232 89.9446 196.792 89.8535 196.398 89.6712C196.004 89.4856 195.69 89.2188 195.458 88.8707C195.226 88.5194 195.11 88.0952 195.11 87.598C195.11 87.1605 195.197 86.8059 195.369 86.5341C195.541 86.259 195.772 86.0436 196.06 85.8878C196.348 85.732 196.667 85.616 197.015 85.5398C197.366 85.4602 197.719 85.3973 198.074 85.3509C198.538 85.2912 198.914 85.2464 199.202 85.2166C199.494 85.1835 199.706 85.1288 199.838 85.0526C199.974 84.9763 200.042 84.8437 200.042 84.6548V84.6151C200.042 84.1245 199.908 83.7434 199.64 83.4716C199.374 83.1998 198.972 83.0639 198.431 83.0639C197.871 83.0639 197.432 83.1866 197.114 83.4318C196.796 83.6771 196.572 83.9389 196.443 84.2173L195.329 83.8196C195.528 83.3556 195.793 82.9943 196.125 82.7358C196.459 82.474 196.824 82.2917 197.218 82.1889C197.616 82.0829 198.007 82.0298 198.392 82.0298C198.637 82.0298 198.919 82.0597 199.237 82.1193C199.558 82.1757 199.868 82.2933 200.167 82.4723C200.468 82.6513 200.718 82.9214 200.917 83.2827C201.116 83.6439 201.216 84.1278 201.216 84.7344V89.7656H200.042V88.7315H199.983C199.903 88.8973 199.77 89.0746 199.585 89.2635C199.399 89.4524 199.152 89.6132 198.844 89.7457C198.536 89.8783 198.16 89.9446 197.716 89.9446ZM197.895 88.8906C198.359 88.8906 198.75 88.7995 199.068 88.6172C199.389 88.4349 199.631 88.1996 199.794 87.9112C199.959 87.6229 200.042 87.3196 200.042 87.0014V85.9276C199.993 85.9872 199.883 86.0419 199.714 86.0916C199.548 86.138 199.356 86.1795 199.137 86.2159C198.922 86.2491 198.712 86.2789 198.506 86.3054C198.304 86.3286 198.14 86.3485 198.014 86.3651C197.709 86.4048 197.424 86.4695 197.159 86.5589C196.897 86.6451 196.685 86.776 196.522 86.9517C196.363 87.1241 196.284 87.3594 196.284 87.6577C196.284 88.0653 196.435 88.3736 196.736 88.5824C197.041 88.7879 197.427 88.8906 197.895 88.8906ZM204.53 85.1719V89.7656H203.357V82.1293H204.491V83.3224H204.59C204.769 82.9347 205.041 82.6231 205.405 82.3878C205.77 82.1491 206.241 82.0298 206.817 82.0298C207.334 82.0298 207.787 82.1359 208.175 82.348C208.562 82.5568 208.864 82.875 209.079 83.3026C209.295 83.7268 209.403 84.2637 209.403 84.9134V89.7656H208.229V84.9929C208.229 84.393 208.073 83.9257 207.762 83.5909C207.45 83.2528 207.023 83.0838 206.479 83.0838C206.105 83.0838 205.77 83.165 205.475 83.3274C205.183 83.4898 204.953 83.7268 204.784 84.0384C204.615 84.3499 204.53 84.7277 204.53 85.1719ZM215.484 89.7656V82.1293H216.618V83.2827H216.697C216.836 82.9048 217.088 82.5982 217.453 82.3629C217.817 82.1276 218.228 82.0099 218.686 82.0099C218.772 82.0099 218.88 82.0116 219.009 82.0149C219.138 82.0182 219.236 82.0232 219.302 82.0298V83.223C219.262 83.2131 219.171 83.1982 219.029 83.1783C218.89 83.1551 218.742 83.1435 218.586 83.1435C218.215 83.1435 217.884 83.2214 217.592 83.3771C217.304 83.5296 217.075 83.7417 216.906 84.0135C216.74 84.282 216.657 84.5885 216.657 84.9332V89.7656H215.484ZM223.662 89.9247C222.926 89.9247 222.292 89.7623 221.758 89.4375C221.228 89.1094 220.819 88.652 220.53 88.0653C220.245 87.4754 220.103 86.7893 220.103 86.0071C220.103 85.2249 220.245 84.5355 220.53 83.9389C220.819 83.339 221.22 82.8717 221.733 82.5369C222.25 82.1989 222.854 82.0298 223.543 82.0298C223.941 82.0298 224.333 82.0961 224.721 82.2287C225.109 82.3613 225.462 82.5767 225.78 82.875C226.098 83.17 226.352 83.5611 226.541 84.0483C226.73 84.5355 226.824 85.1354 226.824 85.848V86.3452H220.938V85.331H225.631C225.631 84.9001 225.545 84.5156 225.373 84.1776C225.203 83.8395 224.962 83.5727 224.647 83.3771C224.335 83.1816 223.967 83.0838 223.543 83.0838C223.076 83.0838 222.671 83.1998 222.33 83.4318C221.992 83.6605 221.732 83.9588 221.549 84.3267C221.367 84.6946 221.276 85.089 221.276 85.5099V86.1861C221.276 86.7628 221.375 87.2517 221.574 87.6527C221.776 88.0504 222.056 88.3537 222.414 88.5625C222.772 88.768 223.188 88.8707 223.662 88.8707C223.971 88.8707 224.249 88.8277 224.498 88.7415C224.749 88.652 224.967 88.5194 225.149 88.3438C225.331 88.1648 225.472 87.9427 225.571 87.6776L226.705 87.9957C226.586 88.3802 226.385 88.7183 226.103 89.0099C225.822 89.2983 225.474 89.5237 225.059 89.6861C224.645 89.8452 224.179 89.9247 223.662 89.9247ZM231.711 89.9247C230.995 89.9247 230.379 89.7557 229.862 89.4176C229.345 89.0795 228.947 88.6139 228.669 88.0206C228.39 87.4273 228.251 86.7495 228.251 85.9872C228.251 85.2116 228.394 84.5272 228.679 83.9339C228.967 83.3374 229.368 82.8717 229.882 82.5369C230.399 82.1989 231.002 82.0298 231.691 82.0298C232.228 82.0298 232.712 82.1293 233.143 82.3281C233.574 82.527 233.927 82.8054 234.202 83.1634C234.477 83.5213 234.648 83.9389 234.714 84.4162H233.541C233.451 84.0682 233.252 83.7599 232.944 83.4915C232.639 83.2197 232.228 83.0838 231.711 83.0838C231.254 83.0838 230.853 83.2031 230.508 83.4418C230.167 83.6771 229.9 84.0102 229.708 84.4411C229.519 84.8686 229.424 85.3707 229.424 85.9474C229.424 86.5374 229.517 87.0511 229.703 87.4886C229.892 87.9261 230.157 88.2659 230.498 88.5078C230.843 88.7498 231.247 88.8707 231.711 88.8707C232.016 88.8707 232.293 88.8177 232.542 88.7116C232.79 88.6056 233.001 88.4531 233.173 88.2543C233.345 88.0554 233.468 87.8168 233.541 87.5384H234.714C234.648 87.9891 234.484 88.3951 234.222 88.7564C233.963 89.1143 233.62 89.3994 233.193 89.6115C232.769 89.8203 232.275 89.9247 231.711 89.9247ZM239.631 89.9247C238.895 89.9247 238.261 89.7623 237.727 89.4375C237.197 89.1094 236.787 88.652 236.499 88.0653C236.214 87.4754 236.071 86.7893 236.071 86.0071C236.071 85.2249 236.214 84.5355 236.499 83.9389C236.787 83.339 237.188 82.8717 237.702 82.5369C238.219 82.1989 238.822 82.0298 239.512 82.0298C239.909 82.0298 240.302 82.0961 240.69 82.2287C241.078 82.3613 241.431 82.5767 241.749 82.875C242.067 83.17 242.321 83.5611 242.51 84.0483C242.699 84.5355 242.793 85.1354 242.793 85.848V86.3452H236.907V85.331H241.6C241.6 84.9001 241.514 84.5156 241.341 84.1776C241.172 83.8395 240.93 83.5727 240.615 83.3771C240.304 83.1816 239.936 83.0838 239.512 83.0838C239.044 83.0838 238.64 83.1998 238.299 83.4318C237.961 83.6605 237.7 83.9588 237.518 84.3267C237.336 84.6946 237.245 85.089 237.245 85.5099V86.1861C237.245 86.7628 237.344 87.2517 237.543 87.6527C237.745 88.0504 238.025 88.3537 238.383 88.5625C238.741 88.768 239.157 88.8707 239.631 88.8707C239.939 88.8707 240.218 88.8277 240.466 88.7415C240.718 88.652 240.935 88.5194 241.118 88.3438C241.3 88.1648 241.441 87.9427 241.54 87.6776L242.674 87.9957C242.554 88.3802 242.354 88.7183 242.072 89.0099C241.79 89.2983 241.442 89.5237 241.028 89.6861C240.614 89.8452 240.148 89.9247 239.631 89.9247ZM244.578 89.7656V82.1293H245.751V89.7656H244.578ZM245.174 80.8565C244.946 80.8565 244.748 80.7786 244.583 80.6229C244.42 80.4671 244.339 80.2798 244.339 80.0611C244.339 79.8423 244.42 79.6551 244.583 79.4993C244.748 79.3435 244.946 79.2656 245.174 79.2656C245.403 79.2656 245.599 79.3435 245.761 79.4993C245.927 79.6551 246.01 79.8423 246.01 80.0611C246.01 80.2798 245.927 80.4671 245.761 80.6229C245.599 80.7786 245.403 80.8565 245.174 80.8565ZM254.144 82.1293L251.32 89.7656H250.127L247.303 82.1293H248.576L250.684 88.2145H250.764L252.872 82.1293H254.144ZM258.621 89.9247C257.885 89.9247 257.251 89.7623 256.717 89.4375C256.187 89.1094 255.778 88.652 255.489 88.0653C255.204 87.4754 255.062 86.7893 255.062 86.0071C255.062 85.2249 255.204 84.5355 255.489 83.9389C255.778 83.339 256.179 82.8717 256.692 82.5369C257.209 82.1989 257.813 82.0298 258.502 82.0298C258.9 82.0298 259.292 82.0961 259.68 82.2287C260.068 82.3613 260.421 82.5767 260.739 82.875C261.057 83.17 261.311 83.5611 261.5 84.0483C261.689 84.5355 261.783 85.1354 261.783 85.848V86.3452H255.897V85.331H260.59C260.59 84.9001 260.504 84.5156 260.331 84.1776C260.162 83.8395 259.921 83.5727 259.606 83.3771C259.294 83.1816 258.926 83.0838 258.502 83.0838C258.035 83.0838 257.63 83.1998 257.289 83.4318C256.951 83.6605 256.691 83.9588 256.508 84.3267C256.326 84.6946 256.235 85.089 256.235 85.5099V86.1861C256.235 86.7628 256.334 87.2517 256.533 87.6527C256.735 88.0504 257.015 88.3537 257.373 88.5625C257.731 88.768 258.147 88.8707 258.621 88.8707C258.93 88.8707 259.208 88.8277 259.456 88.7415C259.708 88.652 259.925 88.5194 260.108 88.3438C260.29 88.1648 260.431 87.9427 260.53 87.6776L261.664 87.9957C261.545 88.3802 261.344 88.7183 261.062 89.0099C260.781 89.2983 260.433 89.5237 260.018 89.6861C259.604 89.8452 259.138 89.9247 258.621 89.9247ZM270.827 82.1293V83.1236H266.869V82.1293H270.827ZM268.023 80.2997H269.196V87.5781C269.196 87.9096 269.244 88.1581 269.34 88.3239C269.439 88.4863 269.565 88.5956 269.718 88.652C269.874 88.705 270.038 88.7315 270.21 88.7315C270.339 88.7315 270.445 88.7249 270.528 88.7116C270.611 88.6951 270.677 88.6818 270.727 88.6719L270.966 89.7259C270.886 89.7557 270.775 89.7855 270.633 89.8153C270.49 89.8485 270.309 89.8651 270.091 89.8651C269.759 89.8651 269.434 89.7938 269.116 89.6513C268.801 89.5088 268.54 89.2917 268.331 89C268.125 88.7083 268.023 88.3404 268.023 87.8963V80.2997ZM272.591 89.7656V82.1293H273.725V83.2827H273.805C273.944 82.9048 274.196 82.5982 274.56 82.3629C274.925 82.1276 275.336 82.0099 275.793 82.0099C275.879 82.0099 275.987 82.0116 276.116 82.0149C276.246 82.0182 276.343 82.0232 276.41 82.0298V83.223C276.37 83.2131 276.279 83.1982 276.136 83.1783C275.997 83.1551 275.849 83.1435 275.694 83.1435C275.323 83.1435 274.991 83.2214 274.699 83.3771C274.411 83.5296 274.182 83.7417 274.013 84.0135C273.848 84.282 273.765 84.5885 273.765 84.9332V89.7656H272.591ZM280.77 89.9247C280.034 89.9247 279.399 89.7623 278.866 89.4375C278.335 89.1094 277.926 88.652 277.638 88.0653C277.353 87.4754 277.21 86.7893 277.21 86.0071C277.21 85.2249 277.353 84.5355 277.638 83.9389C277.926 83.339 278.327 82.8717 278.841 82.5369C279.358 82.1989 279.961 82.0298 280.65 82.0298C281.048 82.0298 281.441 82.0961 281.829 82.2287C282.216 82.3613 282.569 82.5767 282.888 82.875C283.206 83.17 283.459 83.5611 283.648 84.0483C283.837 84.5355 283.932 85.1354 283.932 85.848V86.3452H278.045V85.331H282.738C282.738 84.9001 282.652 84.5156 282.48 84.1776C282.311 83.8395 282.069 83.5727 281.754 83.3771C281.443 83.1816 281.075 83.0838 280.65 83.0838C280.183 83.0838 279.779 83.1998 279.437 83.4318C279.099 83.6605 278.839 83.9588 278.657 84.3267C278.474 84.6946 278.383 85.089 278.383 85.5099V86.1861C278.383 86.7628 278.483 87.2517 278.682 87.6527C278.884 88.0504 279.164 88.3537 279.522 88.5625C279.88 88.768 280.296 88.8707 280.77 88.8707C281.078 88.8707 281.356 88.8277 281.605 88.7415C281.857 88.652 282.074 88.5194 282.256 88.3438C282.439 88.1648 282.579 87.9427 282.679 87.6776L283.812 87.9957C283.693 88.3802 283.492 88.7183 283.211 89.0099C282.929 89.2983 282.581 89.5237 282.167 89.6861C281.752 89.8452 281.287 89.9247 280.77 89.9247ZM287.964 89.9446C287.48 89.9446 287.041 89.8535 286.646 89.6712C286.252 89.4856 285.939 89.2188 285.706 88.8707C285.474 88.5194 285.358 88.0952 285.358 87.598C285.358 87.1605 285.445 86.8059 285.617 86.5341C285.789 86.259 286.02 86.0436 286.308 85.8878C286.596 85.732 286.915 85.616 287.263 85.5398C287.614 85.4602 287.967 85.3973 288.322 85.3509C288.786 85.2912 289.162 85.2464 289.45 85.2166C289.742 85.1835 289.954 85.1288 290.086 85.0526C290.222 84.9763 290.29 84.8437 290.29 84.6548V84.6151C290.29 84.1245 290.156 83.7434 289.888 83.4716C289.622 83.1998 289.22 83.0639 288.68 83.0639C288.119 83.0639 287.68 83.1866 287.362 83.4318C287.044 83.6771 286.82 83.9389 286.691 84.2173L285.577 83.8196C285.776 83.3556 286.041 82.9943 286.373 82.7358C286.707 82.474 287.072 82.2917 287.466 82.1889C287.864 82.0829 288.255 82.0298 288.64 82.0298C288.885 82.0298 289.167 82.0597 289.485 82.1193C289.806 82.1757 290.116 82.2933 290.415 82.4723C290.716 82.6513 290.966 82.9214 291.165 83.2827C291.364 83.6439 291.464 84.1278 291.464 84.7344V89.7656H290.29V88.7315H290.231C290.151 88.8973 290.019 89.0746 289.833 89.2635C289.647 89.4524 289.4 89.6132 289.092 89.7457C288.784 89.8783 288.408 89.9446 287.964 89.9446ZM288.143 88.8906C288.607 88.8906 288.998 88.7995 289.316 88.6172C289.637 88.4349 289.879 88.1996 290.042 87.9112C290.207 87.6229 290.29 87.3196 290.29 87.0014V85.9276C290.241 85.9872 290.131 86.0419 289.962 86.0916C289.796 86.138 289.604 86.1795 289.385 86.2159C289.17 86.2491 288.96 86.2789 288.754 86.3054C288.552 86.3286 288.388 86.3485 288.262 86.3651C287.957 86.4048 287.672 86.4695 287.407 86.5589C287.145 86.6451 286.933 86.776 286.77 86.9517C286.611 87.1241 286.532 87.3594 286.532 87.6577C286.532 88.0653 286.683 88.3736 286.984 88.5824C287.289 88.7879 287.675 88.8906 288.143 88.8906ZM296.926 82.1293V83.1236H292.969V82.1293H296.926ZM294.122 80.2997H295.295V87.5781C295.295 87.9096 295.344 88.1581 295.44 88.3239C295.539 88.4863 295.665 88.5956 295.817 88.652C295.973 88.705 296.137 88.7315 296.31 88.7315C296.439 88.7315 296.545 88.7249 296.628 88.7116C296.711 88.6951 296.777 88.6818 296.827 88.6719L297.065 89.7259C296.986 89.7557 296.875 89.7855 296.732 89.8153C296.59 89.8485 296.409 89.8651 296.19 89.8651C295.859 89.8651 295.534 89.7938 295.216 89.6513C294.901 89.5088 294.639 89.2917 294.43 89C294.225 88.7083 294.122 88.3404 294.122 87.8963V80.2997ZM298.691 89.7656V82.1293H299.825V83.3224H299.924C300.083 82.9148 300.34 82.5982 300.695 82.3729C301.049 82.1442 301.475 82.0298 301.972 82.0298C302.476 82.0298 302.895 82.1442 303.23 82.3729C303.568 82.5982 303.832 82.9148 304.021 83.3224H304.1C304.296 82.928 304.589 82.6148 304.98 82.3828C305.371 82.1475 305.84 82.0298 306.387 82.0298C307.07 82.0298 307.628 82.2436 308.062 82.6712C308.497 83.0954 308.714 83.7566 308.714 84.6548V89.7656H307.54V84.6548C307.54 84.0914 307.386 83.6887 307.078 83.4467C306.77 83.2048 306.407 83.0838 305.989 83.0838C305.452 83.0838 305.036 83.2462 304.741 83.571C304.446 83.8925 304.299 84.3002 304.299 84.794V89.7656H303.106V84.5355C303.106 84.1013 302.965 83.7517 302.683 83.4865C302.402 83.218 302.039 83.0838 301.594 83.0838C301.29 83.0838 301.004 83.165 300.739 83.3274C300.478 83.4898 300.265 83.7152 300.103 84.0036C299.944 84.2886 299.864 84.6184 299.864 84.9929V89.7656H298.691ZM314.061 89.9247C313.325 89.9247 312.69 89.7623 312.157 89.4375C311.626 89.1094 311.217 88.652 310.929 88.0653C310.644 87.4754 310.501 86.7893 310.501 86.0071C310.501 85.2249 310.644 84.5355 310.929 83.9389C311.217 83.339 311.618 82.8717 312.132 82.5369C312.649 82.1989 313.252 82.0298 313.941 82.0298C314.339 82.0298 314.732 82.0961 315.12 82.2287C315.507 82.3613 315.86 82.5767 316.179 82.875C316.497 83.17 316.75 83.5611 316.939 84.0483C317.128 84.5355 317.223 85.1354 317.223 85.848V86.3452H311.336V85.331H316.029C316.029 84.9001 315.943 84.5156 315.771 84.1776C315.602 83.8395 315.36 83.5727 315.045 83.3771C314.734 83.1816 314.366 83.0838 313.941 83.0838C313.474 83.0838 313.07 83.1998 312.728 83.4318C312.39 83.6605 312.13 83.9588 311.948 84.3267C311.766 84.6946 311.674 85.089 311.674 85.5099V86.1861C311.674 86.7628 311.774 87.2517 311.973 87.6527C312.175 88.0504 312.455 88.3537 312.813 88.5625C313.171 88.768 313.587 88.8707 314.061 88.8707C314.369 88.8707 314.647 88.8277 314.896 88.7415C315.148 88.652 315.365 88.5194 315.547 88.3438C315.73 88.1648 315.87 87.9427 315.97 87.6776L317.103 87.9957C316.984 88.3802 316.783 88.7183 316.502 89.0099C316.22 89.2983 315.872 89.5237 315.458 89.6861C315.043 89.8452 314.578 89.9247 314.061 89.9247ZM320.181 85.1719V89.7656H319.007V82.1293H320.141V83.3224H320.24C320.419 82.9347 320.691 82.6231 321.056 82.3878C321.42 82.1491 321.891 82.0298 322.468 82.0298C322.985 82.0298 323.437 82.1359 323.825 82.348C324.213 82.5568 324.514 82.875 324.73 83.3026C324.945 83.7268 325.053 84.2637 325.053 84.9134V89.7656H323.88V84.9929C323.88 84.393 323.724 83.9257 323.412 83.5909C323.101 83.2528 322.673 83.0838 322.13 83.0838C321.755 83.0838 321.42 83.165 321.125 83.3274C320.834 83.4898 320.603 83.7268 320.434 84.0384C320.265 84.3499 320.181 84.7277 320.181 85.1719ZM330.518 82.1293V83.1236H326.561V82.1293H330.518ZM327.714 80.2997H328.887V87.5781C328.887 87.9096 328.935 88.1581 329.031 88.3239C329.131 88.4863 329.257 88.5956 329.409 88.652C329.565 88.705 329.729 88.7315 329.901 88.7315C330.031 88.7315 330.137 88.7249 330.22 88.7116C330.302 88.6951 330.369 88.6818 330.419 88.6719L330.657 89.7259C330.578 89.7557 330.467 89.7855 330.324 89.8153C330.182 89.8485 330.001 89.8651 329.782 89.8651C329.451 89.8651 329.126 89.7938 328.808 89.6513C328.493 89.5088 328.231 89.2917 328.022 89C327.817 88.7083 327.714 88.3404 327.714 87.8963V80.2997ZM14.3434 106.766V99.1293H15.5167V106.766H14.3434ZM14.94 97.8565C14.7113 97.8565 14.5141 97.7786 14.3484 97.6229C14.186 97.4671 14.1048 97.2798 14.1048 97.0611C14.1048 96.8423 14.186 96.6551 14.3484 96.4993C14.5141 96.3435 14.7113 96.2656 14.94 96.2656C15.1687 96.2656 15.3642 96.3435 15.5266 96.4993C15.6924 96.6551 15.7752 96.8423 15.7752 97.0611C15.7752 97.2798 15.6924 97.4671 15.5266 97.6229C15.3642 97.7786 15.1687 97.8565 14.94 97.8565ZM18.839 102.172V106.766H17.6657V99.1293H18.7992V100.322H18.8986C19.0776 99.9347 19.3494 99.6231 19.714 99.3878C20.0785 99.1491 20.5492 99.0298 21.1259 99.0298C21.6429 99.0298 22.0953 99.1359 22.4831 99.348C22.8709 99.5568 23.1725 99.875 23.388 100.303C23.6034 100.727 23.7111 101.264 23.7111 101.913V106.766H22.5378V101.993C22.5378 101.393 22.382 100.926 22.0705 100.591C21.7589 100.253 21.3314 100.084 20.7878 100.084C20.4133 100.084 20.0785 100.165 19.7836 100.327C19.4919 100.49 19.2615 100.727 19.0925 101.038C18.9235 101.35 18.839 101.728 18.839 102.172ZM32.0398 106.945C31.5559 106.945 31.1167 106.853 30.7223 106.671C30.3279 106.486 30.0147 106.219 29.7827 105.871C29.5507 105.519 29.4347 105.095 29.4347 104.598C29.4347 104.161 29.5208 103.806 29.6932 103.534C29.8655 103.259 30.0959 103.044 30.3842 102.888C30.6726 102.732 30.9908 102.616 31.3388 102.54C31.6901 102.46 32.0431 102.397 32.3977 102.351C32.8617 102.291 33.2379 102.246 33.5263 102.217C33.8179 102.183 34.0301 102.129 34.1626 102.053C34.2985 101.976 34.3665 101.844 34.3665 101.655V101.615C34.3665 101.125 34.2322 100.743 33.9638 100.472C33.6986 100.2 33.2959 100.064 32.7557 100.064C32.1955 100.064 31.7564 100.187 31.4382 100.432C31.12 100.677 30.8963 100.939 30.767 101.217L29.6534 100.82C29.8523 100.356 30.1174 99.9943 30.4489 99.7358C30.7836 99.474 31.1482 99.2917 31.5426 99.1889C31.9403 99.0829 32.3314 99.0298 32.7159 99.0298C32.9612 99.0298 33.2429 99.0597 33.5611 99.1193C33.8826 99.1757 34.1925 99.2933 34.4908 99.4723C34.7924 99.6513 35.0426 99.9214 35.2415 100.283C35.4403 100.644 35.5398 101.128 35.5398 101.734V106.766H34.3665V105.732H34.3068C34.2273 105.897 34.0947 106.075 33.9091 106.263C33.7235 106.452 33.4766 106.613 33.1683 106.746C32.8601 106.878 32.4839 106.945 32.0398 106.945ZM32.2188 105.891C32.6828 105.891 33.0739 105.799 33.392 105.617C33.7135 105.435 33.9555 105.2 34.1179 104.911C34.2836 104.623 34.3665 104.32 34.3665 104.001V102.928C34.3168 102.987 34.2074 103.042 34.0384 103.092C33.8726 103.138 33.6804 103.179 33.4616 103.216C33.2462 103.249 33.0357 103.279 32.8303 103.305C32.6281 103.329 32.464 103.348 32.3381 103.365C32.0331 103.405 31.7481 103.469 31.483 103.559C31.2211 103.645 31.009 103.776 30.8466 103.952C30.6875 104.124 30.608 104.359 30.608 104.658C30.608 105.065 30.7588 105.374 31.0604 105.582C31.3653 105.788 31.7514 105.891 32.2188 105.891ZM44.7211 106.925C44.0051 106.925 43.3887 106.756 42.8716 106.418C42.3546 106.08 41.9569 105.614 41.6784 105.021C41.4 104.427 41.2608 103.75 41.2608 102.987C41.2608 102.212 41.4033 101.527 41.6884 100.934C41.9767 100.337 42.3778 99.8717 42.8915 99.5369C43.4086 99.1989 44.0118 99.0298 44.7012 99.0298C45.2381 99.0298 45.722 99.1293 46.1529 99.3281C46.5837 99.527 46.9367 99.8054 47.2118 100.163C47.4869 100.521 47.6576 100.939 47.7239 101.416H46.5506C46.4611 101.068 46.2623 100.76 45.954 100.491C45.6491 100.22 45.2381 100.084 44.7211 100.084C44.2637 100.084 43.8626 100.203 43.5179 100.442C43.1766 100.677 42.9097 101.01 42.7175 101.441C42.5286 101.869 42.4341 102.371 42.4341 102.947C42.4341 103.537 42.5269 104.051 42.7125 104.489C42.9015 104.926 43.1666 105.266 43.508 105.508C43.8527 105.75 44.257 105.871 44.7211 105.871C45.026 105.871 45.3027 105.818 45.5513 105.712C45.7999 105.606 46.0104 105.453 46.1827 105.254C46.3551 105.055 46.4777 104.817 46.5506 104.538H47.7239C47.6576 104.989 47.4935 105.395 47.2317 105.756C46.9732 106.114 46.6301 106.399 46.2026 106.612C45.7784 106.82 45.2845 106.925 44.7211 106.925ZM52.5414 106.925C51.852 106.925 51.2471 106.761 50.7267 106.433C50.2097 106.104 49.8053 105.645 49.5137 105.055C49.2253 104.465 49.0811 103.776 49.0811 102.987C49.0811 102.192 49.2253 101.497 49.5137 100.904C49.8053 100.311 50.2097 99.8501 50.7267 99.522C51.2471 99.1939 51.852 99.0298 52.5414 99.0298C53.2308 99.0298 53.834 99.1939 54.351 99.522C54.8714 99.8501 55.2757 100.311 55.5641 100.904C55.8558 101.497 56.0016 102.192 56.0016 102.987C56.0016 103.776 55.8558 104.465 55.5641 105.055C55.2757 105.645 54.8714 106.104 54.351 106.433C53.834 106.761 53.2308 106.925 52.5414 106.925ZM52.5414 105.871C53.065 105.871 53.4959 105.737 53.834 105.468C54.1721 105.2 54.4223 104.847 54.5847 104.409C54.7471 103.972 54.8283 103.498 54.8283 102.987C54.8283 102.477 54.7471 102.001 54.5847 101.56C54.4223 101.12 54.1721 100.763 53.834 100.491C53.4959 100.22 53.065 100.084 52.5414 100.084C52.0177 100.084 51.5868 100.22 51.2488 100.491C50.9107 100.763 50.6605 101.12 50.498 101.56C50.3356 102.001 50.2544 102.477 50.2544 102.987C50.2544 103.498 50.3356 103.972 50.498 104.409C50.6605 104.847 50.9107 105.2 51.2488 105.468C51.5868 105.737 52.0177 105.871 52.5414 105.871ZM57.7926 106.766V99.1293H58.9261V100.322H59.0256C59.1847 99.9148 59.4415 99.5982 59.7962 99.3729C60.1508 99.1442 60.5767 99.0298 61.0739 99.0298C61.5777 99.0298 61.9969 99.1442 62.3317 99.3729C62.6697 99.5982 62.9332 99.9148 63.1222 100.322H63.2017C63.3973 99.928 63.6906 99.6148 64.0817 99.3828C64.4728 99.1475 64.9418 99.0298 65.4886 99.0298C66.1714 99.0298 66.7299 99.2436 67.1641 99.6712C67.5982 100.095 67.8153 100.757 67.8153 101.655V106.766H66.642V101.655C66.642 101.091 66.4879 100.689 66.1797 100.447C65.8714 100.205 65.5085 100.084 65.0909 100.084C64.554 100.084 64.138 100.246 63.843 100.571C63.5481 100.893 63.4006 101.3 63.4006 101.794V106.766H62.2074V101.536C62.2074 101.101 62.0665 100.752 61.7848 100.487C61.5031 100.218 61.1402 100.084 60.696 100.084C60.3911 100.084 60.1061 100.165 59.8409 100.327C59.5791 100.49 59.367 100.715 59.2045 101.004C59.0455 101.289 58.9659 101.618 58.9659 101.993V106.766H57.7926ZM73.3612 99.1293V100.124H69.2447V99.1293H73.3612ZM70.4776 106.766V98.0753C70.4776 97.6378 70.5804 97.2732 70.7859 96.9815C70.9914 96.6899 71.2582 96.4711 71.5863 96.3253C71.9144 96.1795 72.2608 96.1065 72.6254 96.1065C72.9137 96.1065 73.149 96.1297 73.3313 96.1761C73.5136 96.2225 73.6495 96.2656 73.739 96.3054L73.4009 97.3196C73.3413 97.2997 73.2584 97.2749 73.1523 97.245C73.0496 97.2152 72.9137 97.2003 72.7447 97.2003C72.3569 97.2003 72.0768 97.2981 71.9045 97.4936C71.7354 97.6892 71.6509 97.9759 71.6509 98.3537V106.766H70.4776ZM77.7933 106.925C77.1039 106.925 76.4991 106.761 75.9787 106.433C75.4616 106.104 75.0573 105.645 74.7656 105.055C74.4773 104.465 74.3331 103.776 74.3331 102.987C74.3331 102.192 74.4773 101.497 74.7656 100.904C75.0573 100.311 75.4616 99.8501 75.9787 99.522C76.4991 99.1939 77.1039 99.0298 77.7933 99.0298C78.4827 99.0298 79.0859 99.1939 79.603 99.522C80.1233 99.8501 80.5277 100.311 80.8161 100.904C81.1077 101.497 81.2536 102.192 81.2536 102.987C81.2536 103.776 81.1077 104.465 80.8161 105.055C80.5277 105.645 80.1233 106.104 79.603 106.433C79.0859 106.761 78.4827 106.925 77.7933 106.925ZM77.7933 105.871C78.317 105.871 78.7479 105.737 79.0859 105.468C79.424 105.2 79.6742 104.847 79.8366 104.409C79.9991 103.972 80.0803 103.498 80.0803 102.987C80.0803 102.477 79.9991 102.001 79.8366 101.56C79.6742 101.12 79.424 100.763 79.0859 100.491C78.7479 100.22 78.317 100.084 77.7933 100.084C77.2696 100.084 76.8388 100.22 76.5007 100.491C76.1626 100.763 75.9124 101.12 75.75 101.56C75.5876 102.001 75.5064 102.477 75.5064 102.987C75.5064 103.498 75.5876 103.972 75.75 104.409C75.9124 104.847 76.1626 105.2 76.5007 105.468C76.8388 105.737 77.2696 105.871 77.7933 105.871ZM83.0446 106.766V99.1293H84.1781V100.283H84.2576C84.3968 99.9048 84.6487 99.5982 85.0133 99.3629C85.3779 99.1276 85.7889 99.0099 86.2463 99.0099C86.3324 99.0099 86.4402 99.0116 86.5694 99.0149C86.6987 99.0182 86.7965 99.0232 86.8627 99.0298V100.223C86.823 100.213 86.7318 100.198 86.5893 100.178C86.4501 100.155 86.3026 100.143 86.1468 100.143C85.7756 100.143 85.4442 100.221 85.1525 100.377C84.8642 100.53 84.6355 100.742 84.4664 101.013C84.3007 101.282 84.2179 101.589 84.2179 101.933V106.766H83.0446ZM92.0531 99.1293V100.124H88.0957V99.1293H92.0531ZM89.2491 97.2997H90.4224V104.578C90.4224 104.91 90.4705 105.158 90.5666 105.324C90.666 105.486 90.792 105.596 90.9444 105.652C91.1002 105.705 91.2643 105.732 91.4366 105.732C91.5659 105.732 91.6719 105.725 91.7548 105.712C91.8377 105.695 91.9039 105.682 91.9537 105.672L92.1923 106.726C92.1127 106.756 92.0017 106.786 91.8592 106.815C91.7167 106.848 91.536 106.865 91.3173 106.865C90.9859 106.865 90.661 106.794 90.3429 106.651C90.028 106.509 89.7662 106.292 89.5574 106C89.3519 105.708 89.2491 105.34 89.2491 104.896V97.2997ZM96.0652 106.945C95.5813 106.945 95.1421 106.853 94.7477 106.671C94.3533 106.486 94.0401 106.219 93.8081 105.871C93.5761 105.519 93.46 105.095 93.46 104.598C93.46 104.161 93.5462 103.806 93.7186 103.534C93.8909 103.259 94.1213 103.044 94.4096 102.888C94.698 102.732 95.0162 102.616 95.3642 102.54C95.7155 102.46 96.0685 102.397 96.4231 102.351C96.8871 102.291 97.2633 102.246 97.5517 102.217C97.8433 102.183 98.0555 102.129 98.188 102.053C98.3239 101.976 98.3919 101.844 98.3919 101.655V101.615C98.3919 101.125 98.2576 100.743 97.9892 100.472C97.724 100.2 97.3213 100.064 96.7811 100.064C96.2209 100.064 95.7818 100.187 95.4636 100.432C95.1454 100.677 94.9217 100.939 94.7924 101.217L93.6788 100.82C93.8777 100.356 94.1428 99.9943 94.4743 99.7358C94.809 99.474 95.1736 99.2917 95.568 99.1889C95.9657 99.0829 96.3568 99.0298 96.7413 99.0298C96.9866 99.0298 97.2683 99.0597 97.5865 99.1193C97.908 99.1757 98.2179 99.2933 98.5162 99.4723C98.8178 99.6513 99.068 99.9214 99.2669 100.283C99.4657 100.644 99.5652 101.128 99.5652 101.734V106.766H98.3919V105.732H98.3322C98.2527 105.897 98.1201 106.075 97.9345 106.263C97.7489 106.452 97.502 106.613 97.1937 106.746C96.8855 106.878 96.5093 106.945 96.0652 106.945ZM96.2441 105.891C96.7082 105.891 97.0993 105.799 97.4174 105.617C97.7389 105.435 97.9809 105.2 98.1433 104.911C98.309 104.623 98.3919 104.32 98.3919 104.001V102.928C98.3422 102.987 98.2328 103.042 98.0637 103.092C97.898 103.138 97.7058 103.179 97.487 103.216C97.2716 103.249 97.0611 103.279 96.8556 103.305C96.6535 103.329 96.4894 103.348 96.3635 103.365C96.0585 103.405 95.7735 103.469 95.5083 103.559C95.2465 103.645 95.0344 103.776 94.872 103.952C94.7129 104.124 94.6333 104.359 94.6333 104.658C94.6333 105.065 94.7842 105.374 95.0858 105.582C95.3907 105.788 95.7768 105.891 96.2441 105.891ZM101.866 106.766V96.5838H103.039V100.342H103.138C103.225 100.21 103.344 100.041 103.496 99.8352C103.652 99.6264 103.874 99.4408 104.163 99.2784C104.454 99.1127 104.849 99.0298 105.346 99.0298C105.989 99.0298 106.556 99.1906 107.046 99.5121C107.537 99.8336 107.92 100.289 108.195 100.879C108.47 101.469 108.607 102.165 108.607 102.967C108.607 103.776 108.47 104.477 108.195 105.07C107.92 105.66 107.538 106.118 107.051 106.442C106.564 106.764 106.002 106.925 105.366 106.925C104.875 106.925 104.482 106.844 104.188 106.681C103.893 106.515 103.665 106.328 103.506 106.119C103.347 105.907 103.225 105.732 103.138 105.592H102.999V106.766H101.866ZM103.019 102.947C103.019 103.524 103.104 104.033 103.273 104.474C103.442 104.911 103.689 105.254 104.013 105.503C104.338 105.748 104.736 105.871 105.207 105.871C105.697 105.871 106.107 105.741 106.435 105.483C106.766 105.221 107.015 104.87 107.18 104.429C107.349 103.985 107.434 103.491 107.434 102.947C107.434 102.411 107.351 101.927 107.185 101.496C107.023 101.062 106.776 100.719 106.445 100.467C106.116 100.211 105.704 100.084 105.207 100.084C104.729 100.084 104.328 100.205 104.004 100.447C103.679 100.685 103.433 101.02 103.268 101.451C103.102 101.879 103.019 102.377 103.019 102.947ZM111.575 96.5838V106.766H110.402V96.5838H111.575ZM116.926 106.925C116.19 106.925 115.555 106.762 115.022 106.438C114.492 106.109 114.082 105.652 113.794 105.065C113.509 104.475 113.366 103.789 113.366 103.007C113.366 102.225 113.509 101.536 113.794 100.939C114.082 100.339 114.483 99.8717 114.997 99.5369C115.514 99.1989 116.117 99.0298 116.807 99.0298C117.204 99.0298 117.597 99.0961 117.985 99.2287C118.373 99.3613 118.726 99.5767 119.044 99.875C119.362 100.17 119.616 100.561 119.805 101.048C119.993 101.536 120.088 102.135 120.088 102.848V103.345H114.202V102.331H118.895C118.895 101.9 118.809 101.516 118.636 101.178C118.467 100.839 118.225 100.573 117.91 100.377C117.599 100.182 117.231 100.084 116.807 100.084C116.339 100.084 115.935 100.2 115.594 100.432C115.256 100.661 114.995 100.959 114.813 101.327C114.631 101.695 114.54 102.089 114.54 102.51V103.186C114.54 103.763 114.639 104.252 114.838 104.653C115.04 105.05 115.32 105.354 115.678 105.562C116.036 105.768 116.452 105.871 116.926 105.871C117.234 105.871 117.513 105.828 117.761 105.741C118.013 105.652 118.23 105.519 118.412 105.344C118.595 105.165 118.736 104.943 118.835 104.678L119.969 104.996C119.849 105.38 119.649 105.718 119.367 106.01C119.085 106.298 118.737 106.524 118.323 106.686C117.909 106.845 117.443 106.925 116.926 106.925ZM129.012 106.925C128.276 106.925 127.641 106.762 127.108 106.438C126.577 106.109 126.168 105.652 125.88 105.065C125.595 104.475 125.452 103.789 125.452 103.007C125.452 102.225 125.595 101.536 125.88 100.939C126.168 100.339 126.569 99.8717 127.083 99.5369C127.6 99.1989 128.203 99.0298 128.893 99.0298C129.29 99.0298 129.683 99.0961 130.071 99.2287C130.459 99.3613 130.812 99.5767 131.13 99.875C131.448 100.17 131.702 100.561 131.89 101.048C132.079 101.536 132.174 102.135 132.174 102.848V103.345H126.287V102.331H130.981C130.981 101.9 130.894 101.516 130.722 101.178C130.553 100.839 130.311 100.573 129.996 100.377C129.685 100.182 129.317 100.084 128.893 100.084C128.425 100.084 128.021 100.2 127.68 100.432C127.341 100.661 127.081 100.959 126.899 101.327C126.717 101.695 126.626 102.089 126.626 102.51V103.186C126.626 103.763 126.725 104.252 126.924 104.653C127.126 105.05 127.406 105.354 127.764 105.562C128.122 105.768 128.538 105.871 129.012 105.871C129.32 105.871 129.599 105.828 129.847 105.741C130.099 105.652 130.316 105.519 130.498 105.344C130.681 105.165 130.822 104.943 130.921 104.678L132.055 104.996C131.935 105.38 131.735 105.718 131.453 106.01C131.171 106.298 130.823 106.524 130.409 106.686C129.995 106.845 129.529 106.925 129.012 106.925ZM135.132 102.172V106.766H133.959V99.1293H135.092V100.322H135.192C135.371 99.9347 135.642 99.6231 136.007 99.3878C136.372 99.1491 136.842 99.0298 137.419 99.0298C137.936 99.0298 138.388 99.1359 138.776 99.348C139.164 99.5568 139.465 99.875 139.681 100.303C139.896 100.727 140.004 101.264 140.004 101.913V106.766H138.831V101.993C138.831 101.393 138.675 100.926 138.363 100.591C138.052 100.253 137.624 100.084 137.081 100.084C136.706 100.084 136.372 100.165 136.077 100.327C135.785 100.49 135.555 100.727 135.385 101.038C135.216 101.35 135.132 101.728 135.132 102.172ZM148.119 99.1293L145.295 106.766H144.102L141.278 99.1293H142.551L144.659 105.214H144.738L146.846 99.1293H148.119ZM149.668 106.766V99.1293H150.841V106.766H149.668ZM150.264 97.8565C150.036 97.8565 149.838 97.7786 149.673 97.6229C149.51 97.4671 149.429 97.2798 149.429 97.0611C149.429 96.8423 149.51 96.6551 149.673 96.4993C149.838 96.3435 150.036 96.2656 150.264 96.2656C150.493 96.2656 150.688 96.3435 150.851 96.4993C151.017 96.6551 151.099 96.8423 151.099 97.0611C151.099 97.2798 151.017 97.4671 150.851 97.6229C150.688 97.7786 150.493 97.8565 150.264 97.8565ZM152.99 106.766V99.1293H154.123V100.283H154.203C154.342 99.9048 154.594 99.5982 154.959 99.3629C155.323 99.1276 155.734 99.0099 156.192 99.0099C156.278 99.0099 156.385 99.0116 156.515 99.0149C156.644 99.0182 156.742 99.0232 156.808 99.0298V100.223C156.768 100.213 156.677 100.198 156.535 100.178C156.395 100.155 156.248 100.143 156.092 100.143C155.721 100.143 155.39 100.221 155.098 100.377C154.809 100.53 154.581 100.742 154.412 101.013C154.246 101.282 154.163 101.589 154.163 101.933V106.766H152.99ZM161.069 106.925C160.379 106.925 159.774 106.761 159.254 106.433C158.737 106.104 158.333 105.645 158.041 105.055C157.753 104.465 157.608 103.776 157.608 102.987C157.608 102.192 157.753 101.497 158.041 100.904C158.333 100.311 158.737 99.8501 159.254 99.522C159.774 99.1939 160.379 99.0298 161.069 99.0298C161.758 99.0298 162.361 99.1939 162.878 99.522C163.399 99.8501 163.803 100.311 164.091 100.904C164.383 101.497 164.529 102.192 164.529 102.987C164.529 103.776 164.383 104.465 164.091 105.055C163.803 105.645 163.399 106.104 162.878 106.433C162.361 106.761 161.758 106.925 161.069 106.925ZM161.069 105.871C161.592 105.871 162.023 105.737 162.361 105.468C162.699 105.2 162.95 104.847 163.112 104.409C163.274 103.972 163.356 103.498 163.356 102.987C163.356 102.477 163.274 102.001 163.112 101.56C162.95 101.12 162.699 100.763 162.361 100.491C162.023 100.22 161.592 100.084 161.069 100.084C160.545 100.084 160.114 100.22 159.776 100.491C159.438 100.763 159.188 101.12 159.025 101.56C158.863 102.001 158.782 102.477 158.782 102.987C158.782 103.498 158.863 103.972 159.025 104.409C159.188 104.847 159.438 105.2 159.776 105.468C160.114 105.737 160.545 105.871 161.069 105.871ZM167.493 102.172V106.766H166.32V99.1293H167.453V100.322H167.553C167.732 99.9347 168.004 99.6231 168.368 99.3878C168.733 99.1491 169.203 99.0298 169.78 99.0298C170.297 99.0298 170.75 99.1359 171.137 99.348C171.525 99.5568 171.827 99.875 172.042 100.303C172.258 100.727 172.365 101.264 172.365 101.913V106.766H171.192V101.993C171.192 101.393 171.036 100.926 170.725 100.591C170.413 100.253 169.986 100.084 169.442 100.084C169.068 100.084 168.733 100.165 168.438 100.327C168.146 100.49 167.916 100.727 167.747 101.038C167.578 101.35 167.493 101.728 167.493 102.172ZM174.509 106.766V99.1293H175.643V100.322H175.742C175.901 99.9148 176.158 99.5982 176.513 99.3729C176.868 99.1442 177.294 99.0298 177.791 99.0298C178.294 99.0298 178.714 99.1442 179.048 99.3729C179.387 99.5982 179.65 99.9148 179.839 100.322H179.919C180.114 99.928 180.407 99.6148 180.798 99.3828C181.19 99.1475 181.659 99.0298 182.205 99.0298C182.888 99.0298 183.447 99.2436 183.881 99.6712C184.315 100.095 184.532 100.757 184.532 101.655V106.766H183.359V101.655C183.359 101.091 183.205 100.689 182.896 100.447C182.588 100.205 182.225 100.084 181.808 100.084C181.271 100.084 180.855 100.246 180.56 100.571C180.265 100.893 180.117 101.3 180.117 101.794V106.766H178.924V101.536C178.924 101.101 178.783 100.752 178.502 100.487C178.22 100.218 177.857 100.084 177.413 100.084C177.108 100.084 176.823 100.165 176.558 100.327C176.296 100.49 176.084 100.715 175.921 101.004C175.762 101.289 175.683 101.618 175.683 101.993V106.766H174.509ZM189.879 106.925C189.143 106.925 188.509 106.762 187.975 106.438C187.445 106.109 187.035 105.652 186.747 105.065C186.462 104.475 186.319 103.789 186.319 103.007C186.319 102.225 186.462 101.536 186.747 100.939C187.035 100.339 187.436 99.8717 187.95 99.5369C188.467 99.1989 189.07 99.0298 189.76 99.0298C190.157 99.0298 190.55 99.0961 190.938 99.2287C191.326 99.3613 191.679 99.5767 191.997 99.875C192.315 100.17 192.569 100.561 192.758 101.048C192.947 101.536 193.041 102.135 193.041 102.848V103.345H187.155V102.331H191.848C191.848 101.9 191.762 101.516 191.589 101.178C191.42 100.839 191.178 100.573 190.863 100.377C190.552 100.182 190.184 100.084 189.76 100.084C189.292 100.084 188.888 100.2 188.547 100.432C188.209 100.661 187.948 100.959 187.766 101.327C187.584 101.695 187.493 102.089 187.493 102.51V103.186C187.493 103.763 187.592 104.252 187.791 104.653C187.993 105.05 188.273 105.354 188.631 105.562C188.989 105.768 189.405 105.871 189.879 105.871C190.187 105.871 190.466 105.828 190.714 105.741C190.966 105.652 191.183 105.519 191.366 105.344C191.548 105.165 191.689 104.943 191.788 104.678L192.922 104.996C192.802 105.38 192.602 105.718 192.32 106.01C192.038 106.298 191.69 106.524 191.276 106.686C190.862 106.845 190.396 106.925 189.879 106.925ZM195.999 102.172V106.766H194.826V99.1293H195.959V100.322H196.059C196.238 99.9347 196.51 99.6231 196.874 99.3878C197.239 99.1491 197.709 99.0298 198.286 99.0298C198.803 99.0298 199.256 99.1359 199.643 99.348C200.031 99.5568 200.333 99.875 200.548 100.303C200.764 100.727 200.871 101.264 200.871 101.913V106.766H199.698V101.993C199.698 101.393 199.542 100.926 199.231 100.591C198.919 100.253 198.492 100.084 197.948 100.084C197.573 100.084 197.239 100.165 196.944 100.327C196.652 100.49 196.422 100.727 196.253 101.038C196.084 101.35 195.999 101.728 195.999 102.172ZM206.336 99.1293V100.124H202.379V99.1293H206.336ZM203.532 97.2997H204.706V104.578C204.706 104.91 204.754 105.158 204.85 105.324C204.949 105.486 205.075 105.596 205.228 105.652C205.383 105.705 205.547 105.732 205.72 105.732C205.849 105.732 205.955 105.725 206.038 105.712C206.121 105.695 206.187 105.682 206.237 105.672L206.475 106.726C206.396 106.756 206.285 106.786 206.142 106.815C206 106.848 205.819 106.865 205.6 106.865C205.269 106.865 204.944 106.794 204.626 106.651C204.311 106.509 204.049 106.292 203.841 106C203.635 105.708 203.532 105.34 203.532 104.896V97.2997ZM208.956 106.845C208.711 106.845 208.501 106.757 208.325 106.582C208.149 106.406 208.061 106.196 208.061 105.95C208.061 105.705 208.149 105.495 208.325 105.319C208.501 105.143 208.711 105.055 208.956 105.055C209.202 105.055 209.412 105.143 209.588 105.319C209.763 105.495 209.851 105.705 209.851 105.95C209.851 106.113 209.81 106.262 209.727 106.398C209.647 106.534 209.54 106.643 209.404 106.726C209.271 106.805 209.122 106.845 208.956 106.845Z" fill="#8F8F8F"/>
</svg>
