<svg width="349" height="220" viewBox="0 0 349 220" fill="none" xmlns="http://www.w3.org/2000/svg">
<path d="M41.0075 197.198H1V1H348V197.198H66.31H65.31V198.198V217.818L41.6603 197.441L41.3789 197.198H41.0075Z" fill="white" stroke="#B6B7BA" stroke-width="2"/>
<path d="M16.3519 72.7676L13.5678 62.5858H14.8207L16.9485 70.8784H17.0479L19.2156 62.5858H20.6076L22.7752 70.8784H22.8746L25.0025 62.5858H26.2553L23.4712 72.7676H22.1985L19.9513 64.6539H19.8718L17.6246 72.7676H16.3519ZM30.1232 72.9267C29.3874 72.9267 28.7527 72.7643 28.2191 72.4395C27.6888 72.1113 27.2795 71.6539 26.9911 71.0673C26.7061 70.4773 26.5636 69.7913 26.5636 69.0091C26.5636 68.2269 26.7061 67.5375 26.9911 66.9409C27.2795 66.341 27.6805 65.8736 28.1942 65.5389C28.7113 65.2008 29.3145 65.0318 30.0039 65.0318C30.4016 65.0318 30.7944 65.0981 31.1822 65.2306C31.57 65.3632 31.9229 65.5787 32.2411 65.877C32.5593 66.1719 32.8129 66.563 33.0018 67.0502C33.1907 67.5375 33.2852 68.1374 33.2852 68.85V69.3471H27.3988V68.3329H32.092C32.092 67.902 32.0058 67.5176 31.8335 67.1795C31.6644 66.8414 31.4225 66.5746 31.1076 66.3791C30.796 66.1835 30.4281 66.0858 30.0039 66.0858C29.5366 66.0858 29.1322 66.2018 28.7908 66.4338C28.4528 66.6625 28.1926 66.9608 28.0103 67.3287C27.828 67.6966 27.7369 68.091 27.7369 68.5119V69.188C27.7369 69.7647 27.8363 70.2536 28.0352 70.6547C28.2373 71.0524 28.5174 71.3556 28.8754 71.5645C29.2333 71.7699 29.6493 71.8727 30.1232 71.8727C30.4315 71.8727 30.7099 71.8296 30.9585 71.7434C31.2103 71.6539 31.4274 71.5214 31.6097 71.3457C31.792 71.1667 31.9329 70.9447 32.0323 70.6795L33.1658 70.9977C33.0465 71.3822 32.846 71.7202 32.5643 72.0119C32.2826 72.3002 31.9345 72.5256 31.5202 72.688C31.1059 72.8471 30.6403 72.9267 30.1232 72.9267ZM42.1097 72.9267C41.4203 72.9267 40.8155 72.7626 40.2951 72.4345C39.7781 72.1064 39.3737 71.6473 39.082 71.0574C38.7937 70.4674 38.6495 69.778 38.6495 68.9892C38.6495 68.1937 38.7937 67.4993 39.082 66.9061C39.3737 66.3128 39.7781 65.8521 40.2951 65.524C40.8155 65.1958 41.4203 65.0318 42.1097 65.0318C42.7991 65.0318 43.4023 65.1958 43.9194 65.524C44.4397 65.8521 44.8441 66.3128 45.1325 66.9061C45.4241 67.4993 45.57 68.1937 45.57 68.9892C45.57 69.778 45.4241 70.4674 45.1325 71.0574C44.8441 71.6473 44.4397 72.1064 43.9194 72.4345C43.4023 72.7626 42.7991 72.9267 42.1097 72.9267ZM42.1097 71.8727C42.6334 71.8727 43.0643 71.7385 43.4023 71.47C43.7404 71.2015 43.9906 70.8485 44.1531 70.411C44.3155 69.9735 44.3967 69.4996 44.3967 68.9892C44.3967 68.4788 44.3155 68.0031 44.1531 67.5623C43.9906 67.1215 43.7404 66.7652 43.4023 66.4934C43.0643 66.2216 42.6334 66.0858 42.1097 66.0858C41.5861 66.0858 41.1552 66.2216 40.8171 66.4934C40.479 66.7652 40.2288 67.1215 40.0664 67.5623C39.904 68.0031 39.8228 68.4788 39.8228 68.9892C39.8228 69.4996 39.904 69.9735 40.0664 70.411C40.2288 70.8485 40.479 71.2015 40.8171 71.47C41.1552 71.7385 41.5861 71.8727 42.1097 71.8727ZM50.7615 65.1312V66.1255H46.6451V65.1312H50.7615ZM47.878 72.7676V64.0772C47.878 63.6397 47.9808 63.2752 48.1863 62.9835C48.3917 62.6918 48.6586 62.4731 48.9867 62.3272C49.3148 62.1814 49.6612 62.1085 50.0257 62.1085C50.3141 62.1085 50.5494 62.1317 50.7317 62.1781C50.914 62.2245 51.0499 62.2676 51.1394 62.3074L50.8013 63.3216C50.7417 63.3017 50.6588 63.2768 50.5527 63.247C50.45 63.2172 50.3141 63.2022 50.1451 63.2022C49.7573 63.2022 49.4772 63.3 49.3049 63.4956C49.1358 63.6911 49.0513 63.9778 49.0513 64.3556V72.7676H47.878ZM55.7269 65.1312V66.1255H51.7695V65.1312H55.7269ZM52.9229 63.3017H54.0962V70.5801C54.0962 70.9115 54.1443 71.1601 54.2404 71.3258C54.3398 71.4882 54.4658 71.5976 54.6183 71.6539C54.774 71.707 54.9381 71.7335 55.1104 71.7335C55.2397 71.7335 55.3458 71.7269 55.4286 71.7136C55.5115 71.697 55.5778 71.6838 55.6275 71.6738L55.8661 72.7278C55.7866 72.7576 55.6755 72.7875 55.533 72.8173C55.3905 72.8504 55.2099 72.867 54.9911 72.867C54.6597 72.867 54.3349 72.7958 54.0167 72.6532C53.7018 72.5107 53.44 72.2936 53.2312 72.002C53.0257 71.7103 52.9229 71.3424 52.9229 70.8983V63.3017ZM60.6115 72.9267C59.8757 72.9267 59.241 72.7643 58.7074 72.4395C58.1771 72.1113 57.7678 71.6539 57.4794 71.0673C57.1944 70.4773 57.0518 69.7913 57.0518 69.0091C57.0518 68.2269 57.1944 67.5375 57.4794 66.9409C57.7678 66.341 58.1688 65.8736 58.6825 65.5389C59.1996 65.2008 59.8028 65.0318 60.4922 65.0318C60.8899 65.0318 61.2827 65.0981 61.6705 65.2306C62.0582 65.3632 62.4112 65.5787 62.7294 65.877C63.0476 66.1719 63.3011 66.563 63.4901 67.0502C63.679 67.5375 63.7734 68.1374 63.7734 68.85V69.3471H57.8871V68.3329H62.5803C62.5803 67.902 62.4941 67.5176 62.3217 67.1795C62.1527 66.8414 61.9107 66.5746 61.5959 66.3791C61.2843 66.1835 60.9164 66.0858 60.4922 66.0858C60.0249 66.0858 59.6205 66.2018 59.2791 66.4338C58.9411 66.6625 58.6809 66.9608 58.4986 67.3287C58.3163 67.6966 58.2251 68.091 58.2251 68.5119V69.188C58.2251 69.7647 58.3246 70.2536 58.5234 70.6547C58.7256 71.0524 59.0057 71.3556 59.3636 71.5645C59.7216 71.7699 60.1375 71.8727 60.6115 71.8727C60.9197 71.8727 61.1982 71.8296 61.4467 71.7434C61.6986 71.6539 61.9157 71.5214 62.098 71.3457C62.2803 71.1667 62.4212 70.9447 62.5206 70.6795L63.6541 70.9977C63.5348 71.3822 63.3343 71.7202 63.0526 72.0119C62.7708 72.3002 62.4228 72.5256 62.0085 72.688C61.5942 72.8471 61.1286 72.9267 60.6115 72.9267ZM66.7315 68.1738V72.7676H65.5582V65.1312H66.6918V66.3244H66.7912C66.9702 65.9366 67.242 65.6251 67.6065 65.3897C67.9711 65.1511 68.4418 65.0318 69.0185 65.0318C69.5355 65.0318 69.9879 65.1378 70.3757 65.35C70.7635 65.5588 71.0651 65.877 71.2805 66.3045C71.496 66.7288 71.6037 67.2657 71.6037 67.9153V72.7676H70.4304V67.9949C70.4304 67.3949 70.2746 66.9276 69.9631 66.5929C69.6515 66.2548 69.224 66.0858 68.6804 66.0858C68.3059 66.0858 67.9711 66.167 67.6761 66.3294C67.3845 66.4918 67.1541 66.7288 66.9851 67.0403C66.8161 67.3519 66.7315 67.7297 66.7315 68.1738ZM83.9295 65.1312L81.1056 72.7676H79.9125L77.0886 65.1312H78.3613L80.4693 71.2164H80.5488L82.6568 65.1312H83.9295ZM85.4782 72.7676V65.1312H86.6515V72.7676H85.4782ZM86.0748 63.8585C85.8461 63.8585 85.6489 63.7806 85.4831 63.6248C85.3207 63.469 85.2395 63.2818 85.2395 63.063C85.2395 62.8443 85.3207 62.657 85.4831 62.5012C85.6489 62.3455 85.8461 62.2676 86.0748 62.2676C86.3034 62.2676 86.499 62.3455 86.6614 62.5012C86.8271 62.657 86.91 62.8443 86.91 63.063C86.91 63.2818 86.8271 63.469 86.6614 63.6248C86.499 63.7806 86.3034 63.8585 86.0748 63.8585ZM94.2095 66.8414L93.1555 67.1397C93.0893 66.9641 92.9915 66.7934 92.8622 66.6277C92.7363 66.4586 92.5639 66.3194 92.3452 66.21C92.1264 66.1007 91.8464 66.046 91.505 66.046C91.0376 66.046 90.6482 66.1537 90.3366 66.3691C90.0284 66.5813 89.8743 66.8514 89.8743 67.1795C89.8743 67.4712 89.9804 67.7015 90.1925 67.8706C90.4046 68.0396 90.736 68.1805 91.1868 68.2931L92.3203 68.5716C93.0031 68.7373 93.5118 68.9908 93.8466 69.3322C94.1813 69.6703 94.3487 70.1061 94.3487 70.6397C94.3487 71.0772 94.2228 71.4683 93.9709 71.813C93.7223 72.1577 93.3743 72.4295 92.9268 72.6284C92.4794 72.8272 91.959 72.9267 91.3658 72.9267C90.5869 72.9267 89.9422 72.7576 89.4318 72.4196C88.9214 72.0815 88.5982 71.5877 88.4624 70.938L89.576 70.6596C89.6821 71.0706 89.8826 71.3788 90.1776 71.5843C90.4759 71.7898 90.8653 71.8926 91.3459 71.8926C91.8928 71.8926 92.3269 71.7766 92.6484 71.5446C92.9732 71.3092 93.1357 71.0275 93.1357 70.6994C93.1357 70.4342 93.0429 70.2122 92.8572 70.0332C92.6716 69.8509 92.3866 69.715 92.0021 69.6255L90.7294 69.3272C90.0301 69.1615 89.5163 68.9047 89.1882 68.5566C88.8634 68.2053 88.701 67.7662 88.701 67.2392C88.701 66.8083 88.822 66.4271 89.0639 66.0957C89.3092 65.7643 89.6423 65.5041 90.0632 65.3152C90.4875 65.1262 90.968 65.0318 91.505 65.0318C92.2607 65.0318 92.8539 65.1975 93.2848 65.5289C93.719 65.8604 94.0272 66.2979 94.2095 66.8414ZM96.1149 72.7676V65.1312H97.2882V72.7676H96.1149ZM96.7115 63.8585C96.4828 63.8585 96.2856 63.7806 96.1199 63.6248C95.9574 63.469 95.8762 63.2818 95.8762 63.063C95.8762 62.8443 95.9574 62.657 96.1199 62.5012C96.2856 62.3455 96.4828 62.2676 96.7115 62.2676C96.9402 62.2676 97.1357 62.3455 97.2981 62.5012C97.4638 62.657 97.5467 62.8443 97.5467 63.063C97.5467 63.2818 97.4638 63.469 97.2981 63.6248C97.1357 63.7806 96.9402 63.8585 96.7115 63.8585ZM102.758 65.1312V66.1255H98.8008V65.1312H102.758ZM99.9542 63.3017H101.127V70.5801C101.127 70.9115 101.176 71.1601 101.272 71.3258C101.371 71.4882 101.497 71.5976 101.65 71.6539C101.805 71.707 101.969 71.7335 102.142 71.7335C102.271 71.7335 102.377 71.7269 102.46 71.7136C102.543 71.697 102.609 71.6838 102.659 71.6738L102.897 72.7278C102.818 72.7576 102.707 72.7875 102.564 72.8173C102.422 72.8504 102.241 72.867 102.022 72.867C101.691 72.867 101.366 72.7958 101.048 72.6532C100.733 72.5107 100.471 72.2936 100.262 72.002C100.057 71.7103 99.9542 71.3424 99.9542 70.8983V63.3017ZM111.782 65.1312V66.1255H107.824V65.1312H111.782ZM108.978 63.3017H110.151V70.5801C110.151 70.9115 110.199 71.1601 110.295 71.3258C110.395 71.4882 110.52 71.5976 110.673 71.6539C110.829 71.707 110.993 71.7335 111.165 71.7335C111.294 71.7335 111.4 71.7269 111.483 71.7136C111.566 71.697 111.632 71.6838 111.682 71.6738L111.921 72.7278C111.841 72.7576 111.73 72.7875 111.588 72.8173C111.445 72.8504 111.265 72.867 111.046 72.867C110.714 72.867 110.39 72.7958 110.071 72.6532C109.757 72.5107 109.495 72.2936 109.286 72.002C109.08 71.7103 108.978 71.3424 108.978 70.8983V63.3017ZM114.884 68.1738V72.7676H113.711V62.5858H114.884V66.3244H114.983C115.162 65.93 115.431 65.6168 115.789 65.3848C116.15 65.1494 116.631 65.0318 117.23 65.0318C117.751 65.0318 118.207 65.1362 118.598 65.345C118.989 65.5505 119.292 65.867 119.507 66.2946C119.726 66.7188 119.836 67.2591 119.836 67.9153V72.7676H118.662V67.9949C118.662 67.3883 118.505 66.9193 118.19 66.5879C117.878 66.2531 117.446 66.0858 116.892 66.0858C116.508 66.0858 116.163 66.167 115.858 66.3294C115.557 66.4918 115.318 66.7288 115.142 67.0403C114.97 67.3519 114.884 67.7297 114.884 68.1738ZM125.184 72.9267C124.448 72.9267 123.813 72.7643 123.28 72.4395C122.749 72.1113 122.34 71.6539 122.052 71.0673C121.767 70.4773 121.624 69.7913 121.624 69.0091C121.624 68.2269 121.767 67.5375 122.052 66.9409C122.34 66.341 122.741 65.8736 123.255 65.5389C123.772 65.2008 124.375 65.0318 125.064 65.0318C125.462 65.0318 125.855 65.0981 126.243 65.2306C126.631 65.3632 126.983 65.5787 127.302 65.877C127.62 66.1719 127.873 66.563 128.062 67.0502C128.251 67.5375 128.346 68.1374 128.346 68.85V69.3471H122.459V68.3329H127.153C127.153 67.902 127.066 67.5176 126.894 67.1795C126.725 66.8414 126.483 66.5746 126.168 66.3791C125.857 66.1835 125.489 66.0858 125.064 66.0858C124.597 66.0858 124.193 66.2018 123.851 66.4338C123.513 66.6625 123.253 66.9608 123.071 67.3287C122.889 67.6966 122.797 68.091 122.797 68.5119V69.188C122.797 69.7647 122.897 70.2536 123.096 70.6547C123.298 71.0524 123.578 71.3556 123.936 71.5645C124.294 71.7699 124.71 71.8727 125.184 71.8727C125.492 71.8727 125.77 71.8296 126.019 71.7434C126.271 71.6539 126.488 71.5214 126.67 71.3457C126.853 71.1667 126.993 70.9447 127.093 70.6795L128.226 70.9977C128.107 71.3822 127.907 71.7202 127.625 72.0119C127.343 72.3002 126.995 72.5256 126.581 72.688C126.166 72.8471 125.701 72.9267 125.184 72.9267ZM136.952 72.9267C136.315 72.9267 135.753 72.7659 135.266 72.4444C134.779 72.1196 134.398 71.6622 134.123 71.0723C133.848 70.479 133.71 69.778 133.71 68.9693C133.71 68.1672 133.848 67.4712 134.123 66.8812C134.398 66.2913 134.781 65.8355 135.271 65.514C135.762 65.1925 136.328 65.0318 136.971 65.0318C137.469 65.0318 137.861 65.1146 138.15 65.2804C138.441 65.4428 138.663 65.6284 138.816 65.8372C138.972 66.0427 139.093 66.2117 139.179 66.3443H139.278V62.5858H140.452V72.7676H139.318V71.5943H139.179C139.093 71.7335 138.97 71.9092 138.811 72.1213C138.652 72.3301 138.425 72.5173 138.13 72.6831C137.835 72.8455 137.442 72.9267 136.952 72.9267ZM137.111 71.8727C137.581 71.8727 137.979 71.7501 138.304 71.5048C138.629 71.2562 138.876 70.9132 139.045 70.4757C139.214 70.0349 139.298 69.5261 139.298 68.9494C139.298 68.3793 139.215 67.8805 139.05 67.4529C138.884 67.0221 138.639 66.6873 138.314 66.4487C137.989 66.2067 137.588 66.0858 137.111 66.0858C136.613 66.0858 136.199 66.2134 135.868 66.4686C135.54 66.7205 135.293 67.0635 135.127 67.4977C134.965 67.9286 134.883 68.4125 134.883 68.9494C134.883 69.493 134.966 69.9868 135.132 70.4309C135.301 70.8717 135.55 71.2231 135.878 71.4849C136.209 71.7434 136.62 71.8727 137.111 71.8727ZM145.965 72.9267C145.229 72.9267 144.595 72.7643 144.061 72.4395C143.531 72.1113 143.121 71.6539 142.833 71.0673C142.548 70.4773 142.405 69.7913 142.405 69.0091C142.405 68.2269 142.548 67.5375 142.833 66.9409C143.121 66.341 143.522 65.8736 144.036 65.5389C144.553 65.2008 145.156 65.0318 145.846 65.0318C146.243 65.0318 146.636 65.0981 147.024 65.2306C147.412 65.3632 147.765 65.5787 148.083 65.877C148.401 66.1719 148.655 66.563 148.844 67.0502C149.032 67.5375 149.127 68.1374 149.127 68.85V69.3471H143.241V68.3329H147.934C147.934 67.902 147.848 67.5176 147.675 67.1795C147.506 66.8414 147.264 66.5746 146.949 66.3791C146.638 66.1835 146.27 66.0858 145.846 66.0858C145.378 66.0858 144.974 66.2018 144.633 66.4338C144.295 66.6625 144.034 66.9608 143.852 67.3287C143.67 67.6966 143.579 68.091 143.579 68.5119V69.188C143.579 69.7647 143.678 70.2536 143.877 70.6547C144.079 71.0524 144.359 71.3556 144.717 71.5645C145.075 71.7699 145.491 71.8727 145.965 71.8727C146.273 71.8727 146.552 71.8296 146.8 71.7434C147.052 71.6539 147.269 71.5214 147.452 71.3457C147.634 71.1667 147.775 70.9447 147.874 70.6795L149.008 70.9977C148.888 71.3822 148.688 71.7202 148.406 72.0119C148.124 72.3002 147.776 72.5256 147.362 72.688C146.948 72.8471 146.482 72.9267 145.965 72.9267ZM152.085 68.1738V72.7676H150.912V65.1312H152.045V66.3244H152.145C152.324 65.9366 152.595 65.6251 152.96 65.3897C153.325 65.1511 153.795 65.0318 154.372 65.0318C154.889 65.0318 155.341 65.1378 155.729 65.35C156.117 65.5588 156.419 65.877 156.634 66.3045C156.849 66.7288 156.957 67.2657 156.957 67.9153V72.7676H155.784V67.9949C155.784 67.3949 155.628 66.9276 155.317 66.5929C155.005 66.2548 154.577 66.0858 154.034 66.0858C153.659 66.0858 153.325 66.167 153.03 66.3294C152.738 66.4918 152.508 66.7288 152.339 67.0403C152.17 67.3519 152.085 67.7297 152.085 68.1738ZM162.422 65.1312V66.1255H158.465V65.1312H162.422ZM159.618 63.3017H160.792V70.5801C160.792 70.9115 160.84 71.1601 160.936 71.3258C161.035 71.4882 161.161 71.5976 161.314 71.6539C161.469 71.707 161.633 71.7335 161.806 71.7335C161.935 71.7335 162.041 71.7269 162.124 71.7136C162.207 71.697 162.273 71.6838 162.323 71.6738L162.561 72.7278C162.482 72.7576 162.371 72.7875 162.228 72.8173C162.086 72.8504 161.905 72.867 161.686 72.867C161.355 72.867 161.03 72.7958 160.712 72.6532C160.397 72.5107 160.135 72.2936 159.926 72.002C159.721 71.7103 159.618 71.3424 159.618 70.8983V63.3017ZM164.187 72.7676V65.1312H165.36V72.7676H164.187ZM164.784 63.8585C164.555 63.8585 164.358 63.7806 164.192 63.6248C164.03 63.469 163.949 63.2818 163.949 63.063C163.949 62.8443 164.03 62.657 164.192 62.5012C164.358 62.3455 164.555 62.2676 164.784 62.2676C165.012 62.2676 165.208 62.3455 165.37 62.5012C165.536 62.657 165.619 62.8443 165.619 63.063C165.619 63.2818 165.536 63.469 165.37 63.6248C165.208 63.7806 165.012 63.8585 164.784 63.8585ZM172.919 66.8414L171.865 67.1397C171.798 66.9641 171.7 66.7934 171.571 66.6277C171.445 66.4586 171.273 66.3194 171.054 66.21C170.835 66.1007 170.555 66.046 170.214 66.046C169.747 66.046 169.357 66.1537 169.046 66.3691C168.737 66.5813 168.583 66.8514 168.583 67.1795C168.583 67.4712 168.689 67.7015 168.901 67.8706C169.114 68.0396 169.445 68.1805 169.896 68.2931L171.029 68.5716C171.712 68.7373 172.221 68.9908 172.556 69.3322C172.89 69.6703 173.058 70.1061 173.058 70.6397C173.058 71.0772 172.932 71.4683 172.68 71.813C172.431 72.1577 172.083 72.4295 171.636 72.6284C171.188 72.8272 170.668 72.9267 170.075 72.9267C169.296 72.9267 168.651 72.7576 168.141 72.4196C167.63 72.0815 167.307 71.5877 167.171 70.938L168.285 70.6596C168.391 71.0706 168.592 71.3788 168.887 71.5843C169.185 71.7898 169.574 71.8926 170.055 71.8926C170.602 71.8926 171.036 71.7766 171.357 71.5446C171.682 71.3092 171.845 71.0275 171.845 70.6994C171.845 70.4342 171.752 70.2122 171.566 70.0332C171.381 69.8509 171.096 69.715 170.711 69.6255L169.438 69.3272C168.739 69.1615 168.225 68.9047 167.897 68.5566C167.572 68.2053 167.41 67.7662 167.41 67.2392C167.41 66.8083 167.531 66.4271 167.773 66.0957C168.018 65.7643 168.351 65.5041 168.772 65.3152C169.196 65.1262 169.677 65.0318 170.214 65.0318C170.97 65.0318 171.563 65.1975 171.994 65.5289C172.428 65.8604 172.736 66.2979 172.919 66.8414ZM178.145 65.1312V66.1255H174.188V65.1312H178.145ZM175.341 63.3017H176.514V70.5801C176.514 70.9115 176.562 71.1601 176.658 71.3258C176.758 71.4882 176.884 71.5976 177.036 71.6539C177.192 71.707 177.356 71.7335 177.528 71.7335C177.658 71.7335 177.764 71.7269 177.847 71.7136C177.929 71.697 177.996 71.6838 178.045 71.6738L178.284 72.7278C178.205 72.7576 178.094 72.7875 177.951 72.8173C177.808 72.8504 177.628 72.867 177.409 72.867C177.078 72.867 176.753 72.7958 176.435 72.6532C176.12 72.5107 175.858 72.2936 175.649 72.002C175.444 71.7103 175.341 71.3424 175.341 70.8983V63.3017ZM185.021 68.1738V72.7676H183.847V62.5858H185.021V66.3244H185.12C185.299 65.93 185.567 65.6168 185.925 65.3848C186.287 65.1494 186.767 65.0318 187.367 65.0318C187.888 65.0318 188.343 65.1362 188.734 65.345C189.125 65.5505 189.429 65.867 189.644 66.2946C189.863 66.7188 189.972 67.2591 189.972 67.9153V72.7676H188.799V67.9949C188.799 67.3883 188.642 66.9193 188.327 66.5879C188.015 66.2531 187.583 66.0858 187.029 66.0858C186.645 66.0858 186.3 66.167 185.995 66.3294C185.693 66.4918 185.455 66.7288 185.279 67.0403C185.107 67.3519 185.021 67.7297 185.021 68.1738ZM195.32 72.9267C194.585 72.9267 193.95 72.7643 193.416 72.4395C192.886 72.1113 192.477 71.6539 192.188 71.0673C191.903 70.4773 191.761 69.7913 191.761 69.0091C191.761 68.2269 191.903 67.5375 192.188 66.9409C192.477 66.341 192.878 65.8736 193.392 65.5389C193.909 65.2008 194.512 65.0318 195.201 65.0318C195.599 65.0318 195.992 65.0981 196.379 65.2306C196.767 65.3632 197.12 65.5787 197.438 65.877C197.757 66.1719 198.01 66.563 198.199 67.0502C198.388 67.5375 198.482 68.1374 198.482 68.85V69.3471H192.596V68.3329H197.289C197.289 67.902 197.203 67.5176 197.031 67.1795C196.862 66.8414 196.62 66.5746 196.305 66.3791C195.993 66.1835 195.625 66.0858 195.201 66.0858C194.734 66.0858 194.329 66.2018 193.988 66.4338C193.65 66.6625 193.39 66.9608 193.208 67.3287C193.025 67.6966 192.934 68.091 192.934 68.5119V69.188C192.934 69.7647 193.034 70.2536 193.232 70.6547C193.435 71.0524 193.715 71.3556 194.073 71.5645C194.431 71.7699 194.847 71.8727 195.32 71.8727C195.629 71.8727 195.907 71.8296 196.156 71.7434C196.408 71.6539 196.625 71.5214 196.807 71.3457C196.989 71.1667 197.13 70.9447 197.23 70.6795L198.363 70.9977C198.244 71.3822 198.043 71.7202 197.762 72.0119C197.48 72.3002 197.132 72.5256 196.718 72.688C196.303 72.8471 195.838 72.9267 195.32 72.9267ZM200.267 72.7676V65.1312H201.401V66.2846H201.48C201.619 65.9068 201.871 65.6002 202.236 65.3649C202.601 65.1296 203.012 65.0119 203.469 65.0119C203.555 65.0119 203.663 65.0136 203.792 65.0169C203.921 65.0202 204.019 65.0252 204.085 65.0318V66.225C204.046 66.215 203.954 66.2001 203.812 66.1802C203.673 66.157 203.525 66.1454 203.369 66.1454C202.998 66.1454 202.667 66.2233 202.375 66.3791C202.087 66.5315 201.858 66.7437 201.689 67.0154C201.523 67.2839 201.441 67.5905 201.441 67.9352V72.7676H200.267ZM208.445 72.9267C207.71 72.9267 207.075 72.7643 206.541 72.4395C206.011 72.1113 205.602 71.6539 205.313 71.0673C205.028 70.4773 204.886 69.7913 204.886 69.0091C204.886 68.2269 205.028 67.5375 205.313 66.9409C205.602 66.341 206.003 65.8736 206.517 65.5389C207.034 65.2008 207.637 65.0318 208.326 65.0318C208.724 65.0318 209.117 65.0981 209.504 65.2306C209.892 65.3632 210.245 65.5787 210.563 65.877C210.882 66.1719 211.135 66.563 211.324 67.0502C211.513 67.5375 211.607 68.1374 211.607 68.85V69.3471H205.721V68.3329H210.414C210.414 67.902 210.328 67.5176 210.156 67.1795C209.987 66.8414 209.745 66.5746 209.43 66.3791C209.118 66.1835 208.75 66.0858 208.326 66.0858C207.859 66.0858 207.454 66.2018 207.113 66.4338C206.775 66.6625 206.515 66.9608 206.333 67.3287C206.15 67.6966 206.059 68.091 206.059 68.5119V69.188C206.059 69.7647 206.159 70.2536 206.357 70.6547C206.56 71.0524 206.84 71.3556 207.198 71.5645C207.556 71.7699 207.972 71.8727 208.445 71.8727C208.754 71.8727 209.032 71.8296 209.281 71.7434C209.533 71.6539 209.75 71.5214 209.932 71.3457C210.114 71.1667 210.255 70.9447 210.355 70.6795L211.488 70.9977C211.369 71.3822 211.168 71.7202 210.887 72.0119C210.605 72.3002 210.257 72.5256 209.843 72.688C209.428 72.8471 208.963 72.9267 208.445 72.9267ZM220.73 65.1312V66.1255H216.614V65.1312H220.73ZM217.847 72.7676V64.0772C217.847 63.6397 217.95 63.2752 218.155 62.9835C218.36 62.6918 218.627 62.4731 218.955 62.3272C219.284 62.1814 219.63 62.1085 219.994 62.1085C220.283 62.1085 220.518 62.1317 220.7 62.1781C220.883 62.2245 221.019 62.2676 221.108 62.3074L220.77 63.3216C220.71 63.3017 220.628 63.2768 220.521 63.247C220.419 63.2172 220.283 63.2022 220.114 63.2022C219.726 63.2022 219.446 63.3 219.274 63.4956C219.105 63.6911 219.02 63.9778 219.02 64.3556V72.7676H217.847ZM225.162 72.9267C224.473 72.9267 223.868 72.7626 223.348 72.4345C222.831 72.1064 222.426 71.6473 222.135 71.0574C221.846 70.4674 221.702 69.778 221.702 68.9892C221.702 68.1937 221.846 67.4993 222.135 66.9061C222.426 66.3128 222.831 65.8521 223.348 65.524C223.868 65.1958 224.473 65.0318 225.162 65.0318C225.852 65.0318 226.455 65.1958 226.972 65.524C227.492 65.8521 227.897 66.3128 228.185 66.9061C228.477 67.4993 228.623 68.1937 228.623 68.9892C228.623 69.778 228.477 70.4674 228.185 71.0574C227.897 71.6473 227.492 72.1064 226.972 72.4345C226.455 72.7626 225.852 72.9267 225.162 72.9267ZM225.162 71.8727C225.686 71.8727 226.117 71.7385 226.455 71.47C226.793 71.2015 227.043 70.8485 227.206 70.411C227.368 69.9735 227.449 69.4996 227.449 68.9892C227.449 68.4788 227.368 68.0031 227.206 67.5623C227.043 67.1215 226.793 66.7652 226.455 66.4934C226.117 66.2216 225.686 66.0858 225.162 66.0858C224.639 66.0858 224.208 66.2216 223.87 66.4934C223.532 66.7652 223.282 67.1215 223.119 67.5623C222.957 68.0031 222.876 68.4788 222.876 68.9892C222.876 69.4996 222.957 69.9735 223.119 70.411C223.282 70.8485 223.532 71.2015 223.87 71.47C224.208 71.7385 224.639 71.8727 225.162 71.8727ZM230.414 72.7676V65.1312H231.547V66.2846H231.627C231.766 65.9068 232.018 65.6002 232.382 65.3649C232.747 65.1296 233.158 65.0119 233.615 65.0119C233.702 65.0119 233.809 65.0136 233.939 65.0169C234.068 65.0202 234.166 65.0252 234.232 65.0318V66.225C234.192 66.215 234.101 66.2001 233.958 66.1802C233.819 66.157 233.672 66.1454 233.516 66.1454C233.145 66.1454 232.813 66.2233 232.522 66.3791C232.233 66.5315 232.005 66.7437 231.836 67.0154C231.67 67.2839 231.587 67.5905 231.587 67.9352V72.7676H230.414ZM242.662 72.9267C241.973 72.9267 241.368 72.7626 240.848 72.4345C240.331 72.1064 239.926 71.6473 239.635 71.0574C239.346 70.4674 239.202 69.778 239.202 68.9892C239.202 68.1937 239.346 67.4993 239.635 66.9061C239.926 66.3128 240.331 65.8521 240.848 65.524C241.368 65.1958 241.973 65.0318 242.662 65.0318C243.352 65.0318 243.955 65.1958 244.472 65.524C244.992 65.8521 245.397 66.3128 245.685 66.9061C245.977 67.4993 246.123 68.1937 246.123 68.9892C246.123 69.778 245.977 70.4674 245.685 71.0574C245.397 71.6473 244.992 72.1064 244.472 72.4345C243.955 72.7626 243.352 72.9267 242.662 72.9267ZM242.662 71.8727C243.186 71.8727 243.617 71.7385 243.955 71.47C244.293 71.2015 244.543 70.8485 244.706 70.411C244.868 69.9735 244.949 69.4996 244.949 68.9892C244.949 68.4788 244.868 68.0031 244.706 67.5623C244.543 67.1215 244.293 66.7652 243.955 66.4934C243.617 66.2216 243.186 66.0858 242.662 66.0858C242.139 66.0858 241.708 66.2216 241.37 66.4934C241.032 66.7652 240.782 67.1215 240.619 67.5623C240.457 68.0031 240.376 68.4788 240.376 68.9892C240.376 69.4996 240.457 69.9735 240.619 70.411C240.782 70.8485 241.032 71.2015 241.37 71.47C241.708 71.7385 242.139 71.8727 242.662 71.8727ZM252.726 69.6454V65.1312H253.9V72.7676H252.726V71.475H252.647C252.468 71.8627 252.189 72.1925 251.811 72.4643C251.434 72.7328 250.956 72.867 250.38 72.867C249.902 72.867 249.478 72.7626 249.107 72.5538C248.736 72.3417 248.444 72.0235 248.232 71.5993C248.02 71.1717 247.914 70.6331 247.914 69.9835V65.1312H249.087V69.9039C249.087 70.4608 249.243 70.9049 249.554 71.2363C249.869 71.5678 250.27 71.7335 250.757 71.7335C251.049 71.7335 251.346 71.6589 251.647 71.5098C251.952 71.3606 252.208 71.1319 252.413 70.8237C252.622 70.5154 252.726 70.1227 252.726 69.6454ZM256.048 72.7676V65.1312H257.182V66.2846H257.262C257.401 65.9068 257.653 65.6002 258.017 65.3649C258.382 65.1296 258.793 65.0119 259.25 65.0119C259.336 65.0119 259.444 65.0136 259.573 65.0169C259.703 65.0202 259.8 65.0252 259.867 65.0318V66.225C259.827 66.215 259.736 66.2001 259.593 66.1802C259.454 66.157 259.307 66.1454 259.151 66.1454C258.78 66.1454 258.448 66.2233 258.156 66.3791C257.868 66.5315 257.639 66.7437 257.47 67.0154C257.305 67.2839 257.222 67.5905 257.222 67.9352V72.7676H256.048ZM268.297 72.9267C267.581 72.9267 266.965 72.7576 266.448 72.4196C265.931 72.0815 265.533 71.6158 265.255 71.0225C264.976 70.4293 264.837 69.7515 264.837 68.9892C264.837 68.2136 264.98 67.5292 265.265 66.9359C265.553 66.3393 265.954 65.8736 266.468 65.5389C266.985 65.2008 267.588 65.0318 268.277 65.0318C268.814 65.0318 269.298 65.1312 269.729 65.3301C270.16 65.5289 270.513 65.8074 270.788 66.1653C271.063 66.5233 271.234 66.9409 271.3 67.4181H270.127C270.037 67.0701 269.838 66.7619 269.53 66.4934C269.225 66.2216 268.814 66.0858 268.297 66.0858C267.84 66.0858 267.439 66.2051 267.094 66.4437C266.753 66.679 266.486 67.0121 266.294 67.443C266.105 67.8706 266.01 68.3727 266.01 68.9494C266.01 69.5394 266.103 70.0531 266.289 70.4906C266.478 70.9281 266.743 71.2678 267.084 71.5098C267.429 71.7517 267.833 71.8727 268.297 71.8727C268.602 71.8727 268.879 71.8197 269.127 71.7136C269.376 71.6075 269.587 71.4551 269.759 71.2562C269.931 71.0574 270.054 70.8187 270.127 70.5403H271.3C271.234 70.9911 271.07 71.3971 270.808 71.7583C270.549 72.1163 270.206 72.4013 269.779 72.6135C269.355 72.8223 268.861 72.9267 268.297 72.9267ZM274.189 68.1738V72.7676H273.015V62.5858H274.189V66.3244H274.288C274.467 65.93 274.735 65.6168 275.093 65.3848C275.455 65.1494 275.935 65.0318 276.535 65.0318C277.056 65.0318 277.511 65.1362 277.902 65.345C278.293 65.5505 278.597 65.867 278.812 66.2946C279.031 66.7188 279.14 67.2591 279.14 67.9153V72.7676H277.967V67.9949C277.967 67.3883 277.81 66.9193 277.495 66.5879C277.183 66.2531 276.751 66.0858 276.197 66.0858C275.813 66.0858 275.468 66.167 275.163 66.3294C274.861 66.4918 274.623 66.7288 274.447 67.0403C274.275 67.3519 274.189 67.7297 274.189 68.1738ZM281.287 72.7676V65.1312H282.46V72.7676H281.287ZM281.883 63.8585C281.655 63.8585 281.457 63.7806 281.292 63.6248C281.129 63.469 281.048 63.2818 281.048 63.063C281.048 62.8443 281.129 62.657 281.292 62.5012C281.457 62.3455 281.655 62.2676 281.883 62.2676C282.112 62.2676 282.308 62.3455 282.47 62.5012C282.636 62.657 282.719 62.8443 282.719 63.063C282.719 63.2818 282.636 63.469 282.47 63.6248C282.308 63.7806 282.112 63.8585 281.883 63.8585ZM285.782 62.5858V72.7676H284.609V62.5858H285.782ZM290.815 72.9267C290.178 72.9267 289.617 72.7659 289.129 72.4444C288.642 72.1196 288.261 71.6622 287.986 71.0723C287.711 70.479 287.573 69.778 287.573 68.9693C287.573 68.1672 287.711 67.4712 287.986 66.8812C288.261 66.2913 288.644 65.8355 289.134 65.514C289.625 65.1925 290.192 65.0318 290.835 65.0318C291.332 65.0318 291.725 65.1146 292.013 65.2804C292.305 65.4428 292.527 65.6284 292.679 65.8372C292.835 66.0427 292.956 66.2117 293.042 66.3443H293.142V62.5858H294.315V72.7676H293.181V71.5943H293.042C292.956 71.7335 292.833 71.9092 292.674 72.1213C292.515 72.3301 292.288 72.5173 291.993 72.6831C291.698 72.8455 291.305 72.9267 290.815 72.9267ZM290.974 71.8727C291.445 71.8727 291.842 71.7501 292.167 71.5048C292.492 71.2562 292.739 70.9132 292.908 70.4757C293.077 70.0349 293.161 69.5261 293.161 68.9494C293.161 68.3793 293.079 67.8805 292.913 67.4529C292.747 67.0221 292.502 66.6873 292.177 66.4487C291.852 66.2067 291.451 66.0858 290.974 66.0858C290.477 66.0858 290.062 66.2134 289.731 66.4686C289.403 66.7205 289.156 67.0635 288.99 67.4977C288.828 67.9286 288.747 68.4125 288.747 68.9494C288.747 69.493 288.829 69.9868 288.995 70.4309C289.164 70.8717 289.413 71.2231 289.741 71.4849C290.072 71.7434 290.483 71.8727 290.974 71.8727ZM296.627 72.7676V65.1312H297.76V66.2846H297.84C297.979 65.9068 298.231 65.6002 298.595 65.3649C298.96 65.1296 299.371 65.0119 299.828 65.0119C299.914 65.0119 300.022 65.0136 300.151 65.0169C300.281 65.0202 300.378 65.0252 300.445 65.0318V66.225C300.405 66.215 300.314 66.2001 300.171 66.1802C300.032 66.157 299.885 66.1454 299.729 66.1454C299.358 66.1454 299.026 66.2233 298.735 66.3791C298.446 66.5315 298.218 66.7437 298.048 67.0154C297.883 67.2839 297.8 67.5905 297.8 67.9352V72.7676H296.627ZM304.805 72.9267C304.069 72.9267 303.434 72.7643 302.901 72.4395C302.37 72.1113 301.961 71.6539 301.673 71.0673C301.388 70.4773 301.245 69.7913 301.245 69.0091C301.245 68.2269 301.388 67.5375 301.673 66.9409C301.961 66.341 302.362 65.8736 302.876 65.5389C303.393 65.2008 303.996 65.0318 304.686 65.0318C305.083 65.0318 305.476 65.0981 305.864 65.2306C306.252 65.3632 306.605 65.5787 306.923 65.877C307.241 66.1719 307.494 66.563 307.683 67.0502C307.872 67.5375 307.967 68.1374 307.967 68.85V69.3471H302.08V68.3329H306.774C306.774 67.902 306.687 67.5176 306.515 67.1795C306.346 66.8414 306.104 66.5746 305.789 66.3791C305.478 66.1835 305.11 66.0858 304.686 66.0858C304.218 66.0858 303.814 66.2018 303.472 66.4338C303.134 66.6625 302.874 66.9608 302.692 67.3287C302.51 67.6966 302.419 68.091 302.419 68.5119V69.188C302.419 69.7647 302.518 70.2536 302.717 70.6547C302.919 71.0524 303.199 71.3556 303.557 71.5645C303.915 71.7699 304.331 71.8727 304.805 71.8727C305.113 71.8727 305.392 71.8296 305.64 71.7434C305.892 71.6539 306.109 71.5214 306.291 71.3457C306.474 71.1667 306.615 70.9447 306.714 70.6795L307.847 70.9977C307.728 71.3822 307.528 71.7202 307.246 72.0119C306.964 72.3002 306.616 72.5256 306.202 72.688C305.788 72.8471 305.322 72.9267 304.805 72.9267ZM310.925 68.1738V72.7676H309.752V65.1312H310.885V66.3244H310.985C311.164 65.9366 311.435 65.6251 311.8 65.3897C312.164 65.1511 312.635 65.0318 313.212 65.0318C313.729 65.0318 314.181 65.1378 314.569 65.35C314.957 65.5588 315.258 65.877 315.474 66.3045C315.689 66.7288 315.797 67.2657 315.797 67.9153V72.7676H314.624V67.9949C314.624 67.3949 314.468 66.9276 314.156 66.5929C313.845 66.2548 313.417 66.0858 312.874 66.0858C312.499 66.0858 312.164 66.167 311.869 66.3294C311.578 66.4918 311.347 66.7288 311.178 67.0403C311.009 67.3519 310.925 67.7297 310.925 68.1738ZM318.796 72.8471C318.551 72.8471 318.34 72.7593 318.165 72.5836C317.989 72.408 317.901 72.1975 317.901 71.9522C317.901 71.707 317.989 71.4965 318.165 71.3208C318.34 71.1452 318.551 71.0574 318.796 71.0574C319.041 71.0574 319.252 71.1452 319.428 71.3208C319.603 71.4965 319.691 71.707 319.691 71.9522C319.691 72.1146 319.65 72.2638 319.567 72.3997C319.487 72.5356 319.379 72.6449 319.244 72.7278C319.111 72.8074 318.962 72.8471 318.796 72.8471ZM17.6445 89.7676H14.5025V79.5858H17.7837C18.7714 79.5858 19.6166 79.7896 20.3192 80.1973C21.0219 80.6016 21.5605 81.1833 21.935 81.9423C22.3095 82.698 22.4968 83.6028 22.4968 84.6568C22.4968 85.7174 22.3079 86.6305 21.93 87.3961C21.5522 88.1584 21.002 88.7451 20.2795 89.1561C19.5569 89.5637 18.6786 89.7676 17.6445 89.7676ZM15.7354 88.6738H17.565C18.4068 88.6738 19.1045 88.5114 19.658 88.1866C20.2115 87.8618 20.6242 87.3994 20.896 86.7995C21.1677 86.1996 21.3036 85.4854 21.3036 84.6568C21.3036 83.8348 21.1694 83.1272 20.9009 82.5339C20.6325 81.9373 20.2314 81.4799 19.6978 81.1618C19.1642 80.8403 18.4996 80.6795 17.7042 80.6795H15.7354V88.6738ZM24.4059 89.7676V82.1312H25.5394V83.2846H25.619C25.7582 82.9068 26.0101 82.6002 26.3746 82.3649C26.7392 82.1296 27.1502 82.0119 27.6076 82.0119C27.6938 82.0119 27.8015 82.0136 27.9308 82.0169C28.06 82.0202 28.1578 82.0252 28.2241 82.0318V83.225C28.1843 83.215 28.0932 83.2001 27.9506 83.1802C27.8114 83.157 27.6639 83.1454 27.5082 83.1454C27.137 83.1454 26.8055 83.2233 26.5138 83.3791C26.2255 83.5315 25.9968 83.7437 25.8278 84.0154C25.6621 84.2839 25.5792 84.5905 25.5792 84.9352V89.7676H24.4059ZM29.595 89.8471C29.3497 89.8471 29.1393 89.7593 28.9636 89.5836C28.7879 89.408 28.7001 89.1975 28.7001 88.9522C28.7001 88.707 28.7879 88.4965 28.9636 88.3208C29.1393 88.1452 29.3497 88.0574 29.595 88.0574C29.8403 88.0574 30.0507 88.1452 30.2264 88.3208C30.402 88.4965 30.4899 88.707 30.4899 88.9522C30.4899 89.1146 30.4484 89.2638 30.3656 89.3997C30.286 89.5356 30.1783 89.6449 30.0424 89.7278C29.9099 89.8074 29.7607 89.8471 29.595 89.8471ZM36.6919 79.5858H38.1635L41.6238 88.0375H41.7431L45.2033 79.5858H46.6749V89.7676H45.5215V82.0318H45.4221L42.2402 89.7676H41.1266L37.9448 82.0318H37.8453V89.7676H36.6919V79.5858ZM52.0902 89.9267C51.4008 89.9267 50.7959 89.7626 50.2756 89.4345C49.7585 89.1064 49.3542 88.6473 49.0625 88.0574C48.7741 87.4674 48.63 86.778 48.63 85.9892C48.63 85.1937 48.7741 84.4993 49.0625 83.9061C49.3542 83.3128 49.7585 82.8521 50.2756 82.524C50.7959 82.1958 51.4008 82.0318 52.0902 82.0318C52.7796 82.0318 53.3828 82.1958 53.8999 82.524C54.4202 82.8521 54.8246 83.3128 55.1129 83.9061C55.4046 84.4993 55.5504 85.1937 55.5504 85.9892C55.5504 86.778 55.4046 87.4674 55.1129 88.0574C54.8246 88.6473 54.4202 89.1064 53.8999 89.4345C53.3828 89.7626 52.7796 89.9267 52.0902 89.9267ZM52.0902 88.8727C52.6139 88.8727 53.0447 88.7385 53.3828 88.47C53.7209 88.2015 53.9711 87.8485 54.1335 87.411C54.2959 86.9735 54.3771 86.4996 54.3771 85.9892C54.3771 85.4788 54.2959 85.0031 54.1335 84.5623C53.9711 84.1215 53.7209 83.7652 53.3828 83.4934C53.0447 83.2216 52.6139 83.0858 52.0902 83.0858C51.5665 83.0858 51.1357 83.2216 50.7976 83.4934C50.4595 83.7652 50.2093 84.1215 50.0469 84.5623C49.8845 85.0031 49.8033 85.4788 49.8033 85.9892C49.8033 86.4996 49.8845 86.9735 50.0469 87.411C50.2093 87.8485 50.4595 88.2015 50.7976 88.47C51.1357 88.7385 51.5665 88.8727 52.0902 88.8727ZM58.5147 85.1738V89.7676H57.3414V79.5858H58.5147V83.3244H58.6142C58.7931 82.93 59.0616 82.6168 59.4196 82.3848C59.7808 82.1494 60.2614 82.0318 60.8613 82.0318C61.3817 82.0318 61.8374 82.1362 62.2285 82.345C62.6196 82.5505 62.9229 82.867 63.1383 83.2946C63.3571 83.7188 63.4664 84.2591 63.4664 84.9153V89.7676H62.2931V84.9949C62.2931 84.3883 62.1357 83.9193 61.8208 83.5879C61.5093 83.2531 61.0768 83.0858 60.5233 83.0858C60.1388 83.0858 59.7941 83.167 59.4892 83.3294C59.1876 83.4918 58.9489 83.7288 58.7733 84.0403C58.6009 84.3519 58.5147 84.7297 58.5147 85.1738ZM65.6129 89.7676V82.1312H66.7862V89.7676H65.6129ZM66.2095 80.8585C65.9808 80.8585 65.7836 80.7806 65.6179 80.6248C65.4555 80.469 65.3743 80.2818 65.3743 80.063C65.3743 79.8443 65.4555 79.657 65.6179 79.5012C65.7836 79.3455 65.9808 79.2676 66.2095 79.2676C66.4382 79.2676 66.6338 79.3455 66.7962 79.5012C66.9619 79.657 67.0447 79.8443 67.0447 80.063C67.0447 80.2818 66.9619 80.469 66.7962 80.6248C66.6338 80.7806 66.4382 80.8585 66.2095 80.8585ZM68.9352 89.7676V82.1312H70.0687V83.2846H70.1483C70.2875 82.9068 70.5394 82.6002 70.9039 82.3649C71.2685 82.1296 71.6795 82.0119 72.1369 82.0119C72.2231 82.0119 72.3308 82.0136 72.46 82.0169C72.5893 82.0202 72.6871 82.0252 72.7534 82.0318V83.225C72.7136 83.215 72.6225 83.2001 72.4799 83.1802C72.3407 83.157 72.1932 83.1454 72.0375 83.1454C71.6663 83.1454 71.3348 83.2233 71.0431 83.3791C70.7548 83.5315 70.5261 83.7437 70.3571 84.0154C70.1913 84.2839 70.1085 84.5905 70.1085 84.9352V89.7676H68.9352ZM76.3913 89.9466C75.9074 89.9466 75.4683 89.8554 75.0739 89.6731C74.6795 89.4875 74.3662 89.2207 74.1342 88.8727C73.9022 88.5214 73.7862 88.0971 73.7862 87.6C73.7862 87.1625 73.8724 86.8078 74.0447 86.536C74.2171 86.2609 74.4474 86.0455 74.7358 85.8897C75.0241 85.734 75.3423 85.618 75.6903 85.5417C76.0417 85.4622 76.3946 85.3992 76.7493 85.3528C77.2133 85.2931 77.5895 85.2484 77.8778 85.2186C78.1695 85.1854 78.3816 85.1307 78.5142 85.0545C78.6501 84.9783 78.718 84.8457 78.718 84.6568V84.617C78.718 84.1265 78.5838 83.7453 78.3153 83.4735C78.0502 83.2018 77.6475 83.0659 77.1072 83.0659C76.5471 83.0659 76.108 83.1885 75.7898 83.4338C75.4716 83.679 75.2479 83.9409 75.1186 84.2193L74.005 83.8216C74.2038 83.3575 74.469 82.9963 74.8004 82.7377C75.1352 82.4759 75.4998 82.2936 75.8942 82.1909C76.2919 82.0848 76.683 82.0318 77.0675 82.0318C77.3127 82.0318 77.5945 82.0616 77.9126 82.1213C78.2341 82.1776 78.544 82.2953 78.8423 82.4743C79.1439 82.6532 79.3942 82.9234 79.593 83.2846C79.7919 83.6459 79.8913 84.1298 79.8913 84.7363V89.7676H78.718V88.7335H78.6584C78.5788 88.8992 78.4463 89.0765 78.2607 89.2654C78.075 89.4544 77.8281 89.6151 77.5199 89.7477C77.2116 89.8803 76.8355 89.9466 76.3913 89.9466ZM76.5703 88.8926C77.0343 88.8926 77.4254 88.8014 77.7436 88.6191C78.0651 88.4368 78.3071 88.2015 78.4695 87.9132C78.6352 87.6248 78.718 87.3216 78.718 87.0034V85.9295C78.6683 85.9892 78.5589 86.0439 78.3899 86.0936C78.2242 86.14 78.032 86.1814 77.8132 86.2179C77.5978 86.251 77.3873 86.2808 77.1818 86.3074C76.9796 86.3306 76.8156 86.3504 76.6896 86.367C76.3847 86.4068 76.0997 86.4714 75.8345 86.5609C75.5727 86.6471 75.3606 86.778 75.1982 86.9537C75.0391 87.126 74.9595 87.3613 74.9595 87.6596C74.9595 88.0673 75.1103 88.3755 75.4119 88.5843C75.7169 88.7898 76.103 88.8926 76.5703 88.8926ZM85.9703 89.7676V82.1312H87.1436V89.7676H85.9703ZM86.5669 80.8585C86.3382 80.8585 86.141 80.7806 85.9753 80.6248C85.8129 80.469 85.7317 80.2818 85.7317 80.063C85.7317 79.8443 85.8129 79.657 85.9753 79.5012C86.141 79.3455 86.3382 79.2676 86.5669 79.2676C86.7956 79.2676 86.9912 79.3455 87.1536 79.5012C87.3193 79.657 87.4022 79.8443 87.4022 80.063C87.4022 80.2818 87.3193 80.469 87.1536 80.6248C86.9912 80.7806 86.7956 80.8585 86.5669 80.8585ZM94.7017 83.8414L93.6477 84.1397C93.5814 83.9641 93.4837 83.7934 93.3544 83.6277C93.2285 83.4586 93.0561 83.3194 92.8374 83.21C92.6186 83.1007 92.3385 83.046 91.9972 83.046C91.5298 83.046 91.1404 83.1537 90.8288 83.3691C90.5206 83.5813 90.3665 83.8514 90.3665 84.1795C90.3665 84.4712 90.4725 84.7015 90.6847 84.8706C90.8968 85.0396 91.2282 85.1805 91.679 85.2931L92.8125 85.5716C93.4953 85.7373 94.004 85.9908 94.3388 86.3322C94.6735 86.6703 94.8409 87.1061 94.8409 87.6397C94.8409 88.0772 94.715 88.4683 94.4631 88.813C94.2145 89.1577 93.8665 89.4295 93.419 89.6284C92.9716 89.8272 92.4512 89.9267 91.858 89.9267C91.0791 89.9267 90.4344 89.7576 89.924 89.4196C89.4136 89.0815 89.0904 88.5877 88.9545 87.938L90.0682 87.6596C90.1742 88.0706 90.3748 88.3788 90.6697 88.5843C90.968 88.7898 91.3575 88.8926 91.8381 88.8926C92.3849 88.8926 92.8191 88.7766 93.1406 88.5446C93.4654 88.3092 93.6278 88.0275 93.6278 87.6994C93.6278 87.4342 93.535 87.2122 93.3494 87.0332C93.1638 86.8509 92.8788 86.715 92.4943 86.6255L91.2216 86.3272C90.5223 86.1615 90.0085 85.9047 89.6804 85.5566C89.3556 85.2053 89.1932 84.7662 89.1932 84.2392C89.1932 83.8083 89.3142 83.4271 89.5561 83.0957C89.8014 82.7643 90.1345 82.5041 90.5554 82.3152C90.9796 82.1262 91.4602 82.0318 91.9972 82.0318C92.7528 82.0318 93.3461 82.1975 93.777 82.5289C94.2112 82.8604 94.5194 83.2979 94.7017 83.8414ZM102.792 89.9466C102.308 89.9466 101.869 89.8554 101.474 89.6731C101.08 89.4875 100.767 89.2207 100.535 88.8727C100.303 88.5214 100.187 88.0971 100.187 87.6C100.187 87.1625 100.273 86.8078 100.445 86.536C100.617 86.2609 100.848 86.0455 101.136 85.8897C101.425 85.734 101.743 85.618 102.091 85.5417C102.442 85.4622 102.795 85.3992 103.15 85.3528C103.614 85.2931 103.99 85.2484 104.278 85.2186C104.57 85.1854 104.782 85.1307 104.915 85.0545C105.05 84.9783 105.118 84.8457 105.118 84.6568V84.617C105.118 84.1265 104.984 83.7453 104.716 83.4735C104.451 83.2018 104.048 83.0659 103.508 83.0659C102.948 83.0659 102.508 83.1885 102.19 83.4338C101.872 83.679 101.648 83.9409 101.519 84.2193L100.405 83.8216C100.604 83.3575 100.869 82.9963 101.201 82.7377C101.536 82.4759 101.9 82.2936 102.295 82.1909C102.692 82.0848 103.083 82.0318 103.468 82.0318C103.713 82.0318 103.995 82.0616 104.313 82.1213C104.635 82.1776 104.944 82.2953 105.243 82.4743C105.544 82.6532 105.795 82.9234 105.993 83.2846C106.192 83.6459 106.292 84.1298 106.292 84.7363V89.7676H105.118V88.7335H105.059C104.979 88.8992 104.847 89.0765 104.661 89.2654C104.475 89.4544 104.229 89.6151 103.92 89.7477C103.612 89.8803 103.236 89.9466 102.792 89.9466ZM102.971 88.8926C103.435 88.8926 103.826 88.8014 104.144 88.6191C104.465 88.4368 104.707 88.2015 104.87 87.9132C105.036 87.6248 105.118 87.3216 105.118 87.0034V85.9295C105.069 85.9892 104.959 86.0439 104.79 86.0936C104.625 86.14 104.432 86.1814 104.214 86.2179C103.998 86.251 103.788 86.2808 103.582 86.3074C103.38 86.3306 103.216 86.3504 103.09 86.367C102.785 86.4068 102.5 86.4714 102.235 86.5609C101.973 86.6471 101.761 86.778 101.599 86.9537C101.439 87.126 101.36 87.3613 101.36 87.6596C101.36 88.0673 101.511 88.3755 101.812 88.5843C102.117 88.7898 102.503 88.8926 102.971 88.8926ZM109.607 79.5858V89.7676H108.433V79.5858H109.607ZM113.486 89.7676L111.159 82.1312H112.392L114.042 87.9778H114.122L115.753 82.1312H117.006L118.616 87.9579H118.696L120.346 82.1312H121.579L119.253 89.7676H118.099L116.429 83.9011H116.309L114.639 89.7676H113.486ZM125.378 89.9466C124.894 89.9466 124.455 89.8554 124.06 89.6731C123.666 89.4875 123.353 89.2207 123.121 88.8727C122.889 88.5214 122.773 88.0971 122.773 87.6C122.773 87.1625 122.859 86.8078 123.031 86.536C123.203 86.2609 123.434 86.0455 123.722 85.8897C124.01 85.734 124.329 85.618 124.677 85.5417C125.028 85.4622 125.381 85.3992 125.736 85.3528C126.2 85.2931 126.576 85.2484 126.864 85.2186C127.156 85.1854 127.368 85.1307 127.501 85.0545C127.636 84.9783 127.704 84.8457 127.704 84.6568V84.617C127.704 84.1265 127.57 83.7453 127.302 83.4735C127.037 83.2018 126.634 83.0659 126.094 83.0659C125.533 83.0659 125.094 83.1885 124.776 83.4338C124.458 83.679 124.234 83.9409 124.105 84.2193L122.991 83.8216C123.19 83.3575 123.455 82.9963 123.787 82.7377C124.122 82.4759 124.486 82.2936 124.881 82.1909C125.278 82.0848 125.669 82.0318 126.054 82.0318C126.299 82.0318 126.581 82.0616 126.899 82.1213C127.22 82.1776 127.53 82.2953 127.829 82.4743C128.13 82.6532 128.381 82.9234 128.579 83.2846C128.778 83.6459 128.878 84.1298 128.878 84.7363V89.7676H127.704V88.7335H127.645C127.565 88.8992 127.433 89.0765 127.247 89.2654C127.061 89.4544 126.814 89.6151 126.506 89.7477C126.198 89.8803 125.822 89.9466 125.378 89.9466ZM125.557 88.8926C126.021 88.8926 126.412 88.8014 126.73 88.6191C127.051 88.4368 127.293 88.2015 127.456 87.9132C127.622 87.6248 127.704 87.3216 127.704 87.0034V85.9295C127.655 85.9892 127.545 86.0439 127.376 86.0936C127.211 86.14 127.018 86.1814 126.8 86.2179C126.584 86.251 126.374 86.2808 126.168 86.3074C125.966 86.3306 125.802 86.3504 125.676 86.367C125.371 86.4068 125.086 86.4714 124.821 86.5609C124.559 86.6471 124.347 86.778 124.184 86.9537C124.025 87.126 123.946 87.3613 123.946 87.6596C123.946 88.0673 124.097 88.3755 124.398 88.5843C124.703 88.7898 125.089 88.8926 125.557 88.8926ZM131.501 92.6312C131.303 92.6312 131.125 92.6146 130.969 92.5815C130.814 92.5517 130.706 92.5218 130.646 92.492L130.945 91.4579C131.23 91.5308 131.482 91.5574 131.7 91.5375C131.919 91.5176 132.113 91.4198 132.282 91.2441C132.454 91.0718 132.612 90.7917 132.754 90.4039L132.973 89.8074L130.149 82.1312H131.422L133.53 88.2164H133.609L135.717 82.1312H136.99L133.749 90.8812C133.603 91.2756 133.422 91.6021 133.207 91.8606C132.991 92.1225 132.741 92.3163 132.456 92.4423C132.174 92.5682 131.856 92.6312 131.501 92.6312ZM143.948 83.8414L142.894 84.1397C142.828 83.9641 142.73 83.7934 142.6 83.6277C142.475 83.4586 142.302 83.3194 142.083 83.21C141.865 83.1007 141.585 83.046 141.243 83.046C140.776 83.046 140.386 83.1537 140.075 83.3691C139.767 83.5813 139.613 83.8514 139.613 84.1795C139.613 84.4712 139.719 84.7015 139.931 84.8706C140.143 85.0396 140.474 85.1805 140.925 85.2931L142.059 85.5716C142.741 85.7373 143.25 85.9908 143.585 86.3322C143.92 86.6703 144.087 87.1061 144.087 87.6397C144.087 88.0772 143.961 88.4683 143.709 88.813C143.461 89.1577 143.113 89.4295 142.665 89.6284C142.218 89.8272 141.697 89.9267 141.104 89.9267C140.325 89.9267 139.681 89.7576 139.17 89.4196C138.66 89.0815 138.337 88.5877 138.201 87.938L139.314 87.6596C139.42 88.0706 139.621 88.3788 139.916 88.5843C140.214 88.7898 140.604 88.8926 141.084 88.8926C141.631 88.8926 142.065 88.7766 142.387 88.5446C142.712 88.3092 142.874 88.0275 142.874 87.6994C142.874 87.4342 142.781 87.2122 142.596 87.0332C142.41 86.8509 142.125 86.715 141.74 86.6255L140.468 86.3272C139.768 86.1615 139.255 85.9047 138.926 85.5566C138.602 85.2053 138.439 84.7662 138.439 84.2392C138.439 83.8083 138.56 83.4271 138.802 83.0957C139.047 82.7643 139.381 82.5041 139.801 82.3152C140.226 82.1262 140.706 82.0318 141.243 82.0318C141.999 82.0318 142.592 82.1975 143.023 82.5289C143.457 82.8604 143.766 83.2979 143.948 83.8414ZM150.884 86.9835L150.865 85.5318H151.103L154.444 82.1312H155.896L152.336 85.7306H152.237L150.884 86.9835ZM149.791 89.7676V79.5858H150.964V89.7676H149.791ZM154.643 89.7676L151.66 85.9892L152.495 85.1738L156.134 89.7676H154.643ZM157.406 89.7676V82.1312H158.579V89.7676H157.406ZM158.002 80.8585C157.774 80.8585 157.577 80.7806 157.411 80.6248C157.248 80.469 157.167 80.2818 157.167 80.063C157.167 79.8443 157.248 79.657 157.411 79.5012C157.577 79.3455 157.774 79.2676 158.002 79.2676C158.231 79.2676 158.427 79.3455 158.589 79.5012C158.755 79.657 158.838 79.8443 158.838 80.063C158.838 80.2818 158.755 80.469 158.589 80.6248C158.427 80.7806 158.231 80.8585 158.002 80.8585ZM161.901 85.1738V89.7676H160.728V82.1312H161.862V83.3244H161.961C162.14 82.9366 162.412 82.6251 162.776 82.3897C163.141 82.1511 163.612 82.0318 164.188 82.0318C164.705 82.0318 165.158 82.1378 165.546 82.35C165.933 82.5588 166.235 82.877 166.45 83.3045C166.666 83.7288 166.774 84.2657 166.774 84.9153V89.7676H165.6V84.9949C165.6 84.3949 165.445 83.9276 165.133 83.5929C164.821 83.2548 164.394 83.0858 163.85 83.0858C163.476 83.0858 163.141 83.167 162.846 83.3294C162.554 83.4918 162.324 83.7288 162.155 84.0403C161.986 84.3519 161.901 84.7297 161.901 85.1738ZM171.801 89.9267C171.165 89.9267 170.603 89.7659 170.116 89.4444C169.629 89.1196 169.247 88.6622 168.972 88.0723C168.697 87.479 168.56 86.778 168.56 85.9693C168.56 85.1672 168.697 84.4712 168.972 83.8812C169.247 83.2913 169.63 82.8355 170.121 82.514C170.611 82.1925 171.178 82.0318 171.821 82.0318C172.318 82.0318 172.711 82.1146 172.999 82.2804C173.291 82.4428 173.513 82.6284 173.665 82.8372C173.821 83.0427 173.942 83.2117 174.028 83.3443H174.128V79.5858H175.301V89.7676H174.168V88.5943H174.028C173.942 88.7335 173.82 88.9092 173.661 89.1213C173.501 89.3301 173.274 89.5173 172.979 89.6831C172.684 89.8455 172.292 89.9267 171.801 89.9267ZM171.96 88.8727C172.431 88.8727 172.829 88.7501 173.153 88.5048C173.478 88.2562 173.725 87.9132 173.894 87.4757C174.063 87.0349 174.148 86.5261 174.148 85.9494C174.148 85.3793 174.065 84.8805 173.899 84.4529C173.733 84.0221 173.488 83.6873 173.163 83.4487C172.839 83.2067 172.438 83.0858 171.96 83.0858C171.463 83.0858 171.049 83.2134 170.717 83.4686C170.389 83.7205 170.142 84.0635 169.977 84.4977C169.814 84.9286 169.733 85.4125 169.733 85.9494C169.733 86.493 169.816 86.9868 169.982 87.4309C170.151 87.8717 170.399 88.2231 170.727 88.4849C171.059 88.7434 171.47 88.8727 171.96 88.8727ZM183.798 89.9466C183.314 89.9466 182.875 89.8554 182.48 89.6731C182.086 89.4875 181.772 89.2207 181.54 88.8727C181.308 88.5214 181.192 88.0971 181.192 87.6C181.192 87.1625 181.279 86.8078 181.451 86.536C181.623 86.2609 181.854 86.0455 182.142 85.8897C182.43 85.734 182.749 85.618 183.097 85.5417C183.448 85.4622 183.801 85.3992 184.156 85.3528C184.62 85.2931 184.996 85.2484 185.284 85.2186C185.576 85.1854 185.788 85.1307 185.92 85.0545C186.056 84.9783 186.124 84.8457 186.124 84.6568V84.617C186.124 84.1265 185.99 83.7453 185.722 83.4735C185.456 83.2018 185.054 83.0659 184.513 83.0659C183.953 83.0659 183.514 83.1885 183.196 83.4338C182.878 83.679 182.654 83.9409 182.525 84.2193L181.411 83.8216C181.61 83.3575 181.875 82.9963 182.207 82.7377C182.541 82.4759 182.906 82.2936 183.3 82.1909C183.698 82.0848 184.089 82.0318 184.474 82.0318C184.719 82.0318 185.001 82.0616 185.319 82.1213C185.64 82.1776 185.95 82.2953 186.249 82.4743C186.55 82.6532 186.8 82.9234 186.999 83.2846C187.198 83.6459 187.298 84.1298 187.298 84.7363V89.7676H186.124V88.7335H186.065C185.985 88.8992 185.853 89.0765 185.667 89.2654C185.481 89.4544 185.234 89.6151 184.926 89.7477C184.618 89.8803 184.242 89.9466 183.798 89.9466ZM183.977 88.8926C184.441 88.8926 184.832 88.8014 185.15 88.6191C185.471 88.4368 185.713 88.2015 185.876 87.9132C186.041 87.6248 186.124 87.3216 186.124 87.0034V85.9295C186.075 85.9892 185.965 86.0439 185.796 86.0936C185.63 86.14 185.438 86.1814 185.219 86.2179C185.004 86.251 184.794 86.2808 184.588 86.3074C184.386 86.3306 184.222 86.3504 184.096 86.367C183.791 86.4068 183.506 86.4714 183.241 86.5609C182.979 86.6471 182.767 86.778 182.604 86.9537C182.445 87.126 182.366 87.3613 182.366 87.6596C182.366 88.0673 182.517 88.3755 182.818 88.5843C183.123 88.7898 183.509 88.8926 183.977 88.8926ZM190.612 85.1738V89.7676H189.439V82.1312H190.573V83.3244H190.672C190.851 82.9366 191.123 82.6251 191.487 82.3897C191.852 82.1511 192.323 82.0318 192.899 82.0318C193.416 82.0318 193.869 82.1378 194.257 82.35C194.644 82.5588 194.946 82.877 195.161 83.3045C195.377 83.7288 195.485 84.2657 195.485 84.9153V89.7676H194.311V84.9949C194.311 84.3949 194.155 83.9276 193.844 83.5929C193.532 83.2548 193.105 83.0858 192.561 83.0858C192.187 83.0858 191.852 83.167 191.557 83.3294C191.265 83.4918 191.035 83.7288 190.866 84.0403C190.697 84.3519 190.612 84.7297 190.612 85.1738ZM200.512 89.9267C199.876 89.9267 199.314 89.7659 198.827 89.4444C198.339 89.1196 197.958 88.6622 197.683 88.0723C197.408 87.479 197.271 86.778 197.271 85.9693C197.271 85.1672 197.408 84.4712 197.683 83.8812C197.958 83.2913 198.341 82.8355 198.832 82.514C199.322 82.1925 199.889 82.0318 200.532 82.0318C201.029 82.0318 201.422 82.1146 201.71 82.2804C202.002 82.4428 202.224 82.6284 202.376 82.8372C202.532 83.0427 202.653 83.2117 202.739 83.3443H202.839V79.5858H204.012V89.7676H202.879V88.5943H202.739C202.653 88.7335 202.531 88.9092 202.371 89.1213C202.212 89.3301 201.985 89.5173 201.69 89.6831C201.395 89.8455 201.003 89.9267 200.512 89.9267ZM200.671 88.8727C201.142 88.8727 201.54 88.7501 201.864 88.5048C202.189 88.2562 202.436 87.9132 202.605 87.4757C202.774 87.0349 202.859 86.5261 202.859 85.9494C202.859 85.3793 202.776 84.8805 202.61 84.4529C202.444 84.0221 202.199 83.6873 201.874 83.4487C201.549 83.2067 201.148 83.0858 200.671 83.0858C200.174 83.0858 199.76 83.2134 199.428 83.4686C199.1 83.7205 198.853 84.0635 198.688 84.4977C198.525 84.9286 198.444 85.4125 198.444 85.9494C198.444 86.493 198.527 86.9868 198.692 87.4309C198.862 87.8717 199.11 88.2231 199.438 88.4849C199.77 88.7434 200.181 88.8727 200.671 88.8727ZM213.463 89.9267C212.727 89.9267 212.093 89.7643 211.559 89.4395C211.029 89.1113 210.619 88.6539 210.331 88.0673C210.046 87.4773 209.903 86.7913 209.903 86.0091C209.903 85.2269 210.046 84.5375 210.331 83.9409C210.619 83.341 211.02 82.8736 211.534 82.5389C212.051 82.2008 212.654 82.0318 213.344 82.0318C213.741 82.0318 214.134 82.0981 214.522 82.2306C214.91 82.3632 215.263 82.5787 215.581 82.877C215.899 83.1719 216.153 83.563 216.342 84.0502C216.531 84.5375 216.625 85.1374 216.625 85.85V86.3471H210.739V85.3329H215.432C215.432 84.902 215.346 84.5176 215.173 84.1795C215.004 83.8414 214.762 83.5746 214.447 83.3791C214.136 83.1835 213.768 83.0858 213.344 83.0858C212.876 83.0858 212.472 83.2018 212.131 83.4338C211.793 83.6625 211.532 83.9608 211.35 84.3287C211.168 84.6966 211.077 85.091 211.077 85.5119V86.188C211.077 86.7647 211.176 87.2536 211.375 87.6547C211.577 88.0524 211.857 88.3556 212.215 88.5645C212.573 88.7699 212.989 88.8727 213.463 88.8727C213.771 88.8727 214.05 88.8296 214.298 88.7434C214.55 88.6539 214.767 88.5214 214.95 88.3457C215.132 88.1667 215.273 87.9447 215.372 87.6795L216.506 87.9977C216.386 88.3822 216.186 88.7202 215.904 89.0119C215.622 89.3002 215.274 89.5256 214.86 89.688C214.446 89.8471 213.98 89.9267 213.463 89.9267ZM219.08 82.1312L220.909 85.2534L222.739 82.1312H224.091L221.625 85.9494L224.091 89.7676H222.739L220.909 86.8045L219.08 89.7676H217.727L220.154 85.9494L217.727 82.1312H219.08ZM225.765 92.6312V82.1312H226.899V83.3443H227.038C227.124 83.2117 227.243 83.0427 227.396 82.8372C227.552 82.6284 227.774 82.4428 228.062 82.2804C228.354 82.1146 228.748 82.0318 229.245 82.0318C229.888 82.0318 230.455 82.1925 230.946 82.514C231.436 82.8355 231.819 83.2913 232.094 83.8812C232.369 84.4712 232.507 85.1672 232.507 85.9693C232.507 86.778 232.369 87.479 232.094 88.0723C231.819 88.6622 231.438 89.1196 230.951 89.4444C230.463 89.7659 229.902 89.9267 229.265 89.9267C228.775 89.9267 228.382 89.8455 228.087 89.6831C227.792 89.5173 227.565 89.3301 227.406 89.1213C227.247 88.9092 227.124 88.7335 227.038 88.5943H226.939V92.6312H225.765ZM226.919 85.9494C226.919 86.5261 227.003 87.0349 227.172 87.4757C227.341 87.9132 227.588 88.2562 227.913 88.5048C228.238 88.7501 228.636 88.8727 229.106 88.8727C229.597 88.8727 230.006 88.7434 230.334 88.4849C230.666 88.2231 230.914 87.8717 231.08 87.4309C231.249 86.9868 231.333 86.493 231.333 85.9494C231.333 85.4125 231.251 84.9286 231.085 84.4977C230.922 84.0635 230.676 83.7205 230.344 83.4686C230.016 83.2134 229.603 83.0858 229.106 83.0858C228.629 83.0858 228.228 83.2067 227.903 83.4487C227.578 83.6873 227.333 84.0221 227.167 84.4529C227.002 84.8805 226.919 85.3793 226.919 85.9494ZM235.47 79.5858V89.7676H234.297V79.5858H235.47ZM239.866 89.9466C239.382 89.9466 238.943 89.8554 238.548 89.6731C238.154 89.4875 237.841 89.2207 237.609 88.8727C237.377 88.5214 237.261 88.0971 237.261 87.6C237.261 87.1625 237.347 86.8078 237.519 86.536C237.692 86.2609 237.922 86.0455 238.21 85.8897C238.499 85.734 238.817 85.618 239.165 85.5417C239.516 85.4622 239.869 85.3992 240.224 85.3528C240.688 85.2931 241.064 85.2484 241.352 85.2186C241.644 85.1854 241.856 85.1307 241.989 85.0545C242.125 84.9783 242.193 84.8457 242.193 84.6568V84.617C242.193 84.1265 242.058 83.7453 241.79 83.4735C241.525 83.2018 241.122 83.0659 240.582 83.0659C240.022 83.0659 239.583 83.1885 239.264 83.4338C238.946 83.679 238.722 83.9409 238.593 84.2193L237.48 83.8216C237.678 83.3575 237.944 82.9963 238.275 82.7377C238.61 82.4759 238.974 82.2936 239.369 82.1909C239.767 82.0848 240.158 82.0318 240.542 82.0318C240.787 82.0318 241.069 82.0616 241.387 82.1213C241.709 82.1776 242.019 82.2953 242.317 82.4743C242.619 82.6532 242.869 82.9234 243.068 83.2846C243.267 83.6459 243.366 84.1298 243.366 84.7363V89.7676H242.193V88.7335H242.133C242.053 88.8992 241.921 89.0765 241.735 89.2654C241.55 89.4544 241.303 89.6151 240.994 89.7477C240.686 89.8803 240.31 89.9466 239.866 89.9466ZM240.045 88.8926C240.509 88.8926 240.9 88.8014 241.218 88.6191C241.54 88.4368 241.782 88.2015 241.944 87.9132C242.11 87.6248 242.193 87.3216 242.193 87.0034V85.9295C242.143 85.9892 242.034 86.0439 241.865 86.0936C241.699 86.14 241.507 86.1814 241.288 86.2179C241.072 86.251 240.862 86.2808 240.656 86.3074C240.454 86.3306 240.29 86.3504 240.164 86.367C239.859 86.4068 239.574 86.4714 239.309 86.5609C239.047 86.6471 238.835 86.778 238.673 86.9537C238.514 87.126 238.434 87.3613 238.434 87.6596C238.434 88.0673 238.585 88.3755 238.887 88.5843C239.191 88.7898 239.578 88.8926 240.045 88.8926ZM245.507 89.7676V82.1312H246.681V89.7676H245.507ZM246.104 80.8585C245.875 80.8585 245.678 80.7806 245.512 80.6248C245.35 80.469 245.269 80.2818 245.269 80.063C245.269 79.8443 245.35 79.657 245.512 79.5012C245.678 79.3455 245.875 79.2676 246.104 79.2676C246.333 79.2676 246.528 79.3455 246.691 79.5012C246.856 79.657 246.939 79.8443 246.939 80.063C246.939 80.2818 246.856 80.469 246.691 80.6248C246.528 80.7806 246.333 80.8585 246.104 80.8585ZM250.003 85.1738V89.7676H248.83V82.1312H249.963V83.3244H250.063C250.242 82.9366 250.513 82.6251 250.878 82.3897C251.243 82.1511 251.713 82.0318 252.29 82.0318C252.807 82.0318 253.259 82.1378 253.647 82.35C254.035 82.5588 254.337 82.877 254.552 83.3045C254.767 83.7288 254.875 84.2657 254.875 84.9153V89.7676H253.702V84.9949C253.702 84.3949 253.546 83.9276 253.235 83.5929C252.923 83.2548 252.495 83.0858 251.952 83.0858C251.577 83.0858 251.243 83.167 250.948 83.3294C250.656 83.4918 250.426 83.7288 250.257 84.0403C250.088 84.3519 250.003 84.7297 250.003 85.1738ZM262.428 83.8414L261.374 84.1397C261.308 83.9641 261.21 83.7934 261.081 83.6277C260.955 83.4586 260.783 83.3194 260.564 83.21C260.345 83.1007 260.065 83.046 259.724 83.046C259.256 83.046 258.867 83.1537 258.555 83.3691C258.247 83.5813 258.093 83.8514 258.093 84.1795C258.093 84.4712 258.199 84.7015 258.411 84.8706C258.623 85.0396 258.955 85.1805 259.406 85.2931L260.539 85.5716C261.222 85.7373 261.731 85.9908 262.065 86.3322C262.4 86.6703 262.567 87.1061 262.567 87.6397C262.567 88.0772 262.442 88.4683 262.19 88.813C261.941 89.1577 261.593 89.4295 261.146 89.6284C260.698 89.8272 260.178 89.9267 259.585 89.9267C258.806 89.9267 258.161 89.7576 257.651 89.4196C257.14 89.0815 256.817 88.5877 256.681 87.938L257.795 87.6596C257.901 88.0706 258.101 88.3788 258.396 88.5843C258.695 88.7898 259.084 88.8926 259.565 88.8926C260.112 88.8926 260.546 88.7766 260.867 88.5446C261.192 88.3092 261.354 88.0275 261.354 87.6994C261.354 87.4342 261.262 87.2122 261.076 87.0332C260.89 86.8509 260.605 86.715 260.221 86.6255L258.948 86.3272C258.249 86.1615 257.735 85.9047 257.407 85.5566C257.082 85.2053 256.92 84.7662 256.92 84.2392C256.92 83.8083 257.041 83.4271 257.283 83.0957C257.528 82.7643 257.861 82.5041 258.282 82.3152C258.706 82.1262 259.187 82.0318 259.724 82.0318C260.479 82.0318 261.073 82.1975 261.504 82.5289C261.938 82.8604 262.246 83.2979 262.428 83.8414ZM274.515 82.1312L271.692 89.7676H270.498L267.675 82.1312H268.947L271.055 88.2164H271.135L273.243 82.1312H274.515ZM278.992 89.9267C278.257 89.9267 277.622 89.7643 277.088 89.4395C276.558 89.1113 276.149 88.6539 275.86 88.0673C275.575 87.4773 275.433 86.7913 275.433 86.0091C275.433 85.2269 275.575 84.5375 275.86 83.9409C276.149 83.341 276.55 82.8736 277.063 82.5389C277.58 82.2008 278.184 82.0318 278.873 82.0318C279.271 82.0318 279.664 82.0981 280.051 82.2306C280.439 82.3632 280.792 82.5787 281.11 82.877C281.428 83.1719 281.682 83.563 281.871 84.0502C282.06 84.5375 282.154 85.1374 282.154 85.85V86.3471H276.268V85.3329H280.961C280.961 84.902 280.875 84.5176 280.703 84.1795C280.534 83.8414 280.292 83.5746 279.977 83.3791C279.665 83.1835 279.297 83.0858 278.873 83.0858C278.406 83.0858 278.001 83.2018 277.66 83.4338C277.322 83.6625 277.062 83.9608 276.879 84.3287C276.697 84.6966 276.606 85.091 276.606 85.5119V86.188C276.606 86.7647 276.705 87.2536 276.904 87.6547C277.106 88.0524 277.387 88.3556 277.744 88.5645C278.102 88.7699 278.518 88.8727 278.992 88.8727C279.301 88.8727 279.579 88.8296 279.828 88.7434C280.079 88.6539 280.297 88.5214 280.479 88.3457C280.661 88.1667 280.802 87.9447 280.901 87.6795L282.035 87.9977C281.916 88.3822 281.715 88.7202 281.433 89.0119C281.152 89.3002 280.804 89.5256 280.389 89.688C279.975 89.8471 279.509 89.9267 278.992 89.9267ZM283.939 89.7676V82.1312H285.073V83.2846H285.152C285.291 82.9068 285.543 82.6002 285.908 82.3649C286.272 82.1296 286.683 82.0119 287.141 82.0119C287.227 82.0119 287.335 82.0136 287.464 82.0169C287.593 82.0202 287.691 82.0252 287.757 82.0318V83.225C287.718 83.215 287.626 83.2001 287.484 83.1802C287.345 83.157 287.197 83.1454 287.041 83.1454C286.67 83.1454 286.339 83.2233 286.047 83.3791C285.759 83.5315 285.53 83.7437 285.361 84.0154C285.195 84.2839 285.112 84.5905 285.112 84.9352V89.7676H283.939ZM290.136 92.6312C289.937 92.6312 289.76 92.6146 289.604 92.5815C289.448 92.5517 289.341 92.5218 289.281 92.492L289.579 91.4579C289.864 91.5308 290.116 91.5574 290.335 91.5375C290.554 91.5176 290.748 91.4198 290.917 91.2441C291.089 91.0718 291.247 90.7917 291.389 90.4039L291.608 89.8074L288.784 82.1312H290.057L292.165 88.2164H292.244L294.352 82.1312H295.625L292.383 90.8812C292.238 91.2756 292.057 91.6021 291.841 91.8606C291.626 92.1225 291.376 92.3163 291.091 92.4423C290.809 92.5682 290.491 92.6312 290.136 92.6312ZM302.841 89.7676L300.514 82.1312H301.747L303.398 87.9778H303.477L305.108 82.1312H306.361L307.972 87.9579H308.051L309.702 82.1312H310.935L308.608 89.7676H307.455L305.784 83.9011H305.665L303.994 89.7676H302.841ZM315.428 89.9267C314.692 89.9267 314.057 89.7643 313.524 89.4395C312.993 89.1113 312.584 88.6539 312.296 88.0673C312.011 87.4773 311.868 86.7913 311.868 86.0091C311.868 85.2269 312.011 84.5375 312.296 83.9409C312.584 83.341 312.985 82.8736 313.499 82.5389C314.016 82.2008 314.619 82.0318 315.309 82.0318C315.706 82.0318 316.099 82.0981 316.487 82.2306C316.875 82.3632 317.228 82.5787 317.546 82.877C317.864 83.1719 318.118 83.563 318.306 84.0502C318.495 84.5375 318.59 85.1374 318.59 85.85V86.3471H312.703V85.3329H317.397C317.397 84.902 317.31 84.5176 317.138 84.1795C316.969 83.8414 316.727 83.5746 316.412 83.3791C316.101 83.1835 315.733 83.0858 315.309 83.0858C314.841 83.0858 314.437 83.2018 314.096 83.4338C313.757 83.6625 313.497 83.9608 313.315 84.3287C313.133 84.6966 313.042 85.091 313.042 85.5119V86.188C313.042 86.7647 313.141 87.2536 313.34 87.6547C313.542 88.0524 313.822 88.3556 314.18 88.5645C314.538 88.7699 314.954 88.8727 315.428 88.8727C315.736 88.8727 316.015 88.8296 316.263 88.7434C316.515 88.6539 316.732 88.5214 316.914 88.3457C317.097 88.1667 317.238 87.9447 317.337 87.6795L318.471 87.9977C318.351 88.3822 318.151 88.7202 317.869 89.0119C317.587 89.3002 317.239 89.5256 316.825 89.688C316.411 89.8471 315.945 89.9267 315.428 89.9267ZM321.548 79.5858V89.7676H320.375V79.5858H321.548ZM324.87 79.5858V89.7676H323.697V79.5858H324.87ZM17.6644 99.1312V100.126H13.707V99.1312H17.6644ZM14.8604 97.3017H16.0337V104.58C16.0337 104.912 16.0818 105.16 16.1779 105.326C16.2773 105.488 16.4033 105.598 16.5558 105.654C16.7115 105.707 16.8756 105.733 17.0479 105.733C17.1772 105.733 17.2833 105.727 17.3661 105.714C17.449 105.697 17.5153 105.684 17.565 105.674L17.8036 106.728C17.7241 106.758 17.613 106.787 17.4705 106.817C17.328 106.85 17.1474 106.867 16.9286 106.867C16.5972 106.867 16.2724 106.796 15.9542 106.653C15.6393 106.511 15.3775 106.294 15.1687 106.002C14.9632 105.71 14.8604 105.342 14.8604 104.898V97.3017ZM22.4496 106.927C21.7602 106.927 21.1553 106.763 20.6349 106.434C20.1179 106.106 19.7135 105.647 19.4219 105.057C19.1335 104.467 18.9893 103.778 18.9893 102.989C18.9893 102.194 19.1335 101.499 19.4219 100.906C19.7135 100.313 20.1179 99.8521 20.6349 99.524C21.1553 99.1958 21.7602 99.0318 22.4496 99.0318C23.139 99.0318 23.7422 99.1958 24.2592 99.524C24.7796 99.8521 25.1839 100.313 25.4723 100.906C25.764 101.499 25.9098 102.194 25.9098 102.989C25.9098 103.778 25.764 104.467 25.4723 105.057C25.1839 105.647 24.7796 106.106 24.2592 106.434C23.7422 106.763 23.139 106.927 22.4496 106.927ZM22.4496 105.873C22.9732 105.873 23.4041 105.738 23.7422 105.47C24.0803 105.202 24.3305 104.849 24.4929 104.411C24.6553 103.974 24.7365 103.5 24.7365 102.989C24.7365 102.479 24.6553 102.003 24.4929 101.562C24.3305 101.122 24.0803 100.765 23.7422 100.493C23.4041 100.222 22.9732 100.086 22.4496 100.086C21.9259 100.086 21.495 100.222 21.157 100.493C20.8189 100.765 20.5687 101.122 20.4062 101.562C20.2438 102.003 20.1626 102.479 20.1626 102.989C20.1626 103.5 20.2438 103.974 20.4062 104.411C20.5687 104.849 20.8189 105.202 21.157 105.47C21.495 105.738 21.9259 105.873 22.4496 105.873ZM36.4508 103.645V99.1312H37.6241V106.768H36.4508V105.475H36.3713C36.1923 105.863 35.9139 106.193 35.536 106.464C35.1582 106.733 34.6809 106.867 34.1042 106.867C33.627 106.867 33.2027 106.763 32.8315 106.554C32.4603 106.342 32.1686 106.023 31.9565 105.599C31.7444 105.172 31.6383 104.633 31.6383 103.983V99.1312H32.8116V103.904C32.8116 104.461 32.9674 104.905 33.2789 105.236C33.5938 105.568 33.9949 105.733 34.4821 105.733C34.7737 105.733 35.0704 105.659 35.372 105.51C35.6769 105.361 35.9321 105.132 36.1376 104.824C36.3464 104.515 36.4508 104.123 36.4508 103.645ZM45.1822 100.841L44.1282 101.14C44.0619 100.964 43.9641 100.793 43.8349 100.628C43.7089 100.459 43.5366 100.319 43.3178 100.21C43.0991 100.101 42.819 100.046 42.4776 100.046C42.0103 100.046 41.6209 100.154 41.3093 100.369C41.0011 100.581 40.8469 100.851 40.8469 101.18C40.8469 101.471 40.953 101.702 41.1651 101.871C41.3772 102.04 41.7087 102.18 42.1594 102.293L43.293 102.572C43.9757 102.737 44.4845 102.991 44.8192 103.332C45.154 103.67 45.3214 104.106 45.3214 104.64C45.3214 105.077 45.1954 105.468 44.9435 105.813C44.695 106.158 44.3469 106.43 43.8995 106.628C43.4521 106.827 42.9317 106.927 42.3384 106.927C41.5595 106.927 40.9149 106.758 40.4045 106.42C39.8941 106.081 39.5709 105.588 39.435 104.938L40.5487 104.66C40.6547 105.071 40.8552 105.379 41.1502 105.584C41.4485 105.79 41.8379 105.893 42.3185 105.893C42.8654 105.893 43.2996 105.777 43.6211 105.545C43.9459 105.309 44.1083 105.028 44.1083 104.699C44.1083 104.434 44.0155 104.212 43.8299 104.033C43.6443 103.851 43.3593 103.715 42.9748 103.626L41.7021 103.327C41.0027 103.162 40.489 102.905 40.1609 102.557C39.8361 102.205 39.6737 101.766 39.6737 101.239C39.6737 100.808 39.7946 100.427 40.0366 100.096C40.2818 99.7643 40.6149 99.5041 41.0359 99.3152C41.4601 99.1262 41.9407 99.0318 42.4776 99.0318C43.2333 99.0318 43.8266 99.1975 44.2575 99.5289C44.6916 99.8604 44.9999 100.298 45.1822 100.841ZM47.9426 106.847C47.6974 106.847 47.4869 106.759 47.3113 106.584C47.1356 106.408 47.0478 106.198 47.0478 105.952C47.0478 105.707 47.1356 105.497 47.3113 105.321C47.4869 105.145 47.6974 105.057 47.9426 105.057C48.1879 105.057 48.3984 105.145 48.574 105.321C48.7497 105.497 48.8375 105.707 48.8375 105.952C48.8375 106.115 48.7961 106.264 48.7132 106.4C48.6337 106.536 48.526 106.645 48.3901 106.728C48.2575 106.807 48.1084 106.847 47.9426 106.847ZM55.4572 106.768H54.1646L57.9032 96.5858H59.176L62.9146 106.768H61.622L58.5794 98.1966H58.4998L55.4572 106.768ZM55.9345 102.79H61.1447V103.884H55.9345V102.79ZM69.7505 100.841L68.6966 101.14C68.6303 100.964 68.5325 100.793 68.4032 100.628C68.2773 100.459 68.1049 100.319 67.8862 100.21C67.6674 100.101 67.3874 100.046 67.046 100.046C66.5787 100.046 66.1892 100.154 65.8777 100.369C65.5694 100.581 65.4153 100.851 65.4153 101.18C65.4153 101.471 65.5214 101.702 65.7335 101.871C65.9456 102.04 66.277 102.18 66.7278 102.293L67.8613 102.572C68.5441 102.737 69.0529 102.991 69.3876 103.332C69.7224 103.67 69.8897 104.106 69.8897 104.64C69.8897 105.077 69.7638 105.468 69.5119 105.813C69.2633 106.158 68.9153 106.43 68.4679 106.628C68.0204 106.827 67.5001 106.927 66.9068 106.927C66.1279 106.927 65.4833 106.758 64.9728 106.42C64.4624 106.081 64.1393 105.588 64.0034 104.938L65.117 104.66C65.2231 105.071 65.4236 105.379 65.7186 105.584C66.0169 105.79 66.4063 105.893 66.8869 105.893C67.4338 105.893 67.868 105.777 68.1895 105.545C68.5143 105.309 68.6767 105.028 68.6767 104.699C68.6767 104.434 68.5839 104.212 68.3983 104.033C68.2127 103.851 67.9276 103.715 67.5431 103.626L66.2704 103.327C65.5711 103.162 65.0574 102.905 64.7292 102.557C64.4044 102.205 64.242 101.766 64.242 101.239C64.242 100.808 64.363 100.427 64.6049 100.096C64.8502 99.7643 65.1833 99.5041 65.6042 99.3152C66.0285 99.1262 66.5091 99.0318 67.046 99.0318C67.8017 99.0318 68.3949 99.1975 68.8258 99.5289C69.26 99.8604 69.5682 100.298 69.7505 100.841ZM78.7951 106.927C78.0593 106.927 77.4246 106.764 76.891 106.439C76.3607 106.111 75.9513 105.654 75.663 105.067C75.378 104.477 75.2354 103.791 75.2354 103.009C75.2354 102.227 75.378 101.537 75.663 100.941C75.9513 100.341 76.3524 99.8736 76.8661 99.5389C77.3832 99.2008 77.9864 99.0318 78.6758 99.0318C79.0735 99.0318 79.4663 99.0981 79.854 99.2306C80.2418 99.3632 80.5948 99.5787 80.913 99.877C81.2312 100.172 81.4847 100.563 81.6737 101.05C81.8626 101.537 81.957 102.137 81.957 102.85V103.347H76.0707V102.333H80.7638C80.7638 101.902 80.6777 101.518 80.5053 101.18C80.3363 100.841 80.0943 100.575 79.7795 100.379C79.4679 100.184 79.1 100.086 78.6758 100.086C78.2085 100.086 77.8041 100.202 77.4627 100.434C77.1246 100.662 76.8645 100.961 76.6822 101.329C76.4999 101.697 76.4087 102.091 76.4087 102.512V103.188C76.4087 103.765 76.5082 104.254 76.707 104.655C76.9092 105.052 77.1893 105.356 77.5472 105.564C77.9052 105.77 78.3211 105.873 78.7951 105.873C79.1033 105.873 79.3817 105.83 79.6303 105.743C79.8822 105.654 80.0993 105.521 80.2816 105.346C80.4639 105.167 80.6048 104.945 80.7042 104.68L81.8377 104.998C81.7184 105.382 81.5179 105.72 81.2362 106.012C80.9544 106.3 80.6064 106.526 80.1921 106.688C79.7778 106.847 79.3121 106.927 78.7951 106.927ZM84.4118 99.1312L86.2413 102.253L88.0708 99.1312H89.4231L86.9572 102.949L89.4231 106.768H88.0708L86.2413 103.805L84.4118 106.768H83.0595L85.4856 102.949L83.0595 99.1312H84.4118ZM91.0973 109.631V99.1312H92.2308V100.344H92.37C92.4562 100.212 92.5755 100.043 92.728 99.8372C92.8838 99.6284 93.1058 99.4428 93.3942 99.2804C93.6858 99.1146 94.0803 99.0318 94.5774 99.0318C95.2204 99.0318 95.7872 99.1925 96.2777 99.514C96.7682 99.8355 97.151 100.291 97.4261 100.881C97.7012 101.471 97.8388 102.167 97.8388 102.969C97.8388 103.778 97.7012 104.479 97.4261 105.072C97.151 105.662 96.7699 106.12 96.2827 106.444C95.7955 106.766 95.2337 106.927 94.5973 106.927C94.1068 106.927 93.714 106.845 93.419 106.683C93.1241 106.517 92.897 106.33 92.7379 106.121C92.5788 105.909 92.4562 105.733 92.37 105.594H92.2706V109.631H91.0973ZM92.2507 102.949C92.2507 103.526 92.3352 104.035 92.5043 104.476C92.6733 104.913 92.9202 105.256 93.245 105.505C93.5698 105.75 93.9676 105.873 94.4382 105.873C94.9287 105.873 95.3381 105.743 95.6662 105.485C95.9976 105.223 96.2462 104.872 96.4119 104.431C96.581 103.987 96.6655 103.493 96.6655 102.949C96.6655 102.412 96.5826 101.929 96.4169 101.498C96.2545 101.064 96.0076 100.72 95.6761 100.469C95.348 100.213 94.9354 100.086 94.4382 100.086C93.9609 100.086 93.5599 100.207 93.2351 100.449C92.9103 100.687 92.665 101.022 92.4993 101.453C92.3336 101.881 92.2507 102.379 92.2507 102.949ZM101.876 106.947C101.392 106.947 100.953 106.855 100.558 106.673C100.164 106.488 99.8506 106.221 99.6186 105.873C99.3866 105.521 99.2706 105.097 99.2706 104.6C99.2706 104.162 99.3568 103.808 99.5291 103.536C99.7015 103.261 99.9318 103.046 100.22 102.89C100.509 102.734 100.827 102.618 101.175 102.542C101.526 102.462 101.879 102.399 102.234 102.353C102.698 102.293 103.074 102.248 103.362 102.219C103.654 102.185 103.866 102.131 103.999 102.055C104.134 101.978 104.202 101.846 104.202 101.657V101.617C104.202 101.126 104.068 100.745 103.8 100.474C103.535 100.202 103.132 100.066 102.592 100.066C102.031 100.066 101.592 100.189 101.274 100.434C100.956 100.679 100.732 100.941 100.603 101.219L99.4893 100.822C99.6882 100.358 99.9534 99.9963 100.285 99.7377C100.62 99.4759 100.984 99.2936 101.379 99.1909C101.776 99.0848 102.167 99.0318 102.552 99.0318C102.797 99.0318 103.079 99.0616 103.397 99.1213C103.719 99.1776 104.028 99.2953 104.327 99.4743C104.628 99.6532 104.879 99.9234 105.077 100.285C105.276 100.646 105.376 101.13 105.376 101.736V106.768H104.202V105.733H104.143C104.063 105.899 103.931 106.077 103.745 106.265C103.559 106.454 103.313 106.615 103.004 106.748C102.696 106.88 102.32 106.947 101.876 106.947ZM102.055 105.893C102.519 105.893 102.91 105.801 103.228 105.619C103.549 105.437 103.791 105.202 103.954 104.913C104.12 104.625 104.202 104.322 104.202 104.003V102.93C104.153 102.989 104.043 103.044 103.874 103.094C103.709 103.14 103.516 103.181 103.298 103.218C103.082 103.251 102.872 103.281 102.666 103.307C102.464 103.331 102.3 103.35 102.174 103.367C101.869 103.407 101.584 103.471 101.319 103.561C101.057 103.647 100.845 103.778 100.683 103.954C100.523 104.126 100.444 104.361 100.444 104.66C100.444 105.067 100.595 105.376 100.896 105.584C101.201 105.79 101.587 105.893 102.055 105.893ZM110.838 99.1312V100.126H106.881V99.1312H110.838ZM108.034 97.3017H109.208V104.58C109.208 104.912 109.256 105.16 109.352 105.326C109.451 105.488 109.577 105.598 109.73 105.654C109.885 105.707 110.049 105.733 110.222 105.733C110.351 105.733 110.457 105.727 110.54 105.714C110.623 105.697 110.689 105.684 110.739 105.674L110.977 106.728C110.898 106.758 110.787 106.787 110.644 106.817C110.502 106.85 110.321 106.867 110.102 106.867C109.771 106.867 109.446 106.796 109.128 106.653C108.813 106.511 108.551 106.294 108.343 106.002C108.137 105.71 108.034 105.342 108.034 104.898V97.3017ZM117.876 100.841L116.822 101.14C116.755 100.964 116.657 100.793 116.528 100.628C116.402 100.459 116.23 100.319 116.011 100.21C115.792 100.101 115.512 100.046 115.171 100.046C114.704 100.046 114.314 100.154 114.003 100.369C113.694 100.581 113.54 100.851 113.54 101.18C113.54 101.471 113.646 101.702 113.858 101.871C114.071 102.04 114.402 102.18 114.853 102.293L115.986 102.572C116.669 102.737 117.178 102.991 117.513 103.332C117.847 103.67 118.015 104.106 118.015 104.64C118.015 105.077 117.889 105.468 117.637 105.813C117.388 106.158 117.04 106.43 116.593 106.628C116.145 106.827 115.625 106.927 115.032 106.927C114.253 106.927 113.608 106.758 113.098 106.42C112.587 106.081 112.264 105.588 112.128 104.938L113.242 104.66C113.348 105.071 113.549 105.379 113.844 105.584C114.142 105.79 114.531 105.893 115.012 105.893C115.559 105.893 115.993 105.777 116.314 105.545C116.639 105.309 116.802 105.028 116.802 104.699C116.802 104.434 116.709 104.212 116.523 104.033C116.338 103.851 116.053 103.715 115.668 103.626L114.395 103.327C113.696 103.162 113.182 102.905 112.854 102.557C112.529 102.205 112.367 101.766 112.367 101.239C112.367 100.808 112.488 100.427 112.73 100.096C112.975 99.7643 113.308 99.5041 113.729 99.3152C114.153 99.1262 114.634 99.0318 115.171 99.0318C115.927 99.0318 116.52 99.1975 116.951 99.5289C117.385 99.8604 117.693 100.298 117.876 100.841ZM121.531 105.376L121.451 105.912C121.395 106.29 121.309 106.695 121.193 107.126C121.08 107.556 120.962 107.962 120.84 108.344C120.717 108.725 120.616 109.028 120.537 109.253H119.642C119.685 109.041 119.741 108.761 119.811 108.413C119.88 108.065 119.95 107.676 120.02 107.245C120.092 106.817 120.152 106.38 120.199 105.932L120.258 105.376H121.531ZM129.372 106.768L127.046 99.1312H128.279L129.929 104.978H130.009L131.639 99.1312H132.892L134.503 104.958H134.583L136.233 99.1312H137.466L135.139 106.768H133.986L132.316 100.901H132.196L130.526 106.768H129.372ZM141.959 106.927C141.223 106.927 140.589 106.764 140.055 106.439C139.525 106.111 139.115 105.654 138.827 105.067C138.542 104.477 138.4 103.791 138.4 103.009C138.4 102.227 138.542 101.537 138.827 100.941C139.115 100.341 139.516 99.8736 140.03 99.5389C140.547 99.2008 141.15 99.0318 141.84 99.0318C142.238 99.0318 142.63 99.0981 143.018 99.2306C143.406 99.3632 143.759 99.5787 144.077 99.877C144.395 100.172 144.649 100.563 144.838 101.05C145.027 101.537 145.121 102.137 145.121 102.85V103.347H139.235V102.333H143.928C143.928 101.902 143.842 101.518 143.669 101.18C143.5 100.841 143.258 100.575 142.944 100.379C142.632 100.184 142.264 100.086 141.84 100.086C141.373 100.086 140.968 100.202 140.627 100.434C140.289 100.662 140.029 100.961 139.846 101.329C139.664 101.697 139.573 102.091 139.573 102.512V103.188C139.573 103.765 139.672 104.254 139.871 104.655C140.073 105.052 140.353 105.356 140.711 105.564C141.069 105.77 141.485 105.873 141.959 105.873C142.267 105.873 142.546 105.83 142.794 105.743C143.046 105.654 143.263 105.521 143.446 105.346C143.628 105.167 143.769 104.945 143.868 104.68L145.002 104.998C144.882 105.382 144.682 105.72 144.4 106.012C144.118 106.3 143.77 106.526 143.356 106.688C142.942 106.847 142.476 106.927 141.959 106.927ZM153.946 106.927C153.23 106.927 152.613 106.758 152.096 106.42C151.579 106.081 151.181 105.616 150.903 105.023C150.625 104.429 150.485 103.751 150.485 102.989C150.485 102.214 150.628 101.529 150.913 100.936C151.201 100.339 151.602 99.8736 152.116 99.5389C152.633 99.2008 153.236 99.0318 153.926 99.0318C154.463 99.0318 154.947 99.1312 155.377 99.3301C155.808 99.5289 156.161 99.8074 156.436 100.165C156.712 100.523 156.882 100.941 156.949 101.418H155.775C155.686 101.07 155.487 100.762 155.179 100.493C154.874 100.222 154.463 100.086 153.946 100.086C153.488 100.086 153.087 100.205 152.743 100.444C152.401 100.679 152.134 101.012 151.942 101.443C151.753 101.871 151.659 102.373 151.659 102.949C151.659 103.539 151.752 104.053 151.937 104.491C152.126 104.928 152.391 105.268 152.733 105.51C153.077 105.752 153.482 105.873 153.946 105.873C154.251 105.873 154.527 105.82 154.776 105.714C155.025 105.608 155.235 105.455 155.407 105.256C155.58 105.057 155.702 104.819 155.775 104.54H156.949C156.882 104.991 156.718 105.397 156.456 105.758C156.198 106.116 155.855 106.401 155.427 106.613C155.003 106.822 154.509 106.927 153.946 106.927ZM161.766 106.927C161.077 106.927 160.472 106.763 159.951 106.434C159.434 106.106 159.03 105.647 158.738 105.057C158.45 104.467 158.306 103.778 158.306 102.989C158.306 102.194 158.45 101.499 158.738 100.906C159.03 100.313 159.434 99.8521 159.951 99.524C160.472 99.1958 161.077 99.0318 161.766 99.0318C162.455 99.0318 163.059 99.1958 163.576 99.524C164.096 99.8521 164.5 100.313 164.789 100.906C165.08 101.499 165.226 102.194 165.226 102.989C165.226 103.778 165.08 104.467 164.789 105.057C164.5 105.647 164.096 106.106 163.576 106.434C163.059 106.763 162.455 106.927 161.766 106.927ZM161.766 105.873C162.29 105.873 162.721 105.738 163.059 105.47C163.397 105.202 163.647 104.849 163.809 104.411C163.972 103.974 164.053 103.5 164.053 102.989C164.053 102.479 163.972 102.003 163.809 101.562C163.647 101.122 163.397 100.765 163.059 100.493C162.721 100.222 162.29 100.086 161.766 100.086C161.242 100.086 160.811 100.222 160.473 100.493C160.135 100.765 159.885 101.122 159.723 101.562C159.56 102.003 159.479 102.479 159.479 102.989C159.479 103.5 159.56 103.974 159.723 104.411C159.885 104.849 160.135 105.202 160.473 105.47C160.811 105.738 161.242 105.873 161.766 105.873ZM167.017 106.768V99.1312H168.151V100.324H168.25C168.409 99.9167 168.666 99.6002 169.021 99.3748C169.375 99.1461 169.801 99.0318 170.298 99.0318C170.802 99.0318 171.222 99.1461 171.556 99.3748C171.894 99.6002 172.158 99.9167 172.347 100.324H172.426C172.622 99.93 172.915 99.6168 173.306 99.3848C173.697 99.1494 174.166 99.0318 174.713 99.0318C175.396 99.0318 175.954 99.2456 176.389 99.6731C176.823 100.097 177.04 100.759 177.04 101.657V106.768H175.867V101.657C175.867 101.093 175.713 100.691 175.404 100.449C175.096 100.207 174.733 100.086 174.316 100.086C173.779 100.086 173.363 100.248 173.068 100.573C172.773 100.894 172.625 101.302 172.625 101.796V106.768H171.432V101.537C171.432 101.103 171.291 100.754 171.009 100.488C170.728 100.22 170.365 100.086 169.921 100.086C169.616 100.086 169.331 100.167 169.066 100.329C168.804 100.492 168.592 100.717 168.429 101.006C168.27 101.291 168.191 101.62 168.191 101.995V106.768H167.017ZM182.387 106.927C181.651 106.927 181.016 106.764 180.483 106.439C179.952 106.111 179.543 105.654 179.255 105.067C178.97 104.477 178.827 103.791 178.827 103.009C178.827 102.227 178.97 101.537 179.255 100.941C179.543 100.341 179.944 99.8736 180.458 99.5389C180.975 99.2008 181.578 99.0318 182.268 99.0318C182.665 99.0318 183.058 99.0981 183.446 99.2306C183.834 99.3632 184.187 99.5787 184.505 99.877C184.823 100.172 185.077 100.563 185.265 101.05C185.454 101.537 185.549 102.137 185.549 102.85V103.347H179.662V102.333H184.356C184.356 101.902 184.269 101.518 184.097 101.18C183.928 100.841 183.686 100.575 183.371 100.379C183.06 100.184 182.692 100.086 182.268 100.086C181.8 100.086 181.396 100.202 181.055 100.434C180.716 100.662 180.456 100.961 180.274 101.329C180.092 101.697 180.001 102.091 180.001 102.512V103.188C180.001 103.765 180.1 104.254 180.299 104.655C180.501 105.052 180.781 105.356 181.139 105.564C181.497 105.77 181.913 105.873 182.387 105.873C182.695 105.873 182.974 105.83 183.222 105.743C183.474 105.654 183.691 105.521 183.873 105.346C184.056 105.167 184.197 104.945 184.296 104.68L185.43 104.998C185.31 105.382 185.11 105.72 184.828 106.012C184.546 106.3 184.198 106.526 183.784 106.688C183.37 106.847 182.904 106.927 182.387 106.927ZM192.444 102.174V106.768H191.271V96.5858H192.444V100.324H192.544C192.723 99.93 192.991 99.6168 193.349 99.3848C193.711 99.1494 194.191 99.0318 194.791 99.0318C195.311 99.0318 195.767 99.1362 196.158 99.345C196.549 99.5505 196.853 99.867 197.068 100.295C197.287 100.719 197.396 101.259 197.396 101.915V106.768H196.223V101.995C196.223 101.388 196.065 100.919 195.751 100.588C195.439 100.253 195.006 100.086 194.453 100.086C194.068 100.086 193.724 100.167 193.419 100.329C193.117 100.492 192.879 100.729 192.703 101.04C192.531 101.352 192.444 101.73 192.444 102.174ZM202.744 106.927C202.009 106.927 201.374 106.764 200.84 106.439C200.31 106.111 199.901 105.654 199.612 105.067C199.327 104.477 199.185 103.791 199.185 103.009C199.185 102.227 199.327 101.537 199.612 100.941C199.901 100.341 200.302 99.8736 200.815 99.5389C201.332 99.2008 201.936 99.0318 202.625 99.0318C203.023 99.0318 203.415 99.0981 203.803 99.2306C204.191 99.3632 204.544 99.5787 204.862 99.877C205.18 100.172 205.434 100.563 205.623 101.05C205.812 101.537 205.906 102.137 205.906 102.85V103.347H200.02V102.333H204.713C204.713 101.902 204.627 101.518 204.455 101.18C204.286 100.841 204.044 100.575 203.729 100.379C203.417 100.184 203.049 100.086 202.625 100.086C202.158 100.086 201.753 100.202 201.412 100.434C201.074 100.662 200.814 100.961 200.631 101.329C200.449 101.697 200.358 102.091 200.358 102.512V103.188C200.358 103.765 200.457 104.254 200.656 104.655C200.858 105.052 201.138 105.356 201.496 105.564C201.854 105.77 202.27 105.873 202.744 105.873C203.053 105.873 203.331 105.83 203.58 105.743C203.831 105.654 204.049 105.521 204.231 105.346C204.413 105.167 204.554 104.945 204.653 104.68L205.787 104.998C205.668 105.382 205.467 105.72 205.185 106.012C204.904 106.3 204.556 106.526 204.141 106.688C203.727 106.847 203.261 106.927 202.744 106.927ZM207.691 106.768V99.1312H208.825V100.285H208.904C209.043 99.9068 209.295 99.6002 209.66 99.3649C210.024 99.1296 210.435 99.0119 210.893 99.0119C210.979 99.0119 211.087 99.0136 211.216 99.0169C211.345 99.0202 211.443 99.0252 211.509 99.0318V100.225C211.469 100.215 211.378 100.2 211.236 100.18C211.097 100.157 210.949 100.145 210.793 100.145C210.422 100.145 210.091 100.223 209.799 100.379C209.511 100.532 209.282 100.744 209.113 101.015C208.947 101.284 208.864 101.59 208.864 101.935V106.768H207.691ZM215.869 106.927C215.134 106.927 214.499 106.764 213.965 106.439C213.435 106.111 213.026 105.654 212.737 105.067C212.452 104.477 212.31 103.791 212.31 103.009C212.31 102.227 212.452 101.537 212.737 100.941C213.026 100.341 213.427 99.8736 213.94 99.5389C214.457 99.2008 215.061 99.0318 215.75 99.0318C216.148 99.0318 216.54 99.0981 216.928 99.2306C217.316 99.3632 217.669 99.5787 217.987 99.877C218.305 100.172 218.559 100.563 218.748 101.05C218.937 101.537 219.031 102.137 219.031 102.85V103.347H213.145V102.333H217.838C217.838 101.902 217.752 101.518 217.58 101.18C217.411 100.841 217.169 100.575 216.854 100.379C216.542 100.184 216.174 100.086 215.75 100.086C215.283 100.086 214.878 100.202 214.537 100.434C214.199 100.662 213.939 100.961 213.756 101.329C213.574 101.697 213.483 102.091 213.483 102.512V103.188C213.483 103.765 213.582 104.254 213.781 104.655C213.983 105.052 214.263 105.356 214.621 105.564C214.979 105.77 215.395 105.873 215.869 105.873C216.178 105.873 216.456 105.83 216.705 105.743C216.956 105.654 217.174 105.521 217.356 105.346C217.538 105.167 217.679 104.945 217.778 104.68L218.912 104.998C218.793 105.382 218.592 105.72 218.31 106.012C218.029 106.3 217.681 106.526 217.266 106.688C216.852 106.847 216.386 106.927 215.869 106.927ZM226.484 106.768L224.157 99.1312H225.39L227.04 104.978H227.12L228.751 99.1312H230.004L231.614 104.958H231.694L233.344 99.1312H234.577L232.251 106.768H231.097L229.427 100.901H229.308L227.637 106.768H226.484ZM236.129 106.768V99.1312H237.302V106.768H236.129ZM236.725 97.8585C236.496 97.8585 236.299 97.7806 236.134 97.6248C235.971 97.469 235.89 97.2818 235.89 97.063C235.89 96.8443 235.971 96.657 236.134 96.5012C236.299 96.3455 236.496 96.2676 236.725 96.2676C236.954 96.2676 237.149 96.3455 237.312 96.5012C237.478 96.657 237.56 96.8443 237.56 97.063C237.56 97.2818 237.478 97.469 237.312 97.6248C237.149 97.7806 236.954 97.8585 236.725 97.8585ZM242.772 99.1312V100.126H238.814V99.1312H242.772ZM239.968 97.3017H241.141V104.58C241.141 104.912 241.189 105.16 241.285 105.326C241.385 105.488 241.511 105.598 241.663 105.654C241.819 105.707 241.983 105.733 242.155 105.733C242.285 105.733 242.391 105.727 242.474 105.714C242.556 105.697 242.623 105.684 242.672 105.674L242.911 106.728C242.831 106.758 242.72 106.787 242.578 106.817C242.435 106.85 242.255 106.867 242.036 106.867C241.705 106.867 241.38 106.796 241.062 106.653C240.747 106.511 240.485 106.294 240.276 106.002C240.071 105.71 239.968 105.342 239.968 104.898V97.3017ZM245.874 102.174V106.768H244.701V96.5858H245.874V100.324H245.974C246.153 99.93 246.421 99.6168 246.779 99.3848C247.14 99.1494 247.621 99.0318 248.221 99.0318C248.741 99.0318 249.197 99.1362 249.588 99.345C249.979 99.5505 250.282 99.867 250.498 100.295C250.716 100.719 250.826 101.259 250.826 101.915V106.768H249.653V101.995C249.653 101.388 249.495 100.919 249.18 100.588C248.869 100.253 248.436 100.086 247.883 100.086C247.498 100.086 247.153 100.167 246.849 100.329C246.547 100.492 246.308 100.729 246.133 101.04C245.96 101.352 245.874 101.73 245.874 102.174ZM258.083 102.174V106.768H256.91V99.1312H258.043V100.324H258.143C258.322 99.9366 258.594 99.6251 258.958 99.3897C259.323 99.1511 259.793 99.0318 260.37 99.0318C260.887 99.0318 261.339 99.1378 261.727 99.35C262.115 99.5588 262.417 99.877 262.632 100.305C262.848 100.729 262.955 101.266 262.955 101.915V106.768H261.782V101.995C261.782 101.395 261.626 100.928 261.315 100.593C261.003 100.255 260.576 100.086 260.032 100.086C259.657 100.086 259.323 100.167 259.028 100.329C258.736 100.492 258.506 100.729 258.337 101.04C258.168 101.352 258.083 101.73 258.083 102.174ZM268.202 106.927C267.512 106.927 266.907 106.763 266.387 106.434C265.87 106.106 265.465 105.647 265.174 105.057C264.885 104.467 264.741 103.778 264.741 102.989C264.741 102.194 264.885 101.499 265.174 100.906C265.465 100.313 265.87 99.8521 266.387 99.524C266.907 99.1958 267.512 99.0318 268.202 99.0318C268.891 99.0318 269.494 99.1958 270.011 99.524C270.532 99.8521 270.936 100.313 271.224 100.906C271.516 101.499 271.662 102.194 271.662 102.989C271.662 103.778 271.516 104.467 271.224 105.057C270.936 105.647 270.532 106.106 270.011 106.434C269.494 106.763 268.891 106.927 268.202 106.927ZM268.202 105.873C268.725 105.873 269.156 105.738 269.494 105.47C269.832 105.202 270.082 104.849 270.245 104.411C270.407 103.974 270.488 103.5 270.488 102.989C270.488 102.479 270.407 102.003 270.245 101.562C270.082 101.122 269.832 100.765 269.494 100.493C269.156 100.222 268.725 100.086 268.202 100.086C267.678 100.086 267.247 100.222 266.909 100.493C266.571 100.765 266.321 101.122 266.158 101.562C265.996 102.003 265.915 102.479 265.915 102.989C265.915 103.5 265.996 103.974 266.158 104.411C266.321 104.849 266.571 105.202 266.909 105.47C267.247 105.738 267.678 105.873 268.202 105.873ZM279.12 106.768L276.794 99.1312H278.027L279.677 104.978H279.757L281.387 99.1312H282.64L284.251 104.958H284.331L285.981 99.1312H287.214L284.887 106.768H283.734L282.064 100.901H281.944L280.274 106.768H279.12ZM291.608 106.927C290.918 106.927 290.314 106.763 289.793 106.434C289.276 106.106 288.872 105.647 288.58 105.057C288.292 104.467 288.148 103.778 288.148 102.989C288.148 102.194 288.292 101.499 288.58 100.906C288.872 100.313 289.276 99.8521 289.793 99.524C290.314 99.1958 290.918 99.0318 291.608 99.0318C292.297 99.0318 292.9 99.1958 293.417 99.524C293.938 99.8521 294.342 100.313 294.631 100.906C294.922 101.499 295.068 102.194 295.068 102.989C295.068 103.778 294.922 104.467 294.631 105.057C294.342 105.647 293.938 106.106 293.417 106.434C292.9 106.763 292.297 106.927 291.608 106.927ZM291.608 105.873C292.131 105.873 292.562 105.738 292.9 105.47C293.238 105.202 293.489 104.849 293.651 104.411C293.814 103.974 293.895 103.5 293.895 102.989C293.895 102.479 293.814 102.003 293.651 101.562C293.489 101.122 293.238 100.765 292.9 100.493C292.562 100.222 292.131 100.086 291.608 100.086C291.084 100.086 290.653 100.222 290.315 100.493C289.977 100.765 289.727 101.122 289.564 101.562C289.402 102.003 289.321 102.479 289.321 102.989C289.321 103.5 289.402 103.974 289.564 104.411C289.727 104.849 289.977 105.202 290.315 105.47C290.653 105.738 291.084 105.873 291.608 105.873ZM296.859 106.768V99.1312H297.993V100.285H298.072C298.211 99.9068 298.463 99.6002 298.828 99.3649C299.192 99.1296 299.603 99.0119 300.061 99.0119C300.147 99.0119 300.255 99.0136 300.384 99.0169C300.513 99.0202 300.611 99.0252 300.677 99.0318V100.225C300.637 100.215 300.546 100.2 300.404 100.18C300.265 100.157 300.117 100.145 299.961 100.145C299.59 100.145 299.259 100.223 298.967 100.379C298.679 100.532 298.45 100.744 298.281 101.015C298.115 101.284 298.032 101.59 298.032 101.935V106.768H296.859ZM302.068 106.768V99.1312H303.202V100.285H303.281C303.42 99.9068 303.672 99.6002 304.037 99.3649C304.401 99.1296 304.812 99.0119 305.27 99.0119C305.356 99.0119 305.464 99.0136 305.593 99.0169C305.722 99.0202 305.82 99.0252 305.886 99.0318V100.225C305.846 100.215 305.755 100.2 305.613 100.18C305.474 100.157 305.326 100.145 305.17 100.145C304.799 100.145 304.468 100.223 304.176 100.379C303.888 100.532 303.659 100.744 303.49 101.015C303.324 101.284 303.241 101.59 303.241 101.935V106.768H302.068ZM307.277 106.768V99.1312H308.45V106.768H307.277ZM307.874 97.8585C307.645 97.8585 307.448 97.7806 307.282 97.6248C307.12 97.469 307.038 97.2818 307.038 97.063C307.038 96.8443 307.12 96.657 307.282 96.5012C307.448 96.3455 307.645 96.2676 307.874 96.2676C308.102 96.2676 308.298 96.3455 308.46 96.5012C308.626 96.657 308.709 96.8443 308.709 97.063C308.709 97.2818 308.626 97.469 308.46 97.6248C308.298 97.7806 308.102 97.8585 307.874 97.8585ZM313.801 106.927C313.065 106.927 312.43 106.764 311.897 106.439C311.367 106.111 310.957 105.654 310.669 105.067C310.384 104.477 310.241 103.791 310.241 103.009C310.241 102.227 310.384 101.537 310.669 100.941C310.957 100.341 311.358 99.8736 311.872 99.5389C312.389 99.2008 312.992 99.0318 313.682 99.0318C314.079 99.0318 314.472 99.0981 314.86 99.2306C315.248 99.3632 315.601 99.5787 315.919 99.877C316.237 100.172 316.491 100.563 316.68 101.05C316.868 101.537 316.963 102.137 316.963 102.85V103.347H311.077V102.333H315.77C315.77 101.902 315.684 101.518 315.511 101.18C315.342 100.841 315.1 100.575 314.785 100.379C314.474 100.184 314.106 100.086 313.682 100.086C313.214 100.086 312.81 100.202 312.469 100.434C312.131 100.662 311.87 100.961 311.688 101.329C311.506 101.697 311.415 102.091 311.415 102.512V103.188C311.415 103.765 311.514 104.254 311.713 104.655C311.915 105.052 312.195 105.356 312.553 105.564C312.911 105.77 313.327 105.873 313.801 105.873C314.109 105.873 314.388 105.83 314.636 105.743C314.888 105.654 315.105 105.521 315.287 105.346C315.47 105.167 315.611 104.945 315.71 104.68L316.844 104.998C316.724 105.382 316.524 105.72 316.242 106.012C315.96 106.3 315.612 106.526 315.198 106.688C314.784 106.847 314.318 106.927 313.801 106.927ZM324.157 100.841L323.103 101.14C323.037 100.964 322.939 100.793 322.809 100.628C322.684 100.459 322.511 100.319 322.292 100.21C322.074 100.101 321.794 100.046 321.452 100.046C320.985 100.046 320.595 100.154 320.284 100.369C319.976 100.581 319.822 100.851 319.822 101.18C319.822 101.471 319.928 101.702 320.14 101.871C320.352 102.04 320.683 102.18 321.134 102.293L322.268 102.572C322.95 102.737 323.459 102.991 323.794 103.332C324.129 103.67 324.296 104.106 324.296 104.64C324.296 105.077 324.17 105.468 323.918 105.813C323.67 106.158 323.322 106.43 322.874 106.628C322.427 106.827 321.906 106.927 321.313 106.927C320.534 106.927 319.89 106.758 319.379 106.42C318.869 106.081 318.546 105.588 318.41 104.938L319.523 104.66C319.629 105.071 319.83 105.379 320.125 105.584C320.423 105.79 320.813 105.893 321.293 105.893C321.84 105.893 322.274 105.777 322.596 105.545C322.921 105.309 323.083 105.028 323.083 104.699C323.083 104.434 322.99 104.212 322.805 104.033C322.619 103.851 322.334 103.715 321.949 103.626L320.677 103.327C319.977 103.162 319.464 102.905 319.135 102.557C318.811 102.205 318.648 101.766 318.648 101.239C318.648 100.808 318.769 100.427 319.011 100.096C319.256 99.7643 319.59 99.5041 320.01 99.3152C320.435 99.1262 320.915 99.0318 321.452 99.0318C322.208 99.0318 322.801 99.1975 323.232 99.5289C323.666 99.8604 323.974 100.298 324.157 100.841ZM326.917 106.847C326.672 106.847 326.462 106.759 326.286 106.584C326.11 106.408 326.022 106.198 326.022 105.952C326.022 105.707 326.11 105.497 326.286 105.321C326.462 105.145 326.672 105.057 326.917 105.057C327.163 105.057 327.373 105.145 327.549 105.321C327.724 105.497 327.812 105.707 327.812 105.952C327.812 106.115 327.771 106.264 327.688 106.4C327.608 106.536 327.501 106.645 327.365 106.728C327.232 106.807 327.083 106.847 326.917 106.847Z" fill="#8F8F8F"/>
</svg>
