<svg clip-rule="evenodd" fill-rule="evenodd" height="512" image-rendering="optimizeQuality" shape-rendering="geometricPrecision" text-rendering="geometricPrecision" viewBox="0 0 173.397 173.397" width="512" xmlns="http://www.w3.org/2000/svg"><g id="Layer_x0020_1"><g id="_218142992"><path id="_218144672" d="m32.3077 41.0553v-25.8348h5.08v25.8348zm25.9254 0v-25.8348h5.08v25.8348zm25.9255 0v-25.8348h5.08v25.8348zm25.9255 0v-25.8348h5.08v25.8348zm25.9254 0v-25.8348h5.08v25.8348z"/><path id="_218144288" d="m18.9002 26.4365h135.597c4.6209 0 8.4016 3.7806 8.4016 8.4017v17.4491h-152.4v-17.4491c0-4.6211 3.7807-8.4017 8.4016-8.4017zm131.242 119.83v-78.6828h-126.887v78.6828zm-122.523-114.134h14.4575v14.4576h-14.4575zm25.9256 0h14.4576v14.4576h-14.4576zm25.9256 0h14.4576v14.4576h-14.4576zm25.9256 0h14.4576v14.4576h-14.4576zm25.9257 0h14.4575v14.4576h-14.4575zm31.5772 23.541v94.1009c0 4.621-3.7807 8.4017-8.4016 8.4017h-135.597c-4.6209 0-8.4016-3.7807-8.4016-8.4017v-94.1009h152.4z"/><g fill-rule="nonzero"><path id="_218144264" d="m51.1725 66.7374v80.3756h-5.08v-80.3756z"/><path id="_218144720" d="m76.5499 66.7374v80.3756h-5.08v-80.3756z"/><path id="_218144552" d="m101.927 66.7374v80.3756h-5.0799v-80.3756z"/><path id="_218144168" d="m127.305 66.7374v80.3756h-5.08v-80.3756z"/><path id="_218144480" d="m22.4085 84.7146h128.5805v5.08h-128.5805z"/><path id="_218144816" d="m22.4085 104.385h128.5805v5.08h-128.5805z"/><path id="_218144096" d="m22.4085 124.056h128.5805v5.08h-128.5805z"/><path id="_218144120" d="m66.6676 73.1975-8.2983 8.2983-2.3946-2.3946 8.2983-8.2983z"/><path id="_218144768" d="m58.3694 70.8029 8.2983 8.2983-2.3946 2.3946-8.2983-8.2983z"/><path id="_218143736" d="m82.4293 76.3867 1.4637 1.5041 7.0879-7.0879 2.3946 2.3946-9.5088 9.5089-3.8584-3.9649z"/><path id="_218143640" d="m107.807 76.3867 1.463 1.5041 7.088-7.0879 2.395 2.3946-9.509 9.5089-3.858-3.9649z"/><path id="_218143376" d="m134.454 76.3867 1.464 1.5041 7.088-7.0879 2.394 2.3946-9.509 9.5089-3.858-3.9649z"/><path id="_218143496" d="m30.4047 97.3273 1.4637 1.5041 7.0879-7.0879 2.3946 2.3946-9.5088 9.5089-3.8584-3.9649z"/><path id="_218143928" d="m57.052 97.3273 1.4637 1.5041 7.0879-7.0879 2.3946 2.3946-9.5088 9.5089-3.8584-3.9649z"/><path id="_218144024" d="m82.4293 97.3273 1.4637 1.5041 7.0879-7.0879 2.3946 2.3946-9.5088 9.5089-3.8584-3.9649z"/><path id="_218143784" d="m107.807 97.3273 1.463 1.5041 7.088-7.0879 2.395 2.3946-9.509 9.5089-3.858-3.9649z"/><path id="_218144072" d="m134.454 97.3273 1.464 1.5041 7.088-7.0879 2.394 2.3946-9.509 9.5089-3.858-3.9649z"/><path id="_218143976" d="m30.4047 116.998 1.4637 1.504 7.0879-7.088 2.3946 2.395-9.5088 9.509-3.8584-3.965z"/><path id="_218144048" d="m66.6676 113.809-8.2983 8.298-2.3946-2.394 8.2983-8.299z"/><path id="_218143136" d="m58.3694 111.414 8.2983 8.299-2.3946 2.394-8.2983-8.298z"/><path id="_218143256" d="m92.0449 113.809-8.2983 8.298-2.3946-2.394 8.2983-8.299z"/><path id="_218143016" d="m83.7467 111.414 8.2983 8.299-2.3946 2.394-8.2983-8.298z"/></g></g></g></svg>