<svg width="24" height="24" viewBox="0 0 24 24" fill="none" xmlns="http://www.w3.org/2000/svg">
<g clip-path="url(#clip0_1152_51)">
<path d="M12.0051 14.305L3.02635 5.32668C2.77973 5.07948 2.44997 4.94344 2.09832 4.94344C1.74653 4.94344 1.41696 5.07948 1.16995 5.32668L0.383616 6.1134C0.136176 6.36026 -2.08616e-07 6.69021 -2.08616e-07 7.04181C-2.08616e-07 7.39341 0.136176 7.72298 0.383616 7.96999L11.0736 18.6602C11.3214 18.9081 11.6525 19.0439 12.0045 19.043C12.358 19.0439 12.6888 18.9083 12.9368 18.6602L23.6164 7.97992C23.8638 7.73292 24 7.40335 24 7.05156C24 6.69996 23.8638 6.37039 23.6164 6.12319L22.83 5.33661C22.3182 4.82484 21.4851 4.82484 20.9735 5.33661L12.0051 14.305Z" fill="#02467E"/>
</g>
<defs>
<clipPath id="clip0_1152_51">
<rect width="24" height="24" fill="white" transform="matrix(-1 0 0 -1 24 24)"/>
</clipPath>
</defs>
</svg>
