<svg width="1418" height="327" viewBox="0 0 1418 327" fill="none" xmlns="http://www.w3.org/2000/svg">
<path d="M735.53 106.36V60.44H717.42V49.77H766.73V60.44H748.62V106.36H735.52H735.53Z" fill="#02467E"/>
<path d="M763.5 106.36L788.72 49.77H801.65L826.95 106.36H813.21L792.52 56.4H797.69L776.91 106.36H763.49H763.5ZM776.11 94.23L779.59 84.29H808.69L812.25 94.23H776.12H776.11Z" fill="#02467E"/>
<path d="M851.45 107.33C846.92 107.33 842.58 106.72 838.44 105.51C834.29 104.3 830.95 102.72 828.42 100.78L832.87 90.92C835.3 92.64 838.16 94.06 841.48 95.16C844.79 96.27 848.15 96.82 851.54 96.82C854.13 96.82 856.21 96.57 857.8 96.05C859.39 95.54 860.56 94.82 861.32 93.91C862.07 92.99 862.45 91.94 862.45 90.76C862.45 89.25 861.86 88.05 860.67 87.16C859.48 86.27 857.92 85.54 855.98 84.98C854.04 84.41 851.9 83.88 849.55 83.36C847.21 82.85 844.86 82.22 842.52 81.46C840.18 80.71 838.03 79.74 836.09 78.55C834.15 77.37 832.57 75.8 831.36 73.86C830.15 71.92 829.54 69.44 829.54 66.42C829.54 63.19 830.42 60.24 832.17 57.57C833.92 54.9 836.56 52.77 840.09 51.18C843.62 49.59 848.05 48.8 853.39 48.8C856.95 48.8 860.45 49.22 863.9 50.05C867.35 50.89 870.39 52.14 873.03 53.81L868.99 63.75C866.35 62.24 863.71 61.12 861.07 60.39C858.43 59.66 855.84 59.3 853.31 59.3C850.78 59.3 848.7 59.6 847.09 60.19C845.47 60.78 844.31 61.5501 843.61 62.4901C842.91 63.4301 842.56 64.52 842.56 65.76C842.56 67.22 843.15 68.39 844.34 69.28C845.52 70.17 847.09 70.88 849.03 71.42C850.97 71.96 853.11 72.5 855.46 73.04C857.8 73.58 860.15 74.2 862.49 74.9C864.83 75.6 866.98 76.54 868.92 77.73C870.86 78.92 872.44 80.48 873.65 82.42C874.86 84.36 875.47 86.81 875.47 89.78C875.47 92.96 874.58 95.87 872.8 98.51C871.02 101.15 868.37 103.28 864.84 104.9C861.31 106.52 856.85 107.32 851.46 107.32L851.45 107.33Z" fill="#02467E"/>
<path d="M897.53 106.36H884.43V49.77H897.53V106.36ZM924.21 83.16H896.56V72.09H924.21V83.16ZM923.24 49.77H936.34V106.36H923.24V49.77Z" fill="#02467E"/>
<path d="M949.75 106.36V49.77H962.77V106.36H949.75ZM961.47 93.43L960.74 78.31L987.82 49.77H1002.37L977.96 76.04L970.68 83.8L961.46 93.42L961.47 93.43ZM988.47 106.36L968.34 81.7L976.91 72.4L1003.75 106.35H988.47V106.36Z" fill="#02467E"/>
<path d="M1022.58 95.85H1053.38V106.36H1009.57V49.77H1052.33V60.28H1022.58V95.85ZM1021.61 72.57H1048.85V82.76H1021.61V72.57Z" fill="#02467E"/>
<path d="M1063.81 106.36V49.77H1074.64L1108.02 90.51H1102.77V49.77H1115.7V106.36H1104.95L1071.48 65.62H1076.73V106.36H1063.8H1063.81Z" fill="#02467E"/>
<path d="M1140.84 106.36V60.44H1122.73V49.77H1172.04V60.44H1153.93V106.36H1140.83H1140.84Z" fill="#02467E"/>
<path d="M723.81 203.36V146.77H736.91V203.36H723.81Z" fill="#02467E"/>
<path d="M750.32 203.36V146.77H761.15L794.53 187.51H789.28V146.77H802.21V203.36H791.46L757.99 162.62H763.24V203.36H750.31H750.32Z" fill="#02467E"/>
<path d="M827.36 203.36V157.44H809.25V146.77H858.56V157.44H840.45V203.36H827.35H827.36Z" fill="#02467E"/>
<path d="M878.61 192.85H909.41V203.36H865.6V146.77H908.36V157.28H878.61V192.85ZM877.64 169.57H904.88V179.76H877.64V169.57Z" fill="#02467E"/>
<path d="M919.84 203.36V146.77H944.33C949.39 146.77 953.76 147.59 957.43 149.24C961.09 150.88 963.92 153.24 965.92 156.31C967.91 159.38 968.91 163.05 968.91 167.3C968.91 171.55 967.91 175.13 965.92 178.17C963.93 181.21 961.1 183.55 957.43 185.16C953.76 186.78 949.4 187.59 944.33 187.59H927.11L932.93 181.85V203.35H919.83L919.84 203.36ZM932.94 183.31L927.12 177.17H943.61C947.65 177.17 950.67 176.29 952.66 174.54C954.65 172.79 955.65 170.38 955.65 167.31C955.65 164.24 954.65 161.76 952.66 160.03C950.67 158.31 947.65 157.44 943.61 157.44H927.12L932.94 151.22V183.31ZM955.82 203.36L941.67 182.83H955.66L969.97 203.36H955.82Z" fill="#02467E"/>
<path d="M979.25 203.36V146.77H990.08L1023.46 187.51H1018.21V146.77H1031.14V203.36H1020.39L986.92 162.62H992.17V203.36H979.24H979.25Z" fill="#02467E"/>
<path d="M1037.13 203.36L1062.35 146.77H1075.28L1100.58 203.36H1086.84L1066.15 153.4H1071.32L1050.54 203.36H1037.12H1037.13ZM1049.74 191.23L1053.22 181.29H1082.32L1085.88 191.23H1049.75H1049.74Z" fill="#02467E"/>
<path d="M1115.38 203.36V157.44H1097.27V146.77H1146.58V157.44H1128.47V203.36H1115.37H1115.38Z" fill="#02467E"/>
<path d="M1153.61 203.36V146.77H1166.71V203.36H1153.61Z" fill="#02467E"/>
<path d="M1207.61 204.33C1203.14 204.33 1199 203.6 1195.2 202.15C1191.4 200.69 1188.11 198.65 1185.34 196.01C1182.56 193.37 1180.41 190.27 1178.87 186.71C1177.33 183.15 1176.57 179.27 1176.57 175.07C1176.57 170.87 1177.34 166.99 1178.87 163.43C1180.41 159.87 1182.58 156.77 1185.38 154.13C1188.18 151.49 1191.47 149.44 1195.24 147.99C1199.01 146.53 1203.11 145.81 1207.53 145.81C1211.95 145.81 1216.11 146.54 1219.86 147.99C1223.61 149.45 1226.86 151.49 1229.64 154.13C1232.42 156.77 1234.58 159.86 1236.15 163.39C1237.71 166.92 1238.49 170.81 1238.49 175.07C1238.49 179.33 1237.71 183.17 1236.15 186.75C1234.59 190.33 1232.42 193.43 1229.64 196.05C1226.86 198.66 1223.6 200.7 1219.86 202.15C1216.11 203.61 1212.03 204.33 1207.61 204.33ZM1207.53 193.17C1210.06 193.17 1212.39 192.74 1214.52 191.88C1216.65 191.02 1218.52 189.78 1220.14 188.16C1221.76 186.54 1223.01 184.63 1223.9 182.42C1224.79 180.21 1225.23 177.76 1225.23 175.06C1225.23 172.36 1224.79 169.91 1223.9 167.7C1223.01 165.49 1221.77 163.58 1220.18 161.96C1218.59 160.34 1216.72 159.1 1214.56 158.24C1212.4 157.38 1210.06 156.95 1207.53 156.95C1205 156.95 1202.67 157.38 1200.54 158.24C1198.41 159.1 1196.54 160.34 1194.92 161.96C1193.3 163.58 1192.05 165.49 1191.16 167.7C1190.27 169.91 1189.83 172.36 1189.83 175.06C1189.83 177.76 1190.27 180.14 1191.16 182.38C1192.05 184.62 1193.29 186.54 1194.88 188.16C1196.47 189.78 1198.34 191.02 1200.5 191.88C1202.66 192.74 1205 193.17 1207.53 193.17Z" fill="#02467E"/>
<path d="M1248.35 203.36V146.77H1259.18L1292.56 187.51H1287.31V146.77H1300.24V203.36H1289.49L1256.02 162.62H1261.27V203.36H1248.34H1248.35Z" fill="#02467E"/>
<path d="M1306.23 203.36L1331.45 146.77H1344.38L1369.68 203.36H1355.94L1335.25 153.4H1340.42L1319.64 203.36H1306.22H1306.23ZM1318.84 191.23L1322.32 181.29H1351.42L1354.98 191.23H1318.85H1318.84Z" fill="#02467E"/>
<path d="M1375.59 203.36V146.77H1388.69V192.69H1417.06V203.36H1375.59Z" fill="#02467E"/>
<path d="M750.89 301.33C746.52 301.33 742.47 300.62 738.72 299.19C734.97 297.76 731.73 295.73 728.98 293.09C726.23 290.45 724.09 287.35 722.55 283.79C721.01 280.23 720.25 276.33 720.25 272.07C720.25 267.81 721.02 263.91 722.55 260.35C724.09 256.79 726.24 253.7 729.02 251.05C731.79 248.41 735.04 246.38 738.76 244.95C742.48 243.52 746.55 242.81 750.97 242.81C755.87 242.81 760.31 243.66 764.27 245.36C768.23 247.06 771.56 249.55 774.25 252.84L765.84 260.6C763.9 258.39 761.74 256.73 759.37 255.63C757 254.53 754.41 253.97 751.61 253.97C748.97 253.97 746.54 254.4 744.33 255.26C742.12 256.12 740.21 257.36 738.59 258.98C736.97 260.6 735.72 262.51 734.83 264.72C733.94 266.93 733.5 269.38 733.5 272.08C733.5 274.78 733.94 277.23 734.83 279.44C735.72 281.65 736.97 283.56 738.59 285.18C740.21 286.8 742.12 288.04 744.33 288.9C746.54 289.76 748.96 290.19 751.61 290.19C754.41 290.19 757 289.64 759.37 288.53C761.74 287.43 763.9 285.74 765.84 283.48L774.25 291.24C771.55 294.53 768.23 297.03 764.27 298.76C760.31 300.48 755.85 301.35 750.89 301.35V301.33Z" fill="#7EC3EA"/>
<path d="M783.06 300.37V243.78H796.16V289.7H824.53V300.37H783.06Z" fill="#7EC3EA"/>
<path d="M831.89 300.37V243.78H844.99V300.37H831.89Z" fill="#7EC3EA"/>
<path d="M858.4 300.37V243.78H869.23L902.61 284.52H897.36V243.78H910.29V300.37H899.54L866.07 259.63H871.32V300.37H858.39H858.4Z" fill="#7EC3EA"/>
<path d="M923.72 300.37V243.78H936.82V300.37H923.72Z" fill="#7EC3EA"/>
<path d="M977.31 301.33C972.94 301.33 968.89 300.62 965.14 299.19C961.39 297.76 958.15 295.73 955.4 293.09C952.65 290.45 950.51 287.35 948.97 283.79C947.43 280.23 946.67 276.33 946.67 272.07C946.67 267.81 947.44 263.91 948.97 260.35C950.51 256.79 952.66 253.7 955.44 251.05C958.21 248.41 961.46 246.38 965.18 244.95C968.9 243.52 972.97 242.81 977.39 242.81C982.29 242.81 986.73 243.66 990.69 245.36C994.65 247.06 997.98 249.55 1000.67 252.84L992.26 260.6C990.32 258.39 988.16 256.73 985.79 255.63C983.42 254.53 980.83 253.97 978.03 253.97C975.39 253.97 972.96 254.4 970.75 255.26C968.54 256.12 966.63 257.36 965.01 258.98C963.39 260.6 962.14 262.51 961.25 264.72C960.36 266.93 959.92 269.38 959.92 272.08C959.92 274.78 960.36 277.23 961.25 279.44C962.14 281.65 963.39 283.56 965.01 285.18C966.63 286.8 968.54 288.04 970.75 288.9C972.96 289.76 975.38 290.19 978.03 290.19C980.83 290.19 983.42 289.64 985.79 288.53C988.16 287.43 990.32 285.74 992.26 283.48L1000.67 291.24C997.97 294.53 994.65 297.03 990.69 298.76C986.73 300.48 982.27 301.35 977.31 301.35V301.33Z" fill="#7EC3EA"/>
<path opacity="0.58" d="M396.55 177.3C396.55 99.15 456.56 43.21 537.3 43.21C582.12 43.21 619.53 59.51 643.98 89.14L605.46 124.7C588.05 104.7 566.2 94.33 540.27 94.33C491.75 94.33 457.3 128.41 457.3 177.3C457.3 226.19 491.75 260.27 540.27 260.27C566.2 260.27 588.05 249.9 605.46 229.53L643.98 265.09C619.53 295.09 582.12 311.39 536.93 311.39C456.55 311.39 396.55 255.46 396.55 177.3Z" fill="url(#paint0_linear_306_76)"/>
<path opacity="0.58" d="M85.54 99.45H0V49.04H232.95V99.45H147.41V316.36H85.54V99.45Z" fill="url(#paint1_linear_306_76)"/>
<path d="M372.97 122.74C377.1 113.19 384.36 112.16 387.29 112.16C388.29 112.16 389.44 112.26 390.68 112.57C384.97 106.3 378.17 102.66 370.87 102.66C364.41 102.66 358.35 105.51 353.07 110.53C354.98 113.21 356.81 116.05 358.57 119.05C361.81 124.61 364.71 130.59 367.23 136.92C368.08 139.02 368.87 141.16 369.63 143.34C369.36 140.75 369.35 138.18 369.59 135.63C369.99 131.3 371.11 127.01 372.96 122.74H372.97Z" fill="url(#paint2_linear_306_76)"/>
<path d="M377.27 235.8C379.1 234.45 380.78 232.97 382.26 231.42C389.06 224.28 394.95 215.97 400.29 205.92L399.71 204.61L397.93 200.61C397.22 199.02 396.6 197.49 396 196.02C394.85 193.22 393.86 190.8 392.68 188.82C390.1 184.5 387.34 180.32 384.42 175.89C382.4 172.84 380.32 169.68 378.3 166.48C376.76 164.03 375.42 161.61 374.29 159.21C377.76 173.64 379.58 189.19 379.58 205.16C379.58 212.62 379.18 220 378.4 227.2C378.09 230.09 377.72 232.97 377.29 235.81L377.27 235.8Z" fill="url(#paint3_linear_306_76)"/>
<path d="M370.87 94.39C382.551 94.39 392.02 84.9208 392.02 73.24C392.02 61.5592 382.551 52.09 370.87 52.09C359.189 52.09 349.72 61.5592 349.72 73.24C349.72 84.9208 359.189 94.39 370.87 94.39Z" fill="url(#paint4_linear_306_76)"/>
<path d="M238.75 132.64C240.83 127.88 243.13 123.33 245.63 119.04C247.38 116.04 249.21 113.2 251.13 110.52C245.86 105.51 239.79 102.65 233.33 102.65C226.04 102.65 219.24 106.29 213.52 112.56C214.76 112.25 215.91 112.14 216.91 112.14C219.84 112.14 227.1 113.17 231.23 122.72C232.33 125.28 233.18 127.83 233.76 130.41C234.74 134.67 235.01 138.96 234.56 143.32C235.83 139.65 237.23 136.08 238.74 132.62L238.75 132.64Z" fill="url(#paint5_linear_306_76)"/>
<path d="M225.92 166.47C223.9 169.67 221.82 172.83 219.81 175.88C216.89 180.3 214.12 184.49 211.54 188.81C210.35 190.79 209.37 193.21 208.22 196.01C207.62 197.48 207 199.01 206.29 200.6L204.51 204.6L203.93 205.91C209.27 215.96 215.17 224.28 221.96 231.42C223.44 232.97 225.12 234.45 226.95 235.8C226.51 232.96 226.14 230.09 225.84 227.19C225.06 219.99 224.66 212.61 224.66 205.15C224.66 189.17 226.48 173.63 229.95 159.2C228.82 161.6 227.48 164.02 225.94 166.47H225.92Z" fill="url(#paint6_linear_306_76)"/>
<path opacity="0.58" d="M319.9 224.25C324.04 215.23 328.33 205.9 334.83 197.3C335.78 196.04 336.81 194.75 337.93 193.49C339.45 191.78 341.14 190.11 343.08 188.61C345.49 186.74 348.29 185.14 351.58 184.05C353.63 183.37 355.71 183.03 357.76 183.03C361.55 183.03 365 184.18 367.81 186.21C366.34 171.12 363.13 157.03 358.56 144.57C355.1 135.13 350.85 126.62 345.97 119.31C334.25 101.74 318.9 91.1 302.11 91.1C285.32 91.1 269.96 101.75 258.24 119.31C254.17 125.41 250.54 132.34 247.44 139.96C241.91 153.52 238.06 169.23 236.41 186.21C239.22 184.18 242.68 183.03 246.46 183.03C248.51 183.03 250.59 183.37 252.64 184.05C257.21 185.55 260.8 188.04 263.77 190.86C264.67 191.71 265.51 192.59 266.29 193.48C267.41 194.75 268.44 196.04 269.39 197.29C275.9 205.89 280.18 215.22 284.32 224.24C285.02 225.77 285.73 227.3 286.44 228.83C292.08 240.89 294.82 253.5 294.82 267.37C294.82 278.52 293 290.67 289.23 304.5C288.21 308.23 287.08 311.99 285.84 315.77C291.05 318 296.5 319.19 302.11 319.19C307.72 319.19 313.17 318 318.38 315.77C317.13 311.98 316 308.23 314.99 304.5C311.22 290.66 309.39 278.52 309.4 267.37C309.4 253.5 312.15 240.88 317.79 228.83C318.5 227.3 319.2 225.77 319.91 224.24L319.9 224.25Z" fill="url(#paint7_linear_306_76)"/>
<path opacity="0.58" d="M302.11 76.66C323.28 76.66 340.44 59.5 340.44 38.33C340.44 17.16 323.28 0 302.11 0C280.94 0 263.78 17.16 263.78 38.33C263.78 59.5 280.94 76.66 302.11 76.66Z" fill="url(#paint8_linear_306_76)"/>
<path d="M391.25 125.33C391.18 125.25 391.12 125.18 391.05 125.11C390.98 125.03 390.9 124.95 390.83 124.87C390.75 124.79 390.68 124.72 390.61 124.65C390.56 124.6 390.51 124.55 390.46 124.51C390.39 124.44 390.33 124.38 390.26 124.33C389.8 123.92 389.33 123.61 388.88 123.4C388.82 123.37 388.75 123.34 388.69 123.31C388.62 123.28 388.56 123.26 388.5 123.23C388.39 123.19 388.28 123.15 388.17 123.13C388.06 123.1 387.96 123.08 387.85 123.06C387.81 123.05 387.78 123.04 387.75 123.04C387.75 123.04 387.74 123.04 387.73 123.04C387.67 123.04 387.61 123.03 387.56 123.02C387.48 123.01 387.39 123 387.31 123C387.2 123 387.1 123 386.99 123.02C386.78 123.04 386.57 123.08 386.37 123.15C386.36 123.15 386.34 123.16 386.33 123.16C386.24 123.19 386.16 123.23 386.07 123.26C385.97 123.3 385.87 123.35 385.78 123.4C385.69 123.45 385.61 123.5 385.52 123.55C385.42 123.62 385.31 123.7 385.2 123.78C385.11 123.86 385.01 123.93 384.92 124.02C384.83 124.1 384.73 124.19 384.65 124.29C384.56 124.39 384.47 124.49 384.38 124.59C384.21 124.8 384.03 125.03 383.87 125.28C383.79 125.41 383.71 125.54 383.63 125.67C383.58 125.76 383.53 125.85 383.48 125.94C383.43 126.02 383.39 126.11 383.34 126.2C383.2 126.46 383.07 126.74 382.95 127.03C382.03 129.16 381.37 131.26 380.94 133.32C380.78 134.06 380.66 134.81 380.56 135.54C380.56 135.57 380.55 135.61 380.55 135.64C380.48 136.12 380.44 136.58 380.4 137.05C380.38 137.25 380.37 137.45 380.36 137.66C380.35 137.82 380.34 137.99 380.34 138.16C380.33 138.33 380.32 138.51 380.32 138.68C380.31 139.07 380.32 139.47 380.32 139.86C380.32 140.05 380.33 140.24 380.34 140.43C380.35 140.71 380.37 140.99 380.38 141.28C380.41 141.84 380.47 142.41 380.54 142.97L380.65 143.81C380.69 144.09 380.74 144.37 380.79 144.64C380.84 144.92 380.89 145.2 380.95 145.48C381.03 145.85 381.11 146.21 381.2 146.58C381.24 146.76 381.29 146.95 381.34 147.13C381.39 147.32 381.44 147.5 381.49 147.68C381.72 148.54 381.99 149.39 382.29 150.24C382.45 150.69 382.62 151.13 382.79 151.57C382.88 151.79 382.96 152.01 383.06 152.23C383.29 152.78 383.52 153.33 383.78 153.88C384.03 154.43 384.29 154.97 384.57 155.52C384.68 155.74 384.79 155.96 384.9 156.17C385.12 156.61 385.36 157.04 385.59 157.48C386.19 158.56 386.83 159.64 387.5 160.71C392.26 168.27 397.42 175.59 402.01 183.26C402.1 183.42 402.2 183.58 402.29 183.74C402.38 183.89 402.47 184.05 402.55 184.2C402.72 184.52 402.89 184.84 403.06 185.16C403.22 185.47 403.38 185.78 403.53 186.1C403.61 186.25 403.68 186.4 403.75 186.55C404 187.07 404.24 187.6 404.48 188.14C404.61 188.44 404.74 188.74 404.87 189.04C404.91 189.12 404.94 189.2 404.97 189.27C405.15 189.7 405.33 190.12 405.5 190.54C405.69 191.02 405.89 191.49 406.08 191.97C406.22 192.3 406.35 192.64 406.49 192.98C406.93 194.05 407.38 195.13 407.87 196.22C408.64 194.69 409.36 193.18 410.01 191.7C410.23 191.21 410.44 190.72 410.65 190.23C410.79 189.91 410.92 189.59 411.05 189.26C411.18 188.93 411.31 188.62 411.44 188.29C411.52 188.09 411.6 187.9 411.67 187.7C411.82 187.32 411.96 186.94 412.1 186.56C412.24 186.18 412.37 185.81 412.5 185.43C412.58 185.22 412.65 185 412.72 184.79C412.79 184.59 412.85 184.4 412.91 184.21C413.02 183.88 413.12 183.55 413.22 183.23C413.35 182.83 413.47 182.42 413.59 182.02C413.71 181.61 413.82 181.21 413.92 180.81C413.97 180.62 414.02 180.44 414.07 180.25C414.3 179.32 414.51 178.4 414.69 177.49C414.69 177.49 414.69 177.487 414.69 177.48C414.74 177.23 414.79 176.98 414.83 176.74C414.92 176.28 414.99 175.81 415.06 175.35C415.17 174.64 415.26 173.94 415.33 173.24C415.44 172.15 415.52 171.07 415.54 170.01C415.54 169.71 415.55 169.41 415.55 169.11C415.55 168.59 415.54 168.07 415.52 167.55C415.51 167.29 415.5 167.04 415.48 166.79C415.46 166.53 415.45 166.28 415.43 166.03C415.42 165.86 415.4 165.69 415.38 165.52C415.36 165.3 415.34 165.07 415.31 164.84C415.29 164.62 415.26 164.39 415.23 164.17C415.17 163.72 415.1 163.27 415.02 162.83C415 162.71 414.98 162.59 414.95 162.47C414.93 162.32 414.9 162.18 414.87 162.03C414.83 161.84 414.79 161.64 414.75 161.45C414.72 161.32 414.7 161.18 414.66 161.05C414.61 160.81 414.55 160.57 414.49 160.32C414.42 160.06 414.36 159.8 414.29 159.54C414.15 159.02 414 158.5 413.83 157.98C413.73 157.66 413.62 157.33 413.5 157.01C413.37 156.62 413.22 156.23 413.07 155.85C412.99 155.66 412.92 155.47 412.84 155.27C412.71 154.95 412.57 154.62 412.43 154.3C412.34 154.09 412.24 153.87 412.15 153.66C412.05 153.44 411.95 153.21 411.84 152.99C411.72 152.73 411.59 152.48 411.46 152.22C411.39 152.08 411.32 151.94 411.25 151.8C411.09 151.48 410.92 151.17 410.74 150.85C410.41 150.23 410.05 149.62 409.67 149C409.56 148.81 409.45 148.62 409.33 148.44C409.17 148.18 409.01 147.93 408.84 147.68C408.49 147.14 408.13 146.6 407.75 146.06C407.59 145.83 407.43 145.6 407.26 145.37C406.97 144.95 406.66 144.55 406.35 144.14C405.93 143.59 405.51 143.05 405.09 142.51C405.05 142.46 405.01 142.4 404.97 142.35C404.63 141.91 404.29 141.47 403.94 141.03C403.19 140.06 402.43 139.1 401.66 138.14C401.12 137.47 400.59 136.79 400.05 136.12C399.48 135.42 398.91 134.71 398.35 134.01C396.08 131.2 393.78 128.4 391.48 125.6C391.41 125.52 391.35 125.44 391.28 125.37L391.25 125.33Z" fill="url(#paint9_linear_306_76)"/>
<path d="M193.19 151.39C193.02 151.71 192.86 152.03 192.7 152.35C192.54 152.67 192.38 152.99 192.24 153.31C192.12 153.57 192 153.82 191.89 154.08C191.59 154.76 191.31 155.43 191.06 156.12C191 156.28 190.94 156.44 190.89 156.6C190.72 157.05 190.57 157.51 190.43 157.96C190.34 158.22 190.27 158.48 190.19 158.74C189.75 160.21 189.41 161.7 189.17 163.2C189.14 163.38 189.11 163.56 189.09 163.74C189.05 163.99 189.02 164.24 188.99 164.5C188.95 164.78 188.92 165.06 188.9 165.34C188.87 165.57 188.85 165.79 188.83 166.02C188.81 166.28 188.79 166.53 188.78 166.78C188.76 167.04 188.75 167.29 188.74 167.55C188.73 167.8 188.72 168.04 188.72 168.28C188.72 168.55 188.71 168.82 188.71 169.09C188.71 169.45 188.71 169.79 188.73 170.14C188.75 171.1 188.81 172.06 188.91 173.02C188.96 173.54 189.02 174.07 189.09 174.59C189.13 174.87 189.17 175.14 189.21 175.42C189.41 176.76 189.69 178.12 190.01 179.51C190.08 179.78 190.15 180.06 190.22 180.34C190.29 180.61 190.36 180.89 190.44 181.18C190.54 181.55 190.64 181.91 190.75 182.28C190.8 182.46 190.85 182.62 190.9 182.79C190.99 183.1 191.09 183.4 191.18 183.71C191.28 184.01 191.38 184.32 191.48 184.62C191.77 185.48 192.08 186.35 192.41 187.22C192.51 187.49 192.62 187.77 192.73 188.04C193.02 188.78 193.33 189.53 193.65 190.28C193.72 190.45 193.8 190.63 193.87 190.8C194.63 192.56 195.48 194.36 196.4 196.2C196.89 195.11 197.33 194.03 197.78 192.96C198.29 191.71 198.79 190.47 199.3 189.27C199.33 189.19 199.36 189.13 199.39 189.06C199.56 188.66 199.74 188.26 199.91 187.86C200.16 187.3 200.42 186.73 200.69 186.18C200.91 185.74 201.13 185.3 201.36 184.86C201.65 184.31 201.96 183.77 202.27 183.24C206.85 175.57 212.01 168.25 216.78 160.69C217.18 160.05 217.58 159.4 217.95 158.76C218.2 158.33 218.45 157.9 218.69 157.47C219.89 155.3 220.92 153.12 221.74 150.9C221.99 150.23 222.22 149.57 222.43 148.9C222.53 148.59 222.62 148.27 222.71 147.96C222.76 147.75 222.82 147.54 222.88 147.34C222.94 147.1 223 146.86 223.06 146.62C223.23 145.9 223.39 145.18 223.51 144.45C223.68 143.48 223.8 142.51 223.87 141.52C223.94 140.6 223.97 139.67 223.95 138.73C223.95 138.53 223.95 138.34 223.93 138.15C223.92 137.96 223.91 137.76 223.9 137.57C223.88 137.28 223.86 136.99 223.83 136.7C223.8 136.41 223.78 136.12 223.74 135.82C223.72 135.63 223.69 135.43 223.66 135.24C223.63 135.05 223.61 134.85 223.57 134.65C223.47 134.01 223.34 133.36 223.19 132.71C223.16 132.57 223.12 132.43 223.09 132.28C222.99 131.88 222.89 131.48 222.77 131.07C222.71 130.87 222.66 130.68 222.59 130.47C222.53 130.27 222.46 130.07 222.4 129.87C222.32 129.64 222.24 129.4 222.16 129.17C222.08 128.94 221.99 128.7 221.9 128.47C221.72 127.99 221.53 127.53 221.32 127.05C221.19 126.76 221.06 126.48 220.93 126.23C220.89 126.14 220.84 126.06 220.79 125.97C220.35 125.16 219.86 124.51 219.34 124.04C219.25 123.95 219.15 123.88 219.06 123.8C218.98 123.73 218.9 123.67 218.81 123.61C218.79 123.6 218.77 123.58 218.75 123.57C218.68 123.53 218.61 123.48 218.54 123.44C218.5 123.41 218.46 123.4 218.42 123.37C218.35 123.34 218.28 123.3 218.21 123.27C218.12 123.23 218.02 123.19 217.92 123.16C217.88 123.14 217.85 123.13 217.81 123.13C217.81 123.13 217.8 123.13 217.79 123.13C217.72 123.11 217.64 123.09 217.57 123.08C217.47 123.06 217.36 123.04 217.26 123.03C217.16 123.01 217.05 123.01 216.94 123.01C216.92 123.01 216.89 123.01 216.87 123.01C216.81 123.01 216.76 123.01 216.7 123.02C216.62 123.02 216.54 123.03 216.45 123.05C215.86 123.14 215.25 123.39 214.64 123.81C214.55 123.87 214.47 123.94 214.38 124C214.29 124.07 214.2 124.14 214.11 124.21C213.99 124.31 213.86 124.42 213.74 124.54C213.69 124.59 213.63 124.64 213.58 124.7C213.31 124.96 213.04 125.25 212.78 125.57C209.34 129.77 205.89 133.97 202.51 138.22C201.98 138.89 201.45 139.56 200.93 140.23C200.84 140.33 200.77 140.43 200.69 140.54C200.18 141.19 199.67 141.84 199.17 142.49C198.75 143.03 198.34 143.57 197.92 144.11C197.61 144.52 197.3 144.92 197.01 145.33C196.8 145.62 196.59 145.91 196.39 146.2C195.35 147.69 194.41 149.19 193.59 150.68C193.46 150.91 193.33 151.14 193.21 151.38L193.19 151.39Z" fill="url(#paint10_linear_306_76)"/>
<path d="M418.38 276.6C416.31 278.85 413.57 281.7 410.73 284.61C390.46 305.37 364.66 320.02 336.32 326.2C335.51 326.38 334.69 326.55 333.88 326.71C333.48 325.71 333.09 324.71 332.7 323.71C332.34 322.78 332 321.85 331.65 320.92C331.06 319.35 330.5 317.76 329.95 316.17C329.82 315.81 329.7 315.45 329.58 315.09C329.35 314.42 329.13 313.76 328.91 313.09C328.6 312.16 328.29 311.22 328 310.28C327.78 309.56 327.55 308.85 327.33 308.14C327.24 307.86 327.16 307.58 327.07 307.3C326.51 305.43 325.97 303.55 325.45 301.66C319.2 278.72 317.08 255.93 327.6 233.42C328.49 231.51 329.37 229.6 330.24 227.68C330.63 226.84 331.01 226.01 331.4 225.18C331.83 224.27 332.25 223.36 332.68 222.44C332.94 221.89 333.2 221.34 333.47 220.79C334.2 219.27 334.96 217.77 335.74 216.28C335.99 215.8 336.25 215.32 336.5 214.84C336.83 214.23 337.17 213.62 337.51 213.02C337.85 212.41 338.2 211.81 338.55 211.21C338.72 210.91 338.9 210.61 339.09 210.31C339.24 210.05 339.4 209.8 339.56 209.55C339.79 209.17 340.02 208.8 340.26 208.43C340.33 208.32 340.4 208.22 340.47 208.11C340.79 207.62 341.1 207.14 341.44 206.66C341.7 206.28 341.96 205.91 342.22 205.53C342.27 205.46 342.32 205.39 342.37 205.32C342.52 205.1 342.68 204.89 342.83 204.68C342.92 204.55 343 204.44 343.1 204.32C343.22 204.15 343.34 203.99 343.46 203.83C346.52 199.78 349.91 196 354.95 194.34C355.43 194.18 355.91 194.06 356.38 193.99C356.53 193.97 356.67 193.95 356.81 193.93C356.91 193.92 357.01 193.91 357.12 193.9C357.56 193.86 357.99 193.86 358.4 193.9C358.77 193.93 359.13 193.99 359.48 194.08C359.56 194.1 359.64 194.12 359.71 194.15C359.83 194.18 359.95 194.22 360.06 194.26C360.19 194.31 360.32 194.36 360.45 194.42C360.51 194.45 360.58 194.47 360.64 194.51C360.96 194.66 361.26 194.85 361.54 195.06C361.65 195.15 361.76 195.23 361.86 195.32C361.97 195.41 362.07 195.51 362.17 195.61C362.27 195.71 362.37 195.81 362.46 195.92C362.51 195.97 362.55 196.03 362.6 196.08C362.67 196.17 362.74 196.25 362.81 196.35C362.88 196.44 362.94 196.54 363 196.63C363.08 196.74 363.15 196.86 363.22 196.99C363.31 197.17 363.41 197.35 363.49 197.54C363.52 197.61 363.55 197.69 363.58 197.76C363.61 197.84 363.64 197.91 363.67 197.98C363.72 198.13 363.77 198.28 363.82 198.43C363.89 198.64 363.94 198.86 363.99 199.08C364.04 199.3 364.08 199.53 364.11 199.76C364.53 202.77 364.37 205.94 363.98 208.97C363.93 209.36 363.88 209.76 363.82 210.16C363.77 210.56 363.71 210.95 363.65 211.35C363.33 213.46 362.96 215.56 362.6 217.66C362.47 218.38 362.35 219.1 362.23 219.83C362.12 220.5 362.01 221.16 361.9 221.82C361.85 222.13 361.8 222.43 361.76 222.73C361.63 223.57 361.51 224.41 361.41 225.25C361.37 225.53 361.33 225.8 361.31 226.08C361.29 226.17 361.28 226.25 361.28 226.34C361.21 226.86 361.16 227.38 361.11 227.9C360.68 232.36 360.59 237.03 361.48 241.38C361.51 241.51 361.53 241.64 361.57 241.76C361.59 241.85 361.61 241.93 361.64 242.02C361.64 242.05 361.65 242.07 361.66 242.1C361.71 242.31 361.77 242.52 361.84 242.72C361.87 242.81 361.89 242.9 361.93 242.99C361.96 243.09 362 243.19 362.03 243.28C362.06 243.38 362.1 243.47 362.14 243.56C362.23 243.79 362.32 244.01 362.42 244.23C362.51 244.42 362.61 244.61 362.7 244.79C362.77 244.93 362.84 245.06 362.92 245.19C362.99 245.32 363.07 245.44 363.14 245.56C363.22 245.68 363.3 245.8 363.38 245.91C363.54 246.14 363.71 246.37 363.89 246.59C363.97 246.68 364.05 246.78 364.14 246.87C364.15 246.89 364.17 246.91 364.19 246.93C364.29 247.04 364.39 247.15 364.49 247.26C364.7 247.47 364.91 247.67 365.13 247.86C365.85 248.48 366.64 248.99 367.49 249.36C367.6 249.41 367.71 249.46 367.83 249.51C368.16 249.65 368.5 249.77 368.85 249.86C368.92 249.88 368.98 249.9 369.05 249.91C369.12 249.93 369.18 249.94 369.25 249.96C369.38 249.99 369.5 250.02 369.62 250.04C369.75 250.07 369.87 250.09 370 250.11C370.09 250.13 370.17 250.14 370.27 250.15C370.4 250.17 370.53 250.18 370.66 250.19C370.81 250.2 370.95 250.21 371.1 250.22C371.25 250.22 371.4 250.23 371.55 250.23C371.72 250.23 371.89 250.23 372.06 250.21C372.2 250.21 372.33 250.2 372.46 250.18C372.66 250.17 372.87 250.14 373.08 250.11C373.23 250.09 373.39 250.06 373.55 250.03C373.9 249.96 374.25 249.88 374.6 249.77C374.81 249.71 375.03 249.64 375.24 249.56C375.46 249.48 375.69 249.39 375.92 249.29C376.09 249.22 376.26 249.14 376.43 249.06C376.6 248.98 376.77 248.89 376.94 248.8C381.75 246.23 386.37 242.82 390.13 238.88C392.05 236.86 393.89 234.78 395.63 232.64C395.81 232.42 395.98 232.21 396.16 231.99C396.26 231.87 396.36 231.74 396.45 231.62C396.84 231.14 397.22 230.65 397.6 230.17C397.92 229.75 398.24 229.34 398.56 228.92C398.88 228.49 399.2 228.06 399.52 227.62C399.66 227.44 399.79 227.26 399.92 227.07C400.05 226.89 400.18 226.71 400.31 226.52C400.6 226.11 400.9 225.7 401.19 225.28C401.48 224.86 401.76 224.46 402.04 224.03C403.34 222.12 404.58 220.18 405.78 218.21C406.57 216.9 407.34 215.58 408.08 214.25C408.33 213.81 408.58 213.36 408.82 212.91C409.02 212.55 409.22 212.18 409.42 211.82C410.1 210.56 410.76 209.3 411.4 208.02C411.59 207.65 411.78 207.28 411.96 206.91C412.23 206.36 412.51 205.81 412.77 205.25C412.98 204.82 413.19 204.39 413.39 203.96C413.66 203.39 413.93 202.82 414.19 202.25C414.55 201.47 414.91 200.69 415.26 199.91C415.62 199.1 415.98 198.29 416.33 197.47V197.42C416.48 197.09 416.62 196.78 416.76 196.45C416.81 196.34 416.86 196.23 416.9 196.12C417.21 195.39 417.52 194.66 417.82 193.92C418.09 193.25 418.37 192.57 418.64 191.89C424.34 177.62 425.09 163.37 419.93 148.79C418.94 145.99 417.97 143.17 417.03 140.35C416.14 137.68 415.27 135.01 414.43 132.33C414.09 131.26 413.76 130.2 413.44 129.13C412.75 126.88 412.09 124.62 411.44 122.36C408.26 111.22 409.85 100.75 417.02 91.37C417.22 91.1 417.42 90.86 417.63 90.62C417.83 90.39 418.03 90.17 418.24 89.97C418.45 89.77 418.64 89.59 418.85 89.42C418.95 89.33 419.05 89.26 419.16 89.18C419.31 89.07 419.46 88.97 419.61 88.87C419.74 88.79 419.86 88.72 419.98 88.66C420.05 88.63 420.11 88.59 420.17 88.57C420.3 88.51 420.43 88.46 420.55 88.41C420.6 88.39 420.66 88.36 420.72 88.36C420.73 88.36 420.74 88.35 420.75 88.35C420.88 88.31 421 88.27 421.12 88.25C421.24 88.22 421.36 88.21 421.48 88.2C421.7 88.17 421.93 88.17 422.15 88.2C422.24 88.2 422.33 88.22 422.42 88.24C422.5 88.26 422.58 88.28 422.67 88.3C422.7 88.3 422.74 88.32 422.77 88.33C422.82 88.34 422.87 88.36 422.92 88.38C422.94 88.38 422.95 88.38 422.97 88.4C423.06 88.43 423.14 88.47 423.23 88.51C423.32 88.55 423.4 88.6 423.49 88.65C423.58 88.7 423.66 88.75 423.75 88.8C423.85 88.87 423.94 88.93 424.03 89C424.19 89.13 424.36 89.27 424.52 89.43C424.59 89.49 424.65 89.56 424.71 89.62C424.81 89.72 424.91 89.83 425 89.94C425.08 90.04 425.16 90.14 425.24 90.25C425.32 90.35 425.4 90.46 425.47 90.57C425.51 90.63 425.56 90.7 425.6 90.76C425.68 90.88 425.76 91.01 425.83 91.13C425.92 91.28 426.02 91.44 426.1 91.61C426.2 91.78 426.29 91.97 426.38 92.16C426.43 92.25 426.47 92.35 426.52 92.44C432.92 107.85 439.62 123.14 445.61 138.7C450.26 150.79 454.49 163.18 455.25 176.26C457.49 214.98 444.49 248.3 418.44 276.6H418.38Z" fill="url(#paint11_linear_306_76)"/>
<path d="M278.77 301.67C278.58 302.36 278.39 303.04 278.2 303.73C278.06 304.21 277.93 304.69 277.79 305.16C277.6 305.8 277.42 306.43 277.22 307.07C277.12 307.43 277.01 307.79 276.89 308.15C276.67 308.87 276.45 309.58 276.22 310.29C275.99 311.01 275.76 311.72 275.53 312.44C275.32 313.09 275.11 313.73 274.87 314.41C274.69 314.92 274.53 315.43 274.36 315.94C274.32 316.05 274.28 316.16 274.24 316.27C273.96 317.08 273.67 317.89 273.38 318.7C273.11 319.45 272.84 320.19 272.57 320.93C272.4 321.4 272.22 321.86 272.05 322.33C271.86 322.85 271.66 323.37 271.46 323.89C271.15 324.69 270.84 325.49 270.52 326.29C270.47 326.44 270.41 326.58 270.35 326.73C269.53 326.56 268.72 326.39 267.9 326.22C239.26 319.97 213.28 305.01 192.84 284C190.47 281.57 188.14 279.11 185.84 276.62C159.78 248.33 146.79 215 149.02 176.28C149.78 163.19 154 150.81 158.66 138.72C164.65 123.16 171.35 107.87 177.75 92.46L177.86 92.23C177.95 92.06 178.02 91.89 178.12 91.74C178.18 91.63 178.24 91.52 178.3 91.41C178.56 90.96 178.82 90.55 179.1 90.2C179.16 90.12 179.23 90.04 179.29 89.97C179.42 89.81 179.56 89.65 179.71 89.51C179.81 89.41 179.92 89.31 180.02 89.22C180.4 88.89 180.8 88.64 181.21 88.48C181.23 88.47 181.25 88.46 181.28 88.45C181.36 88.42 181.44 88.39 181.53 88.37C181.61 88.35 181.68 88.33 181.76 88.31C181.78 88.31 181.79 88.31 181.81 88.31C181.81 88.31 181.84 88.31 181.85 88.3H181.89C181.89 88.3 181.92 88.29 181.93 88.29H181.95C182.01 88.28 182.07 88.27 182.13 88.26C182.22 88.25 182.32 88.24 182.41 88.24H182.57C182.68 88.24 182.8 88.25 182.91 88.27C182.92 88.27 182.93 88.27 182.94 88.27C183.21 88.31 183.48 88.38 183.75 88.49C183.86 88.53 183.97 88.58 184.08 88.63C184.21 88.69 184.34 88.76 184.47 88.83C184.47 88.83 184.47 88.83 184.48 88.83C184.48 88.83 184.49 88.84 184.5 88.84C184.59 88.89 184.67 88.94 184.76 89C184.82 89.04 184.88 89.08 184.94 89.13C185.02 89.18 185.09 89.24 185.17 89.29C185.25 89.34 185.32 89.4 185.4 89.47C185.6 89.63 185.8 89.81 186.01 90.02C186.11 90.12 186.21 90.22 186.32 90.33C186.52 90.55 186.72 90.78 186.93 91.03C187.03 91.16 187.13 91.29 187.24 91.42C194.41 100.8 196 111.28 192.82 122.41C192.18 124.67 191.51 126.93 190.82 129.18C190.49 130.25 190.16 131.32 189.83 132.39C189.16 134.54 188.46 136.68 187.76 138.82C187.59 139.34 187.41 139.87 187.24 140.39C186.61 142.3 185.96 144.2 185.3 146.09C184.98 147.01 184.66 147.93 184.34 148.84C179.18 163.42 179.93 177.67 185.62 191.94C185.9 192.65 186.19 193.36 186.48 194.07C187.19 195.8 187.92 197.52 188.68 199.23C188.96 199.88 189.25 200.53 189.55 201.17C189.78 201.68 190.01 202.18 190.24 202.68C190.47 203.18 190.7 203.69 190.94 204.18C190.97 204.25 190.99 204.3 191.03 204.36C191.32 204.98 191.62 205.59 191.92 206.21C192.18 206.73 192.43 207.24 192.69 207.76C193.07 208.52 193.46 209.28 193.86 210.04C194.08 210.47 194.31 210.9 194.54 211.32C195.57 213.25 196.63 215.14 197.75 217.02C197.95 217.36 198.15 217.71 198.36 218.05C198.4 218.12 198.44 218.19 198.49 218.26C198.8 218.77 199.1 219.27 199.42 219.77C199.62 220.1 199.83 220.42 200.04 220.75C200.75 221.88 201.48 222.99 202.24 224.09C202.48 224.46 202.73 224.81 202.98 225.17C203.61 226.07 204.25 226.97 204.89 227.85C205.17 228.23 205.45 228.6 205.73 228.97C206.54 230.05 207.37 231.11 208.22 232.17C208.65 232.69 209.07 233.21 209.51 233.73C210.44 234.84 211.4 235.94 212.38 237.02C212.65 237.33 212.93 237.63 213.22 237.94C213.53 238.27 213.84 238.61 214.15 238.93C217.9 242.87 222.53 246.28 227.34 248.85C227.51 248.94 227.68 249.02 227.85 249.11C228.02 249.19 228.19 249.27 228.36 249.34C228.58 249.43 228.81 249.53 229.04 249.61C229.25 249.69 229.47 249.75 229.68 249.82C230.14 249.96 230.61 250.06 231.07 250.14C231.29 250.17 231.52 250.2 231.74 250.22C234.51 250.49 237.12 249.64 239.15 247.9C239.37 247.71 239.59 247.51 239.79 247.3C239.89 247.19 239.99 247.09 240.09 246.97L240.14 246.92C240.84 246.12 241.45 245.19 241.92 244.15C241.99 244.01 242.05 243.87 242.1 243.73C242.17 243.57 242.23 243.41 242.29 243.25C242.32 243.18 242.34 243.1 242.37 243.03C242.42 242.88 242.47 242.74 242.51 242.58C242.52 242.57 242.52 242.55 242.52 242.54C242.59 242.34 242.64 242.14 242.69 241.93C242.73 241.76 242.77 241.59 242.8 241.42C243.68 237.08 243.59 232.4 243.16 227.94C243.11 227.42 243.06 226.9 242.99 226.38C242.99 226.3 242.97 226.21 242.96 226.12C242.93 225.84 242.89 225.57 242.86 225.29C242.86 225.25 242.86 225.2 242.84 225.16C242.81 224.9 242.77 224.64 242.74 224.38C242.67 223.84 242.59 223.31 242.51 222.77C242.47 222.46 242.42 222.16 242.37 221.86C242.27 221.19 242.16 220.53 242.04 219.87C241.92 219.14 241.79 218.42 241.67 217.7C241.4 216.17 241.13 214.64 240.88 213.11C240.84 212.84 240.79 212.56 240.75 212.28C240.69 211.92 240.64 211.56 240.58 211.19C240.53 210.83 240.47 210.47 240.42 210.1C240.37 209.74 240.32 209.37 240.27 209.01C239.88 205.98 239.72 202.81 240.14 199.8C240.16 199.65 240.18 199.51 240.21 199.37C240.24 199.23 240.26 199.09 240.3 198.95C240.34 198.81 240.37 198.68 240.41 198.55C240.44 198.42 240.49 198.29 240.53 198.16C240.57 198.03 240.62 197.91 240.67 197.79C240.73 197.64 240.8 197.49 240.87 197.35C241.08 196.92 241.32 196.53 241.61 196.18C241.69 196.09 241.76 195.99 241.84 195.91C241.92 195.82 242 195.74 242.09 195.65C242.17 195.57 242.25 195.49 242.34 195.41C242.43 195.33 242.52 195.26 242.61 195.19C242.7 195.12 242.8 195.05 242.89 194.98C242.99 194.91 243.09 194.85 243.19 194.79C243.32 194.71 243.45 194.65 243.58 194.58C243.59 194.58 243.6 194.57 243.61 194.56C243.67 194.53 243.73 194.51 243.79 194.48C243.8 194.48 243.81 194.47 243.82 194.46C243.86 194.44 243.9 194.43 243.93 194.41C243.95 194.41 243.96 194.4 243.98 194.39C244.35 194.24 244.74 194.12 245.15 194.04C245.27 194.02 245.39 194 245.51 193.98C245.69 193.95 245.88 193.93 246.07 193.93C246.21 193.92 246.35 193.91 246.49 193.91C246.94 193.91 247.4 193.94 247.87 194.02C248.34 194.1 248.81 194.22 249.3 194.37C254.34 196.03 257.72 199.81 260.79 203.86C261.16 204.36 261.53 204.85 261.89 205.36C262.08 205.62 262.27 205.89 262.45 206.15C262.58 206.35 262.72 206.54 262.85 206.74C263.03 207 263.2 207.26 263.37 207.53C264.1 208.63 264.8 209.74 265.47 210.87C265.64 211.15 265.81 211.44 265.98 211.72C268 215.17 269.79 218.74 271.51 222.35C271.76 222.87 272 223.38 272.24 223.9C272.61 224.69 272.98 225.49 273.35 226.29C274.46 228.68 275.55 231.07 276.66 233.46C287.19 255.97 285.06 278.76 278.82 301.7L278.77 301.67Z" fill="url(#paint12_linear_306_76)"/>
<path d="M233.34 94.39C245.021 94.39 254.49 84.9208 254.49 73.24C254.49 61.5592 245.021 52.09 233.34 52.09C221.659 52.09 212.19 61.5592 212.19 73.24C212.19 84.9208 221.659 94.39 233.34 94.39Z" fill="url(#paint13_linear_306_76)"/>
<defs>
<linearGradient id="paint0_linear_306_76" x1="520.27" y1="37.83" x2="520.27" y2="326.05" gradientUnits="userSpaceOnUse">
<stop stop-color="#AFD2EE"/>
<stop offset="1" stop-color="#008AD6"/>
</linearGradient>
<linearGradient id="paint1_linear_306_76" x1="116.47" y1="37.83" x2="116.47" y2="326.05" gradientUnits="userSpaceOnUse">
<stop stop-color="#AFD2EE"/>
<stop offset="1" stop-color="#008AD6"/>
</linearGradient>
<linearGradient id="paint2_linear_306_76" x1="371.88" y1="50.87" x2="371.88" y2="228.34" gradientUnits="userSpaceOnUse">
<stop stop-color="#0096D8"/>
<stop offset="1" stop-color="#2264A7"/>
</linearGradient>
<linearGradient id="paint3_linear_306_76" x1="387.28" y1="50.8699" x2="387.28" y2="228.34" gradientUnits="userSpaceOnUse">
<stop stop-color="#0096D8"/>
<stop offset="1" stop-color="#2264A7"/>
</linearGradient>
<linearGradient id="paint4_linear_306_76" x1="370.87" y1="50.87" x2="370.87" y2="228.34" gradientUnits="userSpaceOnUse">
<stop stop-color="#0096D8"/>
<stop offset="1" stop-color="#2264A7"/>
</linearGradient>
<linearGradient id="paint5_linear_306_76" x1="232.33" y1="50.87" x2="232.33" y2="228.34" gradientUnits="userSpaceOnUse">
<stop stop-color="#0096D8"/>
<stop offset="1" stop-color="#2264A7"/>
</linearGradient>
<linearGradient id="paint6_linear_306_76" x1="216.93" y1="50.8699" x2="216.93" y2="228.34" gradientUnits="userSpaceOnUse">
<stop stop-color="#0096D8"/>
<stop offset="1" stop-color="#2264A7"/>
</linearGradient>
<linearGradient id="paint7_linear_306_76" x1="302.1" y1="38.23" x2="302.1" y2="329.44" gradientUnits="userSpaceOnUse">
<stop stop-color="#AFD2EE"/>
<stop offset="1" stop-color="#008AD6"/>
</linearGradient>
<linearGradient id="paint8_linear_306_76" x1="302.1" y1="38.23" x2="302.1" y2="329.44" gradientUnits="userSpaceOnUse">
<stop stop-color="#AFD2EE"/>
<stop offset="1" stop-color="#008AD6"/>
</linearGradient>
<linearGradient id="paint9_linear_306_76" x1="397.91" y1="73.07" x2="397.91" y2="332.71" gradientUnits="userSpaceOnUse">
<stop stop-color="#0096D8"/>
<stop offset="1" stop-color="#2264A7"/>
</linearGradient>
<linearGradient id="paint10_linear_306_76" x1="206.3" y1="73.07" x2="206.3" y2="332.71" gradientUnits="userSpaceOnUse">
<stop stop-color="#0096D8"/>
<stop offset="1" stop-color="#2264A7"/>
</linearGradient>
<linearGradient id="paint11_linear_306_76" x1="387.83" y1="73.07" x2="387.83" y2="332.71" gradientUnits="userSpaceOnUse">
<stop stop-color="#0096D8"/>
<stop offset="1" stop-color="#2264A7"/>
</linearGradient>
<linearGradient id="paint12_linear_306_76" x1="216.38" y1="73.07" x2="216.38" y2="332.71" gradientUnits="userSpaceOnUse">
<stop stop-color="#0096D8"/>
<stop offset="1" stop-color="#2264A7"/>
</linearGradient>
<linearGradient id="paint13_linear_306_76" x1="233.34" y1="50.87" x2="233.34" y2="228.34" gradientUnits="userSpaceOnUse">
<stop stop-color="#0096D8"/>
<stop offset="1" stop-color="#2264A7"/>
</linearGradient>
</defs>
</svg>
