<svg width="646" height="327" viewBox="0 0 646 327" fill="none" xmlns="http://www.w3.org/2000/svg">
<path opacity="0.58" d="M400.5 176.09C400.5 99.4483 459.26 44.5 538.75 44.5C582.02 44.5 618.058 59.8892 641.979 87.7134L607.084 119.927C589.504 100.664 567.565 90.62 541.72 90.62C516.86 90.62 495.463 99.3605 480.275 114.501C465.086 129.642 456.25 151.041 456.25 176.09C456.25 201.139 465.086 222.538 480.275 237.679C495.463 252.819 516.86 261.56 541.72 261.56C567.57 261.56 589.518 251.511 607.1 231.898L641.99 264.107C618.072 292.281 582.027 307.68 538.38 307.68C459.254 307.68 400.5 252.746 400.5 176.09Z" fill="white" stroke="#006AB0" stroke-width="5"/>
<path opacity="0.58" d="M88.04 98.41V95.91H85.54H2.5V50.5H230.45V95.91H147.41H144.91V98.41V312.82H88.04V98.41Z" fill="white" stroke="#006AB0" stroke-width="5"/>
<path d="M360.956 117.791L360.956 117.791L360.952 117.785C359.554 115.401 358.109 113.112 356.613 110.918C361.118 107.151 366.025 105.16 371.096 105.16C375.722 105.16 380.225 106.82 384.396 109.965C382.966 110.243 381.319 110.754 379.621 111.667C376.73 113.223 373.823 115.875 371.608 120.24H371.544L370.892 121.746C369.502 124.955 368.497 128.189 367.881 131.454C365.788 126.677 363.474 122.113 360.956 117.791Z" fill="white" stroke="#006AB0" stroke-width="5"/>
<path d="M397.735 205.815C392.698 215.107 387.182 222.822 380.887 229.474L378.626 227.2L381.112 227.469C381.112 227.469 381.112 227.468 381.112 227.468C381.901 220.178 382.306 212.708 382.306 205.16C382.306 194.217 381.462 183.462 379.823 173.114C380.742 174.519 381.658 175.906 382.56 177.268C382.561 177.269 382.561 177.27 382.562 177.27L382.695 177.472C385.57 181.834 388.253 185.904 390.759 190.101C391.824 191.888 392.741 194.115 393.913 196.967C393.951 197.062 393.99 197.158 394.03 197.254C394.591 198.631 395.191 200.102 395.873 201.628C395.873 201.629 395.873 201.629 395.873 201.629L397.65 205.622L397.652 205.626L397.735 205.815Z" fill="white" stroke="#006AB0" stroke-width="5"/>
<path d="M389.746 73.24C389.746 83.5403 381.397 91.89 371.096 91.89C360.796 91.89 352.446 83.5403 352.446 73.24C352.446 62.9397 360.796 54.59 371.096 54.59C381.397 54.59 389.746 62.9397 389.746 73.24Z" fill="white" stroke="#006AB0" stroke-width="5"/>
<path d="M238.881 126.857L238.813 126.72L236.756 131.434C236.655 130.907 236.545 130.381 236.424 129.855C235.806 127.11 234.906 124.416 233.753 121.733L233.751 121.728C231.47 116.454 228.24 113.374 225.031 111.647C223.339 110.737 221.698 110.226 220.271 109.948C224.443 106.807 228.941 105.15 233.556 105.15C238.624 105.15 243.537 107.146 248.035 110.905C246.533 113.102 245.089 115.394 243.697 117.78L243.696 117.781C241.997 120.697 240.39 123.727 238.881 126.857Z" fill="white" stroke="#006AB0" stroke-width="5"/>
<path d="M207.022 205.612L208.799 201.619C208.799 201.619 208.799 201.619 208.8 201.618C209.481 200.091 210.081 198.621 210.643 197.244C210.682 197.148 210.721 197.053 210.76 196.958C210.76 196.957 210.76 196.956 210.761 196.955L210.829 196.789C211.971 194.007 212.86 191.843 213.909 190.098L213.913 190.092C216.445 185.851 219.168 181.73 222.077 177.327L222.122 177.258L222.124 177.256C223.028 175.884 223.949 174.485 224.874 173.068C223.233 183.423 222.386 194.188 222.386 205.15C222.386 212.697 222.791 220.165 223.58 227.453C223.651 228.134 223.725 228.814 223.803 229.492C217.51 222.835 211.979 215.105 206.937 205.805L207.02 205.616L207.022 205.612Z" fill="white" stroke="#006AB0" stroke-width="5"/>
<path opacity="0.58" d="M317.854 223.207L317.858 223.21C317.505 223.971 317.155 224.732 316.806 225.489L316.805 225.491C316.453 226.254 316.103 227.013 315.751 227.772C309.95 240.167 307.127 253.149 307.126 267.368C307.116 278.793 308.991 291.159 312.803 305.154C313.626 308.192 314.527 311.241 315.505 314.312C311.239 315.873 306.836 316.69 302.336 316.69C297.835 316.69 293.431 315.872 289.164 314.311C290.137 311.245 291.038 308.193 291.868 305.159L291.868 305.157C295.681 291.169 297.546 278.793 297.546 267.37C297.546 253.151 294.733 240.178 288.931 227.772C288.222 226.243 287.516 224.721 286.82 223.2L286.818 223.197L286.762 223.074C282.653 214.122 278.279 204.592 271.61 195.781L271.607 195.777C270.633 194.496 269.564 193.156 268.393 191.829C267.567 190.886 266.674 189.951 265.715 189.045C262.544 186.034 258.645 183.316 253.65 181.676C251.357 180.916 249.013 180.53 246.686 180.53C244.203 180.53 241.827 180.968 239.637 181.79C241.477 166.82 245.058 152.977 249.981 140.904L249.982 140.902C253.025 133.421 256.579 126.643 260.546 120.698C272.005 103.528 286.691 93.6 302.336 93.6C317.981 93.6 332.657 103.518 344.116 120.697L344.117 120.698C348.874 127.823 353.038 136.152 356.439 145.43L356.439 145.431C360.459 156.39 363.417 168.658 365.034 181.788C362.848 180.967 360.474 180.53 357.986 180.53C355.659 180.53 353.313 180.916 351.019 181.677C347.433 182.865 344.385 184.609 341.777 186.632C339.683 188.251 337.881 190.037 336.288 191.829C335.112 193.152 334.04 194.496 333.062 195.793C326.378 204.636 321.987 214.203 317.863 223.188L317.854 223.207Z" fill="white" stroke="#006AB0" stroke-width="5"/>
<path opacity="0.58" d="M338.166 38.33C338.166 58.1193 322.125 74.16 302.336 74.16C282.547 74.16 266.506 58.1193 266.506 38.33C266.506 18.5407 282.547 2.5 302.336 2.5C322.125 2.5 338.166 18.5407 338.166 38.33Z" fill="white" stroke="#006AB0" stroke-width="5"/>
<mask id="path-10-inside-1_221_185" fill="white">
<path d="M391.476 125.33C391.406 125.25 391.346 125.18 391.276 125.11C391.206 125.03 391.126 124.95 391.056 124.87C390.976 124.79 390.906 124.72 390.836 124.65C390.786 124.6 390.736 124.55 390.686 124.51C390.616 124.44 390.556 124.38 390.486 124.33C390.026 123.92 389.556 123.61 389.106 123.4C389.046 123.37 388.976 123.34 388.916 123.31C388.846 123.28 388.786 123.26 388.726 123.23C388.616 123.19 388.506 123.15 388.396 123.13C388.286 123.1 388.186 123.08 388.076 123.06C388.036 123.05 388.006 123.04 387.976 123.04C387.976 123.04 387.966 123.04 387.956 123.04C387.896 123.04 387.836 123.03 387.786 123.02C387.706 123.01 387.616 123 387.536 123C387.426 123 387.326 123 387.216 123.02C387.006 123.04 386.796 123.08 386.596 123.15C386.586 123.15 386.566 123.16 386.556 123.16C386.466 123.19 386.386 123.23 386.296 123.26C386.196 123.3 386.096 123.35 386.006 123.4C385.916 123.45 385.836 123.5 385.746 123.55C385.646 123.62 385.536 123.7 385.426 123.78C385.336 123.86 385.236 123.93 385.146 124.02C385.056 124.1 384.956 124.19 384.876 124.29C384.786 124.39 384.696 124.49 384.606 124.59C384.436 124.8 384.256 125.03 384.096 125.28C384.016 125.41 383.936 125.54 383.856 125.67C383.806 125.76 383.756 125.85 383.706 125.94C383.656 126.02 383.616 126.11 383.566 126.2C383.426 126.46 383.296 126.74 383.176 127.03C382.256 129.16 381.596 131.26 381.166 133.32C381.006 134.06 380.886 134.81 380.786 135.54C380.786 135.57 380.776 135.61 380.776 135.64C380.706 136.12 380.666 136.58 380.626 137.05C380.606 137.25 380.596 137.45 380.586 137.66C380.576 137.82 380.566 137.99 380.566 138.16C380.556 138.33 380.546 138.51 380.546 138.68C380.536 139.07 380.546 139.47 380.546 139.86C380.546 140.05 380.556 140.24 380.566 140.43C380.576 140.71 380.596 140.99 380.606 141.28C380.636 141.84 380.696 142.41 380.766 142.97L380.876 143.81C380.916 144.09 380.966 144.37 381.016 144.64C381.066 144.92 381.116 145.2 381.176 145.48C381.256 145.85 381.336 146.21 381.426 146.58C381.466 146.76 381.516 146.95 381.566 147.13C381.616 147.32 381.666 147.5 381.716 147.68C381.946 148.54 382.216 149.39 382.516 150.24C382.676 150.69 382.846 151.13 383.016 151.57C383.106 151.79 383.186 152.01 383.286 152.23C383.516 152.78 383.746 153.33 384.006 153.88C384.256 154.43 384.516 154.97 384.796 155.52C384.906 155.74 385.016 155.96 385.126 156.17C385.346 156.61 385.586 157.04 385.816 157.48C386.416 158.56 387.056 159.64 387.726 160.71C392.486 168.27 397.646 175.59 402.236 183.26C402.326 183.42 402.426 183.58 402.516 183.74C402.606 183.89 402.696 184.05 402.776 184.2C402.946 184.52 403.116 184.84 403.286 185.16C403.446 185.47 403.606 185.78 403.756 186.1C403.836 186.25 403.906 186.4 403.976 186.55C404.226 187.07 404.466 187.6 404.706 188.14C404.836 188.44 404.966 188.74 405.096 189.04C405.136 189.12 405.166 189.2 405.196 189.27C405.376 189.7 405.556 190.12 405.726 190.54C405.916 191.02 406.116 191.49 406.306 191.97C406.446 192.3 406.576 192.64 406.716 192.98C407.156 194.05 407.606 195.13 408.096 196.22C408.866 194.69 409.586 193.18 410.236 191.7C410.456 191.21 410.666 190.72 410.876 190.23C411.016 189.91 411.146 189.59 411.276 189.26C411.406 188.93 411.536 188.62 411.666 188.29C411.746 188.09 411.826 187.9 411.896 187.7C412.046 187.32 412.186 186.94 412.326 186.56C412.466 186.18 412.596 185.81 412.726 185.43C412.806 185.22 412.876 185 412.946 184.79C413.016 184.59 413.076 184.4 413.136 184.21C413.246 183.88 413.346 183.55 413.446 183.23C413.576 182.83 413.696 182.42 413.816 182.02C413.936 181.61 414.046 181.21 414.146 180.81C414.196 180.62 414.246 180.44 414.296 180.25C414.526 179.32 414.736 178.4 414.916 177.49C414.916 177.49 414.916 177.487 414.916 177.48C414.966 177.23 415.016 176.98 415.056 176.74C415.146 176.28 415.216 175.81 415.286 175.35C415.396 174.64 415.486 173.94 415.556 173.24C415.666 172.15 415.746 171.07 415.766 170.01C415.766 169.71 415.776 169.41 415.776 169.11C415.776 168.59 415.766 168.07 415.746 167.55C415.736 167.29 415.726 167.04 415.706 166.79C415.686 166.53 415.676 166.28 415.656 166.03C415.646 165.86 415.626 165.69 415.606 165.52C415.586 165.3 415.566 165.07 415.536 164.84C415.516 164.62 415.486 164.39 415.456 164.17C415.396 163.72 415.326 163.27 415.246 162.83C415.226 162.71 415.206 162.59 415.176 162.47C415.156 162.32 415.126 162.18 415.096 162.03C415.056 161.84 415.016 161.64 414.976 161.45C414.946 161.32 414.926 161.18 414.886 161.05C414.836 160.81 414.776 160.57 414.716 160.32C414.646 160.06 414.586 159.8 414.516 159.54C414.376 159.02 414.226 158.5 414.056 157.98C413.956 157.66 413.846 157.33 413.726 157.01C413.596 156.62 413.446 156.23 413.296 155.85C413.216 155.66 413.146 155.47 413.066 155.27C412.936 154.95 412.796 154.62 412.656 154.3C412.566 154.09 412.466 153.87 412.376 153.66C412.276 153.44 412.176 153.21 412.066 152.99C411.946 152.73 411.816 152.48 411.686 152.22C411.616 152.08 411.546 151.94 411.476 151.8C411.316 151.48 411.146 151.17 410.966 150.85C410.636 150.23 410.276 149.62 409.896 149C409.786 148.81 409.676 148.62 409.556 148.44C409.396 148.18 409.236 147.93 409.066 147.68C408.716 147.14 408.356 146.6 407.976 146.06C407.816 145.83 407.656 145.6 407.486 145.37C407.196 144.95 406.886 144.55 406.576 144.14C406.156 143.59 405.736 143.05 405.316 142.51C405.276 142.46 405.236 142.4 405.196 142.35C404.856 141.91 404.516 141.47 404.166 141.03C403.416 140.06 402.656 139.1 401.886 138.14C401.346 137.47 400.816 136.79 400.276 136.12C399.706 135.42 399.136 134.71 398.576 134.01C396.306 131.2 394.006 128.4 391.706 125.6C391.636 125.52 391.576 125.44 391.506 125.37L391.476 125.33Z"/>
</mask>
<path d="M391.476 125.33C391.406 125.25 391.346 125.18 391.276 125.11C391.206 125.03 391.126 124.95 391.056 124.87C390.976 124.79 390.906 124.72 390.836 124.65C390.786 124.6 390.736 124.55 390.686 124.51C390.616 124.44 390.556 124.38 390.486 124.33C390.026 123.92 389.556 123.61 389.106 123.4C389.046 123.37 388.976 123.34 388.916 123.31C388.846 123.28 388.786 123.26 388.726 123.23C388.616 123.19 388.506 123.15 388.396 123.13C388.286 123.1 388.186 123.08 388.076 123.06C388.036 123.05 388.006 123.04 387.976 123.04C387.976 123.04 387.966 123.04 387.956 123.04C387.896 123.04 387.836 123.03 387.786 123.02C387.706 123.01 387.616 123 387.536 123C387.426 123 387.326 123 387.216 123.02C387.006 123.04 386.796 123.08 386.596 123.15C386.586 123.15 386.566 123.16 386.556 123.16C386.466 123.19 386.386 123.23 386.296 123.26C386.196 123.3 386.096 123.35 386.006 123.4C385.916 123.45 385.836 123.5 385.746 123.55C385.646 123.62 385.536 123.7 385.426 123.78C385.336 123.86 385.236 123.93 385.146 124.02C385.056 124.1 384.956 124.19 384.876 124.29C384.786 124.39 384.696 124.49 384.606 124.59C384.436 124.8 384.256 125.03 384.096 125.28C384.016 125.41 383.936 125.54 383.856 125.67C383.806 125.76 383.756 125.85 383.706 125.94C383.656 126.02 383.616 126.11 383.566 126.2C383.426 126.46 383.296 126.74 383.176 127.03C382.256 129.16 381.596 131.26 381.166 133.32C381.006 134.06 380.886 134.81 380.786 135.54C380.786 135.57 380.776 135.61 380.776 135.64C380.706 136.12 380.666 136.58 380.626 137.05C380.606 137.25 380.596 137.45 380.586 137.66C380.576 137.82 380.566 137.99 380.566 138.16C380.556 138.33 380.546 138.51 380.546 138.68C380.536 139.07 380.546 139.47 380.546 139.86C380.546 140.05 380.556 140.24 380.566 140.43C380.576 140.71 380.596 140.99 380.606 141.28C380.636 141.84 380.696 142.41 380.766 142.97L380.876 143.81C380.916 144.09 380.966 144.37 381.016 144.64C381.066 144.92 381.116 145.2 381.176 145.48C381.256 145.85 381.336 146.21 381.426 146.58C381.466 146.76 381.516 146.95 381.566 147.13C381.616 147.32 381.666 147.5 381.716 147.68C381.946 148.54 382.216 149.39 382.516 150.24C382.676 150.69 382.846 151.13 383.016 151.57C383.106 151.79 383.186 152.01 383.286 152.23C383.516 152.78 383.746 153.33 384.006 153.88C384.256 154.43 384.516 154.97 384.796 155.52C384.906 155.74 385.016 155.96 385.126 156.17C385.346 156.61 385.586 157.04 385.816 157.48C386.416 158.56 387.056 159.64 387.726 160.71C392.486 168.27 397.646 175.59 402.236 183.26C402.326 183.42 402.426 183.58 402.516 183.74C402.606 183.89 402.696 184.05 402.776 184.2C402.946 184.52 403.116 184.84 403.286 185.16C403.446 185.47 403.606 185.78 403.756 186.1C403.836 186.25 403.906 186.4 403.976 186.55C404.226 187.07 404.466 187.6 404.706 188.14C404.836 188.44 404.966 188.74 405.096 189.04C405.136 189.12 405.166 189.2 405.196 189.27C405.376 189.7 405.556 190.12 405.726 190.54C405.916 191.02 406.116 191.49 406.306 191.97C406.446 192.3 406.576 192.64 406.716 192.98C407.156 194.05 407.606 195.13 408.096 196.22C408.866 194.69 409.586 193.18 410.236 191.7C410.456 191.21 410.666 190.72 410.876 190.23C411.016 189.91 411.146 189.59 411.276 189.26C411.406 188.93 411.536 188.62 411.666 188.29C411.746 188.09 411.826 187.9 411.896 187.7C412.046 187.32 412.186 186.94 412.326 186.56C412.466 186.18 412.596 185.81 412.726 185.43C412.806 185.22 412.876 185 412.946 184.79C413.016 184.59 413.076 184.4 413.136 184.21C413.246 183.88 413.346 183.55 413.446 183.23C413.576 182.83 413.696 182.42 413.816 182.02C413.936 181.61 414.046 181.21 414.146 180.81C414.196 180.62 414.246 180.44 414.296 180.25C414.526 179.32 414.736 178.4 414.916 177.49C414.916 177.49 414.916 177.487 414.916 177.48C414.966 177.23 415.016 176.98 415.056 176.74C415.146 176.28 415.216 175.81 415.286 175.35C415.396 174.64 415.486 173.94 415.556 173.24C415.666 172.15 415.746 171.07 415.766 170.01C415.766 169.71 415.776 169.41 415.776 169.11C415.776 168.59 415.766 168.07 415.746 167.55C415.736 167.29 415.726 167.04 415.706 166.79C415.686 166.53 415.676 166.28 415.656 166.03C415.646 165.86 415.626 165.69 415.606 165.52C415.586 165.3 415.566 165.07 415.536 164.84C415.516 164.62 415.486 164.39 415.456 164.17C415.396 163.72 415.326 163.27 415.246 162.83C415.226 162.71 415.206 162.59 415.176 162.47C415.156 162.32 415.126 162.18 415.096 162.03C415.056 161.84 415.016 161.64 414.976 161.45C414.946 161.32 414.926 161.18 414.886 161.05C414.836 160.81 414.776 160.57 414.716 160.32C414.646 160.06 414.586 159.8 414.516 159.54C414.376 159.02 414.226 158.5 414.056 157.98C413.956 157.66 413.846 157.33 413.726 157.01C413.596 156.62 413.446 156.23 413.296 155.85C413.216 155.66 413.146 155.47 413.066 155.27C412.936 154.95 412.796 154.62 412.656 154.3C412.566 154.09 412.466 153.87 412.376 153.66C412.276 153.44 412.176 153.21 412.066 152.99C411.946 152.73 411.816 152.48 411.686 152.22C411.616 152.08 411.546 151.94 411.476 151.8C411.316 151.48 411.146 151.17 410.966 150.85C410.636 150.23 410.276 149.62 409.896 149C409.786 148.81 409.676 148.62 409.556 148.44C409.396 148.18 409.236 147.93 409.066 147.68C408.716 147.14 408.356 146.6 407.976 146.06C407.816 145.83 407.656 145.6 407.486 145.37C407.196 144.95 406.886 144.55 406.576 144.14C406.156 143.59 405.736 143.05 405.316 142.51C405.276 142.46 405.236 142.4 405.196 142.35C404.856 141.91 404.516 141.47 404.166 141.03C403.416 140.06 402.656 139.1 401.886 138.14C401.346 137.47 400.816 136.79 400.276 136.12C399.706 135.42 399.136 134.71 398.576 134.01C396.306 131.2 394.006 128.4 391.706 125.6C391.636 125.52 391.576 125.44 391.506 125.37L391.476 125.33Z" fill="white" stroke="#006AB0" stroke-width="10" mask="url(#path-10-inside-1_221_185)"/>
<path d="M195.266 153.26C195.232 153.328 195.197 153.397 195.162 153.468C194.997 153.799 194.866 154.061 194.756 154.312L194.746 154.335L194.736 154.358C194.697 154.441 194.663 154.515 194.631 154.583C194.547 154.764 194.483 154.901 194.418 155.054L194.411 155.072L194.403 155.089C194.115 155.742 193.86 156.355 193.637 156.972L193.632 156.985L193.627 156.998C193.562 157.17 193.528 157.264 193.502 157.346L193.48 157.415L193.455 157.484C193.31 157.865 193.177 158.271 193.043 158.703L193.031 158.74L193.018 158.778C192.976 158.902 192.95 158.99 192.913 159.117C192.887 159.205 192.855 159.313 192.808 159.466C192.401 160.827 192.087 162.207 191.865 163.595L191.863 163.603L191.862 163.611C191.83 163.803 191.812 163.915 191.801 164.016L191.794 164.076L191.785 164.135C191.754 164.326 191.729 164.528 191.7 164.787L191.696 164.82L191.691 164.854C191.659 165.076 191.635 165.297 191.62 165.518L191.614 165.591L191.605 165.663C191.583 165.832 191.567 166.002 191.548 166.224L191.545 166.253C191.526 166.508 191.511 166.696 191.504 166.88L191.502 166.926L191.499 166.972C191.483 167.178 191.474 167.383 191.464 167.646L191.464 167.65L191.464 167.651C191.453 167.914 191.446 168.1 191.446 168.28C191.446 168.438 191.443 168.593 191.441 168.722L191.441 168.731C191.438 168.87 191.436 168.982 191.436 169.09C191.436 169.461 191.437 169.73 191.452 169.997L191.455 170.043L191.455 170.088C191.474 170.978 191.53 171.869 191.623 172.761L191.624 172.771L191.625 172.781C191.672 173.269 191.728 173.764 191.792 174.247C191.811 174.379 191.83 174.511 191.85 174.645L191.85 174.647C191.87 174.781 191.89 174.918 191.91 175.058C192.095 176.297 192.356 177.574 192.665 178.916C192.734 179.185 192.803 179.46 192.869 179.723C192.889 179.801 192.908 179.874 192.926 179.946C192.977 180.143 193.023 180.323 193.076 180.515L193.079 180.528L193.079 180.528C193.177 180.887 193.271 181.225 193.372 181.568L193.379 181.589L193.385 181.611C193.412 181.708 193.434 181.78 193.461 181.873C193.479 181.931 193.499 181.998 193.524 182.085L193.527 182.093C193.564 182.221 193.604 182.35 193.653 182.507L193.656 182.516C193.697 182.649 193.745 182.803 193.793 182.964C193.84 183.106 193.886 183.247 193.931 183.383L193.932 183.386C193.981 183.538 194.029 183.683 194.076 183.825C194.357 184.657 194.656 185.496 194.974 186.333L194.977 186.343L194.98 186.352C195.069 186.591 195.169 186.846 195.271 187.097L195.278 187.112L195.284 187.128C195.562 187.839 195.863 188.566 196.175 189.299L196.182 189.313L196.188 189.328C196.215 189.394 196.245 189.465 196.284 189.555L196.287 189.561C196.32 189.639 196.36 189.732 196.399 189.827C196.431 189.9 196.462 189.974 196.494 190.047C196.731 189.47 196.969 188.896 197.209 188.33C197.239 188.253 197.267 188.19 197.286 188.146L197.313 188.088C197.315 188.081 197.317 188.078 197.318 188.076C197.407 187.866 197.498 187.658 197.583 187.463L197.586 187.458C197.674 187.256 197.756 187.068 197.835 186.882L197.844 186.861L197.853 186.841C198.108 186.271 198.382 185.669 198.672 185.078L198.676 185.07L198.68 185.062L198.685 185.053C198.902 184.619 199.13 184.162 199.37 183.702L199.375 183.694C199.691 183.094 200.023 182.516 200.338 181.978L200.344 181.968L200.35 181.958C203.095 177.361 206.107 172.797 209.082 168.289C211.064 165.286 213.029 162.307 214.889 159.36C215.283 158.729 215.664 158.11 216.012 157.509L216.015 157.503C216.266 157.072 216.504 156.662 216.731 156.256C217.88 154.177 218.853 152.114 219.621 150.034L219.624 150.026L219.624 150.026C219.861 149.389 220.076 148.772 220.27 148.152L220.274 148.142L220.277 148.133C220.346 147.919 220.408 147.704 220.481 147.452C220.493 147.408 220.506 147.364 220.519 147.318C220.576 147.086 220.638 146.868 220.694 146.679L220.771 146.374L220.857 146.03C221.021 145.332 221.164 144.683 221.269 144.044L221.271 144.031L221.274 144.018C221.429 143.132 221.538 142.247 221.602 141.344L221.603 141.33L221.603 141.33C221.668 140.484 221.695 139.635 221.677 138.783L221.676 138.757V138.73C221.676 138.507 221.674 138.449 221.67 138.412L221.663 138.347L221.659 138.281L221.644 137.988L221.63 137.721C221.611 137.433 221.594 137.192 221.569 136.957C221.552 136.787 221.541 136.665 221.531 136.561C221.518 136.413 221.508 136.304 221.488 136.15L221.483 136.116L221.48 136.082C221.467 135.96 221.446 135.814 221.417 135.63C221.383 135.416 221.374 135.336 221.368 135.285C221.362 135.239 221.36 135.216 221.345 135.14L221.334 135.088L221.326 135.036C221.237 134.466 221.119 133.876 220.98 133.272L220.976 133.253L220.972 133.234C220.966 133.21 220.96 133.185 220.94 133.103L220.938 133.095C220.923 133.035 220.901 132.943 220.878 132.837C220.783 132.454 220.698 132.118 220.599 131.78C220.561 131.653 220.537 131.571 220.519 131.505C220.493 131.416 220.477 131.357 220.444 131.261L220.432 131.225L220.421 131.188C220.401 131.12 220.377 131.047 220.343 130.943L220.34 130.933C220.314 130.853 220.281 130.751 220.248 130.643C220.211 130.536 220.175 130.43 220.141 130.33L220.139 130.326C220.099 130.207 220.062 130.097 220.025 129.991C219.958 129.799 219.88 129.59 219.798 129.381L219.791 129.364L219.785 129.348C219.626 128.922 219.455 128.508 219.26 128.062C219.138 127.79 219.033 127.566 218.938 127.383L218.903 127.315L218.894 127.296L218.884 127.278C218.872 127.257 218.852 127.222 218.831 127.184L218.825 127.174L218.819 127.163C218.476 126.532 218.148 126.129 217.89 125.895L217.843 125.852L217.836 125.846L217.817 125.83L217.77 125.792C217.741 125.768 217.7 125.734 217.655 125.695C217.644 125.688 217.634 125.681 217.625 125.675C217.615 125.669 217.607 125.664 217.599 125.658C217.567 125.639 217.538 125.62 217.522 125.61L217.519 125.608L217.504 125.598L217.489 125.59C217.484 125.587 217.479 125.584 217.473 125.581C217.462 125.576 217.453 125.571 217.444 125.567L217.357 125.542L217.306 125.531C217.27 125.524 217.246 125.52 217.23 125.517C217.228 125.517 217.226 125.517 217.224 125.516L217.181 125.512L217.133 125.52H217.062L217.053 125.521C216.896 125.545 216.636 125.627 216.284 125.869L216.278 125.873L216.255 125.891L216.251 125.893C216.232 125.908 216.196 125.935 216.158 125.964C216.137 125.979 216.114 125.996 216.087 126.015L216.006 126.078L215.905 126.157C215.864 126.191 215.832 126.219 215.803 126.244C215.767 126.275 215.746 126.296 215.734 126.308L195.266 153.26ZM195.266 153.26L195.299 153.244L195.672 152.498C195.759 152.324 195.858 152.149 195.992 151.91L195.999 151.898L196.006 151.885C196.779 150.481 197.672 149.056 198.666 147.631L198.666 147.631L198.674 147.619C198.855 147.357 199.048 147.09 199.261 146.796L199.269 146.785L199.277 146.774C199.477 146.491 199.683 146.22 199.92 145.908C199.988 145.819 200.057 145.728 200.13 145.631C200.341 145.36 200.548 145.09 200.751 144.826L200.753 144.823C200.961 144.552 201.165 144.288 201.369 144.025L201.369 144.025L201.378 144.014C201.869 143.375 202.372 142.735 202.883 142.083L202.911 142.047L202.938 142.01L202.97 141.966L202.996 141.93C203.011 141.909 203.02 141.897 203.026 141.889C203.027 141.889 203.027 141.888 203.027 141.888L203.075 141.835L203.131 141.763C203.642 141.104 204.164 140.444 204.695 139.774C207.783 135.891 210.93 132.049 214.088 128.194C214.372 127.848 214.656 127.501 214.94 127.154L214.94 127.154L214.946 127.146C215.139 126.91 215.339 126.694 215.54 126.501L215.639 126.406L215.663 126.377M195.266 153.26L215.663 126.377M215.663 126.377C215.668 126.372 215.674 126.367 215.679 126.361C215.694 126.347 215.713 126.329 215.734 126.308L215.663 126.377ZM217.028 125.396L217.034 125.399L217.028 125.396ZM217.091 125.51C217.082 125.51 217.076 125.51 217.076 125.51C217.076 125.51 217.08 125.51 217.091 125.51Z" fill="white" stroke="#006AB0" stroke-width="5"/>
<mask id="path-12-inside-2_221_185" fill="white">
<path d="M418.606 276.6C416.536 278.85 413.796 281.7 410.956 284.61C390.686 305.37 364.886 320.02 336.546 326.2C335.736 326.38 334.916 326.55 334.106 326.71C333.706 325.71 333.316 324.71 332.926 323.71C332.566 322.78 332.226 321.85 331.876 320.92C331.286 319.35 330.726 317.76 330.176 316.17C330.046 315.81 329.926 315.45 329.806 315.09C329.576 314.42 329.356 313.76 329.136 313.09C328.826 312.16 328.516 311.22 328.226 310.28C328.006 309.56 327.776 308.85 327.556 308.14C327.466 307.86 327.386 307.58 327.296 307.3C326.736 305.43 326.196 303.55 325.676 301.66C319.426 278.72 317.306 255.93 327.826 233.42C328.716 231.51 329.596 229.6 330.466 227.68C330.856 226.84 331.236 226.01 331.626 225.18C332.056 224.27 332.476 223.36 332.906 222.44C333.166 221.89 333.426 221.34 333.696 220.79C334.426 219.27 335.186 217.77 335.966 216.28C336.216 215.8 336.476 215.32 336.726 214.84C337.056 214.23 337.396 213.62 337.736 213.02C338.076 212.41 338.426 211.81 338.776 211.21C338.946 210.91 339.126 210.61 339.316 210.31C339.466 210.05 339.626 209.8 339.786 209.55C340.016 209.17 340.246 208.8 340.486 208.43C340.556 208.32 340.626 208.22 340.696 208.11C341.016 207.62 341.326 207.14 341.666 206.66C341.926 206.28 342.186 205.91 342.446 205.53C342.496 205.46 342.546 205.39 342.596 205.32C342.746 205.1 342.906 204.89 343.056 204.68C343.146 204.55 343.226 204.44 343.326 204.32C343.446 204.15 343.566 203.99 343.686 203.83C346.746 199.78 350.136 196 355.176 194.34C355.656 194.18 356.136 194.06 356.606 193.99C356.756 193.97 356.896 193.95 357.036 193.93C357.136 193.92 357.236 193.91 357.346 193.9C357.786 193.86 358.216 193.86 358.626 193.9C358.996 193.93 359.356 193.99 359.706 194.08C359.786 194.1 359.866 194.12 359.936 194.15C360.056 194.18 360.176 194.22 360.286 194.26C360.416 194.31 360.546 194.36 360.676 194.42C360.736 194.45 360.806 194.47 360.866 194.51C361.186 194.66 361.486 194.85 361.766 195.06C361.876 195.15 361.986 195.23 362.086 195.32C362.196 195.41 362.296 195.51 362.396 195.61C362.496 195.71 362.596 195.81 362.686 195.92C362.736 195.97 362.776 196.03 362.826 196.08C362.896 196.17 362.966 196.25 363.036 196.35C363.106 196.44 363.166 196.54 363.226 196.63C363.306 196.74 363.376 196.86 363.446 196.99C363.536 197.17 363.636 197.35 363.716 197.54C363.746 197.61 363.776 197.69 363.806 197.76C363.836 197.84 363.866 197.91 363.896 197.98C363.946 198.13 363.996 198.28 364.046 198.43C364.116 198.64 364.166 198.86 364.216 199.08C364.266 199.3 364.306 199.53 364.336 199.76C364.756 202.77 364.596 205.94 364.206 208.97C364.156 209.36 364.106 209.76 364.046 210.16C363.996 210.56 363.936 210.95 363.876 211.35C363.556 213.46 363.186 215.56 362.826 217.66C362.696 218.38 362.576 219.1 362.456 219.83C362.346 220.5 362.236 221.16 362.126 221.82C362.076 222.13 362.026 222.43 361.986 222.73C361.856 223.57 361.736 224.41 361.636 225.25C361.596 225.53 361.556 225.8 361.536 226.08C361.516 226.17 361.506 226.25 361.506 226.34C361.436 226.86 361.386 227.38 361.336 227.9C360.906 232.36 360.816 237.03 361.706 241.38C361.736 241.51 361.756 241.64 361.796 241.76C361.816 241.85 361.836 241.93 361.866 242.02C361.866 242.05 361.876 242.07 361.886 242.1C361.936 242.31 361.996 242.52 362.066 242.72C362.096 242.81 362.116 242.9 362.156 242.99C362.186 243.09 362.226 243.19 362.256 243.28C362.286 243.38 362.326 243.47 362.366 243.56C362.456 243.79 362.546 244.01 362.646 244.23C362.736 244.42 362.836 244.61 362.926 244.79C362.996 244.93 363.066 245.06 363.146 245.19C363.216 245.32 363.296 245.44 363.366 245.56C363.446 245.68 363.526 245.8 363.606 245.91C363.766 246.14 363.936 246.37 364.116 246.59C364.196 246.68 364.276 246.78 364.366 246.87C364.376 246.89 364.396 246.91 364.416 246.93C364.516 247.04 364.616 247.15 364.716 247.26C364.926 247.47 365.136 247.67 365.356 247.86C366.076 248.48 366.866 248.99 367.716 249.36C367.826 249.41 367.936 249.46 368.056 249.51C368.386 249.65 368.726 249.77 369.076 249.86C369.146 249.88 369.206 249.9 369.276 249.91C369.346 249.93 369.406 249.94 369.476 249.96C369.606 249.99 369.726 250.02 369.846 250.04C369.976 250.07 370.096 250.09 370.226 250.11C370.316 250.13 370.396 250.14 370.496 250.15C370.626 250.17 370.756 250.18 370.886 250.19C371.036 250.2 371.176 250.21 371.326 250.22C371.476 250.22 371.626 250.23 371.776 250.23C371.946 250.23 372.116 250.23 372.286 250.21C372.426 250.21 372.556 250.2 372.686 250.18C372.886 250.17 373.096 250.14 373.306 250.11C373.456 250.09 373.616 250.06 373.776 250.03C374.126 249.96 374.476 249.88 374.826 249.77C375.036 249.71 375.256 249.64 375.466 249.56C375.686 249.48 375.916 249.39 376.146 249.29C376.316 249.22 376.486 249.14 376.656 249.06C376.826 248.98 376.996 248.89 377.166 248.8C381.976 246.23 386.596 242.82 390.356 238.88C392.276 236.86 394.116 234.78 395.856 232.64C396.036 232.42 396.206 232.21 396.386 231.99C396.486 231.87 396.586 231.74 396.676 231.62C397.066 231.14 397.446 230.65 397.826 230.17C398.146 229.75 398.466 229.34 398.786 228.92C399.106 228.49 399.426 228.06 399.746 227.62C399.886 227.44 400.016 227.26 400.146 227.07C400.276 226.89 400.406 226.71 400.536 226.52C400.826 226.11 401.126 225.7 401.416 225.28C401.706 224.86 401.986 224.46 402.266 224.03C403.566 222.12 404.806 220.18 406.006 218.21C406.796 216.9 407.566 215.58 408.306 214.25C408.556 213.81 408.806 213.36 409.046 212.91C409.246 212.55 409.446 212.18 409.646 211.82C410.326 210.56 410.986 209.3 411.626 208.02C411.816 207.65 412.006 207.28 412.186 206.91C412.456 206.36 412.736 205.81 412.996 205.25C413.206 204.82 413.416 204.39 413.616 203.96C413.886 203.39 414.156 202.82 414.416 202.25C414.776 201.47 415.136 200.69 415.486 199.91C415.846 199.1 416.206 198.29 416.556 197.47V197.42C416.706 197.09 416.846 196.78 416.986 196.45C417.036 196.34 417.086 196.23 417.126 196.12C417.436 195.39 417.746 194.66 418.046 193.92C418.316 193.25 418.596 192.57 418.866 191.89C424.566 177.62 425.316 163.37 420.156 148.79C419.166 145.99 418.196 143.17 417.256 140.35C416.366 137.68 415.496 135.01 414.656 132.33C414.316 131.26 413.986 130.2 413.666 129.13C412.976 126.88 412.316 124.62 411.666 122.36C408.486 111.22 410.076 100.75 417.246 91.37C417.446 91.1 417.646 90.86 417.856 90.62C418.056 90.39 418.256 90.17 418.466 89.97C418.676 89.77 418.866 89.59 419.076 89.42C419.176 89.33 419.276 89.26 419.386 89.18C419.536 89.07 419.686 88.97 419.836 88.87C419.966 88.79 420.086 88.72 420.206 88.66C420.276 88.63 420.336 88.59 420.396 88.57C420.526 88.51 420.656 88.46 420.776 88.41C420.826 88.39 420.886 88.36 420.946 88.36C420.956 88.36 420.966 88.35 420.976 88.35C421.106 88.31 421.226 88.27 421.346 88.25C421.466 88.22 421.586 88.21 421.706 88.2C421.926 88.17 422.156 88.17 422.376 88.2C422.466 88.2 422.556 88.22 422.646 88.24C422.726 88.26 422.806 88.28 422.896 88.3C422.926 88.3 422.966 88.32 422.996 88.33C423.046 88.34 423.096 88.36 423.146 88.38C423.166 88.38 423.176 88.38 423.196 88.4C423.286 88.43 423.366 88.47 423.456 88.51C423.546 88.55 423.626 88.6 423.716 88.65C423.806 88.7 423.886 88.75 423.976 88.8C424.076 88.87 424.166 88.93 424.256 89C424.416 89.13 424.586 89.27 424.746 89.43C424.816 89.49 424.876 89.56 424.936 89.62C425.036 89.72 425.136 89.83 425.226 89.94C425.306 90.04 425.386 90.14 425.466 90.25C425.546 90.35 425.626 90.46 425.696 90.57C425.736 90.63 425.786 90.7 425.826 90.76C425.906 90.88 425.986 91.01 426.056 91.13C426.146 91.28 426.246 91.44 426.326 91.61C426.426 91.78 426.516 91.97 426.606 92.16C426.656 92.25 426.696 92.35 426.746 92.44C433.146 107.85 439.846 123.14 445.836 138.7C450.486 150.79 454.716 163.18 455.476 176.26C457.716 214.98 444.716 248.3 418.666 276.6H418.606Z"/>
</mask>
<path d="M418.606 276.6C416.536 278.85 413.796 281.7 410.956 284.61C390.686 305.37 364.886 320.02 336.546 326.2C335.736 326.38 334.916 326.55 334.106 326.71C333.706 325.71 333.316 324.71 332.926 323.71C332.566 322.78 332.226 321.85 331.876 320.92C331.286 319.35 330.726 317.76 330.176 316.17C330.046 315.81 329.926 315.45 329.806 315.09C329.576 314.42 329.356 313.76 329.136 313.09C328.826 312.16 328.516 311.22 328.226 310.28C328.006 309.56 327.776 308.85 327.556 308.14C327.466 307.86 327.386 307.58 327.296 307.3C326.736 305.43 326.196 303.55 325.676 301.66C319.426 278.72 317.306 255.93 327.826 233.42C328.716 231.51 329.596 229.6 330.466 227.68C330.856 226.84 331.236 226.01 331.626 225.18C332.056 224.27 332.476 223.36 332.906 222.44C333.166 221.89 333.426 221.34 333.696 220.79C334.426 219.27 335.186 217.77 335.966 216.28C336.216 215.8 336.476 215.32 336.726 214.84C337.056 214.23 337.396 213.62 337.736 213.02C338.076 212.41 338.426 211.81 338.776 211.21C338.946 210.91 339.126 210.61 339.316 210.31C339.466 210.05 339.626 209.8 339.786 209.55C340.016 209.17 340.246 208.8 340.486 208.43C340.556 208.32 340.626 208.22 340.696 208.11C341.016 207.62 341.326 207.14 341.666 206.66C341.926 206.28 342.186 205.91 342.446 205.53C342.496 205.46 342.546 205.39 342.596 205.32C342.746 205.1 342.906 204.89 343.056 204.68C343.146 204.55 343.226 204.44 343.326 204.32C343.446 204.15 343.566 203.99 343.686 203.83C346.746 199.78 350.136 196 355.176 194.34C355.656 194.18 356.136 194.06 356.606 193.99C356.756 193.97 356.896 193.95 357.036 193.93C357.136 193.92 357.236 193.91 357.346 193.9C357.786 193.86 358.216 193.86 358.626 193.9C358.996 193.93 359.356 193.99 359.706 194.08C359.786 194.1 359.866 194.12 359.936 194.15C360.056 194.18 360.176 194.22 360.286 194.26C360.416 194.31 360.546 194.36 360.676 194.42C360.736 194.45 360.806 194.47 360.866 194.51C361.186 194.66 361.486 194.85 361.766 195.06C361.876 195.15 361.986 195.23 362.086 195.32C362.196 195.41 362.296 195.51 362.396 195.61C362.496 195.71 362.596 195.81 362.686 195.92C362.736 195.97 362.776 196.03 362.826 196.08C362.896 196.17 362.966 196.25 363.036 196.35C363.106 196.44 363.166 196.54 363.226 196.63C363.306 196.74 363.376 196.86 363.446 196.99C363.536 197.17 363.636 197.35 363.716 197.54C363.746 197.61 363.776 197.69 363.806 197.76C363.836 197.84 363.866 197.91 363.896 197.98C363.946 198.13 363.996 198.28 364.046 198.43C364.116 198.64 364.166 198.86 364.216 199.08C364.266 199.3 364.306 199.53 364.336 199.76C364.756 202.77 364.596 205.94 364.206 208.97C364.156 209.36 364.106 209.76 364.046 210.16C363.996 210.56 363.936 210.95 363.876 211.35C363.556 213.46 363.186 215.56 362.826 217.66C362.696 218.38 362.576 219.1 362.456 219.83C362.346 220.5 362.236 221.16 362.126 221.82C362.076 222.13 362.026 222.43 361.986 222.73C361.856 223.57 361.736 224.41 361.636 225.25C361.596 225.53 361.556 225.8 361.536 226.08C361.516 226.17 361.506 226.25 361.506 226.34C361.436 226.86 361.386 227.38 361.336 227.9C360.906 232.36 360.816 237.03 361.706 241.38C361.736 241.51 361.756 241.64 361.796 241.76C361.816 241.85 361.836 241.93 361.866 242.02C361.866 242.05 361.876 242.07 361.886 242.1C361.936 242.31 361.996 242.52 362.066 242.72C362.096 242.81 362.116 242.9 362.156 242.99C362.186 243.09 362.226 243.19 362.256 243.28C362.286 243.38 362.326 243.47 362.366 243.56C362.456 243.79 362.546 244.01 362.646 244.23C362.736 244.42 362.836 244.61 362.926 244.79C362.996 244.93 363.066 245.06 363.146 245.19C363.216 245.32 363.296 245.44 363.366 245.56C363.446 245.68 363.526 245.8 363.606 245.91C363.766 246.14 363.936 246.37 364.116 246.59C364.196 246.68 364.276 246.78 364.366 246.87C364.376 246.89 364.396 246.91 364.416 246.93C364.516 247.04 364.616 247.15 364.716 247.26C364.926 247.47 365.136 247.67 365.356 247.86C366.076 248.48 366.866 248.99 367.716 249.36C367.826 249.41 367.936 249.46 368.056 249.51C368.386 249.65 368.726 249.77 369.076 249.86C369.146 249.88 369.206 249.9 369.276 249.91C369.346 249.93 369.406 249.94 369.476 249.96C369.606 249.99 369.726 250.02 369.846 250.04C369.976 250.07 370.096 250.09 370.226 250.11C370.316 250.13 370.396 250.14 370.496 250.15C370.626 250.17 370.756 250.18 370.886 250.19C371.036 250.2 371.176 250.21 371.326 250.22C371.476 250.22 371.626 250.23 371.776 250.23C371.946 250.23 372.116 250.23 372.286 250.21C372.426 250.21 372.556 250.2 372.686 250.18C372.886 250.17 373.096 250.14 373.306 250.11C373.456 250.09 373.616 250.06 373.776 250.03C374.126 249.96 374.476 249.88 374.826 249.77C375.036 249.71 375.256 249.64 375.466 249.56C375.686 249.48 375.916 249.39 376.146 249.29C376.316 249.22 376.486 249.14 376.656 249.06C376.826 248.98 376.996 248.89 377.166 248.8C381.976 246.23 386.596 242.82 390.356 238.88C392.276 236.86 394.116 234.78 395.856 232.64C396.036 232.42 396.206 232.21 396.386 231.99C396.486 231.87 396.586 231.74 396.676 231.62C397.066 231.14 397.446 230.65 397.826 230.17C398.146 229.75 398.466 229.34 398.786 228.92C399.106 228.49 399.426 228.06 399.746 227.62C399.886 227.44 400.016 227.26 400.146 227.07C400.276 226.89 400.406 226.71 400.536 226.52C400.826 226.11 401.126 225.7 401.416 225.28C401.706 224.86 401.986 224.46 402.266 224.03C403.566 222.12 404.806 220.18 406.006 218.21C406.796 216.9 407.566 215.58 408.306 214.25C408.556 213.81 408.806 213.36 409.046 212.91C409.246 212.55 409.446 212.18 409.646 211.82C410.326 210.56 410.986 209.3 411.626 208.02C411.816 207.65 412.006 207.28 412.186 206.91C412.456 206.36 412.736 205.81 412.996 205.25C413.206 204.82 413.416 204.39 413.616 203.96C413.886 203.39 414.156 202.82 414.416 202.25C414.776 201.47 415.136 200.69 415.486 199.91C415.846 199.1 416.206 198.29 416.556 197.47V197.42C416.706 197.09 416.846 196.78 416.986 196.45C417.036 196.34 417.086 196.23 417.126 196.12C417.436 195.39 417.746 194.66 418.046 193.92C418.316 193.25 418.596 192.57 418.866 191.89C424.566 177.62 425.316 163.37 420.156 148.79C419.166 145.99 418.196 143.17 417.256 140.35C416.366 137.68 415.496 135.01 414.656 132.33C414.316 131.26 413.986 130.2 413.666 129.13C412.976 126.88 412.316 124.62 411.666 122.36C408.486 111.22 410.076 100.75 417.246 91.37C417.446 91.1 417.646 90.86 417.856 90.62C418.056 90.39 418.256 90.17 418.466 89.97C418.676 89.77 418.866 89.59 419.076 89.42C419.176 89.33 419.276 89.26 419.386 89.18C419.536 89.07 419.686 88.97 419.836 88.87C419.966 88.79 420.086 88.72 420.206 88.66C420.276 88.63 420.336 88.59 420.396 88.57C420.526 88.51 420.656 88.46 420.776 88.41C420.826 88.39 420.886 88.36 420.946 88.36C420.956 88.36 420.966 88.35 420.976 88.35C421.106 88.31 421.226 88.27 421.346 88.25C421.466 88.22 421.586 88.21 421.706 88.2C421.926 88.17 422.156 88.17 422.376 88.2C422.466 88.2 422.556 88.22 422.646 88.24C422.726 88.26 422.806 88.28 422.896 88.3C422.926 88.3 422.966 88.32 422.996 88.33C423.046 88.34 423.096 88.36 423.146 88.38C423.166 88.38 423.176 88.38 423.196 88.4C423.286 88.43 423.366 88.47 423.456 88.51C423.546 88.55 423.626 88.6 423.716 88.65C423.806 88.7 423.886 88.75 423.976 88.8C424.076 88.87 424.166 88.93 424.256 89C424.416 89.13 424.586 89.27 424.746 89.43C424.816 89.49 424.876 89.56 424.936 89.62C425.036 89.72 425.136 89.83 425.226 89.94C425.306 90.04 425.386 90.14 425.466 90.25C425.546 90.35 425.626 90.46 425.696 90.57C425.736 90.63 425.786 90.7 425.826 90.76C425.906 90.88 425.986 91.01 426.056 91.13C426.146 91.28 426.246 91.44 426.326 91.61C426.426 91.78 426.516 91.97 426.606 92.16C426.656 92.25 426.696 92.35 426.746 92.44C433.146 107.85 439.846 123.14 445.836 138.7C450.486 150.79 454.716 163.18 455.476 176.26C457.716 214.98 444.716 248.3 418.666 276.6H418.606Z" fill="white" stroke="#006AB0" stroke-width="10" mask="url(#path-12-inside-2_221_185)"/>
<mask id="path-13-inside-3_221_185" fill="white">
<path d="M278.996 301.67C278.806 302.36 278.616 303.04 278.426 303.73C278.286 304.21 278.156 304.69 278.016 305.16C277.826 305.8 277.646 306.43 277.446 307.07C277.346 307.43 277.236 307.79 277.116 308.15C276.896 308.87 276.676 309.58 276.446 310.29C276.216 311.01 275.986 311.72 275.756 312.44C275.546 313.09 275.336 313.73 275.096 314.41C274.916 314.92 274.756 315.43 274.586 315.94C274.546 316.05 274.506 316.16 274.466 316.27C274.186 317.08 273.896 317.89 273.606 318.7C273.336 319.45 273.066 320.19 272.796 320.93C272.626 321.4 272.446 321.86 272.276 322.33C272.086 322.85 271.886 323.37 271.686 323.89C271.376 324.69 271.066 325.49 270.746 326.29C270.696 326.44 270.636 326.58 270.576 326.73C269.756 326.56 268.946 326.39 268.126 326.22C239.486 319.97 213.506 305.01 193.066 284C190.696 281.57 188.366 279.11 186.066 276.62C160.006 248.33 147.016 215 149.246 176.28C150.006 163.19 154.226 150.81 158.886 138.72C164.876 123.16 171.576 107.87 177.976 92.46L178.086 92.23C178.176 92.06 178.246 91.89 178.346 91.74C178.406 91.63 178.466 91.52 178.526 91.41C178.786 90.96 179.046 90.55 179.326 90.2C179.386 90.12 179.456 90.04 179.516 89.97C179.646 89.81 179.786 89.65 179.936 89.51C180.036 89.41 180.146 89.31 180.246 89.22C180.626 88.89 181.026 88.64 181.436 88.48C181.456 88.47 181.476 88.46 181.506 88.45C181.586 88.42 181.666 88.39 181.756 88.37C181.836 88.35 181.906 88.33 181.986 88.31C182.006 88.31 182.016 88.31 182.036 88.31C182.036 88.31 182.066 88.31 182.076 88.3H182.116C182.116 88.3 182.146 88.29 182.156 88.29H182.176C182.236 88.28 182.296 88.27 182.356 88.26C182.446 88.25 182.546 88.24 182.636 88.24H182.796C182.906 88.24 183.026 88.25 183.136 88.27C183.146 88.27 183.156 88.27 183.166 88.27C183.436 88.31 183.706 88.38 183.976 88.49C184.086 88.53 184.196 88.58 184.306 88.63C184.436 88.69 184.566 88.76 184.696 88.83C184.696 88.83 184.696 88.83 184.706 88.83C184.706 88.83 184.716 88.84 184.726 88.84C184.816 88.89 184.896 88.94 184.986 89C185.046 89.04 185.106 89.08 185.166 89.13C185.246 89.18 185.316 89.24 185.396 89.29C185.476 89.34 185.546 89.4 185.626 89.47C185.826 89.63 186.026 89.81 186.236 90.02C186.336 90.12 186.436 90.22 186.546 90.33C186.746 90.55 186.946 90.78 187.156 91.03C187.256 91.16 187.356 91.29 187.466 91.42C194.636 100.8 196.226 111.28 193.046 122.41C192.406 124.67 191.736 126.93 191.046 129.18C190.716 130.25 190.386 131.32 190.056 132.39C189.386 134.54 188.686 136.68 187.986 138.82C187.816 139.34 187.636 139.87 187.466 140.39C186.836 142.3 186.186 144.2 185.526 146.09C185.206 147.01 184.886 147.93 184.566 148.84C179.406 163.42 180.156 177.67 185.846 191.94C186.126 192.65 186.416 193.36 186.706 194.07C187.416 195.8 188.146 197.52 188.906 199.23C189.186 199.88 189.476 200.53 189.776 201.17C190.006 201.68 190.236 202.18 190.466 202.68C190.696 203.18 190.926 203.69 191.166 204.18C191.196 204.25 191.216 204.3 191.256 204.36C191.546 204.98 191.846 205.59 192.146 206.21C192.406 206.73 192.656 207.24 192.916 207.76C193.296 208.52 193.686 209.28 194.086 210.04C194.306 210.47 194.536 210.9 194.766 211.32C195.796 213.25 196.856 215.14 197.976 217.02C198.176 217.36 198.376 217.71 198.586 218.05C198.626 218.12 198.666 218.19 198.716 218.26C199.026 218.77 199.326 219.27 199.646 219.77C199.846 220.1 200.056 220.42 200.266 220.75C200.976 221.88 201.706 222.99 202.466 224.09C202.706 224.46 202.956 224.81 203.206 225.17C203.836 226.07 204.476 226.97 205.116 227.85C205.396 228.23 205.676 228.6 205.956 228.97C206.766 230.05 207.596 231.11 208.446 232.17C208.876 232.69 209.296 233.21 209.736 233.73C210.666 234.84 211.626 235.94 212.606 237.02C212.876 237.33 213.156 237.63 213.446 237.94C213.756 238.27 214.066 238.61 214.376 238.93C218.126 242.87 222.756 246.28 227.566 248.85C227.736 248.94 227.906 249.02 228.076 249.11C228.246 249.19 228.416 249.27 228.586 249.34C228.806 249.43 229.036 249.53 229.266 249.61C229.476 249.69 229.696 249.75 229.906 249.82C230.366 249.96 230.836 250.06 231.296 250.14C231.516 250.17 231.746 250.2 231.966 250.22C234.736 250.49 237.346 249.64 239.376 247.9C239.596 247.71 239.816 247.51 240.016 247.3C240.116 247.19 240.216 247.09 240.316 246.97L240.366 246.92C241.066 246.12 241.676 245.19 242.146 244.15C242.216 244.01 242.276 243.87 242.326 243.73C242.396 243.57 242.456 243.41 242.516 243.25C242.546 243.18 242.566 243.1 242.596 243.03C242.646 242.88 242.696 242.74 242.736 242.58C242.746 242.57 242.746 242.55 242.746 242.54C242.816 242.34 242.866 242.14 242.916 241.93C242.956 241.76 242.996 241.59 243.026 241.42C243.906 237.08 243.816 232.4 243.386 227.94C243.336 227.42 243.286 226.9 243.216 226.38C243.216 226.3 243.196 226.21 243.186 226.12C243.156 225.84 243.116 225.57 243.086 225.29C243.086 225.25 243.086 225.2 243.066 225.16C243.036 224.9 242.996 224.64 242.966 224.38C242.896 223.84 242.816 223.31 242.736 222.77C242.696 222.46 242.646 222.16 242.596 221.86C242.496 221.19 242.386 220.53 242.266 219.87C242.146 219.14 242.016 218.42 241.896 217.7C241.626 216.17 241.356 214.64 241.106 213.11C241.066 212.84 241.016 212.56 240.976 212.28C240.916 211.92 240.866 211.56 240.806 211.19C240.756 210.83 240.696 210.47 240.646 210.1C240.596 209.74 240.546 209.37 240.496 209.01C240.106 205.98 239.946 202.81 240.366 199.8C240.386 199.65 240.406 199.51 240.436 199.37C240.466 199.23 240.486 199.09 240.526 198.95C240.566 198.81 240.596 198.68 240.636 198.55C240.666 198.42 240.716 198.29 240.756 198.16C240.796 198.03 240.846 197.91 240.896 197.79C240.956 197.64 241.026 197.49 241.096 197.35C241.306 196.92 241.546 196.53 241.836 196.18C241.916 196.09 241.986 195.99 242.066 195.91C242.146 195.82 242.226 195.74 242.316 195.65C242.396 195.57 242.476 195.49 242.566 195.41C242.656 195.33 242.746 195.26 242.836 195.19C242.926 195.12 243.026 195.05 243.116 194.98C243.216 194.91 243.316 194.85 243.416 194.79C243.546 194.71 243.676 194.65 243.806 194.58C243.816 194.58 243.826 194.57 243.836 194.56C243.896 194.53 243.956 194.51 244.016 194.48C244.026 194.48 244.036 194.47 244.046 194.46C244.086 194.44 244.126 194.43 244.156 194.41C244.176 194.41 244.186 194.4 244.206 194.39C244.576 194.24 244.966 194.12 245.376 194.04C245.496 194.02 245.616 194 245.736 193.98C245.916 193.95 246.106 193.93 246.296 193.93C246.436 193.92 246.576 193.91 246.716 193.91C247.166 193.91 247.626 193.94 248.096 194.02C248.566 194.1 249.036 194.22 249.526 194.37C254.566 196.03 257.946 199.81 261.016 203.86C261.386 204.36 261.756 204.85 262.116 205.36C262.306 205.62 262.496 205.89 262.676 206.15C262.806 206.35 262.946 206.54 263.076 206.74C263.256 207 263.426 207.26 263.596 207.53C264.326 208.63 265.026 209.74 265.696 210.87C265.866 211.15 266.036 211.44 266.206 211.72C268.226 215.17 270.016 218.74 271.736 222.35C271.986 222.87 272.226 223.38 272.466 223.9C272.836 224.69 273.206 225.49 273.576 226.29C274.686 228.68 275.776 231.07 276.886 233.46C287.416 255.97 285.286 278.76 279.046 301.7L278.996 301.67Z"/>
</mask>
<path d="M278.996 301.67C278.806 302.36 278.616 303.04 278.426 303.73C278.286 304.21 278.156 304.69 278.016 305.16C277.826 305.8 277.646 306.43 277.446 307.07C277.346 307.43 277.236 307.79 277.116 308.15C276.896 308.87 276.676 309.58 276.446 310.29C276.216 311.01 275.986 311.72 275.756 312.44C275.546 313.09 275.336 313.73 275.096 314.41C274.916 314.92 274.756 315.43 274.586 315.94C274.546 316.05 274.506 316.16 274.466 316.27C274.186 317.08 273.896 317.89 273.606 318.7C273.336 319.45 273.066 320.19 272.796 320.93C272.626 321.4 272.446 321.86 272.276 322.33C272.086 322.85 271.886 323.37 271.686 323.89C271.376 324.69 271.066 325.49 270.746 326.29C270.696 326.44 270.636 326.58 270.576 326.73C269.756 326.56 268.946 326.39 268.126 326.22C239.486 319.97 213.506 305.01 193.066 284C190.696 281.57 188.366 279.11 186.066 276.62C160.006 248.33 147.016 215 149.246 176.28C150.006 163.19 154.226 150.81 158.886 138.72C164.876 123.16 171.576 107.87 177.976 92.46L178.086 92.23C178.176 92.06 178.246 91.89 178.346 91.74C178.406 91.63 178.466 91.52 178.526 91.41C178.786 90.96 179.046 90.55 179.326 90.2C179.386 90.12 179.456 90.04 179.516 89.97C179.646 89.81 179.786 89.65 179.936 89.51C180.036 89.41 180.146 89.31 180.246 89.22C180.626 88.89 181.026 88.64 181.436 88.48C181.456 88.47 181.476 88.46 181.506 88.45C181.586 88.42 181.666 88.39 181.756 88.37C181.836 88.35 181.906 88.33 181.986 88.31C182.006 88.31 182.016 88.31 182.036 88.31C182.036 88.31 182.066 88.31 182.076 88.3H182.116C182.116 88.3 182.146 88.29 182.156 88.29H182.176C182.236 88.28 182.296 88.27 182.356 88.26C182.446 88.25 182.546 88.24 182.636 88.24H182.796C182.906 88.24 183.026 88.25 183.136 88.27C183.146 88.27 183.156 88.27 183.166 88.27C183.436 88.31 183.706 88.38 183.976 88.49C184.086 88.53 184.196 88.58 184.306 88.63C184.436 88.69 184.566 88.76 184.696 88.83C184.696 88.83 184.696 88.83 184.706 88.83C184.706 88.83 184.716 88.84 184.726 88.84C184.816 88.89 184.896 88.94 184.986 89C185.046 89.04 185.106 89.08 185.166 89.13C185.246 89.18 185.316 89.24 185.396 89.29C185.476 89.34 185.546 89.4 185.626 89.47C185.826 89.63 186.026 89.81 186.236 90.02C186.336 90.12 186.436 90.22 186.546 90.33C186.746 90.55 186.946 90.78 187.156 91.03C187.256 91.16 187.356 91.29 187.466 91.42C194.636 100.8 196.226 111.28 193.046 122.41C192.406 124.67 191.736 126.93 191.046 129.18C190.716 130.25 190.386 131.32 190.056 132.39C189.386 134.54 188.686 136.68 187.986 138.82C187.816 139.34 187.636 139.87 187.466 140.39C186.836 142.3 186.186 144.2 185.526 146.09C185.206 147.01 184.886 147.93 184.566 148.84C179.406 163.42 180.156 177.67 185.846 191.94C186.126 192.65 186.416 193.36 186.706 194.07C187.416 195.8 188.146 197.52 188.906 199.23C189.186 199.88 189.476 200.53 189.776 201.17C190.006 201.68 190.236 202.18 190.466 202.68C190.696 203.18 190.926 203.69 191.166 204.18C191.196 204.25 191.216 204.3 191.256 204.36C191.546 204.98 191.846 205.59 192.146 206.21C192.406 206.73 192.656 207.24 192.916 207.76C193.296 208.52 193.686 209.28 194.086 210.04C194.306 210.47 194.536 210.9 194.766 211.32C195.796 213.25 196.856 215.14 197.976 217.02C198.176 217.36 198.376 217.71 198.586 218.05C198.626 218.12 198.666 218.19 198.716 218.26C199.026 218.77 199.326 219.27 199.646 219.77C199.846 220.1 200.056 220.42 200.266 220.75C200.976 221.88 201.706 222.99 202.466 224.09C202.706 224.46 202.956 224.81 203.206 225.17C203.836 226.07 204.476 226.97 205.116 227.85C205.396 228.23 205.676 228.6 205.956 228.97C206.766 230.05 207.596 231.11 208.446 232.17C208.876 232.69 209.296 233.21 209.736 233.73C210.666 234.84 211.626 235.94 212.606 237.02C212.876 237.33 213.156 237.63 213.446 237.94C213.756 238.27 214.066 238.61 214.376 238.93C218.126 242.87 222.756 246.28 227.566 248.85C227.736 248.94 227.906 249.02 228.076 249.11C228.246 249.19 228.416 249.27 228.586 249.34C228.806 249.43 229.036 249.53 229.266 249.61C229.476 249.69 229.696 249.75 229.906 249.82C230.366 249.96 230.836 250.06 231.296 250.14C231.516 250.17 231.746 250.2 231.966 250.22C234.736 250.49 237.346 249.64 239.376 247.9C239.596 247.71 239.816 247.51 240.016 247.3C240.116 247.19 240.216 247.09 240.316 246.97L240.366 246.92C241.066 246.12 241.676 245.19 242.146 244.15C242.216 244.01 242.276 243.87 242.326 243.73C242.396 243.57 242.456 243.41 242.516 243.25C242.546 243.18 242.566 243.1 242.596 243.03C242.646 242.88 242.696 242.74 242.736 242.58C242.746 242.57 242.746 242.55 242.746 242.54C242.816 242.34 242.866 242.14 242.916 241.93C242.956 241.76 242.996 241.59 243.026 241.42C243.906 237.08 243.816 232.4 243.386 227.94C243.336 227.42 243.286 226.9 243.216 226.38C243.216 226.3 243.196 226.21 243.186 226.12C243.156 225.84 243.116 225.57 243.086 225.29C243.086 225.25 243.086 225.2 243.066 225.16C243.036 224.9 242.996 224.64 242.966 224.38C242.896 223.84 242.816 223.31 242.736 222.77C242.696 222.46 242.646 222.16 242.596 221.86C242.496 221.19 242.386 220.53 242.266 219.87C242.146 219.14 242.016 218.42 241.896 217.7C241.626 216.17 241.356 214.64 241.106 213.11C241.066 212.84 241.016 212.56 240.976 212.28C240.916 211.92 240.866 211.56 240.806 211.19C240.756 210.83 240.696 210.47 240.646 210.1C240.596 209.74 240.546 209.37 240.496 209.01C240.106 205.98 239.946 202.81 240.366 199.8C240.386 199.65 240.406 199.51 240.436 199.37C240.466 199.23 240.486 199.09 240.526 198.95C240.566 198.81 240.596 198.68 240.636 198.55C240.666 198.42 240.716 198.29 240.756 198.16C240.796 198.03 240.846 197.91 240.896 197.79C240.956 197.64 241.026 197.49 241.096 197.35C241.306 196.92 241.546 196.53 241.836 196.18C241.916 196.09 241.986 195.99 242.066 195.91C242.146 195.82 242.226 195.74 242.316 195.65C242.396 195.57 242.476 195.49 242.566 195.41C242.656 195.33 242.746 195.26 242.836 195.19C242.926 195.12 243.026 195.05 243.116 194.98C243.216 194.91 243.316 194.85 243.416 194.79C243.546 194.71 243.676 194.65 243.806 194.58C243.816 194.58 243.826 194.57 243.836 194.56C243.896 194.53 243.956 194.51 244.016 194.48C244.026 194.48 244.036 194.47 244.046 194.46C244.086 194.44 244.126 194.43 244.156 194.41C244.176 194.41 244.186 194.4 244.206 194.39C244.576 194.24 244.966 194.12 245.376 194.04C245.496 194.02 245.616 194 245.736 193.98C245.916 193.95 246.106 193.93 246.296 193.93C246.436 193.92 246.576 193.91 246.716 193.91C247.166 193.91 247.626 193.94 248.096 194.02C248.566 194.1 249.036 194.22 249.526 194.37C254.566 196.03 257.946 199.81 261.016 203.86C261.386 204.36 261.756 204.85 262.116 205.36C262.306 205.62 262.496 205.89 262.676 206.15C262.806 206.35 262.946 206.54 263.076 206.74C263.256 207 263.426 207.26 263.596 207.53C264.326 208.63 265.026 209.74 265.696 210.87C265.866 211.15 266.036 211.44 266.206 211.72C268.226 215.17 270.016 218.74 271.736 222.35C271.986 222.87 272.226 223.38 272.466 223.9C272.836 224.69 273.206 225.49 273.576 226.29C274.686 228.68 275.776 231.07 276.886 233.46C287.416 255.97 285.286 278.76 279.046 301.7L278.996 301.67Z" fill="white" stroke="#006AB0" stroke-width="10" mask="url(#path-13-inside-3_221_185)"/>
<path d="M252.216 73.24C252.216 83.5403 243.866 91.89 233.566 91.89C223.266 91.89 214.916 83.5403 214.916 73.24C214.916 62.9397 223.266 54.59 233.566 54.59C243.866 54.59 252.216 62.9397 252.216 73.24Z" fill="white" stroke="#006AB0" stroke-width="5"/>
</svg>
